<?xml version="1.0" encoding="UTF-8" standalone="no"?>
<!DOCTYPE svg PUBLIC "-//W3C//DTD SVG 1.1//EN"
 "http://www.w3.org/Graphics/SVG/1.1/DTD/svg11.dtd">
<!-- Generated by graphviz version 2.38.0 (20140413.2041)
 -->
<!-- Title: dynamicgraph::Entity Pages: 1 -->
<svg width="994pt" height="211pt"
 viewBox="0.00 0.00 994.00 211.00" xmlns="http://www.w3.org/2000/svg" xmlns:xlink="http://www.w3.org/1999/xlink">
<g id="graph0" class="graph" transform="scale(1 1) rotate(0) translate(4 207)">
<title>dynamicgraph::Entity</title>
<polygon fill="white" stroke="none" points="-4,4 -4,-207 990,-207 990,4 -4,4"/>
<!-- Node1 -->
<g id="node1" class="node"><title>Node1</title>
<polygon fill="#bfbfbf" stroke="black" points="877,-121.5 877,-140.5 986,-140.5 986,-121.5 877,-121.5"/>
<text text-anchor="middle" x="931.5" y="-128.5" font-family="Helvetica,sans-Serif" font-size="10.00">dynamicgraph::Entity</text>
</g>
<!-- Node2 -->
<g id="node2" class="node"><title>Node2</title>
<polygon fill="white" stroke="#bfbfbf" points="701,-183.5 701,-202.5 772,-202.5 772,-183.5 701,-183.5"/>
<text text-anchor="middle" x="736.5" y="-190.5" font-family="Helvetica,sans-Serif" font-size="10.00">noncopyable</text>
</g>
<!-- Node2&#45;&gt;Node1 -->
<g id="edge1" class="edge"><title>Node2&#45;&gt;Node1</title>
<path fill="none" stroke="#8b1a1a" d="M782.187,-186.824C805.5,-182.852 834.242,-176.764 859,-168 879.29,-160.817 901.043,-148.887 915.156,-140.52"/>
<polygon fill="#8b1a1a" stroke="#8b1a1a" points="781.531,-183.385 772.225,-188.45 782.659,-190.293 781.531,-183.385"/>
</g>
<!-- Node3 -->
<g id="node3" class="node"><title>Node3</title>
<polygon fill="white" stroke="#bfbfbf" points="439,-139 439,-169 601,-169 601,-139 439,-139"/>
<text text-anchor="start" x="447" y="-157" font-family="Helvetica,sans-Serif" font-size="10.00">std::map&lt; const std</text>
<text text-anchor="middle" x="520" y="-146" font-family="Helvetica,sans-Serif" font-size="10.00">::string, command::Command * &gt;</text>
</g>
<!-- Node3&#45;&gt;Node1 -->
<g id="edge2" class="edge"><title>Node3&#45;&gt;Node1</title>
<path fill="none" stroke="#9a32cd" stroke-dasharray="5,2" d="M611.654,-148.908C693.008,-144.339 809.666,-137.787 876.996,-134.005"/>
<polygon fill="#9a32cd" stroke="#9a32cd" points="611.203,-145.428 601.415,-149.483 611.596,-152.417 611.203,-145.428"/>
<text text-anchor="middle" x="736.5" y="-148" font-family="Helvetica,sans-Serif" font-size="10.00"> commandMap</text>
</g>
<!-- Node4 -->
<g id="node4" class="node"><title>Node4</title>
<g id="a_node4"><a xlink:href="a00007.html" target="_top" xlink:title="Abstract class for entity commands. ">
<polygon fill="white" stroke="black" points="234,-160 234,-190 360,-190 360,-160 234,-160"/>
<text text-anchor="start" x="242" y="-178" font-family="Helvetica,sans-Serif" font-size="10.00">dynamicgraph::command</text>
<text text-anchor="middle" x="297" y="-167" font-family="Helvetica,sans-Serif" font-size="10.00">::Command</text>
</a>
</g>
</g>
<!-- Node4&#45;&gt;Node3 -->
<g id="edge3" class="edge"><title>Node4&#45;&gt;Node3</title>
<path fill="none" stroke="#9a32cd" stroke-dasharray="5,2" d="M370.354,-168.125C392.226,-166.046 416.372,-163.752 438.729,-161.628"/>
<polygon fill="#9a32cd" stroke="#9a32cd" points="369.773,-164.664 360.149,-169.094 370.435,-171.633 369.773,-164.664"/>
<text text-anchor="middle" x="399.5" y="-170" font-family="Helvetica,sans-Serif" font-size="10.00"> elements</text>
</g>
<!-- Node5 -->
<g id="node5" class="node"><title>Node5</title>
<polygon fill="white" stroke="#bfbfbf" points="0,-160 0,-190 133,-190 133,-160 0,-160"/>
<text text-anchor="start" x="8" y="-178" font-family="Helvetica,sans-Serif" font-size="10.00">std::vector&lt; dynamicgraph</text>
<text text-anchor="middle" x="66.5" y="-167" font-family="Helvetica,sans-Serif" font-size="10.00">::command::Value::Type &gt;</text>
</g>
<!-- Node5&#45;&gt;Node4 -->
<g id="edge4" class="edge"><title>Node5&#45;&gt;Node4</title>
<path fill="none" stroke="#9a32cd" stroke-dasharray="5,2" d="M143.485,-175C172.813,-175 205.944,-175 233.816,-175"/>
<polygon fill="#9a32cd" stroke="#9a32cd" points="143.285,-171.5 133.285,-175 143.285,-178.5 143.285,-171.5"/>
<text text-anchor="middle" x="183.5" y="-178" font-family="Helvetica,sans-Serif" font-size="10.00"> EMPTY_ARG</text>
</g>
<!-- Node6 -->
<g id="node6" class="node"><title>Node6</title>
<g id="a_node6"><a xlink:title="STL class. ">
<polygon fill="white" stroke="#bfbfbf" points="267,-78.5 267,-97.5 327,-97.5 327,-78.5 267,-78.5"/>
<text text-anchor="middle" x="297" y="-85.5" font-family="Helvetica,sans-Serif" font-size="10.00">std::string</text>
</a>
</g>
</g>
<!-- Node6&#45;&gt;Node1 -->
<g id="edge7" class="edge"><title>Node6&#45;&gt;Node1</title>
<path fill="none" stroke="#9a32cd" stroke-dasharray="5,2" d="M337.271,-91.0082C350.237,-91.9846 364.735,-93.0584 378,-94 560.917,-106.984 777.993,-121.161 876.767,-127.545"/>
<polygon fill="#9a32cd" stroke="#9a32cd" points="337.489,-87.5148 327.253,-90.2503 336.961,-94.4948 337.489,-87.5148"/>
<text text-anchor="middle" x="640.5" y="-117" font-family="Helvetica,sans-Serif" font-size="10.00"> name</text>
</g>
<!-- Node6&#45;&gt;Node3 -->
<g id="edge5" class="edge"><title>Node6&#45;&gt;Node3</title>
<path fill="none" stroke="#9a32cd" stroke-dasharray="5,2" d="M330.002,-101.468C344.504,-107.294 361.962,-113.924 378,-119 401.566,-126.458 427.752,-133.335 451.099,-138.983"/>
<polygon fill="#9a32cd" stroke="#9a32cd" points="331.069,-98.1234 320.487,-97.5924 328.428,-104.606 331.069,-98.1234"/>
<text text-anchor="middle" x="399.5" y="-135" font-family="Helvetica,sans-Serif" font-size="10.00"> keys</text>
</g>
<!-- Node8 -->
<g id="node8" class="node"><title>Node8</title>
<polygon fill="white" stroke="#bfbfbf" points="680,-49 680,-79 793,-79 793,-49 680,-49"/>
<text text-anchor="start" x="688" y="-67" font-family="Helvetica,sans-Serif" font-size="10.00">std::map&lt; std::string,</text>
<text text-anchor="middle" x="736.5" y="-56" font-family="Helvetica,sans-Serif" font-size="10.00"> SignalBase&lt; int &gt; * &gt;</text>
</g>
<!-- Node6&#45;&gt;Node8 -->
<g id="edge9" class="edge"><title>Node6&#45;&gt;Node8</title>
<path fill="none" stroke="#9a32cd" stroke-dasharray="5,2" d="M337.406,-85.8383C415.516,-81.5534 590.167,-71.9726 679.916,-67.0492"/>
<polygon fill="#9a32cd" stroke="#9a32cd" points="336.838,-82.3641 327.044,-86.4067 337.221,-89.3536 336.838,-82.3641"/>
<text text-anchor="middle" x="520" y="-83" font-family="Helvetica,sans-Serif" font-size="10.00"> keys</text>
</g>
<!-- Node9 -->
<g id="node9" class="node"><title>Node9</title>
<g id="a_node9"><a xlink:href="a00044.html" target="_top" xlink:title="dynamicgraph::SignalBase\l\&lt; int \&gt;">
<polygon fill="white" stroke="black" points="453.5,-2 453.5,-32 586.5,-32 586.5,-2 453.5,-2"/>
<text text-anchor="start" x="461.5" y="-20" font-family="Helvetica,sans-Serif" font-size="10.00">dynamicgraph::SignalBase</text>
<text text-anchor="middle" x="520" y="-9" font-family="Helvetica,sans-Serif" font-size="10.00">&lt; int &gt;</text>
</a>
</g>
</g>
<!-- Node6&#45;&gt;Node9 -->
<g id="edge12" class="edge"><title>Node6&#45;&gt;Node9</title>
<path fill="none" stroke="#9a32cd" stroke-dasharray="5,2" d="M320.951,-72.8395C336.468,-63.2394 357.748,-51.3013 378,-44 401.916,-35.3778 429.158,-29.3401 453.279,-25.1962"/>
<polygon fill="#9a32cd" stroke="#9a32cd" points="318.668,-70.143 312.095,-78.4525 322.415,-76.0555 318.668,-70.143"/>
<text text-anchor="middle" x="399.5" y="-47" font-family="Helvetica,sans-Serif" font-size="10.00"> name</text>
</g>
<!-- Node7 -->
<g id="node7" class="node"><title>Node7</title>
<g id="a_node7"><a xlink:title="STL class. ">
<polygon fill="white" stroke="#bfbfbf" points="19,-73 19,-103 114,-103 114,-73 19,-73"/>
<text text-anchor="start" x="27" y="-91" font-family="Helvetica,sans-Serif" font-size="10.00">std::basic_string&lt;</text>
<text text-anchor="middle" x="66.5" y="-80" font-family="Helvetica,sans-Serif" font-size="10.00"> char &gt;</text>
</a>
</g>
</g>
<!-- Node7&#45;&gt;Node6 -->
<g id="edge6" class="edge"><title>Node7&#45;&gt;Node6</title>
<path fill="none" stroke="midnightblue" d="M124.282,-88C169.566,-88 231.136,-88 266.919,-88"/>
<polygon fill="midnightblue" stroke="midnightblue" points="124.016,-84.5001 114.016,-88 124.016,-91.5001 124.016,-84.5001"/>
</g>
<!-- Node8&#45;&gt;Node1 -->
<g id="edge8" class="edge"><title>Node8&#45;&gt;Node1</title>
<path fill="none" stroke="#9a32cd" stroke-dasharray="5,2" d="M803.354,-68.9825C821.793,-71.7897 841.555,-76.1699 859,-83 882.389,-92.1572 905.872,-109.967 919.254,-121.13"/>
<polygon fill="#9a32cd" stroke="#9a32cd" points="803.655,-65.4908 793.269,-67.5792 802.691,-72.424 803.655,-65.4908"/>
<text text-anchor="middle" x="835" y="-86" font-family="Helvetica,sans-Serif" font-size="10.00"> signalMap</text>
</g>
<!-- Node9&#45;&gt;Node8 -->
<g id="edge10" class="edge"><title>Node9&#45;&gt;Node8</title>
<path fill="none" stroke="#9a32cd" stroke-dasharray="5,2" d="M596.455,-30.3454C617.722,-34.4056 640.828,-39.0999 662,-44 668.571,-45.5207 675.441,-47.2293 682.229,-48.9906"/>
<polygon fill="#9a32cd" stroke="#9a32cd" points="596.98,-26.8827 586.504,-28.4657 595.68,-33.7611 596.98,-26.8827"/>
<text text-anchor="middle" x="640.5" y="-47" font-family="Helvetica,sans-Serif" font-size="10.00"> elements</text>
</g>
<!-- Node10 -->
<g id="node10" class="node"><title>Node10</title>
<polygon fill="white" stroke="#bfbfbf" points="246.5,-0.5 246.5,-19.5 347.5,-19.5 347.5,-0.5 246.5,-0.5"/>
<text text-anchor="middle" x="297" y="-7.5" font-family="Helvetica,sans-Serif" font-size="10.00">boost::noncopyable</text>
</g>
<!-- Node10&#45;&gt;Node9 -->
<g id="edge11" class="edge"><title>Node10&#45;&gt;Node9</title>
<path fill="none" stroke="midnightblue" d="M357.757,-11.8928C387.262,-12.8273 422.933,-13.9572 453.215,-14.9163"/>
<polygon fill="midnightblue" stroke="midnightblue" points="357.703,-8.38937 347.597,-11.5709 357.481,-15.3859 357.703,-8.38937"/>
</g>
</g>
</svg>
