<?xml version="1.0" encoding="UTF-8" standalone="no"?>
<!DOCTYPE svg PUBLIC "-//W3C//DTD SVG 1.1//EN"
 "http://www.w3.org/Graphics/SVG/1.1/DTD/svg11.dtd">
<!-- Generated by graphviz version 2.38.0 (20140413.2041)
 -->
<!-- Title: signal.t.cpp Pages: 1 -->
<svg width="1768pt" height="408pt"
 viewBox="0.00 0.00 1767.96 408.00" xmlns="http://www.w3.org/2000/svg" xmlns:xlink="http://www.w3.org/1999/xlink">
<g id="graph0" class="graph" transform="scale(1 1) rotate(0) translate(4 404)">
<title>signal.t.cpp</title>
<polygon fill="white" stroke="none" points="-4,4 -4,-404 1763.96,-404 1763.96,4 -4,4"/>
<!-- Node1 -->
<g id="node1" class="node"><title>Node1</title>
<polygon fill="#bfbfbf" stroke="black" points="516.5,-380.5 516.5,-399.5 583.5,-399.5 583.5,-380.5 516.5,-380.5"/>
<text text-anchor="middle" x="550" y="-387.5" font-family="Helvetica,sans-Serif" font-size="10.00">signal.t.cpp</text>
</g>
<!-- Node2 -->
<g id="node2" class="node"><title>Node2</title>
<g id="a_node2"><a xlink:href="a00090.html" target="_top" xlink:title="dynamic&#45;graph/signal.h">
<polygon fill="white" stroke="black" points="299.5,-324.5 299.5,-343.5 416.5,-343.5 416.5,-324.5 299.5,-324.5"/>
<text text-anchor="middle" x="358" y="-331.5" font-family="Helvetica,sans-Serif" font-size="10.00">dynamic&#45;graph/signal.h</text>
</a>
</g>
</g>
<!-- Node1&#45;&gt;Node2 -->
<g id="edge1" class="edge"><title>Node1&#45;&gt;Node2</title>
<path fill="none" stroke="midnightblue" d="M516.273,-380.916C481.695,-371.784 428.381,-356.851 393.266,-346.506"/>
<polygon fill="midnightblue" stroke="midnightblue" points="394.017,-343.078 383.435,-343.587 392.024,-349.789 394.017,-343.078"/>
</g>
<!-- Node16 -->
<g id="node16" class="node"><title>Node16</title>
<g id="a_node16"><a xlink:href="a00085.html" target="_top" xlink:title="dynamic&#45;graph/signal\l&#45;caster.h">
<polygon fill="white" stroke="black" points="889.5,-257.5 889.5,-287.5 998.5,-287.5 998.5,-257.5 889.5,-257.5"/>
<text text-anchor="start" x="897.5" y="-275.5" font-family="Helvetica,sans-Serif" font-size="10.00">dynamic&#45;graph/signal</text>
<text text-anchor="middle" x="944" y="-264.5" font-family="Helvetica,sans-Serif" font-size="10.00">&#45;caster.h</text>
</a>
</g>
</g>
<!-- Node1&#45;&gt;Node16 -->
<g id="edge24" class="edge"><title>Node1&#45;&gt;Node16</title>
<path fill="none" stroke="midnightblue" d="M579.292,-380.413C644.137,-361.404 800.815,-315.474 886.189,-290.447"/>
<polygon fill="midnightblue" stroke="midnightblue" points="887.373,-293.747 895.985,-287.575 885.404,-287.03 887.373,-293.747"/>
</g>
<!-- Node25 -->
<g id="node25" class="node"><title>Node25</title>
<g id="a_node25"><a xlink:href="a00065.html" target="_top" xlink:title="dynamic&#45;graph/debug.h">
<polygon fill="white" stroke="black" points="872,-129 872,-148 990,-148 990,-129 872,-129"/>
<text text-anchor="middle" x="931" y="-136" font-family="Helvetica,sans-Serif" font-size="10.00">dynamic&#45;graph/debug.h</text>
</a>
</g>
</g>
<!-- Node1&#45;&gt;Node25 -->
<g id="edge37" class="edge"><title>Node1&#45;&gt;Node25</title>
<path fill="none" stroke="midnightblue" d="M583.755,-386.887C770.71,-374.848 1673.62,-312.23 1753,-221 1762.04,-210.606 1762.44,-200.037 1753,-190 1727.36,-162.74 1193.8,-146.29 1000.31,-141.202"/>
<polygon fill="midnightblue" stroke="midnightblue" points="1000.34,-137.702 990.252,-140.94 1000.16,-144.7 1000.34,-137.702"/>
</g>
<!-- Node2&#45;&gt;Node1 -->
<g id="edge23" class="edge"><title>Node2&#45;&gt;Node1</title>
<path fill="none" stroke="midnightblue" d="M393.361,-343.516C428.05,-352.703 480.421,-367.381 514.985,-377.568"/>
<polygon fill="midnightblue" stroke="midnightblue" points="514.083,-380.951 524.666,-380.444 516.076,-374.241 514.083,-380.951"/>
</g>
<!-- Node3 -->
<g id="node3" class="node"><title>Node3</title>
<polygon fill="white" stroke="#bfbfbf" points="0,-263 0,-282 80,-282 80,-263 0,-263"/>
<text text-anchor="middle" x="40" y="-270" font-family="Helvetica,sans-Serif" font-size="10.00">boost/bind.hpp</text>
</g>
<!-- Node2&#45;&gt;Node3 -->
<g id="edge2" class="edge"><title>Node2&#45;&gt;Node3</title>
<path fill="none" stroke="midnightblue" d="M299.349,-325.292C244.582,-317.599 160.745,-304.551 89,-288 84.9155,-287.058 80.6694,-285.969 76.4607,-284.821"/>
<polygon fill="midnightblue" stroke="midnightblue" points="77.3776,-281.443 66.8015,-282.072 75.4618,-288.176 77.3776,-281.443"/>
</g>
<!-- Node4 -->
<g id="node4" class="node"><title>Node4</title>
<polygon fill="white" stroke="#bfbfbf" points="98.5,-263 98.5,-282 195.5,-282 195.5,-263 98.5,-263"/>
<text text-anchor="middle" x="147" y="-270" font-family="Helvetica,sans-Serif" font-size="10.00">boost/function.hpp</text>
</g>
<!-- Node2&#45;&gt;Node4 -->
<g id="edge3" class="edge"><title>Node2&#45;&gt;Node4</title>
<path fill="none" stroke="midnightblue" d="M327.769,-324.475C290.713,-314.026 227.807,-296.287 186.836,-284.733"/>
<polygon fill="midnightblue" stroke="midnightblue" points="187.75,-281.355 177.175,-282.009 185.85,-288.092 187.75,-281.355"/>
</g>
<!-- Node5 -->
<g id="node5" class="node"><title>Node5</title>
<polygon fill="white" stroke="#bfbfbf" points="279.5,-62 279.5,-81 320.5,-81 320.5,-62 279.5,-62"/>
<text text-anchor="middle" x="300" y="-69" font-family="Helvetica,sans-Serif" font-size="10.00">string</text>
</g>
<!-- Node2&#45;&gt;Node5 -->
<g id="edge4" class="edge"><title>Node2&#45;&gt;Node5</title>
<path fill="none" stroke="midnightblue" d="M304.681,-324.431C283.344,-318.1 260.823,-307.101 248,-288 207.125,-227.115 219.442,-190.544 248,-123 254.092,-108.591 266.53,-96.2679 277.713,-87.4025"/>
<polygon fill="midnightblue" stroke="midnightblue" points="279.958,-90.0949 285.895,-81.3198 275.781,-84.4772 279.958,-90.0949"/>
</g>
<!-- Node6 -->
<g id="node6" class="node"><title>Node6</title>
<polygon fill="white" stroke="#bfbfbf" points="479,-62 479,-81 533,-81 533,-62 479,-62"/>
<text text-anchor="middle" x="506" y="-69" font-family="Helvetica,sans-Serif" font-size="10.00">iostream</text>
</g>
<!-- Node2&#45;&gt;Node6 -->
<g id="edge5" class="edge"><title>Node2&#45;&gt;Node6</title>
<path fill="none" stroke="midnightblue" d="M351.429,-324.413C334.635,-301.344 293.233,-236.621 319,-190 350.899,-132.283 424.343,-99.083 469.11,-83.509"/>
<polygon fill="midnightblue" stroke="midnightblue" points="470.378,-86.7752 478.744,-80.2748 468.15,-80.1391 470.378,-86.7752"/>
</g>
<!-- Node7 -->
<g id="node7" class="node"><title>Node7</title>
<g id="a_node7"><a xlink:href="a00073.html" target="_top" xlink:title="dynamic&#45;graph/exception\l&#45;signal.h">
<polygon fill="white" stroke="black" points="648.5,-190.5 648.5,-220.5 773.5,-220.5 773.5,-190.5 648.5,-190.5"/>
<text text-anchor="start" x="656.5" y="-208.5" font-family="Helvetica,sans-Serif" font-size="10.00">dynamic&#45;graph/exception</text>
<text text-anchor="middle" x="711" y="-197.5" font-family="Helvetica,sans-Serif" font-size="10.00">&#45;signal.h</text>
</a>
</g>
</g>
<!-- Node2&#45;&gt;Node7 -->
<g id="edge6" class="edge"><title>Node2&#45;&gt;Node7</title>
<path fill="none" stroke="midnightblue" d="M412.887,-324.494C453.258,-317.291 509.043,-305.342 556,-288 600.973,-271.391 649.351,-244.321 679.877,-225.979"/>
<polygon fill="midnightblue" stroke="midnightblue" points="682.023,-228.77 688.753,-220.588 678.389,-222.787 682.023,-228.77"/>
</g>
<!-- Node12 -->
<g id="node12" class="node"><title>Node12</title>
<g id="a_node12"><a xlink:href="a00083.html" target="_top" xlink:title="dynamic&#45;graph/signal\l&#45;base.h">
<polygon fill="white" stroke="black" points="438.5,-257.5 438.5,-287.5 547.5,-287.5 547.5,-257.5 438.5,-257.5"/>
<text text-anchor="start" x="446.5" y="-275.5" font-family="Helvetica,sans-Serif" font-size="10.00">dynamic&#45;graph/signal</text>
<text text-anchor="middle" x="493" y="-264.5" font-family="Helvetica,sans-Serif" font-size="10.00">&#45;base.h</text>
</a>
</g>
</g>
<!-- Node2&#45;&gt;Node12 -->
<g id="edge15" class="edge"><title>Node2&#45;&gt;Node12</title>
<path fill="none" stroke="midnightblue" d="M377.342,-324.475C396.737,-315.927 427.199,-302.501 451.993,-291.573"/>
<polygon fill="midnightblue" stroke="midnightblue" points="453.444,-294.759 461.183,-287.523 450.621,-288.353 453.444,-294.759"/>
</g>
<!-- Node8 -->
<g id="node8" class="node"><title>Node8</title>
<g id="a_node8"><a xlink:href="a00076.html" target="_top" xlink:title="dynamic&#45;graph/fwd.hh">
<polygon fill="white" stroke="black" points="572.5,-62 572.5,-81 685.5,-81 685.5,-62 572.5,-62"/>
<text text-anchor="middle" x="629" y="-69" font-family="Helvetica,sans-Serif" font-size="10.00">dynamic&#45;graph/fwd.hh</text>
</a>
</g>
</g>
<!-- Node7&#45;&gt;Node8 -->
<g id="edge7" class="edge"><title>Node7&#45;&gt;Node8</title>
<path fill="none" stroke="midnightblue" d="M713.736,-190.446C716.31,-173.287 718.167,-143.966 706,-123 696.14,-106.009 678.004,-93.6938 661.81,-85.4806"/>
<polygon fill="midnightblue" stroke="midnightblue" points="663.112,-82.2251 652.576,-81.1146 660.12,-88.5534 663.112,-82.2251"/>
</g>
<!-- Node9 -->
<g id="node9" class="node"><title>Node9</title>
<g id="a_node9"><a xlink:href="a00067.html" target="_top" xlink:title="dynamic&#45;graph/dynamic\l&#45;graph&#45;api.h">
<polygon fill="white" stroke="black" points="704,-56.5 704,-86.5 824,-86.5 824,-56.5 704,-56.5"/>
<text text-anchor="start" x="712" y="-74.5" font-family="Helvetica,sans-Serif" font-size="10.00">dynamic&#45;graph/dynamic</text>
<text text-anchor="middle" x="764" y="-63.5" font-family="Helvetica,sans-Serif" font-size="10.00">&#45;graph&#45;api.h</text>
</a>
</g>
</g>
<!-- Node7&#45;&gt;Node9 -->
<g id="edge8" class="edge"><title>Node7&#45;&gt;Node9</title>
<path fill="none" stroke="midnightblue" d="M720.31,-190.381C726.519,-180.502 734.518,-166.83 740,-154 747.988,-135.308 754.33,-113.122 758.485,-96.6211"/>
<polygon fill="midnightblue" stroke="midnightblue" points="761.937,-97.2358 760.894,-86.6925 755.134,-95.5852 761.937,-97.2358"/>
</g>
<!-- Node11 -->
<g id="node11" class="node"><title>Node11</title>
<g id="a_node11"><a xlink:href="a00071.html" target="_top" xlink:title="dynamic&#45;graph/exception\l&#45;abstract.h">
<polygon fill="white" stroke="black" points="572.5,-123.5 572.5,-153.5 697.5,-153.5 697.5,-123.5 572.5,-123.5"/>
<text text-anchor="start" x="580.5" y="-141.5" font-family="Helvetica,sans-Serif" font-size="10.00">dynamic&#45;graph/exception</text>
<text text-anchor="middle" x="635" y="-130.5" font-family="Helvetica,sans-Serif" font-size="10.00">&#45;abstract.h</text>
</a>
</g>
</g>
<!-- Node7&#45;&gt;Node11 -->
<g id="edge10" class="edge"><title>Node7&#45;&gt;Node11</title>
<path fill="none" stroke="midnightblue" d="M694.509,-190.396C684.152,-181.538 670.615,-169.96 659.07,-160.086"/>
<polygon fill="midnightblue" stroke="midnightblue" points="661.333,-157.416 651.459,-153.577 656.783,-162.736 661.333,-157.416"/>
</g>
<!-- Node10 -->
<g id="node10" class="node"><title>Node10</title>
<polygon fill="white" stroke="#bfbfbf" points="702.5,-0.5 702.5,-19.5 825.5,-19.5 825.5,-0.5 702.5,-0.5"/>
<text text-anchor="middle" x="764" y="-7.5" font-family="Helvetica,sans-Serif" font-size="10.00">dynamic&#45;graph/config.hh</text>
</g>
<!-- Node9&#45;&gt;Node10 -->
<g id="edge9" class="edge"><title>Node9&#45;&gt;Node10</title>
<path fill="none" stroke="midnightblue" d="M764,-56.3993C764,-48.4664 764,-38.458 764,-29.8583"/>
<polygon fill="midnightblue" stroke="midnightblue" points="767.5,-29.6577 764,-19.6578 760.5,-29.6578 767.5,-29.6577"/>
</g>
<!-- Node11&#45;&gt;Node5 -->
<g id="edge12" class="edge"><title>Node11&#45;&gt;Node5</title>
<path fill="none" stroke="midnightblue" d="M572.382,-125.35C500.478,-111.399 385.426,-89.0752 330.764,-78.4691"/>
<polygon fill="midnightblue" stroke="midnightblue" points="331.151,-74.9789 320.667,-76.51 329.817,-81.8508 331.151,-74.9789"/>
</g>
<!-- Node11&#45;&gt;Node6 -->
<g id="edge11" class="edge"><title>Node11&#45;&gt;Node6</title>
<path fill="none" stroke="midnightblue" d="M607.009,-123.396C584.675,-112.142 553.633,-96.501 531.874,-85.5375"/>
<polygon fill="midnightblue" stroke="midnightblue" points="533.388,-82.3812 522.883,-81.007 530.239,-88.6325 533.388,-82.3812"/>
</g>
<!-- Node11&#45;&gt;Node8 -->
<g id="edge13" class="edge"><title>Node11&#45;&gt;Node8</title>
<path fill="none" stroke="midnightblue" d="M633.698,-123.396C632.827,-113.963 631.672,-101.448 630.725,-91.1891"/>
<polygon fill="midnightblue" stroke="midnightblue" points="634.207,-90.8305 629.803,-81.1945 627.237,-91.4739 634.207,-90.8305"/>
</g>
<!-- Node11&#45;&gt;Node9 -->
<g id="edge14" class="edge"><title>Node11&#45;&gt;Node9</title>
<path fill="none" stroke="midnightblue" d="M662.991,-123.396C681.755,-113.941 706.665,-101.39 727.053,-91.1168"/>
<polygon fill="midnightblue" stroke="midnightblue" points="728.708,-94.202 736.064,-86.5765 725.558,-87.9507 728.708,-94.202"/>
</g>
<!-- Node12&#45;&gt;Node5 -->
<g id="edge16" class="edge"><title>Node12&#45;&gt;Node5</title>
<path fill="none" stroke="midnightblue" d="M438.317,-270.645C399.11,-266.929 348.244,-255.176 319,-221 287.533,-184.227 291.791,-122.38 296.451,-91.3927"/>
<polygon fill="midnightblue" stroke="midnightblue" points="299.967,-91.5874 298.183,-81.144 293.065,-90.4209 299.967,-91.5874"/>
</g>
<!-- Node12&#45;&gt;Node6 -->
<g id="edge18" class="edge"><title>Node12&#45;&gt;Node6</title>
<path fill="none" stroke="midnightblue" d="M491.593,-257.494C489.226,-231.056 485.327,-172.049 492,-123 493.479,-112.127 496.672,-100.29 499.636,-90.8109"/>
<polygon fill="midnightblue" stroke="midnightblue" points="502.968,-91.8806 502.781,-81.2874 496.321,-89.6855 502.968,-91.8806"/>
</g>
<!-- Node12&#45;&gt;Node7 -->
<g id="edge22" class="edge"><title>Node12&#45;&gt;Node7</title>
<path fill="none" stroke="midnightblue" d="M540.034,-257.476C573.442,-247.515 618.48,-234.086 653.943,-223.512"/>
<polygon fill="midnightblue" stroke="midnightblue" points="655.091,-226.822 663.674,-220.611 653.091,-220.114 655.091,-226.822"/>
</g>
<!-- Node12&#45;&gt;Node8 -->
<g id="edge21" class="edge"><title>Node12&#45;&gt;Node8</title>
<path fill="none" stroke="midnightblue" d="M497.198,-257.144C505.926,-229.079 528.162,-165.938 563,-123 574.856,-108.387 591.764,-95.5553 605.497,-86.4834"/>
<polygon fill="midnightblue" stroke="midnightblue" points="607.423,-89.4066 613.979,-81.0837 603.664,-83.5016 607.423,-89.4066"/>
</g>
<!-- Node13 -->
<g id="node13" class="node"><title>Node13</title>
<polygon fill="white" stroke="#bfbfbf" points="842,-62 842,-81 894,-81 894,-62 842,-62"/>
<text text-anchor="middle" x="868" y="-69" font-family="Helvetica,sans-Serif" font-size="10.00">sstream</text>
</g>
<!-- Node12&#45;&gt;Node13 -->
<g id="edge17" class="edge"><title>Node12&#45;&gt;Node13</title>
<path fill="none" stroke="midnightblue" d="M547.71,-267.439C620.683,-261.106 744.986,-246.838 782,-221 828.109,-188.813 852.976,-123.364 862.859,-91.1975"/>
<polygon fill="midnightblue" stroke="midnightblue" points="866.301,-91.8969 865.74,-81.3169 859.581,-89.9373 866.301,-91.8969"/>
</g>
<!-- Node14 -->
<g id="node14" class="node"><title>Node14</title>
<polygon fill="white" stroke="#bfbfbf" points="540.5,-196 540.5,-215 591.5,-215 591.5,-196 540.5,-196"/>
<text text-anchor="middle" x="566" y="-203" font-family="Helvetica,sans-Serif" font-size="10.00">typeinfo</text>
</g>
<!-- Node12&#45;&gt;Node14 -->
<g id="edge19" class="edge"><title>Node12&#45;&gt;Node14</title>
<path fill="none" stroke="midnightblue" d="M508.84,-257.396C520.56,-246.96 536.518,-232.751 548.595,-221.998"/>
<polygon fill="midnightblue" stroke="midnightblue" points="551.094,-224.459 556.235,-215.195 546.439,-219.231 551.094,-224.459"/>
</g>
<!-- Node15 -->
<g id="node15" class="node"><title>Node15</title>
<polygon fill="white" stroke="#bfbfbf" points="328.5,-196 328.5,-215 445.5,-215 445.5,-196 328.5,-196"/>
<text text-anchor="middle" x="387" y="-203" font-family="Helvetica,sans-Serif" font-size="10.00">boost/noncopyable.hpp</text>
</g>
<!-- Node12&#45;&gt;Node15 -->
<g id="edge20" class="edge"><title>Node12&#45;&gt;Node15</title>
<path fill="none" stroke="midnightblue" d="M470,-257.396C452.059,-246.395 427.28,-231.2 409.475,-220.282"/>
<polygon fill="midnightblue" stroke="midnightblue" points="411.227,-217.251 400.873,-215.007 407.568,-223.218 411.227,-217.251"/>
</g>
<!-- Node16&#45;&gt;Node6 -->
<g id="edge27" class="edge"><title>Node16&#45;&gt;Node6</title>
<path fill="none" stroke="midnightblue" d="M889.25,-271.402C826.037,-269.31 720.332,-259.619 639,-221 628.831,-216.171 570.501,-162.394 563,-154 544.726,-133.551 527.187,-107.105 516.504,-89.9743"/>
<polygon fill="midnightblue" stroke="midnightblue" points="519.263,-87.7775 511.053,-81.0803 513.295,-91.4353 519.263,-87.7775"/>
</g>
<!-- Node16&#45;&gt;Node7 -->
<g id="edge36" class="edge"><title>Node16&#45;&gt;Node7</title>
<path fill="none" stroke="midnightblue" d="M893.729,-257.476C857.87,-247.472 809.474,-233.971 771.497,-223.377"/>
<polygon fill="midnightblue" stroke="midnightblue" points="772.155,-219.927 761.582,-220.611 770.274,-226.669 772.155,-219.927"/>
</g>
<!-- Node16&#45;&gt;Node9 -->
<g id="edge35" class="edge"><title>Node16&#45;&gt;Node9</title>
<path fill="none" stroke="midnightblue" d="M912.529,-257.292C895.378,-248.507 874.544,-236.038 859,-221 820.297,-183.555 789.917,-127.429 774.703,-95.9922"/>
<polygon fill="midnightblue" stroke="midnightblue" points="777.749,-94.2469 770.305,-86.708 771.423,-97.2437 777.749,-94.2469"/>
</g>
<!-- Node16&#45;&gt;Node14 -->
<g id="edge26" class="edge"><title>Node16&#45;&gt;Node14</title>
<path fill="none" stroke="midnightblue" d="M889.485,-266.733C822.122,-260.073 704.353,-245.908 606,-221 603.017,-220.245 599.946,-219.351 596.894,-218.384"/>
<polygon fill="midnightblue" stroke="midnightblue" points="597.938,-215.043 587.344,-215.127 595.678,-221.668 597.938,-215.043"/>
</g>
<!-- Node17 -->
<g id="node17" class="node"><title>Node17</title>
<polygon fill="white" stroke="#bfbfbf" points="868.5,-196 868.5,-215 903.5,-215 903.5,-196 868.5,-196"/>
<text text-anchor="middle" x="886" y="-203" font-family="Helvetica,sans-Serif" font-size="10.00">map</text>
</g>
<!-- Node16&#45;&gt;Node17 -->
<g id="edge25" class="edge"><title>Node16&#45;&gt;Node17</title>
<path fill="none" stroke="midnightblue" d="M931.415,-257.396C922.371,-247.261 910.152,-233.567 900.667,-222.937"/>
<polygon fill="midnightblue" stroke="midnightblue" points="903.028,-220.326 893.758,-215.195 897.805,-224.986 903.028,-220.326"/>
</g>
<!-- Node18 -->
<g id="node18" class="node"><title>Node18</title>
<polygon fill="white" stroke="#bfbfbf" points="922,-196 922,-215 966,-215 966,-196 922,-196"/>
<text text-anchor="middle" x="944" y="-203" font-family="Helvetica,sans-Serif" font-size="10.00">vector</text>
</g>
<!-- Node16&#45;&gt;Node18 -->
<g id="edge28" class="edge"><title>Node16&#45;&gt;Node18</title>
<path fill="none" stroke="midnightblue" d="M944,-257.396C944,-248.064 944,-235.714 944,-225.517"/>
<polygon fill="midnightblue" stroke="midnightblue" points="947.5,-225.195 944,-215.195 940.5,-225.195 947.5,-225.195"/>
</g>
<!-- Node19 -->
<g id="node19" class="node"><title>Node19</title>
<polygon fill="white" stroke="#bfbfbf" points="984,-196 984,-215 1062,-215 1062,-196 984,-196"/>
<text text-anchor="middle" x="1023" y="-203" font-family="Helvetica,sans-Serif" font-size="10.00">boost/any.hpp</text>
</g>
<!-- Node16&#45;&gt;Node19 -->
<g id="edge29" class="edge"><title>Node16&#45;&gt;Node19</title>
<path fill="none" stroke="midnightblue" d="M961.142,-257.396C973.947,-246.86 991.428,-232.477 1004.54,-221.689"/>
<polygon fill="midnightblue" stroke="midnightblue" points="1006.93,-224.251 1012.43,-215.195 1002.49,-218.845 1006.93,-224.251"/>
</g>
<!-- Node20 -->
<g id="node20" class="node"><title>Node20</title>
<polygon fill="white" stroke="#bfbfbf" points="1080,-196 1080,-215 1170,-215 1170,-196 1080,-196"/>
<text text-anchor="middle" x="1125" y="-203" font-family="Helvetica,sans-Serif" font-size="10.00">boost/format.hpp</text>
</g>
<!-- Node16&#45;&gt;Node20 -->
<g id="edge30" class="edge"><title>Node16&#45;&gt;Node20</title>
<path fill="none" stroke="midnightblue" d="M983.274,-257.396C1015.59,-245.789 1060.91,-229.515 1091.53,-218.519"/>
<polygon fill="midnightblue" stroke="midnightblue" points="1093.08,-221.681 1101.31,-215.007 1090.72,-215.093 1093.08,-221.681"/>
</g>
<!-- Node21 -->
<g id="node21" class="node"><title>Node21</title>
<polygon fill="white" stroke="#bfbfbf" points="1188,-196 1188,-215 1328,-215 1328,-196 1188,-196"/>
<text text-anchor="middle" x="1258" y="-203" font-family="Helvetica,sans-Serif" font-size="10.00">boost/function/function1.hpp</text>
</g>
<!-- Node16&#45;&gt;Node21 -->
<g id="edge31" class="edge"><title>Node16&#45;&gt;Node21</title>
<path fill="none" stroke="midnightblue" d="M998.695,-260.178C1057.37,-248.031 1149.82,-228.894 1207.02,-217.053"/>
<polygon fill="midnightblue" stroke="midnightblue" points="1207.85,-220.456 1216.93,-215.002 1206.43,-213.602 1207.85,-220.456"/>
</g>
<!-- Node22 -->
<g id="node22" class="node"><title>Node22</title>
<polygon fill="white" stroke="#bfbfbf" points="1346,-196 1346,-215 1486,-215 1486,-196 1346,-196"/>
<text text-anchor="middle" x="1416" y="-203" font-family="Helvetica,sans-Serif" font-size="10.00">boost/function/function2.hpp</text>
</g>
<!-- Node16&#45;&gt;Node22 -->
<g id="edge32" class="edge"><title>Node16&#45;&gt;Node22</title>
<path fill="none" stroke="midnightblue" d="M998.808,-265.399C1074.88,-256.717 1216.69,-239.756 1337,-221 1345.03,-219.748 1353.5,-218.314 1361.8,-216.846"/>
<polygon fill="midnightblue" stroke="midnightblue" points="1362.56,-220.265 1371.78,-215.049 1361.32,-213.376 1362.56,-220.265"/>
</g>
<!-- Node23 -->
<g id="node23" class="node"><title>Node23</title>
<polygon fill="white" stroke="#bfbfbf" points="1504,-196 1504,-215 1618,-215 1618,-196 1504,-196"/>
<text text-anchor="middle" x="1561" y="-203" font-family="Helvetica,sans-Serif" font-size="10.00">boost/lexical_cast.hpp</text>
</g>
<!-- Node16&#45;&gt;Node23 -->
<g id="edge33" class="edge"><title>Node16&#45;&gt;Node23</title>
<path fill="none" stroke="midnightblue" d="M998.63,-268.759C1097.92,-263.275 1314.4,-249.002 1495,-221 1501.78,-219.949 1508.9,-218.622 1515.86,-217.2"/>
<polygon fill="midnightblue" stroke="midnightblue" points="1516.82,-220.574 1525.87,-215.07 1515.36,-213.727 1516.82,-220.574"/>
</g>
<!-- Node24 -->
<g id="node24" class="node"><title>Node24</title>
<polygon fill="white" stroke="#bfbfbf" points="1636.5,-196 1636.5,-215 1743.5,-215 1743.5,-196 1636.5,-196"/>
<text text-anchor="middle" x="1690" y="-203" font-family="Helvetica,sans-Serif" font-size="10.00">boost/tuple/tuple.hpp</text>
</g>
<!-- Node16&#45;&gt;Node24 -->
<g id="edge34" class="edge"><title>Node16&#45;&gt;Node24</title>
<path fill="none" stroke="midnightblue" d="M998.764,-270.28C1115.08,-267.069 1395.1,-256.05 1627,-221 1633.48,-220.02 1640.28,-218.733 1646.93,-217.329"/>
<polygon fill="midnightblue" stroke="midnightblue" points="1648.16,-220.641 1657.16,-215.055 1646.64,-213.808 1648.16,-220.641"/>
</g>
<!-- Node25&#45;&gt;Node6 -->
<g id="edge40" class="edge"><title>Node25&#45;&gt;Node6</title>
<path fill="none" stroke="midnightblue" d="M871.707,-131.446C798.694,-123.514 671.074,-108.092 563,-87 556.555,-85.7421 549.75,-84.2011 543.174,-82.5986"/>
<polygon fill="midnightblue" stroke="midnightblue" points="543.665,-79.1129 533.112,-80.0617 541.953,-85.9004 543.665,-79.1129"/>
</g>
<!-- Node25&#45;&gt;Node8 -->
<g id="edge43" class="edge"><title>Node25&#45;&gt;Node8</title>
<path fill="none" stroke="midnightblue" d="M890.899,-128.989C843.932,-119.004 763.793,-101.917 695,-87 689.344,-85.7737 683.418,-84.4816 677.535,-83.1946"/>
<polygon fill="midnightblue" stroke="midnightblue" points="678.248,-79.7679 667.731,-81.046 676.749,-86.6056 678.248,-79.7679"/>
</g>
<!-- Node25&#45;&gt;Node9 -->
<g id="edge44" class="edge"><title>Node25&#45;&gt;Node9</title>
<path fill="none" stroke="midnightblue" d="M908.824,-128.869C883.656,-119.073 841.924,-102.83 809.706,-90.2897"/>
<polygon fill="midnightblue" stroke="midnightblue" points="810.63,-86.8936 800.041,-86.5281 808.091,-93.4169 810.63,-86.8936"/>
</g>
<!-- Node25&#45;&gt;Node13 -->
<g id="edge42" class="edge"><title>Node25&#45;&gt;Node13</title>
<path fill="none" stroke="midnightblue" d="M922.504,-128.734C912.491,-118.403 895.659,-101.037 883.344,-88.3315"/>
<polygon fill="midnightblue" stroke="midnightblue" points="885.835,-85.8721 876.362,-81.1273 880.808,-90.7439 885.835,-85.8721"/>
</g>
<!-- Node26 -->
<g id="node26" class="node"><title>Node26</title>
<polygon fill="white" stroke="#bfbfbf" points="912.5,-62 912.5,-81 955.5,-81 955.5,-62 912.5,-62"/>
<text text-anchor="middle" x="934" y="-69" font-family="Helvetica,sans-Serif" font-size="10.00">cstdio</text>
</g>
<!-- Node25&#45;&gt;Node26 -->
<g id="edge38" class="edge"><title>Node25&#45;&gt;Node26</title>
<path fill="none" stroke="midnightblue" d="M931.405,-128.734C931.845,-119.183 932.564,-103.618 933.133,-91.2829"/>
<polygon fill="midnightblue" stroke="midnightblue" points="936.637,-91.2781 933.602,-81.1273 929.644,-90.9553 936.637,-91.2781"/>
</g>
<!-- Node27 -->
<g id="node27" class="node"><title>Node27</title>
<polygon fill="white" stroke="#bfbfbf" points="973.5,-62 973.5,-81 1022.5,-81 1022.5,-62 973.5,-62"/>
<text text-anchor="middle" x="998" y="-69" font-family="Helvetica,sans-Serif" font-size="10.00">cstdarg</text>
</g>
<!-- Node25&#45;&gt;Node27 -->
<g id="edge39" class="edge"><title>Node25&#45;&gt;Node27</title>
<path fill="none" stroke="midnightblue" d="M940.036,-128.734C950.685,-118.403 968.585,-101.037 981.681,-88.3315"/>
<polygon fill="midnightblue" stroke="midnightblue" points="984.367,-90.6026 989.107,-81.1273 979.493,-85.5784 984.367,-90.6026"/>
</g>
<!-- Node28 -->
<g id="node28" class="node"><title>Node28</title>
<polygon fill="white" stroke="#bfbfbf" points="1041,-62 1041,-81 1091,-81 1091,-62 1041,-62"/>
<text text-anchor="middle" x="1066" y="-69" font-family="Helvetica,sans-Serif" font-size="10.00">fstream</text>
</g>
<!-- Node25&#45;&gt;Node28 -->
<g id="edge41" class="edge"><title>Node25&#45;&gt;Node28</title>
<path fill="none" stroke="midnightblue" d="M948.927,-128.869C971.923,-117.796 1012.03,-98.4862 1038.8,-85.5978"/>
<polygon fill="midnightblue" stroke="midnightblue" points="1040.51,-88.6589 1048,-81.1672 1037.47,-82.3519 1040.51,-88.6589"/>
</g>
</g>
</svg>
