<?xml version="1.0" encoding="UTF-8" standalone="no"?>
<!DOCTYPE svg PUBLIC "-//W3C//DTD SVG 1.1//EN"
 "http://www.w3.org/Graphics/SVG/1.1/DTD/svg11.dtd">
<!-- Generated by graphviz version 2.38.0 (20140413.2041)
 -->
<!-- Title: fwd.hh Pages: 1 -->
<svg width="935pt" height="476pt"
 viewBox="0.00 0.00 934.50 476.00" xmlns="http://www.w3.org/2000/svg" xmlns:xlink="http://www.w3.org/1999/xlink">
<g id="graph0" class="graph" transform="scale(1 1) rotate(0) translate(4 472)">
<title>fwd.hh</title>
<polygon fill="white" stroke="none" points="-4,4 -4,-472 930.5,-472 930.5,4 -4,4"/>
<!-- Node1 -->
<g id="node1" class="node"><title>Node1</title>
<polygon fill="#bfbfbf" stroke="black" points="368,-448.5 368,-467.5 414,-467.5 414,-448.5 368,-448.5"/>
<text text-anchor="middle" x="391" y="-455.5" font-family="Helvetica,sans-Serif" font-size="10.00">fwd.hh</text>
</g>
<!-- Node2 -->
<g id="node2" class="node"><title>Node2</title>
<g id="a_node2"><a xlink:href="a00073.html" target="_top" xlink:title="exception&#45;signal.h">
<polygon fill="white" stroke="black" points="360.5,-336.5 360.5,-355.5 455.5,-355.5 455.5,-336.5 360.5,-336.5"/>
<text text-anchor="middle" x="408" y="-343.5" font-family="Helvetica,sans-Serif" font-size="10.00">exception&#45;signal.h</text>
</a>
</g>
</g>
<!-- Node1&#45;&gt;Node2 -->
<g id="edge1" class="edge"><title>Node1&#45;&gt;Node2</title>
<path fill="none" stroke="midnightblue" d="M378.969,-439.561C371.434,-426.402 364.165,-407.953 370,-392 375.409,-377.211 388.062,-363.931 397.286,-355.695"/>
<polygon fill="midnightblue" stroke="midnightblue" points="376.043,-441.482 384.32,-448.096 381.974,-437.764 376.043,-441.482"/>
</g>
<!-- Node11 -->
<g id="node11" class="node"><title>Node11</title>
<g id="a_node11"><a xlink:href="a00094.html" target="_top" xlink:title="tracer&#45;real&#45;time.h">
<polygon fill="white" stroke="black" points="2,-0.5 2,-19.5 92,-19.5 92,-0.5 2,-0.5"/>
<text text-anchor="middle" x="47" y="-7.5" font-family="Helvetica,sans-Serif" font-size="10.00">tracer&#45;real&#45;time.h</text>
</a>
</g>
</g>
<!-- Node1&#45;&gt;Node11 -->
<g id="edge58" class="edge"><title>Node1&#45;&gt;Node11</title>
<path fill="none" stroke="midnightblue" d="M357.542,-454.784C262.884,-447.607 0,-421.011 0,-347 0,-347 0,-347 0,-121 0,-80.2959 27.5505,-37.44 40.4649,-19.5872"/>
<polygon fill="midnightblue" stroke="midnightblue" points="357.483,-458.289 367.712,-455.529 357.995,-451.308 357.483,-458.289"/>
</g>
<!-- Node12 -->
<g id="node12" class="node"><title>Node12</title>
<g id="a_node12"><a xlink:href="a00083.html" target="_top" xlink:title="signal&#45;base.h">
<polygon fill="white" stroke="black" points="193,-280.5 193,-299.5 267,-299.5 267,-280.5 193,-280.5"/>
<text text-anchor="middle" x="230" y="-287.5" font-family="Helvetica,sans-Serif" font-size="10.00">signal&#45;base.h</text>
</a>
</g>
</g>
<!-- Node1&#45;&gt;Node12 -->
<g id="edge46" class="edge"><title>Node1&#45;&gt;Node12</title>
<path fill="none" stroke="midnightblue" d="M357.545,-453.271C306.464,-445.524 210.96,-422.441 173,-356 159.97,-333.194 191.391,-311.193 212.578,-299.555"/>
<polygon fill="midnightblue" stroke="midnightblue" points="357.345,-456.777 367.735,-454.702 358.318,-449.845 357.345,-456.777"/>
</g>
<!-- Node13 -->
<g id="node13" class="node"><title>Node13</title>
<g id="a_node13"><a xlink:href="a00092.html" target="_top" xlink:title="time&#45;dependency.h">
<polygon fill="white" stroke="black" points="150.5,-168.5 150.5,-187.5 249.5,-187.5 249.5,-168.5 150.5,-168.5"/>
<text text-anchor="middle" x="200" y="-175.5" font-family="Helvetica,sans-Serif" font-size="10.00">time&#45;dependency.h</text>
</a>
</g>
</g>
<!-- Node1&#45;&gt;Node13 -->
<g id="edge51" class="edge"><title>Node1&#45;&gt;Node13</title>
<path fill="none" stroke="midnightblue" d="M357.702,-453.186C318.872,-447.823 253.447,-435.905 202,-412 157.904,-391.511 114,-395.624 114,-347 114,-347 114,-347 114,-289 114,-242.7 161.872,-204.256 186.183,-187.719"/>
<polygon fill="midnightblue" stroke="midnightblue" points="357.544,-456.695 367.915,-454.53 358.457,-449.755 357.544,-456.695"/>
</g>
<!-- Node16 -->
<g id="node16" class="node"><title>Node16</title>
<g id="a_node16"><a xlink:href="a00070.html" target="_top" xlink:title="entity.h">
<polygon fill="white" stroke="black" points="282.5,-168.5 282.5,-187.5 331.5,-187.5 331.5,-168.5 282.5,-168.5"/>
<text text-anchor="middle" x="307" y="-175.5" font-family="Helvetica,sans-Serif" font-size="10.00">entity.h</text>
</a>
</g>
</g>
<!-- Node1&#45;&gt;Node16 -->
<g id="edge53" class="edge"><title>Node1&#45;&gt;Node16</title>
<path fill="none" stroke="midnightblue" d="M379.077,-439.903C373.838,-431.755 367.985,-421.69 364,-412 329.629,-328.424 312.572,-219.12 308.172,-187.756"/>
<polygon fill="midnightblue" stroke="midnightblue" points="376.326,-442.085 384.796,-448.449 382.144,-438.192 376.326,-442.085"/>
</g>
<!-- Node17 -->
<g id="node17" class="node"><title>Node17</title>
<g id="a_node17"><a xlink:href="a00080.html" target="_top" xlink:title="pool.h">
<polygon fill="white" stroke="black" points="657.5,-224.5 657.5,-243.5 700.5,-243.5 700.5,-224.5 657.5,-224.5"/>
<text text-anchor="middle" x="679" y="-231.5" font-family="Helvetica,sans-Serif" font-size="10.00">pool.h</text>
</a>
</g>
</g>
<!-- Node1&#45;&gt;Node17 -->
<g id="edge57" class="edge"><title>Node1&#45;&gt;Node17</title>
<path fill="none" stroke="midnightblue" d="M424.301,-454.926C471.291,-451.067 559.018,-440.403 628,-412 669.148,-395.057 677.776,-385.605 711,-356 740.827,-329.422 779.169,-314.486 759,-280 752.323,-268.583 720.667,-253.051 699.235,-243.541"/>
<polygon fill="midnightblue" stroke="midnightblue" points="423.793,-451.455 414.09,-455.709 424.328,-458.434 423.793,-451.455"/>
</g>
<!-- Node21 -->
<g id="node21" class="node"><title>Node21</title>
<g id="a_node21"><a xlink:href="a00071.html" target="_top" xlink:title="exception&#45;abstract.h">
<polygon fill="white" stroke="black" points="379.5,-392.5 379.5,-411.5 484.5,-411.5 484.5,-392.5 379.5,-392.5"/>
<text text-anchor="middle" x="432" y="-399.5" font-family="Helvetica,sans-Serif" font-size="10.00">exception&#45;abstract.h</text>
</a>
</g>
</g>
<!-- Node1&#45;&gt;Node21 -->
<g id="edge38" class="edge"><title>Node1&#45;&gt;Node21</title>
<path fill="none" stroke="midnightblue" d="M404.017,-439.855C411.117,-430.505 419.604,-419.327 425.356,-411.751"/>
<polygon fill="midnightblue" stroke="midnightblue" points="401.03,-438.002 397.77,-448.083 406.605,-442.235 401.03,-438.002"/>
</g>
<!-- Node22 -->
<g id="node22" class="node"><title>Node22</title>
<g id="a_node22"><a xlink:href="a00072.html" target="_top" xlink:title="exception&#45;factory.h">
<polygon fill="white" stroke="black" points="579,-336.5 579,-355.5 679,-355.5 679,-336.5 579,-336.5"/>
<text text-anchor="middle" x="629" y="-343.5" font-family="Helvetica,sans-Serif" font-size="10.00">exception&#45;factory.h</text>
</a>
</g>
</g>
<!-- Node1&#45;&gt;Node22 -->
<g id="edge54" class="edge"><title>Node1&#45;&gt;Node22</title>
<path fill="none" stroke="midnightblue" d="M420.406,-444.308C440.841,-435.42 468.666,-423.18 493,-412 535.803,-392.335 585.651,-368.189 611.475,-355.585"/>
<polygon fill="midnightblue" stroke="midnightblue" points="418.796,-441.191 411.016,-448.383 421.583,-447.613 418.796,-441.191"/>
</g>
<!-- Node23 -->
<g id="node23" class="node"><title>Node23</title>
<g id="a_node23"><a xlink:href="a00075.html" target="_top" xlink:title="factory.h">
<polygon fill="white" stroke="black" points="695.5,-280.5 695.5,-299.5 750.5,-299.5 750.5,-280.5 695.5,-280.5"/>
<text text-anchor="middle" x="723" y="-287.5" font-family="Helvetica,sans-Serif" font-size="10.00">factory.h</text>
</a>
</g>
</g>
<!-- Node1&#45;&gt;Node23 -->
<g id="edge56" class="edge"><title>Node1&#45;&gt;Node23</title>
<path fill="none" stroke="midnightblue" d="M424.271,-453.731C483.709,-446.304 609.272,-423.227 688,-356 705.934,-340.686 716.169,-313.807 720.507,-299.899"/>
<polygon fill="midnightblue" stroke="midnightblue" points="423.825,-450.259 414.304,-454.906 424.645,-457.211 423.825,-450.259"/>
</g>
<!-- Node24 -->
<g id="node24" class="node"><title>Node24</title>
<g id="a_node24"><a xlink:href="a00074.html" target="_top" xlink:title="exception&#45;traces.h">
<polygon fill="white" stroke="black" points="182.5,-336.5 182.5,-355.5 279.5,-355.5 279.5,-336.5 182.5,-336.5"/>
<text text-anchor="middle" x="231" y="-343.5" font-family="Helvetica,sans-Serif" font-size="10.00">exception&#45;traces.h</text>
</a>
</g>
</g>
<!-- Node1&#45;&gt;Node24 -->
<g id="edge55" class="edge"><title>Node1&#45;&gt;Node24</title>
<path fill="none" stroke="midnightblue" d="M358.334,-445.345C338.718,-437.518 313.808,-426.072 294,-412 270.427,-395.253 248.194,-369.001 237.553,-355.558"/>
<polygon fill="midnightblue" stroke="midnightblue" points="357.184,-448.652 367.773,-448.997 359.71,-442.124 357.184,-448.652"/>
</g>
<!-- Node25 -->
<g id="node25" class="node"><title>Node25</title>
<g id="a_node25"><a xlink:href="a00065.html" target="_top" xlink:title="debug.h">
<polygon fill="white" stroke="black" points="718.5,-224.5 718.5,-243.5 769.5,-243.5 769.5,-224.5 718.5,-224.5"/>
<text text-anchor="middle" x="744" y="-231.5" font-family="Helvetica,sans-Serif" font-size="10.00">debug.h</text>
</a>
</g>
</g>
<!-- Node1&#45;&gt;Node25 -->
<g id="edge47" class="edge"><title>Node1&#45;&gt;Node25</title>
<path fill="none" stroke="midnightblue" d="M424.21,-456.424C476.719,-454.445 581.238,-446.126 662,-412 727.427,-384.354 755.139,-367.895 776,-300 778.611,-291.503 778.704,-288.468 776,-280 771.451,-265.754 760.563,-252.16 752.751,-243.714"/>
<polygon fill="midnightblue" stroke="midnightblue" points="424.005,-452.928 414.123,-456.749 424.231,-459.925 424.005,-452.928"/>
</g>
<!-- Node26 -->
<g id="node26" class="node"><title>Node26</title>
<g id="a_node26"><a xlink:href="a00064.html" target="_top" xlink:title="contiifstream.h">
<polygon fill="white" stroke="black" points="845.5,-392.5 845.5,-411.5 926.5,-411.5 926.5,-392.5 845.5,-392.5"/>
<text text-anchor="middle" x="886" y="-399.5" font-family="Helvetica,sans-Serif" font-size="10.00">contiifstream.h</text>
</a>
</g>
</g>
<!-- Node1&#45;&gt;Node26 -->
<g id="edge52" class="edge"><title>Node1&#45;&gt;Node26</title>
<path fill="none" stroke="midnightblue" d="M424.501,-454.268C498.17,-448.108 679.732,-432.093 831,-412 835.7,-411.376 840.615,-410.661 845.492,-409.913"/>
<polygon fill="midnightblue" stroke="midnightblue" points="424.107,-450.788 414.431,-455.105 424.687,-457.764 424.107,-450.788"/>
</g>
<!-- Node3 -->
<g id="node3" class="node"><title>Node3</title>
<g id="a_node3"><a xlink:href="a00090.html" target="_top" xlink:title="signal.h">
<polygon fill="white" stroke="black" points="350,-224.5 350,-243.5 400,-243.5 400,-224.5 350,-224.5"/>
<text text-anchor="middle" x="375" y="-231.5" font-family="Helvetica,sans-Serif" font-size="10.00">signal.h</text>
</a>
</g>
</g>
<!-- Node2&#45;&gt;Node3 -->
<g id="edge2" class="edge"><title>Node2&#45;&gt;Node3</title>
<path fill="none" stroke="midnightblue" d="M386.834,-330.044C377.667,-322.257 367.92,-311.879 363,-300 355.095,-280.917 364.239,-256.534 370.365,-243.739"/>
<polygon fill="midnightblue" stroke="midnightblue" points="384.917,-332.99 394.936,-336.436 389.253,-327.494 384.917,-332.99"/>
</g>
<!-- Node6 -->
<g id="node6" class="node"><title>Node6</title>
<g id="a_node6"><a xlink:href="a00087.html" target="_top" xlink:title="signal&#45;ptr.h">
<polygon fill="white" stroke="black" points="628.5,-168.5 628.5,-187.5 693.5,-187.5 693.5,-168.5 628.5,-168.5"/>
<text text-anchor="middle" x="661" y="-175.5" font-family="Helvetica,sans-Serif" font-size="10.00">signal&#45;ptr.h</text>
</a>
</g>
</g>
<!-- Node2&#45;&gt;Node6 -->
<g id="edge34" class="edge"><title>Node2&#45;&gt;Node6</title>
<path fill="none" stroke="midnightblue" d="M465.756,-338.712C499.125,-332.857 540.579,-321.598 572,-300 616.27,-269.57 646.922,-209.763 657.207,-187.562"/>
<polygon fill="midnightblue" stroke="midnightblue" points="464.984,-335.292 455.68,-340.361 466.114,-342.2 464.984,-335.292"/>
</g>
<!-- Node2&#45;&gt;Node12 -->
<g id="edge16" class="edge"><title>Node2&#45;&gt;Node12</title>
<path fill="none" stroke="midnightblue" d="M369.883,-333.436C336.322,-323.255 288.226,-308.664 258.073,-299.516"/>
<polygon fill="midnightblue" stroke="midnightblue" points="369.21,-336.89 379.795,-336.444 371.242,-330.191 369.21,-336.89"/>
</g>
<!-- Node18 -->
<g id="node18" class="node"><title>Node18</title>
<g id="a_node18"><a xlink:href="a00085.html" target="_top" xlink:title="signal&#45;caster.h">
<polygon fill="white" stroke="black" points="483,-280.5 483,-299.5 563,-299.5 563,-280.5 483,-280.5"/>
<text text-anchor="middle" x="523" y="-287.5" font-family="Helvetica,sans-Serif" font-size="10.00">signal&#45;caster.h</text>
</a>
</g>
</g>
<!-- Node2&#45;&gt;Node18 -->
<g id="edge31" class="edge"><title>Node2&#45;&gt;Node18</title>
<path fill="none" stroke="midnightblue" d="M435.481,-332.096C456.966,-322.007 486.222,-308.27 504.863,-299.516"/>
<polygon fill="midnightblue" stroke="midnightblue" points="433.786,-329.025 426.222,-336.444 436.762,-335.361 433.786,-329.025"/>
</g>
<!-- Node19 -->
<g id="node19" class="node"><title>Node19</title>
<g id="a_node19"><a xlink:href="a00084.html" target="_top" xlink:title="signal&#45;cast&#45;helper.h">
<polygon fill="white" stroke="black" points="418.5,-224.5 418.5,-243.5 519.5,-243.5 519.5,-224.5 418.5,-224.5"/>
<text text-anchor="middle" x="469" y="-231.5" font-family="Helvetica,sans-Serif" font-size="10.00">signal&#45;cast&#45;helper.h</text>
</a>
</g>
</g>
<!-- Node2&#45;&gt;Node19 -->
<g id="edge37" class="edge"><title>Node2&#45;&gt;Node19</title>
<path fill="none" stroke="midnightblue" d="M398.617,-327.14C392.818,-313.46 387.887,-294.532 396,-280 405.943,-262.191 426.15,-250.555 442.789,-243.586"/>
<polygon fill="midnightblue" stroke="midnightblue" points="395.571,-328.883 403.02,-336.417 401.895,-325.882 395.571,-328.883"/>
</g>
<!-- Node20 -->
<g id="node20" class="node"><title>Node20</title>
<g id="a_node20"><a xlink:href="a00068.html" target="_top" xlink:title="eigen&#45;io.h">
<polygon fill="white" stroke="black" points="405.5,-280.5 405.5,-299.5 464.5,-299.5 464.5,-280.5 405.5,-280.5"/>
<text text-anchor="middle" x="435" y="-287.5" font-family="Helvetica,sans-Serif" font-size="10.00">eigen&#45;io.h</text>
</a>
</g>
</g>
<!-- Node2&#45;&gt;Node20 -->
<g id="edge35" class="edge"><title>Node2&#45;&gt;Node20</title>
<path fill="none" stroke="midnightblue" d="M417.009,-326.983C421.592,-317.817 426.954,-307.092 430.624,-299.751"/>
<polygon fill="midnightblue" stroke="midnightblue" points="413.8,-325.573 412.459,-336.083 420.061,-328.704 413.8,-325.573"/>
</g>
<!-- Node4 -->
<g id="node4" class="node"><title>Node4</title>
<g id="a_node4"><a xlink:href="a00055.html" target="_top" xlink:title="all&#45;signals.h">
<polygon fill="white" stroke="black" points="493,-56.5 493,-75.5 561,-75.5 561,-56.5 493,-56.5"/>
<text text-anchor="middle" x="527" y="-63.5" font-family="Helvetica,sans-Serif" font-size="10.00">all&#45;signals.h</text>
</a>
</g>
</g>
<!-- Node3&#45;&gt;Node4 -->
<g id="edge3" class="edge"><title>Node3&#45;&gt;Node4</title>
<path fill="none" stroke="midnightblue" d="M389.97,-216.651C421.755,-181.939 495.045,-101.898 519.155,-75.5681"/>
<polygon fill="midnightblue" stroke="midnightblue" points="387.344,-214.336 383.172,-224.075 392.507,-219.064 387.344,-214.336"/>
</g>
<!-- Node5 -->
<g id="node5" class="node"><title>Node5</title>
<g id="a_node5"><a xlink:href="a00091.html" target="_top" xlink:title="signal.t.cpp">
<polygon fill="white" stroke="black" points="504.5,-168.5 504.5,-187.5 571.5,-187.5 571.5,-168.5 504.5,-168.5"/>
<text text-anchor="middle" x="538" y="-175.5" font-family="Helvetica,sans-Serif" font-size="10.00">signal.t.cpp</text>
</a>
</g>
</g>
<!-- Node3&#45;&gt;Node5 -->
<g id="edge4" class="edge"><title>Node3&#45;&gt;Node5</title>
<path fill="none" stroke="midnightblue" d="M405.388,-221.039C434.492,-210.879 477.969,-196.546 507.213,-187.516"/>
<polygon fill="midnightblue" stroke="midnightblue" points="404.005,-217.816 395.739,-224.444 406.334,-224.417 404.005,-217.816"/>
</g>
<!-- Node3&#45;&gt;Node6 -->
<g id="edge6" class="edge"><title>Node3&#45;&gt;Node6</title>
<path fill="none" stroke="midnightblue" d="M410.148,-223.89C494.115,-205.57 581.798,-191.206 628.209,-183.974"/>
<polygon fill="midnightblue" stroke="midnightblue" points="409.207,-220.513 400.195,-226.084 410.714,-227.349 409.207,-220.513"/>
</g>
<!-- Node9 -->
<g id="node9" class="node"><title>Node9</title>
<g id="a_node9"><a xlink:href="a00089.html" target="_top" xlink:title="signal&#45;time&#45;dependent.h">
<polygon fill="white" stroke="black" points="314,-112.5 314,-131.5 434,-131.5 434,-112.5 314,-112.5"/>
<text text-anchor="middle" x="374" y="-119.5" font-family="Helvetica,sans-Serif" font-size="10.00">signal&#45;time&#45;dependent.h</text>
</a>
</g>
</g>
<!-- Node3&#45;&gt;Node9 -->
<g id="edge11" class="edge"><title>Node3&#45;&gt;Node9</title>
<path fill="none" stroke="midnightblue" d="M374.83,-214.348C374.611,-190.254 374.239,-149.308 374.078,-131.591"/>
<polygon fill="midnightblue" stroke="midnightblue" points="371.331,-214.401 374.922,-224.368 378.33,-214.337 371.331,-214.401"/>
</g>
<!-- Node5&#45;&gt;Node3 -->
<g id="edge5" class="edge"><title>Node5&#45;&gt;Node3</title>
<path fill="none" stroke="midnightblue" d="M507.812,-190.891C476.835,-201.71 429.429,-217.3 400.317,-226.161"/>
<polygon fill="midnightblue" stroke="midnightblue" points="508.983,-194.19 517.248,-187.561 506.653,-187.589 508.983,-194.19"/>
</g>
<!-- Node6&#45;&gt;Node4 -->
<g id="edge7" class="edge"><title>Node6&#45;&gt;Node4</title>
<path fill="none" stroke="midnightblue" d="M642.503,-161.816C613.963,-138.387 560.122,-94.1898 537.466,-75.5914"/>
<polygon fill="midnightblue" stroke="midnightblue" points="640.535,-164.729 650.485,-168.368 644.977,-159.318 640.535,-164.729"/>
</g>
<!-- Node7 -->
<g id="node7" class="node"><title>Node7</title>
<g id="a_node7"><a xlink:href="a00088.html" target="_top" xlink:title="signal&#45;ptr.t.cpp">
<polygon fill="white" stroke="black" points="620.5,-112.5 620.5,-131.5 701.5,-131.5 701.5,-112.5 620.5,-112.5"/>
<text text-anchor="middle" x="661" y="-119.5" font-family="Helvetica,sans-Serif" font-size="10.00">signal&#45;ptr.t.cpp</text>
</a>
</g>
</g>
<!-- Node6&#45;&gt;Node7 -->
<g id="edge8" class="edge"><title>Node6&#45;&gt;Node7</title>
<path fill="none" stroke="midnightblue" d="M654.528,-158.101C653.896,-149.136 654.343,-138.858 655.869,-131.751"/>
<polygon fill="midnightblue" stroke="midnightblue" points="651.066,-158.622 655.834,-168.083 658.007,-157.713 651.066,-158.622"/>
</g>
<!-- Node8 -->
<g id="node8" class="node"><title>Node8</title>
<g id="a_node8"><a xlink:href="a00086.html" target="_top" xlink:title="signal&#45;helper.h">
<polygon fill="white" stroke="black" points="395,-56.5 395,-75.5 475,-75.5 475,-56.5 395,-56.5"/>
<text text-anchor="middle" x="435" y="-63.5" font-family="Helvetica,sans-Serif" font-size="10.00">signal&#45;helper.h</text>
</a>
</g>
</g>
<!-- Node6&#45;&gt;Node8 -->
<g id="edge10" class="edge"><title>Node6&#45;&gt;Node8</title>
<path fill="none" stroke="midnightblue" d="M634.041,-163.878C587.196,-141.078 492.016,-94.7509 452.651,-75.5914"/>
<polygon fill="midnightblue" stroke="midnightblue" points="632.743,-167.139 643.266,-168.368 635.806,-160.845 632.743,-167.139"/>
</g>
<!-- Node7&#45;&gt;Node6 -->
<g id="edge9" class="edge"><title>Node7&#45;&gt;Node6</title>
<path fill="none" stroke="midnightblue" d="M667.458,-141.691C668.106,-150.635 667.676,-160.927 666.166,-168.083"/>
<polygon fill="midnightblue" stroke="midnightblue" points="670.923,-141.2 666.131,-131.751 663.985,-142.126 670.923,-141.2"/>
</g>
<!-- Node9&#45;&gt;Node4 -->
<g id="edge12" class="edge"><title>Node9&#45;&gt;Node4</title>
<path fill="none" stroke="midnightblue" d="M407.889,-109.039C436.677,-98.8786 477.287,-84.5457 502.87,-75.5164"/>
<polygon fill="midnightblue" stroke="midnightblue" points="406.508,-105.815 398.243,-112.444 408.838,-112.416 406.508,-105.815"/>
</g>
<!-- Node9&#45;&gt;Node8 -->
<g id="edge13" class="edge"><title>Node9&#45;&gt;Node8</title>
<path fill="none" stroke="midnightblue" d="M391.467,-105.537C402.344,-95.9087 415.944,-83.8694 425.021,-75.8339"/>
<polygon fill="midnightblue" stroke="midnightblue" points="388.968,-103.075 383.801,-112.324 393.608,-108.316 388.968,-103.075"/>
</g>
<!-- Node10 -->
<g id="node10" class="node"><title>Node10</title>
<g id="a_node10"><a xlink:href="a00096.html" target="_top" xlink:title="tracer.h">
<polygon fill="white" stroke="black" points="70,-56.5 70,-75.5 120,-75.5 120,-56.5 70,-56.5"/>
<text text-anchor="middle" x="95" y="-63.5" font-family="Helvetica,sans-Serif" font-size="10.00">tracer.h</text>
</a>
</g>
</g>
<!-- Node9&#45;&gt;Node10 -->
<g id="edge14" class="edge"><title>Node9&#45;&gt;Node10</title>
<path fill="none" stroke="midnightblue" d="M319.71,-110.492C259.541,-98.8467 165.091,-80.5661 120.252,-71.8876"/>
<polygon fill="midnightblue" stroke="midnightblue" points="319.309,-113.979 329.792,-112.444 320.639,-107.107 319.309,-113.979"/>
</g>
<!-- Node10&#45;&gt;Node11 -->
<g id="edge15" class="edge"><title>Node10&#45;&gt;Node11</title>
<path fill="none" stroke="midnightblue" d="M80.2723,-48.4314C71.8599,-38.9673 61.6513,-27.4827 54.7787,-19.7511"/>
<polygon fill="midnightblue" stroke="midnightblue" points="77.8142,-50.9342 87.0738,-56.083 83.046,-46.2836 77.8142,-50.9342"/>
</g>
<!-- Node12&#45;&gt;Node3 -->
<g id="edge17" class="edge"><title>Node12&#45;&gt;Node3</title>
<path fill="none" stroke="midnightblue" d="M262.475,-276.906C289.736,-266.754 327.992,-252.506 352.132,-243.516"/>
<polygon fill="midnightblue" stroke="midnightblue" points="261.125,-273.674 252.976,-280.444 263.568,-280.233 261.125,-273.674"/>
</g>
<!-- Node12&#45;&gt;Node10 -->
<g id="edge30" class="edge"><title>Node12&#45;&gt;Node10</title>
<path fill="none" stroke="midnightblue" d="M203.627,-275.229C190.681,-267.439 175.625,-256.711 165,-244 119.857,-189.997 101.375,-103.326 96.4405,-75.733"/>
<polygon fill="midnightblue" stroke="midnightblue" points="202.172,-278.429 212.588,-280.368 205.655,-272.357 202.172,-278.429"/>
</g>
<!-- Node12&#45;&gt;Node13 -->
<g id="edge18" class="edge"><title>Node12&#45;&gt;Node13</title>
<path fill="none" stroke="midnightblue" d="M202.171,-275.274C190.265,-267.806 177.603,-257.341 171,-244 161.133,-224.066 179.479,-200.029 191.241,-187.514"/>
<polygon fill="midnightblue" stroke="midnightblue" points="200.609,-278.413 211.016,-280.398 204.118,-272.357 200.609,-278.413"/>
</g>
<!-- Node15 -->
<g id="node15" class="node"><title>Node15</title>
<g id="a_node15"><a xlink:href="a00082.html" target="_top" xlink:title="signal&#45;array.h">
<polygon fill="white" stroke="black" points="180.5,-224.5 180.5,-243.5 255.5,-243.5 255.5,-224.5 180.5,-224.5"/>
<text text-anchor="middle" x="218" y="-231.5" font-family="Helvetica,sans-Serif" font-size="10.00">signal&#45;array.h</text>
</a>
</g>
</g>
<!-- Node12&#45;&gt;Node15 -->
<g id="edge23" class="edge"><title>Node12&#45;&gt;Node15</title>
<path fill="none" stroke="midnightblue" d="M225.8,-270.101C223.808,-261.136 221.524,-250.858 219.945,-243.751"/>
<polygon fill="midnightblue" stroke="midnightblue" points="222.432,-271.08 228.018,-280.083 229.266,-269.562 222.432,-271.08"/>
</g>
<!-- Node12&#45;&gt;Node16 -->
<g id="edge28" class="edge"><title>Node12&#45;&gt;Node16</title>
<path fill="none" stroke="midnightblue" d="M242.808,-272.564C249.288,-264.12 257.2,-253.611 264,-244 278.067,-224.118 293.611,-200.06 301.6,-187.528"/>
<polygon fill="midnightblue" stroke="midnightblue" points="240.027,-270.439 236.68,-280.492 245.565,-274.72 240.027,-270.439"/>
</g>
<!-- Node12&#45;&gt;Node17 -->
<g id="edge29" class="edge"><title>Node12&#45;&gt;Node17</title>
<path fill="none" stroke="midnightblue" d="M277.131,-283.332C373.117,-271.788 588.029,-245.941 657.144,-237.629"/>
<polygon fill="midnightblue" stroke="midnightblue" points="276.636,-279.866 267.126,-284.535 277.472,-286.816 276.636,-279.866"/>
</g>
<!-- Node13&#45;&gt;Node9 -->
<g id="edge19" class="edge"><title>Node13&#45;&gt;Node9</title>
<path fill="none" stroke="midnightblue" d="M237.261,-165.436C270.067,-155.255 317.083,-140.664 346.558,-131.516"/>
<polygon fill="midnightblue" stroke="midnightblue" points="236.084,-162.137 227.571,-168.444 238.159,-168.822 236.084,-162.137"/>
</g>
<!-- Node13&#45;&gt;Node10 -->
<g id="edge22" class="edge"><title>Node13&#45;&gt;Node10</title>
<path fill="none" stroke="midnightblue" d="M174.256,-163.45C160.858,-155.528 144.849,-144.612 133,-132 116.711,-114.661 104.376,-89.1228 98.6066,-75.8073"/>
<polygon fill="midnightblue" stroke="midnightblue" points="172.609,-166.539 183.032,-168.44 176.069,-160.454 172.609,-166.539"/>
</g>
<!-- Node14 -->
<g id="node14" class="node"><title>Node14</title>
<g id="a_node14"><a xlink:href="a00093.html" target="_top" xlink:title="time&#45;dependency.t.cpp">
<polygon fill="white" stroke="black" points="142,-112.5 142,-131.5 258,-131.5 258,-112.5 142,-112.5"/>
<text text-anchor="middle" x="200" y="-119.5" font-family="Helvetica,sans-Serif" font-size="10.00">time&#45;dependency.t.cpp</text>
</a>
</g>
</g>
<!-- Node13&#45;&gt;Node14 -->
<g id="edge20" class="edge"><title>Node13&#45;&gt;Node14</title>
<path fill="none" stroke="midnightblue" d="M193.528,-158.101C192.896,-149.136 193.343,-138.858 194.869,-131.751"/>
<polygon fill="midnightblue" stroke="midnightblue" points="190.066,-158.622 194.834,-168.083 197.007,-157.713 190.066,-158.622"/>
</g>
<!-- Node14&#45;&gt;Node13 -->
<g id="edge21" class="edge"><title>Node14&#45;&gt;Node13</title>
<path fill="none" stroke="midnightblue" d="M206.458,-141.691C207.106,-150.635 206.676,-160.927 205.166,-168.083"/>
<polygon fill="midnightblue" stroke="midnightblue" points="209.923,-141.2 205.131,-131.751 202.985,-142.126 209.923,-141.2"/>
</g>
<!-- Node15&#45;&gt;Node13 -->
<g id="edge24" class="edge"><title>Node15&#45;&gt;Node13</title>
<path fill="none" stroke="midnightblue" d="M211.799,-214.396C208.787,-205.362 205.312,-194.936 202.917,-187.751"/>
<polygon fill="midnightblue" stroke="midnightblue" points="208.545,-215.703 215.028,-224.083 215.186,-213.489 208.545,-215.703"/>
</g>
<!-- Node15&#45;&gt;Node16 -->
<g id="edge25" class="edge"><title>Node15&#45;&gt;Node16</title>
<path fill="none" stroke="midnightblue" d="M241.238,-218.901C257.558,-208.999 278.865,-196.071 292.736,-187.655"/>
<polygon fill="midnightblue" stroke="midnightblue" points="239.033,-216.144 232.299,-224.324 242.664,-222.129 239.033,-216.144"/>
</g>
<!-- Node16&#45;&gt;Node8 -->
<g id="edge26" class="edge"><title>Node16&#45;&gt;Node8</title>
<path fill="none" stroke="midnightblue" d="M341.888,-176.228C374.031,-173.433 420.101,-163.696 443,-132 455.251,-115.042 445.758,-88.8819 439.45,-75.5084"/>
<polygon fill="midnightblue" stroke="midnightblue" points="341.314,-172.759 331.575,-176.931 341.79,-179.743 341.314,-172.759"/>
</g>
<!-- Node16&#45;&gt;Node10 -->
<g id="edge27" class="edge"><title>Node16&#45;&gt;Node10</title>
<path fill="none" stroke="midnightblue" d="M300.278,-158.784C293.911,-144.024 282.936,-123.804 267,-112 222.602,-79.1148 156.2,-70.2167 120.271,-67.839"/>
<polygon fill="midnightblue" stroke="midnightblue" points="297.147,-160.379 304.106,-168.368 303.648,-157.783 297.147,-160.379"/>
</g>
<!-- Node18&#45;&gt;Node5 -->
<g id="edge32" class="edge"><title>Node18&#45;&gt;Node5</title>
<path fill="none" stroke="midnightblue" d="M525.543,-270.348C528.829,-246.254 534.413,-205.308 536.828,-187.591"/>
<polygon fill="midnightblue" stroke="midnightblue" points="522.06,-269.987 524.177,-280.368 528.996,-270.933 522.06,-269.987"/>
</g>
<!-- Node18&#45;&gt;Node19 -->
<g id="edge33" class="edge"><title>Node18&#45;&gt;Node19</title>
<path fill="none" stroke="midnightblue" d="M507.002,-273.002C497.433,-263.433 485.639,-251.639 477.751,-243.751"/>
<polygon fill="midnightblue" stroke="midnightblue" points="504.537,-275.487 514.083,-280.083 509.487,-270.537 504.537,-275.487"/>
</g>
<!-- Node20&#45;&gt;Node19 -->
<g id="edge36" class="edge"><title>Node20&#45;&gt;Node19</title>
<path fill="none" stroke="midnightblue" d="M445.977,-271.566C451.827,-262.275 458.77,-251.248 463.49,-243.751"/>
<polygon fill="midnightblue" stroke="midnightblue" points="442.981,-269.756 440.614,-280.083 448.904,-273.486 442.981,-269.756"/>
</g>
<!-- Node21&#45;&gt;Node2 -->
<g id="edge39" class="edge"><title>Node21&#45;&gt;Node2</title>
<path fill="none" stroke="midnightblue" d="M423.862,-382.69C419.817,-373.589 415.117,-363.014 411.889,-355.751"/>
<polygon fill="midnightblue" stroke="midnightblue" points="420.777,-384.366 428.037,-392.083 427.174,-381.523 420.777,-384.366"/>
</g>
<!-- Node21&#45;&gt;Node22 -->
<g id="edge40" class="edge"><title>Node21&#45;&gt;Node22</title>
<path fill="none" stroke="midnightblue" d="M473.229,-389.699C510.409,-379.507 564.271,-364.743 597.931,-355.516"/>
<polygon fill="midnightblue" stroke="midnightblue" points="471.934,-386.424 463.215,-392.444 473.785,-393.175 471.934,-386.424"/>
</g>
<!-- Node21&#45;&gt;Node24 -->
<g id="edge44" class="edge"><title>Node21&#45;&gt;Node24</title>
<path fill="none" stroke="midnightblue" d="M390.419,-389.829C352.469,-379.633 297.19,-364.782 262.7,-355.516"/>
<polygon fill="midnightblue" stroke="midnightblue" points="389.585,-393.229 400.151,-392.444 391.402,-386.469 389.585,-393.229"/>
</g>
<!-- Node22&#45;&gt;Node16 -->
<g id="edge41" class="edge"><title>Node22&#45;&gt;Node16</title>
<path fill="none" stroke="midnightblue" d="M619.45,-327.206C604.013,-300.28 570.921,-249.615 528,-224 464.621,-186.176 374.756,-179.655 331.772,-178.847"/>
<polygon fill="midnightblue" stroke="midnightblue" points="616.567,-329.223 624.486,-336.262 622.685,-325.821 616.567,-329.223"/>
</g>
<!-- Node22&#45;&gt;Node17 -->
<g id="edge43" class="edge"><title>Node22&#45;&gt;Node17</title>
<path fill="none" stroke="midnightblue" d="M637.183,-326.998C648.092,-302.997 666.969,-261.468 675.095,-243.591"/>
<polygon fill="midnightblue" stroke="midnightblue" points="633.875,-325.816 632.923,-336.368 640.248,-328.713 633.875,-325.816"/>
</g>
<!-- Node22&#45;&gt;Node23 -->
<g id="edge42" class="edge"><title>Node22&#45;&gt;Node23</title>
<path fill="none" stroke="midnightblue" d="M653.062,-331.177C670.359,-321.241 693.148,-308.149 707.935,-299.655"/>
<polygon fill="midnightblue" stroke="midnightblue" points="651.03,-328.308 644.103,-336.324 654.517,-334.378 651.03,-328.308"/>
</g>
<!-- Node24&#45;&gt;Node10 -->
<g id="edge45" class="edge"><title>Node24&#45;&gt;Node10</title>
<path fill="none" stroke="midnightblue" d="M213.099,-329.703C203.887,-321.39 192.779,-310.654 184,-300 131.037,-235.729 117.67,-213.597 101,-132 96.9169,-112.014 95.6094,-87.9983 95.1929,-75.5004"/>
<polygon fill="midnightblue" stroke="midnightblue" points="210.786,-332.33 220.601,-336.321 215.417,-327.081 210.786,-332.33"/>
</g>
<!-- Node25&#45;&gt;Node5 -->
<g id="edge48" class="edge"><title>Node25&#45;&gt;Node5</title>
<path fill="none" stroke="midnightblue" d="M708.502,-223.695C669.687,-213.52 608.019,-197.355 570.452,-187.507"/>
<polygon fill="midnightblue" stroke="midnightblue" points="707.766,-227.12 718.326,-226.27 709.541,-220.349 707.766,-227.12"/>
</g>
<!-- Node25&#45;&gt;Node7 -->
<g id="edge49" class="edge"><title>Node25&#45;&gt;Node7</title>
<path fill="none" stroke="midnightblue" d="M733.837,-215.598C725.757,-202.197 713.875,-183.418 702,-168 691.682,-154.603 678.246,-140.374 669.62,-131.586"/>
<polygon fill="midnightblue" stroke="midnightblue" points="730.879,-217.471 738.995,-224.281 736.897,-213.896 730.879,-217.471"/>
</g>
<!-- Node25&#45;&gt;Node14 -->
<g id="edge50" class="edge"><title>Node25&#45;&gt;Node14</title>
<path fill="none" stroke="midnightblue" d="M708.706,-221.644C683.407,-213.179 648.696,-200.896 619,-188 601.133,-180.241 598.633,-173.68 580,-168 549.974,-158.848 357.161,-138.682 258.292,-128.753"/>
<polygon fill="midnightblue" stroke="midnightblue" points="707.656,-224.983 718.249,-224.806 709.857,-218.339 707.656,-224.983"/>
</g>
</g>
</svg>
