<?xml version="1.0" encoding="UTF-8" standalone="no"?>
<!DOCTYPE svg PUBLIC "-//W3C//DTD SVG 1.1//EN"
 "http://www.w3.org/Graphics/SVG/1.1/DTD/svg11.dtd">
<!-- Generated by graphviz version 2.38.0 (20140413.2041)
 -->
<!-- Title: exception&#45;signal.h Pages: 1 -->
<svg width="725pt" height="364pt"
 viewBox="0.00 0.00 725.00 364.00" xmlns="http://www.w3.org/2000/svg" xmlns:xlink="http://www.w3.org/1999/xlink">
<g id="graph0" class="graph" transform="scale(1 1) rotate(0) translate(4 360)">
<title>exception&#45;signal.h</title>
<polygon fill="white" stroke="none" points="-4,4 -4,-360 721,-360 721,4 -4,4"/>
<!-- Node1 -->
<g id="node1" class="node"><title>Node1</title>
<polygon fill="#bfbfbf" stroke="black" points="379,-336.5 379,-355.5 474,-355.5 474,-336.5 379,-336.5"/>
<text text-anchor="middle" x="426.5" y="-343.5" font-family="Helvetica,sans-Serif" font-size="10.00">exception&#45;signal.h</text>
</g>
<!-- Node2 -->
<g id="node2" class="node"><title>Node2</title>
<g id="a_node2"><a xlink:href="a00091.html" target="_top" xlink:title="signal.h">
<polygon fill="white" stroke="black" points="223.5,-224.5 223.5,-243.5 273.5,-243.5 273.5,-224.5 223.5,-224.5"/>
<text text-anchor="middle" x="248.5" y="-231.5" font-family="Helvetica,sans-Serif" font-size="10.00">signal.h</text>
</a>
</g>
</g>
<!-- Node1&#45;&gt;Node2 -->
<g id="edge1" class="edge"><title>Node1&#45;&gt;Node2</title>
<path fill="none" stroke="midnightblue" d="M396.727,-332.449C378.067,-324.135 353.792,-312.49 333.5,-300 304.707,-282.277 273.892,-256.901 258.483,-243.711"/>
<polygon fill="midnightblue" stroke="midnightblue" points="395.359,-335.67 405.922,-336.479 398.169,-329.259 395.359,-335.67"/>
</g>
<!-- Node5 -->
<g id="node5" class="node"><title>Node5</title>
<g id="a_node5"><a xlink:href="a00088.html" target="_top" xlink:title="signal&#45;ptr.h">
<polygon fill="white" stroke="black" points="85,-168.5 85,-187.5 150,-187.5 150,-168.5 85,-168.5"/>
<text text-anchor="middle" x="117.5" y="-175.5" font-family="Helvetica,sans-Serif" font-size="10.00">signal&#45;ptr.h</text>
</a>
</g>
</g>
<!-- Node1&#45;&gt;Node5 -->
<g id="edge33" class="edge"><title>Node1&#45;&gt;Node5</title>
<path fill="none" stroke="midnightblue" d="M386.784,-333.452C361.478,-325.459 328.336,-313.795 300.5,-300 259.632,-279.747 252.557,-269.14 214.5,-244 184.223,-224 148.863,-200.19 130.33,-187.676"/>
<polygon fill="midnightblue" stroke="midnightblue" points="385.829,-336.82 396.417,-336.438 387.901,-330.134 385.829,-336.82"/>
</g>
<!-- Node11 -->
<g id="node11" class="node"><title>Node11</title>
<g id="a_node11"><a xlink:href="a00084.html" target="_top" xlink:title="signal&#45;base.h">
<polygon fill="white" stroke="black" points="342.5,-280.5 342.5,-299.5 416.5,-299.5 416.5,-280.5 342.5,-280.5"/>
<text text-anchor="middle" x="379.5" y="-287.5" font-family="Helvetica,sans-Serif" font-size="10.00">signal&#45;base.h</text>
</a>
</g>
</g>
<!-- Node1&#45;&gt;Node11 -->
<g id="edge15" class="edge"><title>Node1&#45;&gt;Node11</title>
<path fill="none" stroke="midnightblue" d="M412.079,-328.431C403.842,-318.967 393.846,-307.483 387.117,-299.751"/>
<polygon fill="midnightblue" stroke="midnightblue" points="409.534,-330.838 418.739,-336.083 414.814,-326.242 409.534,-330.838"/>
</g>
<!-- Node17 -->
<g id="node17" class="node"><title>Node17</title>
<g id="a_node17"><a xlink:href="a00086.html" target="_top" xlink:title="signal&#45;caster.h">
<polygon fill="white" stroke="black" points="434.5,-280.5 434.5,-299.5 514.5,-299.5 514.5,-280.5 434.5,-280.5"/>
<text text-anchor="middle" x="474.5" y="-287.5" font-family="Helvetica,sans-Serif" font-size="10.00">signal&#45;caster.h</text>
</a>
</g>
</g>
<!-- Node1&#45;&gt;Node17 -->
<g id="edge30" class="edge"><title>Node1&#45;&gt;Node17</title>
<path fill="none" stroke="midnightblue" d="M441.228,-328.431C449.64,-318.967 459.849,-307.483 466.721,-299.751"/>
<polygon fill="midnightblue" stroke="midnightblue" points="438.454,-326.284 434.426,-336.083 443.686,-330.934 438.454,-326.284"/>
</g>
<!-- Node18 -->
<g id="node18" class="node"><title>Node18</title>
<g id="a_node18"><a xlink:href="a00085.html" target="_top" xlink:title="signal&#45;cast&#45;helper.h">
<polygon fill="white" stroke="black" points="616,-224.5 616,-243.5 717,-243.5 717,-224.5 616,-224.5"/>
<text text-anchor="middle" x="666.5" y="-231.5" font-family="Helvetica,sans-Serif" font-size="10.00">signal&#45;cast&#45;helper.h</text>
</a>
</g>
</g>
<!-- Node1&#45;&gt;Node18 -->
<g id="edge36" class="edge"><title>Node1&#45;&gt;Node18</title>
<path fill="none" stroke="midnightblue" d="M454.507,-332.163C504.029,-309.466 605.778,-262.831 647.755,-243.591"/>
<polygon fill="midnightblue" stroke="midnightblue" points="452.965,-329.02 445.332,-336.368 455.881,-335.384 452.965,-329.02"/>
</g>
<!-- Node19 -->
<g id="node19" class="node"><title>Node19</title>
<g id="a_node19"><a xlink:href="a00069.html" target="_top" xlink:title="eigen&#45;io.h">
<polygon fill="white" stroke="black" points="620,-280.5 620,-299.5 679,-299.5 679,-280.5 620,-280.5"/>
<text text-anchor="middle" x="649.5" y="-287.5" font-family="Helvetica,sans-Serif" font-size="10.00">eigen&#45;io.h</text>
</a>
</g>
</g>
<!-- Node1&#45;&gt;Node19 -->
<g id="edge34" class="edge"><title>Node1&#45;&gt;Node19</title>
<path fill="none" stroke="midnightblue" d="M471.73,-334.047C515.867,-323.36 581.747,-307.406 619.683,-298.22"/>
<polygon fill="midnightblue" stroke="midnightblue" points="470.73,-330.688 461.835,-336.444 472.378,-337.492 470.73,-330.688"/>
</g>
<!-- Node3 -->
<g id="node3" class="node"><title>Node3</title>
<g id="a_node3"><a xlink:href="a00056.html" target="_top" xlink:title="all&#45;signals.h">
<polygon fill="white" stroke="black" points="149.5,-56.5 149.5,-75.5 217.5,-75.5 217.5,-56.5 149.5,-56.5"/>
<text text-anchor="middle" x="183.5" y="-63.5" font-family="Helvetica,sans-Serif" font-size="10.00">all&#45;signals.h</text>
</a>
</g>
</g>
<!-- Node2&#45;&gt;Node3 -->
<g id="edge2" class="edge"><title>Node2&#45;&gt;Node3</title>
<path fill="none" stroke="midnightblue" d="M240.184,-215.358C230.91,-195.37 215.738,-161.706 204.5,-132 196.947,-112.035 189.633,-88.0106 185.956,-75.5059"/>
<polygon fill="midnightblue" stroke="midnightblue" points="237.038,-216.894 244.444,-224.471 243.38,-213.93 237.038,-216.894"/>
</g>
<!-- Node4 -->
<g id="node4" class="node"><title>Node4</title>
<g id="a_node4"><a xlink:href="a00092.html" target="_top" xlink:title="signal.t.cpp">
<polygon fill="white" stroke="black" points="268,-168.5 268,-187.5 335,-187.5 335,-168.5 268,-168.5"/>
<text text-anchor="middle" x="301.5" y="-175.5" font-family="Helvetica,sans-Serif" font-size="10.00">signal.t.cpp</text>
</a>
</g>
</g>
<!-- Node2&#45;&gt;Node4 -->
<g id="edge3" class="edge"><title>Node2&#45;&gt;Node4</title>
<path fill="none" stroke="midnightblue" d="M258.736,-216.144C267.111,-206.736 278.625,-195.405 287.78,-187.751"/>
<polygon fill="midnightblue" stroke="midnightblue" points="255.824,-214.17 252.086,-224.083 261.19,-218.665 255.824,-214.17"/>
</g>
<!-- Node2&#45;&gt;Node5 -->
<g id="edge5" class="edge"><title>Node2&#45;&gt;Node5</title>
<path fill="none" stroke="midnightblue" d="M218.183,-220.503C193.624,-210.38 159.682,-196.388 138.16,-187.516"/>
<polygon fill="midnightblue" stroke="midnightblue" points="217.163,-223.868 227.743,-224.444 219.831,-217.397 217.163,-223.868"/>
</g>
<!-- Node8 -->
<g id="node8" class="node"><title>Node8</title>
<g id="a_node8"><a xlink:href="a00090.html" target="_top" xlink:title="signal&#45;time&#45;dependent.h">
<polygon fill="white" stroke="black" points="213.5,-112.5 213.5,-131.5 333.5,-131.5 333.5,-112.5 213.5,-112.5"/>
<text text-anchor="middle" x="273.5" y="-119.5" font-family="Helvetica,sans-Serif" font-size="10.00">signal&#45;time&#45;dependent.h</text>
</a>
</g>
</g>
<!-- Node2&#45;&gt;Node8 -->
<g id="edge10" class="edge"><title>Node2&#45;&gt;Node8</title>
<path fill="none" stroke="midnightblue" d="M250.513,-214.407C252.135,-201.319 254.765,-183.45 258.5,-168 261.635,-155.033 266.809,-140.457 270.186,-131.501"/>
<polygon fill="midnightblue" stroke="midnightblue" points="247.018,-214.161 249.344,-224.497 253.971,-214.966 247.018,-214.161"/>
</g>
<!-- Node4&#45;&gt;Node2 -->
<g id="edge4" class="edge"><title>Node4&#45;&gt;Node2</title>
<path fill="none" stroke="midnightblue" d="M291.57,-195.511C283.144,-205.017 271.412,-216.576 262.13,-224.324"/>
<polygon fill="midnightblue" stroke="midnightblue" points="294.257,-197.754 297.978,-187.834 288.883,-193.268 294.257,-197.754"/>
</g>
<!-- Node5&#45;&gt;Node3 -->
<g id="edge6" class="edge"><title>Node5&#45;&gt;Node3</title>
<path fill="none" stroke="midnightblue" d="M119.141,-158.287C121.014,-144.657 125.009,-126.176 133.5,-112 142.622,-96.7715 158.538,-83.7626 169.965,-75.7062"/>
<polygon fill="midnightblue" stroke="midnightblue" points="115.643,-158.068 118.013,-168.395 122.6,-158.844 115.643,-158.068"/>
</g>
<!-- Node6 -->
<g id="node6" class="node"><title>Node6</title>
<g id="a_node6"><a xlink:href="a00089.html" target="_top" xlink:title="signal&#45;ptr.t.cpp">
<polygon fill="white" stroke="black" points="0,-112.5 0,-131.5 81,-131.5 81,-112.5 0,-112.5"/>
<text text-anchor="middle" x="40.5" y="-119.5" font-family="Helvetica,sans-Serif" font-size="10.00">signal&#45;ptr.t.cpp</text>
</a>
</g>
</g>
<!-- Node5&#45;&gt;Node6 -->
<g id="edge7" class="edge"><title>Node5&#45;&gt;Node6</title>
<path fill="none" stroke="midnightblue" d="M91.4363,-162.935C76.1892,-153.099 58.1733,-140.263 47.9478,-131.834"/>
<polygon fill="midnightblue" stroke="midnightblue" points="89.6843,-165.968 100.014,-168.324 93.4082,-160.04 89.6843,-165.968"/>
</g>
<!-- Node7 -->
<g id="node7" class="node"><title>Node7</title>
<g id="a_node7"><a xlink:href="a00087.html" target="_top" xlink:title="signal&#45;helper.h">
<polygon fill="white" stroke="black" points="235.5,-56.5 235.5,-75.5 315.5,-75.5 315.5,-56.5 235.5,-56.5"/>
<text text-anchor="middle" x="275.5" y="-63.5" font-family="Helvetica,sans-Serif" font-size="10.00">signal&#45;helper.h</text>
</a>
</g>
</g>
<!-- Node5&#45;&gt;Node7 -->
<g id="edge9" class="edge"><title>Node5&#45;&gt;Node7</title>
<path fill="none" stroke="midnightblue" d="M136.786,-161.923C154.212,-148.461 180.702,-128.396 204.5,-112 223.728,-98.7525 246.655,-84.4862 261.147,-75.6495"/>
<polygon fill="midnightblue" stroke="midnightblue" points="134.315,-159.41 128.561,-168.306 138.607,-164.94 134.315,-159.41"/>
</g>
<!-- Node6&#45;&gt;Node5 -->
<g id="edge8" class="edge"><title>Node6&#45;&gt;Node5</title>
<path fill="none" stroke="midnightblue" d="M66.5779,-137.074C81.9175,-146.971 100.056,-159.9 110.243,-168.324"/>
<polygon fill="midnightblue" stroke="midnightblue" points="68.2804,-134.01 57.9508,-131.655 64.5567,-139.938 68.2804,-134.01"/>
</g>
<!-- Node8&#45;&gt;Node3 -->
<g id="edge11" class="edge"><title>Node8&#45;&gt;Node3</title>
<path fill="none" stroke="midnightblue" d="M250.462,-107.177C233.901,-97.2407 212.082,-84.1492 197.924,-75.6545"/>
<polygon fill="midnightblue" stroke="midnightblue" points="248.664,-110.18 259.04,-112.324 252.266,-104.178 248.664,-110.18"/>
</g>
<!-- Node8&#45;&gt;Node7 -->
<g id="edge12" class="edge"><title>Node8&#45;&gt;Node7</title>
<path fill="none" stroke="midnightblue" d="M274.211,-101.805C274.54,-92.9102 274.916,-82.7798 275.176,-75.7511"/>
<polygon fill="midnightblue" stroke="midnightblue" points="270.703,-101.96 273.83,-112.083 277.698,-102.219 270.703,-101.96"/>
</g>
<!-- Node9 -->
<g id="node9" class="node"><title>Node9</title>
<g id="a_node9"><a xlink:href="a00097.html" target="_top" xlink:title="tracer.h">
<polygon fill="white" stroke="black" points="443.5,-56.5 443.5,-75.5 493.5,-75.5 493.5,-56.5 443.5,-56.5"/>
<text text-anchor="middle" x="468.5" y="-63.5" font-family="Helvetica,sans-Serif" font-size="10.00">tracer.h</text>
</a>
</g>
</g>
<!-- Node8&#45;&gt;Node9 -->
<g id="edge13" class="edge"><title>Node8&#45;&gt;Node9</title>
<path fill="none" stroke="midnightblue" d="M314.363,-109.684C353.297,-98.9024 410.675,-83.0132 443.327,-73.971"/>
<polygon fill="midnightblue" stroke="midnightblue" points="313.102,-106.402 304.398,-112.444 314.97,-113.148 313.102,-106.402"/>
</g>
<!-- Node10 -->
<g id="node10" class="node"><title>Node10</title>
<g id="a_node10"><a xlink:href="a00095.html" target="_top" xlink:title="tracer&#45;real&#45;time.h">
<polygon fill="white" stroke="black" points="423.5,-0.5 423.5,-19.5 513.5,-19.5 513.5,-0.5 423.5,-0.5"/>
<text text-anchor="middle" x="468.5" y="-7.5" font-family="Helvetica,sans-Serif" font-size="10.00">tracer&#45;real&#45;time.h</text>
</a>
</g>
</g>
<!-- Node9&#45;&gt;Node10 -->
<g id="edge14" class="edge"><title>Node9&#45;&gt;Node10</title>
<path fill="none" stroke="midnightblue" d="M468.5,-45.8045C468.5,-36.9102 468.5,-26.7798 468.5,-19.7511"/>
<polygon fill="midnightblue" stroke="midnightblue" points="465,-46.083 468.5,-56.083 472,-46.083 465,-46.083"/>
</g>
<!-- Node11&#45;&gt;Node2 -->
<g id="edge16" class="edge"><title>Node11&#45;&gt;Node2</title>
<path fill="none" stroke="midnightblue" d="M349.183,-276.503C324.624,-266.38 290.682,-252.388 269.16,-243.516"/>
<polygon fill="midnightblue" stroke="midnightblue" points="348.163,-279.868 358.743,-280.444 350.831,-273.397 348.163,-279.868"/>
</g>
<!-- Node11&#45;&gt;Node9 -->
<g id="edge29" class="edge"><title>Node11&#45;&gt;Node9</title>
<path fill="none" stroke="midnightblue" d="M424.324,-278.038C466.06,-267.45 522.952,-251.893 530.5,-244 571.949,-200.657 590.029,-163.015 558.5,-112 544.448,-89.2638 515.045,-77.6308 493.66,-71.9504"/>
<polygon fill="midnightblue" stroke="midnightblue" points="423.455,-274.647 414.612,-280.482 425.164,-281.435 423.455,-274.647"/>
</g>
<!-- Node12 -->
<g id="node12" class="node"><title>Node12</title>
<g id="a_node12"><a xlink:href="a00093.html" target="_top" xlink:title="time&#45;dependency.h">
<polygon fill="white" stroke="black" points="430,-168.5 430,-187.5 529,-187.5 529,-168.5 430,-168.5"/>
<text text-anchor="middle" x="479.5" y="-175.5" font-family="Helvetica,sans-Serif" font-size="10.00">time&#45;dependency.h</text>
</a>
</g>
</g>
<!-- Node11&#45;&gt;Node12 -->
<g id="edge17" class="edge"><title>Node11&#45;&gt;Node12</title>
<path fill="none" stroke="midnightblue" d="M426.611,-279.284C460.882,-271.15 503.036,-258.553 513.5,-244 526.883,-225.388 504.637,-200.814 490.249,-187.864"/>
<polygon fill="midnightblue" stroke="midnightblue" points="425.69,-275.905 416.731,-281.561 427.261,-282.726 425.69,-275.905"/>
</g>
<!-- Node14 -->
<g id="node14" class="node"><title>Node14</title>
<g id="a_node14"><a xlink:href="a00083.html" target="_top" xlink:title="signal&#45;array.h">
<polygon fill="white" stroke="black" points="430,-224.5 430,-243.5 505,-243.5 505,-224.5 430,-224.5"/>
<text text-anchor="middle" x="467.5" y="-231.5" font-family="Helvetica,sans-Serif" font-size="10.00">signal&#45;array.h</text>
</a>
</g>
</g>
<!-- Node11&#45;&gt;Node14 -->
<g id="edge22" class="edge"><title>Node11&#45;&gt;Node14</title>
<path fill="none" stroke="midnightblue" d="M402.477,-274.901C418.613,-264.999 439.681,-252.071 453.396,-243.655"/>
<polygon fill="midnightblue" stroke="midnightblue" points="400.331,-272.111 393.639,-280.324 403.993,-278.077 400.331,-272.111"/>
</g>
<!-- Node15 -->
<g id="node15" class="node"><title>Node15</title>
<g id="a_node15"><a xlink:href="a00071.html" target="_top" xlink:title="entity.h">
<polygon fill="white" stroke="black" points="351,-112.5 351,-131.5 400,-131.5 400,-112.5 351,-112.5"/>
<text text-anchor="middle" x="375.5" y="-119.5" font-family="Helvetica,sans-Serif" font-size="10.00">entity.h</text>
</a>
</g>
</g>
<!-- Node11&#45;&gt;Node15 -->
<g id="edge27" class="edge"><title>Node11&#45;&gt;Node15</title>
<path fill="none" stroke="midnightblue" d="M379.04,-269.93C378.173,-233.92 376.325,-157.231 375.706,-131.568"/>
<polygon fill="midnightblue" stroke="midnightblue" points="375.545,-270.162 379.285,-280.075 382.543,-269.994 375.545,-270.162"/>
</g>
<!-- Node16 -->
<g id="node16" class="node"><title>Node16</title>
<g id="a_node16"><a xlink:href="a00081.html" target="_top" xlink:title="pool.h">
<polygon fill="white" stroke="black" points="292,-224.5 292,-243.5 335,-243.5 335,-224.5 292,-224.5"/>
<text text-anchor="middle" x="313.5" y="-231.5" font-family="Helvetica,sans-Serif" font-size="10.00">pool.h</text>
</a>
</g>
</g>
<!-- Node11&#45;&gt;Node16 -->
<g id="edge28" class="edge"><title>Node11&#45;&gt;Node16</title>
<path fill="none" stroke="midnightblue" d="M360.946,-273.82C349.122,-264.145 334.214,-251.948 324.297,-243.834"/>
<polygon fill="midnightblue" stroke="midnightblue" points="358.94,-276.7 368.896,-280.324 363.373,-271.283 358.94,-276.7"/>
</g>
<!-- Node12&#45;&gt;Node8 -->
<g id="edge18" class="edge"><title>Node12&#45;&gt;Node8</title>
<path fill="none" stroke="midnightblue" d="M436.885,-165.829C397.99,-155.633 341.336,-140.782 305.989,-131.516"/>
<polygon fill="midnightblue" stroke="midnightblue" points="436.298,-169.293 446.859,-168.444 438.073,-162.522 436.298,-169.293"/>
</g>
<!-- Node12&#45;&gt;Node9 -->
<g id="edge21" class="edge"><title>Node12&#45;&gt;Node9</title>
<path fill="none" stroke="midnightblue" d="M508.31,-163.694C530.002,-151.676 554.159,-132.736 542.5,-112 532.109,-93.52 510.716,-81.7456 493.592,-74.8964"/>
<polygon fill="midnightblue" stroke="midnightblue" points="506.523,-160.678 499.275,-168.406 509.76,-166.885 506.523,-160.678"/>
</g>
<!-- Node13 -->
<g id="node13" class="node"><title>Node13</title>
<g id="a_node13"><a xlink:href="a00094.html" target="_top" xlink:title="time&#45;dependency.t.cpp">
<polygon fill="white" stroke="black" points="417.5,-112.5 417.5,-131.5 533.5,-131.5 533.5,-112.5 417.5,-112.5"/>
<text text-anchor="middle" x="475.5" y="-119.5" font-family="Helvetica,sans-Serif" font-size="10.00">time&#45;dependency.t.cpp</text>
</a>
</g>
</g>
<!-- Node12&#45;&gt;Node13 -->
<g id="edge19" class="edge"><title>Node12&#45;&gt;Node13</title>
<path fill="none" stroke="midnightblue" d="M471.628,-158.101C470.332,-149.136 470.017,-138.858 471.017,-131.751"/>
<polygon fill="midnightblue" stroke="midnightblue" points="468.237,-158.989 473.673,-168.083 475.094,-157.584 468.237,-158.989"/>
</g>
<!-- Node13&#45;&gt;Node12 -->
<g id="edge20" class="edge"><title>Node13&#45;&gt;Node12</title>
<path fill="none" stroke="midnightblue" d="M483.342,-141.691C484.653,-150.635 484.985,-160.927 484.006,-168.083"/>
<polygon fill="midnightblue" stroke="midnightblue" points="486.738,-140.831 481.279,-131.751 479.884,-142.254 486.738,-140.831"/>
</g>
<!-- Node14&#45;&gt;Node12 -->
<g id="edge23" class="edge"><title>Node14&#45;&gt;Node12</title>
<path fill="none" stroke="midnightblue" d="M471.7,-214.101C473.692,-205.136 475.976,-194.858 477.555,-187.751"/>
<polygon fill="midnightblue" stroke="midnightblue" points="468.234,-213.562 469.482,-224.083 475.068,-215.08 468.234,-213.562"/>
</g>
<!-- Node14&#45;&gt;Node15 -->
<g id="edge24" class="edge"><title>Node14&#45;&gt;Node15</title>
<path fill="none" stroke="midnightblue" d="M449.469,-217.325C440.351,-209.015 429.37,-198.396 420.5,-188 404.465,-169.206 388.732,-144.706 380.804,-131.816"/>
<polygon fill="midnightblue" stroke="midnightblue" points="447.414,-220.183 457.204,-224.235 452.078,-214.962 447.414,-220.183"/>
</g>
<!-- Node15&#45;&gt;Node7 -->
<g id="edge25" class="edge"><title>Node15&#45;&gt;Node7</title>
<path fill="none" stroke="midnightblue" d="M350.412,-107.453C331.951,-97.4835 307.403,-84.2279 291.527,-75.6545"/>
<polygon fill="midnightblue" stroke="midnightblue" points="348.971,-110.652 359.433,-112.324 352.297,-104.493 348.971,-110.652"/>
</g>
<!-- Node15&#45;&gt;Node9 -->
<g id="edge26" class="edge"><title>Node15&#45;&gt;Node9</title>
<path fill="none" stroke="midnightblue" d="M399.306,-107.177C416.419,-97.2407 438.965,-84.1492 453.595,-75.6545"/>
<polygon fill="midnightblue" stroke="midnightblue" points="397.332,-104.276 390.442,-112.324 400.847,-110.329 397.332,-104.276"/>
</g>
<!-- Node17&#45;&gt;Node4 -->
<g id="edge31" class="edge"><title>Node17&#45;&gt;Node4</title>
<path fill="none" stroke="midnightblue" d="M452.032,-274.714C415.577,-251.535 344.64,-206.43 315.012,-187.591"/>
<polygon fill="midnightblue" stroke="midnightblue" points="450.608,-277.956 460.925,-280.368 454.364,-272.049 450.608,-277.956"/>
</g>
<!-- Node17&#45;&gt;Node18 -->
<g id="edge32" class="edge"><title>Node17&#45;&gt;Node18</title>
<path fill="none" stroke="midnightblue" d="M514.683,-277.699C550.919,-267.507 603.414,-252.743 636.219,-243.516"/>
<polygon fill="midnightblue" stroke="midnightblue" points="513.602,-274.367 504.923,-280.444 515.497,-281.105 513.602,-274.367"/>
</g>
<!-- Node19&#45;&gt;Node18 -->
<g id="edge35" class="edge"><title>Node19&#45;&gt;Node18</title>
<path fill="none" stroke="midnightblue" d="M655.357,-270.396C658.201,-261.362 661.483,-250.936 663.745,-243.751"/>
<polygon fill="midnightblue" stroke="midnightblue" points="651.972,-269.493 652.307,-280.083 658.649,-271.596 651.972,-269.493"/>
</g>
</g>
</svg>
