<?xml version="1.0" encoding="UTF-8" standalone="no"?>
<!DOCTYPE svg PUBLIC "-//W3C//DTD SVG 1.1//EN"
 "http://www.w3.org/Graphics/SVG/1.1/DTD/svg11.dtd">
<!-- Generated by graphviz version 2.38.0 (20140413.2041)
 -->
<!-- Title: all&#45;signals.h Pages: 1 -->
<svg width="2051pt" height="553pt"
 viewBox="0.00 0.00 2050.95 553.00" xmlns="http://www.w3.org/2000/svg" xmlns:xlink="http://www.w3.org/1999/xlink">
<g id="graph0" class="graph" transform="scale(1 1) rotate(0) translate(4 549)">
<title>all&#45;signals.h</title>
<polygon fill="white" stroke="none" points="-4,4 -4,-549 2046.95,-549 2046.95,4 -4,4"/>
<!-- Node1 -->
<g id="node1" class="node"><title>Node1</title>
<polygon fill="#bfbfbf" stroke="black" points="1301,-525.5 1301,-544.5 1369,-544.5 1369,-525.5 1301,-525.5"/>
<text text-anchor="middle" x="1335" y="-532.5" font-family="Helvetica,sans-Serif" font-size="10.00">all&#45;signals.h</text>
</g>
<!-- Node2 -->
<g id="node2" class="node"><title>Node2</title>
<g id="a_node2"><a xlink:href="a00090.html" target="_top" xlink:title="dynamic&#45;graph/signal.h">
<polygon fill="white" stroke="black" points="1288.5,-397 1288.5,-416 1405.5,-416 1405.5,-397 1288.5,-397"/>
<text text-anchor="middle" x="1347" y="-404" font-family="Helvetica,sans-Serif" font-size="10.00">dynamic&#45;graph/signal.h</text>
</a>
</g>
</g>
<!-- Node1&#45;&gt;Node2 -->
<g id="edge1" class="edge"><title>Node1&#45;&gt;Node2</title>
<path fill="none" stroke="midnightblue" d="M1335.82,-525.305C1337.75,-504.994 1342.58,-454.053 1345.22,-426.277"/>
<polygon fill="midnightblue" stroke="midnightblue" points="1348.71,-426.542 1346.17,-416.256 1341.74,-425.88 1348.71,-426.542"/>
</g>
<!-- Node30 -->
<g id="node30" class="node"><title>Node30</title>
<g id="a_node30"><a xlink:href="a00087.html" target="_top" xlink:title="dynamic&#45;graph/signal\l&#45;ptr.h">
<polygon fill="white" stroke="black" points="1173.5,-458.5 1173.5,-488.5 1282.5,-488.5 1282.5,-458.5 1173.5,-458.5"/>
<text text-anchor="start" x="1181.5" y="-476.5" font-family="Helvetica,sans-Serif" font-size="10.00">dynamic&#45;graph/signal</text>
<text text-anchor="middle" x="1228" y="-465.5" font-family="Helvetica,sans-Serif" font-size="10.00">&#45;ptr.h</text>
</a>
</g>
</g>
<!-- Node1&#45;&gt;Node30 -->
<g id="edge46" class="edge"><title>Node1&#45;&gt;Node30</title>
<path fill="none" stroke="midnightblue" d="M1319.67,-525.475C1304.7,-517.153 1281.42,-504.207 1262.07,-493.445"/>
<polygon fill="midnightblue" stroke="midnightblue" points="1263.66,-490.324 1253.22,-488.523 1260.26,-496.442 1263.66,-490.324"/>
</g>
<!-- Node32 -->
<g id="node32" class="node"><title>Node32</title>
<g id="a_node32"><a xlink:href="a00089.html" target="_top" xlink:title="dynamic&#45;graph/signal\l&#45;time&#45;dependent.h">
<polygon fill="white" stroke="black" points="1363.5,-458.5 1363.5,-488.5 1472.5,-488.5 1472.5,-458.5 1363.5,-458.5"/>
<text text-anchor="start" x="1371.5" y="-476.5" font-family="Helvetica,sans-Serif" font-size="10.00">dynamic&#45;graph/signal</text>
<text text-anchor="middle" x="1418" y="-465.5" font-family="Helvetica,sans-Serif" font-size="10.00">&#45;time&#45;dependent.h</text>
</a>
</g>
</g>
<!-- Node1&#45;&gt;Node32 -->
<g id="edge53" class="edge"><title>Node1&#45;&gt;Node32</title>
<path fill="none" stroke="midnightblue" d="M1346.89,-525.475C1358.13,-517.417 1375.42,-505.023 1390.14,-494.474"/>
<polygon fill="midnightblue" stroke="midnightblue" points="1392.35,-497.194 1398.44,-488.523 1388.27,-491.505 1392.35,-497.194"/>
</g>
<!-- Node3 -->
<g id="node3" class="node"><title>Node3</title>
<polygon fill="white" stroke="#bfbfbf" points="1341,-330 1341,-349 1421,-349 1421,-330 1341,-330"/>
<text text-anchor="middle" x="1381" y="-337" font-family="Helvetica,sans-Serif" font-size="10.00">boost/bind.hpp</text>
</g>
<!-- Node2&#45;&gt;Node3 -->
<g id="edge2" class="edge"><title>Node2&#45;&gt;Node3</title>
<path fill="none" stroke="midnightblue" d="M1351.59,-396.734C1356.73,-386.89 1365.22,-370.66 1371.76,-358.159"/>
<polygon fill="midnightblue" stroke="midnightblue" points="1374.95,-359.611 1376.49,-349.127 1368.75,-356.366 1374.95,-359.611"/>
</g>
<!-- Node4 -->
<g id="node4" class="node"><title>Node4</title>
<polygon fill="white" stroke="#bfbfbf" points="1439.5,-330 1439.5,-349 1536.5,-349 1536.5,-330 1439.5,-330"/>
<text text-anchor="middle" x="1488" y="-337" font-family="Helvetica,sans-Serif" font-size="10.00">boost/function.hpp</text>
</g>
<!-- Node2&#45;&gt;Node4 -->
<g id="edge3" class="edge"><title>Node2&#45;&gt;Node4</title>
<path fill="none" stroke="midnightblue" d="M1365.72,-396.869C1389.85,-385.748 1432,-366.317 1459.95,-353.429"/>
<polygon fill="midnightblue" stroke="midnightblue" points="1461.58,-356.532 1469.2,-349.167 1458.65,-350.175 1461.58,-356.532"/>
</g>
<!-- Node5 -->
<g id="node5" class="node"><title>Node5</title>
<polygon fill="white" stroke="#bfbfbf" points="1585.5,-62 1585.5,-81 1626.5,-81 1626.5,-62 1585.5,-62"/>
<text text-anchor="middle" x="1606" y="-69" font-family="Helvetica,sans-Serif" font-size="10.00">string</text>
</g>
<!-- Node2&#45;&gt;Node5 -->
<g id="edge4" class="edge"><title>Node2&#45;&gt;Node5</title>
<path fill="none" stroke="midnightblue" d="M1342.08,-396.545C1334.31,-381.108 1321.12,-348.761 1332,-324 1335.52,-315.99 1529.6,-141.167 1588.94,-87.8196"/>
<polygon fill="midnightblue" stroke="midnightblue" points="1591.29,-90.4155 1596.39,-81.1281 1586.61,-85.2088 1591.29,-90.4155"/>
</g>
<!-- Node6 -->
<g id="node6" class="node"><title>Node6</title>
<polygon fill="white" stroke="#bfbfbf" points="980,-62 980,-81 1034,-81 1034,-62 980,-62"/>
<text text-anchor="middle" x="1007" y="-69" font-family="Helvetica,sans-Serif" font-size="10.00">iostream</text>
</g>
<!-- Node2&#45;&gt;Node6 -->
<g id="edge5" class="edge"><title>Node2&#45;&gt;Node6</title>
<path fill="none" stroke="midnightblue" d="M1310.79,-396.968C1300.56,-394.777 1289.38,-392.593 1279,-391 1142.1,-369.995 38,-412.006 38,-273.5 38,-273.5 38,-273.5 38,-204.5 38,-129.019 114.479,-143.933 187,-123 336.917,-79.7259 829.571,-73.5337 969.584,-72.6478"/>
<polygon fill="midnightblue" stroke="midnightblue" points="969.817,-76.1466 979.796,-72.5888 969.776,-69.1468 969.817,-76.1466"/>
</g>
<!-- Node7 -->
<g id="node7" class="node"><title>Node7</title>
<g id="a_node7"><a xlink:href="a00073.html" target="_top" xlink:title="dynamic&#45;graph/exception\l&#45;signal.h">
<polygon fill="white" stroke="black" points="1773.5,-190.5 1773.5,-220.5 1898.5,-220.5 1898.5,-190.5 1773.5,-190.5"/>
<text text-anchor="start" x="1781.5" y="-208.5" font-family="Helvetica,sans-Serif" font-size="10.00">dynamic&#45;graph/exception</text>
<text text-anchor="middle" x="1836" y="-197.5" font-family="Helvetica,sans-Serif" font-size="10.00">&#45;signal.h</text>
</a>
</g>
</g>
<!-- Node2&#45;&gt;Node7 -->
<g id="edge6" class="edge"><title>Node2&#45;&gt;Node7</title>
<path fill="none" stroke="midnightblue" d="M1404.89,-396.969C1450.48,-389.157 1515.11,-375.633 1569,-355 1660.68,-319.903 1759.34,-257.94 1806.98,-226.299"/>
<polygon fill="midnightblue" stroke="midnightblue" points="1809.17,-229.043 1815.54,-220.574 1805.28,-223.225 1809.17,-229.043"/>
</g>
<!-- Node12 -->
<g id="node12" class="node"><title>Node12</title>
<g id="a_node12"><a xlink:href="a00083.html" target="_top" xlink:title="dynamic&#45;graph/signal\l&#45;base.h">
<polygon fill="white" stroke="black" points="1517.5,-257.5 1517.5,-287.5 1626.5,-287.5 1626.5,-257.5 1517.5,-257.5"/>
<text text-anchor="start" x="1525.5" y="-275.5" font-family="Helvetica,sans-Serif" font-size="10.00">dynamic&#45;graph/signal</text>
<text text-anchor="middle" x="1572" y="-264.5" font-family="Helvetica,sans-Serif" font-size="10.00">&#45;base.h</text>
</a>
</g>
</g>
<!-- Node2&#45;&gt;Node12 -->
<g id="edge15" class="edge"><title>Node2&#45;&gt;Node12</title>
<path fill="none" stroke="midnightblue" d="M1405.62,-404.998C1449.25,-401.538 1507.5,-389.954 1545,-355 1560.78,-340.286 1567.35,-316.149 1570.08,-297.953"/>
<polygon fill="midnightblue" stroke="midnightblue" points="1573.58,-298.133 1571.3,-287.786 1566.63,-297.295 1573.58,-298.133"/>
</g>
<!-- Node16 -->
<g id="node16" class="node"><title>Node16</title>
<g id="a_node16"><a xlink:href="a00091.html" target="_top" xlink:title="dynamic&#45;graph/signal.t.cpp">
<polygon fill="white" stroke="black" points="1151,-330 1151,-349 1285,-349 1285,-330 1151,-330"/>
<text text-anchor="middle" x="1218" y="-337" font-family="Helvetica,sans-Serif" font-size="10.00">dynamic&#45;graph/signal.t.cpp</text>
</a>
</g>
</g>
<!-- Node2&#45;&gt;Node16 -->
<g id="edge23" class="edge"><title>Node2&#45;&gt;Node16</title>
<path fill="none" stroke="midnightblue" d="M1325.11,-396.869C1301.09,-385.942 1263.2,-366.993 1239.4,-354.11"/>
<polygon fill="midnightblue" stroke="midnightblue" points="1240.88,-350.931 1230.43,-349.167 1237.5,-357.061 1240.88,-350.931"/>
</g>
<!-- Node8 -->
<g id="node8" class="node"><title>Node8</title>
<g id="a_node8"><a xlink:href="a00076.html" target="_top" xlink:title="dynamic&#45;graph/fwd.hh">
<polygon fill="white" stroke="black" points="1811.5,-62 1811.5,-81 1924.5,-81 1924.5,-62 1811.5,-62"/>
<text text-anchor="middle" x="1868" y="-69" font-family="Helvetica,sans-Serif" font-size="10.00">dynamic&#45;graph/fwd.hh</text>
</a>
</g>
</g>
<!-- Node7&#45;&gt;Node8 -->
<g id="edge7" class="edge"><title>Node7&#45;&gt;Node8</title>
<path fill="none" stroke="midnightblue" d="M1839.42,-190.374C1845.24,-166.397 1857.03,-117.748 1863.5,-91.0561"/>
<polygon fill="midnightblue" stroke="midnightblue" points="1866.96,-91.6404 1865.92,-81.0973 1860.16,-89.9911 1866.96,-91.6404"/>
</g>
<!-- Node9 -->
<g id="node9" class="node"><title>Node9</title>
<g id="a_node9"><a xlink:href="a00067.html" target="_top" xlink:title="dynamic&#45;graph/dynamic\l&#45;graph&#45;api.h">
<polygon fill="white" stroke="black" points="1645,-56.5 1645,-86.5 1765,-86.5 1765,-56.5 1645,-56.5"/>
<text text-anchor="start" x="1653" y="-74.5" font-family="Helvetica,sans-Serif" font-size="10.00">dynamic&#45;graph/dynamic</text>
<text text-anchor="middle" x="1705" y="-63.5" font-family="Helvetica,sans-Serif" font-size="10.00">&#45;graph&#45;api.h</text>
</a>
</g>
</g>
<!-- Node7&#45;&gt;Node9 -->
<g id="edge8" class="edge"><title>Node7&#45;&gt;Node9</title>
<path fill="none" stroke="midnightblue" d="M1826.58,-190.336C1814.9,-173.325 1793.84,-144.411 1772,-123 1760.78,-112.005 1747.13,-101.312 1735.08,-92.6188"/>
<polygon fill="midnightblue" stroke="midnightblue" points="1736.84,-89.5743 1726.65,-86.666 1732.8,-95.2928 1736.84,-89.5743"/>
</g>
<!-- Node11 -->
<g id="node11" class="node"><title>Node11</title>
<g id="a_node11"><a xlink:href="a00071.html" target="_top" xlink:title="dynamic&#45;graph/exception\l&#45;abstract.h">
<polygon fill="white" stroke="black" points="1638.5,-123.5 1638.5,-153.5 1763.5,-153.5 1763.5,-123.5 1638.5,-123.5"/>
<text text-anchor="start" x="1646.5" y="-141.5" font-family="Helvetica,sans-Serif" font-size="10.00">dynamic&#45;graph/exception</text>
<text text-anchor="middle" x="1701" y="-130.5" font-family="Helvetica,sans-Serif" font-size="10.00">&#45;abstract.h</text>
</a>
</g>
</g>
<!-- Node7&#45;&gt;Node11 -->
<g id="edge10" class="edge"><title>Node7&#45;&gt;Node11</title>
<path fill="none" stroke="midnightblue" d="M1806.71,-190.396C1786.98,-180.899 1760.77,-168.276 1739.38,-157.978"/>
<polygon fill="midnightblue" stroke="midnightblue" points="1740.76,-154.761 1730.24,-153.577 1737.73,-161.068 1740.76,-154.761"/>
</g>
<!-- Node10 -->
<g id="node10" class="node"><title>Node10</title>
<polygon fill="white" stroke="#bfbfbf" points="1643.5,-0.5 1643.5,-19.5 1766.5,-19.5 1766.5,-0.5 1643.5,-0.5"/>
<text text-anchor="middle" x="1705" y="-7.5" font-family="Helvetica,sans-Serif" font-size="10.00">dynamic&#45;graph/config.hh</text>
</g>
<!-- Node9&#45;&gt;Node10 -->
<g id="edge9" class="edge"><title>Node9&#45;&gt;Node10</title>
<path fill="none" stroke="midnightblue" d="M1705,-56.3993C1705,-48.4664 1705,-38.458 1705,-29.8583"/>
<polygon fill="midnightblue" stroke="midnightblue" points="1708.5,-29.6577 1705,-19.6578 1701.5,-29.6578 1708.5,-29.6577"/>
</g>
<!-- Node11&#45;&gt;Node5 -->
<g id="edge12" class="edge"><title>Node11&#45;&gt;Node5</title>
<path fill="none" stroke="midnightblue" d="M1680.39,-123.396C1664.6,-112.597 1642.91,-97.7564 1627.03,-86.8872"/>
<polygon fill="midnightblue" stroke="midnightblue" points="1628.66,-83.7653 1618.43,-81.007 1624.71,-89.5425 1628.66,-83.7653"/>
</g>
<!-- Node11&#45;&gt;Node6 -->
<g id="edge11" class="edge"><title>Node11&#45;&gt;Node6</title>
<path fill="none" stroke="midnightblue" d="M1638.5,-131.646C1497.44,-118.435 1157.91,-86.6345 1044.56,-76.0177"/>
<polygon fill="midnightblue" stroke="midnightblue" points="1044.59,-72.5056 1034.31,-75.0577 1043.94,-79.4751 1044.59,-72.5056"/>
</g>
<!-- Node11&#45;&gt;Node8 -->
<g id="edge13" class="edge"><title>Node11&#45;&gt;Node8</title>
<path fill="none" stroke="midnightblue" d="M1737.24,-123.396C1766.93,-111.84 1808.51,-95.6562 1836.75,-84.6629"/>
<polygon fill="midnightblue" stroke="midnightblue" points="1838.09,-87.8959 1846.14,-81.007 1835.56,-81.3726 1838.09,-87.8959"/>
</g>
<!-- Node11&#45;&gt;Node9 -->
<g id="edge14" class="edge"><title>Node11&#45;&gt;Node9</title>
<path fill="none" stroke="midnightblue" d="M1701.87,-123.396C1702.35,-115.56 1702.96,-105.596 1703.52,-96.5653"/>
<polygon fill="midnightblue" stroke="midnightblue" points="1707.01,-96.7726 1704.13,-86.5765 1700.03,-96.3426 1707.01,-96.7726"/>
</g>
<!-- Node12&#45;&gt;Node5 -->
<g id="edge16" class="edge"><title>Node12&#45;&gt;Node5</title>
<path fill="none" stroke="midnightblue" d="M1576.44,-257.476C1579.5,-247.411 1583.44,-233.478 1586,-221 1595.46,-174.86 1601.54,-119.705 1604.29,-91.3664"/>
<polygon fill="midnightblue" stroke="midnightblue" points="1607.79,-91.5572 1605.24,-81.2738 1600.82,-90.9027 1607.79,-91.5572"/>
</g>
<!-- Node12&#45;&gt;Node6 -->
<g id="edge18" class="edge"><title>Node12&#45;&gt;Node6</title>
<path fill="none" stroke="midnightblue" d="M1572.95,-257.226C1573.33,-239.004 1571.03,-207.722 1553,-190 1479.9,-118.141 1155.12,-84.8307 1044.24,-75.4102"/>
<polygon fill="midnightblue" stroke="midnightblue" points="1044.45,-71.9156 1034.19,-74.5726 1043.87,-78.8914 1044.45,-71.9156"/>
</g>
<!-- Node12&#45;&gt;Node7 -->
<g id="edge22" class="edge"><title>Node12&#45;&gt;Node7</title>
<path fill="none" stroke="midnightblue" d="M1626.7,-258.032C1668.12,-247.834 1725.22,-233.775 1769.32,-222.918"/>
<polygon fill="midnightblue" stroke="midnightblue" points="1770.22,-226.301 1779.09,-220.512 1768.54,-219.504 1770.22,-226.301"/>
</g>
<!-- Node12&#45;&gt;Node8 -->
<g id="edge21" class="edge"><title>Node12&#45;&gt;Node8</title>
<path fill="none" stroke="midnightblue" d="M1626.64,-271.548C1712.35,-270.331 1872.35,-262.407 1908,-221 1941.15,-182.492 1902.91,-119.169 1881.1,-89.2079"/>
<polygon fill="midnightblue" stroke="midnightblue" points="1883.76,-86.9302 1874.95,-81.0451 1878.17,-91.1397 1883.76,-86.9302"/>
</g>
<!-- Node13 -->
<g id="node13" class="node"><title>Node13</title>
<polygon fill="white" stroke="#bfbfbf" points="1492,-196 1492,-215 1544,-215 1544,-196 1492,-196"/>
<text text-anchor="middle" x="1518" y="-203" font-family="Helvetica,sans-Serif" font-size="10.00">sstream</text>
</g>
<!-- Node12&#45;&gt;Node13 -->
<g id="edge17" class="edge"><title>Node12&#45;&gt;Node13</title>
<path fill="none" stroke="midnightblue" d="M1560.28,-257.396C1551.86,-247.261 1540.49,-233.567 1531.66,-222.937"/>
<polygon fill="midnightblue" stroke="midnightblue" points="1534.31,-220.65 1525.22,-215.195 1528.92,-225.123 1534.31,-220.65"/>
</g>
<!-- Node14 -->
<g id="node14" class="node"><title>Node14</title>
<polygon fill="white" stroke="#bfbfbf" points="1178.5,-196 1178.5,-215 1229.5,-215 1229.5,-196 1178.5,-196"/>
<text text-anchor="middle" x="1204" y="-203" font-family="Helvetica,sans-Serif" font-size="10.00">typeinfo</text>
</g>
<!-- Node12&#45;&gt;Node14 -->
<g id="edge19" class="edge"><title>Node12&#45;&gt;Node14</title>
<path fill="none" stroke="midnightblue" d="M1517.22,-267.288C1450.52,-261.229 1334.9,-247.71 1239,-221 1236.56,-220.321 1234.06,-219.518 1231.58,-218.644"/>
<polygon fill="midnightblue" stroke="midnightblue" points="1232.82,-215.371 1222.23,-215.031 1230.3,-221.9 1232.82,-215.371"/>
</g>
<!-- Node15 -->
<g id="node15" class="node"><title>Node15</title>
<polygon fill="white" stroke="#bfbfbf" points="1638.5,-196 1638.5,-215 1755.5,-215 1755.5,-196 1638.5,-196"/>
<text text-anchor="middle" x="1697" y="-203" font-family="Helvetica,sans-Serif" font-size="10.00">boost/noncopyable.hpp</text>
</g>
<!-- Node12&#45;&gt;Node15 -->
<g id="edge20" class="edge"><title>Node12&#45;&gt;Node15</title>
<path fill="none" stroke="midnightblue" d="M1599.12,-257.396C1620.67,-246.193 1650.57,-230.641 1671.64,-219.685"/>
<polygon fill="midnightblue" stroke="midnightblue" points="1673.38,-222.726 1680.64,-215.007 1670.15,-216.515 1673.38,-222.726"/>
</g>
<!-- Node16&#45;&gt;Node2 -->
<g id="edge24" class="edge"><title>Node16&#45;&gt;Node2</title>
<path fill="none" stroke="midnightblue" d="M1239.88,-349.127C1263.83,-360.024 1301.59,-378.905 1325.41,-391.787"/>
<polygon fill="midnightblue" stroke="midnightblue" points="1323.94,-394.974 1334.39,-396.734 1327.32,-388.843 1323.94,-394.974"/>
</g>
<!-- Node17 -->
<g id="node17" class="node"><title>Node17</title>
<g id="a_node17"><a xlink:href="a00085.html" target="_top" xlink:title="dynamic&#45;graph/signal\l&#45;caster.h">
<polygon fill="white" stroke="black" points="715.5,-257.5 715.5,-287.5 824.5,-287.5 824.5,-257.5 715.5,-257.5"/>
<text text-anchor="start" x="723.5" y="-275.5" font-family="Helvetica,sans-Serif" font-size="10.00">dynamic&#45;graph/signal</text>
<text text-anchor="middle" x="770" y="-264.5" font-family="Helvetica,sans-Serif" font-size="10.00">&#45;caster.h</text>
</a>
</g>
</g>
<!-- Node16&#45;&gt;Node17 -->
<g id="edge25" class="edge"><title>Node16&#45;&gt;Node17</title>
<path fill="none" stroke="midnightblue" d="M1158.97,-329.936C1074.98,-317.749 921.546,-295.488 834.6,-282.873"/>
<polygon fill="midnightblue" stroke="midnightblue" points="834.993,-279.393 824.594,-281.421 833.987,-286.321 834.993,-279.393"/>
</g>
<!-- Node26 -->
<g id="node26" class="node"><title>Node26</title>
<g id="a_node26"><a xlink:href="a00065.html" target="_top" xlink:title="dynamic&#45;graph/debug.h">
<polygon fill="white" stroke="black" points="1240,-263 1240,-282 1358,-282 1358,-263 1240,-263"/>
<text text-anchor="middle" x="1299" y="-270" font-family="Helvetica,sans-Serif" font-size="10.00">dynamic&#45;graph/debug.h</text>
</a>
</g>
</g>
<!-- Node16&#45;&gt;Node26 -->
<g id="edge38" class="edge"><title>Node16&#45;&gt;Node26</title>
<path fill="none" stroke="midnightblue" d="M1228.92,-329.734C1242.04,-319.208 1264.26,-301.379 1280.16,-288.617"/>
<polygon fill="midnightblue" stroke="midnightblue" points="1282.64,-291.116 1288.25,-282.127 1278.26,-285.656 1282.64,-291.116"/>
</g>
<!-- Node17&#45;&gt;Node6 -->
<g id="edge28" class="edge"><title>Node17&#45;&gt;Node6</title>
<path fill="none" stroke="midnightblue" d="M715.423,-271.572C562.265,-271.21 136.866,-266.116 95,-221 85.6281,-210.901 85.9014,-200.346 95,-190 153.93,-122.99 805.622,-83.4007 969.684,-74.4508"/>
<polygon fill="midnightblue" stroke="midnightblue" points="969.977,-77.9402 979.774,-73.9056 969.6,-70.9504 969.977,-77.9402"/>
</g>
<!-- Node17&#45;&gt;Node7 -->
<g id="edge37" class="edge"><title>Node17&#45;&gt;Node7</title>
<path fill="none" stroke="midnightblue" d="M824.768,-269.787C1002.2,-264.073 1560.93,-244.741 1763.32,-220.914"/>
<polygon fill="midnightblue" stroke="midnightblue" points="1763.76,-224.387 1773.26,-219.703 1762.91,-217.438 1763.76,-224.387"/>
</g>
<!-- Node17&#45;&gt;Node9 -->
<g id="edge36" class="edge"><title>Node17&#45;&gt;Node9</title>
<path fill="none" stroke="midnightblue" d="M824.788,-259.412C868.959,-249.521 932.619,-234.939 988,-221 1038.92,-208.184 1050.85,-201.878 1102,-190 1333.8,-136.164 1396.71,-134.398 1634.68,-87.0436"/>
<polygon fill="midnightblue" stroke="midnightblue" points="1635.56,-90.4378 1644.68,-85.0479 1634.19,-83.5732 1635.56,-90.4378"/>
</g>
<!-- Node17&#45;&gt;Node14 -->
<g id="edge27" class="edge"><title>Node17&#45;&gt;Node14</title>
<path fill="none" stroke="midnightblue" d="M824.767,-269.187C902.485,-264.87 1048.7,-252.916 1169,-221 1171.45,-220.351 1173.95,-219.569 1176.44,-218.709"/>
<polygon fill="midnightblue" stroke="midnightblue" points="1177.71,-221.97 1185.79,-215.12 1175.2,-215.434 1177.71,-221.97"/>
</g>
<!-- Node18 -->
<g id="node18" class="node"><title>Node18</title>
<polygon fill="white" stroke="#bfbfbf" points="677.5,-196 677.5,-215 712.5,-215 712.5,-196 677.5,-196"/>
<text text-anchor="middle" x="695" y="-203" font-family="Helvetica,sans-Serif" font-size="10.00">map</text>
</g>
<!-- Node17&#45;&gt;Node18 -->
<g id="edge26" class="edge"><title>Node17&#45;&gt;Node18</title>
<path fill="none" stroke="midnightblue" d="M753.726,-257.396C741.685,-246.96 725.289,-232.751 712.882,-221.998"/>
<polygon fill="midnightblue" stroke="midnightblue" points="714.881,-219.099 705.032,-215.195 710.297,-224.389 714.881,-219.099"/>
</g>
<!-- Node19 -->
<g id="node19" class="node"><title>Node19</title>
<polygon fill="white" stroke="#bfbfbf" points="935,-196 935,-215 979,-215 979,-196 935,-196"/>
<text text-anchor="middle" x="957" y="-203" font-family="Helvetica,sans-Serif" font-size="10.00">vector</text>
</g>
<!-- Node17&#45;&gt;Node19 -->
<g id="edge29" class="edge"><title>Node17&#45;&gt;Node19</title>
<path fill="none" stroke="midnightblue" d="M818.687,-257.445C849.737,-248.065 890.641,-234.93 926,-221 927.417,-220.442 928.86,-219.85 930.311,-219.237"/>
<polygon fill="midnightblue" stroke="midnightblue" points="932.077,-222.282 939.787,-215.015 929.228,-215.888 932.077,-222.282"/>
</g>
<!-- Node20 -->
<g id="node20" class="node"><title>Node20</title>
<polygon fill="white" stroke="#bfbfbf" points="731,-196 731,-215 809,-215 809,-196 731,-196"/>
<text text-anchor="middle" x="770" y="-203" font-family="Helvetica,sans-Serif" font-size="10.00">boost/any.hpp</text>
</g>
<!-- Node17&#45;&gt;Node20 -->
<g id="edge30" class="edge"><title>Node17&#45;&gt;Node20</title>
<path fill="none" stroke="midnightblue" d="M770,-257.396C770,-248.064 770,-235.714 770,-225.517"/>
<polygon fill="midnightblue" stroke="midnightblue" points="773.5,-225.195 770,-215.195 766.5,-225.195 773.5,-225.195"/>
</g>
<!-- Node21 -->
<g id="node21" class="node"><title>Node21</title>
<polygon fill="white" stroke="#bfbfbf" points="827,-196 827,-215 917,-215 917,-196 827,-196"/>
<text text-anchor="middle" x="872" y="-203" font-family="Helvetica,sans-Serif" font-size="10.00">boost/format.hpp</text>
</g>
<!-- Node17&#45;&gt;Node21 -->
<g id="edge31" class="edge"><title>Node17&#45;&gt;Node21</title>
<path fill="none" stroke="midnightblue" d="M792.132,-257.396C809.238,-246.496 832.803,-231.479 849.9,-220.584"/>
<polygon fill="midnightblue" stroke="midnightblue" points="852.098,-223.333 858.651,-215.007 848.336,-217.43 852.098,-223.333"/>
</g>
<!-- Node22 -->
<g id="node22" class="node"><title>Node22</title>
<polygon fill="white" stroke="#bfbfbf" points="104,-196 104,-215 244,-215 244,-196 104,-196"/>
<text text-anchor="middle" x="174" y="-203" font-family="Helvetica,sans-Serif" font-size="10.00">boost/function/function1.hpp</text>
</g>
<!-- Node17&#45;&gt;Node22 -->
<g id="edge32" class="edge"><title>Node17&#45;&gt;Node22</title>
<path fill="none" stroke="midnightblue" d="M715.485,-267.692C621.019,-260.754 420.9,-244.566 253,-221 244.564,-219.816 235.655,-218.371 226.979,-216.858"/>
<polygon fill="midnightblue" stroke="midnightblue" points="227.404,-213.378 216.944,-215.061 226.171,-220.269 227.404,-213.378"/>
</g>
<!-- Node23 -->
<g id="node23" class="node"><title>Node23</title>
<polygon fill="white" stroke="#bfbfbf" points="262,-196 262,-215 402,-215 402,-196 262,-196"/>
<text text-anchor="middle" x="332" y="-203" font-family="Helvetica,sans-Serif" font-size="10.00">boost/function/function2.hpp</text>
</g>
<!-- Node17&#45;&gt;Node23 -->
<g id="edge33" class="edge"><title>Node17&#45;&gt;Node23</title>
<path fill="none" stroke="midnightblue" d="M715.459,-264.549C645.01,-255.405 518.64,-238.441 411,-221 403.073,-219.716 394.715,-218.275 386.521,-216.814"/>
<polygon fill="midnightblue" stroke="midnightblue" points="387.11,-213.364 376.648,-215.031 385.866,-220.253 387.11,-213.364"/>
</g>
<!-- Node24 -->
<g id="node24" class="node"><title>Node24</title>
<polygon fill="white" stroke="#bfbfbf" points="420,-196 420,-215 534,-215 534,-196 420,-196"/>
<text text-anchor="middle" x="477" y="-203" font-family="Helvetica,sans-Serif" font-size="10.00">boost/lexical_cast.hpp</text>
</g>
<!-- Node17&#45;&gt;Node24 -->
<g id="edge34" class="edge"><title>Node17&#45;&gt;Node24</title>
<path fill="none" stroke="midnightblue" d="M715.233,-259.35C660.729,-247.259 577.879,-228.879 525.633,-217.289"/>
<polygon fill="midnightblue" stroke="midnightblue" points="526.13,-213.814 515.609,-215.065 524.613,-220.648 526.13,-213.814"/>
</g>
<!-- Node25 -->
<g id="node25" class="node"><title>Node25</title>
<polygon fill="white" stroke="#bfbfbf" points="552.5,-196 552.5,-215 659.5,-215 659.5,-196 552.5,-196"/>
<text text-anchor="middle" x="606" y="-203" font-family="Helvetica,sans-Serif" font-size="10.00">boost/tuple/tuple.hpp</text>
</g>
<!-- Node17&#45;&gt;Node25 -->
<g id="edge35" class="edge"><title>Node17&#45;&gt;Node25</title>
<path fill="none" stroke="midnightblue" d="M734.414,-257.396C705.384,-245.89 664.781,-229.797 637.052,-218.807"/>
<polygon fill="midnightblue" stroke="midnightblue" points="638.05,-215.438 627.464,-215.007 635.471,-221.945 638.05,-215.438"/>
</g>
<!-- Node26&#45;&gt;Node6 -->
<g id="edge41" class="edge"><title>Node26&#45;&gt;Node6</title>
<path fill="none" stroke="midnightblue" d="M1239.87,-267.749C1198,-262.537 1142.33,-250.181 1102,-221 1055.2,-187.14 1025.77,-122.485 1013.53,-90.8512"/>
<polygon fill="midnightblue" stroke="midnightblue" points="1016.69,-89.2964 1009.92,-81.1436 1010.13,-91.7364 1016.69,-89.2964"/>
</g>
<!-- Node26&#45;&gt;Node8 -->
<g id="edge44" class="edge"><title>Node26&#45;&gt;Node8</title>
<path fill="none" stroke="midnightblue" d="M1316.44,-262.989C1355.5,-244.05 1449.25,-199.357 1483,-190 1607.73,-155.419 1653.49,-206.059 1772,-154 1806,-139.064 1837.15,-108.067 1854.26,-88.8986"/>
<polygon fill="midnightblue" stroke="midnightblue" points="1856.98,-91.1014 1860.89,-81.2564 1851.69,-86.5112 1856.98,-91.1014"/>
</g>
<!-- Node26&#45;&gt;Node9 -->
<g id="edge45" class="edge"><title>Node26&#45;&gt;Node9</title>
<path fill="none" stroke="midnightblue" d="M1310.81,-262.804C1338.65,-242.334 1406.45,-192.624 1412,-190 1468.52,-163.266 1489.68,-176.54 1548,-154 1593.1,-136.568 1642.12,-109.748 1673.17,-91.6826"/>
<polygon fill="midnightblue" stroke="midnightblue" points="1674.97,-94.6865 1681.82,-86.6062 1671.42,-88.6495 1674.97,-94.6865"/>
</g>
<!-- Node26&#45;&gt;Node13 -->
<g id="edge43" class="edge"><title>Node26&#45;&gt;Node13</title>
<path fill="none" stroke="midnightblue" d="M1328.08,-262.869C1367.83,-251.071 1439.08,-229.923 1482.11,-217.153"/>
<polygon fill="midnightblue" stroke="midnightblue" points="1483.29,-220.454 1491.88,-214.253 1481.3,-213.743 1483.29,-220.454"/>
</g>
<!-- Node27 -->
<g id="node27" class="node"><title>Node27</title>
<polygon fill="white" stroke="#bfbfbf" points="1316.5,-196 1316.5,-215 1359.5,-215 1359.5,-196 1316.5,-196"/>
<text text-anchor="middle" x="1338" y="-203" font-family="Helvetica,sans-Serif" font-size="10.00">cstdio</text>
</g>
<!-- Node26&#45;&gt;Node27 -->
<g id="edge39" class="edge"><title>Node26&#45;&gt;Node27</title>
<path fill="none" stroke="midnightblue" d="M1304.26,-262.734C1310.22,-252.793 1320.1,-236.338 1327.63,-223.789"/>
<polygon fill="midnightblue" stroke="midnightblue" points="1330.68,-225.503 1332.82,-215.127 1324.68,-221.901 1330.68,-225.503"/>
</g>
<!-- Node28 -->
<g id="node28" class="node"><title>Node28</title>
<polygon fill="white" stroke="#bfbfbf" points="1111.5,-196 1111.5,-215 1160.5,-215 1160.5,-196 1111.5,-196"/>
<text text-anchor="middle" x="1136" y="-203" font-family="Helvetica,sans-Serif" font-size="10.00">cstdarg</text>
</g>
<!-- Node26&#45;&gt;Node28 -->
<g id="edge40" class="edge"><title>Node26&#45;&gt;Node28</title>
<path fill="none" stroke="midnightblue" d="M1275.87,-262.861C1249.78,-253.037 1206.14,-236.365 1169,-221 1167.59,-220.417 1166.15,-219.813 1164.7,-219.199"/>
<polygon fill="midnightblue" stroke="midnightblue" points="1165.7,-215.821 1155.13,-215.076 1162.93,-222.249 1165.7,-215.821"/>
</g>
<!-- Node29 -->
<g id="node29" class="node"><title>Node29</title>
<polygon fill="white" stroke="#bfbfbf" points="1248,-196 1248,-215 1298,-215 1298,-196 1248,-196"/>
<text text-anchor="middle" x="1273" y="-203" font-family="Helvetica,sans-Serif" font-size="10.00">fstream</text>
</g>
<!-- Node26&#45;&gt;Node29 -->
<g id="edge42" class="edge"><title>Node26&#45;&gt;Node29</title>
<path fill="none" stroke="midnightblue" d="M1295.49,-262.734C1291.6,-252.988 1285.19,-236.981 1280.21,-224.532"/>
<polygon fill="midnightblue" stroke="midnightblue" points="1283.41,-223.112 1276.45,-215.127 1276.92,-225.712 1283.41,-223.112"/>
</g>
<!-- Node30&#45;&gt;Node2 -->
<g id="edge49" class="edge"><title>Node30&#45;&gt;Node2</title>
<path fill="none" stroke="midnightblue" d="M1253.82,-458.396C1274.24,-447.243 1302.55,-431.781 1322.59,-420.834"/>
<polygon fill="midnightblue" stroke="midnightblue" points="1324.33,-423.872 1331.43,-416.007 1320.97,-417.729 1324.33,-423.872"/>
</g>
<!-- Node30&#45;&gt;Node6 -->
<g id="edge47" class="edge"><title>Node30&#45;&gt;Node6</title>
<path fill="none" stroke="midnightblue" d="M1173.25,-472.449C934.948,-471.519 0,-460.242 0,-340.5 0,-340.5 0,-340.5 0,-204.5 0,-160.042 19.0424,-144.421 58,-123 138.903,-78.5155 803.841,-73.2144 969.653,-72.5846"/>
<polygon fill="midnightblue" stroke="midnightblue" points="969.854,-76.084 979.841,-72.5495 969.829,-69.084 969.854,-76.084"/>
</g>
<!-- Node30&#45;&gt;Node7 -->
<g id="edge48" class="edge"><title>Node30&#45;&gt;Node7</title>
<path fill="none" stroke="midnightblue" d="M1282.53,-465.775C1304.69,-463.16 1330.55,-460.256 1354,-458 1505.69,-443.405 1941.85,-477.868 2032,-355 2076.17,-294.801 1968.5,-247.544 1895.85,-223.644"/>
<polygon fill="midnightblue" stroke="midnightblue" points="1896.89,-220.3 1886.29,-220.567 1894.74,-226.963 1896.89,-220.3"/>
</g>
<!-- Node31 -->
<g id="node31" class="node"><title>Node31</title>
<g id="a_node31"><a xlink:href="a00088.html" target="_top" xlink:title="dynamic&#45;graph/signal\l&#45;ptr.t.cpp">
<polygon fill="white" stroke="black" points="1161.5,-391.5 1161.5,-421.5 1270.5,-421.5 1270.5,-391.5 1161.5,-391.5"/>
<text text-anchor="start" x="1169.5" y="-409.5" font-family="Helvetica,sans-Serif" font-size="10.00">dynamic&#45;graph/signal</text>
<text text-anchor="middle" x="1216" y="-398.5" font-family="Helvetica,sans-Serif" font-size="10.00">&#45;ptr.t.cpp</text>
</a>
</g>
</g>
<!-- Node30&#45;&gt;Node31 -->
<g id="edge50" class="edge"><title>Node30&#45;&gt;Node31</title>
<path fill="none" stroke="midnightblue" d="M1219.72,-458.396C1217.24,-450.56 1215.12,-440.596 1213.9,-431.565"/>
<polygon fill="midnightblue" stroke="midnightblue" points="1217.38,-431.189 1212.92,-421.577 1210.41,-431.869 1217.38,-431.189"/>
</g>
<!-- Node31&#45;&gt;Node26 -->
<g id="edge52" class="edge"><title>Node31&#45;&gt;Node26</title>
<path fill="none" stroke="midnightblue" d="M1182.15,-391.444C1166.96,-383.226 1150.57,-371.228 1142,-355 1135.56,-342.817 1133.89,-335.134 1142,-324 1162.09,-296.439 1197.47,-283.593 1229.56,-277.735"/>
<polygon fill="midnightblue" stroke="midnightblue" points="1230.54,-281.123 1239.85,-276.068 1229.42,-274.213 1230.54,-281.123"/>
</g>
<!-- Node31&#45;&gt;Node30 -->
<g id="edge51" class="edge"><title>Node31&#45;&gt;Node30</title>
<path fill="none" stroke="midnightblue" d="M1224.27,-421.577C1226.75,-429.408 1228.88,-439.37 1230.1,-448.403"/>
<polygon fill="midnightblue" stroke="midnightblue" points="1226.62,-448.784 1231.07,-458.396 1233.58,-448.103 1226.62,-448.784"/>
</g>
<!-- Node32&#45;&gt;Node2 -->
<g id="edge54" class="edge"><title>Node32&#45;&gt;Node2</title>
<path fill="none" stroke="midnightblue" d="M1402.59,-458.396C1391.19,-447.96 1375.67,-433.751 1363.93,-422.998"/>
<polygon fill="midnightblue" stroke="midnightblue" points="1366.24,-420.366 1356.5,-416.195 1361.51,-425.529 1366.24,-420.366"/>
</g>
<!-- Node33 -->
<g id="node33" class="node"><title>Node33</title>
<g id="a_node33"><a xlink:href="a00092.html" target="_top" xlink:title="dynamic&#45;graph/time\l&#45;dependency.h">
<polygon fill="white" stroke="black" points="1708,-391.5 1708,-421.5 1810,-421.5 1810,-391.5 1708,-391.5"/>
<text text-anchor="start" x="1716" y="-409.5" font-family="Helvetica,sans-Serif" font-size="10.00">dynamic&#45;graph/time</text>
<text text-anchor="middle" x="1759" y="-398.5" font-family="Helvetica,sans-Serif" font-size="10.00">&#45;dependency.h</text>
</a>
</g>
</g>
<!-- Node32&#45;&gt;Node33 -->
<g id="edge55" class="edge"><title>Node32&#45;&gt;Node33</title>
<path fill="none" stroke="midnightblue" d="M1472.79,-462.057C1534.35,-450.321 1634.03,-431.322 1698.02,-419.124"/>
<polygon fill="midnightblue" stroke="midnightblue" points="1698.8,-422.538 1707.97,-417.227 1697.49,-415.661 1698.8,-422.538"/>
</g>
<!-- Node33&#45;&gt;Node6 -->
<g id="edge57" class="edge"><title>Node33&#45;&gt;Node6</title>
<path fill="none" stroke="midnightblue" d="M1729.28,-391.451C1688.64,-372.875 1612.98,-340.565 1545,-324 1333.44,-272.447 1232.03,-361.894 1066,-221 1026.25,-187.269 1013.07,-123.039 1008.87,-91.2635"/>
<polygon fill="midnightblue" stroke="midnightblue" points="1012.32,-90.6717 1007.69,-81.1416 1005.37,-91.4783 1012.32,-90.6717"/>
</g>
<!-- Node33&#45;&gt;Node8 -->
<g id="edge58" class="edge"><title>Node33&#45;&gt;Node8</title>
<path fill="none" stroke="midnightblue" d="M1810.34,-398.678C1859.82,-390.926 1929.54,-376.493 1946,-355 1960.95,-335.473 2004.47,-282.998 1923,-123 1915.52,-108.313 1901.91,-95.7584 1890.09,-86.8406"/>
<polygon fill="midnightblue" stroke="midnightblue" points="1892.1,-83.9709 1881.92,-81.0114 1888.03,-89.669 1892.1,-83.9709"/>
</g>
<!-- Node33&#45;&gt;Node12 -->
<g id="edge59" class="edge"><title>Node33&#45;&gt;Node12</title>
<path fill="none" stroke="midnightblue" d="M1769.32,-391.315C1780.71,-373.755 1795.53,-343.756 1780,-324 1762.35,-301.553 1690.93,-287.857 1636.66,-280.495"/>
<polygon fill="midnightblue" stroke="midnightblue" points="1637.11,-277.025 1626.74,-279.194 1636.2,-283.965 1637.11,-277.025"/>
</g>
<!-- Node34 -->
<g id="node34" class="node"><title>Node34</title>
<polygon fill="white" stroke="#bfbfbf" points="1993.5,-330 1993.5,-349 2022.5,-349 2022.5,-330 1993.5,-330"/>
<text text-anchor="middle" x="2008" y="-337" font-family="Helvetica,sans-Serif" font-size="10.00">list</text>
</g>
<!-- Node33&#45;&gt;Node34 -->
<g id="edge56" class="edge"><title>Node33&#45;&gt;Node34</title>
<path fill="none" stroke="midnightblue" d="M1810.22,-397.312C1855.45,-389.247 1922.75,-375.191 1979,-355 1980.64,-354.412 1982.31,-353.754 1983.97,-353.052"/>
<polygon fill="midnightblue" stroke="midnightblue" points="1985.66,-356.123 1993.25,-348.725 1982.71,-349.779 1985.66,-356.123"/>
</g>
<!-- Node35 -->
<g id="node35" class="node"><title>Node35</title>
<g id="a_node35"><a xlink:href="a00082.html" target="_top" xlink:title="dynamic&#45;graph/signal\l&#45;array.h">
<polygon fill="white" stroke="black" points="1827.5,-324.5 1827.5,-354.5 1936.5,-354.5 1936.5,-324.5 1827.5,-324.5"/>
<text text-anchor="start" x="1835.5" y="-342.5" font-family="Helvetica,sans-Serif" font-size="10.00">dynamic&#45;graph/signal</text>
<text text-anchor="middle" x="1882" y="-331.5" font-family="Helvetica,sans-Serif" font-size="10.00">&#45;array.h</text>
</a>
</g>
</g>
<!-- Node33&#45;&gt;Node35 -->
<g id="edge60" class="edge"><title>Node33&#45;&gt;Node35</title>
<path fill="none" stroke="midnightblue" d="M1785.69,-391.396C1803.5,-381.984 1827.12,-369.503 1846.51,-359.256"/>
<polygon fill="midnightblue" stroke="midnightblue" points="1848.16,-362.343 1855.36,-354.577 1844.89,-356.154 1848.16,-362.343"/>
</g>
<!-- Node37 -->
<g id="node37" class="node"><title>Node37</title>
<g id="a_node37"><a xlink:href="a00093.html" target="_top" xlink:title="dynamic&#45;graph/time\l&#45;dependency.t.cpp">
<polygon fill="white" stroke="black" points="1669,-324.5 1669,-354.5 1771,-354.5 1771,-324.5 1669,-324.5"/>
<text text-anchor="start" x="1677" y="-342.5" font-family="Helvetica,sans-Serif" font-size="10.00">dynamic&#45;graph/time</text>
<text text-anchor="middle" x="1720" y="-331.5" font-family="Helvetica,sans-Serif" font-size="10.00">&#45;dependency.t.cpp</text>
</a>
</g>
</g>
<!-- Node33&#45;&gt;Node37 -->
<g id="edge65" class="edge"><title>Node33&#45;&gt;Node37</title>
<path fill="none" stroke="midnightblue" d="M1744.86,-391.396C1738.94,-383.304 1732.45,-372.944 1727.41,-363.685"/>
<polygon fill="midnightblue" stroke="midnightblue" points="1730.43,-361.897 1722.77,-354.577 1724.19,-365.075 1730.43,-361.897"/>
</g>
<!-- Node35&#45;&gt;Node9 -->
<g id="edge62" class="edge"><title>Node35&#45;&gt;Node9</title>
<path fill="none" stroke="midnightblue" d="M1891.7,-324.206C1897.7,-314.472 1904.84,-301.034 1908,-288 1918.26,-245.669 1929.18,-228.06 1908,-190 1878.92,-137.735 1816.38,-106.764 1768.35,-89.8577"/>
<polygon fill="midnightblue" stroke="midnightblue" points="1769.24,-86.4637 1758.65,-86.5613 1766.99,-93.0917 1769.24,-86.4637"/>
</g>
<!-- Node35&#45;&gt;Node12 -->
<g id="edge61" class="edge"><title>Node35&#45;&gt;Node12</title>
<path fill="none" stroke="midnightblue" d="M1827.39,-327.02C1822.52,-325.999 1817.67,-324.98 1813,-324 1753.24,-311.46 1685.14,-297.191 1636.61,-287.028"/>
<polygon fill="midnightblue" stroke="midnightblue" points="1637.06,-283.547 1626.56,-284.923 1635.63,-290.399 1637.06,-283.547"/>
</g>
<!-- Node35&#45;&gt;Node19 -->
<g id="edge63" class="edge"><title>Node35&#45;&gt;Node19</title>
<path fill="none" stroke="midnightblue" d="M1827.31,-329.947C1812.02,-327.769 1795.39,-325.596 1780,-324 1536.78,-298.775 1471.69,-331.126 1231,-288 1141.24,-271.916 1039.17,-236.933 988.705,-218.467"/>
<polygon fill="midnightblue" stroke="midnightblue" points="989.913,-215.182 979.32,-215.005 987.49,-221.75 989.913,-215.182"/>
</g>
<!-- Node36 -->
<g id="node36" class="node"><title>Node36</title>
<polygon fill="white" stroke="#bfbfbf" points="1853,-263 1853,-282 1899,-282 1899,-263 1853,-263"/>
<text text-anchor="middle" x="1876" y="-270" font-family="Helvetica,sans-Serif" font-size="10.00">stdio.h</text>
</g>
<!-- Node35&#45;&gt;Node36 -->
<g id="edge64" class="edge"><title>Node35&#45;&gt;Node36</title>
<path fill="none" stroke="midnightblue" d="M1880.7,-324.396C1879.83,-314.963 1878.67,-302.448 1877.73,-292.189"/>
<polygon fill="midnightblue" stroke="midnightblue" points="1881.21,-291.83 1876.8,-282.195 1874.24,-292.474 1881.21,-291.83"/>
</g>
<!-- Node37&#45;&gt;Node26 -->
<g id="edge67" class="edge"><title>Node37&#45;&gt;Node26</title>
<path fill="none" stroke="midnightblue" d="M1668.8,-330.595C1592.25,-318.777 1448.03,-296.51 1364.11,-283.552"/>
<polygon fill="midnightblue" stroke="midnightblue" points="1364.59,-280.086 1354.18,-282.019 1363.53,-287.004 1364.59,-280.086"/>
</g>
<!-- Node37&#45;&gt;Node33 -->
<g id="edge66" class="edge"><title>Node37&#45;&gt;Node33</title>
<path fill="none" stroke="midnightblue" d="M1734.12,-354.577C1740.04,-362.663 1746.53,-373.022 1751.57,-382.283"/>
<polygon fill="midnightblue" stroke="midnightblue" points="1748.56,-384.077 1756.22,-391.396 1754.79,-380.897 1748.56,-384.077"/>
</g>
</g>
</svg>
