<?xml version="1.0" encoding="UTF-8" standalone="no"?>
<!DOCTYPE svg PUBLIC "-//W3C//DTD SVG 1.1//EN"
 "http://www.w3.org/Graphics/SVG/1.1/DTD/svg11.dtd">
<!-- Generated by graphviz version 2.38.0 (20140413.2041)
 -->
<!-- Title: signal&#45;ptr.t.cpp Pages: 1 -->
<svg width="174pt" height="140pt"
 viewBox="0.00 0.00 174.00 140.00" xmlns="http://www.w3.org/2000/svg" xmlns:xlink="http://www.w3.org/1999/xlink">
<g id="graph0" class="graph" transform="scale(1 1) rotate(0) translate(4 136)">
<title>signal&#45;ptr.t.cpp</title>
<polygon fill="white" stroke="none" points="-4,4 -4,-136 170,-136 170,4 -4,4"/>
<!-- Node1 -->
<g id="node1" class="node"><title>Node1</title>
<polygon fill="#bfbfbf" stroke="black" points="39.5,-112.5 39.5,-131.5 120.5,-131.5 120.5,-112.5 39.5,-112.5"/>
<text text-anchor="middle" x="80" y="-119.5" font-family="Helvetica,sans-Serif" font-size="10.00">signal&#45;ptr.t.cpp</text>
</g>
<!-- Node2 -->
<g id="node2" class="node"><title>Node2</title>
<g id="a_node2"><a xlink:href="a00087.html" target="_top" xlink:title="signal&#45;ptr.h">
<polygon fill="white" stroke="black" points="47.5,-56.5 47.5,-75.5 112.5,-75.5 112.5,-56.5 47.5,-56.5"/>
<text text-anchor="middle" x="80" y="-63.5" font-family="Helvetica,sans-Serif" font-size="10.00">signal&#45;ptr.h</text>
</a>
</g>
</g>
<!-- Node1&#45;&gt;Node2 -->
<g id="edge1" class="edge"><title>Node1&#45;&gt;Node2</title>
<path fill="none" stroke="midnightblue" d="M73.5276,-102.101C72.8956,-93.1357 73.3427,-82.8579 74.869,-75.7511"/>
<polygon fill="midnightblue" stroke="midnightblue" points="70.0658,-102.622 74.8337,-112.083 77.0067,-101.713 70.0658,-102.622"/>
</g>
<!-- Node2&#45;&gt;Node1 -->
<g id="edge3" class="edge"><title>Node2&#45;&gt;Node1</title>
<path fill="none" stroke="midnightblue" d="M86.4575,-85.6911C87.1062,-94.6353 86.6758,-104.927 85.1663,-112.083"/>
<polygon fill="midnightblue" stroke="midnightblue" points="89.9231,-85.2002 85.131,-75.7511 82.9846,-86.1262 89.9231,-85.2002"/>
</g>
<!-- Node3 -->
<g id="node3" class="node"><title>Node3</title>
<g id="a_node3"><a xlink:href="a00055.html" target="_top" xlink:title="all&#45;signals.h">
<polygon fill="white" stroke="black" points="0,-0.5 0,-19.5 68,-19.5 68,-0.5 0,-0.5"/>
<text text-anchor="middle" x="34" y="-7.5" font-family="Helvetica,sans-Serif" font-size="10.00">all&#45;signals.h</text>
</a>
</g>
</g>
<!-- Node2&#45;&gt;Node3 -->
<g id="edge2" class="edge"><title>Node2&#45;&gt;Node3</title>
<path fill="none" stroke="midnightblue" d="M65.886,-48.4314C57.824,-38.9673 48.0408,-27.4827 41.4546,-19.7511"/>
<polygon fill="midnightblue" stroke="midnightblue" points="63.255,-50.7402 72.404,-56.083 68.5837,-46.2009 63.255,-50.7402"/>
</g>
<!-- Node4 -->
<g id="node4" class="node"><title>Node4</title>
<g id="a_node4"><a xlink:href="a00086.html" target="_top" xlink:title="signal&#45;helper.h">
<polygon fill="white" stroke="black" points="86,-0.5 86,-19.5 166,-19.5 166,-0.5 86,-0.5"/>
<text text-anchor="middle" x="126" y="-7.5" font-family="Helvetica,sans-Serif" font-size="10.00">signal&#45;helper.h</text>
</a>
</g>
</g>
<!-- Node2&#45;&gt;Node4 -->
<g id="edge4" class="edge"><title>Node2&#45;&gt;Node4</title>
<path fill="none" stroke="midnightblue" d="M94.114,-48.4314C102.176,-38.9673 111.959,-27.4827 118.545,-19.7511"/>
<polygon fill="midnightblue" stroke="midnightblue" points="91.4163,-46.2009 87.596,-56.083 96.745,-50.7402 91.4163,-46.2009"/>
</g>
</g>
</svg>
