<?xml version="1.0" encoding="UTF-8" standalone="no"?>
<!DOCTYPE svg PUBLIC "-//W3C//DTD SVG 1.1//EN"
 "http://www.w3.org/Graphics/SVG/1.1/DTD/svg11.dtd">
<!-- Generated by graphviz version 2.38.0 (20140413.2041)
 -->
<!-- Title: tracer.h Pages: 1 -->
<svg width="2678pt" height="553pt"
 viewBox="0.00 0.00 2677.50 553.00" xmlns="http://www.w3.org/2000/svg" xmlns:xlink="http://www.w3.org/1999/xlink">
<g id="graph0" class="graph" transform="scale(1 1) rotate(0) translate(4 549)">
<title>tracer.h</title>
<polygon fill="white" stroke="none" points="-4,4 -4,-549 2673.5,-549 2673.5,4 -4,4"/>
<!-- Node1 -->
<g id="node1" class="node"><title>Node1</title>
<polygon fill="#bfbfbf" stroke="black" points="1850.5,-525.5 1850.5,-544.5 1900.5,-544.5 1900.5,-525.5 1850.5,-525.5"/>
<text text-anchor="middle" x="1875.5" y="-532.5" font-family="Helvetica,sans-Serif" font-size="10.00">tracer.h</text>
</g>
<!-- Node2 -->
<g id="node2" class="node"><title>Node2</title>
<polygon fill="white" stroke="#bfbfbf" points="2272,-62 2272,-81 2313,-81 2313,-62 2272,-62"/>
<text text-anchor="middle" x="2292.5" y="-69" font-family="Helvetica,sans-Serif" font-size="10.00">string</text>
</g>
<!-- Node1&#45;&gt;Node2 -->
<g id="edge1" class="edge"><title>Node1&#45;&gt;Node2</title>
<path fill="none" stroke="midnightblue" d="M1900.81,-531.861C2021.37,-521.341 2531.5,-472.96 2531.5,-407.5 2531.5,-407.5 2531.5,-407.5 2531.5,-204.5 2531.5,-110.432 2387.88,-82.8835 2323.3,-75.2515"/>
<polygon fill="midnightblue" stroke="midnightblue" points="2323.61,-71.7647 2313.29,-74.154 2322.85,-78.723 2323.61,-71.7647"/>
</g>
<!-- Node3 -->
<g id="node3" class="node"><title>Node3</title>
<polygon fill="white" stroke="#bfbfbf" points="1530,-330 1530,-349 1559,-349 1559,-330 1530,-330"/>
<text text-anchor="middle" x="1544.5" y="-337" font-family="Helvetica,sans-Serif" font-size="10.00">list</text>
</g>
<!-- Node1&#45;&gt;Node3 -->
<g id="edge2" class="edge"><title>Node1&#45;&gt;Node3</title>
<path fill="none" stroke="midnightblue" d="M1860.85,-525.436C1808.85,-495.034 1632.78,-392.107 1568.36,-354.449"/>
<polygon fill="midnightblue" stroke="midnightblue" points="1569.76,-351.21 1559.36,-349.185 1566.22,-357.253 1569.76,-351.21"/>
</g>
<!-- Node4 -->
<g id="node4" class="node"><title>Node4</title>
<polygon fill="white" stroke="#bfbfbf" points="0,-330 0,-349 97,-349 97,-330 0,-330"/>
<text text-anchor="middle" x="48.5" y="-337" font-family="Helvetica,sans-Serif" font-size="10.00">boost/function.hpp</text>
</g>
<!-- Node1&#45;&gt;Node4 -->
<g id="edge3" class="edge"><title>Node1&#45;&gt;Node4</title>
<path fill="none" stroke="midnightblue" d="M1850.47,-532.644C1692.37,-523.829 816.104,-471.366 111.5,-355 105.178,-353.956 98.5419,-352.656 92.0469,-351.267"/>
<polygon fill="midnightblue" stroke="midnightblue" points="92.5434,-347.792 82.0216,-349.034 91.0215,-354.625 92.5434,-347.792"/>
</g>
<!-- Node5 -->
<g id="node5" class="node"><title>Node5</title>
<g id="a_node5"><a xlink:href="a00084.html" target="_top" xlink:title="dynamic&#45;graph/signal\l&#45;base.h">
<polygon fill="white" stroke="black" points="1748,-257.5 1748,-287.5 1857,-287.5 1857,-257.5 1748,-257.5"/>
<text text-anchor="start" x="1756" y="-275.5" font-family="Helvetica,sans-Serif" font-size="10.00">dynamic&#45;graph/signal</text>
<text text-anchor="middle" x="1802.5" y="-264.5" font-family="Helvetica,sans-Serif" font-size="10.00">&#45;base.h</text>
</a>
</g>
</g>
<!-- Node1&#45;&gt;Node5 -->
<g id="edge4" class="edge"><title>Node1&#45;&gt;Node5</title>
<path fill="none" stroke="midnightblue" d="M1879.48,-525.063C1885.3,-510.812 1894.89,-482.09 1889.5,-458 1875.56,-395.772 1838.19,-329.801 1817.24,-296.141"/>
<polygon fill="midnightblue" stroke="midnightblue" points="1820.1,-294.118 1811.8,-287.534 1814.19,-297.858 1820.1,-294.118"/>
</g>
<!-- Node15 -->
<g id="node15" class="node"><title>Node15</title>
<g id="a_node15"><a xlink:href="a00090.html" target="_top" xlink:title="dynamic&#45;graph/signal\l&#45;time&#45;dependent.h">
<polygon fill="white" stroke="black" points="1513,-458.5 1513,-488.5 1622,-488.5 1622,-458.5 1513,-458.5"/>
<text text-anchor="start" x="1521" y="-476.5" font-family="Helvetica,sans-Serif" font-size="10.00">dynamic&#45;graph/signal</text>
<text text-anchor="middle" x="1567.5" y="-465.5" font-family="Helvetica,sans-Serif" font-size="10.00">&#45;time&#45;dependent.h</text>
</a>
</g>
</g>
<!-- Node1&#45;&gt;Node15 -->
<g id="edge20" class="edge"><title>Node1&#45;&gt;Node15</title>
<path fill="none" stroke="midnightblue" d="M1850.3,-529.131C1803.08,-520.01 1699.97,-500.091 1632.17,-486.993"/>
<polygon fill="midnightblue" stroke="midnightblue" points="1632.5,-483.493 1622.02,-485.032 1631.17,-490.366 1632.5,-483.493"/>
</g>
<!-- Node32 -->
<g id="node32" class="node"><title>Node32</title>
<g id="a_node32"><a xlink:href="a00093.html" target="_top" xlink:title="dynamic&#45;graph/time\l&#45;dependency.h">
<polygon fill="white" stroke="black" points="1516.5,-391.5 1516.5,-421.5 1618.5,-421.5 1618.5,-391.5 1516.5,-391.5"/>
<text text-anchor="start" x="1524.5" y="-409.5" font-family="Helvetica,sans-Serif" font-size="10.00">dynamic&#45;graph/time</text>
<text text-anchor="middle" x="1567.5" y="-398.5" font-family="Helvetica,sans-Serif" font-size="10.00">&#45;dependency.h</text>
</a>
</g>
</g>
<!-- Node1&#45;&gt;Node32 -->
<g id="edge64" class="edge"><title>Node1&#45;&gt;Node32</title>
<path fill="none" stroke="midnightblue" d="M1854.33,-525.305C1804.46,-504.822 1678.74,-453.187 1611.51,-425.575"/>
<polygon fill="midnightblue" stroke="midnightblue" points="1612.61,-422.244 1602.03,-421.682 1609.95,-428.719 1612.61,-422.244"/>
</g>
<!-- Node36 -->
<g id="node36" class="node"><title>Node36</title>
<g id="a_node36"><a xlink:href="a00071.html" target="_top" xlink:title="dynamic&#45;graph/entity.h">
<polygon fill="white" stroke="black" points="2045.5,-397 2045.5,-416 2161.5,-416 2161.5,-397 2045.5,-397"/>
<text text-anchor="middle" x="2103.5" y="-404" font-family="Helvetica,sans-Serif" font-size="10.00">dynamic&#45;graph/entity.h</text>
</a>
</g>
</g>
<!-- Node1&#45;&gt;Node36 -->
<g id="edge65" class="edge"><title>Node1&#45;&gt;Node36</title>
<path fill="none" stroke="midnightblue" d="M1900.64,-527.932C1927.27,-520.885 1970.01,-507.775 2003.5,-489 2036.17,-470.683 2068.84,-441.513 2087.56,-423.49"/>
<polygon fill="midnightblue" stroke="midnightblue" points="2090.21,-425.789 2094.91,-416.292 2085.31,-420.788 2090.21,-425.789"/>
</g>
<!-- Node39 -->
<g id="node39" class="node"><title>Node39</title>
<g id="a_node39"><a xlink:href="a00075.html" target="_top" xlink:title="dynamic&#45;graph/exception\l&#45;traces.h">
<polygon fill="white" stroke="black" points="2014,-190.5 2014,-220.5 2139,-220.5 2139,-190.5 2014,-190.5"/>
<text text-anchor="start" x="2022" y="-208.5" font-family="Helvetica,sans-Serif" font-size="10.00">dynamic&#45;graph/exception</text>
<text text-anchor="middle" x="2076.5" y="-197.5" font-family="Helvetica,sans-Serif" font-size="10.00">&#45;traces.h</text>
</a>
</g>
</g>
<!-- Node1&#45;&gt;Node39 -->
<g id="edge80" class="edge"><title>Node1&#45;&gt;Node39</title>
<path fill="none" stroke="midnightblue" d="M1875.83,-525.192C1876.66,-510.632 1879.54,-480.879 1889.5,-458 1931.24,-362.163 2015.65,-268.527 2055.18,-227.763"/>
<polygon fill="midnightblue" stroke="midnightblue" points="2057.74,-230.148 2062.24,-220.554 2052.74,-225.25 2057.74,-230.148"/>
</g>
<!-- Node40 -->
<g id="node40" class="node"><title>Node40</title>
<polygon fill="white" stroke="#bfbfbf" points="2559.5,-458.5 2559.5,-488.5 2669.5,-488.5 2669.5,-458.5 2559.5,-458.5"/>
<text text-anchor="start" x="2567.5" y="-476.5" font-family="Helvetica,sans-Serif" font-size="10.00">dynamic&#45;graph/config</text>
<text text-anchor="middle" x="2614.5" y="-465.5" font-family="Helvetica,sans-Serif" font-size="10.00">&#45;tracer.hh</text>
</g>
<!-- Node1&#45;&gt;Node40 -->
<g id="edge85" class="edge"><title>Node1&#45;&gt;Node40</title>
<path fill="none" stroke="midnightblue" d="M1900.57,-533.58C1989.15,-531.83 2295.47,-523.495 2545.5,-489 2546.76,-488.826 2548.04,-488.642 2549.32,-488.449"/>
<polygon fill="midnightblue" stroke="midnightblue" points="2549.96,-491.891 2559.26,-486.82 2548.82,-484.984 2549.96,-491.891"/>
</g>
<!-- Node5&#45;&gt;Node2 -->
<g id="edge5" class="edge"><title>Node5&#45;&gt;Node2</title>
<path fill="none" stroke="midnightblue" d="M1857.19,-272.12C1930.48,-271.15 2063.38,-263.004 2167.5,-221 2214.41,-202.075 2228.37,-193.865 2259.5,-154 2274.22,-135.15 2283.28,-108.845 2288.1,-91.2716"/>
<polygon fill="midnightblue" stroke="midnightblue" points="2291.6,-91.7038 2290.67,-81.1501 2284.82,-89.982 2291.6,-91.7038"/>
</g>
<!-- Node6 -->
<g id="node6" class="node"><title>Node6</title>
<polygon fill="white" stroke="#bfbfbf" points="1800.5,-196 1800.5,-215 1852.5,-215 1852.5,-196 1800.5,-196"/>
<text text-anchor="middle" x="1826.5" y="-203" font-family="Helvetica,sans-Serif" font-size="10.00">sstream</text>
</g>
<!-- Node5&#45;&gt;Node6 -->
<g id="edge6" class="edge"><title>Node5&#45;&gt;Node6</title>
<path fill="none" stroke="midnightblue" d="M1807.71,-257.396C1811.23,-247.863 1815.91,-235.182 1819.72,-224.862"/>
<polygon fill="midnightblue" stroke="midnightblue" points="1823.11,-225.788 1823.29,-215.195 1816.54,-223.363 1823.11,-225.788"/>
</g>
<!-- Node7 -->
<g id="node7" class="node"><title>Node7</title>
<polygon fill="white" stroke="#bfbfbf" points="1048.5,-62 1048.5,-81 1102.5,-81 1102.5,-62 1048.5,-62"/>
<text text-anchor="middle" x="1075.5" y="-69" font-family="Helvetica,sans-Serif" font-size="10.00">iostream</text>
</g>
<!-- Node5&#45;&gt;Node7 -->
<g id="edge7" class="edge"><title>Node5&#45;&gt;Node7</title>
<path fill="none" stroke="midnightblue" d="M1751.09,-257.427C1612.34,-219.447 1232.61,-115.507 1112.47,-82.6184"/>
<polygon fill="midnightblue" stroke="midnightblue" points="1113.2,-79.1916 1102.63,-79.9272 1111.35,-85.9432 1113.2,-79.1916"/>
</g>
<!-- Node8 -->
<g id="node8" class="node"><title>Node8</title>
<polygon fill="white" stroke="#bfbfbf" points="1435,-196 1435,-215 1486,-215 1486,-196 1435,-196"/>
<text text-anchor="middle" x="1460.5" y="-203" font-family="Helvetica,sans-Serif" font-size="10.00">typeinfo</text>
</g>
<!-- Node5&#45;&gt;Node8 -->
<g id="edge8" class="edge"><title>Node5&#45;&gt;Node8</title>
<path fill="none" stroke="midnightblue" d="M1747.93,-261.129C1677.3,-247.705 1556.21,-224.69 1496.27,-213.298"/>
<polygon fill="midnightblue" stroke="midnightblue" points="1496.63,-209.805 1486.16,-211.376 1495.33,-216.682 1496.63,-209.805"/>
</g>
<!-- Node9 -->
<g id="node9" class="node"><title>Node9</title>
<polygon fill="white" stroke="#bfbfbf" points="2272,-196 2272,-215 2389,-215 2389,-196 2272,-196"/>
<text text-anchor="middle" x="2330.5" y="-203" font-family="Helvetica,sans-Serif" font-size="10.00">boost/noncopyable.hpp</text>
</g>
<!-- Node5&#45;&gt;Node9 -->
<g id="edge9" class="edge"><title>Node5&#45;&gt;Node9</title>
<path fill="none" stroke="midnightblue" d="M1857.16,-265.046C1936.86,-255.598 2089.62,-237.347 2219.5,-221 2233.15,-219.281 2247.75,-217.404 2261.72,-215.587"/>
<polygon fill="midnightblue" stroke="midnightblue" points="2262.29,-219.042 2271.75,-214.278 2261.39,-212.101 2262.29,-219.042"/>
</g>
<!-- Node10 -->
<g id="node10" class="node"><title>Node10</title>
<g id="a_node10"><a xlink:href="a00077.html" target="_top" xlink:title="dynamic&#45;graph/fwd.hh">
<polygon fill="white" stroke="black" points="2001,-62 2001,-81 2114,-81 2114,-62 2001,-62"/>
<text text-anchor="middle" x="2057.5" y="-69" font-family="Helvetica,sans-Serif" font-size="10.00">dynamic&#45;graph/fwd.hh</text>
</a>
</g>
</g>
<!-- Node5&#45;&gt;Node10 -->
<g id="edge10" class="edge"><title>Node5&#45;&gt;Node10</title>
<path fill="none" stroke="midnightblue" d="M1857.17,-271.795C1944.8,-270.971 2110.64,-263.65 2147.5,-221 2185.46,-177.08 2115.39,-115.211 2078.33,-87.2462"/>
<polygon fill="midnightblue" stroke="midnightblue" points="2080.26,-84.3158 2070.13,-81.2008 2076.1,-89.9509 2080.26,-84.3158"/>
</g>
<!-- Node11 -->
<g id="node11" class="node"><title>Node11</title>
<g id="a_node11"><a xlink:href="a00074.html" target="_top" xlink:title="dynamic&#45;graph/exception\l&#45;signal.h">
<polygon fill="white" stroke="black" points="1657,-190.5 1657,-220.5 1782,-220.5 1782,-190.5 1657,-190.5"/>
<text text-anchor="start" x="1665" y="-208.5" font-family="Helvetica,sans-Serif" font-size="10.00">dynamic&#45;graph/exception</text>
<text text-anchor="middle" x="1719.5" y="-197.5" font-family="Helvetica,sans-Serif" font-size="10.00">&#45;signal.h</text>
</a>
</g>
</g>
<!-- Node5&#45;&gt;Node11 -->
<g id="edge11" class="edge"><title>Node5&#45;&gt;Node11</title>
<path fill="none" stroke="midnightblue" d="M1784.49,-257.396C1773.07,-248.452 1758.11,-236.737 1745.42,-226.802"/>
<polygon fill="midnightblue" stroke="midnightblue" points="1747.51,-223.987 1737.47,-220.577 1743.19,-229.498 1747.51,-223.987"/>
</g>
<!-- Node11&#45;&gt;Node10 -->
<g id="edge12" class="edge"><title>Node11&#45;&gt;Node10</title>
<path fill="none" stroke="midnightblue" d="M1735.49,-190.462C1757.13,-172.203 1797.63,-140.569 1837.5,-123 1886.68,-101.332 1946.29,-88.3869 1991.06,-81.0374"/>
<polygon fill="midnightblue" stroke="midnightblue" points="1991.62,-84.4917 2000.95,-79.4646 1990.52,-77.5786 1991.62,-84.4917"/>
</g>
<!-- Node12 -->
<g id="node12" class="node"><title>Node12</title>
<g id="a_node12"><a xlink:href="a00068.html" target="_top" xlink:title="dynamic&#45;graph/dynamic\l&#45;graph&#45;api.h">
<polygon fill="white" stroke="black" points="1587.5,-56.5 1587.5,-86.5 1707.5,-86.5 1707.5,-56.5 1587.5,-56.5"/>
<text text-anchor="start" x="1595.5" y="-74.5" font-family="Helvetica,sans-Serif" font-size="10.00">dynamic&#45;graph/dynamic</text>
<text text-anchor="middle" x="1647.5" y="-63.5" font-family="Helvetica,sans-Serif" font-size="10.00">&#45;graph&#45;api.h</text>
</a>
</g>
</g>
<!-- Node11&#45;&gt;Node12 -->
<g id="edge13" class="edge"><title>Node11&#45;&gt;Node12</title>
<path fill="none" stroke="midnightblue" d="M1711.79,-190.374C1699.4,-167.647 1674.91,-122.752 1659.99,-95.4019"/>
<polygon fill="midnightblue" stroke="midnightblue" points="1663.01,-93.6277 1655.15,-86.5247 1656.87,-96.9797 1663.01,-93.6277"/>
</g>
<!-- Node14 -->
<g id="node14" class="node"><title>Node14</title>
<g id="a_node14"><a xlink:href="a00072.html" target="_top" xlink:title="dynamic&#45;graph/exception\l&#45;abstract.h">
<polygon fill="white" stroke="black" points="1847,-123.5 1847,-153.5 1972,-153.5 1972,-123.5 1847,-123.5"/>
<text text-anchor="start" x="1855" y="-141.5" font-family="Helvetica,sans-Serif" font-size="10.00">dynamic&#45;graph/exception</text>
<text text-anchor="middle" x="1909.5" y="-130.5" font-family="Helvetica,sans-Serif" font-size="10.00">&#45;abstract.h</text>
</a>
</g>
</g>
<!-- Node11&#45;&gt;Node14 -->
<g id="edge15" class="edge"><title>Node11&#45;&gt;Node14</title>
<path fill="none" stroke="midnightblue" d="M1760.73,-190.396C1789.48,-180.558 1828.04,-167.367 1858.7,-156.879"/>
<polygon fill="midnightblue" stroke="midnightblue" points="1860.02,-160.125 1868.35,-153.577 1857.76,-153.502 1860.02,-160.125"/>
</g>
<!-- Node13 -->
<g id="node13" class="node"><title>Node13</title>
<polygon fill="white" stroke="#bfbfbf" points="1586,-0.5 1586,-19.5 1709,-19.5 1709,-0.5 1586,-0.5"/>
<text text-anchor="middle" x="1647.5" y="-7.5" font-family="Helvetica,sans-Serif" font-size="10.00">dynamic&#45;graph/config.hh</text>
</g>
<!-- Node12&#45;&gt;Node13 -->
<g id="edge14" class="edge"><title>Node12&#45;&gt;Node13</title>
<path fill="none" stroke="midnightblue" d="M1647.5,-56.3993C1647.5,-48.4664 1647.5,-38.458 1647.5,-29.8583"/>
<polygon fill="midnightblue" stroke="midnightblue" points="1651,-29.6577 1647.5,-19.6578 1644,-29.6578 1651,-29.6577"/>
</g>
<!-- Node14&#45;&gt;Node2 -->
<g id="edge17" class="edge"><title>Node14&#45;&gt;Node2</title>
<path fill="none" stroke="midnightblue" d="M1972.32,-126.839C2055.57,-112.71 2199.22,-88.3308 2261.84,-77.7042"/>
<polygon fill="midnightblue" stroke="midnightblue" points="2262.59,-81.1266 2271.86,-76.0027 2261.42,-74.2253 2262.59,-81.1266"/>
</g>
<!-- Node14&#45;&gt;Node7 -->
<g id="edge16" class="edge"><title>Node14&#45;&gt;Node7</title>
<path fill="none" stroke="midnightblue" d="M1846.81,-132.614C1682.66,-119.821 1243.9,-85.6244 1112.92,-75.4163"/>
<polygon fill="midnightblue" stroke="midnightblue" points="1112.86,-71.9009 1102.61,-74.6132 1112.31,-78.8797 1112.86,-71.9009"/>
</g>
<!-- Node14&#45;&gt;Node10 -->
<g id="edge18" class="edge"><title>Node14&#45;&gt;Node10</title>
<path fill="none" stroke="midnightblue" d="M1941.61,-123.396C1967.58,-111.991 2003.81,-96.0794 2028.82,-85.0976"/>
<polygon fill="midnightblue" stroke="midnightblue" points="2030.38,-88.2328 2038.13,-81.007 2027.57,-81.8237 2030.38,-88.2328"/>
</g>
<!-- Node14&#45;&gt;Node12 -->
<g id="edge19" class="edge"><title>Node14&#45;&gt;Node12</title>
<path fill="none" stroke="midnightblue" d="M1852.97,-123.476C1812.22,-113.366 1757.07,-99.6838 1714.17,-89.0398"/>
<polygon fill="midnightblue" stroke="midnightblue" points="1714.93,-85.6219 1704.38,-86.6109 1713.24,-92.4159 1714.93,-85.6219"/>
</g>
<!-- Node16 -->
<g id="node16" class="node"><title>Node16</title>
<g id="a_node16"><a xlink:href="a00091.html" target="_top" xlink:title="dynamic&#45;graph/signal.h">
<polygon fill="white" stroke="black" points="1191,-397 1191,-416 1308,-416 1308,-397 1191,-397"/>
<text text-anchor="middle" x="1249.5" y="-404" font-family="Helvetica,sans-Serif" font-size="10.00">dynamic&#45;graph/signal.h</text>
</a>
</g>
</g>
<!-- Node15&#45;&gt;Node16 -->
<g id="edge21" class="edge"><title>Node15&#45;&gt;Node16</title>
<path fill="none" stroke="midnightblue" d="M1512.83,-461.326C1453.53,-449.204 1359.56,-429.997 1301.37,-418.103"/>
<polygon fill="midnightblue" stroke="midnightblue" points="1301.79,-414.617 1291.3,-416.043 1300.39,-421.475 1301.79,-414.617"/>
</g>
<!-- Node15&#45;&gt;Node32 -->
<g id="edge51" class="edge"><title>Node15&#45;&gt;Node32</title>
<path fill="none" stroke="midnightblue" d="M1567.5,-458.396C1567.5,-450.645 1567.5,-440.812 1567.5,-431.86"/>
<polygon fill="midnightblue" stroke="midnightblue" points="1571,-431.576 1567.5,-421.577 1564,-431.577 1571,-431.576"/>
</g>
<!-- Node16&#45;&gt;Node2 -->
<g id="edge24" class="edge"><title>Node16&#45;&gt;Node2</title>
<path fill="none" stroke="midnightblue" d="M1308.07,-403.47C1404.34,-399.309 1601.68,-387.306 1765.5,-355 1968.56,-314.953 2032.68,-325.22 2211.5,-221 2248.71,-199.315 2261.97,-192.381 2281.5,-154 2291.5,-134.356 2293.44,-108.767 2293.4,-91.5463"/>
<polygon fill="midnightblue" stroke="midnightblue" points="2296.89,-91.0448 2293.14,-81.1371 2289.89,-91.223 2296.89,-91.0448"/>
</g>
<!-- Node16&#45;&gt;Node4 -->
<g id="edge23" class="edge"><title>Node16&#45;&gt;Node4</title>
<path fill="none" stroke="midnightblue" d="M1190.68,-404.304C988.563,-399.972 323.256,-383.823 111.5,-355 104.626,-354.064 97.3984,-352.735 90.389,-351.257"/>
<polygon fill="midnightblue" stroke="midnightblue" points="90.8644,-347.777 80.342,-349.013 89.3387,-354.609 90.8644,-347.777"/>
</g>
<!-- Node16&#45;&gt;Node5 -->
<g id="edge27" class="edge"><title>Node16&#45;&gt;Node5</title>
<path fill="none" stroke="midnightblue" d="M1308.45,-401.817C1429.25,-393.915 1696.67,-374.464 1733.5,-355 1758.43,-341.825 1778.1,-315.533 1789.95,-296.364"/>
<polygon fill="midnightblue" stroke="midnightblue" points="1793.05,-298.002 1795.13,-287.614 1787.03,-294.435 1793.05,-298.002"/>
</g>
<!-- Node16&#45;&gt;Node7 -->
<g id="edge25" class="edge"><title>Node16&#45;&gt;Node7</title>
<path fill="none" stroke="midnightblue" d="M1190.65,-404.837C959.38,-401.468 125.5,-381.81 125.5,-273.5 125.5,-273.5 125.5,-273.5 125.5,-204.5 125.5,-125.091 207.94,-144.082 284.5,-123 429.17,-83.1625 901.437,-74.5504 1038.12,-72.8734"/>
<polygon fill="midnightblue" stroke="midnightblue" points="1038.52,-76.3691 1048.48,-72.752 1038.44,-69.3696 1038.52,-76.3691"/>
</g>
<!-- Node16&#45;&gt;Node11 -->
<g id="edge26" class="edge"><title>Node16&#45;&gt;Node11</title>
<path fill="none" stroke="midnightblue" d="M1263.84,-396.947C1290.41,-381.291 1349.35,-347.48 1401.5,-324 1414.34,-318.22 1585.69,-255.418 1671.39,-224.078"/>
<polygon fill="midnightblue" stroke="midnightblue" points="1672.71,-227.321 1680.9,-220.6 1670.31,-220.747 1672.71,-227.321"/>
</g>
<!-- Node17 -->
<g id="node17" class="node"><title>Node17</title>
<polygon fill="white" stroke="#bfbfbf" points="1084.5,-330 1084.5,-349 1164.5,-349 1164.5,-330 1084.5,-330"/>
<text text-anchor="middle" x="1124.5" y="-337" font-family="Helvetica,sans-Serif" font-size="10.00">boost/bind.hpp</text>
</g>
<!-- Node16&#45;&gt;Node17 -->
<g id="edge22" class="edge"><title>Node16&#45;&gt;Node17</title>
<path fill="none" stroke="midnightblue" d="M1232.9,-396.869C1211.79,-385.893 1175.12,-366.824 1150.34,-353.938"/>
<polygon fill="midnightblue" stroke="midnightblue" points="1151.65,-350.676 1141.17,-349.167 1148.43,-356.886 1151.65,-350.676"/>
</g>
<!-- Node18 -->
<g id="node18" class="node"><title>Node18</title>
<g id="a_node18"><a xlink:href="a00092.html" target="_top" xlink:title="dynamic&#45;graph/signal.t.cpp">
<polygon fill="white" stroke="black" points="1182.5,-330 1182.5,-349 1316.5,-349 1316.5,-330 1182.5,-330"/>
<text text-anchor="middle" x="1249.5" y="-337" font-family="Helvetica,sans-Serif" font-size="10.00">dynamic&#45;graph/signal.t.cpp</text>
</a>
</g>
</g>
<!-- Node16&#45;&gt;Node18 -->
<g id="edge28" class="edge"><title>Node16&#45;&gt;Node18</title>
<path fill="none" stroke="midnightblue" d="M1244.71,-396.734C1242.7,-387.183 1242.24,-371.618 1243.32,-359.283"/>
<polygon fill="midnightblue" stroke="midnightblue" points="1246.82,-359.517 1244.74,-349.127 1239.88,-358.544 1246.82,-359.517"/>
</g>
<!-- Node18&#45;&gt;Node16 -->
<g id="edge29" class="edge"><title>Node18&#45;&gt;Node16</title>
<path fill="none" stroke="midnightblue" d="M1254.26,-349.127C1256.28,-358.62 1256.76,-374.17 1255.7,-386.537"/>
<polygon fill="midnightblue" stroke="midnightblue" points="1252.19,-386.348 1254.29,-396.734 1259.13,-387.308 1252.19,-386.348"/>
</g>
<!-- Node19 -->
<g id="node19" class="node"><title>Node19</title>
<g id="a_node19"><a xlink:href="a00086.html" target="_top" xlink:title="dynamic&#45;graph/signal\l&#45;caster.h">
<polygon fill="white" stroke="black" points="843,-257.5 843,-287.5 952,-287.5 952,-257.5 843,-257.5"/>
<text text-anchor="start" x="851" y="-275.5" font-family="Helvetica,sans-Serif" font-size="10.00">dynamic&#45;graph/signal</text>
<text text-anchor="middle" x="897.5" y="-264.5" font-family="Helvetica,sans-Serif" font-size="10.00">&#45;caster.h</text>
</a>
</g>
</g>
<!-- Node18&#45;&gt;Node19 -->
<g id="edge30" class="edge"><title>Node18&#45;&gt;Node19</title>
<path fill="none" stroke="midnightblue" d="M1204.9,-329.933C1194.59,-327.969 1183.67,-325.9 1173.5,-324 1101.26,-310.501 1018.32,-295.374 962.37,-285.226"/>
<polygon fill="midnightblue" stroke="midnightblue" points="962.71,-281.731 952.246,-283.391 961.461,-288.619 962.71,-281.731"/>
</g>
<!-- Node28 -->
<g id="node28" class="node"><title>Node28</title>
<g id="a_node28"><a xlink:href="a00066.html" target="_top" xlink:title="dynamic&#45;graph/debug.h">
<polygon fill="white" stroke="black" points="1369.5,-263 1369.5,-282 1487.5,-282 1487.5,-263 1369.5,-263"/>
<text text-anchor="middle" x="1428.5" y="-270" font-family="Helvetica,sans-Serif" font-size="10.00">dynamic&#45;graph/debug.h</text>
</a>
</g>
</g>
<!-- Node18&#45;&gt;Node28 -->
<g id="edge43" class="edge"><title>Node18&#45;&gt;Node28</title>
<path fill="none" stroke="midnightblue" d="M1273.27,-329.869C1304.65,-318.473 1360.06,-298.353 1395.49,-285.487"/>
<polygon fill="midnightblue" stroke="midnightblue" points="1396.71,-288.767 1404.92,-282.064 1394.32,-282.187 1396.71,-288.767"/>
</g>
<!-- Node19&#45;&gt;Node7 -->
<g id="edge33" class="edge"><title>Node19&#45;&gt;Node7</title>
<path fill="none" stroke="midnightblue" d="M842.854,-271.82C683.418,-272.186 227.225,-268.995 182.5,-221 173.107,-210.92 173.415,-200.358 182.5,-190 240.014,-124.423 875.634,-83.8984 1037.94,-74.5713"/>
<polygon fill="midnightblue" stroke="midnightblue" points="1038.59,-78.0406 1048.37,-73.9779 1038.19,-71.0519 1038.59,-78.0406"/>
</g>
<!-- Node19&#45;&gt;Node8 -->
<g id="edge32" class="edge"><title>Node19&#45;&gt;Node8</title>
<path fill="none" stroke="midnightblue" d="M952.091,-267.548C1042.81,-260.606 1230.2,-244.675 1387.5,-221 1399.75,-219.156 1413.07,-216.658 1424.94,-214.256"/>
<polygon fill="midnightblue" stroke="midnightblue" points="1425.84,-217.642 1434.93,-212.188 1424.42,-210.788 1425.84,-217.642"/>
</g>
<!-- Node19&#45;&gt;Node11 -->
<g id="edge42" class="edge"><title>Node19&#45;&gt;Node11</title>
<path fill="none" stroke="midnightblue" d="M952.07,-267.185C1095.66,-255.83 1484.11,-225.114 1646.55,-212.269"/>
<polygon fill="midnightblue" stroke="midnightblue" points="1647.22,-215.727 1656.91,-211.449 1646.67,-208.748 1647.22,-215.727"/>
</g>
<!-- Node19&#45;&gt;Node12 -->
<g id="edge41" class="edge"><title>Node19&#45;&gt;Node12</title>
<path fill="none" stroke="midnightblue" d="M916.681,-257.367C942.554,-239.002 990.686,-207.252 1036.5,-190 1224.17,-119.329 1460.97,-89.3644 1576.95,-78.2326"/>
<polygon fill="midnightblue" stroke="midnightblue" points="1577.49,-81.6974 1587.11,-77.2755 1576.83,-74.7283 1577.49,-81.6974"/>
</g>
<!-- Node20 -->
<g id="node20" class="node"><title>Node20</title>
<polygon fill="white" stroke="#bfbfbf" points="1046,-196 1046,-215 1081,-215 1081,-196 1046,-196"/>
<text text-anchor="middle" x="1063.5" y="-203" font-family="Helvetica,sans-Serif" font-size="10.00">map</text>
</g>
<!-- Node19&#45;&gt;Node20 -->
<g id="edge31" class="edge"><title>Node19&#45;&gt;Node20</title>
<path fill="none" stroke="midnightblue" d="M936.756,-257.469C963.608,-247.686 999.921,-234.089 1031.5,-221 1033.13,-220.326 1034.79,-219.619 1036.47,-218.896"/>
<polygon fill="midnightblue" stroke="midnightblue" points="1038.26,-221.933 1045.98,-214.684 1035.42,-215.532 1038.26,-221.933"/>
</g>
<!-- Node21 -->
<g id="node21" class="node"><title>Node21</title>
<polygon fill="white" stroke="#bfbfbf" points="1099.5,-196 1099.5,-215 1143.5,-215 1143.5,-196 1099.5,-196"/>
<text text-anchor="middle" x="1121.5" y="-203" font-family="Helvetica,sans-Serif" font-size="10.00">vector</text>
</g>
<!-- Node19&#45;&gt;Node21 -->
<g id="edge34" class="edge"><title>Node19&#45;&gt;Node21</title>
<path fill="none" stroke="midnightblue" d="M952.031,-259.74C990.871,-250.741 1044.03,-237.152 1089.5,-221 1091.16,-220.41 1092.85,-219.769 1094.55,-219.096"/>
<polygon fill="midnightblue" stroke="midnightblue" points="1096.29,-222.16 1104.11,-215.019 1093.54,-215.721 1096.29,-222.16"/>
</g>
<!-- Node22 -->
<g id="node22" class="node"><title>Node22</title>
<polygon fill="white" stroke="#bfbfbf" points="191.5,-196 191.5,-215 269.5,-215 269.5,-196 191.5,-196"/>
<text text-anchor="middle" x="230.5" y="-203" font-family="Helvetica,sans-Serif" font-size="10.00">boost/any.hpp</text>
</g>
<!-- Node19&#45;&gt;Node22 -->
<g id="edge35" class="edge"><title>Node19&#45;&gt;Node22</title>
<path fill="none" stroke="midnightblue" d="M842.747,-270.913C734.168,-268.899 484.278,-260.018 278.5,-221 274.05,-220.156 269.426,-219.056 264.882,-217.84"/>
<polygon fill="midnightblue" stroke="midnightblue" points="265.742,-214.445 255.164,-215.043 263.806,-221.172 265.742,-214.445"/>
</g>
<!-- Node23 -->
<g id="node23" class="node"><title>Node23</title>
<polygon fill="white" stroke="#bfbfbf" points="287.5,-196 287.5,-215 377.5,-215 377.5,-196 287.5,-196"/>
<text text-anchor="middle" x="332.5" y="-203" font-family="Helvetica,sans-Serif" font-size="10.00">boost/format.hpp</text>
</g>
<!-- Node19&#45;&gt;Node23 -->
<g id="edge36" class="edge"><title>Node19&#45;&gt;Node23</title>
<path fill="none" stroke="midnightblue" d="M842.64,-269.03C748.622,-264.142 550.938,-250.994 386.5,-221 381.379,-220.066 376.034,-218.887 370.784,-217.607"/>
<polygon fill="midnightblue" stroke="midnightblue" points="371.444,-214.163 360.887,-215.057 369.698,-220.941 371.444,-214.163"/>
</g>
<!-- Node24 -->
<g id="node24" class="node"><title>Node24</title>
<polygon fill="white" stroke="#bfbfbf" points="395.5,-196 395.5,-215 535.5,-215 535.5,-196 395.5,-196"/>
<text text-anchor="middle" x="465.5" y="-203" font-family="Helvetica,sans-Serif" font-size="10.00">boost/function/function1.hpp</text>
</g>
<!-- Node19&#45;&gt;Node24 -->
<g id="edge37" class="edge"><title>Node19&#45;&gt;Node24</title>
<path fill="none" stroke="midnightblue" d="M842.973,-264.378C773.533,-255.153 649.897,-238.205 544.5,-221 536.575,-219.706 528.218,-218.261 520.024,-216.798"/>
<polygon fill="midnightblue" stroke="midnightblue" points="520.614,-213.348 510.151,-215.013 519.368,-220.236 520.614,-213.348"/>
</g>
<!-- Node25 -->
<g id="node25" class="node"><title>Node25</title>
<polygon fill="white" stroke="#bfbfbf" points="553.5,-196 553.5,-215 693.5,-215 693.5,-196 553.5,-196"/>
<text text-anchor="middle" x="623.5" y="-203" font-family="Helvetica,sans-Serif" font-size="10.00">boost/function/function2.hpp</text>
</g>
<!-- Node19&#45;&gt;Node25 -->
<g id="edge38" class="edge"><title>Node19&#45;&gt;Node25</title>
<path fill="none" stroke="midnightblue" d="M842.711,-258.503C791.826,-246.431 716.93,-228.664 669.191,-217.339"/>
<polygon fill="midnightblue" stroke="midnightblue" points="669.972,-213.927 659.434,-215.024 668.356,-220.738 669.972,-213.927"/>
</g>
<!-- Node26 -->
<g id="node26" class="node"><title>Node26</title>
<polygon fill="white" stroke="#bfbfbf" points="711.5,-196 711.5,-215 825.5,-215 825.5,-196 711.5,-196"/>
<text text-anchor="middle" x="768.5" y="-203" font-family="Helvetica,sans-Serif" font-size="10.00">boost/lexical_cast.hpp</text>
</g>
<!-- Node19&#45;&gt;Node26 -->
<g id="edge39" class="edge"><title>Node19&#45;&gt;Node26</title>
<path fill="none" stroke="midnightblue" d="M869.509,-257.396C847.175,-246.142 816.133,-230.501 794.374,-219.538"/>
<polygon fill="midnightblue" stroke="midnightblue" points="795.888,-216.381 785.383,-215.007 792.739,-222.633 795.888,-216.381"/>
</g>
<!-- Node27 -->
<g id="node27" class="node"><title>Node27</title>
<polygon fill="white" stroke="#bfbfbf" points="844,-196 844,-215 951,-215 951,-196 844,-196"/>
<text text-anchor="middle" x="897.5" y="-203" font-family="Helvetica,sans-Serif" font-size="10.00">boost/tuple/tuple.hpp</text>
</g>
<!-- Node19&#45;&gt;Node27 -->
<g id="edge40" class="edge"><title>Node19&#45;&gt;Node27</title>
<path fill="none" stroke="midnightblue" d="M897.5,-257.396C897.5,-248.064 897.5,-235.714 897.5,-225.517"/>
<polygon fill="midnightblue" stroke="midnightblue" points="901,-225.195 897.5,-215.195 894,-225.195 901,-225.195"/>
</g>
<!-- Node28&#45;&gt;Node6 -->
<g id="edge48" class="edge"><title>Node28&#45;&gt;Node6</title>
<path fill="none" stroke="midnightblue" d="M1487.69,-267.698C1560.1,-262.032 1685.97,-248.893 1790.5,-221 1793.01,-220.331 1795.57,-219.536 1798.13,-218.667"/>
<polygon fill="midnightblue" stroke="midnightblue" points="1799.6,-221.85 1807.74,-215.063 1797.15,-215.296 1799.6,-221.85"/>
</g>
<!-- Node28&#45;&gt;Node7 -->
<g id="edge46" class="edge"><title>Node28&#45;&gt;Node7</title>
<path fill="none" stroke="midnightblue" d="M1384.56,-262.989C1318.08,-249.993 1198.73,-226.164 1190.5,-221 1137.91,-187.997 1099.94,-121.945 1083.93,-90.2571"/>
<polygon fill="midnightblue" stroke="midnightblue" points="1087.06,-88.6953 1079.51,-81.262 1080.78,-91.7809 1087.06,-88.6953"/>
</g>
<!-- Node28&#45;&gt;Node10 -->
<g id="edge49" class="edge"><title>Node28&#45;&gt;Node10</title>
<path fill="none" stroke="midnightblue" d="M1445.33,-262.889C1495.36,-237.636 1648.04,-163.037 1782.5,-123 1852.14,-102.265 1934.36,-88.5125 1990.64,-80.6664"/>
<polygon fill="midnightblue" stroke="midnightblue" points="1991.4,-84.0943 2000.83,-79.2697 1990.45,-77.159 1991.4,-84.0943"/>
</g>
<!-- Node28&#45;&gt;Node12 -->
<g id="edge50" class="edge"><title>Node28&#45;&gt;Node12</title>
<path fill="none" stroke="midnightblue" d="M1425.32,-262.886C1420.09,-247.132 1411.55,-213.168 1425.5,-190 1458.26,-135.602 1525.57,-105.072 1577.54,-88.857"/>
<polygon fill="midnightblue" stroke="midnightblue" points="1578.81,-92.1289 1587.38,-85.8977 1576.8,-85.4253 1578.81,-92.1289"/>
</g>
<!-- Node29 -->
<g id="node29" class="node"><title>Node29</title>
<polygon fill="white" stroke="#bfbfbf" points="1200,-196 1200,-215 1243,-215 1243,-196 1200,-196"/>
<text text-anchor="middle" x="1221.5" y="-203" font-family="Helvetica,sans-Serif" font-size="10.00">cstdio</text>
</g>
<!-- Node28&#45;&gt;Node29 -->
<g id="edge44" class="edge"><title>Node28&#45;&gt;Node29</title>
<path fill="none" stroke="midnightblue" d="M1391.63,-262.952C1355.4,-254.096 1298.83,-239.036 1251.5,-221 1250.11,-220.472 1248.71,-219.905 1247.29,-219.311"/>
<polygon fill="midnightblue" stroke="midnightblue" points="1248.65,-216.082 1238.09,-215.149 1245.76,-222.46 1248.65,-216.082"/>
</g>
<!-- Node30 -->
<g id="node30" class="node"><title>Node30</title>
<polygon fill="white" stroke="#bfbfbf" points="1261,-196 1261,-215 1310,-215 1310,-196 1261,-196"/>
<text text-anchor="middle" x="1285.5" y="-203" font-family="Helvetica,sans-Serif" font-size="10.00">cstdarg</text>
</g>
<!-- Node28&#45;&gt;Node30 -->
<g id="edge45" class="edge"><title>Node28&#45;&gt;Node30</title>
<path fill="none" stroke="midnightblue" d="M1409.51,-262.869C1385.04,-251.748 1342.3,-232.317 1313.94,-219.429"/>
<polygon fill="midnightblue" stroke="midnightblue" points="1315.12,-216.119 1304.57,-215.167 1312.22,-222.492 1315.12,-216.119"/>
</g>
<!-- Node31 -->
<g id="node31" class="node"><title>Node31</title>
<polygon fill="white" stroke="#bfbfbf" points="1328.5,-196 1328.5,-215 1378.5,-215 1378.5,-196 1328.5,-196"/>
<text text-anchor="middle" x="1353.5" y="-203" font-family="Helvetica,sans-Serif" font-size="10.00">fstream</text>
</g>
<!-- Node28&#45;&gt;Node31 -->
<g id="edge47" class="edge"><title>Node28&#45;&gt;Node31</title>
<path fill="none" stroke="midnightblue" d="M1418.39,-262.734C1406.35,-252.305 1386.05,-234.709 1371.35,-221.973"/>
<polygon fill="midnightblue" stroke="midnightblue" points="1373.3,-219.032 1363.45,-215.127 1368.72,-224.322 1373.3,-219.032"/>
</g>
<!-- Node32&#45;&gt;Node3 -->
<g id="edge52" class="edge"><title>Node32&#45;&gt;Node3</title>
<path fill="none" stroke="midnightblue" d="M1562.51,-391.396C1559.14,-381.863 1554.65,-369.182 1551,-358.862"/>
<polygon fill="midnightblue" stroke="midnightblue" points="1554.21,-357.454 1547.58,-349.195 1547.61,-359.789 1554.21,-357.454"/>
</g>
<!-- Node32&#45;&gt;Node5 -->
<g id="edge55" class="edge"><title>Node32&#45;&gt;Node5</title>
<path fill="none" stroke="midnightblue" d="M1618.54,-398.613C1671.9,-390.456 1750.96,-375.364 1773.5,-355 1789.8,-340.272 1796.94,-315.763 1800.07,-297.461"/>
<polygon fill="midnightblue" stroke="midnightblue" points="1803.54,-297.917 1801.48,-287.523 1796.61,-296.929 1803.54,-297.917"/>
</g>
<!-- Node32&#45;&gt;Node7 -->
<g id="edge53" class="edge"><title>Node32&#45;&gt;Node7</title>
<path fill="none" stroke="midnightblue" d="M1516.99,-391.442C1483.89,-381.911 1439.82,-368.612 1401.5,-355 1367.12,-342.79 1360.14,-335.428 1325.5,-324 1196.01,-281.283 1110.41,-335.59 1036.5,-221 1009.38,-178.958 1042.99,-118.741 1062.86,-89.5981"/>
<polygon fill="midnightblue" stroke="midnightblue" points="1065.82,-91.4763 1068.73,-81.2903 1060.1,-87.4354 1065.82,-91.4763"/>
</g>
<!-- Node32&#45;&gt;Node10 -->
<g id="edge54" class="edge"><title>Node32&#45;&gt;Node10</title>
<path fill="none" stroke="midnightblue" d="M1618.55,-401.879C1694.75,-395.833 1842.45,-381.634 1965.5,-355 2014.72,-344.346 2368.61,-261.535 2398.5,-221 2406.68,-209.911 2406.54,-201.188 2398.5,-190 2369.22,-149.255 2338.97,-170.252 2291.5,-154 2220.18,-129.582 2136.85,-100.402 2091.37,-84.4235"/>
<polygon fill="midnightblue" stroke="midnightblue" points="2092.32,-81.0469 2081.72,-81.0322 2090,-87.6507 2092.32,-81.0469"/>
</g>
<!-- Node33 -->
<g id="node33" class="node"><title>Node33</title>
<g id="a_node33"><a xlink:href="a00083.html" target="_top" xlink:title="dynamic&#45;graph/signal\l&#45;array.h">
<polygon fill="white" stroke="black" points="1616,-324.5 1616,-354.5 1725,-354.5 1725,-324.5 1616,-324.5"/>
<text text-anchor="start" x="1624" y="-342.5" font-family="Helvetica,sans-Serif" font-size="10.00">dynamic&#45;graph/signal</text>
<text text-anchor="middle" x="1670.5" y="-331.5" font-family="Helvetica,sans-Serif" font-size="10.00">&#45;array.h</text>
</a>
</g>
</g>
<!-- Node32&#45;&gt;Node33 -->
<g id="edge56" class="edge"><title>Node32&#45;&gt;Node33</title>
<path fill="none" stroke="midnightblue" d="M1589.85,-391.396C1604.43,-382.197 1623.65,-370.066 1639.67,-359.955"/>
<polygon fill="midnightblue" stroke="midnightblue" points="1641.61,-362.873 1648.19,-354.577 1637.87,-356.953 1641.61,-362.873"/>
</g>
<!-- Node35 -->
<g id="node35" class="node"><title>Node35</title>
<g id="a_node35"><a xlink:href="a00094.html" target="_top" xlink:title="dynamic&#45;graph/time\l&#45;dependency.t.cpp">
<polygon fill="white" stroke="black" points="1410.5,-324.5 1410.5,-354.5 1512.5,-354.5 1512.5,-324.5 1410.5,-324.5"/>
<text text-anchor="start" x="1418.5" y="-342.5" font-family="Helvetica,sans-Serif" font-size="10.00">dynamic&#45;graph/time</text>
<text text-anchor="middle" x="1461.5" y="-331.5" font-family="Helvetica,sans-Serif" font-size="10.00">&#45;dependency.t.cpp</text>
</a>
</g>
</g>
<!-- Node32&#45;&gt;Node35 -->
<g id="edge61" class="edge"><title>Node32&#45;&gt;Node35</title>
<path fill="none" stroke="midnightblue" d="M1538.82,-391.396C1522.76,-382.282 1503.01,-370.29 1487.42,-360.236"/>
<polygon fill="midnightblue" stroke="midnightblue" points="1489.06,-357.128 1478.78,-354.577 1485.23,-362.984 1489.06,-357.128"/>
</g>
<!-- Node33&#45;&gt;Node5 -->
<g id="edge57" class="edge"><title>Node33&#45;&gt;Node5</title>
<path fill="none" stroke="midnightblue" d="M1699.14,-324.396C1718.34,-314.941 1743.83,-302.39 1764.69,-292.117"/>
<polygon fill="midnightblue" stroke="midnightblue" points="1766.49,-295.134 1773.91,-287.577 1763.4,-288.854 1766.49,-295.134"/>
</g>
<!-- Node33&#45;&gt;Node12 -->
<g id="edge58" class="edge"><title>Node33&#45;&gt;Node12</title>
<path fill="none" stroke="midnightblue" d="M1659.25,-324.126C1652.02,-314.358 1642.82,-300.912 1636.5,-288 1622.73,-259.845 1619.45,-251.948 1614.5,-221 1607.62,-177.991 1602.07,-164.744 1614.5,-123 1617.47,-113.017 1623.12,-103.169 1628.91,-94.8578"/>
<polygon fill="midnightblue" stroke="midnightblue" points="1631.73,-96.925 1634.89,-86.8115 1626.11,-92.7487 1631.73,-96.925"/>
</g>
<!-- Node33&#45;&gt;Node21 -->
<g id="edge59" class="edge"><title>Node33&#45;&gt;Node21</title>
<path fill="none" stroke="midnightblue" d="M1615.94,-326.726C1611.07,-325.767 1606.2,-324.844 1601.5,-324 1494.91,-304.856 1460.81,-328.819 1360.5,-288 1338.68,-279.12 1338.98,-266.671 1317.5,-257 1251.03,-227.081 1227.09,-242.687 1157.5,-221 1155.22,-220.29 1152.88,-219.498 1150.54,-218.661"/>
<polygon fill="midnightblue" stroke="midnightblue" points="1151.69,-215.352 1141.1,-215.06 1149.2,-221.893 1151.69,-215.352"/>
</g>
<!-- Node34 -->
<g id="node34" class="node"><title>Node34</title>
<polygon fill="white" stroke="#bfbfbf" points="1645.5,-263 1645.5,-282 1691.5,-282 1691.5,-263 1645.5,-263"/>
<text text-anchor="middle" x="1668.5" y="-270" font-family="Helvetica,sans-Serif" font-size="10.00">stdio.h</text>
</g>
<!-- Node33&#45;&gt;Node34 -->
<g id="edge60" class="edge"><title>Node33&#45;&gt;Node34</title>
<path fill="none" stroke="midnightblue" d="M1670.07,-324.396C1669.78,-315.064 1669.4,-302.714 1669.09,-292.517"/>
<polygon fill="midnightblue" stroke="midnightblue" points="1672.57,-292.082 1668.77,-282.195 1665.58,-292.297 1672.57,-292.082"/>
</g>
<!-- Node35&#45;&gt;Node28 -->
<g id="edge63" class="edge"><title>Node35&#45;&gt;Node28</title>
<path fill="none" stroke="midnightblue" d="M1454.34,-324.396C1449.4,-314.662 1442.79,-301.646 1437.49,-291.214"/>
<polygon fill="midnightblue" stroke="midnightblue" points="1440.56,-289.527 1432.91,-282.195 1434.32,-292.696 1440.56,-289.527"/>
</g>
<!-- Node35&#45;&gt;Node32 -->
<g id="edge62" class="edge"><title>Node35&#45;&gt;Node32</title>
<path fill="none" stroke="midnightblue" d="M1490.13,-354.577C1506.18,-363.685 1525.93,-375.676 1541.53,-385.734"/>
<polygon fill="midnightblue" stroke="midnightblue" points="1539.89,-388.845 1550.18,-391.396 1543.73,-382.989 1539.89,-388.845"/>
</g>
<!-- Node36&#45;&gt;Node2 -->
<g id="edge69" class="edge"><title>Node36&#45;&gt;Node2</title>
<path fill="none" stroke="midnightblue" d="M2161.89,-398.105C2270.68,-382.683 2493.5,-342.658 2493.5,-273.5 2493.5,-273.5 2493.5,-273.5 2493.5,-204.5 2493.5,-124.098 2379.74,-89.9631 2323.39,-77.9854"/>
<polygon fill="midnightblue" stroke="midnightblue" points="2323.75,-74.4875 2313.25,-75.9392 2322.36,-81.3491 2323.75,-74.4875"/>
</g>
<!-- Node36&#45;&gt;Node5 -->
<g id="edge79" class="edge"><title>Node36&#45;&gt;Node5</title>
<path fill="none" stroke="midnightblue" d="M2095.58,-396.903C2079.74,-380.241 2042.34,-343.483 2003.5,-324 1960.66,-302.508 1907.98,-289.709 1867.3,-282.376"/>
<polygon fill="midnightblue" stroke="midnightblue" points="1867.68,-278.889 1857.23,-280.627 1866.48,-285.786 1867.68,-278.889"/>
</g>
<!-- Node36&#45;&gt;Node6 -->
<g id="edge68" class="edge"><title>Node36&#45;&gt;Node6</title>
<path fill="none" stroke="midnightblue" d="M2130.51,-396.869C2149.62,-389.184 2173.84,-375.873 2185.5,-355 2192.22,-342.971 2193.63,-335.121 2185.5,-324 2096.3,-202.04 2003.43,-272.852 1861.5,-221 1859.65,-220.323 1857.75,-219.605 1855.84,-218.866"/>
<polygon fill="midnightblue" stroke="midnightblue" points="1856.96,-215.545 1846.37,-215.077 1854.36,-222.043 1856.96,-215.545"/>
</g>
<!-- Node36&#45;&gt;Node9 -->
<g id="edge70" class="edge"><title>Node36&#45;&gt;Node9</title>
<path fill="none" stroke="midnightblue" d="M2134.41,-396.895C2159.23,-388.906 2194.01,-375.181 2219.5,-355 2267.11,-317.3 2304.83,-254.509 2321.38,-224.089"/>
<polygon fill="midnightblue" stroke="midnightblue" points="2324.56,-225.569 2326.17,-215.096 2318.38,-222.281 2324.56,-225.569"/>
</g>
<!-- Node36&#45;&gt;Node10 -->
<g id="edge71" class="edge"><title>Node36&#45;&gt;Node10</title>
<path fill="none" stroke="midnightblue" d="M2145.65,-396.998C2251.56,-373.74 2514.55,-303.149 2431.5,-190 2394.21,-139.196 2215.14,-100.405 2118.94,-82.8338"/>
<polygon fill="midnightblue" stroke="midnightblue" points="2119.52,-79.3804 2109.05,-81.0485 2118.27,-86.2691 2119.52,-79.3804"/>
</g>
<!-- Node36&#45;&gt;Node12 -->
<g id="edge72" class="edge"><title>Node36&#45;&gt;Node12</title>
<path fill="none" stroke="midnightblue" d="M2059.82,-396.971C1989.13,-381.985 1846.7,-346.813 1738.5,-288 1719.35,-277.591 1717.98,-270.025 1700.5,-257 1677.67,-239.984 1660.83,-246.164 1647.5,-221 1626.56,-181.462 1634.01,-127.289 1640.98,-96.4906"/>
<polygon fill="midnightblue" stroke="midnightblue" points="1644.42,-97.1783 1643.38,-86.6342 1637.62,-95.5228 1644.42,-97.1783"/>
</g>
<!-- Node36&#45;&gt;Node20 -->
<g id="edge67" class="edge"><title>Node36&#45;&gt;Node20</title>
<path fill="none" stroke="midnightblue" d="M2045.2,-403.677C1931.56,-399.457 1684.72,-386.829 1606.5,-355 1585.99,-346.655 1587.83,-332.771 1567.5,-324 1464.43,-279.53 1427.17,-311.951 1317.5,-288 1214.73,-265.556 1187.8,-260.985 1090.5,-221 1089.47,-220.575 1088.42,-220.123 1087.37,-219.65"/>
<polygon fill="midnightblue" stroke="midnightblue" points="1088.6,-216.352 1078.09,-215.04 1085.49,-222.622 1088.6,-216.352"/>
</g>
<!-- Node36&#45;&gt;Node33 -->
<g id="edge78" class="edge"><title>Node36&#45;&gt;Node33</title>
<path fill="none" stroke="midnightblue" d="M2046.45,-396.936C1966.01,-384.861 1819.69,-362.895 1735.27,-350.222"/>
<polygon fill="midnightblue" stroke="midnightblue" points="1735.69,-346.748 1725.29,-348.724 1734.65,-353.67 1735.69,-346.748"/>
</g>
<!-- Node37 -->
<g id="node37" class="node"><title>Node37</title>
<polygon fill="white" stroke="#bfbfbf" points="2132,-330 2132,-349 2177,-349 2177,-330 2132,-330"/>
<text text-anchor="middle" x="2154.5" y="-337" font-family="Helvetica,sans-Serif" font-size="10.00">iosfwd</text>
</g>
<!-- Node36&#45;&gt;Node37 -->
<g id="edge66" class="edge"><title>Node36&#45;&gt;Node37</title>
<path fill="none" stroke="midnightblue" d="M2110.38,-396.734C2118.33,-386.598 2131.6,-369.69 2141.51,-357.056"/>
<polygon fill="midnightblue" stroke="midnightblue" points="2144.31,-359.155 2147.73,-349.127 2138.8,-354.834 2144.31,-359.155"/>
</g>
<!-- Node38 -->
<g id="node38" class="node"><title>Node38</title>
<g id="a_node38"><a xlink:href="a00073.html" target="_top" xlink:title="dynamic&#45;graph/exception\l&#45;factory.h">
<polygon fill="white" stroke="black" points="1871,-190.5 1871,-220.5 1996,-220.5 1996,-190.5 1871,-190.5"/>
<text text-anchor="start" x="1879" y="-208.5" font-family="Helvetica,sans-Serif" font-size="10.00">dynamic&#45;graph/exception</text>
<text text-anchor="middle" x="1933.5" y="-197.5" font-family="Helvetica,sans-Serif" font-size="10.00">&#45;factory.h</text>
</a>
</g>
</g>
<!-- Node36&#45;&gt;Node38 -->
<g id="edge73" class="edge"><title>Node36&#45;&gt;Node38</title>
<path fill="none" stroke="midnightblue" d="M2097.1,-396.754C2085.96,-381.634 2062.12,-349.751 2040.5,-324 2011.49,-289.447 1975.89,-251.097 1953.95,-227.897"/>
<polygon fill="midnightblue" stroke="midnightblue" points="1956.48,-225.483 1947.06,-220.637 1951.4,-230.301 1956.48,-225.483"/>
</g>
<!-- Node38&#45;&gt;Node2 -->
<g id="edge74" class="edge"><title>Node38&#45;&gt;Node2</title>
<path fill="none" stroke="midnightblue" d="M1971.58,-190.499C2043.18,-164.172 2196.53,-107.786 2261.93,-83.7391"/>
<polygon fill="midnightblue" stroke="midnightblue" points="2263.47,-86.9031 2271.65,-80.1671 2261.05,-80.3331 2263.47,-86.9031"/>
</g>
<!-- Node38&#45;&gt;Node10 -->
<g id="edge75" class="edge"><title>Node38&#45;&gt;Node10</title>
<path fill="none" stroke="midnightblue" d="M1946.77,-190.374C1970,-165.648 2017.87,-114.683 2042.36,-88.6196"/>
<polygon fill="midnightblue" stroke="midnightblue" points="2045.13,-90.7821 2049.42,-81.0973 2040.03,-85.9894 2045.13,-90.7821"/>
</g>
<!-- Node38&#45;&gt;Node12 -->
<g id="edge76" class="edge"><title>Node38&#45;&gt;Node12</title>
<path fill="none" stroke="midnightblue" d="M1903.16,-190.499C1851.14,-166.489 1744.95,-117.477 1687.14,-90.7966"/>
<polygon fill="midnightblue" stroke="midnightblue" points="1688.5,-87.5692 1677.96,-86.5565 1685.57,-93.925 1688.5,-87.5692"/>
</g>
<!-- Node38&#45;&gt;Node14 -->
<g id="edge77" class="edge"><title>Node38&#45;&gt;Node14</title>
<path fill="none" stroke="midnightblue" d="M1928.29,-190.396C1925.34,-182.389 1921.56,-172.162 1918.17,-162.978"/>
<polygon fill="midnightblue" stroke="midnightblue" points="1921.44,-161.745 1914.7,-153.577 1914.88,-164.17 1921.44,-161.745"/>
</g>
<!-- Node39&#45;&gt;Node2 -->
<g id="edge81" class="edge"><title>Node39&#45;&gt;Node2</title>
<path fill="none" stroke="midnightblue" d="M2139.3,-192.986C2168.91,-185.385 2203.57,-173.174 2230.5,-154 2254.32,-137.045 2273.12,-108.243 2283.52,-89.8104"/>
<polygon fill="midnightblue" stroke="midnightblue" points="2286.61,-91.465 2288.3,-81.0059 2280.45,-88.1278 2286.61,-91.465"/>
</g>
<!-- Node39&#45;&gt;Node10 -->
<g id="edge82" class="edge"><title>Node39&#45;&gt;Node10</title>
<path fill="none" stroke="midnightblue" d="M2074.47,-190.374C2071.02,-166.397 2064.01,-117.748 2060.17,-91.0561"/>
<polygon fill="midnightblue" stroke="midnightblue" points="2063.63,-90.4966 2058.74,-81.0973 2056.7,-91.4939 2063.63,-90.4966"/>
</g>
<!-- Node39&#45;&gt;Node12 -->
<g id="edge83" class="edge"><title>Node39&#45;&gt;Node12</title>
<path fill="none" stroke="midnightblue" d="M2064.49,-190.268C2047.76,-171.486 2015.52,-138.942 1980.5,-123 1895.84,-84.4591 1787.81,-74.3172 1718.14,-72.1619"/>
<polygon fill="midnightblue" stroke="midnightblue" points="1717.81,-68.6522 1707.72,-71.8903 1717.63,-75.6498 1717.81,-68.6522"/>
</g>
<!-- Node39&#45;&gt;Node14 -->
<g id="edge84" class="edge"><title>Node39&#45;&gt;Node14</title>
<path fill="none" stroke="midnightblue" d="M2040.26,-190.396C2015.32,-180.686 1981.97,-167.709 1955.2,-157.289"/>
<polygon fill="midnightblue" stroke="midnightblue" points="1956.25,-153.942 1945.67,-153.577 1953.72,-160.465 1956.25,-153.942"/>
</g>
</g>
</svg>
