<?xml version="1.0" encoding="UTF-8" standalone="no"?>
<!DOCTYPE svg PUBLIC "-//W3C//DTD SVG 1.1//EN"
 "http://www.w3.org/Graphics/SVG/1.1/DTD/svg11.dtd">
<!-- Generated by graphviz version 2.38.0 (20140413.2041)
 -->
<!-- Title: all&#45;commands.h Pages: 1 -->
<svg width="813pt" height="341pt"
 viewBox="0.00 0.00 812.50 341.00" xmlns="http://www.w3.org/2000/svg" xmlns:xlink="http://www.w3.org/1999/xlink">
<g id="graph0" class="graph" transform="scale(1 1) rotate(0) translate(4 337)">
<title>all&#45;commands.h</title>
<polygon fill="white" stroke="none" points="-4,4 -4,-337 808.5,-337 808.5,4 -4,4"/>
<!-- Node1 -->
<g id="node1" class="node"><title>Node1</title>
<polygon fill="#bfbfbf" stroke="black" points="353,-313.5 353,-332.5 439,-332.5 439,-313.5 353,-313.5"/>
<text text-anchor="middle" x="396" y="-320.5" font-family="Helvetica,sans-Serif" font-size="10.00">all&#45;commands.h</text>
</g>
<!-- Node2 -->
<g id="node2" class="node"><title>Node2</title>
<g id="a_node2"><a xlink:href="a00056.html" target="_top" xlink:title="dynamic&#45;graph/command\l&#45;bind.h">
<polygon fill="white" stroke="black" points="0,-246.5 0,-276.5 126,-276.5 126,-246.5 0,-246.5"/>
<text text-anchor="start" x="8" y="-264.5" font-family="Helvetica,sans-Serif" font-size="10.00">dynamic&#45;graph/command</text>
<text text-anchor="middle" x="63" y="-253.5" font-family="Helvetica,sans-Serif" font-size="10.00">&#45;bind.h</text>
</a>
</g>
</g>
<!-- Node1&#45;&gt;Node2 -->
<g id="edge1" class="edge"><title>Node1&#45;&gt;Node2</title>
<path fill="none" stroke="midnightblue" d="M352.982,-314.962C303.215,-306.736 218.553,-292.485 136.223,-277.2"/>
<polygon fill="midnightblue" stroke="midnightblue" points="136.669,-273.723 126.197,-275.331 135.386,-280.604 136.669,-273.723"/>
</g>
<!-- Node3 -->
<g id="node3" class="node"><title>Node3</title>
<g id="a_node3"><a xlink:href="a00063.html" target="_top" xlink:title="dynamic&#45;graph/command.h">
<polygon fill="white" stroke="black" points="318,-185 318,-204 452,-204 452,-185 318,-185"/>
<text text-anchor="middle" x="385" y="-192" font-family="Helvetica,sans-Serif" font-size="10.00">dynamic&#45;graph/command.h</text>
</a>
</g>
</g>
<!-- Node1&#45;&gt;Node3 -->
<g id="edge28" class="edge"><title>Node1&#45;&gt;Node3</title>
<path fill="none" stroke="midnightblue" d="M403.151,-313.364C409.773,-304.763 419.157,-290.873 423,-277 426.678,-263.722 427.367,-259.067 423,-246 418.686,-233.093 409.632,-220.838 401.444,-211.634"/>
<polygon fill="midnightblue" stroke="midnightblue" points="403.742,-208.97 394.329,-204.107 398.655,-213.778 403.742,-208.97"/>
</g>
<!-- Node18 -->
<g id="node18" class="node"><title>Node18</title>
<g id="a_node18"><a xlink:href="a00057.html" target="_top" xlink:title="dynamic&#45;graph/command\l&#45;direct&#45;getter.h">
<polygon fill="white" stroke="black" points="288,-246.5 288,-276.5 414,-276.5 414,-246.5 288,-246.5"/>
<text text-anchor="start" x="296" y="-264.5" font-family="Helvetica,sans-Serif" font-size="10.00">dynamic&#45;graph/command</text>
<text text-anchor="middle" x="351" y="-253.5" font-family="Helvetica,sans-Serif" font-size="10.00">&#45;direct&#45;getter.h</text>
</a>
</g>
</g>
<!-- Node1&#45;&gt;Node18 -->
<g id="edge18" class="edge"><title>Node1&#45;&gt;Node18</title>
<path fill="none" stroke="midnightblue" d="M389.553,-313.475C383.857,-305.944 375.297,-294.626 367.689,-284.566"/>
<polygon fill="midnightblue" stroke="midnightblue" points="370.429,-282.388 361.606,-276.523 364.846,-286.61 370.429,-282.388"/>
</g>
<!-- Node19 -->
<g id="node19" class="node"><title>Node19</title>
<g id="a_node19"><a xlink:href="a00058.html" target="_top" xlink:title="dynamic&#45;graph/command\l&#45;direct&#45;setter.h">
<polygon fill="white" stroke="black" points="144,-246.5 144,-276.5 270,-276.5 270,-246.5 144,-246.5"/>
<text text-anchor="start" x="152" y="-264.5" font-family="Helvetica,sans-Serif" font-size="10.00">dynamic&#45;graph/command</text>
<text text-anchor="middle" x="207" y="-253.5" font-family="Helvetica,sans-Serif" font-size="10.00">&#45;direct&#45;setter.h</text>
</a>
</g>
</g>
<!-- Node1&#45;&gt;Node19 -->
<g id="edge21" class="edge"><title>Node1&#45;&gt;Node19</title>
<path fill="none" stroke="midnightblue" d="M368.921,-313.475C340.931,-304.664 296.476,-290.668 261.222,-279.57"/>
<polygon fill="midnightblue" stroke="midnightblue" points="262.133,-276.187 251.544,-276.523 260.031,-282.864 262.133,-276.187"/>
</g>
<!-- Node20 -->
<g id="node20" class="node"><title>Node20</title>
<g id="a_node20"><a xlink:href="a00059.html" target="_top" xlink:title="dynamic&#45;graph/command\l&#45;getter.h">
<polygon fill="white" stroke="black" points="470,-246.5 470,-276.5 596,-276.5 596,-246.5 470,-246.5"/>
<text text-anchor="start" x="478" y="-264.5" font-family="Helvetica,sans-Serif" font-size="10.00">dynamic&#45;graph/command</text>
<text text-anchor="middle" x="533" y="-253.5" font-family="Helvetica,sans-Serif" font-size="10.00">&#45;getter.h</text>
</a>
</g>
</g>
<!-- Node1&#45;&gt;Node20 -->
<g id="edge24" class="edge"><title>Node1&#45;&gt;Node20</title>
<path fill="none" stroke="midnightblue" d="M415.629,-313.475C435.311,-304.927 466.224,-291.501 491.386,-280.573"/>
<polygon fill="midnightblue" stroke="midnightblue" points="492.934,-283.717 500.712,-276.523 490.145,-277.296 492.934,-283.717"/>
</g>
<!-- Node23 -->
<g id="node23" class="node"><title>Node23</title>
<g id="a_node23"><a xlink:href="a00061.html" target="_top" xlink:title="dynamic&#45;graph/command\l&#45;setter.h">
<polygon fill="white" stroke="black" points="614,-246.5 614,-276.5 740,-276.5 740,-246.5 614,-246.5"/>
<text text-anchor="start" x="622" y="-264.5" font-family="Helvetica,sans-Serif" font-size="10.00">dynamic&#45;graph/command</text>
<text text-anchor="middle" x="677" y="-253.5" font-family="Helvetica,sans-Serif" font-size="10.00">&#45;setter.h</text>
</a>
</g>
</g>
<!-- Node1&#45;&gt;Node23 -->
<g id="edge29" class="edge"><title>Node1&#45;&gt;Node23</title>
<path fill="none" stroke="midnightblue" d="M436.26,-313.475C479.886,-304.238 550.416,-289.303 603.885,-277.982"/>
<polygon fill="midnightblue" stroke="midnightblue" points="604.94,-281.336 613.998,-275.84 603.49,-274.488 604.94,-281.336"/>
</g>
<!-- Node2&#45;&gt;Node3 -->
<g id="edge2" class="edge"><title>Node2&#45;&gt;Node3</title>
<path fill="none" stroke="midnightblue" d="M126.233,-247.736C186.408,-235.588 275.909,-217.521 332.321,-206.134"/>
<polygon fill="midnightblue" stroke="midnightblue" points="333.345,-209.498 342.454,-204.088 331.96,-202.636 333.345,-209.498"/>
</g>
<!-- Node15 -->
<g id="node15" class="node"><title>Node15</title>
<polygon fill="white" stroke="#bfbfbf" points="183,-123.5 183,-142.5 303,-142.5 303,-123.5 183,-123.5"/>
<text text-anchor="middle" x="243" y="-130.5" font-family="Helvetica,sans-Serif" font-size="10.00">boost/assign/list_of.hpp</text>
</g>
<!-- Node2&#45;&gt;Node15 -->
<g id="edge15" class="edge"><title>Node2&#45;&gt;Node15</title>
<path fill="none" stroke="midnightblue" d="M41.585,-246.405C18.8346,-229.712 -11.4946,-201.354 7,-179 27.7473,-153.923 110.904,-142.697 172.668,-137.754"/>
<polygon fill="midnightblue" stroke="midnightblue" points="173.065,-141.234 182.77,-136.986 172.534,-134.254 173.065,-141.234"/>
</g>
<!-- Node16 -->
<g id="node16" class="node"><title>Node16</title>
<polygon fill="white" stroke="#bfbfbf" points="16.5,-185 16.5,-204 113.5,-204 113.5,-185 16.5,-185"/>
<text text-anchor="middle" x="65" y="-192" font-family="Helvetica,sans-Serif" font-size="10.00">boost/function.hpp</text>
</g>
<!-- Node2&#45;&gt;Node16 -->
<g id="edge16" class="edge"><title>Node2&#45;&gt;Node16</title>
<path fill="none" stroke="midnightblue" d="M63.434,-246.396C63.7211,-237.064 64.1011,-224.714 64.4149,-214.517"/>
<polygon fill="midnightblue" stroke="midnightblue" points="67.9232,-214.297 64.7325,-204.195 60.9265,-214.082 67.9232,-214.297"/>
</g>
<!-- Node17 -->
<g id="node17" class="node"><title>Node17</title>
<polygon fill="white" stroke="#bfbfbf" points="132,-185 132,-204 212,-204 212,-185 132,-185"/>
<text text-anchor="middle" x="172" y="-192" font-family="Helvetica,sans-Serif" font-size="10.00">boost/bind.hpp</text>
</g>
<!-- Node2&#45;&gt;Node17 -->
<g id="edge17" class="edge"><title>Node2&#45;&gt;Node17</title>
<path fill="none" stroke="midnightblue" d="M86.6514,-246.396C105.184,-235.344 130.814,-220.061 149.14,-209.132"/>
<polygon fill="midnightblue" stroke="midnightblue" points="150.938,-212.135 157.734,-204.007 147.353,-206.123 150.938,-212.135"/>
</g>
<!-- Node4 -->
<g id="node4" class="node"><title>Node4</title>
<polygon fill="white" stroke="#bfbfbf" points="322,-123.5 322,-142.5 366,-142.5 366,-123.5 322,-123.5"/>
<text text-anchor="middle" x="344" y="-130.5" font-family="Helvetica,sans-Serif" font-size="10.00">vector</text>
</g>
<!-- Node3&#45;&gt;Node4 -->
<g id="edge3" class="edge"><title>Node3&#45;&gt;Node4</title>
<path fill="none" stroke="midnightblue" d="M379.126,-184.975C373.037,-176.138 363.355,-162.089 355.697,-150.975"/>
<polygon fill="midnightblue" stroke="midnightblue" points="358.42,-148.758 349.863,-142.509 352.656,-152.729 358.42,-148.758"/>
</g>
<!-- Node5 -->
<g id="node5" class="node"><title>Node5</title>
<g id="a_node5"><a xlink:href="a00098.html" target="_top" xlink:title="dynamic&#45;graph/value.h">
<polygon fill="white" stroke="black" points="383.5,-123.5 383.5,-142.5 498.5,-142.5 498.5,-123.5 383.5,-123.5"/>
<text text-anchor="middle" x="441" y="-130.5" font-family="Helvetica,sans-Serif" font-size="10.00">dynamic&#45;graph/value.h</text>
</a>
</g>
</g>
<!-- Node3&#45;&gt;Node5 -->
<g id="edge4" class="edge"><title>Node3&#45;&gt;Node5</title>
<path fill="none" stroke="midnightblue" d="M393.023,-184.975C401.59,-175.873 415.361,-161.241 425.957,-149.983"/>
<polygon fill="midnightblue" stroke="midnightblue" points="428.686,-152.19 432.991,-142.509 423.589,-147.392 428.686,-152.19"/>
</g>
<!-- Node10 -->
<g id="node10" class="node"><title>Node10</title>
<g id="a_node10"><a xlink:href="a00067.html" target="_top" xlink:title="dynamic&#45;graph/dynamic\l&#45;graph&#45;api.h">
<polygon fill="white" stroke="black" points="485,-56.5 485,-86.5 605,-86.5 605,-56.5 485,-56.5"/>
<text text-anchor="start" x="493" y="-74.5" font-family="Helvetica,sans-Serif" font-size="10.00">dynamic&#45;graph/dynamic</text>
<text text-anchor="middle" x="545" y="-63.5" font-family="Helvetica,sans-Serif" font-size="10.00">&#45;graph&#45;api.h</text>
</a>
</g>
</g>
<!-- Node3&#45;&gt;Node10 -->
<g id="edge14" class="edge"><title>Node3&#45;&gt;Node10</title>
<path fill="none" stroke="midnightblue" d="M423.056,-184.959C449.171,-177.501 483.266,-164.431 507,-143 520.919,-130.432 530.719,-111.538 536.877,-96.472"/>
<polygon fill="midnightblue" stroke="midnightblue" points="540.28,-97.3694 540.564,-86.7784 533.738,-94.8807 540.28,-97.3694"/>
</g>
<!-- Node6 -->
<g id="node6" class="node"><title>Node6</title>
<polygon fill="white" stroke="#bfbfbf" points="218,-62 218,-81 272,-81 272,-62 218,-62"/>
<text text-anchor="middle" x="245" y="-69" font-family="Helvetica,sans-Serif" font-size="10.00">iostream</text>
</g>
<!-- Node5&#45;&gt;Node6 -->
<g id="edge5" class="edge"><title>Node5&#45;&gt;Node6</title>
<path fill="none" stroke="midnightblue" d="M406.649,-123.494C374.022,-115.144 323.744,-101.571 281,-87 278.875,-86.2758 276.694,-85.4945 274.507,-84.6833"/>
<polygon fill="midnightblue" stroke="midnightblue" points="275.627,-81.3637 265.038,-81.0193 273.101,-87.8921 275.627,-81.3637"/>
</g>
<!-- Node7 -->
<g id="node7" class="node"><title>Node7</title>
<polygon fill="white" stroke="#bfbfbf" points="290.5,-62 290.5,-81 331.5,-81 331.5,-62 290.5,-62"/>
<text text-anchor="middle" x="311" y="-69" font-family="Helvetica,sans-Serif" font-size="10.00">string</text>
</g>
<!-- Node5&#45;&gt;Node7 -->
<g id="edge6" class="edge"><title>Node5&#45;&gt;Node7</title>
<path fill="none" stroke="midnightblue" d="M421.141,-123.463C400.688,-114.598 367.944,-100.203 340,-87 339.008,-86.5311 337.998,-86.0495 336.98,-85.5598"/>
<polygon fill="midnightblue" stroke="midnightblue" points="338.326,-82.3218 327.806,-81.0615 335.244,-88.6068 338.326,-82.3218"/>
</g>
<!-- Node8 -->
<g id="node8" class="node"><title>Node8</title>
<polygon fill="white" stroke="#bfbfbf" points="349.5,-62 349.5,-81 398.5,-81 398.5,-62 349.5,-62"/>
<text text-anchor="middle" x="374" y="-69" font-family="Helvetica,sans-Serif" font-size="10.00">cassert</text>
</g>
<!-- Node5&#45;&gt;Node8 -->
<g id="edge7" class="edge"><title>Node5&#45;&gt;Node8</title>
<path fill="none" stroke="midnightblue" d="M431.401,-123.475C420.952,-114.197 404.032,-99.1706 391.264,-87.831"/>
<polygon fill="midnightblue" stroke="midnightblue" points="393.383,-85.0323 383.582,-81.0091 388.735,-90.2663 393.383,-85.0323"/>
</g>
<!-- Node9 -->
<g id="node9" class="node"><title>Node9</title>
<polygon fill="white" stroke="#bfbfbf" points="416.5,-62 416.5,-81 467.5,-81 467.5,-62 416.5,-62"/>
<text text-anchor="middle" x="442" y="-69" font-family="Helvetica,sans-Serif" font-size="10.00">typeinfo</text>
</g>
<!-- Node5&#45;&gt;Node9 -->
<g id="edge8" class="edge"><title>Node5&#45;&gt;Node9</title>
<path fill="none" stroke="midnightblue" d="M441.143,-123.475C441.284,-115.08 441.505,-101.981 441.686,-91.1631"/>
<polygon fill="midnightblue" stroke="midnightblue" points="445.188,-91.0665 441.857,-81.0091 438.189,-90.9488 445.188,-91.0665"/>
</g>
<!-- Node5&#45;&gt;Node10 -->
<g id="edge9" class="edge"><title>Node5&#45;&gt;Node10</title>
<path fill="none" stroke="midnightblue" d="M455.901,-123.475C470.381,-115.191 492.87,-102.325 511.63,-91.5913"/>
<polygon fill="midnightblue" stroke="midnightblue" points="513.547,-94.5269 520.489,-86.523 510.071,-88.4509 513.547,-94.5269"/>
</g>
<!-- Node12 -->
<g id="node12" class="node"><title>Node12</title>
<g id="a_node12"><a xlink:href="a00077.html" target="_top" xlink:title="dynamic&#45;graph/linear\l&#45;algebra.h">
<polygon fill="white" stroke="black" points="623.5,-56.5 623.5,-86.5 730.5,-86.5 730.5,-56.5 623.5,-56.5"/>
<text text-anchor="start" x="631.5" y="-74.5" font-family="Helvetica,sans-Serif" font-size="10.00">dynamic&#45;graph/linear</text>
<text text-anchor="middle" x="677" y="-63.5" font-family="Helvetica,sans-Serif" font-size="10.00">&#45;algebra.h</text>
</a>
</g>
</g>
<!-- Node5&#45;&gt;Node12 -->
<g id="edge11" class="edge"><title>Node5&#45;&gt;Node12</title>
<path fill="none" stroke="midnightblue" d="M474.813,-123.475C510.835,-114.393 568.696,-99.8055 613.31,-88.5575"/>
<polygon fill="midnightblue" stroke="midnightblue" points="614.349,-91.9052 623.19,-86.0666 612.637,-85.1176 614.349,-91.9052"/>
</g>
<!-- Node11 -->
<g id="node11" class="node"><title>Node11</title>
<polygon fill="white" stroke="#bfbfbf" points="483.5,-0.5 483.5,-19.5 606.5,-19.5 606.5,-0.5 483.5,-0.5"/>
<text text-anchor="middle" x="545" y="-7.5" font-family="Helvetica,sans-Serif" font-size="10.00">dynamic&#45;graph/config.hh</text>
</g>
<!-- Node10&#45;&gt;Node11 -->
<g id="edge10" class="edge"><title>Node10&#45;&gt;Node11</title>
<path fill="none" stroke="midnightblue" d="M545,-56.3993C545,-48.4664 545,-38.458 545,-29.8583"/>
<polygon fill="midnightblue" stroke="midnightblue" points="548.5,-29.6577 545,-19.6578 541.5,-29.6578 548.5,-29.6577"/>
</g>
<!-- Node13 -->
<g id="node13" class="node"><title>Node13</title>
<polygon fill="white" stroke="#bfbfbf" points="634.5,-0.5 634.5,-19.5 699.5,-19.5 699.5,-0.5 634.5,-0.5"/>
<text text-anchor="middle" x="667" y="-7.5" font-family="Helvetica,sans-Serif" font-size="10.00">Eigen/Core</text>
</g>
<!-- Node12&#45;&gt;Node13 -->
<g id="edge12" class="edge"><title>Node12&#45;&gt;Node13</title>
<path fill="none" stroke="midnightblue" d="M674.63,-56.3993C673.282,-48.3772 671.577,-38.2328 670.121,-29.569"/>
<polygon fill="midnightblue" stroke="midnightblue" points="673.564,-28.9393 668.455,-19.6578 666.661,-30.0996 673.564,-28.9393"/>
</g>
<!-- Node14 -->
<g id="node14" class="node"><title>Node14</title>
<polygon fill="white" stroke="#bfbfbf" points="717.5,-0.5 717.5,-19.5 804.5,-19.5 804.5,-0.5 717.5,-0.5"/>
<text text-anchor="middle" x="761" y="-7.5" font-family="Helvetica,sans-Serif" font-size="10.00">Eigen/Geometry</text>
</g>
<!-- Node12&#45;&gt;Node14 -->
<g id="edge13" class="edge"><title>Node12&#45;&gt;Node14</title>
<path fill="none" stroke="midnightblue" d="M696.907,-56.3993C709.994,-47.1293 727.082,-35.0254 740.322,-25.6469"/>
<polygon fill="midnightblue" stroke="midnightblue" points="742.64,-28.2941 748.777,-19.6578 738.594,-22.5819 742.64,-28.2941"/>
</g>
<!-- Node18&#45;&gt;Node3 -->
<g id="edge19" class="edge"><title>Node18&#45;&gt;Node3</title>
<path fill="none" stroke="midnightblue" d="M358.377,-246.396C363.469,-236.662 370.277,-223.646 375.734,-213.214"/>
<polygon fill="midnightblue" stroke="midnightblue" points="378.918,-214.678 380.452,-204.195 372.716,-211.433 378.918,-214.678"/>
</g>
<!-- Node18&#45;&gt;Node15 -->
<g id="edge20" class="edge"><title>Node18&#45;&gt;Node15</title>
<path fill="none" stroke="midnightblue" d="M339.029,-246.479C318.985,-223.001 278.722,-175.841 257.25,-150.692"/>
<polygon fill="midnightblue" stroke="midnightblue" points="259.658,-148.121 250.503,-142.789 254.334,-152.666 259.658,-148.121"/>
</g>
<!-- Node19&#45;&gt;Node3 -->
<g id="edge22" class="edge"><title>Node19&#45;&gt;Node3</title>
<path fill="none" stroke="midnightblue" d="M245.623,-246.396C277.408,-234.789 321.975,-218.515 352.086,-207.519"/>
<polygon fill="midnightblue" stroke="midnightblue" points="353.511,-210.725 361.704,-204.007 351.11,-204.15 353.511,-210.725"/>
</g>
<!-- Node19&#45;&gt;Node15 -->
<g id="edge23" class="edge"><title>Node19&#45;&gt;Node15</title>
<path fill="none" stroke="midnightblue" d="M210.99,-246.479C217.497,-223.616 230.394,-178.296 237.675,-152.713"/>
<polygon fill="midnightblue" stroke="midnightblue" points="241.128,-153.365 240.499,-142.789 234.395,-151.449 241.128,-153.365"/>
</g>
<!-- Node20&#45;&gt;Node3 -->
<g id="edge25" class="edge"><title>Node20&#45;&gt;Node3</title>
<path fill="none" stroke="midnightblue" d="M500.886,-246.396C474.918,-234.991 438.688,-219.079 413.684,-208.098"/>
<polygon fill="midnightblue" stroke="midnightblue" points="414.933,-204.824 404.37,-204.007 412.118,-211.233 414.933,-204.824"/>
</g>
<!-- Node21 -->
<g id="node21" class="node"><title>Node21</title>
<g id="a_node21"><a xlink:href="a00060.html" target="_top" xlink:title="dynamic&#45;graph/command\l&#45;getter.t.cpp">
<polygon fill="white" stroke="black" points="470,-179.5 470,-209.5 596,-209.5 596,-179.5 470,-179.5"/>
<text text-anchor="start" x="478" y="-197.5" font-family="Helvetica,sans-Serif" font-size="10.00">dynamic&#45;graph/command</text>
<text text-anchor="middle" x="533" y="-186.5" font-family="Helvetica,sans-Serif" font-size="10.00">&#45;getter.t.cpp</text>
</a>
</g>
</g>
<!-- Node20&#45;&gt;Node21 -->
<g id="edge26" class="edge"><title>Node20&#45;&gt;Node21</title>
<path fill="none" stroke="midnightblue" d="M533,-246.396C533,-238.645 533,-228.812 533,-219.86"/>
<polygon fill="midnightblue" stroke="midnightblue" points="536.5,-219.576 533,-209.577 529.5,-219.577 536.5,-219.576"/>
</g>
<!-- Node22 -->
<g id="node22" class="node"><title>Node22</title>
<polygon fill="white" stroke="#bfbfbf" points="585,-123.5 585,-142.5 637,-142.5 637,-123.5 585,-123.5"/>
<text text-anchor="middle" x="611" y="-130.5" font-family="Helvetica,sans-Serif" font-size="10.00">sstream</text>
</g>
<!-- Node21&#45;&gt;Node22 -->
<g id="edge27" class="edge"><title>Node21&#45;&gt;Node22</title>
<path fill="none" stroke="midnightblue" d="M551.485,-179.399C563.52,-170.218 579.2,-158.258 591.443,-148.918"/>
<polygon fill="midnightblue" stroke="midnightblue" points="593.822,-151.506 599.65,-142.658 589.577,-145.94 593.822,-151.506"/>
</g>
<!-- Node23&#45;&gt;Node3 -->
<g id="edge30" class="edge"><title>Node23&#45;&gt;Node3</title>
<path fill="none" stroke="midnightblue" d="M614,-246.476C559.73,-234.395 482.548,-217.215 433.118,-206.211"/>
<polygon fill="midnightblue" stroke="midnightblue" points="433.835,-202.785 423.313,-204.029 432.314,-209.618 433.835,-202.785"/>
</g>
<!-- Node24 -->
<g id="node24" class="node"><title>Node24</title>
<g id="a_node24"><a xlink:href="a00062.html" target="_top" xlink:title="dynamic&#45;graph/command\l&#45;setter.t.cpp">
<polygon fill="white" stroke="black" points="614,-179.5 614,-209.5 740,-209.5 740,-179.5 614,-179.5"/>
<text text-anchor="start" x="622" y="-197.5" font-family="Helvetica,sans-Serif" font-size="10.00">dynamic&#45;graph/command</text>
<text text-anchor="middle" x="677" y="-186.5" font-family="Helvetica,sans-Serif" font-size="10.00">&#45;setter.t.cpp</text>
</a>
</g>
</g>
<!-- Node23&#45;&gt;Node24 -->
<g id="edge31" class="edge"><title>Node23&#45;&gt;Node24</title>
<path fill="none" stroke="midnightblue" d="M677,-246.396C677,-238.645 677,-228.812 677,-219.86"/>
<polygon fill="midnightblue" stroke="midnightblue" points="680.5,-219.576 677,-209.577 673.5,-219.577 680.5,-219.576"/>
</g>
<!-- Node24&#45;&gt;Node12 -->
<g id="edge34" class="edge"><title>Node24&#45;&gt;Node12</title>
<path fill="none" stroke="midnightblue" d="M677,-179.145C677,-158.859 677,-121.533 677,-96.8617"/>
<polygon fill="midnightblue" stroke="midnightblue" points="680.5,-96.8367 677,-86.8368 673.5,-96.8368 680.5,-96.8367"/>
</g>
<!-- Node24&#45;&gt;Node15 -->
<g id="edge33" class="edge"><title>Node24&#45;&gt;Node15</title>
<path fill="none" stroke="midnightblue" d="M613.833,-180.496C610.851,-179.971 607.895,-179.469 605,-179 479.076,-158.588 444.413,-159.289 313.35,-143.03"/>
<polygon fill="midnightblue" stroke="midnightblue" points="313.683,-139.544 303.327,-141.776 312.815,-146.49 313.683,-139.544"/>
</g>
<!-- Node24&#45;&gt;Node22 -->
<g id="edge32" class="edge"><title>Node24&#45;&gt;Node22</title>
<path fill="none" stroke="midnightblue" d="M661.359,-179.399C651.373,-170.397 638.422,-158.721 628.155,-149.465"/>
<polygon fill="midnightblue" stroke="midnightblue" points="630.375,-146.754 620.604,-142.658 625.687,-151.953 630.375,-146.754"/>
</g>
</g>
</svg>
