<?xml version="1.0" encoding="UTF-8" standalone="no"?>
<!DOCTYPE svg PUBLIC "-//W3C//DTD SVG 1.1//EN"
 "http://www.w3.org/Graphics/SVG/1.1/DTD/svg11.dtd">
<!-- Generated by graphviz version 2.38.0 (20140413.2041)
 -->
<!-- Title: command&#45;bind.h Pages: 1 -->
<svg width="649pt" height="263pt"
 viewBox="0.00 0.00 648.50 263.00" xmlns="http://www.w3.org/2000/svg" xmlns:xlink="http://www.w3.org/1999/xlink">
<g id="graph0" class="graph" transform="scale(1 1) rotate(0) translate(4 259)">
<title>command&#45;bind.h</title>
<polygon fill="white" stroke="none" points="-4,4 -4,-259 644.5,-259 644.5,4 -4,4"/>
<!-- Node1 -->
<g id="node1" class="node"><title>Node1</title>
<polygon fill="#bfbfbf" stroke="black" points="386,-235.5 386,-254.5 475,-254.5 475,-235.5 386,-235.5"/>
<text text-anchor="middle" x="430.5" y="-242.5" font-family="Helvetica,sans-Serif" font-size="10.00">command&#45;bind.h</text>
</g>
<!-- Node2 -->
<g id="node2" class="node"><title>Node2</title>
<g id="a_node2"><a xlink:href="a00063.html" target="_top" xlink:title="dynamic&#45;graph/command.h">
<polygon fill="white" stroke="black" points="155.5,-179.5 155.5,-198.5 289.5,-198.5 289.5,-179.5 155.5,-179.5"/>
<text text-anchor="middle" x="222.5" y="-186.5" font-family="Helvetica,sans-Serif" font-size="10.00">dynamic&#45;graph/command.h</text>
</a>
</g>
</g>
<!-- Node1&#45;&gt;Node2 -->
<g id="edge1" class="edge"><title>Node1&#45;&gt;Node2</title>
<path fill="none" stroke="midnightblue" d="M397.542,-235.444C361.713,-226.142 304.337,-211.246 265.109,-201.062"/>
<polygon fill="midnightblue" stroke="midnightblue" points="265.863,-197.642 255.304,-198.516 264.104,-204.417 265.863,-197.642"/>
</g>
<!-- Node14 -->
<g id="node14" class="node"><title>Node14</title>
<polygon fill="white" stroke="#bfbfbf" points="307.5,-179.5 307.5,-198.5 427.5,-198.5 427.5,-179.5 307.5,-179.5"/>
<text text-anchor="middle" x="367.5" y="-186.5" font-family="Helvetica,sans-Serif" font-size="10.00">boost/assign/list_of.hpp</text>
</g>
<!-- Node1&#45;&gt;Node14 -->
<g id="edge14" class="edge"><title>Node1&#45;&gt;Node14</title>
<path fill="none" stroke="midnightblue" d="M420.378,-235.324C410.974,-227.263 396.756,-215.077 385.431,-205.369"/>
<polygon fill="midnightblue" stroke="midnightblue" points="387.677,-202.684 377.806,-198.834 383.121,-207.999 387.677,-202.684"/>
</g>
<!-- Node15 -->
<g id="node15" class="node"><title>Node15</title>
<polygon fill="white" stroke="#bfbfbf" points="445,-179.5 445,-198.5 542,-198.5 542,-179.5 445,-179.5"/>
<text text-anchor="middle" x="493.5" y="-186.5" font-family="Helvetica,sans-Serif" font-size="10.00">boost/function.hpp</text>
</g>
<!-- Node1&#45;&gt;Node15 -->
<g id="edge15" class="edge"><title>Node1&#45;&gt;Node15</title>
<path fill="none" stroke="midnightblue" d="M440.622,-235.324C450.026,-227.263 464.244,-215.077 475.569,-205.369"/>
<polygon fill="midnightblue" stroke="midnightblue" points="477.879,-207.999 483.194,-198.834 473.323,-202.684 477.879,-207.999"/>
</g>
<!-- Node16 -->
<g id="node16" class="node"><title>Node16</title>
<polygon fill="white" stroke="#bfbfbf" points="560.5,-179.5 560.5,-198.5 640.5,-198.5 640.5,-179.5 560.5,-179.5"/>
<text text-anchor="middle" x="600.5" y="-186.5" font-family="Helvetica,sans-Serif" font-size="10.00">boost/bind.hpp</text>
</g>
<!-- Node1&#45;&gt;Node16 -->
<g id="edge16" class="edge"><title>Node1&#45;&gt;Node16</title>
<path fill="none" stroke="midnightblue" d="M457.437,-235.444C486.16,-226.32 531.829,-211.813 563.821,-201.651"/>
<polygon fill="midnightblue" stroke="midnightblue" points="565.218,-204.88 573.689,-198.516 563.099,-198.208 565.218,-204.88"/>
</g>
<!-- Node3 -->
<g id="node3" class="node"><title>Node3</title>
<polygon fill="white" stroke="#bfbfbf" points="103.5,-123.5 103.5,-142.5 147.5,-142.5 147.5,-123.5 103.5,-123.5"/>
<text text-anchor="middle" x="125.5" y="-130.5" font-family="Helvetica,sans-Serif" font-size="10.00">vector</text>
</g>
<!-- Node2&#45;&gt;Node3 -->
<g id="edge2" class="edge"><title>Node2&#45;&gt;Node3</title>
<path fill="none" stroke="midnightblue" d="M206.915,-179.324C191.501,-170.743 167.688,-157.486 149.79,-147.522"/>
<polygon fill="midnightblue" stroke="midnightblue" points="151.486,-144.461 141.046,-142.655 148.081,-150.577 151.486,-144.461"/>
</g>
<!-- Node4 -->
<g id="node4" class="node"><title>Node4</title>
<g id="a_node4"><a xlink:href="a00098.html" target="_top" xlink:title="dynamic&#45;graph/value.h">
<polygon fill="white" stroke="black" points="165,-123.5 165,-142.5 280,-142.5 280,-123.5 165,-123.5"/>
<text text-anchor="middle" x="222.5" y="-130.5" font-family="Helvetica,sans-Serif" font-size="10.00">dynamic&#45;graph/value.h</text>
</a>
</g>
</g>
<!-- Node2&#45;&gt;Node4 -->
<g id="edge3" class="edge"><title>Node2&#45;&gt;Node4</title>
<path fill="none" stroke="midnightblue" d="M222.5,-179.083C222.5,-172.006 222.5,-161.861 222.5,-152.986"/>
<polygon fill="midnightblue" stroke="midnightblue" points="226,-152.751 222.5,-142.751 219,-152.751 226,-152.751"/>
</g>
<!-- Node9 -->
<g id="node9" class="node"><title>Node9</title>
<g id="a_node9"><a xlink:href="a00067.html" target="_top" xlink:title="dynamic&#45;graph/dynamic\l&#45;graph&#45;api.h">
<polygon fill="white" stroke="black" points="393.5,-56.5 393.5,-86.5 513.5,-86.5 513.5,-56.5 393.5,-56.5"/>
<text text-anchor="start" x="401.5" y="-74.5" font-family="Helvetica,sans-Serif" font-size="10.00">dynamic&#45;graph/dynamic</text>
<text text-anchor="middle" x="453.5" y="-63.5" font-family="Helvetica,sans-Serif" font-size="10.00">&#45;graph&#45;api.h</text>
</a>
</g>
</g>
<!-- Node2&#45;&gt;Node9 -->
<g id="edge13" class="edge"><title>Node2&#45;&gt;Node9</title>
<path fill="none" stroke="midnightblue" d="M239.863,-179.319C277.2,-160.65 365.836,-116.332 416.427,-91.0367"/>
<polygon fill="midnightblue" stroke="midnightblue" points="418.03,-94.148 425.409,-86.5453 414.9,-87.887 418.03,-94.148"/>
</g>
<!-- Node5 -->
<g id="node5" class="node"><title>Node5</title>
<polygon fill="white" stroke="#bfbfbf" points="195.5,-62 195.5,-81 249.5,-81 249.5,-62 195.5,-62"/>
<text text-anchor="middle" x="222.5" y="-69" font-family="Helvetica,sans-Serif" font-size="10.00">iostream</text>
</g>
<!-- Node4&#45;&gt;Node5 -->
<g id="edge4" class="edge"><title>Node4&#45;&gt;Node5</title>
<path fill="none" stroke="midnightblue" d="M222.5,-123.475C222.5,-115.08 222.5,-101.981 222.5,-91.1631"/>
<polygon fill="midnightblue" stroke="midnightblue" points="226,-91.0091 222.5,-81.0091 219,-91.0091 226,-91.0091"/>
</g>
<!-- Node6 -->
<g id="node6" class="node"><title>Node6</title>
<polygon fill="white" stroke="#bfbfbf" points="0,-62 0,-81 41,-81 41,-62 0,-62"/>
<text text-anchor="middle" x="20.5" y="-69" font-family="Helvetica,sans-Serif" font-size="10.00">string</text>
</g>
<!-- Node4&#45;&gt;Node6 -->
<g id="edge5" class="edge"><title>Node4&#45;&gt;Node6</title>
<path fill="none" stroke="midnightblue" d="M179.427,-123.426C143.949,-115.743 92.6467,-103.194 49.5,-87 48.1166,-86.4808 46.712,-85.9156 45.3051,-85.3193"/>
<polygon fill="midnightblue" stroke="midnightblue" points="46.7316,-82.1228 36.1871,-81.0909 43.7866,-88.4732 46.7316,-82.1228"/>
</g>
<!-- Node7 -->
<g id="node7" class="node"><title>Node7</title>
<polygon fill="white" stroke="#bfbfbf" points="59,-62 59,-81 108,-81 108,-62 59,-62"/>
<text text-anchor="middle" x="83.5" y="-69" font-family="Helvetica,sans-Serif" font-size="10.00">cassert</text>
</g>
<!-- Node4&#45;&gt;Node7 -->
<g id="edge6" class="edge"><title>Node4&#45;&gt;Node7</title>
<path fill="none" stroke="midnightblue" d="M202.147,-123.449C180.783,-114.452 146.233,-99.8427 116.5,-87 115.136,-86.4107 113.74,-85.8059 112.332,-85.1936"/>
<polygon fill="midnightblue" stroke="midnightblue" points="113.591,-81.9243 103.026,-81.1279 110.788,-88.3388 113.591,-81.9243"/>
</g>
<!-- Node8 -->
<g id="node8" class="node"><title>Node8</title>
<polygon fill="white" stroke="#bfbfbf" points="126,-62 126,-81 177,-81 177,-62 126,-62"/>
<text text-anchor="middle" x="151.5" y="-69" font-family="Helvetica,sans-Serif" font-size="10.00">typeinfo</text>
</g>
<!-- Node4&#45;&gt;Node8 -->
<g id="edge7" class="edge"><title>Node4&#45;&gt;Node8</title>
<path fill="none" stroke="midnightblue" d="M212.327,-123.475C201.15,-114.108 182.983,-98.8839 169.409,-87.5081"/>
<polygon fill="midnightblue" stroke="midnightblue" points="171.566,-84.7496 161.654,-81.0091 167.07,-90.1148 171.566,-84.7496"/>
</g>
<!-- Node4&#45;&gt;Node9 -->
<g id="edge8" class="edge"><title>Node4&#45;&gt;Node9</title>
<path fill="none" stroke="midnightblue" d="M255.597,-123.475C290.318,-114.532 345.77,-100.249 389.155,-89.0738"/>
<polygon fill="midnightblue" stroke="midnightblue" points="390.247,-92.4068 399.058,-86.523 388.501,-85.628 390.247,-92.4068"/>
</g>
<!-- Node11 -->
<g id="node11" class="node"><title>Node11</title>
<g id="a_node11"><a xlink:href="a00077.html" target="_top" xlink:title="dynamic&#45;graph/linear\l&#45;algebra.h">
<polygon fill="white" stroke="black" points="268,-56.5 268,-86.5 375,-86.5 375,-56.5 268,-56.5"/>
<text text-anchor="start" x="276" y="-74.5" font-family="Helvetica,sans-Serif" font-size="10.00">dynamic&#45;graph/linear</text>
<text text-anchor="middle" x="321.5" y="-63.5" font-family="Helvetica,sans-Serif" font-size="10.00">&#45;algebra.h</text>
</a>
</g>
</g>
<!-- Node4&#45;&gt;Node11 -->
<g id="edge10" class="edge"><title>Node4&#45;&gt;Node11</title>
<path fill="none" stroke="midnightblue" d="M236.684,-123.475C250.343,-115.266 271.487,-102.558 289.247,-91.8845"/>
<polygon fill="midnightblue" stroke="midnightblue" points="291.4,-94.6742 298.168,-86.523 287.794,-88.6744 291.4,-94.6742"/>
</g>
<!-- Node10 -->
<g id="node10" class="node"><title>Node10</title>
<polygon fill="white" stroke="#bfbfbf" points="392,-0.5 392,-19.5 515,-19.5 515,-0.5 392,-0.5"/>
<text text-anchor="middle" x="453.5" y="-7.5" font-family="Helvetica,sans-Serif" font-size="10.00">dynamic&#45;graph/config.hh</text>
</g>
<!-- Node9&#45;&gt;Node10 -->
<g id="edge9" class="edge"><title>Node9&#45;&gt;Node10</title>
<path fill="none" stroke="midnightblue" d="M453.5,-56.3993C453.5,-48.4664 453.5,-38.458 453.5,-29.8583"/>
<polygon fill="midnightblue" stroke="midnightblue" points="457,-29.6577 453.5,-19.6578 450,-29.6578 457,-29.6577"/>
</g>
<!-- Node12 -->
<g id="node12" class="node"><title>Node12</title>
<polygon fill="white" stroke="#bfbfbf" points="200,-0.5 200,-19.5 265,-19.5 265,-0.5 200,-0.5"/>
<text text-anchor="middle" x="232.5" y="-7.5" font-family="Helvetica,sans-Serif" font-size="10.00">Eigen/Core</text>
</g>
<!-- Node11&#45;&gt;Node12 -->
<g id="edge11" class="edge"><title>Node11&#45;&gt;Node12</title>
<path fill="none" stroke="midnightblue" d="M300.408,-56.3993C286.409,-47.0402 268.089,-34.7924 254.005,-25.3771"/>
<polygon fill="midnightblue" stroke="midnightblue" points="255.709,-22.3059 245.45,-19.6578 251.818,-28.1253 255.709,-22.3059"/>
</g>
<!-- Node13 -->
<g id="node13" class="node"><title>Node13</title>
<polygon fill="white" stroke="#bfbfbf" points="283,-0.5 283,-19.5 370,-19.5 370,-0.5 283,-0.5"/>
<text text-anchor="middle" x="326.5" y="-7.5" font-family="Helvetica,sans-Serif" font-size="10.00">Eigen/Geometry</text>
</g>
<!-- Node11&#45;&gt;Node13 -->
<g id="edge12" class="edge"><title>Node11&#45;&gt;Node13</title>
<path fill="none" stroke="midnightblue" d="M322.685,-56.3993C323.352,-48.4664 324.193,-38.458 324.915,-29.8583"/>
<polygon fill="midnightblue" stroke="midnightblue" points="328.423,-29.9158 325.772,-19.6578 321.447,-29.3295 328.423,-29.9158"/>
</g>
</g>
</svg>
