<?xml version="1.0" encoding="UTF-8" standalone="no"?>
<!DOCTYPE svg PUBLIC "-//W3C//DTD SVG 1.1//EN"
 "http://www.w3.org/Graphics/SVG/1.1/DTD/svg11.dtd">
<!-- Generated by graphviz version 2.38.0 (20140413.2041)
 -->
<!-- Title: dynamic&#45;graph&#45;api.h Pages: 1 -->
<svg width="1509pt" height="476pt"
 viewBox="0.00 0.00 1508.88 476.00" xmlns="http://www.w3.org/2000/svg" xmlns:xlink="http://www.w3.org/1999/xlink">
<g id="graph0" class="graph" transform="scale(1 1) rotate(0) translate(4 472)">
<title>dynamic&#45;graph&#45;api.h</title>
<polygon fill="white" stroke="none" points="-4,4 -4,-472 1504.88,-472 1504.88,4 -4,4"/>
<!-- Node1 -->
<g id="node1" class="node"><title>Node1</title>
<polygon fill="#bfbfbf" stroke="black" points="1040.38,-448.5 1040.38,-467.5 1144.38,-467.5 1144.38,-448.5 1040.38,-448.5"/>
<text text-anchor="middle" x="1092.38" y="-455.5" font-family="Helvetica,sans-Serif" font-size="10.00">dynamic&#45;graph&#45;api.h</text>
</g>
<!-- Node2 -->
<g id="node2" class="node"><title>Node2</title>
<g id="a_node2"><a xlink:href="a00099.html" target="_top" xlink:title="value.h">
<polygon fill="white" stroke="black" points="450.377,-392.5 450.377,-411.5 498.377,-411.5 498.377,-392.5 450.377,-392.5"/>
<text text-anchor="middle" x="474.377" y="-399.5" font-family="Helvetica,sans-Serif" font-size="10.00">value.h</text>
</a>
</g>
</g>
<!-- Node1&#45;&gt;Node2 -->
<g id="edge1" class="edge"><title>Node1&#45;&gt;Node2</title>
<path fill="none" stroke="midnightblue" d="M1030.2,-452.106C931.003,-444.215 730.851,-427.946 561.377,-412 540.212,-410.009 516.177,-407.504 498.741,-405.642"/>
<polygon fill="midnightblue" stroke="midnightblue" points="1030.1,-455.609 1040.34,-452.912 1030.65,-448.631 1030.1,-455.609"/>
</g>
<!-- Node3 -->
<g id="node3" class="node"><title>Node3</title>
<g id="a_node3"><a xlink:href="a00064.html" target="_top" xlink:title="command.h">
<polygon fill="white" stroke="black" points="352.377,-336.5 352.377,-355.5 420.377,-355.5 420.377,-336.5 352.377,-336.5"/>
<text text-anchor="middle" x="386.377" y="-343.5" font-family="Helvetica,sans-Serif" font-size="10.00">command.h</text>
</a>
</g>
</g>
<!-- Node1&#45;&gt;Node3 -->
<g id="edge14" class="edge"><title>Node1&#45;&gt;Node3</title>
<path fill="none" stroke="midnightblue" d="M1029.98,-454.391C939.827,-449.855 768.171,-438.349 624.377,-412 545.803,-397.602 455.399,-369.684 412.104,-355.587"/>
<polygon fill="midnightblue" stroke="midnightblue" points="1029.88,-457.89 1040.04,-454.884 1030.22,-450.898 1029.88,-457.89"/>
</g>
<!-- Node10 -->
<g id="node10" class="node"><title>Node10</title>
<g id="a_node10"><a xlink:href="a00074.html" target="_top" xlink:title="exception&#45;signal.h">
<polygon fill="white" stroke="black" points="899.877,-336.5 899.877,-355.5 994.877,-355.5 994.877,-336.5 899.877,-336.5"/>
<text text-anchor="middle" x="947.377" y="-343.5" font-family="Helvetica,sans-Serif" font-size="10.00">exception&#45;signal.h</text>
</a>
</g>
</g>
<!-- Node1&#45;&gt;Node10 -->
<g id="edge15" class="edge"><title>Node1&#45;&gt;Node10</title>
<path fill="none" stroke="midnightblue" d="M1072.76,-442.118C1041.98,-418.769 983.324,-374.27 958.702,-355.591"/>
<polygon fill="midnightblue" stroke="midnightblue" points="1070.92,-445.113 1081,-448.368 1075.15,-439.536 1070.92,-445.113"/>
</g>
<!-- Node23 -->
<g id="node23" class="node"><title>Node23</title>
<g id="a_node23"><a xlink:href="a00083.html" target="_top" xlink:title="signal&#45;array.h">
<polygon fill="white" stroke="black" points="1104.88,-224.5 1104.88,-243.5 1179.88,-243.5 1179.88,-224.5 1104.88,-224.5"/>
<text text-anchor="middle" x="1142.38" y="-231.5" font-family="Helvetica,sans-Serif" font-size="10.00">signal&#45;array.h</text>
</a>
</g>
</g>
<!-- Node1&#45;&gt;Node23 -->
<g id="edge65" class="edge"><title>Node1&#45;&gt;Node23</title>
<path fill="none" stroke="midnightblue" d="M1096.59,-438.295C1106.87,-392.644 1132.95,-276.854 1140.38,-243.884"/>
<polygon fill="midnightblue" stroke="midnightblue" points="1093.12,-437.773 1094.34,-448.297 1099.95,-439.311 1093.12,-437.773"/>
</g>
<!-- Node24 -->
<g id="node24" class="node"><title>Node24</title>
<g id="a_node24"><a xlink:href="a00071.html" target="_top" xlink:title="entity.h">
<polygon fill="white" stroke="black" points="1174.88,-168.5 1174.88,-187.5 1223.88,-187.5 1223.88,-168.5 1174.88,-168.5"/>
<text text-anchor="middle" x="1199.38" y="-175.5" font-family="Helvetica,sans-Serif" font-size="10.00">entity.h</text>
</a>
</g>
</g>
<!-- Node1&#45;&gt;Node24 -->
<g id="edge66" class="edge"><title>Node1&#45;&gt;Node24</title>
<path fill="none" stroke="midnightblue" d="M1102.4,-439.282C1122.14,-403.551 1166.07,-319.788 1188.38,-244 1194.19,-224.237 1197.27,-200.131 1198.58,-187.559"/>
<polygon fill="midnightblue" stroke="midnightblue" points="1099.12,-437.968 1097.3,-448.406 1105.23,-441.381 1099.12,-437.968"/>
</g>
<!-- Node25 -->
<g id="node25" class="node"><title>Node25</title>
<g id="a_node25"><a xlink:href="a00081.html" target="_top" xlink:title="pool.h">
<polygon fill="white" stroke="black" points="1306.88,-224.5 1306.88,-243.5 1349.88,-243.5 1349.88,-224.5 1306.88,-224.5"/>
<text text-anchor="middle" x="1328.38" y="-231.5" font-family="Helvetica,sans-Serif" font-size="10.00">pool.h</text>
</a>
</g>
</g>
<!-- Node1&#45;&gt;Node25 -->
<g id="edge70" class="edge"><title>Node1&#45;&gt;Node25</title>
<path fill="none" stroke="midnightblue" d="M1154.6,-449.468C1204.63,-442.228 1269.7,-429.756 1289.38,-412 1339.6,-366.677 1332.97,-272.638 1329.56,-243.678"/>
<polygon fill="midnightblue" stroke="midnightblue" points="1153.91,-446.031 1144.49,-450.89 1154.88,-452.962 1153.91,-446.031"/>
</g>
<!-- Node26 -->
<g id="node26" class="node"><title>Node26</title>
<g id="a_node26"><a xlink:href="a00086.html" target="_top" xlink:title="signal&#45;caster.h">
<polygon fill="white" stroke="black" points="704.377,-280.5 704.377,-299.5 784.377,-299.5 784.377,-280.5 704.377,-280.5"/>
<text text-anchor="middle" x="744.377" y="-287.5" font-family="Helvetica,sans-Serif" font-size="10.00">signal&#45;caster.h</text>
</a>
</g>
</g>
<!-- Node1&#45;&gt;Node26 -->
<g id="edge60" class="edge"><title>Node1&#45;&gt;Node26</title>
<path fill="none" stroke="midnightblue" d="M1064.86,-443.874C996.336,-411.187 819.482,-326.826 762.417,-299.605"/>
<polygon fill="midnightblue" stroke="midnightblue" points="1063.62,-447.162 1074.16,-448.309 1066.64,-440.844 1063.62,-447.162"/>
</g>
<!-- Node27 -->
<g id="node27" class="node"><title>Node27</title>
<g id="a_node27"><a xlink:href="a00085.html" target="_top" xlink:title="signal&#45;cast&#45;helper.h">
<polygon fill="white" stroke="black" points="755.877,-224.5 755.877,-243.5 856.877,-243.5 856.877,-224.5 755.877,-224.5"/>
<text text-anchor="middle" x="806.377" y="-231.5" font-family="Helvetica,sans-Serif" font-size="10.00">signal&#45;cast&#45;helper.h</text>
</a>
</g>
</g>
<!-- Node1&#45;&gt;Node27 -->
<g id="edge71" class="edge"><title>Node1&#45;&gt;Node27</title>
<path fill="none" stroke="midnightblue" d="M1030.23,-453.377C938.505,-444.27 769.714,-412.287 695.377,-300 676.023,-270.765 722.157,-252.941 760.733,-243.528"/>
<polygon fill="midnightblue" stroke="midnightblue" points="1029.93,-456.864 1040.22,-454.308 1030.58,-449.895 1029.93,-456.864"/>
</g>
<!-- Node29 -->
<g id="node29" class="node"><title>Node29</title>
<g id="a_node29"><a xlink:href="a00072.html" target="_top" xlink:title="exception&#45;abstract.h">
<polygon fill="white" stroke="black" points="1158.88,-392.5 1158.88,-411.5 1263.88,-411.5 1263.88,-392.5 1158.88,-392.5"/>
<text text-anchor="middle" x="1211.38" y="-399.5" font-family="Helvetica,sans-Serif" font-size="10.00">exception&#45;abstract.h</text>
</a>
</g>
</g>
<!-- Node1&#45;&gt;Node29 -->
<g id="edge52" class="edge"><title>Node1&#45;&gt;Node29</title>
<path fill="none" stroke="midnightblue" d="M1120.51,-444.232C1142.77,-434.131 1173.23,-420.309 1192.61,-411.516"/>
<polygon fill="midnightblue" stroke="midnightblue" points="1118.89,-441.124 1111.23,-448.444 1121.79,-447.498 1118.89,-441.124"/>
</g>
<!-- Node30 -->
<g id="node30" class="node"><title>Node30</title>
<g id="a_node30"><a xlink:href="a00073.html" target="_top" xlink:title="exception&#45;factory.h">
<polygon fill="white" stroke="black" points="1356.38,-336.5 1356.38,-355.5 1456.38,-355.5 1456.38,-336.5 1356.38,-336.5"/>
<text text-anchor="middle" x="1406.38" y="-343.5" font-family="Helvetica,sans-Serif" font-size="10.00">exception&#45;factory.h</text>
</a>
</g>
</g>
<!-- Node1&#45;&gt;Node30 -->
<g id="edge67" class="edge"><title>Node1&#45;&gt;Node30</title>
<path fill="none" stroke="midnightblue" d="M1154.68,-456.538C1207.95,-453.736 1285.16,-443.805 1344.38,-412 1369.93,-398.275 1391.08,-370.181 1400.74,-355.844"/>
<polygon fill="midnightblue" stroke="midnightblue" points="1154.52,-453.042 1144.69,-456.995 1154.84,-460.034 1154.52,-453.042"/>
</g>
<!-- Node31 -->
<g id="node31" class="node"><title>Node31</title>
<g id="a_node31"><a xlink:href="a00076.html" target="_top" xlink:title="factory.h">
<polygon fill="white" stroke="black" points="1445.88,-280.5 1445.88,-299.5 1500.88,-299.5 1500.88,-280.5 1445.88,-280.5"/>
<text text-anchor="middle" x="1473.38" y="-287.5" font-family="Helvetica,sans-Serif" font-size="10.00">factory.h</text>
</a>
</g>
</g>
<!-- Node1&#45;&gt;Node31 -->
<g id="edge69" class="edge"><title>Node1&#45;&gt;Node31</title>
<path fill="none" stroke="midnightblue" d="M1154.56,-453.55C1212.02,-448.834 1299.02,-437.771 1370.38,-412 1416.48,-395.352 1438.51,-396.988 1465.38,-356 1476.72,-338.694 1475.98,-313.142 1474.6,-299.816"/>
<polygon fill="midnightblue" stroke="midnightblue" points="1154.24,-450.065 1144.54,-454.333 1154.78,-457.043 1154.24,-450.065"/>
</g>
<!-- Node32 -->
<g id="node32" class="node"><title>Node32</title>
<g id="a_node32"><a xlink:href="a00075.html" target="_top" xlink:title="exception&#45;traces.h">
<polygon fill="white" stroke="black" points="1202.88,-336.5 1202.88,-355.5 1299.88,-355.5 1299.88,-336.5 1202.88,-336.5"/>
<text text-anchor="middle" x="1251.38" y="-343.5" font-family="Helvetica,sans-Serif" font-size="10.00">exception&#45;traces.h</text>
</a>
</g>
</g>
<!-- Node1&#45;&gt;Node32 -->
<g id="edge68" class="edge"><title>Node1&#45;&gt;Node32</title>
<path fill="none" stroke="midnightblue" d="M1154.37,-449.65C1200.46,-442.762 1257.79,-430.687 1272.38,-412 1285.66,-394.988 1269.44,-369.312 1258.96,-355.889"/>
<polygon fill="midnightblue" stroke="midnightblue" points="1153.83,-446.192 1144.43,-451.083 1154.83,-453.121 1153.83,-446.192"/>
</g>
<!-- Node33 -->
<g id="node33" class="node"><title>Node33</title>
<g id="a_node33"><a xlink:href="a00066.html" target="_top" xlink:title="debug.h">
<polygon fill="white" stroke="black" points="612.877,-224.5 612.877,-243.5 663.877,-243.5 663.877,-224.5 612.877,-224.5"/>
<text text-anchor="middle" x="638.377" y="-231.5" font-family="Helvetica,sans-Serif" font-size="10.00">debug.h</text>
</a>
</g>
</g>
<!-- Node1&#45;&gt;Node33 -->
<g id="edge61" class="edge"><title>Node1&#45;&gt;Node33</title>
<path fill="none" stroke="midnightblue" d="M1030.04,-455.808C969.518,-452.729 876.099,-442.812 801.377,-412 717.572,-377.443 658.724,-274.293 642.739,-243.666"/>
<polygon fill="midnightblue" stroke="midnightblue" points="1030.05,-459.313 1040.2,-456.277 1030.38,-452.32 1030.05,-459.313"/>
</g>
<!-- Node2&#45;&gt;Node3 -->
<g id="edge2" class="edge"><title>Node2&#45;&gt;Node3</title>
<path fill="none" stroke="midnightblue" d="M451.4,-386.901C435.264,-376.999 414.196,-364.071 400.481,-355.655"/>
<polygon fill="midnightblue" stroke="midnightblue" points="449.885,-390.077 460.239,-392.324 453.546,-384.111 449.885,-390.077"/>
</g>
<!-- Node4 -->
<g id="node4" class="node"><title>Node4</title>
<g id="a_node4"><a xlink:href="a00057.html" target="_top" xlink:title="command&#45;bind.h">
<polygon fill="white" stroke="black" points="13.8773,-280.5 13.8773,-299.5 102.877,-299.5 102.877,-280.5 13.8773,-280.5"/>
<text text-anchor="middle" x="58.3773" y="-287.5" font-family="Helvetica,sans-Serif" font-size="10.00">command&#45;bind.h</text>
</a>
</g>
</g>
<!-- Node3&#45;&gt;Node4 -->
<g id="edge3" class="edge"><title>Node3&#45;&gt;Node4</title>
<path fill="none" stroke="midnightblue" d="M342.248,-337.786C288.095,-328.925 193.473,-313.417 112.377,-300 109.377,-299.504 106.283,-298.991 103.165,-298.473"/>
<polygon fill="midnightblue" stroke="midnightblue" points="341.766,-341.253 352.2,-339.414 342.896,-334.345 341.766,-341.253"/>
</g>
<!-- Node5 -->
<g id="node5" class="node"><title>Node5</title>
<g id="a_node5"><a xlink:href="a00055.html" target="_top" xlink:title="all&#45;commands.h">
<polygon fill="white" stroke="black" points="209.377,-224.5 209.377,-243.5 295.377,-243.5 295.377,-224.5 209.377,-224.5"/>
<text text-anchor="middle" x="252.377" y="-231.5" font-family="Helvetica,sans-Serif" font-size="10.00">all&#45;commands.h</text>
</a>
</g>
</g>
<!-- Node3&#45;&gt;Node5 -->
<g id="edge11" class="edge"><title>Node3&#45;&gt;Node5</title>
<path fill="none" stroke="midnightblue" d="M342.033,-343.03C246.181,-338.318 26.5097,-324.893 4.37733,-300 -1.52896,-293.357 -1.31941,-286.823 4.37733,-280 29.9676,-249.348 145.109,-239.53 209.115,-236.418"/>
<polygon fill="midnightblue" stroke="midnightblue" points="342.116,-346.538 352.273,-343.524 342.453,-339.546 342.116,-346.538"/>
</g>
<!-- Node6 -->
<g id="node6" class="node"><title>Node6</title>
<g id="a_node6"><a xlink:href="a00058.html" target="_top" xlink:title="command&#45;direct&#45;getter.h">
<polygon fill="white" stroke="black" points="121.377,-280.5 121.377,-299.5 243.377,-299.5 243.377,-280.5 121.377,-280.5"/>
<text text-anchor="middle" x="182.377" y="-287.5" font-family="Helvetica,sans-Serif" font-size="10.00">command&#45;direct&#45;getter.h</text>
</a>
</g>
</g>
<!-- Node3&#45;&gt;Node6 -->
<g id="edge5" class="edge"><title>Node3&#45;&gt;Node6</title>
<path fill="none" stroke="midnightblue" d="M344.176,-333.829C305.659,-323.633 249.555,-308.782 214.551,-299.516"/>
<polygon fill="midnightblue" stroke="midnightblue" points="343.49,-337.268 354.053,-336.444 345.282,-330.501 343.49,-337.268"/>
</g>
<!-- Node7 -->
<g id="node7" class="node"><title>Node7</title>
<g id="a_node7"><a xlink:href="a00059.html" target="_top" xlink:title="command&#45;direct&#45;setter.h">
<polygon fill="white" stroke="black" points="261.377,-280.5 261.377,-299.5 383.377,-299.5 383.377,-280.5 261.377,-280.5"/>
<text text-anchor="middle" x="322.377" y="-287.5" font-family="Helvetica,sans-Serif" font-size="10.00">command&#45;direct&#45;setter.h</text>
</a>
</g>
</g>
<!-- Node3&#45;&gt;Node7 -->
<g id="edge7" class="edge"><title>Node3&#45;&gt;Node7</title>
<path fill="none" stroke="midnightblue" d="M368.386,-329.82C356.92,-320.145 342.464,-307.948 332.847,-299.834"/>
<polygon fill="midnightblue" stroke="midnightblue" points="366.195,-332.55 376.095,-336.324 370.709,-327.2 366.195,-332.55"/>
</g>
<!-- Node8 -->
<g id="node8" class="node"><title>Node8</title>
<g id="a_node8"><a xlink:href="a00060.html" target="_top" xlink:title="command&#45;getter.h">
<polygon fill="white" stroke="black" points="401.877,-280.5 401.877,-299.5 496.877,-299.5 496.877,-280.5 401.877,-280.5"/>
<text text-anchor="middle" x="449.377" y="-287.5" font-family="Helvetica,sans-Serif" font-size="10.00">command&#45;getter.h</text>
</a>
</g>
</g>
<!-- Node3&#45;&gt;Node8 -->
<g id="edge9" class="edge"><title>Node3&#45;&gt;Node8</title>
<path fill="none" stroke="midnightblue" d="M404.417,-329.537C415.65,-319.909 429.696,-307.869 439.071,-299.834"/>
<polygon fill="midnightblue" stroke="midnightblue" points="401.814,-327.159 396.499,-336.324 406.37,-332.473 401.814,-327.159"/>
</g>
<!-- Node9 -->
<g id="node9" class="node"><title>Node9</title>
<g id="a_node9"><a xlink:href="a00062.html" target="_top" xlink:title="command&#45;setter.h">
<polygon fill="white" stroke="black" points="514.877,-280.5 514.877,-299.5 609.877,-299.5 609.877,-280.5 514.877,-280.5"/>
<text text-anchor="middle" x="562.377" y="-287.5" font-family="Helvetica,sans-Serif" font-size="10.00">command&#45;setter.h</text>
</a>
</g>
</g>
<!-- Node3&#45;&gt;Node9 -->
<g id="edge12" class="edge"><title>Node3&#45;&gt;Node9</title>
<path fill="none" stroke="midnightblue" d="M424.066,-333.436C457.25,-323.255 504.806,-308.664 534.62,-299.516"/>
<polygon fill="midnightblue" stroke="midnightblue" points="422.799,-330.164 414.265,-336.444 424.852,-336.856 422.799,-330.164"/>
</g>
<!-- Node4&#45;&gt;Node5 -->
<g id="edge4" class="edge"><title>Node4&#45;&gt;Node5</title>
<path fill="none" stroke="midnightblue" d="M98.9785,-277.699C135.593,-267.507 188.634,-252.743 221.781,-243.516"/>
<polygon fill="midnightblue" stroke="midnightblue" points="97.8124,-274.39 89.1172,-280.444 99.6895,-281.134 97.8124,-274.39"/>
</g>
<!-- Node6&#45;&gt;Node5 -->
<g id="edge6" class="edge"><title>Node6&#45;&gt;Node5</title>
<path fill="none" stroke="midnightblue" d="M201.691,-274.101C214.289,-264.382 230.305,-252.027 240.926,-243.834"/>
<polygon fill="midnightblue" stroke="midnightblue" points="199.404,-271.445 193.624,-280.324 203.68,-276.987 199.404,-271.445"/>
</g>
<!-- Node7&#45;&gt;Node5 -->
<g id="edge8" class="edge"><title>Node7&#45;&gt;Node5</title>
<path fill="none" stroke="midnightblue" d="M303.063,-274.101C290.466,-264.382 274.449,-252.027 263.829,-243.834"/>
<polygon fill="midnightblue" stroke="midnightblue" points="301.075,-276.987 311.131,-280.324 305.351,-271.445 301.075,-276.987"/>
</g>
<!-- Node8&#45;&gt;Node5 -->
<g id="edge10" class="edge"><title>Node8&#45;&gt;Node5</title>
<path fill="none" stroke="midnightblue" d="M408.148,-277.699C370.968,-267.507 317.106,-252.743 283.447,-243.516"/>
<polygon fill="midnightblue" stroke="midnightblue" points="407.593,-281.175 418.162,-280.444 409.443,-274.424 407.593,-281.175"/>
</g>
<!-- Node9&#45;&gt;Node5 -->
<g id="edge13" class="edge"><title>Node9&#45;&gt;Node5</title>
<path fill="none" stroke="midnightblue" d="M504.45,-278.91C443.862,-268.355 350.153,-252.032 295.685,-242.544"/>
<polygon fill="midnightblue" stroke="midnightblue" points="504.167,-282.413 514.619,-280.681 505.368,-275.517 504.167,-282.413"/>
</g>
<!-- Node11 -->
<g id="node11" class="node"><title>Node11</title>
<g id="a_node11"><a xlink:href="a00091.html" target="_top" xlink:title="signal.h">
<polygon fill="white" stroke="black" points="922.377,-224.5 922.377,-243.5 972.377,-243.5 972.377,-224.5 922.377,-224.5"/>
<text text-anchor="middle" x="947.377" y="-231.5" font-family="Helvetica,sans-Serif" font-size="10.00">signal.h</text>
</a>
</g>
</g>
<!-- Node10&#45;&gt;Node11 -->
<g id="edge16" class="edge"><title>Node10&#45;&gt;Node11</title>
<path fill="none" stroke="midnightblue" d="M947.377,-326.348C947.377,-302.254 947.377,-261.308 947.377,-243.591"/>
<polygon fill="midnightblue" stroke="midnightblue" points="943.877,-326.368 947.377,-336.368 950.877,-326.369 943.877,-326.368"/>
</g>
<!-- Node14 -->
<g id="node14" class="node"><title>Node14</title>
<g id="a_node14"><a xlink:href="a00088.html" target="_top" xlink:title="signal&#45;ptr.h">
<polygon fill="white" stroke="black" points="751.877,-168.5 751.877,-187.5 816.877,-187.5 816.877,-168.5 751.877,-168.5"/>
<text text-anchor="middle" x="784.377" y="-175.5" font-family="Helvetica,sans-Serif" font-size="10.00">signal&#45;ptr.h</text>
</a>
</g>
</g>
<!-- Node10&#45;&gt;Node14 -->
<g id="edge48" class="edge"><title>Node10&#45;&gt;Node14</title>
<path fill="none" stroke="midnightblue" d="M938.744,-327.195C925.714,-301.762 898.942,-254.718 865.377,-224 847.695,-207.817 823.157,-195.228 805.733,-187.531"/>
<polygon fill="midnightblue" stroke="midnightblue" points="935.73,-328.994 943.329,-336.377 941.993,-325.867 935.73,-328.994"/>
</g>
<!-- Node20 -->
<g id="node20" class="node"><title>Node20</title>
<g id="a_node20"><a xlink:href="a00084.html" target="_top" xlink:title="signal&#45;base.h">
<polygon fill="white" stroke="black" points="994.377,-280.5 994.377,-299.5 1068.38,-299.5 1068.38,-280.5 994.377,-280.5"/>
<text text-anchor="middle" x="1031.38" y="-287.5" font-family="Helvetica,sans-Serif" font-size="10.00">signal&#45;base.h</text>
</a>
</g>
</g>
<!-- Node10&#45;&gt;Node20 -->
<g id="edge30" class="edge"><title>Node10&#45;&gt;Node20</title>
<path fill="none" stroke="midnightblue" d="M969.31,-330.901C984.713,-320.999 1004.82,-308.071 1017.91,-299.655"/>
<polygon fill="midnightblue" stroke="midnightblue" points="967.393,-327.972 960.873,-336.324 971.178,-333.86 967.393,-327.972"/>
</g>
<!-- Node10&#45;&gt;Node26 -->
<g id="edge45" class="edge"><title>Node10&#45;&gt;Node26</title>
<path fill="none" stroke="midnightblue" d="M905.383,-333.829C867.055,-323.633 811.226,-308.782 776.393,-299.516"/>
<polygon fill="midnightblue" stroke="midnightblue" points="904.648,-337.255 915.211,-336.444 906.447,-330.49 904.648,-337.255"/>
</g>
<!-- Node10&#45;&gt;Node27 -->
<g id="edge51" class="edge"><title>Node10&#45;&gt;Node27</title>
<path fill="none" stroke="midnightblue" d="M929.966,-329.541C914.593,-316.077 891.416,-296.226 870.377,-280 853.168,-266.728 832.471,-252.468 819.367,-243.639"/>
<polygon fill="midnightblue" stroke="midnightblue" points="927.823,-332.317 937.641,-336.3 932.449,-327.064 927.823,-332.317"/>
</g>
<!-- Node28 -->
<g id="node28" class="node"><title>Node28</title>
<g id="a_node28"><a xlink:href="a00069.html" target="_top" xlink:title="eigen&#45;io.h">
<polygon fill="white" stroke="black" points="802.877,-280.5 802.877,-299.5 861.877,-299.5 861.877,-280.5 802.877,-280.5"/>
<text text-anchor="middle" x="832.377" y="-287.5" font-family="Helvetica,sans-Serif" font-size="10.00">eigen&#45;io.h</text>
</a>
</g>
</g>
<!-- Node10&#45;&gt;Node28 -->
<g id="edge49" class="edge"><title>Node10&#45;&gt;Node28</title>
<path fill="none" stroke="midnightblue" d="M919.897,-332.096C898.411,-322.007 869.155,-308.27 850.514,-299.516"/>
<polygon fill="midnightblue" stroke="midnightblue" points="918.616,-335.361 929.155,-336.444 921.591,-329.025 918.616,-335.361"/>
</g>
<!-- Node12 -->
<g id="node12" class="node"><title>Node12</title>
<g id="a_node12"><a xlink:href="a00056.html" target="_top" xlink:title="all&#45;signals.h">
<polygon fill="white" stroke="black" points="770.377,-56.5 770.377,-75.5 838.377,-75.5 838.377,-56.5 770.377,-56.5"/>
<text text-anchor="middle" x="804.377" y="-63.5" font-family="Helvetica,sans-Serif" font-size="10.00">all&#45;signals.h</text>
</a>
</g>
</g>
<!-- Node11&#45;&gt;Node12 -->
<g id="edge17" class="edge"><title>Node11&#45;&gt;Node12</title>
<path fill="none" stroke="midnightblue" d="M922.64,-219.182C894.514,-202.222 849.168,-170.87 823.377,-132 811.547,-114.17 806.935,-88.8391 805.257,-75.6843"/>
<polygon fill="midnightblue" stroke="midnightblue" points="921.071,-222.32 931.465,-224.372 924.619,-216.286 921.071,-222.32"/>
</g>
<!-- Node13 -->
<g id="node13" class="node"><title>Node13</title>
<g id="a_node13"><a xlink:href="a00092.html" target="_top" xlink:title="signal.t.cpp">
<polygon fill="white" stroke="black" points="666.877,-168.5 666.877,-187.5 733.877,-187.5 733.877,-168.5 666.877,-168.5"/>
<text text-anchor="middle" x="700.377" y="-175.5" font-family="Helvetica,sans-Serif" font-size="10.00">signal.t.cpp</text>
</a>
</g>
</g>
<!-- Node11&#45;&gt;Node13 -->
<g id="edge18" class="edge"><title>Node11&#45;&gt;Node13</title>
<path fill="none" stroke="midnightblue" d="M912.495,-226.383C864.954,-216.577 780.712,-198.193 733.892,-187.434"/>
<polygon fill="midnightblue" stroke="midnightblue" points="911.84,-229.821 922.338,-228.396 913.243,-222.963 911.84,-229.821"/>
</g>
<!-- Node11&#45;&gt;Node14 -->
<g id="edge20" class="edge"><title>Node11&#45;&gt;Node14</title>
<path fill="none" stroke="midnightblue" d="M912.393,-221.41C881.653,-211.226 837.642,-196.646 810.056,-187.507"/>
<polygon fill="midnightblue" stroke="midnightblue" points="911.672,-224.858 922.266,-224.681 913.874,-218.214 911.672,-224.858"/>
</g>
<!-- Node17 -->
<g id="node17" class="node"><title>Node17</title>
<g id="a_node17"><a xlink:href="a00090.html" target="_top" xlink:title="signal&#45;time&#45;dependent.h">
<polygon fill="white" stroke="black" points="966.377,-112.5 966.377,-131.5 1086.38,-131.5 1086.38,-112.5 966.377,-112.5"/>
<text text-anchor="middle" x="1026.38" y="-119.5" font-family="Helvetica,sans-Serif" font-size="10.00">signal&#45;time&#45;dependent.h</text>
</a>
</g>
</g>
<!-- Node11&#45;&gt;Node17 -->
<g id="edge25" class="edge"><title>Node11&#45;&gt;Node17</title>
<path fill="none" stroke="midnightblue" d="M950.028,-214.047C952.67,-200.297 957.776,-181.771 967.377,-168 978.429,-152.149 996.786,-139.424 1010.09,-131.603"/>
<polygon fill="midnightblue" stroke="midnightblue" points="946.517,-213.829 948.344,-224.265 953.424,-214.967 946.517,-213.829"/>
</g>
<!-- Node13&#45;&gt;Node11 -->
<g id="edge19" class="edge"><title>Node13&#45;&gt;Node11</title>
<path fill="none" stroke="midnightblue" d="M743.953,-187.421C795.733,-198.216 880.139,-216.703 922.168,-226.486"/>
<polygon fill="midnightblue" stroke="midnightblue" points="744.556,-183.971 734.054,-185.369 743.135,-190.826 744.556,-183.971"/>
</g>
<!-- Node14&#45;&gt;Node12 -->
<g id="edge21" class="edge"><title>Node14&#45;&gt;Node12</title>
<path fill="none" stroke="midnightblue" d="M767.827,-160.937C756.448,-147.857 744.67,-128.863 752.377,-112 759.772,-95.821 776.175,-83.2312 788.594,-75.5333"/>
<polygon fill="midnightblue" stroke="midnightblue" points="765.289,-163.347 774.683,-168.246 770.394,-158.558 765.289,-163.347"/>
</g>
<!-- Node15 -->
<g id="node15" class="node"><title>Node15</title>
<g id="a_node15"><a xlink:href="a00089.html" target="_top" xlink:title="signal&#45;ptr.t.cpp">
<polygon fill="white" stroke="black" points="618.877,-112.5 618.877,-131.5 699.877,-131.5 699.877,-112.5 618.877,-112.5"/>
<text text-anchor="middle" x="659.377" y="-119.5" font-family="Helvetica,sans-Serif" font-size="10.00">signal&#45;ptr.t.cpp</text>
</a>
</g>
</g>
<!-- Node14&#45;&gt;Node15 -->
<g id="edge22" class="edge"><title>Node14&#45;&gt;Node15</title>
<path fill="none" stroke="midnightblue" d="M749.984,-164.638C725.028,-154.504 692.675,-140.427 674.011,-131.516"/>
<polygon fill="midnightblue" stroke="midnightblue" points="748.898,-167.973 759.482,-168.444 751.501,-161.475 748.898,-167.973"/>
</g>
<!-- Node16 -->
<g id="node16" class="node"><title>Node16</title>
<g id="a_node16"><a xlink:href="a00087.html" target="_top" xlink:title="signal&#45;helper.h">
<polygon fill="white" stroke="black" points="986.377,-56.5 986.377,-75.5 1066.38,-75.5 1066.38,-56.5 986.377,-56.5"/>
<text text-anchor="middle" x="1026.38" y="-63.5" font-family="Helvetica,sans-Serif" font-size="10.00">signal&#45;helper.h</text>
</a>
</g>
</g>
<!-- Node14&#45;&gt;Node16 -->
<g id="edge24" class="edge"><title>Node14&#45;&gt;Node16</title>
<path fill="none" stroke="midnightblue" d="M790.701,-158.633C796.77,-143.782 807.395,-123.513 823.377,-112 871.706,-77.1857 942.066,-68.5553 985.982,-66.8187"/>
<polygon fill="midnightblue" stroke="midnightblue" points="787.315,-157.695 787.076,-168.287 793.868,-160.156 787.315,-157.695"/>
</g>
<!-- Node15&#45;&gt;Node14 -->
<g id="edge23" class="edge"><title>Node15&#45;&gt;Node14</title>
<path fill="none" stroke="midnightblue" d="M693.659,-135.317C718.593,-145.439 750.954,-159.517 769.659,-168.444"/>
<polygon fill="midnightblue" stroke="midnightblue" points="694.756,-131.986 684.171,-131.516 692.153,-138.484 694.756,-131.986"/>
</g>
<!-- Node17&#45;&gt;Node12 -->
<g id="edge26" class="edge"><title>Node17&#45;&gt;Node12</title>
<path fill="none" stroke="midnightblue" d="M981.459,-110.074C939.253,-99.8075 877.003,-84.6657 838.66,-75.339"/>
<polygon fill="midnightblue" stroke="midnightblue" points="980.657,-113.481 991.201,-112.444 982.311,-106.679 980.657,-113.481"/>
</g>
<!-- Node17&#45;&gt;Node16 -->
<g id="edge27" class="edge"><title>Node17&#45;&gt;Node16</title>
<path fill="none" stroke="midnightblue" d="M1026.38,-101.805C1026.38,-92.9102 1026.38,-82.7798 1026.38,-75.7511"/>
<polygon fill="midnightblue" stroke="midnightblue" points="1022.88,-102.083 1026.38,-112.083 1029.88,-102.083 1022.88,-102.083"/>
</g>
<!-- Node18 -->
<g id="node18" class="node"><title>Node18</title>
<g id="a_node18"><a xlink:href="a00097.html" target="_top" xlink:title="tracer.h">
<polygon fill="white" stroke="black" points="1127.38,-56.5 1127.38,-75.5 1177.38,-75.5 1177.38,-56.5 1127.38,-56.5"/>
<text text-anchor="middle" x="1152.38" y="-63.5" font-family="Helvetica,sans-Serif" font-size="10.00">tracer.h</text>
</a>
</g>
</g>
<!-- Node17&#45;&gt;Node18 -->
<g id="edge28" class="edge"><title>Node17&#45;&gt;Node18</title>
<path fill="none" stroke="midnightblue" d="M1055.54,-108.503C1079.16,-98.3795 1111.81,-84.388 1132.51,-75.5164"/>
<polygon fill="midnightblue" stroke="midnightblue" points="1054.16,-105.287 1046.34,-112.444 1056.91,-111.721 1054.16,-105.287"/>
</g>
<!-- Node19 -->
<g id="node19" class="node"><title>Node19</title>
<g id="a_node19"><a xlink:href="a00095.html" target="_top" xlink:title="tracer&#45;real&#45;time.h">
<polygon fill="white" stroke="black" points="1107.38,-0.5 1107.38,-19.5 1197.38,-19.5 1197.38,-0.5 1107.38,-0.5"/>
<text text-anchor="middle" x="1152.38" y="-7.5" font-family="Helvetica,sans-Serif" font-size="10.00">tracer&#45;real&#45;time.h</text>
</a>
</g>
</g>
<!-- Node18&#45;&gt;Node19 -->
<g id="edge29" class="edge"><title>Node18&#45;&gt;Node19</title>
<path fill="none" stroke="midnightblue" d="M1152.38,-45.8045C1152.38,-36.9102 1152.38,-26.7798 1152.38,-19.7511"/>
<polygon fill="midnightblue" stroke="midnightblue" points="1148.88,-46.083 1152.38,-56.083 1155.88,-46.083 1148.88,-46.083"/>
</g>
<!-- Node20&#45;&gt;Node11 -->
<g id="edge31" class="edge"><title>Node20&#45;&gt;Node11</title>
<path fill="none" stroke="midnightblue" d="M1009.44,-274.901C994.042,-264.999 973.932,-252.071 960.84,-243.655"/>
<polygon fill="midnightblue" stroke="midnightblue" points="1007.58,-277.86 1017.88,-280.324 1011.36,-271.972 1007.58,-277.86"/>
</g>
<!-- Node20&#45;&gt;Node18 -->
<g id="edge44" class="edge"><title>Node20&#45;&gt;Node18</title>
<path fill="none" stroke="midnightblue" d="M1041.44,-271.319C1063.95,-231.747 1116.7,-138.957 1120.38,-132 1130.85,-112.21 1142.23,-88.5154 1148.19,-75.9139"/>
<polygon fill="midnightblue" stroke="midnightblue" points="1038.32,-269.725 1036.41,-280.148 1044.4,-273.187 1038.32,-269.725"/>
</g>
<!-- Node21 -->
<g id="node21" class="node"><title>Node21</title>
<g id="a_node21"><a xlink:href="a00093.html" target="_top" xlink:title="time&#45;dependency.h">
<polygon fill="white" stroke="black" points="976.877,-168.5 976.877,-187.5 1075.88,-187.5 1075.88,-168.5 976.877,-168.5"/>
<text text-anchor="middle" x="1026.38" y="-175.5" font-family="Helvetica,sans-Serif" font-size="10.00">time&#45;dependency.h</text>
</a>
</g>
</g>
<!-- Node20&#45;&gt;Node21 -->
<g id="edge32" class="edge"><title>Node20&#45;&gt;Node21</title>
<path fill="none" stroke="midnightblue" d="M1027.85,-270.547C1026.47,-262.437 1025.06,-252.78 1024.38,-244 1022.83,-223.963 1024.4,-200.365 1025.5,-187.845"/>
<polygon fill="midnightblue" stroke="midnightblue" points="1024.41,-271.204 1029.64,-280.419 1031.3,-269.955 1024.41,-271.204"/>
</g>
<!-- Node20&#45;&gt;Node23 -->
<g id="edge37" class="edge"><title>Node20&#45;&gt;Node23</title>
<path fill="none" stroke="midnightblue" d="M1058.38,-275.862C1078.97,-265.849 1106.72,-252.346 1124.59,-243.655"/>
<polygon fill="midnightblue" stroke="midnightblue" points="1056.67,-272.802 1049.21,-280.324 1059.73,-279.097 1056.67,-272.802"/>
</g>
<!-- Node20&#45;&gt;Node24 -->
<g id="edge42" class="edge"><title>Node20&#45;&gt;Node24</title>
<path fill="none" stroke="midnightblue" d="M1044.56,-272.376C1056.59,-258.071 1075.47,-237.641 1095.38,-224 1120.21,-206.985 1152.51,-194.235 1174.48,-186.729"/>
<polygon fill="midnightblue" stroke="midnightblue" points="1041.64,-270.421 1038.01,-280.376 1047.06,-274.856 1041.64,-270.421"/>
</g>
<!-- Node20&#45;&gt;Node25 -->
<g id="edge43" class="edge"><title>Node20&#45;&gt;Node25</title>
<path fill="none" stroke="midnightblue" d="M1078.4,-280.45C1143.57,-268.601 1258.71,-247.667 1306.57,-238.966"/>
<polygon fill="midnightblue" stroke="midnightblue" points="1077.6,-277.038 1068.39,-282.27 1078.86,-283.925 1077.6,-277.038"/>
</g>
<!-- Node21&#45;&gt;Node17 -->
<g id="edge33" class="edge"><title>Node21&#45;&gt;Node17</title>
<path fill="none" stroke="midnightblue" d="M1026.38,-157.805C1026.38,-148.91 1026.38,-138.78 1026.38,-131.751"/>
<polygon fill="midnightblue" stroke="midnightblue" points="1022.88,-158.083 1026.38,-168.083 1029.88,-158.083 1022.88,-158.083"/>
</g>
<!-- Node21&#45;&gt;Node18 -->
<g id="edge36" class="edge"><title>Node21&#45;&gt;Node18</title>
<path fill="none" stroke="midnightblue" d="M1050.91,-163.252C1064.63,-155.024 1081.68,-143.876 1095.38,-132 1116.01,-114.103 1136.12,-88.8004 1146.02,-75.6676"/>
<polygon fill="midnightblue" stroke="midnightblue" points="1048.88,-160.383 1042.02,-168.456 1052.42,-166.424 1048.88,-160.383"/>
</g>
<!-- Node22 -->
<g id="node22" class="node"><title>Node22</title>
<g id="a_node22"><a xlink:href="a00094.html" target="_top" xlink:title="time&#45;dependency.t.cpp">
<polygon fill="white" stroke="black" points="832.377,-112.5 832.377,-131.5 948.377,-131.5 948.377,-112.5 832.377,-112.5"/>
<text text-anchor="middle" x="890.377" y="-119.5" font-family="Helvetica,sans-Serif" font-size="10.00">time&#45;dependency.t.cpp</text>
</a>
</g>
</g>
<!-- Node21&#45;&gt;Node22 -->
<g id="edge34" class="edge"><title>Node21&#45;&gt;Node22</title>
<path fill="none" stroke="midnightblue" d="M990.181,-164.906C963.07,-154.754 927.407,-140.506 906.746,-131.516"/>
<polygon fill="midnightblue" stroke="midnightblue" points="989.146,-168.255 999.739,-168.444 991.576,-161.69 989.146,-168.255"/>
</g>
<!-- Node22&#45;&gt;Node21 -->
<g id="edge35" class="edge"><title>Node22&#45;&gt;Node21</title>
<path fill="none" stroke="midnightblue" d="M926.453,-135.049C953.539,-145.189 989.211,-159.438 1009.92,-168.444"/>
<polygon fill="midnightblue" stroke="midnightblue" points="927.499,-131.704 916.906,-131.516 925.07,-138.269 927.499,-131.704"/>
</g>
<!-- Node23&#45;&gt;Node21 -->
<g id="edge38" class="edge"><title>Node23&#45;&gt;Node21</title>
<path fill="none" stroke="midnightblue" d="M1114.66,-220.096C1092.99,-210.007 1063.48,-196.27 1044.67,-187.516"/>
<polygon fill="midnightblue" stroke="midnightblue" points="1113.45,-223.396 1124,-224.444 1116.41,-217.05 1113.45,-223.396"/>
</g>
<!-- Node23&#45;&gt;Node24 -->
<g id="edge39" class="edge"><title>Node23&#45;&gt;Node24</title>
<path fill="none" stroke="midnightblue" d="M1159,-217.253C1169.11,-207.673 1181.65,-195.791 1190.05,-187.834"/>
<polygon fill="midnightblue" stroke="midnightblue" points="1156.39,-214.906 1151.54,-224.324 1161.2,-219.987 1156.39,-214.906"/>
</g>
<!-- Node24&#45;&gt;Node16 -->
<g id="edge40" class="edge"><title>Node24&#45;&gt;Node16</title>
<path fill="none" stroke="midnightblue" d="M1176.91,-162.714C1140.45,-139.535 1069.52,-94.4303 1039.89,-75.5914"/>
<polygon fill="midnightblue" stroke="midnightblue" points="1175.49,-165.956 1185.8,-168.368 1179.24,-160.049 1175.49,-165.956"/>
</g>
<!-- Node24&#45;&gt;Node18 -->
<g id="edge41" class="edge"><title>Node24&#45;&gt;Node18</title>
<path fill="none" stroke="midnightblue" d="M1205.54,-158.113C1208.83,-144.661 1210.99,-126.476 1204.38,-112 1196.98,-95.821 1180.58,-83.2312 1168.16,-75.5333"/>
<polygon fill="midnightblue" stroke="midnightblue" points="1202.06,-157.537 1202.68,-168.114 1208.79,-159.464 1202.06,-157.537"/>
</g>
<!-- Node26&#45;&gt;Node13 -->
<g id="edge46" class="edge"><title>Node26&#45;&gt;Node13</title>
<path fill="none" stroke="midnightblue" d="M737.177,-270.998C727.576,-246.997 710.965,-205.468 703.814,-187.591"/>
<polygon fill="midnightblue" stroke="midnightblue" points="733.961,-272.384 740.925,-280.368 740.46,-269.784 733.961,-272.384"/>
</g>
<!-- Node26&#45;&gt;Node27 -->
<g id="edge47" class="edge"><title>Node26&#45;&gt;Node27</title>
<path fill="none" stroke="midnightblue" d="M762.131,-273.537C773.186,-263.909 787.009,-251.869 796.235,-243.834"/>
<polygon fill="midnightblue" stroke="midnightblue" points="759.581,-271.117 754.339,-280.324 764.178,-276.395 759.581,-271.117"/>
</g>
<!-- Node28&#45;&gt;Node27 -->
<g id="edge50" class="edge"><title>Node28&#45;&gt;Node27</title>
<path fill="none" stroke="midnightblue" d="M823.702,-270.983C819.289,-261.817 814.125,-251.092 810.591,-243.751"/>
<polygon fill="midnightblue" stroke="midnightblue" points="820.592,-272.591 828.084,-280.083 826.899,-269.555 820.592,-272.591"/>
</g>
<!-- Node29&#45;&gt;Node10 -->
<g id="edge53" class="edge"><title>Node29&#45;&gt;Node10</title>
<path fill="none" stroke="midnightblue" d="M1159.6,-390.41C1109.71,-380.204 1035.18,-364.96 989.013,-355.516"/>
<polygon fill="midnightblue" stroke="midnightblue" points="1159.05,-393.869 1169.55,-392.444 1160.45,-387.01 1159.05,-393.869"/>
</g>
<!-- Node29&#45;&gt;Node30 -->
<g id="edge54" class="edge"><title>Node29&#45;&gt;Node30</title>
<path fill="none" stroke="midnightblue" d="M1252.19,-389.699C1288.99,-379.507 1342.31,-364.743 1375.62,-355.516"/>
<polygon fill="midnightblue" stroke="midnightblue" points="1250.98,-386.402 1242.28,-392.444 1252.85,-393.148 1250.98,-386.402"/>
</g>
<!-- Node29&#45;&gt;Node32 -->
<g id="edge58" class="edge"><title>Node29&#45;&gt;Node32</title>
<path fill="none" stroke="midnightblue" d="M1224.08,-383.855C1231,-374.505 1239.28,-363.327 1244.9,-355.751"/>
<polygon fill="midnightblue" stroke="midnightblue" points="1221.12,-381.964 1217.98,-392.083 1226.75,-386.131 1221.12,-381.964"/>
</g>
<!-- Node30&#45;&gt;Node24 -->
<g id="edge55" class="edge"><title>Node30&#45;&gt;Node24</title>
<path fill="none" stroke="midnightblue" d="M1404.31,-326.272C1400.37,-299.674 1389.3,-251.175 1359.38,-224 1321.25,-189.375 1258.5,-181.157 1224.01,-179.355"/>
<polygon fill="midnightblue" stroke="midnightblue" points="1400.84,-326.737 1405.6,-336.204 1407.78,-325.837 1400.84,-326.737"/>
</g>
<!-- Node30&#45;&gt;Node25 -->
<g id="edge57" class="edge"><title>Node30&#45;&gt;Node25</title>
<path fill="none" stroke="midnightblue" d="M1394.29,-327.957C1377.39,-304.118 1347.32,-261.709 1334.47,-243.591"/>
<polygon fill="midnightblue" stroke="midnightblue" points="1391.62,-330.236 1400.26,-336.368 1397.33,-326.187 1391.62,-330.236"/>
</g>
<!-- Node30&#45;&gt;Node31 -->
<g id="edge56" class="edge"><title>Node30&#45;&gt;Node31</title>
<path fill="none" stroke="midnightblue" d="M1425.21,-329.82C1437.22,-320.145 1452.35,-307.948 1462.42,-299.834"/>
<polygon fill="midnightblue" stroke="midnightblue" points="1422.73,-327.324 1417.14,-336.324 1427.12,-332.774 1422.73,-327.324"/>
</g>
<!-- Node32&#45;&gt;Node18 -->
<g id="edge59" class="edge"><title>Node32&#45;&gt;Node18</title>
<path fill="none" stroke="midnightblue" d="M1255.43,-326.657C1259.87,-304.905 1266.38,-267.498 1266.38,-235 1266.38,-235 1266.38,-235 1266.38,-177 1266.38,-125.707 1205.87,-90.7686 1173.02,-75.5787"/>
<polygon fill="midnightblue" stroke="midnightblue" points="1251.99,-325.987 1253.34,-336.496 1258.84,-327.441 1251.99,-325.987"/>
</g>
<!-- Node33&#45;&gt;Node13 -->
<g id="edge62" class="edge"><title>Node33&#45;&gt;Node13</title>
<path fill="none" stroke="midnightblue" d="M656.131,-217.537C667.186,-207.909 681.009,-195.869 690.235,-187.834"/>
<polygon fill="midnightblue" stroke="midnightblue" points="653.581,-215.117 648.339,-224.324 658.178,-220.395 653.581,-215.117"/>
</g>
<!-- Node33&#45;&gt;Node15 -->
<g id="edge63" class="edge"><title>Node33&#45;&gt;Node15</title>
<path fill="none" stroke="midnightblue" d="M629.36,-215.043C623.949,-201.816 619.056,-183.508 624.377,-168 629.388,-153.396 641.289,-139.88 649.822,-131.55"/>
<polygon fill="midnightblue" stroke="midnightblue" points="626.296,-216.761 633.625,-224.412 632.667,-213.86 626.296,-216.761"/>
</g>
<!-- Node33&#45;&gt;Node22 -->
<g id="edge64" class="edge"><title>Node33&#45;&gt;Node22</title>
<path fill="none" stroke="midnightblue" d="M638.793,-214.375C640.158,-199.668 644.492,-179.732 657.377,-168 682.471,-145.151 771.766,-133.074 832.236,-127.367"/>
<polygon fill="midnightblue" stroke="midnightblue" points="635.298,-214.201 638.235,-224.38 642.287,-214.591 635.298,-214.201"/>
</g>
</g>
</svg>
