<?xml version="1.0" encoding="UTF-8" standalone="no"?>
<!DOCTYPE svg PUBLIC "-//W3C//DTD SVG 1.1//EN"
 "http://www.w3.org/Graphics/SVG/1.1/DTD/svg11.dtd">
<!-- Generated by graphviz version 2.38.0 (20140413.2041)
 -->
<!-- Title: time&#45;dependency.t.cpp Pages: 1 -->
<svg width="263pt" height="252pt"
 viewBox="0.00 0.00 263.00 252.00" xmlns="http://www.w3.org/2000/svg" xmlns:xlink="http://www.w3.org/1999/xlink">
<g id="graph0" class="graph" transform="scale(1 1) rotate(0) translate(4 248)">
<title>time&#45;dependency.t.cpp</title>
<polygon fill="white" stroke="none" points="-4,4 -4,-248 259,-248 259,4 -4,4"/>
<!-- Node1 -->
<g id="node1" class="node"><title>Node1</title>
<polygon fill="#bfbfbf" stroke="black" points="110,-224.5 110,-243.5 226,-243.5 226,-224.5 110,-224.5"/>
<text text-anchor="middle" x="168" y="-231.5" font-family="Helvetica,sans-Serif" font-size="10.00">time&#45;dependency.t.cpp</text>
</g>
<!-- Node2 -->
<g id="node2" class="node"><title>Node2</title>
<g id="a_node2"><a xlink:href="a00092.html" target="_top" xlink:title="time&#45;dependency.h">
<polygon fill="white" stroke="black" points="118.5,-168.5 118.5,-187.5 217.5,-187.5 217.5,-168.5 118.5,-168.5"/>
<text text-anchor="middle" x="168" y="-175.5" font-family="Helvetica,sans-Serif" font-size="10.00">time&#45;dependency.h</text>
</a>
</g>
</g>
<!-- Node1&#45;&gt;Node2 -->
<g id="edge1" class="edge"><title>Node1&#45;&gt;Node2</title>
<path fill="none" stroke="midnightblue" d="M161.528,-214.101C160.896,-205.136 161.343,-194.858 162.869,-187.751"/>
<polygon fill="midnightblue" stroke="midnightblue" points="158.066,-214.622 162.834,-224.083 165.007,-213.713 158.066,-214.622"/>
</g>
<!-- Node2&#45;&gt;Node1 -->
<g id="edge7" class="edge"><title>Node2&#45;&gt;Node1</title>
<path fill="none" stroke="midnightblue" d="M174.458,-197.691C175.106,-206.635 174.676,-216.927 173.166,-224.083"/>
<polygon fill="midnightblue" stroke="midnightblue" points="177.923,-197.2 173.131,-187.751 170.985,-198.126 177.923,-197.2"/>
</g>
<!-- Node3 -->
<g id="node3" class="node"><title>Node3</title>
<g id="a_node3"><a xlink:href="a00089.html" target="_top" xlink:title="signal&#45;time&#45;dependent.h">
<polygon fill="white" stroke="black" points="64,-112.5 64,-131.5 184,-131.5 184,-112.5 64,-112.5"/>
<text text-anchor="middle" x="124" y="-119.5" font-family="Helvetica,sans-Serif" font-size="10.00">signal&#45;time&#45;dependent.h</text>
</a>
</g>
</g>
<!-- Node2&#45;&gt;Node3 -->
<g id="edge2" class="edge"><title>Node2&#45;&gt;Node3</title>
<path fill="none" stroke="midnightblue" d="M154.265,-160.144C146.599,-150.736 137.367,-139.405 131.131,-131.751"/>
<polygon fill="midnightblue" stroke="midnightblue" points="151.704,-162.541 160.734,-168.083 157.131,-158.12 151.704,-162.541"/>
</g>
<!-- Node6 -->
<g id="node6" class="node"><title>Node6</title>
<g id="a_node6"><a xlink:href="a00096.html" target="_top" xlink:title="tracer.h">
<polygon fill="white" stroke="black" points="185,-56.5 185,-75.5 235,-75.5 235,-56.5 185,-56.5"/>
<text text-anchor="middle" x="210" y="-63.5" font-family="Helvetica,sans-Serif" font-size="10.00">tracer.h</text>
</a>
</g>
</g>
<!-- Node2&#45;&gt;Node6 -->
<g id="edge8" class="edge"><title>Node2&#45;&gt;Node6</title>
<path fill="none" stroke="midnightblue" d="M178.916,-159.765C183.74,-151.589 189.174,-141.539 193,-132 200.816,-112.513 206.045,-88.2948 208.461,-75.6325"/>
<polygon fill="midnightblue" stroke="midnightblue" points="175.891,-158.003 173.664,-168.361 181.865,-161.652 175.891,-158.003"/>
</g>
<!-- Node4 -->
<g id="node4" class="node"><title>Node4</title>
<g id="a_node4"><a xlink:href="a00055.html" target="_top" xlink:title="all&#45;signals.h">
<polygon fill="white" stroke="black" points="0,-56.5 0,-75.5 68,-75.5 68,-56.5 0,-56.5"/>
<text text-anchor="middle" x="34" y="-63.5" font-family="Helvetica,sans-Serif" font-size="10.00">all&#45;signals.h</text>
</a>
</g>
</g>
<!-- Node3&#45;&gt;Node4 -->
<g id="edge3" class="edge"><title>Node3&#45;&gt;Node4</title>
<path fill="none" stroke="midnightblue" d="M100.962,-107.177C84.4011,-97.2407 62.582,-84.1492 48.4242,-75.6545"/>
<polygon fill="midnightblue" stroke="midnightblue" points="99.1642,-110.18 109.54,-112.324 102.766,-104.178 99.1642,-110.18"/>
</g>
<!-- Node5 -->
<g id="node5" class="node"><title>Node5</title>
<g id="a_node5"><a xlink:href="a00086.html" target="_top" xlink:title="signal&#45;helper.h">
<polygon fill="white" stroke="black" points="86,-56.5 86,-75.5 166,-75.5 166,-56.5 86,-56.5"/>
<text text-anchor="middle" x="126" y="-63.5" font-family="Helvetica,sans-Serif" font-size="10.00">signal&#45;helper.h</text>
</a>
</g>
</g>
<!-- Node3&#45;&gt;Node5 -->
<g id="edge4" class="edge"><title>Node3&#45;&gt;Node5</title>
<path fill="none" stroke="midnightblue" d="M124.711,-101.805C125.04,-92.9102 125.416,-82.7798 125.676,-75.7511"/>
<polygon fill="midnightblue" stroke="midnightblue" points="121.203,-101.96 124.33,-112.083 128.198,-102.219 121.203,-101.96"/>
</g>
<!-- Node3&#45;&gt;Node6 -->
<g id="edge5" class="edge"><title>Node3&#45;&gt;Node6</title>
<path fill="none" stroke="midnightblue" d="M146.455,-106.901C162.224,-96.9986 182.814,-84.0705 196.217,-75.6545"/>
<polygon fill="midnightblue" stroke="midnightblue" points="144.425,-104.042 137.817,-112.324 148.148,-109.97 144.425,-104.042"/>
</g>
<!-- Node7 -->
<g id="node7" class="node"><title>Node7</title>
<g id="a_node7"><a xlink:href="a00094.html" target="_top" xlink:title="tracer&#45;real&#45;time.h">
<polygon fill="white" stroke="black" points="165,-0.5 165,-19.5 255,-19.5 255,-0.5 165,-0.5"/>
<text text-anchor="middle" x="210" y="-7.5" font-family="Helvetica,sans-Serif" font-size="10.00">tracer&#45;real&#45;time.h</text>
</a>
</g>
</g>
<!-- Node6&#45;&gt;Node7 -->
<g id="edge6" class="edge"><title>Node6&#45;&gt;Node7</title>
<path fill="none" stroke="midnightblue" d="M210,-45.8045C210,-36.9102 210,-26.7798 210,-19.7511"/>
<polygon fill="midnightblue" stroke="midnightblue" points="206.5,-46.083 210,-56.083 213.5,-46.083 206.5,-46.083"/>
</g>
</g>
</svg>
