<?xml version="1.0" encoding="UTF-8" standalone="no"?>
<!DOCTYPE svg PUBLIC "-//W3C//DTD SVG 1.1//EN"
 "http://www.w3.org/Graphics/SVG/1.1/DTD/svg11.dtd">
<!-- Generated by graphviz version 2.38.0 (20140413.2041)
 -->
<!-- Title: linear&#45;algebra.h Pages: 1 -->
<svg width="704pt" height="252pt"
 viewBox="0.00 0.00 704.00 252.00" xmlns="http://www.w3.org/2000/svg" xmlns:xlink="http://www.w3.org/1999/xlink">
<g id="graph0" class="graph" transform="scale(1 1) rotate(0) translate(4 248)">
<title>linear&#45;algebra.h</title>
<polygon fill="white" stroke="none" points="-4,4 -4,-248 700,-248 700,4 -4,4"/>
<!-- Node1 -->
<g id="node1" class="node"><title>Node1</title>
<polygon fill="#bfbfbf" stroke="black" points="479,-224.5 479,-243.5 562,-243.5 562,-224.5 479,-224.5"/>
<text text-anchor="middle" x="520.5" y="-231.5" font-family="Helvetica,sans-Serif" font-size="10.00">linear&#45;algebra.h</text>
</g>
<!-- Node2 -->
<g id="node2" class="node"><title>Node2</title>
<g id="a_node2"><a xlink:href="a00099.html" target="_top" xlink:title="value.h">
<polygon fill="white" stroke="black" points="350.5,-168.5 350.5,-187.5 398.5,-187.5 398.5,-168.5 350.5,-168.5"/>
<text text-anchor="middle" x="374.5" y="-175.5" font-family="Helvetica,sans-Serif" font-size="10.00">value.h</text>
</a>
</g>
</g>
<!-- Node1&#45;&gt;Node2 -->
<g id="edge1" class="edge"><title>Node1&#45;&gt;Node2</title>
<path fill="none" stroke="midnightblue" d="M487.801,-220.906C460.352,-210.754 421.832,-196.506 397.526,-187.516"/>
<polygon fill="midnightblue" stroke="midnightblue" points="486.773,-224.257 497.366,-224.444 489.201,-217.692 486.773,-224.257"/>
</g>
<!-- Node10 -->
<g id="node10" class="node"><title>Node10</title>
<g id="a_node10"><a xlink:href="a00063.html" target="_top" xlink:title="command&#45;setter.t.cpp">
<polygon fill="white" stroke="black" points="464.5,-112.5 464.5,-131.5 576.5,-131.5 576.5,-112.5 464.5,-112.5"/>
<text text-anchor="middle" x="520.5" y="-119.5" font-family="Helvetica,sans-Serif" font-size="10.00">command&#45;setter.t.cpp</text>
</a>
</g>
</g>
<!-- Node1&#45;&gt;Node10 -->
<g id="edge14" class="edge"><title>Node1&#45;&gt;Node10</title>
<path fill="none" stroke="midnightblue" d="M520.5,-214.348C520.5,-190.254 520.5,-149.308 520.5,-131.591"/>
<polygon fill="midnightblue" stroke="midnightblue" points="517,-214.368 520.5,-224.368 524,-214.369 517,-214.368"/>
</g>
<!-- Node11 -->
<g id="node11" class="node"><title>Node11</title>
<g id="a_node11"><a xlink:href="a00069.html" target="_top" xlink:title="eigen&#45;io.h">
<polygon fill="white" stroke="black" points="582,-168.5 582,-187.5 641,-187.5 641,-168.5 582,-168.5"/>
<text text-anchor="middle" x="611.5" y="-175.5" font-family="Helvetica,sans-Serif" font-size="10.00">eigen&#45;io.h</text>
</a>
</g>
</g>
<!-- Node1&#45;&gt;Node11 -->
<g id="edge16" class="edge"><title>Node1&#45;&gt;Node11</title>
<path fill="none" stroke="midnightblue" d="M543.794,-219.177C560.539,-209.241 582.6,-196.149 596.916,-187.655"/>
<polygon fill="midnightblue" stroke="midnightblue" points="541.934,-216.211 535.121,-224.324 545.507,-222.231 541.934,-216.211"/>
</g>
<!-- Node3 -->
<g id="node3" class="node"><title>Node3</title>
<g id="a_node3"><a xlink:href="a00064.html" target="_top" xlink:title="command.h">
<polygon fill="white" stroke="black" points="312.5,-112.5 312.5,-131.5 380.5,-131.5 380.5,-112.5 312.5,-112.5"/>
<text text-anchor="middle" x="346.5" y="-119.5" font-family="Helvetica,sans-Serif" font-size="10.00">command.h</text>
</a>
</g>
</g>
<!-- Node2&#45;&gt;Node3 -->
<g id="edge2" class="edge"><title>Node2&#45;&gt;Node3</title>
<path fill="none" stroke="midnightblue" d="M365.158,-158.983C360.405,-149.817 354.844,-139.092 351.038,-131.751"/>
<polygon fill="midnightblue" stroke="midnightblue" points="362.166,-160.817 369.876,-168.083 368.38,-157.594 362.166,-160.817"/>
</g>
<!-- Node4 -->
<g id="node4" class="node"><title>Node4</title>
<g id="a_node4"><a xlink:href="a00057.html" target="_top" xlink:title="command&#45;bind.h">
<polygon fill="white" stroke="black" points="0,-56.5 0,-75.5 89,-75.5 89,-56.5 0,-56.5"/>
<text text-anchor="middle" x="44.5" y="-63.5" font-family="Helvetica,sans-Serif" font-size="10.00">command&#45;bind.h</text>
</a>
</g>
</g>
<!-- Node3&#45;&gt;Node4 -->
<g id="edge3" class="edge"><title>Node3&#45;&gt;Node4</title>
<path fill="none" stroke="midnightblue" d="M302.293,-113.095C245.229,-102.892 146.48,-85.2348 89.1843,-74.9899"/>
<polygon fill="midnightblue" stroke="midnightblue" points="301.984,-116.596 312.444,-114.91 303.216,-109.705 301.984,-116.596"/>
</g>
<!-- Node5 -->
<g id="node5" class="node"><title>Node5</title>
<g id="a_node5"><a xlink:href="a00055.html" target="_top" xlink:title="all&#45;commands.h">
<polygon fill="white" stroke="black" points="233.5,-0.5 233.5,-19.5 319.5,-19.5 319.5,-0.5 233.5,-0.5"/>
<text text-anchor="middle" x="276.5" y="-7.5" font-family="Helvetica,sans-Serif" font-size="10.00">all&#45;commands.h</text>
</a>
</g>
</g>
<!-- Node3&#45;&gt;Node5 -->
<g id="edge11" class="edge"><title>Node3&#45;&gt;Node5</title>
<path fill="none" stroke="midnightblue" d="M302.198,-117.894C246.856,-112.986 156.925,-101.266 136.5,-76 107.27,-39.8435 181.966,-22.8399 233.145,-15.6357"/>
<polygon fill="midnightblue" stroke="midnightblue" points="302.18,-121.405 312.439,-118.76 302.77,-114.43 302.18,-121.405"/>
</g>
<!-- Node6 -->
<g id="node6" class="node"><title>Node6</title>
<g id="a_node6"><a xlink:href="a00058.html" target="_top" xlink:title="command&#45;direct&#45;getter.h">
<polygon fill="white" stroke="black" points="145.5,-56.5 145.5,-75.5 267.5,-75.5 267.5,-56.5 145.5,-56.5"/>
<text text-anchor="middle" x="206.5" y="-63.5" font-family="Helvetica,sans-Serif" font-size="10.00">command&#45;direct&#45;getter.h</text>
</a>
</g>
</g>
<!-- Node3&#45;&gt;Node6 -->
<g id="edge5" class="edge"><title>Node3&#45;&gt;Node6</title>
<path fill="none" stroke="midnightblue" d="M314.798,-108.772C288.5,-98.6287 251.784,-84.4669 228.58,-75.5164"/>
<polygon fill="midnightblue" stroke="midnightblue" points="313.727,-112.11 324.317,-112.444 316.246,-105.579 313.727,-112.11"/>
</g>
<!-- Node7 -->
<g id="node7" class="node"><title>Node7</title>
<g id="a_node7"><a xlink:href="a00059.html" target="_top" xlink:title="command&#45;direct&#45;setter.h">
<polygon fill="white" stroke="black" points="285.5,-56.5 285.5,-75.5 407.5,-75.5 407.5,-56.5 285.5,-56.5"/>
<text text-anchor="middle" x="346.5" y="-63.5" font-family="Helvetica,sans-Serif" font-size="10.00">command&#45;direct&#45;setter.h</text>
</a>
</g>
</g>
<!-- Node3&#45;&gt;Node7 -->
<g id="edge7" class="edge"><title>Node3&#45;&gt;Node7</title>
<path fill="none" stroke="midnightblue" d="M346.5,-101.805C346.5,-92.9102 346.5,-82.7798 346.5,-75.7511"/>
<polygon fill="midnightblue" stroke="midnightblue" points="343,-102.083 346.5,-112.083 350,-102.083 343,-102.083"/>
</g>
<!-- Node8 -->
<g id="node8" class="node"><title>Node8</title>
<g id="a_node8"><a xlink:href="a00060.html" target="_top" xlink:title="command&#45;getter.h">
<polygon fill="white" stroke="black" points="426,-56.5 426,-75.5 521,-75.5 521,-56.5 426,-56.5"/>
<text text-anchor="middle" x="473.5" y="-63.5" font-family="Helvetica,sans-Serif" font-size="10.00">command&#45;getter.h</text>
</a>
</g>
</g>
<!-- Node3&#45;&gt;Node8 -->
<g id="edge9" class="edge"><title>Node3&#45;&gt;Node8</title>
<path fill="none" stroke="midnightblue" d="M375.891,-108.503C399.7,-98.3795 432.606,-84.388 453.471,-75.5164"/>
<polygon fill="midnightblue" stroke="midnightblue" points="374.457,-105.31 366.624,-112.444 377.196,-111.751 374.457,-105.31"/>
</g>
<!-- Node9 -->
<g id="node9" class="node"><title>Node9</title>
<g id="a_node9"><a xlink:href="a00062.html" target="_top" xlink:title="command&#45;setter.h">
<polygon fill="white" stroke="black" points="539,-56.5 539,-75.5 634,-75.5 634,-56.5 539,-56.5"/>
<text text-anchor="middle" x="586.5" y="-63.5" font-family="Helvetica,sans-Serif" font-size="10.00">command&#45;setter.h</text>
</a>
</g>
</g>
<!-- Node3&#45;&gt;Node9 -->
<g id="edge12" class="edge"><title>Node3&#45;&gt;Node9</title>
<path fill="none" stroke="midnightblue" d="M390.461,-111.109C435.738,-100.922 505.576,-85.2079 548.527,-75.544"/>
<polygon fill="midnightblue" stroke="midnightblue" points="389.619,-107.711 380.631,-113.32 391.156,-114.54 389.619,-107.711"/>
</g>
<!-- Node4&#45;&gt;Node5 -->
<g id="edge4" class="edge"><title>Node4&#45;&gt;Node5</title>
<path fill="none" stroke="midnightblue" d="M91.1025,-54.1529C134.937,-43.95 199.678,-28.8809 239.911,-19.5164"/>
<polygon fill="midnightblue" stroke="midnightblue" points="90.2073,-50.7676 81.2611,-56.4435 91.7942,-57.5854 90.2073,-50.7676"/>
</g>
<!-- Node6&#45;&gt;Node5 -->
<g id="edge6" class="edge"><title>Node6&#45;&gt;Node5</title>
<path fill="none" stroke="midnightblue" d="M225.814,-50.1008C238.412,-40.3824 254.428,-28.0269 265.049,-19.8339"/>
<polygon fill="midnightblue" stroke="midnightblue" points="223.527,-47.4446 217.747,-56.324 227.802,-52.9871 223.527,-47.4446"/>
</g>
<!-- Node7&#45;&gt;Node5 -->
<g id="edge8" class="edge"><title>Node7&#45;&gt;Node5</title>
<path fill="none" stroke="midnightblue" d="M327.186,-50.1008C314.588,-40.3824 298.572,-28.0269 287.951,-19.8339"/>
<polygon fill="midnightblue" stroke="midnightblue" points="325.198,-52.9871 335.253,-56.324 329.473,-47.4446 325.198,-52.9871"/>
</g>
<!-- Node8&#45;&gt;Node5 -->
<g id="edge10" class="edge"><title>Node8&#45;&gt;Node5</title>
<path fill="none" stroke="midnightblue" d="M432.271,-53.6986C395.091,-43.507 341.229,-28.7429 307.569,-19.5164"/>
<polygon fill="midnightblue" stroke="midnightblue" points="431.715,-57.1754 442.285,-56.4435 433.566,-50.4244 431.715,-57.1754"/>
</g>
<!-- Node9&#45;&gt;Node5 -->
<g id="edge13" class="edge"><title>Node9&#45;&gt;Node5</title>
<path fill="none" stroke="midnightblue" d="M528.573,-54.9095C467.985,-44.3554 374.276,-28.032 319.808,-18.544"/>
<polygon fill="midnightblue" stroke="midnightblue" points="528.29,-58.4127 538.742,-56.6808 529.491,-51.5166 528.29,-58.4127"/>
</g>
<!-- Node10&#45;&gt;Node9 -->
<g id="edge15" class="edge"><title>Node10&#45;&gt;Node9</title>
<path fill="none" stroke="midnightblue" d="M539.054,-105.82C550.878,-96.1452 565.786,-83.9481 575.703,-75.8339"/>
<polygon fill="midnightblue" stroke="midnightblue" points="536.627,-103.283 531.104,-112.324 541.06,-108.7 536.627,-103.283"/>
</g>
<!-- Node12 -->
<g id="node12" class="node"><title>Node12</title>
<g id="a_node12"><a xlink:href="a00085.html" target="_top" xlink:title="signal&#45;cast&#45;helper.h">
<polygon fill="white" stroke="black" points="595,-112.5 595,-131.5 696,-131.5 696,-112.5 595,-112.5"/>
<text text-anchor="middle" x="645.5" y="-119.5" font-family="Helvetica,sans-Serif" font-size="10.00">signal&#45;cast&#45;helper.h</text>
</a>
</g>
</g>
<!-- Node11&#45;&gt;Node12 -->
<g id="edge17" class="edge"><title>Node11&#45;&gt;Node12</title>
<path fill="none" stroke="midnightblue" d="M622.477,-159.566C628.327,-150.275 635.27,-139.248 639.99,-131.751"/>
<polygon fill="midnightblue" stroke="midnightblue" points="619.481,-157.756 617.114,-168.083 625.404,-161.486 619.481,-157.756"/>
</g>
</g>
</svg>
