<?xml version="1.0" encoding="UTF-8" standalone="no"?>
<!DOCTYPE svg PUBLIC "-//W3C//DTD SVG 1.1//EN"
 "http://www.w3.org/Graphics/SVG/1.1/DTD/svg11.dtd">
<!-- Generated by graphviz version 2.38.0 (20140413.2041)
 -->
<!-- Title: signal.h Pages: 1 -->
<svg width="408pt" height="196pt"
 viewBox="0.00 0.00 408.00 196.00" xmlns="http://www.w3.org/2000/svg" xmlns:xlink="http://www.w3.org/1999/xlink">
<g id="graph0" class="graph" transform="scale(1 1) rotate(0) translate(4 192)">
<title>signal.h</title>
<polygon fill="white" stroke="none" points="-4,4 -4,-192 404,-192 404,4 -4,4"/>
<!-- Node1 -->
<g id="node1" class="node"><title>Node1</title>
<polygon fill="#bfbfbf" stroke="black" points="279.5,-168.5 279.5,-187.5 329.5,-187.5 329.5,-168.5 279.5,-168.5"/>
<text text-anchor="middle" x="304.5" y="-175.5" font-family="Helvetica,sans-Serif" font-size="10.00">signal.h</text>
</g>
<!-- Node2 -->
<g id="node2" class="node"><title>Node2</title>
<g id="a_node2"><a xlink:href="a00055.html" target="_top" xlink:title="all&#45;signals.h">
<polygon fill="white" stroke="black" points="265.5,-56.5 265.5,-75.5 333.5,-75.5 333.5,-56.5 265.5,-56.5"/>
<text text-anchor="middle" x="299.5" y="-63.5" font-family="Helvetica,sans-Serif" font-size="10.00">all&#45;signals.h</text>
</a>
</g>
</g>
<!-- Node1&#45;&gt;Node2 -->
<g id="edge1" class="edge"><title>Node1&#45;&gt;Node2</title>
<path fill="none" stroke="midnightblue" d="M303.652,-158.348C302.557,-134.254 300.696,-93.3079 299.891,-75.5914"/>
<polygon fill="midnightblue" stroke="midnightblue" points="300.157,-158.538 304.108,-168.368 307.15,-158.22 300.157,-158.538"/>
</g>
<!-- Node3 -->
<g id="node3" class="node"><title>Node3</title>
<g id="a_node3"><a xlink:href="a00091.html" target="_top" xlink:title="signal.t.cpp">
<polygon fill="white" stroke="black" points="333,-112.5 333,-131.5 400,-131.5 400,-112.5 333,-112.5"/>
<text text-anchor="middle" x="366.5" y="-119.5" font-family="Helvetica,sans-Serif" font-size="10.00">signal.t.cpp</text>
</a>
</g>
</g>
<!-- Node1&#45;&gt;Node3 -->
<g id="edge2" class="edge"><title>Node1&#45;&gt;Node3</title>
<path fill="none" stroke="midnightblue" d="M316.643,-161.002C326.665,-151.433 340.571,-139.639 351.321,-131.751"/>
<polygon fill="midnightblue" stroke="midnightblue" points="314.161,-158.534 309.572,-168.083 319.115,-163.48 314.161,-158.534"/>
</g>
<!-- Node4 -->
<g id="node4" class="node"><title>Node4</title>
<g id="a_node4"><a xlink:href="a00087.html" target="_top" xlink:title="signal&#45;ptr.h">
<polygon fill="white" stroke="black" points="73,-112.5 73,-131.5 138,-131.5 138,-112.5 73,-112.5"/>
<text text-anchor="middle" x="105.5" y="-119.5" font-family="Helvetica,sans-Serif" font-size="10.00">signal&#45;ptr.h</text>
</a>
</g>
</g>
<!-- Node1&#45;&gt;Node4 -->
<g id="edge4" class="edge"><title>Node1&#45;&gt;Node4</title>
<path fill="none" stroke="midnightblue" d="M269.329,-167.456C231.856,-157.288 173.075,-141.337 137.049,-131.561"/>
<polygon fill="midnightblue" stroke="midnightblue" points="268.729,-170.92 279.297,-170.161 270.562,-164.164 268.729,-170.92"/>
</g>
<!-- Node7 -->
<g id="node7" class="node"><title>Node7</title>
<g id="a_node7"><a xlink:href="a00089.html" target="_top" xlink:title="signal&#45;time&#45;dependent.h">
<polygon fill="white" stroke="black" points="156.5,-112.5 156.5,-131.5 276.5,-131.5 276.5,-112.5 156.5,-112.5"/>
<text text-anchor="middle" x="216.5" y="-119.5" font-family="Helvetica,sans-Serif" font-size="10.00">signal&#45;time&#45;dependent.h</text>
</a>
</g>
</g>
<!-- Node1&#45;&gt;Node7 -->
<g id="edge9" class="edge"><title>Node1&#45;&gt;Node7</title>
<path fill="none" stroke="midnightblue" d="M281.523,-162.901C265.387,-152.999 244.319,-140.071 230.604,-131.655"/>
<polygon fill="midnightblue" stroke="midnightblue" points="280.007,-166.077 290.361,-168.324 283.669,-160.111 280.007,-166.077"/>
</g>
<!-- Node3&#45;&gt;Node1 -->
<g id="edge3" class="edge"><title>Node3&#45;&gt;Node1</title>
<path fill="none" stroke="midnightblue" d="M354.42,-138.938C344.361,-148.548 330.363,-160.42 319.576,-168.324"/>
<polygon fill="midnightblue" stroke="midnightblue" points="356.922,-141.386 361.506,-131.834 351.966,-136.442 356.922,-141.386"/>
</g>
<!-- Node4&#45;&gt;Node2 -->
<g id="edge5" class="edge"><title>Node4&#45;&gt;Node2</title>
<path fill="none" stroke="midnightblue" d="M146.101,-109.699C182.715,-99.507 235.757,-84.7429 268.904,-75.5164"/>
<polygon fill="midnightblue" stroke="midnightblue" points="144.935,-106.39 136.24,-112.444 146.812,-113.134 144.935,-106.39"/>
</g>
<!-- Node5 -->
<g id="node5" class="node"><title>Node5</title>
<g id="a_node5"><a xlink:href="a00088.html" target="_top" xlink:title="signal&#45;ptr.t.cpp">
<polygon fill="white" stroke="black" points="0,-56.5 0,-75.5 81,-75.5 81,-56.5 0,-56.5"/>
<text text-anchor="middle" x="40.5" y="-63.5" font-family="Helvetica,sans-Serif" font-size="10.00">signal&#45;ptr.t.cpp</text>
</a>
</g>
</g>
<!-- Node4&#45;&gt;Node5 -->
<g id="edge6" class="edge"><title>Node4&#45;&gt;Node5</title>
<path fill="none" stroke="midnightblue" d="M81.8273,-106.38C68.9361,-96.6204 54.1809,-84.1057 45.9847,-75.8339"/>
<polygon fill="midnightblue" stroke="midnightblue" points="79.8062,-109.238 89.9418,-112.324 83.9426,-103.591 79.8062,-109.238"/>
</g>
<!-- Node6 -->
<g id="node6" class="node"><title>Node6</title>
<g id="a_node6"><a xlink:href="a00086.html" target="_top" xlink:title="signal&#45;helper.h">
<polygon fill="white" stroke="black" points="99.5,-56.5 99.5,-75.5 179.5,-75.5 179.5,-56.5 99.5,-56.5"/>
<text text-anchor="middle" x="139.5" y="-63.5" font-family="Helvetica,sans-Serif" font-size="10.00">signal&#45;helper.h</text>
</a>
</g>
</g>
<!-- Node4&#45;&gt;Node6 -->
<g id="edge8" class="edge"><title>Node4&#45;&gt;Node6</title>
<path fill="none" stroke="midnightblue" d="M116.477,-103.566C122.327,-94.2747 129.27,-83.2484 133.99,-75.7511"/>
<polygon fill="midnightblue" stroke="midnightblue" points="113.481,-101.756 111.114,-112.083 119.404,-105.486 113.481,-101.756"/>
</g>
<!-- Node5&#45;&gt;Node4 -->
<g id="edge7" class="edge"><title>Node5&#45;&gt;Node4</title>
<path fill="none" stroke="midnightblue" d="M64.2459,-81.6751C77.0766,-91.3943 91.7361,-103.826 99.9329,-112.083"/>
<polygon fill="midnightblue" stroke="midnightblue" points="66.2991,-78.8405 56.1647,-75.7511 62.1605,-84.4861 66.2991,-78.8405"/>
</g>
<!-- Node7&#45;&gt;Node2 -->
<g id="edge10" class="edge"><title>Node7&#45;&gt;Node2</title>
<path fill="none" stroke="midnightblue" d="M238.599,-106.622C253.762,-96.7574 273.383,-83.9919 286.198,-75.6545"/>
<polygon fill="midnightblue" stroke="midnightblue" points="236.309,-103.937 229.835,-112.324 240.126,-109.804 236.309,-103.937"/>
</g>
<!-- Node7&#45;&gt;Node6 -->
<g id="edge11" class="edge"><title>Node7&#45;&gt;Node6</title>
<path fill="none" stroke="midnightblue" d="M195.599,-106.342C181.589,-96.5169 163.617,-83.9132 151.841,-75.6545"/>
<polygon fill="midnightblue" stroke="midnightblue" points="193.932,-109.448 204.129,-112.324 197.951,-103.717 193.932,-109.448"/>
</g>
<!-- Node8 -->
<g id="node8" class="node"><title>Node8</title>
<g id="a_node8"><a xlink:href="a00096.html" target="_top" xlink:title="tracer.h">
<polygon fill="white" stroke="black" points="197.5,-56.5 197.5,-75.5 247.5,-75.5 247.5,-56.5 197.5,-56.5"/>
<text text-anchor="middle" x="222.5" y="-63.5" font-family="Helvetica,sans-Serif" font-size="10.00">tracer.h</text>
</a>
</g>
</g>
<!-- Node7&#45;&gt;Node8 -->
<g id="edge12" class="edge"><title>Node7&#45;&gt;Node8</title>
<path fill="none" stroke="midnightblue" d="M218.6,-102.101C219.596,-93.1357 220.738,-82.8579 221.528,-75.7511"/>
<polygon fill="midnightblue" stroke="midnightblue" points="215.117,-101.758 217.491,-112.083 222.074,-102.531 215.117,-101.758"/>
</g>
<!-- Node9 -->
<g id="node9" class="node"><title>Node9</title>
<g id="a_node9"><a xlink:href="a00094.html" target="_top" xlink:title="tracer&#45;real&#45;time.h">
<polygon fill="white" stroke="black" points="177.5,-0.5 177.5,-19.5 267.5,-19.5 267.5,-0.5 177.5,-0.5"/>
<text text-anchor="middle" x="222.5" y="-7.5" font-family="Helvetica,sans-Serif" font-size="10.00">tracer&#45;real&#45;time.h</text>
</a>
</g>
</g>
<!-- Node8&#45;&gt;Node9 -->
<g id="edge13" class="edge"><title>Node8&#45;&gt;Node9</title>
<path fill="none" stroke="midnightblue" d="M222.5,-45.8045C222.5,-36.9102 222.5,-26.7798 222.5,-19.7511"/>
<polygon fill="midnightblue" stroke="midnightblue" points="219,-46.083 222.5,-56.083 226,-46.083 219,-46.083"/>
</g>
</g>
</svg>
