<?xml version="1.0" encoding="UTF-8" standalone="no"?>
<!DOCTYPE svg PUBLIC "-//W3C//DTD SVG 1.1//EN"
 "http://www.w3.org/Graphics/SVG/1.1/DTD/svg11.dtd">
<!-- Generated by graphviz version 2.38.0 (20140413.2041)
 -->
<!-- Title: signal&#45;ptr.t.cpp Pages: 1 -->
<svg width="1889pt" height="531pt"
 viewBox="0.00 0.00 1889.22 531.00" xmlns="http://www.w3.org/2000/svg" xmlns:xlink="http://www.w3.org/1999/xlink">
<g id="graph0" class="graph" transform="scale(1 1) rotate(0) translate(4 527)">
<title>signal&#45;ptr.t.cpp</title>
<polygon fill="white" stroke="none" points="-4,4 -4,-527 1885.22,-527 1885.22,4 -4,4"/>
<!-- Node1 -->
<g id="node1" class="node"><title>Node1</title>
<polygon fill="#bfbfbf" stroke="black" points="1373.5,-503.5 1373.5,-522.5 1454.5,-522.5 1454.5,-503.5 1373.5,-503.5"/>
<text text-anchor="middle" x="1414" y="-510.5" font-family="Helvetica,sans-Serif" font-size="10.00">signal&#45;ptr.t.cpp</text>
</g>
<!-- Node2 -->
<g id="node2" class="node"><title>Node2</title>
<g id="a_node2"><a xlink:href="a00088.html" target="_top" xlink:title="dynamic&#45;graph/signal\l&#45;ptr.h">
<polygon fill="white" stroke="black" points="1359.5,-436.5 1359.5,-466.5 1468.5,-466.5 1468.5,-436.5 1359.5,-436.5"/>
<text text-anchor="start" x="1367.5" y="-454.5" font-family="Helvetica,sans-Serif" font-size="10.00">dynamic&#45;graph/signal</text>
<text text-anchor="middle" x="1414" y="-443.5" font-family="Helvetica,sans-Serif" font-size="10.00">&#45;ptr.h</text>
</a>
</g>
</g>
<!-- Node1&#45;&gt;Node2 -->
<g id="edge1" class="edge"><title>Node1&#45;&gt;Node2</title>
<path fill="none" stroke="midnightblue" d="M1409.1,-503.475C1407.57,-496.471 1406.99,-486.192 1407.36,-476.696"/>
<polygon fill="midnightblue" stroke="midnightblue" points="1410.86,-476.77 1408.17,-466.523 1403.88,-476.212 1410.86,-476.77"/>
</g>
<!-- Node27 -->
<g id="node27" class="node"><title>Node27</title>
<g id="a_node27"><a xlink:href="a00066.html" target="_top" xlink:title="dynamic&#45;graph/debug.h">
<polygon fill="white" stroke="black" points="1595,-263 1595,-282 1713,-282 1713,-263 1595,-263"/>
<text text-anchor="middle" x="1654" y="-270" font-family="Helvetica,sans-Serif" font-size="10.00">dynamic&#45;graph/debug.h</text>
</a>
</g>
</g>
<!-- Node1&#45;&gt;Node27 -->
<g id="edge50" class="edge"><title>Node1&#45;&gt;Node27</title>
<path fill="none" stroke="midnightblue" d="M1427.64,-503.457C1440.83,-494.925 1461.11,-481.084 1477,-467 1543.94,-407.685 1612.37,-325.46 1640.59,-290.414"/>
<polygon fill="midnightblue" stroke="midnightblue" points="1643.65,-292.194 1647.16,-282.198 1638.18,-287.821 1643.65,-292.194"/>
</g>
<!-- Node2&#45;&gt;Node1 -->
<g id="edge49" class="edge"><title>Node2&#45;&gt;Node1</title>
<path fill="none" stroke="midnightblue" d="M1419.83,-466.523C1420.87,-474.586 1421.03,-484.813 1420.3,-493.526"/>
<polygon fill="midnightblue" stroke="midnightblue" points="1416.83,-493.085 1418.9,-503.475 1423.76,-494.06 1416.83,-493.085"/>
</g>
<!-- Node3 -->
<g id="node3" class="node"><title>Node3</title>
<polygon fill="white" stroke="#bfbfbf" points="568,-62 568,-81 622,-81 622,-62 568,-62"/>
<text text-anchor="middle" x="595" y="-69" font-family="Helvetica,sans-Serif" font-size="10.00">iostream</text>
</g>
<!-- Node2&#45;&gt;Node3 -->
<g id="edge2" class="edge"><title>Node2&#45;&gt;Node3</title>
<path fill="none" stroke="midnightblue" d="M1359.44,-448.954C1099.58,-441.243 0,-404.504 0,-335 0,-335 0,-335 0,-204.5 0,-163.953 7.48445,-145.821 41,-123 83.5773,-94.0085 439.936,-78.2661 557.522,-73.8245"/>
<polygon fill="midnightblue" stroke="midnightblue" points="557.956,-77.3108 567.819,-73.4415 557.696,-70.3156 557.956,-77.3108"/>
</g>
<!-- Node4 -->
<g id="node4" class="node"><title>Node4</title>
<g id="a_node4"><a xlink:href="a00074.html" target="_top" xlink:title="dynamic&#45;graph/exception\l&#45;signal.h">
<polygon fill="white" stroke="black" points="1278.5,-190.5 1278.5,-220.5 1403.5,-220.5 1403.5,-190.5 1278.5,-190.5"/>
<text text-anchor="start" x="1286.5" y="-208.5" font-family="Helvetica,sans-Serif" font-size="10.00">dynamic&#45;graph/exception</text>
<text text-anchor="middle" x="1341" y="-197.5" font-family="Helvetica,sans-Serif" font-size="10.00">&#45;signal.h</text>
</a>
</g>
</g>
<!-- Node2&#45;&gt;Node4 -->
<g id="edge3" class="edge"><title>Node2&#45;&gt;Node4</title>
<path fill="none" stroke="midnightblue" d="M1431.38,-436.417C1456.2,-414.497 1497.98,-369.942 1490,-324 1484.59,-292.836 1487.91,-279.809 1466,-257 1451.65,-242.061 1432.27,-231.415 1413.07,-223.88"/>
<polygon fill="midnightblue" stroke="midnightblue" points="1414.27,-220.593 1403.68,-220.425 1411.86,-227.162 1414.27,-220.593"/>
</g>
<!-- Node10 -->
<g id="node10" class="node"><title>Node10</title>
<g id="a_node10"><a xlink:href="a00091.html" target="_top" xlink:title="dynamic&#45;graph/signal.h">
<polygon fill="white" stroke="black" points="1248.5,-380.5 1248.5,-399.5 1365.5,-399.5 1365.5,-380.5 1248.5,-380.5"/>
<text text-anchor="middle" x="1307" y="-387.5" font-family="Helvetica,sans-Serif" font-size="10.00">dynamic&#45;graph/signal.h</text>
</a>
</g>
</g>
<!-- Node2&#45;&gt;Node10 -->
<g id="edge12" class="edge"><title>Node2&#45;&gt;Node10</title>
<path fill="none" stroke="midnightblue" d="M1388.64,-436.399C1371.33,-426.773 1348.52,-414.09 1331.42,-404.577"/>
<polygon fill="midnightblue" stroke="midnightblue" points="1333.01,-401.459 1322.57,-399.658 1329.61,-407.577 1333.01,-401.459"/>
</g>
<!-- Node5 -->
<g id="node5" class="node"><title>Node5</title>
<g id="a_node5"><a xlink:href="a00077.html" target="_top" xlink:title="dynamic&#45;graph/fwd.hh">
<polygon fill="white" stroke="black" points="1373.5,-62 1373.5,-81 1486.5,-81 1486.5,-62 1373.5,-62"/>
<text text-anchor="middle" x="1430" y="-69" font-family="Helvetica,sans-Serif" font-size="10.00">dynamic&#45;graph/fwd.hh</text>
</a>
</g>
</g>
<!-- Node4&#45;&gt;Node5 -->
<g id="edge4" class="edge"><title>Node4&#45;&gt;Node5</title>
<path fill="none" stroke="midnightblue" d="M1357.76,-190.235C1368.23,-180.721 1381.48,-167.519 1391,-154 1405.21,-133.818 1416.68,-107.657 1423.42,-90.4908"/>
<polygon fill="midnightblue" stroke="midnightblue" points="1426.71,-91.6899 1426.98,-81.0986 1420.16,-89.207 1426.71,-91.6899"/>
</g>
<!-- Node6 -->
<g id="node6" class="node"><title>Node6</title>
<g id="a_node6"><a xlink:href="a00068.html" target="_top" xlink:title="dynamic&#45;graph/dynamic\l&#45;graph&#45;api.h">
<polygon fill="white" stroke="black" points="1202,-56.5 1202,-86.5 1322,-86.5 1322,-56.5 1202,-56.5"/>
<text text-anchor="start" x="1210" y="-74.5" font-family="Helvetica,sans-Serif" font-size="10.00">dynamic&#45;graph/dynamic</text>
<text text-anchor="middle" x="1262" y="-63.5" font-family="Helvetica,sans-Serif" font-size="10.00">&#45;graph&#45;api.h</text>
</a>
</g>
</g>
<!-- Node4&#45;&gt;Node6 -->
<g id="edge5" class="edge"><title>Node4&#45;&gt;Node6</title>
<path fill="none" stroke="midnightblue" d="M1293.86,-190.479C1276.28,-182.705 1258.14,-171.053 1248,-154 1237.51,-136.363 1243.1,-113.012 1250.08,-95.8263"/>
<polygon fill="midnightblue" stroke="midnightblue" points="1253.36,-97.0683 1254.24,-86.5103 1246.97,-94.213 1253.36,-97.0683"/>
</g>
<!-- Node8 -->
<g id="node8" class="node"><title>Node8</title>
<g id="a_node8"><a xlink:href="a00072.html" target="_top" xlink:title="dynamic&#45;graph/exception\l&#45;abstract.h">
<polygon fill="white" stroke="black" points="1257.5,-123.5 1257.5,-153.5 1382.5,-153.5 1382.5,-123.5 1257.5,-123.5"/>
<text text-anchor="start" x="1265.5" y="-141.5" font-family="Helvetica,sans-Serif" font-size="10.00">dynamic&#45;graph/exception</text>
<text text-anchor="middle" x="1320" y="-130.5" font-family="Helvetica,sans-Serif" font-size="10.00">&#45;abstract.h</text>
</a>
</g>
</g>
<!-- Node4&#45;&gt;Node8 -->
<g id="edge7" class="edge"><title>Node4&#45;&gt;Node8</title>
<path fill="none" stroke="midnightblue" d="M1336.44,-190.396C1333.88,-182.474 1330.62,-172.379 1327.68,-163.271"/>
<polygon fill="midnightblue" stroke="midnightblue" points="1330.95,-162.016 1324.55,-153.577 1324.29,-164.168 1330.95,-162.016"/>
</g>
<!-- Node7 -->
<g id="node7" class="node"><title>Node7</title>
<polygon fill="white" stroke="#bfbfbf" points="1200.5,-0.5 1200.5,-19.5 1323.5,-19.5 1323.5,-0.5 1200.5,-0.5"/>
<text text-anchor="middle" x="1262" y="-7.5" font-family="Helvetica,sans-Serif" font-size="10.00">dynamic&#45;graph/config.hh</text>
</g>
<!-- Node6&#45;&gt;Node7 -->
<g id="edge6" class="edge"><title>Node6&#45;&gt;Node7</title>
<path fill="none" stroke="midnightblue" d="M1262,-56.3993C1262,-48.4664 1262,-38.458 1262,-29.8583"/>
<polygon fill="midnightblue" stroke="midnightblue" points="1265.5,-29.6577 1262,-19.6578 1258.5,-29.6578 1265.5,-29.6577"/>
</g>
<!-- Node8&#45;&gt;Node3 -->
<g id="edge8" class="edge"><title>Node8&#45;&gt;Node3</title>
<path fill="none" stroke="midnightblue" d="M1257.48,-131.483C1229.76,-128.84 1196.76,-125.724 1167,-123 965.265,-104.536 723.393,-83.5657 632.21,-75.7017"/>
<polygon fill="midnightblue" stroke="midnightblue" points="632.363,-72.202 622.099,-74.8302 631.762,-79.1762 632.363,-72.202"/>
</g>
<!-- Node8&#45;&gt;Node5 -->
<g id="edge10" class="edge"><title>Node8&#45;&gt;Node5</title>
<path fill="none" stroke="midnightblue" d="M1343.87,-123.396C1362.57,-112.344 1388.44,-97.0607 1406.93,-86.1319"/>
<polygon fill="midnightblue" stroke="midnightblue" points="1408.77,-89.1076 1415.6,-81.007 1405.21,-83.0811 1408.77,-89.1076"/>
</g>
<!-- Node8&#45;&gt;Node6 -->
<g id="edge11" class="edge"><title>Node8&#45;&gt;Node6</title>
<path fill="none" stroke="midnightblue" d="M1307.41,-123.396C1299.81,-114.878 1289.97,-103.847 1281.39,-94.2328"/>
<polygon fill="midnightblue" stroke="midnightblue" points="1283.83,-91.7077 1274.56,-86.5765 1278.61,-96.3682 1283.83,-91.7077"/>
</g>
<!-- Node9 -->
<g id="node9" class="node"><title>Node9</title>
<polygon fill="white" stroke="#bfbfbf" points="1557.5,-62 1557.5,-81 1598.5,-81 1598.5,-62 1557.5,-62"/>
<text text-anchor="middle" x="1578" y="-69" font-family="Helvetica,sans-Serif" font-size="10.00">string</text>
</g>
<!-- Node8&#45;&gt;Node9 -->
<g id="edge9" class="edge"><title>Node8&#45;&gt;Node9</title>
<path fill="none" stroke="midnightblue" d="M1375.66,-123.476C1428.24,-110.23 1505.15,-90.8527 1547.4,-80.2097"/>
<polygon fill="midnightblue" stroke="midnightblue" points="1548.51,-83.5382 1557.36,-77.7011 1546.8,-76.7503 1548.51,-83.5382"/>
</g>
<!-- Node10&#45;&gt;Node3 -->
<g id="edge16" class="edge"><title>Node10&#45;&gt;Node3</title>
<path fill="none" stroke="midnightblue" d="M1248.34,-386.778C998.765,-376.946 38,-335.097 38,-273.5 38,-273.5 38,-273.5 38,-204.5 38,-165.252 40.424,-146.31 72,-123 110.925,-94.2648 444.531,-78.4739 557.659,-73.9078"/>
<polygon fill="midnightblue" stroke="midnightblue" points="558.048,-77.3952 567.901,-73.5009 557.77,-70.4007 558.048,-77.3952"/>
</g>
<!-- Node10&#45;&gt;Node4 -->
<g id="edge17" class="edge"><title>Node10&#45;&gt;Node4</title>
<path fill="none" stroke="midnightblue" d="M1365.87,-380.48C1407.48,-373.113 1458.07,-360.962 1471,-344 1505.97,-298.136 1431.83,-250.507 1381.79,-225.107"/>
<polygon fill="midnightblue" stroke="midnightblue" points="1383.27,-221.935 1372.76,-220.628 1380.16,-228.206 1383.27,-221.935"/>
</g>
<!-- Node10&#45;&gt;Node9 -->
<g id="edge15" class="edge"><title>Node10&#45;&gt;Node9</title>
<path fill="none" stroke="midnightblue" d="M1365.6,-381.07C1498.27,-361.719 1814.37,-307.254 1870,-221 1934.88,-120.407 1695.7,-84.8431 1608.58,-75.3751"/>
<polygon fill="midnightblue" stroke="midnightblue" points="1608.81,-71.8806 1598.5,-74.3238 1608.09,-78.8428 1608.81,-71.8806"/>
</g>
<!-- Node11 -->
<g id="node11" class="node"><title>Node11</title>
<polygon fill="white" stroke="#bfbfbf" points="1267,-324.5 1267,-343.5 1347,-343.5 1347,-324.5 1267,-324.5"/>
<text text-anchor="middle" x="1307" y="-331.5" font-family="Helvetica,sans-Serif" font-size="10.00">boost/bind.hpp</text>
</g>
<!-- Node10&#45;&gt;Node11 -->
<g id="edge13" class="edge"><title>Node10&#45;&gt;Node11</title>
<path fill="none" stroke="midnightblue" d="M1307,-380.083C1307,-373.006 1307,-362.861 1307,-353.986"/>
<polygon fill="midnightblue" stroke="midnightblue" points="1310.5,-353.751 1307,-343.751 1303.5,-353.751 1310.5,-353.751"/>
</g>
<!-- Node12 -->
<g id="node12" class="node"><title>Node12</title>
<polygon fill="white" stroke="#bfbfbf" points="1365.5,-324.5 1365.5,-343.5 1462.5,-343.5 1462.5,-324.5 1365.5,-324.5"/>
<text text-anchor="middle" x="1414" y="-331.5" font-family="Helvetica,sans-Serif" font-size="10.00">boost/function.hpp</text>
</g>
<!-- Node10&#45;&gt;Node12 -->
<g id="edge14" class="edge"><title>Node10&#45;&gt;Node12</title>
<path fill="none" stroke="midnightblue" d="M1324.19,-380.324C1341.35,-371.664 1367.95,-358.242 1387.75,-348.249"/>
<polygon fill="midnightblue" stroke="midnightblue" points="1389.5,-351.285 1396.85,-343.655 1386.35,-345.035 1389.5,-351.285"/>
</g>
<!-- Node13 -->
<g id="node13" class="node"><title>Node13</title>
<g id="a_node13"><a xlink:href="a00084.html" target="_top" xlink:title="dynamic&#45;graph/signal\l&#45;base.h">
<polygon fill="white" stroke="black" points="1235.5,-257.5 1235.5,-287.5 1344.5,-287.5 1344.5,-257.5 1235.5,-257.5"/>
<text text-anchor="start" x="1243.5" y="-275.5" font-family="Helvetica,sans-Serif" font-size="10.00">dynamic&#45;graph/signal</text>
<text text-anchor="middle" x="1290" y="-264.5" font-family="Helvetica,sans-Serif" font-size="10.00">&#45;base.h</text>
</a>
</g>
</g>
<!-- Node10&#45;&gt;Node13 -->
<g id="edge18" class="edge"><title>Node10&#45;&gt;Node13</title>
<path fill="none" stroke="midnightblue" d="M1292.34,-380.402C1280.59,-372.585 1264.97,-359.862 1258,-344 1250.84,-327.694 1259.66,-309.382 1269.84,-295.507"/>
<polygon fill="midnightblue" stroke="midnightblue" points="1272.73,-297.501 1276.23,-287.5 1267.25,-293.137 1272.73,-297.501"/>
</g>
<!-- Node17 -->
<g id="node17" class="node"><title>Node17</title>
<g id="a_node17"><a xlink:href="a00092.html" target="_top" xlink:title="dynamic&#45;graph/signal.t.cpp">
<polygon fill="white" stroke="black" points="1077,-324.5 1077,-343.5 1211,-343.5 1211,-324.5 1077,-324.5"/>
<text text-anchor="middle" x="1144" y="-331.5" font-family="Helvetica,sans-Serif" font-size="10.00">dynamic&#45;graph/signal.t.cpp</text>
</a>
</g>
</g>
<!-- Node10&#45;&gt;Node17 -->
<g id="edge26" class="edge"><title>Node10&#45;&gt;Node17</title>
<path fill="none" stroke="midnightblue" d="M1276.08,-380.444C1246.8,-371.399 1203.32,-357.064 1174.26,-346.916"/>
<polygon fill="midnightblue" stroke="midnightblue" points="1175.22,-343.544 1164.63,-343.516 1172.89,-350.145 1175.22,-343.544"/>
</g>
<!-- Node13&#45;&gt;Node3 -->
<g id="edge21" class="edge"><title>Node13&#45;&gt;Node3</title>
<path fill="none" stroke="midnightblue" d="M1235.36,-258.972C1204.5,-250.651 1165.86,-238.089 1134,-221 1114.49,-210.534 1114.93,-199.655 1095,-190 933.808,-111.895 717.734,-84.0181 632.149,-75.6338"/>
<polygon fill="midnightblue" stroke="midnightblue" points="632.42,-72.1439 622.134,-74.6843 631.759,-79.1127 632.42,-72.1439"/>
</g>
<!-- Node13&#45;&gt;Node4 -->
<g id="edge25" class="edge"><title>Node13&#45;&gt;Node4</title>
<path fill="none" stroke="midnightblue" d="M1301.07,-257.396C1307.68,-248.963 1316.23,-238.067 1323.72,-228.522"/>
<polygon fill="midnightblue" stroke="midnightblue" points="1326.54,-230.604 1329.96,-220.577 1321.03,-226.283 1326.54,-230.604"/>
</g>
<!-- Node13&#45;&gt;Node5 -->
<g id="edge24" class="edge"><title>Node13&#45;&gt;Node5</title>
<path fill="none" stroke="midnightblue" d="M1344.81,-261.803C1369.13,-254.638 1395.85,-242.268 1412,-221 1441.11,-182.67 1437.5,-122.013 1433.3,-91.4416"/>
<polygon fill="midnightblue" stroke="midnightblue" points="1436.72,-90.6511 1431.72,-81.3073 1429.8,-91.7263 1436.72,-90.6511"/>
</g>
<!-- Node13&#45;&gt;Node9 -->
<g id="edge19" class="edge"><title>Node13&#45;&gt;Node9</title>
<path fill="none" stroke="midnightblue" d="M1344.65,-265.566C1404.35,-258.066 1494.96,-243.371 1521,-221 1560.36,-187.182 1572.65,-122.993 1576.4,-91.2451"/>
<polygon fill="midnightblue" stroke="midnightblue" points="1579.9,-91.4359 1577.43,-81.1326 1572.94,-90.7263 1579.9,-91.4359"/>
</g>
<!-- Node14 -->
<g id="node14" class="node"><title>Node14</title>
<polygon fill="white" stroke="#bfbfbf" points="1460,-196 1460,-215 1512,-215 1512,-196 1460,-196"/>
<text text-anchor="middle" x="1486" y="-203" font-family="Helvetica,sans-Serif" font-size="10.00">sstream</text>
</g>
<!-- Node13&#45;&gt;Node14 -->
<g id="edge20" class="edge"><title>Node13&#45;&gt;Node14</title>
<path fill="none" stroke="midnightblue" d="M1334.85,-257.434C1366.1,-247.524 1408.71,-233.792 1446,-221 1448.38,-220.182 1450.84,-219.325 1453.32,-218.453"/>
<polygon fill="midnightblue" stroke="midnightblue" points="1454.54,-221.731 1462.78,-215.071 1452.19,-215.139 1454.54,-221.731"/>
</g>
<!-- Node15 -->
<g id="node15" class="node"><title>Node15</title>
<polygon fill="white" stroke="#bfbfbf" points="1035.5,-196 1035.5,-215 1086.5,-215 1086.5,-196 1035.5,-196"/>
<text text-anchor="middle" x="1061" y="-203" font-family="Helvetica,sans-Serif" font-size="10.00">typeinfo</text>
</g>
<!-- Node13&#45;&gt;Node15 -->
<g id="edge22" class="edge"><title>Node13&#45;&gt;Node15</title>
<path fill="none" stroke="midnightblue" d="M1235.46,-258.261C1197.52,-248.725 1145.88,-235.1 1101,-221 1098.45,-220.197 1095.81,-219.331 1093.17,-218.436"/>
<polygon fill="midnightblue" stroke="midnightblue" points="1094.32,-215.13 1083.73,-215.125 1092.01,-221.736 1094.32,-215.13"/>
</g>
<!-- Node16 -->
<g id="node16" class="node"><title>Node16</title>
<polygon fill="white" stroke="#bfbfbf" points="1143.5,-196 1143.5,-215 1260.5,-215 1260.5,-196 1143.5,-196"/>
<text text-anchor="middle" x="1202" y="-203" font-family="Helvetica,sans-Serif" font-size="10.00">boost/noncopyable.hpp</text>
</g>
<!-- Node13&#45;&gt;Node16 -->
<g id="edge23" class="edge"><title>Node13&#45;&gt;Node16</title>
<path fill="none" stroke="midnightblue" d="M1270.91,-257.396C1256.42,-246.697 1236.57,-232.033 1221.89,-221.193"/>
<polygon fill="midnightblue" stroke="midnightblue" points="1223.64,-218.133 1213.52,-215.007 1219.48,-223.764 1223.64,-218.133"/>
</g>
<!-- Node17&#45;&gt;Node10 -->
<g id="edge27" class="edge"><title>Node17&#45;&gt;Node10</title>
<path fill="none" stroke="midnightblue" d="M1174.79,-343.516C1204.03,-352.546 1247.51,-366.879 1276.61,-377.039"/>
<polygon fill="midnightblue" stroke="midnightblue" points="1275.67,-380.417 1286.26,-380.444 1278,-373.816 1275.67,-380.417"/>
</g>
<!-- Node18 -->
<g id="node18" class="node"><title>Node18</title>
<g id="a_node18"><a xlink:href="a00086.html" target="_top" xlink:title="dynamic&#45;graph/signal\l&#45;caster.h">
<polygon fill="white" stroke="black" points="619.5,-257.5 619.5,-287.5 728.5,-287.5 728.5,-257.5 619.5,-257.5"/>
<text text-anchor="start" x="627.5" y="-275.5" font-family="Helvetica,sans-Serif" font-size="10.00">dynamic&#45;graph/signal</text>
<text text-anchor="middle" x="674" y="-264.5" font-family="Helvetica,sans-Serif" font-size="10.00">&#45;caster.h</text>
</a>
</g>
</g>
<!-- Node17&#45;&gt;Node18 -->
<g id="edge28" class="edge"><title>Node17&#45;&gt;Node18</title>
<path fill="none" stroke="midnightblue" d="M1076.66,-324.475C986.474,-313.058 827.546,-292.938 738.716,-281.693"/>
<polygon fill="midnightblue" stroke="midnightblue" points="739.127,-278.217 728.766,-280.433 738.248,-285.161 739.127,-278.217"/>
</g>
<!-- Node17&#45;&gt;Node27 -->
<g id="edge41" class="edge"><title>Node17&#45;&gt;Node27</title>
<path fill="none" stroke="midnightblue" d="M1211.2,-325.16C1308.25,-313.838 1486.74,-293.014 1584.86,-281.566"/>
<polygon fill="midnightblue" stroke="midnightblue" points="1585.44,-285.022 1594.97,-280.387 1584.63,-278.07 1585.44,-285.022"/>
</g>
<!-- Node18&#45;&gt;Node3 -->
<g id="edge31" class="edge"><title>Node18&#45;&gt;Node3</title>
<path fill="none" stroke="midnightblue" d="M619.385,-270.841C481.917,-268.618 130.027,-259.215 95,-221 -38.8743,-74.941 421.337,-70.0737 557.914,-71.7433"/>
<polygon fill="midnightblue" stroke="midnightblue" points="557.864,-75.2429 567.913,-71.8847 557.964,-68.2436 557.864,-75.2429"/>
</g>
<!-- Node18&#45;&gt;Node4 -->
<g id="edge40" class="edge"><title>Node18&#45;&gt;Node4</title>
<path fill="none" stroke="midnightblue" d="M728.788,-268.943C832.247,-263.66 1063.57,-249.681 1268.21,-220.998"/>
<polygon fill="midnightblue" stroke="midnightblue" points="1268.83,-224.445 1278.24,-219.577 1267.85,-217.514 1268.83,-224.445"/>
</g>
<!-- Node18&#45;&gt;Node6 -->
<g id="edge39" class="edge"><title>Node18&#45;&gt;Node6</title>
<path fill="none" stroke="midnightblue" d="M728.65,-271.206C793.294,-268.978 902.869,-259.209 988,-221 1007.88,-212.075 1007.69,-201.819 1026,-190 1089.81,-148.816 1170.06,-111.654 1218.62,-90.604"/>
<polygon fill="midnightblue" stroke="midnightblue" points="1220.09,-93.7802 1227.89,-86.6123 1217.33,-87.3503 1220.09,-93.7802"/>
</g>
<!-- Node18&#45;&gt;Node15 -->
<g id="edge30" class="edge"><title>Node18&#45;&gt;Node15</title>
<path fill="none" stroke="midnightblue" d="M728.761,-266.998C797.714,-260.54 919.446,-246.514 1021,-221 1023.98,-220.25 1027.06,-219.361 1030.11,-218.396"/>
<polygon fill="midnightblue" stroke="midnightblue" points="1031.32,-221.68 1039.66,-215.143 1029.07,-215.054 1031.32,-221.68"/>
</g>
<!-- Node19 -->
<g id="node19" class="node"><title>Node19</title>
<polygon fill="white" stroke="#bfbfbf" points="581.5,-196 581.5,-215 616.5,-215 616.5,-196 581.5,-196"/>
<text text-anchor="middle" x="599" y="-203" font-family="Helvetica,sans-Serif" font-size="10.00">map</text>
</g>
<!-- Node18&#45;&gt;Node19 -->
<g id="edge29" class="edge"><title>Node18&#45;&gt;Node19</title>
<path fill="none" stroke="midnightblue" d="M657.726,-257.396C645.685,-246.96 629.289,-232.751 616.882,-221.998"/>
<polygon fill="midnightblue" stroke="midnightblue" points="618.881,-219.099 609.032,-215.195 614.297,-224.389 618.881,-219.099"/>
</g>
<!-- Node20 -->
<g id="node20" class="node"><title>Node20</title>
<polygon fill="white" stroke="#bfbfbf" points="104,-196 104,-215 148,-215 148,-196 104,-196"/>
<text text-anchor="middle" x="126" y="-203" font-family="Helvetica,sans-Serif" font-size="10.00">vector</text>
</g>
<!-- Node18&#45;&gt;Node20 -->
<g id="edge32" class="edge"><title>Node18&#45;&gt;Node20</title>
<path fill="none" stroke="midnightblue" d="M619.32,-272.188C523.767,-272.07 320.954,-265.924 157,-221 155.066,-220.47 153.103,-219.828 151.153,-219.112"/>
<polygon fill="midnightblue" stroke="midnightblue" points="152.267,-215.783 141.694,-215.101 149.534,-222.228 152.267,-215.783"/>
</g>
<!-- Node21 -->
<g id="node21" class="node"><title>Node21</title>
<polygon fill="white" stroke="#bfbfbf" points="635,-196 635,-215 713,-215 713,-196 635,-196"/>
<text text-anchor="middle" x="674" y="-203" font-family="Helvetica,sans-Serif" font-size="10.00">boost/any.hpp</text>
</g>
<!-- Node18&#45;&gt;Node21 -->
<g id="edge33" class="edge"><title>Node18&#45;&gt;Node21</title>
<path fill="none" stroke="midnightblue" d="M674,-257.396C674,-248.064 674,-235.714 674,-225.517"/>
<polygon fill="midnightblue" stroke="midnightblue" points="677.5,-225.195 674,-215.195 670.5,-225.195 677.5,-225.195"/>
</g>
<!-- Node22 -->
<g id="node22" class="node"><title>Node22</title>
<polygon fill="white" stroke="#bfbfbf" points="731,-196 731,-215 821,-215 821,-196 731,-196"/>
<text text-anchor="middle" x="776" y="-203" font-family="Helvetica,sans-Serif" font-size="10.00">boost/format.hpp</text>
</g>
<!-- Node18&#45;&gt;Node22 -->
<g id="edge34" class="edge"><title>Node18&#45;&gt;Node22</title>
<path fill="none" stroke="midnightblue" d="M696.132,-257.396C713.238,-246.496 736.803,-231.479 753.9,-220.584"/>
<polygon fill="midnightblue" stroke="midnightblue" points="756.098,-223.333 762.651,-215.007 752.336,-217.43 756.098,-223.333"/>
</g>
<!-- Node23 -->
<g id="node23" class="node"><title>Node23</title>
<polygon fill="white" stroke="#bfbfbf" points="839,-196 839,-215 979,-215 979,-196 839,-196"/>
<text text-anchor="middle" x="909" y="-203" font-family="Helvetica,sans-Serif" font-size="10.00">boost/function/function1.hpp</text>
</g>
<!-- Node18&#45;&gt;Node23 -->
<g id="edge35" class="edge"><title>Node18&#45;&gt;Node23</title>
<path fill="none" stroke="midnightblue" d="M724.702,-257.476C767.74,-245.572 828.682,-228.716 868.517,-217.698"/>
<polygon fill="midnightblue" stroke="midnightblue" points="869.461,-221.068 878.166,-215.029 867.594,-214.321 869.461,-221.068"/>
</g>
<!-- Node24 -->
<g id="node24" class="node"><title>Node24</title>
<polygon fill="white" stroke="#bfbfbf" points="166,-196 166,-215 306,-215 306,-196 166,-196"/>
<text text-anchor="middle" x="236" y="-203" font-family="Helvetica,sans-Serif" font-size="10.00">boost/function/function2.hpp</text>
</g>
<!-- Node18&#45;&gt;Node24 -->
<g id="edge36" class="edge"><title>Node18&#45;&gt;Node24</title>
<path fill="none" stroke="midnightblue" d="M619.459,-264.549C549.01,-255.405 422.64,-238.441 315,-221 307.073,-219.716 298.715,-218.275 290.521,-216.814"/>
<polygon fill="midnightblue" stroke="midnightblue" points="291.11,-213.364 280.648,-215.031 289.866,-220.253 291.11,-213.364"/>
</g>
<!-- Node25 -->
<g id="node25" class="node"><title>Node25</title>
<polygon fill="white" stroke="#bfbfbf" points="324,-196 324,-215 438,-215 438,-196 324,-196"/>
<text text-anchor="middle" x="381" y="-203" font-family="Helvetica,sans-Serif" font-size="10.00">boost/lexical_cast.hpp</text>
</g>
<!-- Node18&#45;&gt;Node25 -->
<g id="edge37" class="edge"><title>Node18&#45;&gt;Node25</title>
<path fill="none" stroke="midnightblue" d="M619.233,-259.35C564.729,-247.259 481.879,-228.879 429.633,-217.289"/>
<polygon fill="midnightblue" stroke="midnightblue" points="430.13,-213.814 419.609,-215.065 428.613,-220.648 430.13,-213.814"/>
</g>
<!-- Node26 -->
<g id="node26" class="node"><title>Node26</title>
<polygon fill="white" stroke="#bfbfbf" points="456.5,-196 456.5,-215 563.5,-215 563.5,-196 456.5,-196"/>
<text text-anchor="middle" x="510" y="-203" font-family="Helvetica,sans-Serif" font-size="10.00">boost/tuple/tuple.hpp</text>
</g>
<!-- Node18&#45;&gt;Node26 -->
<g id="edge38" class="edge"><title>Node18&#45;&gt;Node26</title>
<path fill="none" stroke="midnightblue" d="M638.414,-257.396C609.384,-245.89 568.781,-229.797 541.052,-218.807"/>
<polygon fill="midnightblue" stroke="midnightblue" points="542.05,-215.438 531.464,-215.007 539.471,-221.945 542.05,-215.438"/>
</g>
<!-- Node27&#45;&gt;Node3 -->
<g id="edge44" class="edge"><title>Node27&#45;&gt;Node3</title>
<path fill="none" stroke="midnightblue" d="M1632.72,-262.884C1611.77,-253.923 1579.33,-238.738 1554,-221 1537.52,-209.457 1539.2,-198.575 1521,-190 1515.85,-187.572 804.196,-98.6158 632.132,-77.1339"/>
<polygon fill="midnightblue" stroke="midnightblue" points="632.402,-73.6405 622.046,-75.8747 631.535,-80.5866 632.402,-73.6405"/>
</g>
<!-- Node27&#45;&gt;Node5 -->
<g id="edge47" class="edge"><title>Node27&#45;&gt;Node5</title>
<path fill="none" stroke="midnightblue" d="M1655.54,-262.755C1659.47,-237.458 1667.05,-163.432 1630,-123 1612.02,-103.385 1547.53,-89.5263 1496.58,-81.3504"/>
<polygon fill="midnightblue" stroke="midnightblue" points="1497.01,-77.875 1486.59,-79.791 1495.93,-84.7912 1497.01,-77.875"/>
</g>
<!-- Node27&#45;&gt;Node6 -->
<g id="edge48" class="edge"><title>Node27&#45;&gt;Node6</title>
<path fill="none" stroke="midnightblue" d="M1645.3,-262.89C1628.73,-246.841 1590.95,-211.994 1554,-190 1477.38,-144.395 1379.81,-109.192 1319.12,-89.6567"/>
<polygon fill="midnightblue" stroke="midnightblue" points="1319.93,-86.2407 1309.34,-86.5408 1317.8,-92.9106 1319.93,-86.2407"/>
</g>
<!-- Node27&#45;&gt;Node14 -->
<g id="edge46" class="edge"><title>Node27&#45;&gt;Node14</title>
<path fill="none" stroke="midnightblue" d="M1631.69,-262.869C1602.49,-251.571 1551.12,-231.696 1517.84,-218.818"/>
<polygon fill="midnightblue" stroke="midnightblue" points="1518.72,-215.408 1508.13,-215.064 1516.2,-221.936 1518.72,-215.408"/>
</g>
<!-- Node28 -->
<g id="node28" class="node"><title>Node28</title>
<polygon fill="white" stroke="#bfbfbf" points="1818.5,-196 1818.5,-215 1861.5,-215 1861.5,-196 1818.5,-196"/>
<text text-anchor="middle" x="1840" y="-203" font-family="Helvetica,sans-Serif" font-size="10.00">cstdio</text>
</g>
<!-- Node27&#45;&gt;Node28 -->
<g id="edge42" class="edge"><title>Node27&#45;&gt;Node28</title>
<path fill="none" stroke="midnightblue" d="M1683.81,-262.974C1715.3,-253.691 1766.23,-237.898 1809,-221 1810.42,-220.441 1811.86,-219.848 1813.31,-219.234"/>
<polygon fill="midnightblue" stroke="midnightblue" points="1815.08,-222.278 1822.78,-215.009 1812.23,-215.885 1815.08,-222.278"/>
</g>
<!-- Node29 -->
<g id="node29" class="node"><title>Node29</title>
<polygon fill="white" stroke="#bfbfbf" points="1682.5,-196 1682.5,-215 1731.5,-215 1731.5,-196 1682.5,-196"/>
<text text-anchor="middle" x="1707" y="-203" font-family="Helvetica,sans-Serif" font-size="10.00">cstdarg</text>
</g>
<!-- Node27&#45;&gt;Node29 -->
<g id="edge43" class="edge"><title>Node27&#45;&gt;Node29</title>
<path fill="none" stroke="midnightblue" d="M1661.15,-262.734C1669.41,-252.598 1683.2,-235.69 1693.5,-223.056"/>
<polygon fill="midnightblue" stroke="midnightblue" points="1696.36,-225.089 1699.97,-215.127 1690.93,-220.666 1696.36,-225.089"/>
</g>
<!-- Node30 -->
<g id="node30" class="node"><title>Node30</title>
<polygon fill="white" stroke="#bfbfbf" points="1750,-196 1750,-215 1800,-215 1800,-196 1750,-196"/>
<text text-anchor="middle" x="1775" y="-203" font-family="Helvetica,sans-Serif" font-size="10.00">fstream</text>
</g>
<!-- Node27&#45;&gt;Node30 -->
<g id="edge45" class="edge"><title>Node27&#45;&gt;Node30</title>
<path fill="none" stroke="midnightblue" d="M1670.32,-262.734C1690.82,-251.721 1726.2,-232.713 1750.09,-219.879"/>
<polygon fill="midnightblue" stroke="midnightblue" points="1751.79,-222.943 1758.94,-215.127 1748.47,-216.776 1751.79,-222.943"/>
</g>
</g>
</svg>
