<?xml version="1.0" encoding="UTF-8" standalone="no"?>
<!DOCTYPE svg PUBLIC "-//W3C//DTD SVG 1.1//EN"
 "http://www.w3.org/Graphics/SVG/1.1/DTD/svg11.dtd">
<!-- Generated by graphviz version 2.38.0 (20140413.2041)
 -->
<!-- Title: signal&#45;base.h Pages: 1 -->
<svg width="691pt" height="308pt"
 viewBox="0.00 0.00 691.00 308.00" xmlns="http://www.w3.org/2000/svg" xmlns:xlink="http://www.w3.org/1999/xlink">
<g id="graph0" class="graph" transform="scale(1 1) rotate(0) translate(4 304)">
<title>signal&#45;base.h</title>
<polygon fill="white" stroke="none" points="-4,4 -4,-304 687,-304 687,4 -4,4"/>
<!-- Node1 -->
<g id="node1" class="node"><title>Node1</title>
<polygon fill="#bfbfbf" stroke="black" points="473.5,-280.5 473.5,-299.5 547.5,-299.5 547.5,-280.5 473.5,-280.5"/>
<text text-anchor="middle" x="510.5" y="-287.5" font-family="Helvetica,sans-Serif" font-size="10.00">signal&#45;base.h</text>
</g>
<!-- Node2 -->
<g id="node2" class="node"><title>Node2</title>
<g id="a_node2"><a xlink:href="a00091.html" target="_top" xlink:title="signal.h">
<polygon fill="white" stroke="black" points="138.5,-168.5 138.5,-187.5 188.5,-187.5 188.5,-168.5 138.5,-168.5"/>
<text text-anchor="middle" x="163.5" y="-175.5" font-family="Helvetica,sans-Serif" font-size="10.00">signal.h</text>
</a>
</g>
</g>
<!-- Node1&#45;&gt;Node2 -->
<g id="edge1" class="edge"><title>Node1&#45;&gt;Node2</title>
<path fill="none" stroke="midnightblue" d="M473.737,-277.346C402.939,-254.903 249.33,-206.208 188.773,-187.012"/>
<polygon fill="midnightblue" stroke="midnightblue" points="472.97,-280.774 483.56,-280.46 475.085,-274.102 472.97,-280.774"/>
</g>
<!-- Node9 -->
<g id="node9" class="node"><title>Node9</title>
<g id="a_node9"><a xlink:href="a00097.html" target="_top" xlink:title="tracer.h">
<polygon fill="white" stroke="black" points="510.5,-56.5 510.5,-75.5 560.5,-75.5 560.5,-56.5 510.5,-56.5"/>
<text text-anchor="middle" x="535.5" y="-63.5" font-family="Helvetica,sans-Serif" font-size="10.00">tracer.h</text>
</a>
</g>
</g>
<!-- Node1&#45;&gt;Node9 -->
<g id="edge27" class="edge"><title>Node1&#45;&gt;Node9</title>
<path fill="none" stroke="midnightblue" d="M524.92,-272.482C540.338,-253.579 563.747,-220.96 572.5,-188 577.712,-168.372 567.319,-119.554 564.5,-112 559.366,-98.2419 549.522,-84.325 542.738,-75.6861"/>
<polygon fill="midnightblue" stroke="midnightblue" points="522.039,-270.47 518.286,-280.378 527.399,-274.973 522.039,-270.47"/>
</g>
<!-- Node11 -->
<g id="node11" class="node"><title>Node11</title>
<g id="a_node11"><a xlink:href="a00093.html" target="_top" xlink:title="time&#45;dependency.h">
<polygon fill="white" stroke="black" points="362,-168.5 362,-187.5 461,-187.5 461,-168.5 362,-168.5"/>
<text text-anchor="middle" x="411.5" y="-175.5" font-family="Helvetica,sans-Serif" font-size="10.00">time&#45;dependency.h</text>
</a>
</g>
</g>
<!-- Node1&#45;&gt;Node11 -->
<g id="edge15" class="edge"><title>Node1&#45;&gt;Node11</title>
<path fill="none" stroke="midnightblue" d="M475.183,-276.319C459.484,-269.058 441.993,-258.465 430.5,-244 417.043,-227.063 413.115,-200.894 411.97,-187.513"/>
<polygon fill="midnightblue" stroke="midnightblue" points="474.089,-279.659 484.657,-280.414 476.867,-273.233 474.089,-279.659"/>
</g>
<!-- Node13 -->
<g id="node13" class="node"><title>Node13</title>
<g id="a_node13"><a xlink:href="a00083.html" target="_top" xlink:title="signal&#45;array.h">
<polygon fill="white" stroke="black" points="440,-224.5 440,-243.5 515,-243.5 515,-224.5 440,-224.5"/>
<text text-anchor="middle" x="477.5" y="-231.5" font-family="Helvetica,sans-Serif" font-size="10.00">signal&#45;array.h</text>
</a>
</g>
</g>
<!-- Node1&#45;&gt;Node13 -->
<g id="edge20" class="edge"><title>Node1&#45;&gt;Node13</title>
<path fill="none" stroke="midnightblue" d="M499.668,-271.275C494.028,-262.045 487.382,-251.17 482.848,-243.751"/>
<polygon fill="midnightblue" stroke="midnightblue" points="496.85,-273.375 505.051,-280.083 502.823,-269.725 496.85,-273.375"/>
</g>
<!-- Node14 -->
<g id="node14" class="node"><title>Node14</title>
<g id="a_node14"><a xlink:href="a00071.html" target="_top" xlink:title="entity.h">
<polygon fill="white" stroke="black" points="515,-168.5 515,-187.5 564,-187.5 564,-168.5 515,-168.5"/>
<text text-anchor="middle" x="539.5" y="-175.5" font-family="Helvetica,sans-Serif" font-size="10.00">entity.h</text>
</a>
</g>
</g>
<!-- Node1&#45;&gt;Node14 -->
<g id="edge25" class="edge"><title>Node1&#45;&gt;Node14</title>
<path fill="none" stroke="midnightblue" d="M515.938,-270.795C518.333,-262.623 521.134,-252.849 523.5,-244 528.844,-224.016 534.492,-200.397 537.437,-187.86"/>
<polygon fill="midnightblue" stroke="midnightblue" points="512.577,-269.819 513.095,-280.402 519.289,-271.806 512.577,-269.819"/>
</g>
<!-- Node15 -->
<g id="node15" class="node"><title>Node15</title>
<g id="a_node15"><a xlink:href="a00081.html" target="_top" xlink:title="pool.h">
<polygon fill="white" stroke="black" points="640,-224.5 640,-243.5 683,-243.5 683,-224.5 640,-224.5"/>
<text text-anchor="middle" x="661.5" y="-231.5" font-family="Helvetica,sans-Serif" font-size="10.00">pool.h</text>
</a>
</g>
</g>
<!-- Node1&#45;&gt;Node15 -->
<g id="edge26" class="edge"><title>Node1&#45;&gt;Node15</title>
<path fill="none" stroke="midnightblue" d="M544.183,-276.955C573.329,-266.531 614.621,-251.765 639.647,-242.815"/>
<polygon fill="midnightblue" stroke="midnightblue" points="542.664,-273.781 534.426,-280.444 545.021,-280.372 542.664,-273.781"/>
</g>
<!-- Node3 -->
<g id="node3" class="node"><title>Node3</title>
<g id="a_node3"><a xlink:href="a00056.html" target="_top" xlink:title="all&#45;signals.h">
<polygon fill="white" stroke="black" points="99.5,-56.5 99.5,-75.5 167.5,-75.5 167.5,-56.5 99.5,-56.5"/>
<text text-anchor="middle" x="133.5" y="-63.5" font-family="Helvetica,sans-Serif" font-size="10.00">all&#45;signals.h</text>
</a>
</g>
</g>
<!-- Node2&#45;&gt;Node3 -->
<g id="edge2" class="edge"><title>Node2&#45;&gt;Node3</title>
<path fill="none" stroke="midnightblue" d="M143.256,-161.859C134.491,-154.031 125.18,-143.672 120.5,-132 112.791,-112.773 122.35,-88.4491 128.705,-75.7012"/>
<polygon fill="midnightblue" stroke="midnightblue" points="141.076,-164.599 151.003,-168.302 145.552,-159.217 141.076,-164.599"/>
</g>
<!-- Node4 -->
<g id="node4" class="node"><title>Node4</title>
<g id="a_node4"><a xlink:href="a00092.html" target="_top" xlink:title="signal.t.cpp">
<polygon fill="white" stroke="black" points="130,-112.5 130,-131.5 197,-131.5 197,-112.5 130,-112.5"/>
<text text-anchor="middle" x="163.5" y="-119.5" font-family="Helvetica,sans-Serif" font-size="10.00">signal.t.cpp</text>
</a>
</g>
</g>
<!-- Node2&#45;&gt;Node4 -->
<g id="edge3" class="edge"><title>Node2&#45;&gt;Node4</title>
<path fill="none" stroke="midnightblue" d="M157.028,-158.101C156.396,-149.136 156.843,-138.858 158.369,-131.751"/>
<polygon fill="midnightblue" stroke="midnightblue" points="153.566,-158.622 158.334,-168.083 160.507,-157.713 153.566,-158.622"/>
</g>
<!-- Node5 -->
<g id="node5" class="node"><title>Node5</title>
<g id="a_node5"><a xlink:href="a00088.html" target="_top" xlink:title="signal&#45;ptr.h">
<polygon fill="white" stroke="black" points="8,-112.5 8,-131.5 73,-131.5 73,-112.5 8,-112.5"/>
<text text-anchor="middle" x="40.5" y="-119.5" font-family="Helvetica,sans-Serif" font-size="10.00">signal&#45;ptr.h</text>
</a>
</g>
</g>
<!-- Node2&#45;&gt;Node5 -->
<g id="edge5" class="edge"><title>Node2&#45;&gt;Node5</title>
<path fill="none" stroke="midnightblue" d="M134.727,-164.368C111.693,-154.255 80.0162,-140.349 59.8985,-131.516"/>
<polygon fill="midnightblue" stroke="midnightblue" points="133.447,-167.628 144.01,-168.444 136.261,-161.219 133.447,-167.628"/>
</g>
<!-- Node8 -->
<g id="node8" class="node"><title>Node8</title>
<g id="a_node8"><a xlink:href="a00090.html" target="_top" xlink:title="signal&#45;time&#45;dependent.h">
<polygon fill="white" stroke="black" points="215.5,-112.5 215.5,-131.5 335.5,-131.5 335.5,-112.5 215.5,-112.5"/>
<text text-anchor="middle" x="275.5" y="-119.5" font-family="Helvetica,sans-Serif" font-size="10.00">signal&#45;time&#45;dependent.h</text>
</a>
</g>
</g>
<!-- Node2&#45;&gt;Node8 -->
<g id="edge10" class="edge"><title>Node2&#45;&gt;Node8</title>
<path fill="none" stroke="midnightblue" d="M190.749,-163.862C211.516,-153.849 239.523,-140.346 257.55,-131.655"/>
<polygon fill="midnightblue" stroke="midnightblue" points="188.982,-160.828 181.495,-168.324 192.023,-167.134 188.982,-160.828"/>
</g>
<!-- Node4&#45;&gt;Node2 -->
<g id="edge4" class="edge"><title>Node4&#45;&gt;Node2</title>
<path fill="none" stroke="midnightblue" d="M169.958,-141.691C170.606,-150.635 170.176,-160.927 168.666,-168.083"/>
<polygon fill="midnightblue" stroke="midnightblue" points="173.423,-141.2 168.631,-131.751 166.485,-142.126 173.423,-141.2"/>
</g>
<!-- Node5&#45;&gt;Node3 -->
<g id="edge6" class="edge"><title>Node5&#45;&gt;Node3</title>
<path fill="none" stroke="midnightblue" d="M64.3057,-107.177C81.4189,-97.2407 103.965,-84.1492 118.595,-75.6545"/>
<polygon fill="midnightblue" stroke="midnightblue" points="62.3325,-104.276 55.4421,-112.324 65.8475,-110.329 62.3325,-104.276"/>
</g>
<!-- Node6 -->
<g id="node6" class="node"><title>Node6</title>
<g id="a_node6"><a xlink:href="a00089.html" target="_top" xlink:title="signal&#45;ptr.t.cpp">
<polygon fill="white" stroke="black" points="0,-56.5 0,-75.5 81,-75.5 81,-56.5 0,-56.5"/>
<text text-anchor="middle" x="40.5" y="-63.5" font-family="Helvetica,sans-Serif" font-size="10.00">signal&#45;ptr.t.cpp</text>
</a>
</g>
</g>
<!-- Node5&#45;&gt;Node6 -->
<g id="edge7" class="edge"><title>Node5&#45;&gt;Node6</title>
<path fill="none" stroke="midnightblue" d="M34.0276,-102.101C33.3956,-93.1357 33.8427,-82.8579 35.369,-75.7511"/>
<polygon fill="midnightblue" stroke="midnightblue" points="30.5658,-102.622 35.3337,-112.083 37.5067,-101.713 30.5658,-102.622"/>
</g>
<!-- Node7 -->
<g id="node7" class="node"><title>Node7</title>
<g id="a_node7"><a xlink:href="a00087.html" target="_top" xlink:title="signal&#45;helper.h">
<polygon fill="white" stroke="black" points="235.5,-56.5 235.5,-75.5 315.5,-75.5 315.5,-56.5 235.5,-56.5"/>
<text text-anchor="middle" x="275.5" y="-63.5" font-family="Helvetica,sans-Serif" font-size="10.00">signal&#45;helper.h</text>
</a>
</g>
</g>
<!-- Node5&#45;&gt;Node7 -->
<g id="edge9" class="edge"><title>Node5&#45;&gt;Node7</title>
<path fill="none" stroke="midnightblue" d="M83.0747,-111.217C127.443,-101.022 196.265,-85.2071 238.458,-75.5118"/>
<polygon fill="midnightblue" stroke="midnightblue" points="82.1379,-107.841 73.1757,-113.492 83.7056,-114.663 82.1379,-107.841"/>
</g>
<!-- Node6&#45;&gt;Node5 -->
<g id="edge8" class="edge"><title>Node6&#45;&gt;Node5</title>
<path fill="none" stroke="midnightblue" d="M46.9575,-85.6911C47.6062,-94.6353 47.1758,-104.927 45.6663,-112.083"/>
<polygon fill="midnightblue" stroke="midnightblue" points="50.4231,-85.2002 45.631,-75.7511 43.4846,-86.1262 50.4231,-85.2002"/>
</g>
<!-- Node8&#45;&gt;Node3 -->
<g id="edge11" class="edge"><title>Node8&#45;&gt;Node3</title>
<path fill="none" stroke="midnightblue" d="M243.345,-108.772C216.672,-98.6287 179.431,-84.4669 155.895,-75.5164"/>
<polygon fill="midnightblue" stroke="midnightblue" points="242.409,-112.16 253,-112.444 244.897,-105.618 242.409,-112.16"/>
</g>
<!-- Node8&#45;&gt;Node7 -->
<g id="edge12" class="edge"><title>Node8&#45;&gt;Node7</title>
<path fill="none" stroke="midnightblue" d="M275.5,-101.805C275.5,-92.9102 275.5,-82.7798 275.5,-75.7511"/>
<polygon fill="midnightblue" stroke="midnightblue" points="272,-102.083 275.5,-112.083 279,-102.083 272,-102.083"/>
</g>
<!-- Node8&#45;&gt;Node9 -->
<g id="edge13" class="edge"><title>Node8&#45;&gt;Node9</title>
<path fill="none" stroke="midnightblue" d="M326.654,-110.376C381.976,-98.8857 467.913,-81.0374 510.219,-72.2506"/>
<polygon fill="midnightblue" stroke="midnightblue" points="325.777,-106.983 316.698,-112.444 327.201,-113.837 325.777,-106.983"/>
</g>
<!-- Node10 -->
<g id="node10" class="node"><title>Node10</title>
<g id="a_node10"><a xlink:href="a00095.html" target="_top" xlink:title="tracer&#45;real&#45;time.h">
<polygon fill="white" stroke="black" points="490.5,-0.5 490.5,-19.5 580.5,-19.5 580.5,-0.5 490.5,-0.5"/>
<text text-anchor="middle" x="535.5" y="-7.5" font-family="Helvetica,sans-Serif" font-size="10.00">tracer&#45;real&#45;time.h</text>
</a>
</g>
</g>
<!-- Node9&#45;&gt;Node10 -->
<g id="edge14" class="edge"><title>Node9&#45;&gt;Node10</title>
<path fill="none" stroke="midnightblue" d="M535.5,-45.8045C535.5,-36.9102 535.5,-26.7798 535.5,-19.7511"/>
<polygon fill="midnightblue" stroke="midnightblue" points="532,-46.083 535.5,-56.083 539,-46.083 532,-46.083"/>
</g>
<!-- Node11&#45;&gt;Node8 -->
<g id="edge16" class="edge"><title>Node11&#45;&gt;Node8</title>
<path fill="none" stroke="midnightblue" d="M380.365,-164.638C354.843,-154.504 319.391,-140.427 296.949,-131.516"/>
<polygon fill="midnightblue" stroke="midnightblue" points="379.365,-168.006 389.95,-168.444 381.948,-161.5 379.365,-168.006"/>
</g>
<!-- Node11&#45;&gt;Node9 -->
<g id="edge19" class="edge"><title>Node11&#45;&gt;Node9</title>
<path fill="none" stroke="midnightblue" d="M435.29,-163.138C448.607,-154.872 465.161,-143.726 478.5,-132 499.016,-113.964 519.17,-88.7199 529.108,-75.6326"/>
<polygon fill="midnightblue" stroke="midnightblue" points="433.4,-160.191 426.668,-168.372 437.033,-166.174 433.4,-160.191"/>
</g>
<!-- Node12 -->
<g id="node12" class="node"><title>Node12</title>
<g id="a_node12"><a xlink:href="a00094.html" target="_top" xlink:title="time&#45;dependency.t.cpp">
<polygon fill="white" stroke="black" points="353.5,-112.5 353.5,-131.5 469.5,-131.5 469.5,-112.5 353.5,-112.5"/>
<text text-anchor="middle" x="411.5" y="-119.5" font-family="Helvetica,sans-Serif" font-size="10.00">time&#45;dependency.t.cpp</text>
</a>
</g>
</g>
<!-- Node11&#45;&gt;Node12 -->
<g id="edge17" class="edge"><title>Node11&#45;&gt;Node12</title>
<path fill="none" stroke="midnightblue" d="M405.028,-158.101C404.396,-149.136 404.843,-138.858 406.369,-131.751"/>
<polygon fill="midnightblue" stroke="midnightblue" points="401.566,-158.622 406.334,-168.083 408.507,-157.713 401.566,-158.622"/>
</g>
<!-- Node12&#45;&gt;Node11 -->
<g id="edge18" class="edge"><title>Node12&#45;&gt;Node11</title>
<path fill="none" stroke="midnightblue" d="M417.958,-141.691C418.606,-150.635 418.176,-160.927 416.666,-168.083"/>
<polygon fill="midnightblue" stroke="midnightblue" points="421.423,-141.2 416.631,-131.751 414.485,-142.126 421.423,-141.2"/>
</g>
<!-- Node13&#45;&gt;Node11 -->
<g id="edge21" class="edge"><title>Node13&#45;&gt;Node11</title>
<path fill="none" stroke="midnightblue" d="M458.946,-217.82C447.122,-208.145 432.214,-195.948 422.297,-187.834"/>
<polygon fill="midnightblue" stroke="midnightblue" points="456.94,-220.7 466.896,-224.324 461.373,-215.283 456.94,-220.7"/>
</g>
<!-- Node13&#45;&gt;Node14 -->
<g id="edge22" class="edge"><title>Node13&#45;&gt;Node14</title>
<path fill="none" stroke="midnightblue" d="M495.254,-217.537C506.308,-207.909 520.131,-195.869 529.357,-187.834"/>
<polygon fill="midnightblue" stroke="midnightblue" points="492.703,-215.117 487.461,-224.324 497.301,-220.395 492.703,-215.117"/>
</g>
<!-- Node14&#45;&gt;Node7 -->
<g id="edge23" class="edge"><title>Node14&#45;&gt;Node7</title>
<path fill="none" stroke="midnightblue" d="M528.035,-159.892C517.085,-144.928 499.215,-123.796 478.5,-112 427.211,-82.7945 358.632,-72.5389 315.769,-68.9406"/>
<polygon fill="midnightblue" stroke="midnightblue" points="525.31,-162.102 533.922,-168.273 531.038,-158.078 525.31,-162.102"/>
</g>
<!-- Node14&#45;&gt;Node9 -->
<g id="edge24" class="edge"><title>Node14&#45;&gt;Node9</title>
<path fill="none" stroke="midnightblue" d="M545.347,-158.529C548.728,-145.521 551.885,-127.697 549.5,-112 547.533,-99.0576 542.556,-84.7151 539.1,-75.7782"/>
<polygon fill="midnightblue" stroke="midnightblue" points="541.974,-157.592 542.57,-168.17 548.701,-159.53 541.974,-157.592"/>
</g>
</g>
</svg>
