<?xml version="1.0" encoding="UTF-8" standalone="no"?>
<!DOCTYPE svg PUBLIC "-//W3C//DTD SVG 1.1//EN"
 "http://www.w3.org/Graphics/SVG/1.1/DTD/svg11.dtd">
<!-- Generated by graphviz version 2.38.0 (20140413.2041)
 -->
<!-- Title: factory.h Pages: 1 -->
<svg width="613pt" height="285pt"
 viewBox="0.00 0.00 613.00 285.00" xmlns="http://www.w3.org/2000/svg" xmlns:xlink="http://www.w3.org/1999/xlink">
<g id="graph0" class="graph" transform="scale(1 1) rotate(0) translate(4 281)">
<title>factory.h</title>
<polygon fill="white" stroke="none" points="-4,4 -4,-281 609,-281 609,4 -4,4"/>
<!-- Node1 -->
<g id="node1" class="node"><title>Node1</title>
<polygon fill="#bfbfbf" stroke="black" points="332,-257.5 332,-276.5 387,-276.5 387,-257.5 332,-257.5"/>
<text text-anchor="middle" x="359.5" y="-264.5" font-family="Helvetica,sans-Serif" font-size="10.00">factory.h</text>
</g>
<!-- Node2 -->
<g id="node2" class="node"><title>Node2</title>
<polygon fill="white" stroke="#bfbfbf" points="0,-196 0,-215 35,-215 35,-196 0,-196"/>
<text text-anchor="middle" x="17.5" y="-203" font-family="Helvetica,sans-Serif" font-size="10.00">map</text>
</g>
<!-- Node1&#45;&gt;Node2 -->
<g id="edge1" class="edge"><title>Node1&#45;&gt;Node2</title>
<path fill="none" stroke="midnightblue" d="M331.999,-264.602C277.22,-261.255 151.015,-250.72 49.5,-221 47.5683,-220.434 45.6029,-219.774 43.6446,-219.052"/>
<polygon fill="midnightblue" stroke="midnightblue" points="44.6783,-215.691 34.1006,-215.089 41.9941,-222.156 44.6783,-215.691"/>
</g>
<!-- Node3 -->
<g id="node3" class="node"><title>Node3</title>
<polygon fill="white" stroke="#bfbfbf" points="76,-62 76,-81 117,-81 117,-62 76,-62"/>
<text text-anchor="middle" x="96.5" y="-69" font-family="Helvetica,sans-Serif" font-size="10.00">string</text>
</g>
<!-- Node1&#45;&gt;Node3 -->
<g id="edge2" class="edge"><title>Node1&#45;&gt;Node3</title>
<path fill="none" stroke="midnightblue" d="M331.614,-264.295C274.851,-259.092 147.299,-238.123 100.5,-154 89.7095,-134.604 90.6289,-108.421 92.9665,-91.0249"/>
<polygon fill="midnightblue" stroke="midnightblue" points="96.4426,-91.4544 94.5986,-81.0213 89.5339,-90.3272 96.4426,-91.4544"/>
</g>
<!-- Node4 -->
<g id="node4" class="node"><title>Node4</title>
<polygon fill="white" stroke="#bfbfbf" points="425.5,-196 425.5,-215 469.5,-215 469.5,-196 425.5,-196"/>
<text text-anchor="middle" x="447.5" y="-203" font-family="Helvetica,sans-Serif" font-size="10.00">vector</text>
</g>
<!-- Node1&#45;&gt;Node4 -->
<g id="edge3" class="edge"><title>Node1&#45;&gt;Node4</title>
<path fill="none" stroke="midnightblue" d="M372.108,-257.475C386.223,-247.931 409.331,-232.307 426.249,-220.868"/>
<polygon fill="midnightblue" stroke="midnightblue" points="428.591,-223.51 434.915,-215.009 424.671,-217.711 428.591,-223.51"/>
</g>
<!-- Node5 -->
<g id="node5" class="node"><title>Node5</title>
<polygon fill="white" stroke="#bfbfbf" points="488,-196 488,-215 605,-215 605,-196 488,-196"/>
<text text-anchor="middle" x="546.5" y="-203" font-family="Helvetica,sans-Serif" font-size="10.00">boost/noncopyable.hpp</text>
</g>
<!-- Node1&#45;&gt;Node5 -->
<g id="edge4" class="edge"><title>Node1&#45;&gt;Node5</title>
<path fill="none" stroke="midnightblue" d="M386.293,-257.475C418.786,-247.136 473.708,-229.661 510.038,-218.102"/>
<polygon fill="midnightblue" stroke="midnightblue" points="511.289,-221.376 519.757,-215.009 509.167,-214.706 511.289,-221.376"/>
</g>
<!-- Node6 -->
<g id="node6" class="node"><title>Node6</title>
<g id="a_node6"><a xlink:href="a00076.html" target="_top" xlink:title="dynamic&#45;graph/fwd.hh">
<polygon fill="white" stroke="black" points="346,-62 346,-81 459,-81 459,-62 346,-62"/>
<text text-anchor="middle" x="402.5" y="-69" font-family="Helvetica,sans-Serif" font-size="10.00">dynamic&#45;graph/fwd.hh</text>
</a>
</g>
</g>
<!-- Node1&#45;&gt;Node6 -->
<g id="edge5" class="edge"><title>Node1&#45;&gt;Node6</title>
<path fill="none" stroke="midnightblue" d="M362.464,-257.452C365.512,-248.458 370.256,-233.852 373.5,-221 385.139,-174.886 394.821,-119.721 399.492,-91.3733"/>
<polygon fill="midnightblue" stroke="midnightblue" points="402.983,-91.7086 401.129,-81.2773 396.073,-90.588 402.983,-91.7086"/>
</g>
<!-- Node7 -->
<g id="node7" class="node"><title>Node7</title>
<g id="a_node7"><a xlink:href="a00072.html" target="_top" xlink:title="dynamic&#45;graph/exception\l&#45;factory.h">
<polygon fill="white" stroke="black" points="206,-190.5 206,-220.5 331,-220.5 331,-190.5 206,-190.5"/>
<text text-anchor="start" x="214" y="-208.5" font-family="Helvetica,sans-Serif" font-size="10.00">dynamic&#45;graph/exception</text>
<text text-anchor="middle" x="268.5" y="-197.5" font-family="Helvetica,sans-Serif" font-size="10.00">&#45;factory.h</text>
</a>
</g>
</g>
<!-- Node1&#45;&gt;Node7 -->
<g id="edge6" class="edge"><title>Node1&#45;&gt;Node7</title>
<path fill="none" stroke="midnightblue" d="M346.462,-257.475C334.022,-249.341 314.827,-236.791 298.597,-226.179"/>
<polygon fill="midnightblue" stroke="midnightblue" points="300.232,-223.066 289.947,-220.523 296.401,-228.925 300.232,-223.066"/>
</g>
<!-- Node8 -->
<g id="node8" class="node"><title>Node8</title>
<g id="a_node8"><a xlink:href="a00067.html" target="_top" xlink:title="dynamic&#45;graph/dynamic\l&#45;graph&#45;api.h">
<polygon fill="white" stroke="black" points="207.5,-56.5 207.5,-86.5 327.5,-86.5 327.5,-56.5 207.5,-56.5"/>
<text text-anchor="start" x="215.5" y="-74.5" font-family="Helvetica,sans-Serif" font-size="10.00">dynamic&#45;graph/dynamic</text>
<text text-anchor="middle" x="267.5" y="-63.5" font-family="Helvetica,sans-Serif" font-size="10.00">&#45;graph&#45;api.h</text>
</a>
</g>
</g>
<!-- Node1&#45;&gt;Node8 -->
<g id="edge16" class="edge"><title>Node1&#45;&gt;Node8</title>
<path fill="none" stroke="midnightblue" d="M358.227,-257.286C355.923,-242.86 350.362,-213.296 340.5,-190 325.54,-154.662 300.815,-117.66 284.343,-94.8399"/>
<polygon fill="midnightblue" stroke="midnightblue" points="286.995,-92.5375 278.262,-86.5388 281.349,-96.6742 286.995,-92.5375"/>
</g>
<!-- Node7&#45;&gt;Node3 -->
<g id="edge7" class="edge"><title>Node7&#45;&gt;Node3</title>
<path fill="none" stroke="midnightblue" d="M205.915,-196.631C176.406,-189.876 142.855,-177.324 120.5,-154 104.272,-137.068 98.9442,-109.73 97.2364,-91.4431"/>
<polygon fill="midnightblue" stroke="midnightblue" points="100.725,-91.1495 96.5758,-81.4008 93.7398,-91.609 100.725,-91.1495"/>
</g>
<!-- Node7&#45;&gt;Node6 -->
<g id="edge8" class="edge"><title>Node7&#45;&gt;Node6</title>
<path fill="none" stroke="midnightblue" d="M282.84,-190.374C308.049,-165.541 360.126,-114.241 386.478,-88.2825"/>
<polygon fill="midnightblue" stroke="midnightblue" points="389.105,-90.6084 393.772,-81.0973 384.192,-85.6216 389.105,-90.6084"/>
</g>
<!-- Node7&#45;&gt;Node8 -->
<g id="edge9" class="edge"><title>Node7&#45;&gt;Node8</title>
<path fill="none" stroke="midnightblue" d="M268.393,-190.374C268.224,-168.044 267.893,-124.313 267.684,-96.8509"/>
<polygon fill="midnightblue" stroke="midnightblue" points="271.182,-96.4979 267.606,-86.5247 264.182,-96.551 271.182,-96.4979"/>
</g>
<!-- Node10 -->
<g id="node10" class="node"><title>Node10</title>
<g id="a_node10"><a xlink:href="a00071.html" target="_top" xlink:title="dynamic&#45;graph/exception\l&#45;abstract.h">
<polygon fill="white" stroke="black" points="130,-123.5 130,-153.5 255,-153.5 255,-123.5 130,-123.5"/>
<text text-anchor="start" x="138" y="-141.5" font-family="Helvetica,sans-Serif" font-size="10.00">dynamic&#45;graph/exception</text>
<text text-anchor="middle" x="192.5" y="-130.5" font-family="Helvetica,sans-Serif" font-size="10.00">&#45;abstract.h</text>
</a>
</g>
</g>
<!-- Node7&#45;&gt;Node10 -->
<g id="edge11" class="edge"><title>Node7&#45;&gt;Node10</title>
<path fill="none" stroke="midnightblue" d="M252.009,-190.396C241.652,-181.538 228.115,-169.96 216.57,-160.086"/>
<polygon fill="midnightblue" stroke="midnightblue" points="218.833,-157.416 208.959,-153.577 214.283,-162.736 218.833,-157.416"/>
</g>
<!-- Node9 -->
<g id="node9" class="node"><title>Node9</title>
<polygon fill="white" stroke="#bfbfbf" points="206,-0.5 206,-19.5 329,-19.5 329,-0.5 206,-0.5"/>
<text text-anchor="middle" x="267.5" y="-7.5" font-family="Helvetica,sans-Serif" font-size="10.00">dynamic&#45;graph/config.hh</text>
</g>
<!-- Node8&#45;&gt;Node9 -->
<g id="edge10" class="edge"><title>Node8&#45;&gt;Node9</title>
<path fill="none" stroke="midnightblue" d="M267.5,-56.3993C267.5,-48.4664 267.5,-38.458 267.5,-29.8583"/>
<polygon fill="midnightblue" stroke="midnightblue" points="271,-29.6577 267.5,-19.6578 264,-29.6578 271,-29.6577"/>
</g>
<!-- Node10&#45;&gt;Node3 -->
<g id="edge13" class="edge"><title>Node10&#45;&gt;Node3</title>
<path fill="none" stroke="midnightblue" d="M171.669,-123.396C155.72,-112.597 133.802,-97.7564 117.749,-86.8872"/>
<polygon fill="midnightblue" stroke="midnightblue" points="119.307,-83.7154 109.064,-81.007 115.382,-89.5118 119.307,-83.7154"/>
</g>
<!-- Node10&#45;&gt;Node6 -->
<g id="edge14" class="edge"><title>Node10&#45;&gt;Node6</title>
<path fill="none" stroke="midnightblue" d="M237.808,-123.476C275.779,-111.723 329.345,-95.1433 364.957,-84.1205"/>
<polygon fill="midnightblue" stroke="midnightblue" points="366.428,-87.3291 374.946,-81.0287 364.358,-80.6421 366.428,-87.3291"/>
</g>
<!-- Node10&#45;&gt;Node8 -->
<g id="edge15" class="edge"><title>Node10&#45;&gt;Node8</title>
<path fill="none" stroke="midnightblue" d="M208.774,-123.396C218.897,-114.623 232.097,-103.183 243.418,-93.3714"/>
<polygon fill="midnightblue" stroke="midnightblue" points="245.993,-95.7708 251.258,-86.5765 241.409,-90.4809 245.993,-95.7708"/>
</g>
<!-- Node11 -->
<g id="node11" class="node"><title>Node11</title>
<polygon fill="white" stroke="#bfbfbf" points="135.5,-62 135.5,-81 189.5,-81 189.5,-62 135.5,-62"/>
<text text-anchor="middle" x="162.5" y="-69" font-family="Helvetica,sans-Serif" font-size="10.00">iostream</text>
</g>
<!-- Node10&#45;&gt;Node11 -->
<g id="edge12" class="edge"><title>Node10&#45;&gt;Node11</title>
<path fill="none" stroke="midnightblue" d="M185.99,-123.396C181.544,-113.763 175.614,-100.914 170.825,-90.5373"/>
<polygon fill="midnightblue" stroke="midnightblue" points="173.881,-88.8074 166.513,-81.1945 167.526,-91.7409 173.881,-88.8074"/>
</g>
</g>
</svg>
