<?xml version="1.0" encoding="UTF-8" standalone="no"?>
<!DOCTYPE svg PUBLIC "-//W3C//DTD SVG 1.1//EN"
 "http://www.w3.org/Graphics/SVG/1.1/DTD/svg11.dtd">
<!-- Generated by graphviz version 2.38.0 (20140413.2041)
 -->
<!-- Title: dynamicgraph::Contiifstream Pages: 1 -->
<svg width="211pt" height="230pt"
 viewBox="0.00 0.00 211.00 230.00" xmlns="http://www.w3.org/2000/svg" xmlns:xlink="http://www.w3.org/1999/xlink">
<g id="graph0" class="graph" transform="scale(1 1) rotate(0) translate(4 226)">
<title>dynamicgraph::Contiifstream</title>
<polygon fill="white" stroke="none" points="-4,4 -4,-226 207,-226 207,4 -4,4"/>
<!-- Node1 -->
<g id="node1" class="node"><title>Node1</title>
<polygon fill="#bfbfbf" stroke="black" points="0,-0.5 0,-19.5 142,-19.5 142,-0.5 0,-0.5"/>
<text text-anchor="middle" x="71" y="-7.5" font-family="Helvetica,sans-Serif" font-size="10.00">dynamicgraph::Contiifstream</text>
</g>
<!-- Node2 -->
<g id="node2" class="node"><title>Node2</title>
<g id="a_node2"><a xlink:title="STL class. ">
<polygon fill="white" stroke="#bfbfbf" points="21,-134.5 21,-153.5 81,-153.5 81,-134.5 21,-134.5"/>
<text text-anchor="middle" x="51" y="-141.5" font-family="Helvetica,sans-Serif" font-size="10.00">std::string</text>
</a>
</g>
</g>
<!-- Node2&#45;&gt;Node1 -->
<g id="edge1" class="edge"><title>Node2&#45;&gt;Node1</title>
<path fill="none" stroke="#9a32cd" stroke-dasharray="5,2" d="M46.0942,-124.564C42.7232,-109.039 39.5825,-86.3337 44,-67 48.0871,-49.1125 58.6524,-30.287 65.2898,-19.6573"/>
<polygon fill="#9a32cd" stroke="#9a32cd" points="42.7322,-125.553 48.4847,-134.45 49.5361,-123.907 42.7322,-125.553"/>
<text text-anchor="middle" x="64" y="-74.5" font-family="Helvetica,sans-Serif" font-size="10.00"> filename</text>
</g>
<!-- Node4 -->
<g id="node4" class="node"><title>Node4</title>
<polygon fill="white" stroke="#bfbfbf" points="93,-67.5 93,-86.5 203,-86.5 203,-67.5 93,-67.5"/>
<text text-anchor="middle" x="148" y="-74.5" font-family="Helvetica,sans-Serif" font-size="10.00">std::list&lt; std::string &gt;</text>
</g>
<!-- Node2&#45;&gt;Node4 -->
<g id="edge4" class="edge"><title>Node2&#45;&gt;Node4</title>
<path fill="none" stroke="#9a32cd" stroke-dasharray="5,2" d="M72.4974,-128.595C91.6864,-115.736 119.153,-97.3306 135.125,-86.6273"/>
<polygon fill="#9a32cd" stroke="#9a32cd" points="70.4408,-125.759 64.0819,-134.234 74.3375,-131.575 70.4408,-125.759"/>
<text text-anchor="middle" x="126.5" y="-108" font-family="Helvetica,sans-Serif" font-size="10.00"> elements</text>
</g>
<!-- Node3 -->
<g id="node3" class="node"><title>Node3</title>
<g id="a_node3"><a xlink:title="STL class. ">
<polygon fill="white" stroke="#bfbfbf" points="3.5,-191.5 3.5,-221.5 98.5,-221.5 98.5,-191.5 3.5,-191.5"/>
<text text-anchor="start" x="11.5" y="-209.5" font-family="Helvetica,sans-Serif" font-size="10.00">std::basic_string&lt;</text>
<text text-anchor="middle" x="51" y="-198.5" font-family="Helvetica,sans-Serif" font-size="10.00"> char &gt;</text>
</a>
</g>
</g>
<!-- Node3&#45;&gt;Node2 -->
<g id="edge2" class="edge"><title>Node3&#45;&gt;Node2</title>
<path fill="none" stroke="midnightblue" d="M51,-181.352C51,-171.513 51,-160.775 51,-153.54"/>
<polygon fill="midnightblue" stroke="midnightblue" points="47.5001,-181.468 51,-191.468 54.5001,-181.468 47.5001,-181.468"/>
</g>
<!-- Node4&#45;&gt;Node1 -->
<g id="edge3" class="edge"><title>Node4&#45;&gt;Node1</title>
<path fill="none" stroke="#9a32cd" stroke-dasharray="5,2" d="M129.891,-60.7134C114.721,-47.907 93.6124,-30.0884 81.22,-19.6273"/>
<polygon fill="#9a32cd" stroke="#9a32cd" points="127.716,-63.4577 137.615,-67.2338 132.232,-58.1088 127.716,-63.4577"/>
<text text-anchor="middle" x="129.5" y="-41" font-family="Helvetica,sans-Serif" font-size="10.00"> reader</text>
</g>
</g>
</svg>
