<?xml version="1.0" encoding="UTF-8" standalone="no"?>
<!DOCTYPE svg PUBLIC "-//W3C//DTD SVG 1.1//EN"
 "http://www.w3.org/Graphics/SVG/1.1/DTD/svg11.dtd">
<!-- Generated by graphviz version 2.38.0 (20140413.2041)
 -->
<!-- Title: pool.h Pages: 1 -->
<svg width="834pt" height="352pt"
 viewBox="0.00 0.00 833.50 352.00" xmlns="http://www.w3.org/2000/svg" xmlns:xlink="http://www.w3.org/1999/xlink">
<g id="graph0" class="graph" transform="scale(1 1) rotate(0) translate(4 348)">
<title>pool.h</title>
<polygon fill="white" stroke="none" points="-4,4 -4,-348 829.5,-348 829.5,4 -4,4"/>
<!-- Node1 -->
<g id="node1" class="node"><title>Node1</title>
<polygon fill="#bfbfbf" stroke="black" points="209,-324.5 209,-343.5 252,-343.5 252,-324.5 209,-324.5"/>
<text text-anchor="middle" x="230.5" y="-331.5" font-family="Helvetica,sans-Serif" font-size="10.00">pool.h</text>
</g>
<!-- Node2 -->
<g id="node2" class="node"><title>Node2</title>
<polygon fill="white" stroke="#bfbfbf" points="0,-263 0,-282 35,-282 35,-263 0,-263"/>
<text text-anchor="middle" x="17.5" y="-270" font-family="Helvetica,sans-Serif" font-size="10.00">map</text>
</g>
<!-- Node1&#45;&gt;Node2 -->
<g id="edge1" class="edge"><title>Node1&#45;&gt;Node2</title>
<path fill="none" stroke="midnightblue" d="M208.956,-328.966C174.66,-322.251 105.776,-307.563 49.5,-288 47.8365,-287.422 46.1411,-286.789 44.4423,-286.123"/>
<polygon fill="midnightblue" stroke="midnightblue" points="45.4442,-282.746 34.8714,-282.063 42.7106,-289.19 45.4442,-282.746"/>
</g>
<!-- Node3 -->
<g id="node3" class="node"><title>Node3</title>
<polygon fill="white" stroke="#bfbfbf" points="98,-62 98,-81 139,-81 139,-62 98,-62"/>
<text text-anchor="middle" x="118.5" y="-69" font-family="Helvetica,sans-Serif" font-size="10.00">string</text>
</g>
<!-- Node1&#45;&gt;Node3 -->
<g id="edge2" class="edge"><title>Node1&#45;&gt;Node3</title>
<path fill="none" stroke="midnightblue" d="M212.89,-324.365C198.375,-316.525 178.044,-303.79 164.5,-288 114.695,-229.935 113.231,-199.465 115.5,-123 115.811,-112.515 116.485,-100.821 117.115,-91.3285"/>
<polygon fill="midnightblue" stroke="midnightblue" points="120.626,-91.2916 117.835,-81.0711 113.644,-90.8014 120.626,-91.2916"/>
</g>
<!-- Node4 -->
<g id="node4" class="node"><title>Node4</title>
<polygon fill="white" stroke="#bfbfbf" points="773.5,-196 773.5,-215 825.5,-215 825.5,-196 773.5,-196"/>
<text text-anchor="middle" x="799.5" y="-203" font-family="Helvetica,sans-Serif" font-size="10.00">sstream</text>
</g>
<!-- Node1&#45;&gt;Node4 -->
<g id="edge3" class="edge"><title>Node1&#45;&gt;Node4</title>
<path fill="none" stroke="midnightblue" d="M252.017,-333.595C314.84,-334.722 502.83,-333.748 649.5,-288 699.068,-272.539 751.043,-240.07 778.916,-221.113"/>
<polygon fill="midnightblue" stroke="midnightblue" points="781.169,-223.81 787.406,-215.246 777.19,-218.051 781.169,-223.81"/>
</g>
<!-- Node5 -->
<g id="node5" class="node"><title>Node5</title>
<g id="a_node5"><a xlink:href="a00077.html" target="_top" xlink:title="dynamic&#45;graph/fwd.hh">
<polygon fill="white" stroke="black" points="455,-62 455,-81 568,-81 568,-62 455,-62"/>
<text text-anchor="middle" x="511.5" y="-69" font-family="Helvetica,sans-Serif" font-size="10.00">dynamic&#45;graph/fwd.hh</text>
</a>
</g>
</g>
<!-- Node1&#45;&gt;Node5 -->
<g id="edge4" class="edge"><title>Node1&#45;&gt;Node5</title>
<path fill="none" stroke="midnightblue" d="M251.807,-324.485C291.777,-307.961 379.803,-268.923 444.5,-221 478.088,-196.12 494.413,-192.579 510.5,-154 518.907,-133.838 517.539,-108.356 515.127,-91.3014"/>
<polygon fill="midnightblue" stroke="midnightblue" points="518.507,-90.2919 513.398,-81.01 511.603,-91.4517 518.507,-90.2919"/>
</g>
<!-- Node6 -->
<g id="node6" class="node"><title>Node6</title>
<g id="a_node6"><a xlink:href="a00073.html" target="_top" xlink:title="dynamic&#45;graph/exception\l&#45;factory.h">
<polygon fill="white" stroke="black" points="168,-190.5 168,-220.5 293,-220.5 293,-190.5 168,-190.5"/>
<text text-anchor="start" x="176" y="-208.5" font-family="Helvetica,sans-Serif" font-size="10.00">dynamic&#45;graph/exception</text>
<text text-anchor="middle" x="230.5" y="-197.5" font-family="Helvetica,sans-Serif" font-size="10.00">&#45;factory.h</text>
</a>
</g>
</g>
<!-- Node1&#45;&gt;Node6 -->
<g id="edge5" class="edge"><title>Node1&#45;&gt;Node6</title>
<path fill="none" stroke="midnightblue" d="M230.5,-324.305C230.5,-305.298 230.5,-259.47 230.5,-230.9"/>
<polygon fill="midnightblue" stroke="midnightblue" points="234,-230.888 230.5,-220.888 227,-230.888 234,-230.888"/>
</g>
<!-- Node7 -->
<g id="node7" class="node"><title>Node7</title>
<g id="a_node7"><a xlink:href="a00068.html" target="_top" xlink:title="dynamic&#45;graph/dynamic\l&#45;graph&#45;api.h">
<polygon fill="white" stroke="black" points="174.5,-56.5 174.5,-86.5 294.5,-86.5 294.5,-56.5 174.5,-56.5"/>
<text text-anchor="start" x="182.5" y="-74.5" font-family="Helvetica,sans-Serif" font-size="10.00">dynamic&#45;graph/dynamic</text>
<text text-anchor="middle" x="234.5" y="-63.5" font-family="Helvetica,sans-Serif" font-size="10.00">&#45;graph&#45;api.h</text>
</a>
</g>
</g>
<!-- Node1&#45;&gt;Node7 -->
<g id="edge26" class="edge"><title>Node1&#45;&gt;Node7</title>
<path fill="none" stroke="midnightblue" d="M220.807,-324.428C197.698,-302.899 142.445,-244.383 158.5,-190 169.418,-153.017 196.013,-116.725 214.648,-94.4842"/>
<polygon fill="midnightblue" stroke="midnightblue" points="217.493,-96.5434 221.351,-86.6759 212.182,-91.9838 217.493,-96.5434"/>
</g>
<!-- Node11 -->
<g id="node11" class="node"><title>Node11</title>
<g id="a_node11"><a xlink:href="a00084.html" target="_top" xlink:title="dynamic&#45;graph/signal\l&#45;base.h">
<polygon fill="white" stroke="black" points="531,-257.5 531,-287.5 640,-287.5 640,-257.5 531,-257.5"/>
<text text-anchor="start" x="539" y="-275.5" font-family="Helvetica,sans-Serif" font-size="10.00">dynamic&#45;graph/signal</text>
<text text-anchor="middle" x="585.5" y="-264.5" font-family="Helvetica,sans-Serif" font-size="10.00">&#45;base.h</text>
</a>
</g>
</g>
<!-- Node1&#45;&gt;Node11 -->
<g id="edge15" class="edge"><title>Node1&#45;&gt;Node11</title>
<path fill="none" stroke="midnightblue" d="M252.09,-329.987C299.871,-323.236 418.12,-306.065 516.5,-288 517.967,-287.731 519.451,-287.454 520.947,-287.171"/>
<polygon fill="midnightblue" stroke="midnightblue" points="521.787,-290.574 530.938,-285.234 520.454,-283.702 521.787,-290.574"/>
</g>
<!-- Node6&#45;&gt;Node3 -->
<g id="edge6" class="edge"><title>Node6&#45;&gt;Node3</title>
<path fill="none" stroke="midnightblue" d="M218.514,-190.374C197.626,-165.755 154.666,-115.124 132.466,-88.9594"/>
<polygon fill="midnightblue" stroke="midnightblue" points="134.933,-86.4579 125.795,-81.0973 129.596,-90.9868 134.933,-86.4579"/>
</g>
<!-- Node6&#45;&gt;Node5 -->
<g id="edge7" class="edge"><title>Node6&#45;&gt;Node5</title>
<path fill="none" stroke="midnightblue" d="M293.104,-190.49C338.022,-179.862 394.222,-165.218 415.5,-154 448.182,-136.769 479.549,-106.772 497.096,-88.3726"/>
<polygon fill="midnightblue" stroke="midnightblue" points="499.671,-90.743 503.937,-81.0449 494.554,-85.966 499.671,-90.743"/>
</g>
<!-- Node6&#45;&gt;Node7 -->
<g id="edge8" class="edge"><title>Node6&#45;&gt;Node7</title>
<path fill="none" stroke="midnightblue" d="M230.928,-190.374C231.605,-168.044 232.93,-124.313 233.762,-96.8509"/>
<polygon fill="midnightblue" stroke="midnightblue" points="237.27,-96.6262 234.075,-86.5247 230.274,-96.4141 237.27,-96.6262"/>
</g>
<!-- Node9 -->
<g id="node9" class="node"><title>Node9</title>
<g id="a_node9"><a xlink:href="a00072.html" target="_top" xlink:title="dynamic&#45;graph/exception\l&#45;abstract.h">
<polygon fill="white" stroke="black" points="282,-123.5 282,-153.5 407,-153.5 407,-123.5 282,-123.5"/>
<text text-anchor="start" x="290" y="-141.5" font-family="Helvetica,sans-Serif" font-size="10.00">dynamic&#45;graph/exception</text>
<text text-anchor="middle" x="344.5" y="-130.5" font-family="Helvetica,sans-Serif" font-size="10.00">&#45;abstract.h</text>
</a>
</g>
</g>
<!-- Node6&#45;&gt;Node9 -->
<g id="edge10" class="edge"><title>Node6&#45;&gt;Node9</title>
<path fill="none" stroke="midnightblue" d="M255.236,-190.396C271.52,-181.112 293.041,-168.841 310.871,-158.674"/>
<polygon fill="midnightblue" stroke="midnightblue" points="312.858,-161.57 319.812,-153.577 309.391,-155.489 312.858,-161.57"/>
</g>
<!-- Node8 -->
<g id="node8" class="node"><title>Node8</title>
<polygon fill="white" stroke="#bfbfbf" points="173,-0.5 173,-19.5 296,-19.5 296,-0.5 173,-0.5"/>
<text text-anchor="middle" x="234.5" y="-7.5" font-family="Helvetica,sans-Serif" font-size="10.00">dynamic&#45;graph/config.hh</text>
</g>
<!-- Node7&#45;&gt;Node8 -->
<g id="edge9" class="edge"><title>Node7&#45;&gt;Node8</title>
<path fill="none" stroke="midnightblue" d="M234.5,-56.3993C234.5,-48.4664 234.5,-38.458 234.5,-29.8583"/>
<polygon fill="midnightblue" stroke="midnightblue" points="238,-29.6577 234.5,-19.6578 231,-29.6578 238,-29.6577"/>
</g>
<!-- Node9&#45;&gt;Node3 -->
<g id="edge12" class="edge"><title>Node9&#45;&gt;Node3</title>
<path fill="none" stroke="midnightblue" d="M293.482,-123.461C257.618,-113.506 208.545,-99.7099 165.5,-87 160.074,-85.398 154.309,-83.654 148.744,-81.9489"/>
<polygon fill="midnightblue" stroke="midnightblue" points="149.645,-78.5643 139.058,-78.9607 147.581,-85.2532 149.645,-78.5643"/>
</g>
<!-- Node9&#45;&gt;Node5 -->
<g id="edge13" class="edge"><title>Node9&#45;&gt;Node5</title>
<path fill="none" stroke="midnightblue" d="M380.737,-123.396C410.428,-111.84 452.006,-95.6562 480.251,-84.6629"/>
<polygon fill="midnightblue" stroke="midnightblue" points="481.594,-87.8959 489.644,-81.007 479.055,-81.3726 481.594,-87.8959"/>
</g>
<!-- Node9&#45;&gt;Node7 -->
<g id="edge14" class="edge"><title>Node9&#45;&gt;Node7</title>
<path fill="none" stroke="midnightblue" d="M320.632,-123.396C304.92,-114.112 284.154,-101.841 266.949,-91.6742"/>
<polygon fill="midnightblue" stroke="midnightblue" points="268.712,-88.6506 258.322,-86.5765 265.15,-94.6771 268.712,-88.6506"/>
</g>
<!-- Node10 -->
<g id="node10" class="node"><title>Node10</title>
<polygon fill="white" stroke="#bfbfbf" points="349.5,-62 349.5,-81 403.5,-81 403.5,-62 349.5,-62"/>
<text text-anchor="middle" x="376.5" y="-69" font-family="Helvetica,sans-Serif" font-size="10.00">iostream</text>
</g>
<!-- Node9&#45;&gt;Node10 -->
<g id="edge11" class="edge"><title>Node9&#45;&gt;Node10</title>
<path fill="none" stroke="midnightblue" d="M351.444,-123.396C356.235,-113.662 362.643,-100.646 367.779,-90.2139"/>
<polygon fill="midnightblue" stroke="midnightblue" points="370.943,-91.7122 372.22,-81.1945 364.663,-88.6203 370.943,-91.7122"/>
</g>
<!-- Node11&#45;&gt;Node3 -->
<g id="edge16" class="edge"><title>Node11&#45;&gt;Node3</title>
<path fill="none" stroke="midnightblue" d="M530.948,-272.386C428.579,-272.899 213.073,-268.164 158.5,-221 120.537,-188.191 116.755,-123.53 117.428,-91.4592"/>
<polygon fill="midnightblue" stroke="midnightblue" points="120.934,-91.3652 117.822,-81.2376 113.939,-91.0952 120.934,-91.3652"/>
</g>
<!-- Node11&#45;&gt;Node4 -->
<g id="edge17" class="edge"><title>Node11&#45;&gt;Node4</title>
<path fill="none" stroke="midnightblue" d="M637.162,-257.46C671.92,-247.781 718.678,-234.307 759.5,-221 762.046,-220.17 764.673,-219.285 767.307,-218.376"/>
<polygon fill="midnightblue" stroke="midnightblue" points="768.482,-221.672 776.744,-215.04 766.149,-215.073 768.482,-221.672"/>
</g>
<!-- Node11&#45;&gt;Node5 -->
<g id="edge21" class="edge"><title>Node11&#45;&gt;Node5</title>
<path fill="none" stroke="midnightblue" d="M633.208,-257.386C671.85,-245.475 720.793,-229.106 726.5,-221 734.432,-209.734 733.528,-201.85 726.5,-190 690.799,-129.804 612.179,-98.4491 560.556,-83.7276"/>
<polygon fill="midnightblue" stroke="midnightblue" points="561.181,-80.27 550.611,-81.0014 559.33,-87.0209 561.181,-80.27"/>
</g>
<!-- Node11&#45;&gt;Node10 -->
<g id="edge18" class="edge"><title>Node11&#45;&gt;Node10</title>
<path fill="none" stroke="midnightblue" d="M566.213,-257.316C553.23,-247.52 535.915,-233.97 521.5,-221 471.25,-175.788 416.783,-117.096 391.263,-88.9583"/>
<polygon fill="midnightblue" stroke="midnightblue" points="393.608,-86.3327 384.309,-81.2555 388.412,-91.0235 393.608,-86.3327"/>
</g>
<!-- Node12 -->
<g id="node12" class="node"><title>Node12</title>
<polygon fill="white" stroke="#bfbfbf" points="531,-196 531,-215 582,-215 582,-196 531,-196"/>
<text text-anchor="middle" x="556.5" y="-203" font-family="Helvetica,sans-Serif" font-size="10.00">typeinfo</text>
</g>
<!-- Node11&#45;&gt;Node12 -->
<g id="edge19" class="edge"><title>Node11&#45;&gt;Node12</title>
<path fill="none" stroke="midnightblue" d="M579.207,-257.396C574.91,-247.763 569.177,-234.914 564.547,-224.537"/>
<polygon fill="midnightblue" stroke="midnightblue" points="567.65,-222.901 560.379,-215.195 561.257,-225.753 567.65,-222.901"/>
</g>
<!-- Node13 -->
<g id="node13" class="node"><title>Node13</title>
<polygon fill="white" stroke="#bfbfbf" points="600,-196 600,-215 717,-215 717,-196 600,-196"/>
<text text-anchor="middle" x="658.5" y="-203" font-family="Helvetica,sans-Serif" font-size="10.00">boost/noncopyable.hpp</text>
</g>
<!-- Node11&#45;&gt;Node13 -->
<g id="edge20" class="edge"><title>Node11&#45;&gt;Node13</title>
<path fill="none" stroke="midnightblue" d="M601.34,-257.396C613.06,-246.96 629.018,-232.751 641.095,-221.998"/>
<polygon fill="midnightblue" stroke="midnightblue" points="643.594,-224.459 648.735,-215.195 638.939,-219.231 643.594,-224.459"/>
</g>
<!-- Node14 -->
<g id="node14" class="node"><title>Node14</title>
<g id="a_node14"><a xlink:href="a00074.html" target="_top" xlink:title="dynamic&#45;graph/exception\l&#45;signal.h">
<polygon fill="white" stroke="black" points="311,-190.5 311,-220.5 436,-220.5 436,-190.5 311,-190.5"/>
<text text-anchor="start" x="319" y="-208.5" font-family="Helvetica,sans-Serif" font-size="10.00">dynamic&#45;graph/exception</text>
<text text-anchor="middle" x="373.5" y="-197.5" font-family="Helvetica,sans-Serif" font-size="10.00">&#45;signal.h</text>
</a>
</g>
</g>
<!-- Node11&#45;&gt;Node14 -->
<g id="edge22" class="edge"><title>Node11&#45;&gt;Node14</title>
<path fill="none" stroke="midnightblue" d="M539.76,-257.476C507.41,-247.557 463.848,-234.201 429.429,-223.648"/>
<polygon fill="midnightblue" stroke="midnightblue" points="430.11,-220.196 419.523,-220.611 428.058,-226.889 430.11,-220.196"/>
</g>
<!-- Node14&#45;&gt;Node5 -->
<g id="edge23" class="edge"><title>Node14&#45;&gt;Node5</title>
<path fill="none" stroke="midnightblue" d="M429.76,-190.461C450.432,-182.762 472.44,-171.168 487.5,-154 502.893,-136.453 508.426,-109.456 510.407,-91.3983"/>
<polygon fill="midnightblue" stroke="midnightblue" points="513.911,-91.4982 511.252,-81.2426 506.935,-90.9182 513.911,-91.4982"/>
</g>
<!-- Node14&#45;&gt;Node7 -->
<g id="edge24" class="edge"><title>Node14&#45;&gt;Node7</title>
<path fill="none" stroke="midnightblue" d="M330.401,-190.438C310.775,-182.298 288.427,-170.369 272.5,-154 256.755,-137.819 246.673,-113.911 240.879,-96.1697"/>
<polygon fill="midnightblue" stroke="midnightblue" points="244.21,-95.0921 237.954,-86.5417 237.512,-97.1274 244.21,-95.0921"/>
</g>
<!-- Node14&#45;&gt;Node9 -->
<g id="edge25" class="edge"><title>Node14&#45;&gt;Node9</title>
<path fill="none" stroke="midnightblue" d="M367.207,-190.396C363.635,-182.389 359.072,-172.162 354.975,-162.978"/>
<polygon fill="midnightblue" stroke="midnightblue" points="358.051,-161.283 350.78,-153.577 351.658,-164.135 358.051,-161.283"/>
</g>
</g>
</svg>
