<?xml version="1.0" encoding="UTF-8" standalone="no"?>
<!DOCTYPE svg PUBLIC "-//W3C//DTD SVG 1.1//EN"
 "http://www.w3.org/Graphics/SVG/1.1/DTD/svg11.dtd">
<!-- Generated by graphviz version 2.38.0 (20140413.2041)
 -->
<!-- Title: debug.h Pages: 1 -->
<svg width="600pt" height="151pt"
 viewBox="0.00 0.00 600.00 151.00" xmlns="http://www.w3.org/2000/svg" xmlns:xlink="http://www.w3.org/1999/xlink">
<g id="graph0" class="graph" transform="scale(1 1) rotate(0) translate(4 147)">
<title>debug.h</title>
<polygon fill="white" stroke="none" points="-4,4 -4,-147 596,-147 596,4 -4,4"/>
<!-- Node1 -->
<g id="node1" class="node"><title>Node1</title>
<polygon fill="#bfbfbf" stroke="black" points="200,-123.5 200,-142.5 251,-142.5 251,-123.5 200,-123.5"/>
<text text-anchor="middle" x="225.5" y="-130.5" font-family="Helvetica,sans-Serif" font-size="10.00">debug.h</text>
</g>
<!-- Node2 -->
<g id="node2" class="node"><title>Node2</title>
<polygon fill="white" stroke="#bfbfbf" points="0,-62 0,-81 43,-81 43,-62 0,-62"/>
<text text-anchor="middle" x="21.5" y="-69" font-family="Helvetica,sans-Serif" font-size="10.00">cstdio</text>
</g>
<!-- Node1&#45;&gt;Node2 -->
<g id="edge1" class="edge"><title>Node1&#45;&gt;Node2</title>
<path fill="none" stroke="midnightblue" d="M199.846,-126.867C165.674,-119.684 103.591,-105.418 52.5,-87 50.886,-86.4182 49.2418,-85.7831 47.5946,-85.1143"/>
<polygon fill="midnightblue" stroke="midnightblue" points="48.8829,-81.8576 38.319,-81.0489 46.0729,-88.2688 48.8829,-81.8576"/>
</g>
<!-- Node3 -->
<g id="node3" class="node"><title>Node3</title>
<polygon fill="white" stroke="#bfbfbf" points="61,-62 61,-81 110,-81 110,-62 61,-62"/>
<text text-anchor="middle" x="85.5" y="-69" font-family="Helvetica,sans-Serif" font-size="10.00">cstdarg</text>
</g>
<!-- Node1&#45;&gt;Node3 -->
<g id="edge2" class="edge"><title>Node1&#45;&gt;Node3</title>
<path fill="none" stroke="midnightblue" d="M205.175,-123.383C183.834,-114.333 149.302,-99.6808 119.5,-87 118.098,-86.4033 116.663,-85.7925 115.214,-85.1753"/>
<polygon fill="midnightblue" stroke="midnightblue" points="116.205,-81.7934 105.634,-81.0928 113.461,-88.2331 116.205,-81.7934"/>
</g>
<!-- Node4 -->
<g id="node4" class="node"><title>Node4</title>
<polygon fill="white" stroke="#bfbfbf" points="128.5,-62 128.5,-81 182.5,-81 182.5,-62 128.5,-62"/>
<text text-anchor="middle" x="155.5" y="-69" font-family="Helvetica,sans-Serif" font-size="10.00">iostream</text>
</g>
<!-- Node1&#45;&gt;Node4 -->
<g id="edge3" class="edge"><title>Node1&#45;&gt;Node4</title>
<path fill="none" stroke="midnightblue" d="M215.471,-123.475C204.451,-114.108 186.54,-98.8839 173.157,-87.5081"/>
<polygon fill="midnightblue" stroke="midnightblue" points="175.397,-84.8188 165.511,-81.0091 170.863,-90.1524 175.397,-84.8188"/>
</g>
<!-- Node5 -->
<g id="node5" class="node"><title>Node5</title>
<polygon fill="white" stroke="#bfbfbf" points="200.5,-62 200.5,-81 250.5,-81 250.5,-62 200.5,-62"/>
<text text-anchor="middle" x="225.5" y="-69" font-family="Helvetica,sans-Serif" font-size="10.00">fstream</text>
</g>
<!-- Node1&#45;&gt;Node5 -->
<g id="edge4" class="edge"><title>Node1&#45;&gt;Node5</title>
<path fill="none" stroke="midnightblue" d="M225.5,-123.475C225.5,-115.08 225.5,-101.981 225.5,-91.1631"/>
<polygon fill="midnightblue" stroke="midnightblue" points="229,-91.0091 225.5,-81.0091 222,-91.0091 229,-91.0091"/>
</g>
<!-- Node6 -->
<g id="node6" class="node"><title>Node6</title>
<polygon fill="white" stroke="#bfbfbf" points="268.5,-62 268.5,-81 320.5,-81 320.5,-62 268.5,-62"/>
<text text-anchor="middle" x="294.5" y="-69" font-family="Helvetica,sans-Serif" font-size="10.00">sstream</text>
</g>
<!-- Node1&#45;&gt;Node6 -->
<g id="edge5" class="edge"><title>Node1&#45;&gt;Node6</title>
<path fill="none" stroke="midnightblue" d="M235.386,-123.475C246.146,-114.197 263.571,-99.1706 276.721,-87.831"/>
<polygon fill="midnightblue" stroke="midnightblue" points="279.345,-90.1902 284.632,-81.0091 274.773,-84.889 279.345,-90.1902"/>
</g>
<!-- Node7 -->
<g id="node7" class="node"><title>Node7</title>
<g id="a_node7"><a xlink:href="a00076.html" target="_top" xlink:title="dynamic&#45;graph/fwd.hh">
<polygon fill="white" stroke="black" points="339,-62 339,-81 452,-81 452,-62 339,-62"/>
<text text-anchor="middle" x="395.5" y="-69" font-family="Helvetica,sans-Serif" font-size="10.00">dynamic&#45;graph/fwd.hh</text>
</a>
</g>
</g>
<!-- Node1&#45;&gt;Node7 -->
<g id="edge6" class="edge"><title>Node1&#45;&gt;Node7</title>
<path fill="none" stroke="midnightblue" d="M249.857,-123.475C279.144,-113.225 328.474,-95.9593 361.502,-84.3994"/>
<polygon fill="midnightblue" stroke="midnightblue" points="362.906,-87.6162 371.188,-81.0091 360.593,-81.0091 362.906,-87.6162"/>
</g>
<!-- Node8 -->
<g id="node8" class="node"><title>Node8</title>
<g id="a_node8"><a xlink:href="a00067.html" target="_top" xlink:title="dynamic&#45;graph/dynamic\l&#45;graph&#45;api.h">
<polygon fill="white" stroke="black" points="470.5,-56.5 470.5,-86.5 590.5,-86.5 590.5,-56.5 470.5,-56.5"/>
<text text-anchor="start" x="478.5" y="-74.5" font-family="Helvetica,sans-Serif" font-size="10.00">dynamic&#45;graph/dynamic</text>
<text text-anchor="middle" x="530.5" y="-63.5" font-family="Helvetica,sans-Serif" font-size="10.00">&#45;graph&#45;api.h</text>
</a>
</g>
</g>
<!-- Node1&#45;&gt;Node8 -->
<g id="edge7" class="edge"><title>Node1&#45;&gt;Node8</title>
<path fill="none" stroke="midnightblue" d="M251.024,-127.295C292.655,-119.586 378.01,-103.636 460.287,-87.2227"/>
<polygon fill="midnightblue" stroke="midnightblue" points="461.184,-90.6129 470.303,-85.2193 459.811,-83.7489 461.184,-90.6129"/>
</g>
<!-- Node9 -->
<g id="node9" class="node"><title>Node9</title>
<polygon fill="white" stroke="#bfbfbf" points="469,-0.5 469,-19.5 592,-19.5 592,-0.5 469,-0.5"/>
<text text-anchor="middle" x="530.5" y="-7.5" font-family="Helvetica,sans-Serif" font-size="10.00">dynamic&#45;graph/config.hh</text>
</g>
<!-- Node8&#45;&gt;Node9 -->
<g id="edge8" class="edge"><title>Node8&#45;&gt;Node9</title>
<path fill="none" stroke="midnightblue" d="M530.5,-56.3993C530.5,-48.4664 530.5,-38.458 530.5,-29.8583"/>
<polygon fill="midnightblue" stroke="midnightblue" points="534,-29.6577 530.5,-19.6578 527,-29.6578 534,-29.6577"/>
</g>
</g>
</svg>
