<?xml version="1.0" encoding="UTF-8" standalone="no"?>
<!DOCTYPE svg PUBLIC "-//W3C//DTD SVG 1.1//EN"
 "http://www.w3.org/Graphics/SVG/1.1/DTD/svg11.dtd">
<!-- Generated by graphviz version 2.38.0 (20140413.2041)
 -->
<!-- Title: command&#45;getter.h Pages: 1 -->
<svg width="600pt" height="274pt"
 viewBox="0.00 0.00 599.50 274.00" xmlns="http://www.w3.org/2000/svg" xmlns:xlink="http://www.w3.org/1999/xlink">
<g id="graph0" class="graph" transform="scale(1 1) rotate(0) translate(4 270)">
<title>command&#45;getter.h</title>
<polygon fill="white" stroke="none" points="-4,4 -4,-270 595.5,-270 595.5,4 -4,4"/>
<!-- Node1 -->
<g id="node1" class="node"><title>Node1</title>
<polygon fill="#bfbfbf" stroke="black" points="407,-246.5 407,-265.5 502,-265.5 502,-246.5 407,-246.5"/>
<text text-anchor="middle" x="454.5" y="-253.5" font-family="Helvetica,sans-Serif" font-size="10.00">command&#45;getter.h</text>
</g>
<!-- Node2 -->
<g id="node2" class="node"><title>Node2</title>
<g id="a_node2"><a xlink:href="a00064.html" target="_top" xlink:title="dynamic&#45;graph/command.h">
<polygon fill="white" stroke="black" points="313.5,-185 313.5,-204 447.5,-204 447.5,-185 313.5,-185"/>
<text text-anchor="middle" x="380.5" y="-192" font-family="Helvetica,sans-Serif" font-size="10.00">dynamic&#45;graph/command.h</text>
</a>
</g>
</g>
<!-- Node1&#45;&gt;Node2 -->
<g id="edge1" class="edge"><title>Node1&#45;&gt;Node2</title>
<path fill="none" stroke="midnightblue" d="M443.898,-246.475C432.248,-237.108 413.314,-221.884 399.165,-210.508"/>
<polygon fill="midnightblue" stroke="midnightblue" points="401.069,-207.548 391.083,-204.009 396.683,-213.003 401.069,-207.548"/>
</g>
<!-- Node14 -->
<g id="node14" class="node"><title>Node14</title>
<g id="a_node14"><a xlink:href="a00061.html" target="_top" xlink:title="dynamic&#45;graph/command\l&#45;getter.t.cpp">
<polygon fill="white" stroke="black" points="465.5,-179.5 465.5,-209.5 591.5,-209.5 591.5,-179.5 465.5,-179.5"/>
<text text-anchor="start" x="473.5" y="-197.5" font-family="Helvetica,sans-Serif" font-size="10.00">dynamic&#45;graph/command</text>
<text text-anchor="middle" x="528.5" y="-186.5" font-family="Helvetica,sans-Serif" font-size="10.00">&#45;getter.t.cpp</text>
</a>
</g>
</g>
<!-- Node1&#45;&gt;Node14 -->
<g id="edge14" class="edge"><title>Node1&#45;&gt;Node14</title>
<path fill="none" stroke="midnightblue" d="M465.102,-246.475C474.937,-238.567 489.964,-226.485 502.92,-216.067"/>
<polygon fill="midnightblue" stroke="midnightblue" points="505.46,-218.517 511.06,-209.523 501.073,-213.062 505.46,-218.517"/>
</g>
<!-- Node3 -->
<g id="node3" class="node"><title>Node3</title>
<polygon fill="white" stroke="#bfbfbf" points="408.5,-123.5 408.5,-142.5 452.5,-142.5 452.5,-123.5 408.5,-123.5"/>
<text text-anchor="middle" x="430.5" y="-130.5" font-family="Helvetica,sans-Serif" font-size="10.00">vector</text>
</g>
<!-- Node2&#45;&gt;Node3 -->
<g id="edge2" class="edge"><title>Node2&#45;&gt;Node3</title>
<path fill="none" stroke="midnightblue" d="M387.664,-184.975C395.238,-175.962 407.37,-161.525 416.793,-150.312"/>
<polygon fill="midnightblue" stroke="midnightblue" points="419.596,-152.417 423.35,-142.509 414.237,-147.913 419.596,-152.417"/>
</g>
<!-- Node4 -->
<g id="node4" class="node"><title>Node4</title>
<g id="a_node4"><a xlink:href="a00099.html" target="_top" xlink:title="dynamic&#45;graph/value.h">
<polygon fill="white" stroke="black" points="165,-123.5 165,-142.5 280,-142.5 280,-123.5 165,-123.5"/>
<text text-anchor="middle" x="222.5" y="-130.5" font-family="Helvetica,sans-Serif" font-size="10.00">dynamic&#45;graph/value.h</text>
</a>
</g>
</g>
<!-- Node2&#45;&gt;Node4 -->
<g id="edge3" class="edge"><title>Node2&#45;&gt;Node4</title>
<path fill="none" stroke="midnightblue" d="M357.862,-184.975C330.76,-174.769 285.19,-157.608 254.496,-146.049"/>
<polygon fill="midnightblue" stroke="midnightblue" points="255.687,-142.758 245.096,-142.509 253.22,-149.309 255.687,-142.758"/>
</g>
<!-- Node9 -->
<g id="node9" class="node"><title>Node9</title>
<g id="a_node9"><a xlink:href="a00068.html" target="_top" xlink:title="dynamic&#45;graph/dynamic\l&#45;graph&#45;api.h">
<polygon fill="white" stroke="black" points="393.5,-56.5 393.5,-86.5 513.5,-86.5 513.5,-56.5 393.5,-56.5"/>
<text text-anchor="start" x="401.5" y="-74.5" font-family="Helvetica,sans-Serif" font-size="10.00">dynamic&#45;graph/dynamic</text>
<text text-anchor="middle" x="453.5" y="-63.5" font-family="Helvetica,sans-Serif" font-size="10.00">&#45;graph&#45;api.h</text>
</a>
</g>
</g>
<!-- Node2&#45;&gt;Node9 -->
<g id="edge13" class="edge"><title>Node2&#45;&gt;Node9</title>
<path fill="none" stroke="midnightblue" d="M381.313,-184.651C382.927,-170.666 387.487,-142.993 399.5,-123 406.266,-111.74 416.253,-101.412 425.804,-93.0701"/>
<polygon fill="midnightblue" stroke="midnightblue" points="428.19,-95.6373 433.643,-86.5534 423.716,-90.2541 428.19,-95.6373"/>
</g>
<!-- Node5 -->
<g id="node5" class="node"><title>Node5</title>
<polygon fill="white" stroke="#bfbfbf" points="195.5,-62 195.5,-81 249.5,-81 249.5,-62 195.5,-62"/>
<text text-anchor="middle" x="222.5" y="-69" font-family="Helvetica,sans-Serif" font-size="10.00">iostream</text>
</g>
<!-- Node4&#45;&gt;Node5 -->
<g id="edge4" class="edge"><title>Node4&#45;&gt;Node5</title>
<path fill="none" stroke="midnightblue" d="M222.5,-123.475C222.5,-115.08 222.5,-101.981 222.5,-91.1631"/>
<polygon fill="midnightblue" stroke="midnightblue" points="226,-91.0091 222.5,-81.0091 219,-91.0091 226,-91.0091"/>
</g>
<!-- Node6 -->
<g id="node6" class="node"><title>Node6</title>
<polygon fill="white" stroke="#bfbfbf" points="0,-62 0,-81 41,-81 41,-62 0,-62"/>
<text text-anchor="middle" x="20.5" y="-69" font-family="Helvetica,sans-Serif" font-size="10.00">string</text>
</g>
<!-- Node4&#45;&gt;Node6 -->
<g id="edge5" class="edge"><title>Node4&#45;&gt;Node6</title>
<path fill="none" stroke="midnightblue" d="M179.427,-123.426C143.949,-115.743 92.6467,-103.194 49.5,-87 48.1166,-86.4808 46.712,-85.9156 45.3051,-85.3193"/>
<polygon fill="midnightblue" stroke="midnightblue" points="46.7316,-82.1228 36.1871,-81.0909 43.7866,-88.4732 46.7316,-82.1228"/>
</g>
<!-- Node7 -->
<g id="node7" class="node"><title>Node7</title>
<polygon fill="white" stroke="#bfbfbf" points="59,-62 59,-81 108,-81 108,-62 59,-62"/>
<text text-anchor="middle" x="83.5" y="-69" font-family="Helvetica,sans-Serif" font-size="10.00">cassert</text>
</g>
<!-- Node4&#45;&gt;Node7 -->
<g id="edge6" class="edge"><title>Node4&#45;&gt;Node7</title>
<path fill="none" stroke="midnightblue" d="M202.147,-123.449C180.783,-114.452 146.233,-99.8427 116.5,-87 115.136,-86.4107 113.74,-85.8059 112.332,-85.1936"/>
<polygon fill="midnightblue" stroke="midnightblue" points="113.591,-81.9243 103.026,-81.1279 110.788,-88.3388 113.591,-81.9243"/>
</g>
<!-- Node8 -->
<g id="node8" class="node"><title>Node8</title>
<polygon fill="white" stroke="#bfbfbf" points="126,-62 126,-81 177,-81 177,-62 126,-62"/>
<text text-anchor="middle" x="151.5" y="-69" font-family="Helvetica,sans-Serif" font-size="10.00">typeinfo</text>
</g>
<!-- Node4&#45;&gt;Node8 -->
<g id="edge7" class="edge"><title>Node4&#45;&gt;Node8</title>
<path fill="none" stroke="midnightblue" d="M212.327,-123.475C201.15,-114.108 182.983,-98.8839 169.409,-87.5081"/>
<polygon fill="midnightblue" stroke="midnightblue" points="171.566,-84.7496 161.654,-81.0091 167.07,-90.1148 171.566,-84.7496"/>
</g>
<!-- Node4&#45;&gt;Node9 -->
<g id="edge8" class="edge"><title>Node4&#45;&gt;Node9</title>
<path fill="none" stroke="midnightblue" d="M255.597,-123.475C290.318,-114.532 345.77,-100.249 389.155,-89.0738"/>
<polygon fill="midnightblue" stroke="midnightblue" points="390.247,-92.4068 399.058,-86.523 388.501,-85.628 390.247,-92.4068"/>
</g>
<!-- Node11 -->
<g id="node11" class="node"><title>Node11</title>
<g id="a_node11"><a xlink:href="a00078.html" target="_top" xlink:title="dynamic&#45;graph/linear\l&#45;algebra.h">
<polygon fill="white" stroke="black" points="268,-56.5 268,-86.5 375,-86.5 375,-56.5 268,-56.5"/>
<text text-anchor="start" x="276" y="-74.5" font-family="Helvetica,sans-Serif" font-size="10.00">dynamic&#45;graph/linear</text>
<text text-anchor="middle" x="321.5" y="-63.5" font-family="Helvetica,sans-Serif" font-size="10.00">&#45;algebra.h</text>
</a>
</g>
</g>
<!-- Node4&#45;&gt;Node11 -->
<g id="edge10" class="edge"><title>Node4&#45;&gt;Node11</title>
<path fill="none" stroke="midnightblue" d="M236.684,-123.475C250.343,-115.266 271.487,-102.558 289.247,-91.8845"/>
<polygon fill="midnightblue" stroke="midnightblue" points="291.4,-94.6742 298.168,-86.523 287.794,-88.6744 291.4,-94.6742"/>
</g>
<!-- Node10 -->
<g id="node10" class="node"><title>Node10</title>
<polygon fill="white" stroke="#bfbfbf" points="392,-0.5 392,-19.5 515,-19.5 515,-0.5 392,-0.5"/>
<text text-anchor="middle" x="453.5" y="-7.5" font-family="Helvetica,sans-Serif" font-size="10.00">dynamic&#45;graph/config.hh</text>
</g>
<!-- Node9&#45;&gt;Node10 -->
<g id="edge9" class="edge"><title>Node9&#45;&gt;Node10</title>
<path fill="none" stroke="midnightblue" d="M453.5,-56.3993C453.5,-48.4664 453.5,-38.458 453.5,-29.8583"/>
<polygon fill="midnightblue" stroke="midnightblue" points="457,-29.6577 453.5,-19.6578 450,-29.6578 457,-29.6577"/>
</g>
<!-- Node12 -->
<g id="node12" class="node"><title>Node12</title>
<polygon fill="white" stroke="#bfbfbf" points="200,-0.5 200,-19.5 265,-19.5 265,-0.5 200,-0.5"/>
<text text-anchor="middle" x="232.5" y="-7.5" font-family="Helvetica,sans-Serif" font-size="10.00">Eigen/Core</text>
</g>
<!-- Node11&#45;&gt;Node12 -->
<g id="edge11" class="edge"><title>Node11&#45;&gt;Node12</title>
<path fill="none" stroke="midnightblue" d="M300.408,-56.3993C286.409,-47.0402 268.089,-34.7924 254.005,-25.3771"/>
<polygon fill="midnightblue" stroke="midnightblue" points="255.709,-22.3059 245.45,-19.6578 251.818,-28.1253 255.709,-22.3059"/>
</g>
<!-- Node13 -->
<g id="node13" class="node"><title>Node13</title>
<polygon fill="white" stroke="#bfbfbf" points="283,-0.5 283,-19.5 370,-19.5 370,-0.5 283,-0.5"/>
<text text-anchor="middle" x="326.5" y="-7.5" font-family="Helvetica,sans-Serif" font-size="10.00">Eigen/Geometry</text>
</g>
<!-- Node11&#45;&gt;Node13 -->
<g id="edge12" class="edge"><title>Node11&#45;&gt;Node13</title>
<path fill="none" stroke="midnightblue" d="M322.685,-56.3993C323.352,-48.4664 324.193,-38.458 324.915,-29.8583"/>
<polygon fill="midnightblue" stroke="midnightblue" points="328.423,-29.9158 325.772,-19.6578 321.447,-29.3295 328.423,-29.9158"/>
</g>
<!-- Node15 -->
<g id="node15" class="node"><title>Node15</title>
<polygon fill="white" stroke="#bfbfbf" points="502.5,-123.5 502.5,-142.5 554.5,-142.5 554.5,-123.5 502.5,-123.5"/>
<text text-anchor="middle" x="528.5" y="-130.5" font-family="Helvetica,sans-Serif" font-size="10.00">sstream</text>
</g>
<!-- Node14&#45;&gt;Node15 -->
<g id="edge15" class="edge"><title>Node14&#45;&gt;Node15</title>
<path fill="none" stroke="midnightblue" d="M528.5,-179.399C528.5,-171.466 528.5,-161.458 528.5,-152.858"/>
<polygon fill="midnightblue" stroke="midnightblue" points="532,-152.658 528.5,-142.658 525,-152.658 532,-152.658"/>
</g>
</g>
</svg>
