<?xml version="1.0" encoding="UTF-8" standalone="no"?>
<!DOCTYPE svg PUBLIC "-//W3C//DTD SVG 1.1//EN"
 "http://www.w3.org/Graphics/SVG/1.1/DTD/svg11.dtd">
<!-- Generated by graphviz version 2.38.0 (20140413.2041)
 -->
<!-- Title: time&#45;dependency.h Pages: 1 -->
<svg width="747pt" height="419pt"
 viewBox="0.00 0.00 747.00 419.00" xmlns="http://www.w3.org/2000/svg" xmlns:xlink="http://www.w3.org/1999/xlink">
<g id="graph0" class="graph" transform="scale(1 1) rotate(0) translate(4 415)">
<title>time&#45;dependency.h</title>
<polygon fill="white" stroke="none" points="-4,4 -4,-415 743,-415 743,4 -4,4"/>
<!-- Node1 -->
<g id="node1" class="node"><title>Node1</title>
<polygon fill="#bfbfbf" stroke="black" points="136,-391.5 136,-410.5 235,-410.5 235,-391.5 136,-391.5"/>
<text text-anchor="middle" x="185.5" y="-398.5" font-family="Helvetica,sans-Serif" font-size="10.00">time&#45;dependency.h</text>
</g>
<!-- Node2 -->
<g id="node2" class="node"><title>Node2</title>
<polygon fill="white" stroke="#bfbfbf" points="9,-330 9,-349 38,-349 38,-330 9,-330"/>
<text text-anchor="middle" x="23.5" y="-337" font-family="Helvetica,sans-Serif" font-size="10.00">list</text>
</g>
<!-- Node1&#45;&gt;Node2 -->
<g id="edge1" class="edge"><title>Node1&#45;&gt;Node2</title>
<path fill="none" stroke="midnightblue" d="M151.178,-391.463C122.48,-383.723 80.8444,-371.076 46.5,-355 45.9389,-354.737 45.3749,-354.464 44.8097,-354.18"/>
<polygon fill="midnightblue" stroke="midnightblue" points="46.254,-350.975 35.8328,-349.065 42.7881,-357.057 46.254,-350.975"/>
</g>
<!-- Node3 -->
<g id="node3" class="node"><title>Node3</title>
<polygon fill="white" stroke="#bfbfbf" points="269.5,-62 269.5,-81 323.5,-81 323.5,-62 269.5,-62"/>
<text text-anchor="middle" x="296.5" y="-69" font-family="Helvetica,sans-Serif" font-size="10.00">iostream</text>
</g>
<!-- Node1&#45;&gt;Node3 -->
<g id="edge2" class="edge"><title>Node1&#45;&gt;Node3</title>
<path fill="none" stroke="midnightblue" d="M185.5,-391.411C185.5,-370.977 185.5,-317.863 185.5,-273.5 185.5,-273.5 185.5,-273.5 185.5,-204.5 185.5,-150.857 239.863,-107.647 272.5,-86.5402"/>
<polygon fill="midnightblue" stroke="midnightblue" points="274.444,-89.4529 281.066,-81.1827 270.732,-83.5181 274.444,-89.4529"/>
</g>
<!-- Node4 -->
<g id="node4" class="node"><title>Node4</title>
<g id="a_node4"><a xlink:href="a00076.html" target="_top" xlink:title="dynamic&#45;graph/fwd.hh">
<polygon fill="white" stroke="black" points="410,-62 410,-81 523,-81 523,-62 410,-62"/>
<text text-anchor="middle" x="466.5" y="-69" font-family="Helvetica,sans-Serif" font-size="10.00">dynamic&#45;graph/fwd.hh</text>
</a>
</g>
</g>
<!-- Node1&#45;&gt;Node4 -->
<g id="edge3" class="edge"><title>Node1&#45;&gt;Node4</title>
<path fill="none" stroke="midnightblue" d="M195.436,-391.274C216.036,-372.159 261.5,-324.229 261.5,-273.5 261.5,-273.5 261.5,-273.5 261.5,-204.5 261.5,-133.527 349.435,-98.8988 410.121,-83.4521"/>
<polygon fill="midnightblue" stroke="midnightblue" points="411.096,-86.8169 419.982,-81.0477 409.438,-80.0161 411.096,-86.8169"/>
</g>
<!-- Node5 -->
<g id="node5" class="node"><title>Node5</title>
<g id="a_node5"><a xlink:href="a00083.html" target="_top" xlink:title="dynamic&#45;graph/signal\l&#45;base.h">
<polygon fill="white" stroke="black" points="350,-257.5 350,-287.5 459,-287.5 459,-257.5 350,-257.5"/>
<text text-anchor="start" x="358" y="-275.5" font-family="Helvetica,sans-Serif" font-size="10.00">dynamic&#45;graph/signal</text>
<text text-anchor="middle" x="404.5" y="-264.5" font-family="Helvetica,sans-Serif" font-size="10.00">&#45;base.h</text>
</a>
</g>
</g>
<!-- Node1&#45;&gt;Node5 -->
<g id="edge4" class="edge"><title>Node1&#45;&gt;Node5</title>
<path fill="none" stroke="midnightblue" d="M204.052,-391.391C222.448,-382.7 251.307,-368.646 275.5,-355 310.382,-335.325 349.052,-310.466 374.872,-293.407"/>
<polygon fill="midnightblue" stroke="midnightblue" points="377.045,-296.166 383.441,-287.72 373.174,-290.333 377.045,-296.166"/>
</g>
<!-- Node14 -->
<g id="node14" class="node"><title>Node14</title>
<g id="a_node14"><a xlink:href="a00082.html" target="_top" xlink:title="dynamic&#45;graph/signal\l&#45;array.h">
<polygon fill="white" stroke="black" points="445,-324.5 445,-354.5 554,-354.5 554,-324.5 445,-324.5"/>
<text text-anchor="start" x="453" y="-342.5" font-family="Helvetica,sans-Serif" font-size="10.00">dynamic&#45;graph/signal</text>
<text text-anchor="middle" x="499.5" y="-331.5" font-family="Helvetica,sans-Serif" font-size="10.00">&#45;array.h</text>
</a>
</g>
</g>
<!-- Node1&#45;&gt;Node14 -->
<g id="edge20" class="edge"><title>Node1&#45;&gt;Node14</title>
<path fill="none" stroke="midnightblue" d="M230.489,-391.475C284.06,-381.324 373.938,-364.293 434.924,-352.737"/>
<polygon fill="midnightblue" stroke="midnightblue" points="435.656,-356.16 444.829,-350.86 434.352,-349.283 435.656,-356.16"/>
</g>
<!-- Node17 -->
<g id="node17" class="node"><title>Node17</title>
<g id="a_node17"><a xlink:href="a00093.html" target="_top" xlink:title="dynamic&#45;graph/time\l&#45;dependency.t.cpp">
<polygon fill="white" stroke="black" points="55.5,-324.5 55.5,-354.5 157.5,-354.5 157.5,-324.5 55.5,-324.5"/>
<text text-anchor="start" x="63.5" y="-342.5" font-family="Helvetica,sans-Serif" font-size="10.00">dynamic&#45;graph/time</text>
<text text-anchor="middle" x="106.5" y="-331.5" font-family="Helvetica,sans-Serif" font-size="10.00">&#45;dependency.t.cpp</text>
</a>
</g>
</g>
<!-- Node1&#45;&gt;Node17 -->
<g id="edge25" class="edge"><title>Node1&#45;&gt;Node17</title>
<path fill="none" stroke="midnightblue" d="M169.281,-391.475C157.056,-383.567 140.496,-371.485 127.352,-361.067"/>
<polygon fill="midnightblue" stroke="midnightblue" points="129.259,-358.107 119.289,-354.523 124.848,-363.542 129.259,-358.107"/>
</g>
<!-- Node5&#45;&gt;Node3 -->
<g id="edge7" class="edge"><title>Node5&#45;&gt;Node3</title>
<path fill="none" stroke="midnightblue" d="M365.605,-257.302C348.826,-249.208 330.551,-237.356 319.5,-221 292.552,-181.115 292.501,-121.583 294.574,-91.4438"/>
<polygon fill="midnightblue" stroke="midnightblue" points="298.093,-91.3707 295.454,-81.1098 291.118,-90.7767 298.093,-91.3707"/>
</g>
<!-- Node5&#45;&gt;Node4 -->
<g id="edge10" class="edge"><title>Node5&#45;&gt;Node4</title>
<path fill="none" stroke="midnightblue" d="M451.593,-257.434C481.04,-247.579 514.952,-233.913 523.5,-221 531.105,-209.511 528.295,-202.917 523.5,-190 516.152,-170.205 502.805,-172.429 492.5,-154 481.202,-133.796 474.024,-107.984 470.137,-90.8815"/>
<polygon fill="midnightblue" stroke="midnightblue" points="473.549,-90.1011 468.047,-81.0469 466.702,-91.556 473.549,-90.1011"/>
</g>
<!-- Node6 -->
<g id="node6" class="node"><title>Node6</title>
<polygon fill="white" stroke="#bfbfbf" points="698,-62 698,-81 739,-81 739,-62 698,-62"/>
<text text-anchor="middle" x="718.5" y="-69" font-family="Helvetica,sans-Serif" font-size="10.00">string</text>
</g>
<!-- Node5&#45;&gt;Node6 -->
<g id="edge5" class="edge"><title>Node5&#45;&gt;Node6</title>
<path fill="none" stroke="midnightblue" d="M459.259,-258.821C462.381,-258.183 465.477,-257.571 468.5,-257 520.844,-247.108 669.045,-259.844 705.5,-221 738.624,-185.706 730.287,-122.719 723.39,-91.3423"/>
<polygon fill="midnightblue" stroke="midnightblue" points="726.724,-90.2342 720.994,-81.3225 719.916,-91.8623 726.724,-90.2342"/>
</g>
<!-- Node7 -->
<g id="node7" class="node"><title>Node7</title>
<polygon fill="white" stroke="#bfbfbf" points="197.5,-62 197.5,-81 249.5,-81 249.5,-62 197.5,-62"/>
<text text-anchor="middle" x="223.5" y="-69" font-family="Helvetica,sans-Serif" font-size="10.00">sstream</text>
</g>
<!-- Node5&#45;&gt;Node7 -->
<g id="edge6" class="edge"><title>Node5&#45;&gt;Node7</title>
<path fill="none" stroke="midnightblue" d="M360.692,-257.495C340.492,-249.342 317.323,-237.386 300.5,-221 261.591,-183.102 238.435,-121.316 228.783,-90.7753"/>
<polygon fill="midnightblue" stroke="midnightblue" points="232.082,-89.5949 225.833,-81.0393 225.383,-91.6245 232.082,-89.5949"/>
</g>
<!-- Node8 -->
<g id="node8" class="node"><title>Node8</title>
<polygon fill="white" stroke="#bfbfbf" points="328,-196 328,-215 379,-215 379,-196 328,-196"/>
<text text-anchor="middle" x="353.5" y="-203" font-family="Helvetica,sans-Serif" font-size="10.00">typeinfo</text>
</g>
<!-- Node5&#45;&gt;Node8 -->
<g id="edge8" class="edge"><title>Node5&#45;&gt;Node8</title>
<path fill="none" stroke="midnightblue" d="M393.434,-257.396C385.56,-247.361 374.95,-233.838 366.645,-223.253"/>
<polygon fill="midnightblue" stroke="midnightblue" points="369.248,-220.901 360.322,-215.195 363.741,-225.222 369.248,-220.901"/>
</g>
<!-- Node9 -->
<g id="node9" class="node"><title>Node9</title>
<polygon fill="white" stroke="#bfbfbf" points="397,-196 397,-215 514,-215 514,-196 397,-196"/>
<text text-anchor="middle" x="455.5" y="-203" font-family="Helvetica,sans-Serif" font-size="10.00">boost/noncopyable.hpp</text>
</g>
<!-- Node5&#45;&gt;Node9 -->
<g id="edge9" class="edge"><title>Node5&#45;&gt;Node9</title>
<path fill="none" stroke="midnightblue" d="M415.566,-257.396C423.44,-247.361 434.05,-233.838 442.355,-223.253"/>
<polygon fill="midnightblue" stroke="midnightblue" points="445.259,-225.222 448.678,-215.195 439.752,-220.901 445.259,-225.222"/>
</g>
<!-- Node10 -->
<g id="node10" class="node"><title>Node10</title>
<g id="a_node10"><a xlink:href="a00073.html" target="_top" xlink:title="dynamic&#45;graph/exception\l&#45;signal.h">
<polygon fill="white" stroke="black" points="571,-190.5 571,-220.5 696,-220.5 696,-190.5 571,-190.5"/>
<text text-anchor="start" x="579" y="-208.5" font-family="Helvetica,sans-Serif" font-size="10.00">dynamic&#45;graph/exception</text>
<text text-anchor="middle" x="633.5" y="-197.5" font-family="Helvetica,sans-Serif" font-size="10.00">&#45;signal.h</text>
</a>
</g>
</g>
<!-- Node5&#45;&gt;Node10 -->
<g id="edge11" class="edge"><title>Node5&#45;&gt;Node10</title>
<path fill="none" stroke="midnightblue" d="M453.908,-257.476C489.151,-247.472 536.716,-233.971 574.041,-223.377"/>
<polygon fill="midnightblue" stroke="midnightblue" points="575.122,-226.709 583.786,-220.611 573.21,-219.975 575.122,-226.709"/>
</g>
<!-- Node10&#45;&gt;Node4 -->
<g id="edge12" class="edge"><title>Node10&#45;&gt;Node4</title>
<path fill="none" stroke="midnightblue" d="M590.198,-190.424C568.906,-182.086 543.753,-169.99 524.5,-154 502.857,-136.025 485.38,-108.163 475.463,-90.1251"/>
<polygon fill="midnightblue" stroke="midnightblue" points="478.529,-88.4361 470.753,-81.24 472.344,-91.7146 478.529,-88.4361"/>
</g>
<!-- Node11 -->
<g id="node11" class="node"><title>Node11</title>
<g id="a_node11"><a xlink:href="a00067.html" target="_top" xlink:title="dynamic&#45;graph/dynamic\l&#45;graph&#45;api.h">
<polygon fill="white" stroke="black" points="553.5,-56.5 553.5,-86.5 673.5,-86.5 673.5,-56.5 553.5,-56.5"/>
<text text-anchor="start" x="561.5" y="-74.5" font-family="Helvetica,sans-Serif" font-size="10.00">dynamic&#45;graph/dynamic</text>
<text text-anchor="middle" x="613.5" y="-63.5" font-family="Helvetica,sans-Serif" font-size="10.00">&#45;graph&#45;api.h</text>
</a>
</g>
</g>
<!-- Node10&#45;&gt;Node11 -->
<g id="edge13" class="edge"><title>Node10&#45;&gt;Node11</title>
<path fill="none" stroke="midnightblue" d="M646.667,-190.314C660.118,-174.013 677.692,-146.487 667.5,-123 662.43,-111.317 653.179,-101.104 643.748,-92.9773"/>
<polygon fill="midnightblue" stroke="midnightblue" points="645.862,-90.1857 635.873,-86.6544 641.48,-95.6442 645.862,-90.1857"/>
</g>
<!-- Node13 -->
<g id="node13" class="node"><title>Node13</title>
<g id="a_node13"><a xlink:href="a00071.html" target="_top" xlink:title="dynamic&#45;graph/exception\l&#45;abstract.h">
<polygon fill="white" stroke="black" points="533,-123.5 533,-153.5 658,-153.5 658,-123.5 533,-123.5"/>
<text text-anchor="start" x="541" y="-141.5" font-family="Helvetica,sans-Serif" font-size="10.00">dynamic&#45;graph/exception</text>
<text text-anchor="middle" x="595.5" y="-130.5" font-family="Helvetica,sans-Serif" font-size="10.00">&#45;abstract.h</text>
</a>
</g>
</g>
<!-- Node10&#45;&gt;Node13 -->
<g id="edge15" class="edge"><title>Node10&#45;&gt;Node13</title>
<path fill="none" stroke="midnightblue" d="M625.255,-190.396C620.474,-182.219 614.339,-171.725 608.884,-162.393"/>
<polygon fill="midnightblue" stroke="midnightblue" points="611.798,-160.443 603.729,-153.577 605.755,-163.976 611.798,-160.443"/>
</g>
<!-- Node12 -->
<g id="node12" class="node"><title>Node12</title>
<polygon fill="white" stroke="#bfbfbf" points="552,-0.5 552,-19.5 675,-19.5 675,-0.5 552,-0.5"/>
<text text-anchor="middle" x="613.5" y="-7.5" font-family="Helvetica,sans-Serif" font-size="10.00">dynamic&#45;graph/config.hh</text>
</g>
<!-- Node11&#45;&gt;Node12 -->
<g id="edge14" class="edge"><title>Node11&#45;&gt;Node12</title>
<path fill="none" stroke="midnightblue" d="M613.5,-56.3993C613.5,-48.4664 613.5,-38.458 613.5,-29.8583"/>
<polygon fill="midnightblue" stroke="midnightblue" points="617,-29.6577 613.5,-19.6578 610,-29.6578 617,-29.6577"/>
</g>
<!-- Node13&#45;&gt;Node3 -->
<g id="edge16" class="edge"><title>Node13&#45;&gt;Node3</title>
<path fill="none" stroke="midnightblue" d="M532.82,-123.874C472.548,-110.771 383.466,-91.4057 333.666,-80.5796"/>
<polygon fill="midnightblue" stroke="midnightblue" points="334.175,-77.1086 323.66,-78.4043 332.688,-83.9488 334.175,-77.1086"/>
</g>
<!-- Node13&#45;&gt;Node4 -->
<g id="edge18" class="edge"><title>Node13&#45;&gt;Node4</title>
<path fill="none" stroke="midnightblue" d="M567.509,-123.396C545.175,-112.142 514.133,-96.501 492.374,-85.5375"/>
<polygon fill="midnightblue" stroke="midnightblue" points="493.888,-82.3812 483.383,-81.007 490.739,-88.6325 493.888,-82.3812"/>
</g>
<!-- Node13&#45;&gt;Node6 -->
<g id="edge17" class="edge"><title>Node13&#45;&gt;Node6</title>
<path fill="none" stroke="midnightblue" d="M622.189,-123.396C643.389,-112.193 672.817,-96.6412 693.549,-85.6853"/>
<polygon fill="midnightblue" stroke="midnightblue" points="695.196,-88.7738 702.402,-81.007 691.925,-82.5848 695.196,-88.7738"/>
</g>
<!-- Node13&#45;&gt;Node11 -->
<g id="edge19" class="edge"><title>Node13&#45;&gt;Node11</title>
<path fill="none" stroke="midnightblue" d="M599.406,-123.396C601.599,-115.474 604.395,-105.379 606.917,-96.2712"/>
<polygon fill="midnightblue" stroke="midnightblue" points="610.306,-97.1479 609.602,-86.5765 603.56,-95.2797 610.306,-97.1479"/>
</g>
<!-- Node14&#45;&gt;Node5 -->
<g id="edge21" class="edge"><title>Node14&#45;&gt;Node5</title>
<path fill="none" stroke="midnightblue" d="M478.886,-324.396C465.566,-315.282 448.039,-303.29 433.345,-293.236"/>
<polygon fill="midnightblue" stroke="midnightblue" points="435.303,-290.335 425.073,-287.577 431.35,-296.112 435.303,-290.335"/>
</g>
<!-- Node14&#45;&gt;Node11 -->
<g id="edge22" class="edge"><title>Node14&#45;&gt;Node11</title>
<path fill="none" stroke="midnightblue" d="M554.314,-324.478C603.892,-308.532 673.827,-277.113 705.5,-221 721.126,-193.316 683.066,-123.769 682.5,-123 673.574,-110.881 660.895,-100.44 648.836,-92.2494"/>
<polygon fill="midnightblue" stroke="midnightblue" points="650.527,-89.1749 640.227,-86.6909 646.73,-95.0556 650.527,-89.1749"/>
</g>
<!-- Node15 -->
<g id="node15" class="node"><title>Node15</title>
<polygon fill="white" stroke="#bfbfbf" points="477.5,-263 477.5,-282 521.5,-282 521.5,-263 477.5,-263"/>
<text text-anchor="middle" x="499.5" y="-270" font-family="Helvetica,sans-Serif" font-size="10.00">vector</text>
</g>
<!-- Node14&#45;&gt;Node15 -->
<g id="edge23" class="edge"><title>Node14&#45;&gt;Node15</title>
<path fill="none" stroke="midnightblue" d="M499.5,-324.396C499.5,-315.064 499.5,-302.714 499.5,-292.517"/>
<polygon fill="midnightblue" stroke="midnightblue" points="503,-292.195 499.5,-282.195 496,-292.195 503,-292.195"/>
</g>
<!-- Node16 -->
<g id="node16" class="node"><title>Node16</title>
<polygon fill="white" stroke="#bfbfbf" points="539.5,-263 539.5,-282 585.5,-282 585.5,-263 539.5,-263"/>
<text text-anchor="middle" x="562.5" y="-270" font-family="Helvetica,sans-Serif" font-size="10.00">stdio.h</text>
</g>
<!-- Node14&#45;&gt;Node16 -->
<g id="edge24" class="edge"><title>Node14&#45;&gt;Node16</title>
<path fill="none" stroke="midnightblue" d="M513.17,-324.396C523.09,-314.161 536.529,-300.296 546.874,-289.622"/>
<polygon fill="midnightblue" stroke="midnightblue" points="549.626,-291.811 554.073,-282.195 544.6,-286.939 549.626,-291.811"/>
</g>
<!-- Node17&#45;&gt;Node1 -->
<g id="edge26" class="edge"><title>Node17&#45;&gt;Node1</title>
<path fill="none" stroke="midnightblue" d="M130.949,-354.523C144.264,-363.662 160.131,-375.579 171.44,-384.921"/>
<polygon fill="midnightblue" stroke="midnightblue" points="169.212,-387.622 179.082,-391.475 173.769,-382.308 169.212,-387.622"/>
</g>
<!-- Node18 -->
<g id="node18" class="node"><title>Node18</title>
<g id="a_node18"><a xlink:href="a00065.html" target="_top" xlink:title="dynamic&#45;graph/debug.h">
<polygon fill="white" stroke="black" points="39.5,-129 39.5,-148 157.5,-148 157.5,-129 39.5,-129"/>
<text text-anchor="middle" x="98.5" y="-136" font-family="Helvetica,sans-Serif" font-size="10.00">dynamic&#45;graph/debug.h</text>
</a>
</g>
</g>
<!-- Node17&#45;&gt;Node18 -->
<g id="edge27" class="edge"><title>Node17&#45;&gt;Node18</title>
<path fill="none" stroke="midnightblue" d="M105.925,-324.188C104.509,-288.986 100.859,-198.172 99.2641,-158.508"/>
<polygon fill="midnightblue" stroke="midnightblue" points="102.755,-158.211 98.8562,-148.36 95.7608,-158.493 102.755,-158.211"/>
</g>
<!-- Node18&#45;&gt;Node3 -->
<g id="edge30" class="edge"><title>Node18&#45;&gt;Node3</title>
<path fill="none" stroke="midnightblue" d="M127.281,-128.973C159.441,-119.316 212.974,-102.855 258.5,-87 260.751,-86.2162 263.068,-85.3871 265.396,-84.5381"/>
<polygon fill="midnightblue" stroke="midnightblue" points="266.731,-87.7759 274.878,-81.0025 264.285,-81.217 266.731,-87.7759"/>
</g>
<!-- Node18&#45;&gt;Node4 -->
<g id="edge33" class="edge"><title>Node18&#45;&gt;Node4</title>
<path fill="none" stroke="midnightblue" d="M146.988,-128.936C214.235,-117.058 335.672,-95.6083 407.909,-82.849"/>
<polygon fill="midnightblue" stroke="midnightblue" points="408.959,-86.2178 418.197,-81.0317 407.741,-79.3245 408.959,-86.2178"/>
</g>
<!-- Node18&#45;&gt;Node7 -->
<g id="edge32" class="edge"><title>Node18&#45;&gt;Node7</title>
<path fill="none" stroke="midnightblue" d="M115.099,-128.869C136.205,-117.893 172.876,-98.8243 197.657,-85.9385"/>
<polygon fill="midnightblue" stroke="midnightblue" points="199.575,-88.886 206.832,-81.1672 196.345,-82.6755 199.575,-88.886"/>
</g>
<!-- Node18&#45;&gt;Node11 -->
<g id="edge34" class="edge"><title>Node18&#45;&gt;Node11</title>
<path fill="none" stroke="midnightblue" d="M157.617,-131.781C241.28,-123.425 398.923,-106.708 532.5,-87 536.104,-86.4683 539.794,-85.8986 543.516,-85.3038"/>
<polygon fill="midnightblue" stroke="midnightblue" points="544.109,-88.7533 553.41,-83.6796 542.975,-81.8458 544.109,-88.7533"/>
</g>
<!-- Node19 -->
<g id="node19" class="node"><title>Node19</title>
<polygon fill="white" stroke="#bfbfbf" points="136,-62 136,-81 179,-81 179,-62 136,-62"/>
<text text-anchor="middle" x="157.5" y="-69" font-family="Helvetica,sans-Serif" font-size="10.00">cstdio</text>
</g>
<!-- Node18&#45;&gt;Node19 -->
<g id="edge28" class="edge"><title>Node18&#45;&gt;Node19</title>
<path fill="none" stroke="midnightblue" d="M106.457,-128.734C115.746,-118.5 131.3,-101.364 142.802,-88.6924"/>
<polygon fill="midnightblue" stroke="midnightblue" points="145.54,-90.8843 149.669,-81.1273 140.356,-86.1795 145.54,-90.8843"/>
</g>
<!-- Node20 -->
<g id="node20" class="node"><title>Node20</title>
<polygon fill="white" stroke="#bfbfbf" points="0,-62 0,-81 49,-81 49,-62 0,-62"/>
<text text-anchor="middle" x="24.5" y="-69" font-family="Helvetica,sans-Serif" font-size="10.00">cstdarg</text>
</g>
<!-- Node18&#45;&gt;Node20 -->
<g id="edge29" class="edge"><title>Node18&#45;&gt;Node20</title>
<path fill="none" stroke="midnightblue" d="M88.52,-128.734C76.6478,-118.305 56.6147,-100.709 42.1156,-87.9732"/>
<polygon fill="midnightblue" stroke="midnightblue" points="44.1449,-85.0971 34.3219,-81.1273 39.5252,-90.3564 44.1449,-85.0971"/>
</g>
<!-- Node21 -->
<g id="node21" class="node"><title>Node21</title>
<polygon fill="white" stroke="#bfbfbf" points="67.5,-62 67.5,-81 117.5,-81 117.5,-62 67.5,-62"/>
<text text-anchor="middle" x="92.5" y="-69" font-family="Helvetica,sans-Serif" font-size="10.00">fstream</text>
</g>
<!-- Node18&#45;&gt;Node21 -->
<g id="edge31" class="edge"><title>Node18&#45;&gt;Node21</title>
<path fill="none" stroke="midnightblue" d="M97.6908,-128.734C96.8092,-119.183 95.3725,-103.618 94.2338,-91.2829"/>
<polygon fill="midnightblue" stroke="midnightblue" points="97.7008,-90.7632 93.2964,-81.1273 90.7304,-91.4067 97.7008,-90.7632"/>
</g>
</g>
</svg>
