<?xml version="1.0" encoding="UTF-8" standalone="no"?>
<!DOCTYPE svg PUBLIC "-//W3C//DTD SVG 1.1//EN"
 "http://www.w3.org/Graphics/SVG/1.1/DTD/svg11.dtd">
<!-- Generated by graphviz version 2.38.0 (20140413.2041)
 -->
<!-- Title: signal&#45;cast&#45;helper.h Pages: 1 -->
<svg width="1575pt" height="352pt"
 viewBox="0.00 0.00 1574.73 352.00" xmlns="http://www.w3.org/2000/svg" xmlns:xlink="http://www.w3.org/1999/xlink">
<g id="graph0" class="graph" transform="scale(1 1) rotate(0) translate(4 348)">
<title>signal&#45;cast&#45;helper.h</title>
<polygon fill="white" stroke="none" points="-4,4 -4,-348 1570.73,-348 1570.73,4 -4,4"/>
<!-- Node1 -->
<g id="node1" class="node"><title>Node1</title>
<polygon fill="#bfbfbf" stroke="black" points="723.73,-324.5 723.73,-343.5 824.73,-343.5 824.73,-324.5 723.73,-324.5"/>
<text text-anchor="middle" x="774.23" y="-331.5" font-family="Helvetica,sans-Serif" font-size="10.00">signal&#45;cast&#45;helper.h</text>
</g>
<!-- Node2 -->
<g id="node2" class="node"><title>Node2</title>
<polygon fill="white" stroke="#bfbfbf" points="654.73,-196 654.73,-215 689.73,-215 689.73,-196 654.73,-196"/>
<text text-anchor="middle" x="672.23" y="-203" font-family="Helvetica,sans-Serif" font-size="10.00">map</text>
</g>
<!-- Node1&#45;&gt;Node2 -->
<g id="edge1" class="edge"><title>Node1&#45;&gt;Node2</title>
<path fill="none" stroke="midnightblue" d="M767.219,-324.305C750.405,-303.452 707.559,-250.315 685.619,-223.105"/>
<polygon fill="midnightblue" stroke="midnightblue" points="688.291,-220.843 679.29,-215.256 682.842,-225.237 688.291,-220.843"/>
</g>
<!-- Node3 -->
<g id="node3" class="node"><title>Node3</title>
<polygon fill="white" stroke="#bfbfbf" points="707.73,-196 707.73,-215 758.73,-215 758.73,-196 707.73,-196"/>
<text text-anchor="middle" x="733.23" y="-203" font-family="Helvetica,sans-Serif" font-size="10.00">typeinfo</text>
</g>
<!-- Node1&#45;&gt;Node3 -->
<g id="edge2" class="edge"><title>Node1&#45;&gt;Node3</title>
<path fill="none" stroke="midnightblue" d="M769.237,-324.292C764.322,-315.41 756.895,-301.109 752.23,-288 744.79,-267.092 739.464,-242.118 736.378,-225.375"/>
<polygon fill="midnightblue" stroke="midnightblue" points="739.777,-224.494 734.601,-215.249 732.882,-225.704 739.777,-224.494"/>
</g>
<!-- Node4 -->
<g id="node4" class="node"><title>Node4</title>
<polygon fill="white" stroke="#bfbfbf" points="309.23,-62 309.23,-81 363.23,-81 363.23,-62 309.23,-62"/>
<text text-anchor="middle" x="336.23" y="-69" font-family="Helvetica,sans-Serif" font-size="10.00">iostream</text>
</g>
<!-- Node1&#45;&gt;Node4 -->
<g id="edge3" class="edge"><title>Node1&#45;&gt;Node4</title>
<path fill="none" stroke="midnightblue" d="M723.559,-331.331C631.489,-327.679 430.854,-316.862 264.23,-288 147.922,-267.853 79.4048,-314.403 7.22983,-221 -5.99322,-203.888 1.22857,-138.35 16.2298,-123 54.9003,-83.43 223.14,-74.8542 298.95,-73.0043"/>
<polygon fill="midnightblue" stroke="midnightblue" points="299.089,-76.5022 309.011,-72.7853 298.937,-69.5038 299.089,-76.5022"/>
</g>
<!-- Node5 -->
<g id="node5" class="node"><title>Node5</title>
<polygon fill="white" stroke="#bfbfbf" points="853.23,-196 853.23,-215 897.23,-215 897.23,-196 853.23,-196"/>
<text text-anchor="middle" x="875.23" y="-203" font-family="Helvetica,sans-Serif" font-size="10.00">vector</text>
</g>
<!-- Node1&#45;&gt;Node5 -->
<g id="edge4" class="edge"><title>Node1&#45;&gt;Node5</title>
<path fill="none" stroke="midnightblue" d="M823.001,-324.495C844.015,-318.151 866.62,-307.124 879.23,-288 891.565,-269.294 887.13,-242.59 881.94,-224.913"/>
<polygon fill="midnightblue" stroke="midnightblue" points="885.203,-223.631 878.753,-215.226 878.553,-225.819 885.203,-223.631"/>
</g>
<!-- Node6 -->
<g id="node6" class="node"><title>Node6</title>
<polygon fill="white" stroke="#bfbfbf" points="915.23,-196 915.23,-215 993.23,-215 993.23,-196 915.23,-196"/>
<text text-anchor="middle" x="954.23" y="-203" font-family="Helvetica,sans-Serif" font-size="10.00">boost/any.hpp</text>
</g>
<!-- Node1&#45;&gt;Node6 -->
<g id="edge5" class="edge"><title>Node1&#45;&gt;Node6</title>
<path fill="none" stroke="midnightblue" d="M816.102,-324.434C841.479,-317.69 873.438,-306.298 897.23,-288 919.402,-270.947 936.339,-242.84 945.787,-224.498"/>
<polygon fill="midnightblue" stroke="midnightblue" points="948.967,-225.962 950.251,-215.445 942.689,-222.866 948.967,-225.962"/>
</g>
<!-- Node7 -->
<g id="node7" class="node"><title>Node7</title>
<polygon fill="white" stroke="#bfbfbf" points="364.23,-196 364.23,-215 454.23,-215 454.23,-196 364.23,-196"/>
<text text-anchor="middle" x="409.23" y="-203" font-family="Helvetica,sans-Serif" font-size="10.00">boost/format.hpp</text>
</g>
<!-- Node1&#45;&gt;Node7 -->
<g id="edge6" class="edge"><title>Node1&#45;&gt;Node7</title>
<path fill="none" stroke="midnightblue" d="M723.726,-325.174C682.498,-317.963 623.112,-305.686 573.23,-288 520.817,-269.417 463.469,-238.182 432.395,-220.259"/>
<polygon fill="midnightblue" stroke="midnightblue" points="434.033,-217.162 423.63,-215.152 430.509,-223.211 434.033,-217.162"/>
</g>
<!-- Node8 -->
<g id="node8" class="node"><title>Node8</title>
<polygon fill="white" stroke="#bfbfbf" points="1011.23,-196 1011.23,-215 1151.23,-215 1151.23,-196 1011.23,-196"/>
<text text-anchor="middle" x="1081.23" y="-203" font-family="Helvetica,sans-Serif" font-size="10.00">boost/function/function1.hpp</text>
</g>
<!-- Node1&#45;&gt;Node8 -->
<g id="edge7" class="edge"><title>Node1&#45;&gt;Node8</title>
<path fill="none" stroke="midnightblue" d="M809.669,-324.496C840.693,-316.568 886.703,-303.636 925.23,-288 974.283,-268.092 1028.39,-237.803 1058.24,-220.301"/>
<polygon fill="midnightblue" stroke="midnightblue" points="1060.22,-223.199 1067.05,-215.098 1056.66,-217.173 1060.22,-223.199"/>
</g>
<!-- Node9 -->
<g id="node9" class="node"><title>Node9</title>
<polygon fill="white" stroke="#bfbfbf" points="1169.23,-196 1169.23,-215 1309.23,-215 1309.23,-196 1169.23,-196"/>
<text text-anchor="middle" x="1239.23" y="-203" font-family="Helvetica,sans-Serif" font-size="10.00">boost/function/function2.hpp</text>
</g>
<!-- Node1&#45;&gt;Node9 -->
<g id="edge8" class="edge"><title>Node1&#45;&gt;Node9</title>
<path fill="none" stroke="midnightblue" d="M815.78,-324.477C855.993,-316.012 918.573,-302.266 972.23,-288 1055.88,-265.759 1152.76,-234.885 1203.7,-218.247"/>
<polygon fill="midnightblue" stroke="midnightblue" points="1204.85,-221.556 1213.26,-215.117 1202.67,-214.903 1204.85,-221.556"/>
</g>
<!-- Node10 -->
<g id="node10" class="node"><title>Node10</title>
<polygon fill="white" stroke="#bfbfbf" points="1327.23,-196 1327.23,-215 1441.23,-215 1441.23,-196 1327.23,-196"/>
<text text-anchor="middle" x="1384.23" y="-203" font-family="Helvetica,sans-Serif" font-size="10.00">boost/lexical_cast.hpp</text>
</g>
<!-- Node1&#45;&gt;Node10 -->
<g id="edge9" class="edge"><title>Node1&#45;&gt;Node10</title>
<path fill="none" stroke="midnightblue" d="M825.015,-325.309C878.3,-317.014 964.412,-302.97 1038.23,-288 1147.88,-265.763 1275.76,-234.146 1341.05,-217.588"/>
<polygon fill="midnightblue" stroke="midnightblue" points="1342.15,-220.92 1350.98,-215.063 1340.43,-214.135 1342.15,-220.92"/>
</g>
<!-- Node11 -->
<g id="node11" class="node"><title>Node11</title>
<polygon fill="white" stroke="#bfbfbf" points="1459.73,-196 1459.73,-215 1566.73,-215 1566.73,-196 1459.73,-196"/>
<text text-anchor="middle" x="1513.23" y="-203" font-family="Helvetica,sans-Serif" font-size="10.00">boost/tuple/tuple.hpp</text>
</g>
<!-- Node1&#45;&gt;Node11 -->
<g id="edge10" class="edge"><title>Node1&#45;&gt;Node11</title>
<path fill="none" stroke="midnightblue" d="M824.961,-327.509C892.376,-319.955 1015.1,-305.307 1119.23,-288 1267.29,-263.389 1303.53,-252.724 1450.23,-221 1455.65,-219.829 1461.32,-218.57 1466.94,-217.301"/>
<polygon fill="midnightblue" stroke="midnightblue" points="1467.98,-220.654 1476.95,-215.022 1466.43,-213.829 1467.98,-220.654"/>
</g>
<!-- Node12 -->
<g id="node12" class="node"><title>Node12</title>
<g id="a_node12"><a xlink:href="a00069.html" target="_top" xlink:title="dynamic&#45;graph/eigen&#45;io.h">
<polygon fill="white" stroke="black" points="273.73,-263 273.73,-282 398.73,-282 398.73,-263 273.73,-263"/>
<text text-anchor="middle" x="336.23" y="-270" font-family="Helvetica,sans-Serif" font-size="10.00">dynamic&#45;graph/eigen&#45;io.h</text>
</a>
</g>
</g>
<!-- Node1&#45;&gt;Node12 -->
<g id="edge11" class="edge"><title>Node1&#45;&gt;Node12</title>
<path fill="none" stroke="midnightblue" d="M723.558,-326.116C646.041,-315.586 497.675,-295.431 408.767,-283.354"/>
<polygon fill="midnightblue" stroke="midnightblue" points="409.141,-279.872 398.76,-281.994 408.198,-286.809 409.141,-279.872"/>
</g>
<!-- Node14 -->
<g id="node14" class="node"><title>Node14</title>
<g id="a_node14"><a xlink:href="a00074.html" target="_top" xlink:title="dynamic&#45;graph/exception\l&#45;signal.h">
<polygon fill="white" stroke="black" points="472.73,-190.5 472.73,-220.5 597.73,-220.5 597.73,-190.5 472.73,-190.5"/>
<text text-anchor="start" x="480.73" y="-208.5" font-family="Helvetica,sans-Serif" font-size="10.00">dynamic&#45;graph/exception</text>
<text text-anchor="middle" x="535.23" y="-197.5" font-family="Helvetica,sans-Serif" font-size="10.00">&#45;signal.h</text>
</a>
</g>
</g>
<!-- Node1&#45;&gt;Node14 -->
<g id="edge29" class="edge"><title>Node1&#45;&gt;Node14</title>
<path fill="none" stroke="midnightblue" d="M723.595,-326.182C690.147,-319.994 646.356,-308.566 612.23,-288 587.043,-272.821 564.767,-247.174 550.739,-228.701"/>
<polygon fill="midnightblue" stroke="midnightblue" points="553.467,-226.504 544.715,-220.534 547.834,-230.659 553.467,-226.504"/>
</g>
<!-- Node16 -->
<g id="node16" class="node"><title>Node16</title>
<g id="a_node16"><a xlink:href="a00068.html" target="_top" xlink:title="dynamic&#45;graph/dynamic\l&#45;graph&#45;api.h">
<polygon fill="white" stroke="black" points="588.23,-56.5 588.23,-86.5 708.23,-86.5 708.23,-56.5 588.23,-56.5"/>
<text text-anchor="start" x="596.23" y="-74.5" font-family="Helvetica,sans-Serif" font-size="10.00">dynamic&#45;graph/dynamic</text>
<text text-anchor="middle" x="648.23" y="-63.5" font-family="Helvetica,sans-Serif" font-size="10.00">&#45;graph&#45;api.h</text>
</a>
</g>
</g>
<!-- Node1&#45;&gt;Node16 -->
<g id="edge28" class="edge"><title>Node1&#45;&gt;Node16</title>
<path fill="none" stroke="midnightblue" d="M756.194,-324.429C725.929,-308.855 666.177,-272.675 645.23,-221 628.578,-179.922 635.641,-127.057 642.079,-96.7541"/>
<polygon fill="midnightblue" stroke="midnightblue" points="645.566,-97.202 644.377,-86.6741 638.741,-95.6456 645.566,-97.202"/>
</g>
<!-- Node23 -->
<g id="node23" class="node"><title>Node23</title>
<g id="a_node23"><a xlink:href="a00086.html" target="_top" xlink:title="dynamic&#45;graph/signal\l&#45;caster.h">
<polygon fill="white" stroke="black" points="761.73,-257.5 761.73,-287.5 870.73,-287.5 870.73,-257.5 761.73,-257.5"/>
<text text-anchor="start" x="769.73" y="-275.5" font-family="Helvetica,sans-Serif" font-size="10.00">dynamic&#45;graph/signal</text>
<text text-anchor="middle" x="816.23" y="-264.5" font-family="Helvetica,sans-Serif" font-size="10.00">&#45;caster.h</text>
</a>
</g>
</g>
<!-- Node1&#45;&gt;Node23 -->
<g id="edge30" class="edge"><title>Node1&#45;&gt;Node23</title>
<path fill="none" stroke="midnightblue" d="M780.247,-324.475C785.51,-317.019 793.393,-305.852 800.44,-295.869"/>
<polygon fill="midnightblue" stroke="midnightblue" points="803.424,-297.711 806.331,-287.523 797.705,-293.674 803.424,-297.711"/>
</g>
<!-- Node12&#45;&gt;Node4 -->
<g id="edge12" class="edge"><title>Node12&#45;&gt;Node4</title>
<path fill="none" stroke="midnightblue" d="M336.23,-262.949C336.23,-233.165 336.23,-133.51 336.23,-91.4676"/>
<polygon fill="midnightblue" stroke="midnightblue" points="339.73,-91.243 336.23,-81.243 332.73,-91.2431 339.73,-91.243"/>
</g>
<!-- Node12&#45;&gt;Node7 -->
<g id="edge13" class="edge"><title>Node12&#45;&gt;Node7</title>
<path fill="none" stroke="midnightblue" d="M346.075,-262.734C357.787,-252.305 377.549,-234.709 391.852,-221.973"/>
<polygon fill="midnightblue" stroke="midnightblue" points="394.4,-224.391 399.541,-215.127 389.745,-219.163 394.4,-224.391"/>
</g>
<!-- Node13 -->
<g id="node13" class="node"><title>Node13</title>
<polygon fill="white" stroke="#bfbfbf" points="180.23,-190.5 180.23,-220.5 308.23,-220.5 308.23,-190.5 180.23,-190.5"/>
<text text-anchor="start" x="188.23" y="-208.5" font-family="Helvetica,sans-Serif" font-size="10.00">boost/numeric/conversion</text>
<text text-anchor="middle" x="244.23" y="-197.5" font-family="Helvetica,sans-Serif" font-size="10.00">/cast.hpp</text>
</g>
<!-- Node12&#45;&gt;Node13 -->
<g id="edge14" class="edge"><title>Node12&#45;&gt;Node13</title>
<path fill="none" stroke="midnightblue" d="M323.822,-262.734C310.791,-253.527 289.852,-238.733 272.721,-226.629"/>
<polygon fill="midnightblue" stroke="midnightblue" points="274.358,-223.501 264.171,-220.589 270.319,-229.218 274.358,-223.501"/>
</g>
<!-- Node12&#45;&gt;Node14 -->
<g id="edge15" class="edge"><title>Node12&#45;&gt;Node14</title>
<path fill="none" stroke="midnightblue" d="M362.655,-262.869C393.163,-252.904 444.095,-236.268 482.742,-223.644"/>
<polygon fill="midnightblue" stroke="midnightblue" points="483.863,-226.96 492.282,-220.528 481.69,-220.306 483.863,-226.96"/>
</g>
<!-- Node20 -->
<g id="node20" class="node"><title>Node20</title>
<g id="a_node20"><a xlink:href="a00078.html" target="_top" xlink:title="dynamic&#45;graph/linear\l&#45;algebra.h">
<polygon fill="white" stroke="black" points="16.7298,-190.5 16.7298,-220.5 123.73,-220.5 123.73,-190.5 16.7298,-190.5"/>
<text text-anchor="start" x="24.7298" y="-208.5" font-family="Helvetica,sans-Serif" font-size="10.00">dynamic&#45;graph/linear</text>
<text text-anchor="middle" x="70.2298" y="-197.5" font-family="Helvetica,sans-Serif" font-size="10.00">&#45;algebra.h</text>
</a>
</g>
</g>
<!-- Node12&#45;&gt;Node20 -->
<g id="edge24" class="edge"><title>Node12&#45;&gt;Node20</title>
<path fill="none" stroke="midnightblue" d="M301.181,-262.936C258.638,-252.54 186.09,-234.812 133.641,-221.995"/>
<polygon fill="midnightblue" stroke="midnightblue" points="134.31,-218.556 123.765,-219.582 132.648,-225.356 134.31,-218.556"/>
</g>
<!-- Node22 -->
<g id="node22" class="node"><title>Node22</title>
<polygon fill="white" stroke="#bfbfbf" points="108.73,-129 108.73,-148 195.73,-148 195.73,-129 108.73,-129"/>
<text text-anchor="middle" x="152.23" y="-136" font-family="Helvetica,sans-Serif" font-size="10.00">Eigen/Geometry</text>
</g>
<!-- Node12&#45;&gt;Node22 -->
<g id="edge27" class="edge"><title>Node12&#45;&gt;Node22</title>
<path fill="none" stroke="midnightblue" d="M273.363,-267.265C238.657,-261.645 197.407,-249.02 171.23,-221 155.46,-204.12 151.95,-176.769 151.554,-158.465"/>
<polygon fill="midnightblue" stroke="midnightblue" points="155.054,-158.438 151.628,-148.412 148.054,-158.386 155.054,-158.438"/>
</g>
<!-- Node15 -->
<g id="node15" class="node"><title>Node15</title>
<g id="a_node15"><a xlink:href="a00077.html" target="_top" xlink:title="dynamic&#45;graph/fwd.hh">
<polygon fill="white" stroke="black" points="382.73,-62 382.73,-81 495.73,-81 495.73,-62 382.73,-62"/>
<text text-anchor="middle" x="439.23" y="-69" font-family="Helvetica,sans-Serif" font-size="10.00">dynamic&#45;graph/fwd.hh</text>
</a>
</g>
</g>
<!-- Node14&#45;&gt;Node15 -->
<g id="edge16" class="edge"><title>Node14&#45;&gt;Node15</title>
<path fill="none" stroke="midnightblue" d="M505.879,-190.469C490.812,-181.883 473.338,-169.549 462.23,-154 448.839,-135.257 443.224,-108.928 440.883,-91.3198"/>
<polygon fill="midnightblue" stroke="midnightblue" points="444.34,-90.7331 439.768,-81.1753 437.381,-91.4978 444.34,-90.7331"/>
</g>
<!-- Node14&#45;&gt;Node16 -->
<g id="edge17" class="edge"><title>Node14&#45;&gt;Node16</title>
<path fill="none" stroke="midnightblue" d="M560.455,-190.317C574.871,-181.297 592.546,-168.588 605.23,-154 620.234,-136.742 631.889,-113.347 639.257,-96.0482"/>
<polygon fill="midnightblue" stroke="midnightblue" points="642.55,-97.2413 643.093,-86.6603 636.07,-94.5937 642.55,-97.2413"/>
</g>
<!-- Node18 -->
<g id="node18" class="node"><title>Node18</title>
<g id="a_node18"><a xlink:href="a00072.html" target="_top" xlink:title="dynamic&#45;graph/exception\l&#45;abstract.h">
<polygon fill="white" stroke="black" points="471.73,-123.5 471.73,-153.5 596.73,-153.5 596.73,-123.5 471.73,-123.5"/>
<text text-anchor="start" x="479.73" y="-141.5" font-family="Helvetica,sans-Serif" font-size="10.00">dynamic&#45;graph/exception</text>
<text text-anchor="middle" x="534.23" y="-130.5" font-family="Helvetica,sans-Serif" font-size="10.00">&#45;abstract.h</text>
</a>
</g>
</g>
<!-- Node14&#45;&gt;Node18 -->
<g id="edge19" class="edge"><title>Node14&#45;&gt;Node18</title>
<path fill="none" stroke="midnightblue" d="M535.013,-190.396C534.894,-182.645 534.742,-172.812 534.605,-163.86"/>
<polygon fill="midnightblue" stroke="midnightblue" points="538.1,-163.521 534.446,-153.577 531.101,-163.629 538.1,-163.521"/>
</g>
<!-- Node17 -->
<g id="node17" class="node"><title>Node17</title>
<polygon fill="white" stroke="#bfbfbf" points="586.73,-0.5 586.73,-19.5 709.73,-19.5 709.73,-0.5 586.73,-0.5"/>
<text text-anchor="middle" x="648.23" y="-7.5" font-family="Helvetica,sans-Serif" font-size="10.00">dynamic&#45;graph/config.hh</text>
</g>
<!-- Node16&#45;&gt;Node17 -->
<g id="edge18" class="edge"><title>Node16&#45;&gt;Node17</title>
<path fill="none" stroke="midnightblue" d="M648.23,-56.3993C648.23,-48.4664 648.23,-38.458 648.23,-29.8583"/>
<polygon fill="midnightblue" stroke="midnightblue" points="651.73,-29.6577 648.23,-19.6578 644.73,-29.6578 651.73,-29.6577"/>
</g>
<!-- Node18&#45;&gt;Node4 -->
<g id="edge20" class="edge"><title>Node18&#45;&gt;Node4</title>
<path fill="none" stroke="midnightblue" d="M486.39,-123.447C454.213,-113.762 410.944,-100.287 373.23,-87 371.115,-86.2549 368.941,-85.4654 366.756,-84.6546"/>
<polygon fill="midnightblue" stroke="midnightblue" points="367.857,-81.3287 357.267,-81.0364 365.364,-87.8694 367.857,-81.3287"/>
</g>
<!-- Node18&#45;&gt;Node15 -->
<g id="edge22" class="edge"><title>Node18&#45;&gt;Node15</title>
<path fill="none" stroke="midnightblue" d="M513.616,-123.396C497.832,-112.597 476.143,-97.7564 460.257,-86.8872"/>
<polygon fill="midnightblue" stroke="midnightblue" points="461.893,-83.7653 451.663,-81.007 457.94,-89.5425 461.893,-83.7653"/>
</g>
<!-- Node18&#45;&gt;Node16 -->
<g id="edge23" class="edge"><title>Node18&#45;&gt;Node16</title>
<path fill="none" stroke="midnightblue" d="M558.966,-123.396C575.249,-114.112 596.77,-101.841 614.601,-91.6742"/>
<polygon fill="midnightblue" stroke="midnightblue" points="616.588,-94.5702 623.542,-86.5765 613.121,-88.4892 616.588,-94.5702"/>
</g>
<!-- Node19 -->
<g id="node19" class="node"><title>Node19</title>
<polygon fill="white" stroke="#bfbfbf" points="513.73,-62 513.73,-81 554.73,-81 554.73,-62 513.73,-62"/>
<text text-anchor="middle" x="534.23" y="-69" font-family="Helvetica,sans-Serif" font-size="10.00">string</text>
</g>
<!-- Node18&#45;&gt;Node19 -->
<g id="edge21" class="edge"><title>Node18&#45;&gt;Node19</title>
<path fill="none" stroke="midnightblue" d="M534.23,-123.396C534.23,-114.064 534.23,-101.714 534.23,-91.5173"/>
<polygon fill="midnightblue" stroke="midnightblue" points="537.73,-91.1945 534.23,-81.1945 530.73,-91.1946 537.73,-91.1945"/>
</g>
<!-- Node21 -->
<g id="node21" class="node"><title>Node21</title>
<polygon fill="white" stroke="#bfbfbf" points="25.7298,-129 25.7298,-148 90.7298,-148 90.7298,-129 25.7298,-129"/>
<text text-anchor="middle" x="58.2298" y="-136" font-family="Helvetica,sans-Serif" font-size="10.00">Eigen/Core</text>
</g>
<!-- Node20&#45;&gt;Node21 -->
<g id="edge25" class="edge"><title>Node20&#45;&gt;Node21</title>
<path fill="none" stroke="midnightblue" d="M67.626,-190.396C65.8846,-180.963 63.5741,-168.448 61.6801,-158.189"/>
<polygon fill="midnightblue" stroke="midnightblue" points="65.0924,-157.393 59.835,-148.195 58.2087,-158.664 65.0924,-157.393"/>
</g>
<!-- Node20&#45;&gt;Node22 -->
<g id="edge26" class="edge"><title>Node20&#45;&gt;Node22</title>
<path fill="none" stroke="midnightblue" d="M88.0226,-190.396C101.315,-179.86 119.459,-165.477 133.069,-154.689"/>
<polygon fill="midnightblue" stroke="midnightblue" points="135.599,-157.149 141.261,-148.195 131.251,-151.664 135.599,-157.149"/>
</g>
<!-- Node23&#45;&gt;Node2 -->
<g id="edge31" class="edge"><title>Node23&#45;&gt;Node2</title>
<path fill="none" stroke="midnightblue" d="M780.684,-257.421C757.034,-247.778 725.431,-234.36 698.23,-221 697.418,-220.601 696.596,-220.189 695.768,-219.768"/>
<polygon fill="midnightblue" stroke="midnightblue" points="697.407,-216.675 686.937,-215.052 694.11,-222.85 697.407,-216.675"/>
</g>
<!-- Node23&#45;&gt;Node3 -->
<g id="edge32" class="edge"><title>Node23&#45;&gt;Node3</title>
<path fill="none" stroke="midnightblue" d="M798.22,-257.396C784.638,-246.759 766.05,-232.203 752.232,-221.381"/>
<polygon fill="midnightblue" stroke="midnightblue" points="754.363,-218.605 744.332,-215.195 750.047,-224.116 754.363,-218.605"/>
</g>
<!-- Node23&#45;&gt;Node4 -->
<g id="edge33" class="edge"><title>Node23&#45;&gt;Node4</title>
<path fill="none" stroke="midnightblue" d="M812.016,-257.216C805.645,-238.375 791.638,-205.765 767.23,-190 652.57,-115.942 590.646,-200.267 462.23,-154 419.85,-138.731 377.237,-106.907 354.04,-87.858"/>
<polygon fill="midnightblue" stroke="midnightblue" points="356.056,-84.9805 346.142,-81.2438 351.562,-90.3474 356.056,-84.9805"/>
</g>
<!-- Node23&#45;&gt;Node5 -->
<g id="edge34" class="edge"><title>Node23&#45;&gt;Node5</title>
<path fill="none" stroke="midnightblue" d="M829.032,-257.396C838.322,-247.161 850.907,-233.296 860.596,-222.622"/>
<polygon fill="midnightblue" stroke="midnightblue" points="863.208,-224.951 867.338,-215.195 858.025,-220.247 863.208,-224.951"/>
</g>
<!-- Node23&#45;&gt;Node6 -->
<g id="edge35" class="edge"><title>Node23&#45;&gt;Node6</title>
<path fill="none" stroke="midnightblue" d="M846.174,-257.396C870.173,-246.092 903.572,-230.361 926.863,-219.39"/>
<polygon fill="midnightblue" stroke="midnightblue" points="928.614,-222.435 936.169,-215.007 925.631,-216.102 928.614,-222.435"/>
</g>
<!-- Node23&#45;&gt;Node7 -->
<g id="edge36" class="edge"><title>Node23&#45;&gt;Node7</title>
<path fill="none" stroke="midnightblue" d="M761.453,-265.732C691.753,-257.921 567.846,-242.448 463.23,-221 458.431,-220.016 453.425,-218.857 448.481,-217.629"/>
<polygon fill="midnightblue" stroke="midnightblue" points="449.062,-214.164 438.504,-215.048 447.309,-220.941 449.062,-214.164"/>
</g>
<!-- Node23&#45;&gt;Node8 -->
<g id="edge37" class="edge"><title>Node23&#45;&gt;Node8</title>
<path fill="none" stroke="midnightblue" d="M870.817,-258.111C919.836,-246.087 990.922,-228.651 1036.61,-217.444"/>
<polygon fill="midnightblue" stroke="midnightblue" points="1037.65,-220.794 1046.52,-215.013 1035.98,-213.996 1037.65,-220.794"/>
</g>
<!-- Node23&#45;&gt;Node9 -->
<g id="edge38" class="edge"><title>Node23&#45;&gt;Node9</title>
<path fill="none" stroke="midnightblue" d="M870.838,-264.098C938.766,-254.748 1058.24,-237.84 1160.23,-221 1167.97,-219.722 1176.12,-218.306 1184.13,-216.874"/>
<polygon fill="midnightblue" stroke="midnightblue" points="1184.94,-220.284 1194.16,-215.06 1183.7,-213.395 1184.94,-220.284"/>
</g>
<!-- Node23&#45;&gt;Node10 -->
<g id="edge39" class="edge"><title>Node23&#45;&gt;Node10</title>
<path fill="none" stroke="midnightblue" d="M871.096,-268.073C963.693,-261.822 1156.69,-246.78 1318.23,-221 1325,-219.919 1332.12,-218.576 1339.08,-217.147"/>
<polygon fill="midnightblue" stroke="midnightblue" points="1340.04,-220.52 1349.09,-215.011 1338.58,-213.674 1340.04,-220.52"/>
</g>
<!-- Node23&#45;&gt;Node11 -->
<g id="edge40" class="edge"><title>Node23&#45;&gt;Node11</title>
<path fill="none" stroke="midnightblue" d="M870.819,-269.849C980.958,-265.924 1237.42,-253.783 1450.23,-221 1456.71,-220.002 1463.51,-218.705 1470.15,-217.296"/>
<polygon fill="midnightblue" stroke="midnightblue" points="1471.38,-220.608 1480.38,-215.019 1469.86,-213.775 1471.38,-220.608"/>
</g>
<!-- Node23&#45;&gt;Node14 -->
<g id="edge42" class="edge"><title>Node23&#45;&gt;Node14</title>
<path fill="none" stroke="midnightblue" d="M761.717,-258.89C717.221,-248.598 654.029,-233.98 605.695,-222.8"/>
<polygon fill="midnightblue" stroke="midnightblue" points="606.46,-219.384 595.928,-220.541 604.882,-226.204 606.46,-219.384"/>
</g>
<!-- Node23&#45;&gt;Node16 -->
<g id="edge41" class="edge"><title>Node23&#45;&gt;Node16</title>
<path fill="none" stroke="midnightblue" d="M816.613,-257.453C816.447,-240.301 814.067,-210.987 801.23,-190 773.798,-145.152 722.482,-111.125 686.886,-91.5111"/>
<polygon fill="midnightblue" stroke="midnightblue" points="688.213,-88.2512 677.748,-86.6007 684.9,-94.4173 688.213,-88.2512"/>
</g>
</g>
</svg>
