<?xml version="1.0" encoding="UTF-8" standalone="no"?>
<!DOCTYPE svg PUBLIC "-//W3C//DTD SVG 1.1//EN"
 "http://www.w3.org/Graphics/SVG/1.1/DTD/svg11.dtd">
<!-- Generated by graphviz version 2.38.0 (20140413.2041)
 -->
<!-- Title: signal&#45;ptr.h Pages: 1 -->
<svg width="274pt" height="84pt"
 viewBox="0.00 0.00 274.00 84.00" xmlns="http://www.w3.org/2000/svg" xmlns:xlink="http://www.w3.org/1999/xlink">
<g id="graph0" class="graph" transform="scale(1 1) rotate(0) translate(4 80)">
<title>signal&#45;ptr.h</title>
<polygon fill="white" stroke="none" points="-4,4 -4,-80 270,-80 270,4 -4,4"/>
<!-- Node1 -->
<g id="node1" class="node"><title>Node1</title>
<polygon fill="#bfbfbf" stroke="black" points="94.5,-56.5 94.5,-75.5 159.5,-75.5 159.5,-56.5 94.5,-56.5"/>
<text text-anchor="middle" x="127" y="-63.5" font-family="Helvetica,sans-Serif" font-size="10.00">signal&#45;ptr.h</text>
</g>
<!-- Node2 -->
<g id="node2" class="node"><title>Node2</title>
<g id="a_node2"><a xlink:href="a00055.html" target="_top" xlink:title="all&#45;signals.h">
<polygon fill="white" stroke="black" points="0,-0.5 0,-19.5 68,-19.5 68,-0.5 0,-0.5"/>
<text text-anchor="middle" x="34" y="-7.5" font-family="Helvetica,sans-Serif" font-size="10.00">all&#45;signals.h</text>
</a>
</g>
</g>
<!-- Node1&#45;&gt;Node2 -->
<g id="edge1" class="edge"><title>Node1&#45;&gt;Node2</title>
<path fill="none" stroke="midnightblue" d="M103.194,-51.1774C86.0811,-41.2407 63.5347,-28.1492 48.905,-19.6545"/>
<polygon fill="midnightblue" stroke="midnightblue" points="101.653,-54.3293 112.058,-56.324 105.168,-48.2758 101.653,-54.3293"/>
</g>
<!-- Node3 -->
<g id="node3" class="node"><title>Node3</title>
<g id="a_node3"><a xlink:href="a00088.html" target="_top" xlink:title="signal&#45;ptr.t.cpp">
<polygon fill="white" stroke="black" points="86.5,-0.5 86.5,-19.5 167.5,-19.5 167.5,-0.5 86.5,-0.5"/>
<text text-anchor="middle" x="127" y="-7.5" font-family="Helvetica,sans-Serif" font-size="10.00">signal&#45;ptr.t.cpp</text>
</a>
</g>
</g>
<!-- Node1&#45;&gt;Node3 -->
<g id="edge2" class="edge"><title>Node1&#45;&gt;Node3</title>
<path fill="none" stroke="midnightblue" d="M120.528,-46.1005C119.896,-37.1357 120.343,-26.8579 121.869,-19.7511"/>
<polygon fill="midnightblue" stroke="midnightblue" points="117.066,-46.6216 121.834,-56.083 124.007,-45.7134 117.066,-46.6216"/>
</g>
<!-- Node4 -->
<g id="node4" class="node"><title>Node4</title>
<g id="a_node4"><a xlink:href="a00086.html" target="_top" xlink:title="signal&#45;helper.h">
<polygon fill="white" stroke="black" points="186,-0.5 186,-19.5 266,-19.5 266,-0.5 186,-0.5"/>
<text text-anchor="middle" x="226" y="-7.5" font-family="Helvetica,sans-Serif" font-size="10.00">signal&#45;helper.h</text>
</a>
</g>
</g>
<!-- Node1&#45;&gt;Node4 -->
<g id="edge4" class="edge"><title>Node1&#45;&gt;Node4</title>
<path fill="none" stroke="midnightblue" d="M151.837,-51.4526C170.114,-41.4835 194.416,-28.2279 210.133,-19.6545"/>
<polygon fill="midnightblue" stroke="midnightblue" points="150.009,-48.4628 142.906,-56.324 153.361,-54.608 150.009,-48.4628"/>
</g>
<!-- Node3&#45;&gt;Node1 -->
<g id="edge3" class="edge"><title>Node3&#45;&gt;Node1</title>
<path fill="none" stroke="midnightblue" d="M133.458,-29.6911C134.106,-38.6353 133.676,-48.9272 132.166,-56.083"/>
<polygon fill="midnightblue" stroke="midnightblue" points="136.923,-29.2002 132.131,-19.7511 129.985,-30.1262 136.923,-29.2002"/>
</g>
</g>
</svg>
