<?xml version="1.0" encoding="UTF-8" standalone="no"?>
<!DOCTYPE svg PUBLIC "-//W3C//DTD SVG 1.1//EN"
 "http://www.w3.org/Graphics/SVG/1.1/DTD/svg11.dtd">
<!-- Generated by graphviz version 2.38.0 (20140413.2041)
 -->
<!-- Title: entity.h Pages: 1 -->
<svg width="957pt" height="419pt"
 viewBox="0.00 0.00 956.50 419.00" xmlns="http://www.w3.org/2000/svg" xmlns:xlink="http://www.w3.org/1999/xlink">
<g id="graph0" class="graph" transform="scale(1 1) rotate(0) translate(4 415)">
<title>entity.h</title>
<polygon fill="white" stroke="none" points="-4,4 -4,-415 952.5,-415 952.5,4 -4,4"/>
<!-- Node1 -->
<g id="node1" class="node"><title>Node1</title>
<polygon fill="#bfbfbf" stroke="black" points="240,-391.5 240,-410.5 289,-410.5 289,-391.5 240,-391.5"/>
<text text-anchor="middle" x="264.5" y="-398.5" font-family="Helvetica,sans-Serif" font-size="10.00">entity.h</text>
</g>
<!-- Node2 -->
<g id="node2" class="node"><title>Node2</title>
<polygon fill="white" stroke="#bfbfbf" points="0,-330 0,-349 45,-349 45,-330 0,-330"/>
<text text-anchor="middle" x="22.5" y="-337" font-family="Helvetica,sans-Serif" font-size="10.00">iosfwd</text>
</g>
<!-- Node1&#45;&gt;Node2 -->
<g id="edge1" class="edge"><title>Node1&#45;&gt;Node2</title>
<path fill="none" stroke="midnightblue" d="M239.971,-396.624C200.129,-390.73 119.192,-377.048 53.5,-355 51.8348,-354.441 50.1408,-353.818 48.4469,-353.153"/>
<polygon fill="midnightblue" stroke="midnightblue" points="49.514,-349.801 38.9465,-349.039 46.7326,-356.225 49.514,-349.801"/>
</g>
<!-- Node3 -->
<g id="node3" class="node"><title>Node3</title>
<polygon fill="white" stroke="#bfbfbf" points="63,-330 63,-349 98,-349 98,-330 63,-330"/>
<text text-anchor="middle" x="80.5" y="-337" font-family="Helvetica,sans-Serif" font-size="10.00">map</text>
</g>
<!-- Node1&#45;&gt;Node3 -->
<g id="edge2" class="edge"><title>Node1&#45;&gt;Node3</title>
<path fill="none" stroke="midnightblue" d="M239.942,-393.845C209.605,-385.989 156.6,-371.43 112.5,-355 110.889,-354.4 109.245,-353.756 107.594,-353.085"/>
<polygon fill="midnightblue" stroke="midnightblue" points="108.828,-349.806 98.2583,-349.07 106.062,-356.236 108.828,-349.806"/>
</g>
<!-- Node4 -->
<g id="node4" class="node"><title>Node4</title>
<polygon fill="white" stroke="#bfbfbf" points="192.5,-196 192.5,-215 244.5,-215 244.5,-196 192.5,-196"/>
<text text-anchor="middle" x="218.5" y="-203" font-family="Helvetica,sans-Serif" font-size="10.00">sstream</text>
</g>
<!-- Node1&#45;&gt;Node4 -->
<g id="edge3" class="edge"><title>Node1&#45;&gt;Node4</title>
<path fill="none" stroke="midnightblue" d="M262.464,-391.436C255.52,-362.225 232.658,-266.058 222.937,-225.166"/>
<polygon fill="midnightblue" stroke="midnightblue" points="226.335,-224.326 220.617,-215.407 219.525,-225.945 226.335,-224.326"/>
</g>
<!-- Node5 -->
<g id="node5" class="node"><title>Node5</title>
<polygon fill="white" stroke="#bfbfbf" points="314,-62 314,-81 355,-81 355,-62 314,-62"/>
<text text-anchor="middle" x="334.5" y="-69" font-family="Helvetica,sans-Serif" font-size="10.00">string</text>
</g>
<!-- Node1&#45;&gt;Node5 -->
<g id="edge4" class="edge"><title>Node1&#45;&gt;Node5</title>
<path fill="none" stroke="midnightblue" d="M239.561,-396.633C213.72,-391.842 173.902,-380.598 150.5,-355 125.022,-327.131 126.5,-311.26 126.5,-273.5 126.5,-273.5 126.5,-273.5 126.5,-204.5 126.5,-166.74 123.553,-149.452 150.5,-123 192.056,-82.2068 263.303,-73.6252 303.869,-72.2522"/>
<polygon fill="midnightblue" stroke="midnightblue" points="304.042,-75.7494 313.966,-72.039 303.894,-68.751 304.042,-75.7494"/>
</g>
<!-- Node6 -->
<g id="node6" class="node"><title>Node6</title>
<polygon fill="white" stroke="#bfbfbf" points="734,-196 734,-215 851,-215 851,-196 734,-196"/>
<text text-anchor="middle" x="792.5" y="-203" font-family="Helvetica,sans-Serif" font-size="10.00">boost/noncopyable.hpp</text>
</g>
<!-- Node1&#45;&gt;Node6 -->
<g id="edge5" class="edge"><title>Node1&#45;&gt;Node6</title>
<path fill="none" stroke="midnightblue" d="M289.393,-391.763C315.989,-382.905 359.342,-368.297 396.5,-355 532.615,-306.29 693.602,-244.664 760.685,-218.804"/>
<polygon fill="midnightblue" stroke="midnightblue" points="762.188,-221.975 770.258,-215.11 759.669,-215.444 762.188,-221.975"/>
</g>
<!-- Node7 -->
<g id="node7" class="node"><title>Node7</title>
<g id="a_node7"><a xlink:href="a00077.html" target="_top" xlink:title="dynamic&#45;graph/fwd.hh">
<polygon fill="white" stroke="black" points="391,-62 391,-81 504,-81 504,-62 391,-62"/>
<text text-anchor="middle" x="447.5" y="-69" font-family="Helvetica,sans-Serif" font-size="10.00">dynamic&#45;graph/fwd.hh</text>
</a>
</g>
</g>
<!-- Node1&#45;&gt;Node7 -->
<g id="edge6" class="edge"><title>Node1&#45;&gt;Node7</title>
<path fill="none" stroke="midnightblue" d="M250.595,-391.453C223.118,-373.373 164.5,-328.371 164.5,-273.5 164.5,-273.5 164.5,-273.5 164.5,-204.5 164.5,-152.64 322.558,-104.57 402.429,-83.5901"/>
<polygon fill="midnightblue" stroke="midnightblue" points="403.429,-86.9467 412.23,-81.0486 401.672,-80.1709 403.429,-86.9467"/>
</g>
<!-- Node8 -->
<g id="node8" class="node"><title>Node8</title>
<g id="a_node8"><a xlink:href="a00068.html" target="_top" xlink:title="dynamic&#45;graph/dynamic\l&#45;graph&#45;api.h">
<polygon fill="white" stroke="black" points="683.5,-56.5 683.5,-86.5 803.5,-86.5 803.5,-56.5 683.5,-56.5"/>
<text text-anchor="start" x="691.5" y="-74.5" font-family="Helvetica,sans-Serif" font-size="10.00">dynamic&#45;graph/dynamic</text>
<text text-anchor="middle" x="743.5" y="-63.5" font-family="Helvetica,sans-Serif" font-size="10.00">&#45;graph&#45;api.h</text>
</a>
</g>
</g>
<!-- Node1&#45;&gt;Node8 -->
<g id="edge7" class="edge"><title>Node1&#45;&gt;Node8</title>
<path fill="none" stroke="midnightblue" d="M289.103,-399.446C382.541,-397.12 715.185,-386.738 815.5,-355 881.597,-334.088 948.5,-342.827 948.5,-273.5 948.5,-273.5 948.5,-273.5 948.5,-204.5 948.5,-138.639 872.777,-104.076 813.375,-87.0951"/>
<polygon fill="midnightblue" stroke="midnightblue" points="814.191,-83.6899 803.622,-84.4202 812.34,-90.4406 814.191,-83.6899"/>
</g>
<!-- Node10 -->
<g id="node10" class="node"><title>Node10</title>
<g id="a_node10"><a xlink:href="a00073.html" target="_top" xlink:title="dynamic&#45;graph/exception\l&#45;factory.h">
<polygon fill="white" stroke="black" points="301,-190.5 301,-220.5 426,-220.5 426,-190.5 301,-190.5"/>
<text text-anchor="start" x="309" y="-208.5" font-family="Helvetica,sans-Serif" font-size="10.00">dynamic&#45;graph/exception</text>
<text text-anchor="middle" x="363.5" y="-197.5" font-family="Helvetica,sans-Serif" font-size="10.00">&#45;factory.h</text>
</a>
</g>
</g>
<!-- Node1&#45;&gt;Node10 -->
<g id="edge9" class="edge"><title>Node1&#45;&gt;Node10</title>
<path fill="none" stroke="midnightblue" d="M268.882,-391.436C283.289,-363.276 329.532,-272.893 351.584,-229.79"/>
<polygon fill="midnightblue" stroke="midnightblue" points="354.832,-231.127 356.271,-220.63 348.6,-227.938 354.832,-231.127"/>
</g>
<!-- Node13 -->
<g id="node13" class="node"><title>Node13</title>
<g id="a_node13"><a xlink:href="a00083.html" target="_top" xlink:title="dynamic&#45;graph/signal\l&#45;array.h">
<polygon fill="white" stroke="black" points="697,-324.5 697,-354.5 806,-354.5 806,-324.5 697,-324.5"/>
<text text-anchor="start" x="705" y="-342.5" font-family="Helvetica,sans-Serif" font-size="10.00">dynamic&#45;graph/signal</text>
<text text-anchor="middle" x="751.5" y="-331.5" font-family="Helvetica,sans-Serif" font-size="10.00">&#45;array.h</text>
</a>
</g>
</g>
<!-- Node1&#45;&gt;Node13 -->
<g id="edge18" class="edge"><title>Node1&#45;&gt;Node13</title>
<path fill="none" stroke="midnightblue" d="M289.044,-397.574C351.167,-391.352 519.636,-373.98 659.5,-355 668.231,-353.815 677.414,-352.478 686.46,-351.106"/>
<polygon fill="midnightblue" stroke="midnightblue" points="687.232,-354.529 696.584,-349.55 686.168,-347.61 687.232,-354.529"/>
</g>
<!-- Node14 -->
<g id="node14" class="node"><title>Node14</title>
<g id="a_node14"><a xlink:href="a00084.html" target="_top" xlink:title="dynamic&#45;graph/signal\l&#45;base.h">
<polygon fill="white" stroke="black" points="454,-257.5 454,-287.5 563,-287.5 563,-257.5 454,-257.5"/>
<text text-anchor="start" x="462" y="-275.5" font-family="Helvetica,sans-Serif" font-size="10.00">dynamic&#45;graph/signal</text>
<text text-anchor="middle" x="508.5" y="-264.5" font-family="Helvetica,sans-Serif" font-size="10.00">&#45;base.h</text>
</a>
</g>
</g>
<!-- Node1&#45;&gt;Node14 -->
<g id="edge33" class="edge"><title>Node1&#45;&gt;Node14</title>
<path fill="none" stroke="midnightblue" d="M281.271,-391.305C320.376,-371.032 418.342,-320.242 471.984,-292.431"/>
<polygon fill="midnightblue" stroke="midnightblue" points="473.878,-295.392 481.145,-287.682 470.656,-289.178 473.878,-295.392"/>
</g>
<!-- Node9 -->
<g id="node9" class="node"><title>Node9</title>
<polygon fill="white" stroke="#bfbfbf" points="682,-0.5 682,-19.5 805,-19.5 805,-0.5 682,-0.5"/>
<text text-anchor="middle" x="743.5" y="-7.5" font-family="Helvetica,sans-Serif" font-size="10.00">dynamic&#45;graph/config.hh</text>
</g>
<!-- Node8&#45;&gt;Node9 -->
<g id="edge8" class="edge"><title>Node8&#45;&gt;Node9</title>
<path fill="none" stroke="midnightblue" d="M743.5,-56.3993C743.5,-48.4664 743.5,-38.458 743.5,-29.8583"/>
<polygon fill="midnightblue" stroke="midnightblue" points="747,-29.6577 743.5,-19.6578 740,-29.6578 747,-29.6577"/>
</g>
<!-- Node10&#45;&gt;Node5 -->
<g id="edge10" class="edge"><title>Node10&#45;&gt;Node5</title>
<path fill="none" stroke="midnightblue" d="M360.396,-190.374C355.129,-166.397 344.441,-117.748 338.577,-91.0561"/>
<polygon fill="midnightblue" stroke="midnightblue" points="341.953,-90.1133 336.389,-81.0973 335.116,-91.6154 341.953,-90.1133"/>
</g>
<!-- Node10&#45;&gt;Node7 -->
<g id="edge11" class="edge"><title>Node10&#45;&gt;Node7</title>
<path fill="none" stroke="midnightblue" d="M372.489,-190.374C388.02,-165.969 419.817,-116.002 436.588,-89.6475"/>
<polygon fill="midnightblue" stroke="midnightblue" points="439.613,-91.413 442.029,-81.0973 433.707,-87.6548 439.613,-91.413"/>
</g>
<!-- Node10&#45;&gt;Node8 -->
<g id="edge12" class="edge"><title>Node10&#45;&gt;Node8</title>
<path fill="none" stroke="midnightblue" d="M426.141,-195.341C503.961,-183.663 628.932,-163.811 648.5,-154 666.489,-144.981 666.356,-136.251 681.5,-123 693.072,-112.874 706.238,-102.056 717.451,-93.0414"/>
<polygon fill="midnightblue" stroke="midnightblue" points="719.959,-95.5172 725.586,-86.5403 715.589,-90.0487 719.959,-95.5172"/>
</g>
<!-- Node11 -->
<g id="node11" class="node"><title>Node11</title>
<g id="a_node11"><a xlink:href="a00072.html" target="_top" xlink:title="dynamic&#45;graph/exception\l&#45;abstract.h">
<polygon fill="white" stroke="black" points="514,-123.5 514,-153.5 639,-153.5 639,-123.5 514,-123.5"/>
<text text-anchor="start" x="522" y="-141.5" font-family="Helvetica,sans-Serif" font-size="10.00">dynamic&#45;graph/exception</text>
<text text-anchor="middle" x="576.5" y="-130.5" font-family="Helvetica,sans-Serif" font-size="10.00">&#45;abstract.h</text>
</a>
</g>
</g>
<!-- Node10&#45;&gt;Node11 -->
<g id="edge13" class="edge"><title>Node10&#45;&gt;Node11</title>
<path fill="none" stroke="midnightblue" d="M409.456,-190.476C441.958,-180.557 485.726,-167.201 520.307,-156.648"/>
<polygon fill="midnightblue" stroke="midnightblue" points="521.717,-159.877 530.26,-153.611 519.673,-153.182 521.717,-159.877"/>
</g>
<!-- Node11&#45;&gt;Node5 -->
<g id="edge15" class="edge"><title>Node11&#45;&gt;Node5</title>
<path fill="none" stroke="midnightblue" d="M520.315,-123.487C481.498,-113.656 428.736,-99.9962 382.5,-87 376.702,-85.3702 370.532,-83.5623 364.614,-81.7915"/>
<polygon fill="midnightblue" stroke="midnightblue" points="365.589,-78.4299 355.004,-78.8845 363.562,-85.13 365.589,-78.4299"/>
</g>
<!-- Node11&#45;&gt;Node7 -->
<g id="edge16" class="edge"><title>Node11&#45;&gt;Node7</title>
<path fill="none" stroke="midnightblue" d="M548.509,-123.396C526.175,-112.142 495.133,-96.501 473.374,-85.5375"/>
<polygon fill="midnightblue" stroke="midnightblue" points="474.888,-82.3812 464.383,-81.007 471.739,-88.6325 474.888,-82.3812"/>
</g>
<!-- Node11&#45;&gt;Node8 -->
<g id="edge17" class="edge"><title>Node11&#45;&gt;Node8</title>
<path fill="none" stroke="midnightblue" d="M612.737,-123.396C637.684,-113.686 671.025,-100.709 697.796,-90.2889"/>
<polygon fill="midnightblue" stroke="midnightblue" points="699.285,-93.4654 707.334,-86.5765 696.746,-86.9421 699.285,-93.4654"/>
</g>
<!-- Node12 -->
<g id="node12" class="node"><title>Node12</title>
<polygon fill="white" stroke="#bfbfbf" points="580.5,-62 580.5,-81 634.5,-81 634.5,-62 580.5,-62"/>
<text text-anchor="middle" x="607.5" y="-69" font-family="Helvetica,sans-Serif" font-size="10.00">iostream</text>
</g>
<!-- Node11&#45;&gt;Node12 -->
<g id="edge14" class="edge"><title>Node11&#45;&gt;Node12</title>
<path fill="none" stroke="midnightblue" d="M583.227,-123.396C587.821,-113.763 593.948,-100.914 598.898,-90.5373"/>
<polygon fill="midnightblue" stroke="midnightblue" points="602.208,-91.7273 603.353,-81.1945 595.889,-88.7139 602.208,-91.7273"/>
</g>
<!-- Node13&#45;&gt;Node8 -->
<g id="edge30" class="edge"><title>Node13&#45;&gt;Node8</title>
<path fill="none" stroke="midnightblue" d="M775.344,-324.396C813.907,-299.61 883.449,-245.572 860.5,-190 843.173,-148.042 802.8,-113.193 774.347,-92.6134"/>
<polygon fill="midnightblue" stroke="midnightblue" points="776.129,-89.588 765.937,-86.6929 772.099,-95.3117 776.129,-89.588"/>
</g>
<!-- Node13&#45;&gt;Node14 -->
<g id="edge19" class="edge"><title>Node13&#45;&gt;Node14</title>
<path fill="none" stroke="midnightblue" d="M699.072,-324.476C661.514,-314.43 610.771,-300.856 571.089,-290.242"/>
<polygon fill="midnightblue" stroke="midnightblue" points="571.818,-286.814 561.253,-287.611 570.009,-293.576 571.818,-286.814"/>
</g>
<!-- Node17 -->
<g id="node17" class="node"><title>Node17</title>
<polygon fill="white" stroke="#bfbfbf" points="876.5,-263 876.5,-282 920.5,-282 920.5,-263 876.5,-263"/>
<text text-anchor="middle" x="898.5" y="-270" font-family="Helvetica,sans-Serif" font-size="10.00">vector</text>
</g>
<!-- Node13&#45;&gt;Node17 -->
<g id="edge31" class="edge"><title>Node13&#45;&gt;Node17</title>
<path fill="none" stroke="midnightblue" d="M783.397,-324.396C809.19,-312.991 845.174,-297.079 870.01,-286.098"/>
<polygon fill="midnightblue" stroke="midnightblue" points="871.531,-289.252 879.261,-282.007 868.7,-282.85 871.531,-289.252"/>
</g>
<!-- Node18 -->
<g id="node18" class="node"><title>Node18</title>
<polygon fill="white" stroke="#bfbfbf" points="728.5,-263 728.5,-282 774.5,-282 774.5,-263 728.5,-263"/>
<text text-anchor="middle" x="751.5" y="-270" font-family="Helvetica,sans-Serif" font-size="10.00">stdio.h</text>
</g>
<!-- Node13&#45;&gt;Node18 -->
<g id="edge32" class="edge"><title>Node13&#45;&gt;Node18</title>
<path fill="none" stroke="midnightblue" d="M751.5,-324.396C751.5,-315.064 751.5,-302.714 751.5,-292.517"/>
<polygon fill="midnightblue" stroke="midnightblue" points="755,-292.195 751.5,-282.195 748,-292.195 755,-292.195"/>
</g>
<!-- Node14&#45;&gt;Node4 -->
<g id="edge21" class="edge"><title>Node14&#45;&gt;Node4</title>
<path fill="none" stroke="midnightblue" d="M453.815,-262.862C402.792,-254.237 324.794,-239.601 258.5,-221 255.7,-220.214 252.814,-219.327 249.937,-218.389"/>
<polygon fill="midnightblue" stroke="midnightblue" points="250.911,-215.022 240.316,-215.071 248.629,-221.64 250.911,-215.022"/>
</g>
<!-- Node14&#45;&gt;Node5 -->
<g id="edge20" class="edge"><title>Node14&#45;&gt;Node5</title>
<path fill="none" stroke="midnightblue" d="M453.768,-266.36C396.522,-259.717 312.274,-245.93 292.5,-221 260.965,-181.241 299.084,-119.025 321.051,-89.3471"/>
<polygon fill="midnightblue" stroke="midnightblue" points="323.955,-91.3103 327.254,-81.2421 318.397,-87.0558 323.955,-91.3103"/>
</g>
<!-- Node14&#45;&gt;Node6 -->
<g id="edge24" class="edge"><title>Node14&#45;&gt;Node6</title>
<path fill="none" stroke="midnightblue" d="M563.258,-258.967C616.037,-246.888 695.069,-228.799 745.188,-217.329"/>
<polygon fill="midnightblue" stroke="midnightblue" points="746.149,-220.699 755.116,-215.056 744.588,-213.875 746.149,-220.699"/>
</g>
<!-- Node14&#45;&gt;Node7 -->
<g id="edge25" class="edge"><title>Node14&#45;&gt;Node7</title>
<path fill="none" stroke="midnightblue" d="M496.661,-257.391C489.172,-247.736 479.914,-234.315 474.5,-221 456.542,-176.838 450.472,-120.444 448.463,-91.5086"/>
<polygon fill="midnightblue" stroke="midnightblue" points="451.938,-90.9877 447.843,-81.2162 444.951,-91.4085 451.938,-90.9877"/>
</g>
<!-- Node14&#45;&gt;Node12 -->
<g id="edge22" class="edge"><title>Node14&#45;&gt;Node12</title>
<path fill="none" stroke="midnightblue" d="M563.2,-263.315C609.803,-255.092 671.538,-240.797 686.5,-221 720.119,-176.517 659.641,-115.78 626.729,-87.7804"/>
<polygon fill="midnightblue" stroke="midnightblue" points="628.588,-84.7752 618.653,-81.0935 624.123,-90.1669 628.588,-84.7752"/>
</g>
<!-- Node15 -->
<g id="node15" class="node"><title>Node15</title>
<polygon fill="white" stroke="#bfbfbf" points="483,-196 483,-215 534,-215 534,-196 483,-196"/>
<text text-anchor="middle" x="508.5" y="-203" font-family="Helvetica,sans-Serif" font-size="10.00">typeinfo</text>
</g>
<!-- Node14&#45;&gt;Node15 -->
<g id="edge23" class="edge"><title>Node14&#45;&gt;Node15</title>
<path fill="none" stroke="midnightblue" d="M508.5,-257.396C508.5,-248.064 508.5,-235.714 508.5,-225.517"/>
<polygon fill="midnightblue" stroke="midnightblue" points="512,-225.195 508.5,-215.195 505,-225.195 512,-225.195"/>
</g>
<!-- Node16 -->
<g id="node16" class="node"><title>Node16</title>
<g id="a_node16"><a xlink:href="a00074.html" target="_top" xlink:title="dynamic&#45;graph/exception\l&#45;signal.h">
<polygon fill="white" stroke="black" points="552,-190.5 552,-220.5 677,-220.5 677,-190.5 552,-190.5"/>
<text text-anchor="start" x="560" y="-208.5" font-family="Helvetica,sans-Serif" font-size="10.00">dynamic&#45;graph/exception</text>
<text text-anchor="middle" x="614.5" y="-197.5" font-family="Helvetica,sans-Serif" font-size="10.00">&#45;signal.h</text>
</a>
</g>
</g>
<!-- Node14&#45;&gt;Node16 -->
<g id="edge26" class="edge"><title>Node14&#45;&gt;Node16</title>
<path fill="none" stroke="midnightblue" d="M531.5,-257.396C546.502,-248.197 566.285,-236.066 582.774,-225.955"/>
<polygon fill="midnightblue" stroke="midnightblue" points="584.849,-228.788 591.544,-220.577 581.19,-222.82 584.849,-228.788"/>
</g>
<!-- Node16&#45;&gt;Node7 -->
<g id="edge27" class="edge"><title>Node16&#45;&gt;Node7</title>
<path fill="none" stroke="midnightblue" d="M571.198,-190.424C549.906,-182.086 524.753,-169.99 505.5,-154 483.857,-136.025 466.38,-108.163 456.463,-90.1251"/>
<polygon fill="midnightblue" stroke="midnightblue" points="459.529,-88.4361 451.753,-81.24 453.344,-91.7146 459.529,-88.4361"/>
</g>
<!-- Node16&#45;&gt;Node8 -->
<g id="edge28" class="edge"><title>Node16&#45;&gt;Node8</title>
<path fill="none" stroke="midnightblue" d="M636.222,-190.407C649.959,-180.962 667.668,-167.771 681.5,-154 699.739,-135.842 717.176,-112.158 728.886,-95.0049"/>
<polygon fill="midnightblue" stroke="midnightblue" points="731.797,-96.9483 734.462,-86.6939 725.984,-93.0486 731.797,-96.9483"/>
</g>
<!-- Node16&#45;&gt;Node11 -->
<g id="edge29" class="edge"><title>Node16&#45;&gt;Node11</title>
<path fill="none" stroke="midnightblue" d="M606.255,-190.396C601.474,-182.219 595.339,-171.725 589.884,-162.393"/>
<polygon fill="midnightblue" stroke="midnightblue" points="592.798,-160.443 584.729,-153.577 586.755,-163.976 592.798,-160.443"/>
</g>
</g>
</svg>
