<?xml version="1.0" encoding="UTF-8" standalone="no"?>
<!DOCTYPE svg PUBLIC "-//W3C//DTD SVG 1.1//EN"
 "http://www.w3.org/Graphics/SVG/1.1/DTD/svg11.dtd">
<!-- Generated by graphviz version 2.38.0 (20140413.2041)
 -->
<!-- Title: value.h Pages: 1 -->
<svg width="595pt" height="151pt"
 viewBox="0.00 0.00 594.50 151.00" xmlns="http://www.w3.org/2000/svg" xmlns:xlink="http://www.w3.org/1999/xlink">
<g id="graph0" class="graph" transform="scale(1 1) rotate(0) translate(4 147)">
<title>value.h</title>
<polygon fill="white" stroke="none" points="-4,4 -4,-147 590.5,-147 590.5,4 -4,4"/>
<!-- Node1 -->
<g id="node1" class="node"><title>Node1</title>
<polygon fill="#bfbfbf" stroke="black" points="166,-123.5 166,-142.5 214,-142.5 214,-123.5 166,-123.5"/>
<text text-anchor="middle" x="190" y="-130.5" font-family="Helvetica,sans-Serif" font-size="10.00">value.h</text>
</g>
<!-- Node2 -->
<g id="node2" class="node"><title>Node2</title>
<polygon fill="white" stroke="#bfbfbf" points="0,-62 0,-81 54,-81 54,-62 0,-62"/>
<text text-anchor="middle" x="27" y="-69" font-family="Helvetica,sans-Serif" font-size="10.00">iostream</text>
</g>
<!-- Node1&#45;&gt;Node2 -->
<g id="edge1" class="edge"><title>Node1&#45;&gt;Node2</title>
<path fill="none" stroke="midnightblue" d="M165.765,-123.591C140.337,-114.71 99.2406,-100.195 64,-87 62.1101,-86.2924 60.169,-85.5572 58.2132,-84.8099"/>
<polygon fill="midnightblue" stroke="midnightblue" points="59.0682,-81.388 48.479,-81.0452 56.5432,-87.9168 59.0682,-81.388"/>
</g>
<!-- Node3 -->
<g id="node3" class="node"><title>Node3</title>
<polygon fill="white" stroke="#bfbfbf" points="72.5,-62 72.5,-81 113.5,-81 113.5,-62 72.5,-62"/>
<text text-anchor="middle" x="93" y="-69" font-family="Helvetica,sans-Serif" font-size="10.00">string</text>
</g>
<!-- Node1&#45;&gt;Node3 -->
<g id="edge2" class="edge"><title>Node1&#45;&gt;Node3</title>
<path fill="none" stroke="midnightblue" d="M176.102,-123.475C160.328,-113.799 134.363,-97.8721 115.651,-86.3941"/>
<polygon fill="midnightblue" stroke="midnightblue" points="117.226,-83.2544 106.872,-81.0091 113.566,-89.2213 117.226,-83.2544"/>
</g>
<!-- Node4 -->
<g id="node4" class="node"><title>Node4</title>
<polygon fill="white" stroke="#bfbfbf" points="131.5,-62 131.5,-81 180.5,-81 180.5,-62 131.5,-62"/>
<text text-anchor="middle" x="156" y="-69" font-family="Helvetica,sans-Serif" font-size="10.00">cassert</text>
</g>
<!-- Node1&#45;&gt;Node4 -->
<g id="edge3" class="edge"><title>Node1&#45;&gt;Node4</title>
<path fill="none" stroke="midnightblue" d="M185.129,-123.475C180.13,-114.727 172.211,-100.869 165.891,-89.8093"/>
<polygon fill="midnightblue" stroke="midnightblue" points="168.863,-87.955 160.862,-81.0091 162.785,-91.428 168.863,-87.955"/>
</g>
<!-- Node5 -->
<g id="node5" class="node"><title>Node5</title>
<polygon fill="white" stroke="#bfbfbf" points="198.5,-62 198.5,-81 249.5,-81 249.5,-62 198.5,-62"/>
<text text-anchor="middle" x="224" y="-69" font-family="Helvetica,sans-Serif" font-size="10.00">typeinfo</text>
</g>
<!-- Node1&#45;&gt;Node5 -->
<g id="edge4" class="edge"><title>Node1&#45;&gt;Node5</title>
<path fill="none" stroke="midnightblue" d="M194.871,-123.475C199.87,-114.727 207.789,-100.869 214.109,-89.8093"/>
<polygon fill="midnightblue" stroke="midnightblue" points="217.215,-91.428 219.138,-81.0091 211.137,-87.955 217.215,-91.428"/>
</g>
<!-- Node6 -->
<g id="node6" class="node"><title>Node6</title>
<g id="a_node6"><a xlink:href="a00067.html" target="_top" xlink:title="dynamic&#45;graph/dynamic\l&#45;graph&#45;api.h">
<polygon fill="white" stroke="black" points="267,-56.5 267,-86.5 387,-86.5 387,-56.5 267,-56.5"/>
<text text-anchor="start" x="275" y="-74.5" font-family="Helvetica,sans-Serif" font-size="10.00">dynamic&#45;graph/dynamic</text>
<text text-anchor="middle" x="327" y="-63.5" font-family="Helvetica,sans-Serif" font-size="10.00">&#45;graph&#45;api.h</text>
</a>
</g>
</g>
<!-- Node1&#45;&gt;Node6 -->
<g id="edge5" class="edge"><title>Node1&#45;&gt;Node6</title>
<path fill="none" stroke="midnightblue" d="M209.629,-123.475C229.311,-114.927 260.224,-101.501 285.386,-90.5734"/>
<polygon fill="midnightblue" stroke="midnightblue" points="286.934,-93.7169 294.712,-86.523 284.145,-87.2963 286.934,-93.7169"/>
</g>
<!-- Node8 -->
<g id="node8" class="node"><title>Node8</title>
<g id="a_node8"><a xlink:href="a00077.html" target="_top" xlink:title="dynamic&#45;graph/linear\l&#45;algebra.h">
<polygon fill="white" stroke="black" points="405.5,-56.5 405.5,-86.5 512.5,-86.5 512.5,-56.5 405.5,-56.5"/>
<text text-anchor="start" x="413.5" y="-74.5" font-family="Helvetica,sans-Serif" font-size="10.00">dynamic&#45;graph/linear</text>
<text text-anchor="middle" x="459" y="-63.5" font-family="Helvetica,sans-Serif" font-size="10.00">&#45;algebra.h</text>
</a>
</g>
</g>
<!-- Node1&#45;&gt;Node8 -->
<g id="edge7" class="edge"><title>Node1&#45;&gt;Node8</title>
<path fill="none" stroke="midnightblue" d="M214.122,-126.822C250.881,-118.911 323.377,-103.234 395.258,-87.152"/>
<polygon fill="midnightblue" stroke="midnightblue" points="396.4,-90.4829 405.393,-84.8809 394.87,-83.6523 396.4,-90.4829"/>
</g>
<!-- Node7 -->
<g id="node7" class="node"><title>Node7</title>
<polygon fill="white" stroke="#bfbfbf" points="265.5,-0.5 265.5,-19.5 388.5,-19.5 388.5,-0.5 265.5,-0.5"/>
<text text-anchor="middle" x="327" y="-7.5" font-family="Helvetica,sans-Serif" font-size="10.00">dynamic&#45;graph/config.hh</text>
</g>
<!-- Node6&#45;&gt;Node7 -->
<g id="edge6" class="edge"><title>Node6&#45;&gt;Node7</title>
<path fill="none" stroke="midnightblue" d="M327,-56.3993C327,-48.4664 327,-38.458 327,-29.8583"/>
<polygon fill="midnightblue" stroke="midnightblue" points="330.5,-29.6577 327,-19.6578 323.5,-29.6578 330.5,-29.6577"/>
</g>
<!-- Node9 -->
<g id="node9" class="node"><title>Node9</title>
<polygon fill="white" stroke="#bfbfbf" points="416.5,-0.5 416.5,-19.5 481.5,-19.5 481.5,-0.5 416.5,-0.5"/>
<text text-anchor="middle" x="449" y="-7.5" font-family="Helvetica,sans-Serif" font-size="10.00">Eigen/Core</text>
</g>
<!-- Node8&#45;&gt;Node9 -->
<g id="edge8" class="edge"><title>Node8&#45;&gt;Node9</title>
<path fill="none" stroke="midnightblue" d="M456.63,-56.3993C455.282,-48.3772 453.577,-38.2328 452.121,-29.569"/>
<polygon fill="midnightblue" stroke="midnightblue" points="455.564,-28.9393 450.455,-19.6578 448.661,-30.0996 455.564,-28.9393"/>
</g>
<!-- Node10 -->
<g id="node10" class="node"><title>Node10</title>
<polygon fill="white" stroke="#bfbfbf" points="499.5,-0.5 499.5,-19.5 586.5,-19.5 586.5,-0.5 499.5,-0.5"/>
<text text-anchor="middle" x="543" y="-7.5" font-family="Helvetica,sans-Serif" font-size="10.00">Eigen/Geometry</text>
</g>
<!-- Node8&#45;&gt;Node10 -->
<g id="edge9" class="edge"><title>Node8&#45;&gt;Node10</title>
<path fill="none" stroke="midnightblue" d="M478.907,-56.3993C491.994,-47.1293 509.082,-35.0254 522.322,-25.6469"/>
<polygon fill="midnightblue" stroke="midnightblue" points="524.64,-28.2941 530.777,-19.6578 520.594,-22.5819 524.64,-28.2941"/>
</g>
</g>
</svg>
