<?xml version="1.0" encoding="UTF-8" standalone="no"?>
<!DOCTYPE svg PUBLIC "-//W3C//DTD SVG 1.1//EN"
 "http://www.w3.org/Graphics/SVG/1.1/DTD/svg11.dtd">
<!-- Generated by graphviz version 2.38.0 (20140413.2041)
 -->
<!-- Title: signal&#45;ptr.h Pages: 1 -->
<svg width="1889pt" height="475pt"
 viewBox="0.00 0.00 1889.22 475.00" xmlns="http://www.w3.org/2000/svg" xmlns:xlink="http://www.w3.org/1999/xlink">
<g id="graph0" class="graph" transform="scale(1 1) rotate(0) translate(4 471)">
<title>signal&#45;ptr.h</title>
<polygon fill="white" stroke="none" points="-4,4 -4,-471 1885.22,-471 1885.22,4 -4,4"/>
<!-- Node1 -->
<g id="node1" class="node"><title>Node1</title>
<polygon fill="#bfbfbf" stroke="black" points="1534.5,-447.5 1534.5,-466.5 1599.5,-466.5 1599.5,-447.5 1534.5,-447.5"/>
<text text-anchor="middle" x="1567" y="-454.5" font-family="Helvetica,sans-Serif" font-size="10.00">signal&#45;ptr.h</text>
</g>
<!-- Node2 -->
<g id="node2" class="node"><title>Node2</title>
<polygon fill="white" stroke="#bfbfbf" points="568,-62 568,-81 622,-81 622,-62 568,-62"/>
<text text-anchor="middle" x="595" y="-69" font-family="Helvetica,sans-Serif" font-size="10.00">iostream</text>
</g>
<!-- Node1&#45;&gt;Node2 -->
<g id="edge1" class="edge"><title>Node1&#45;&gt;Node2</title>
<path fill="none" stroke="midnightblue" d="M1534.27,-455.241C1309.24,-449.814 0,-414.811 0,-335 0,-335 0,-335 0,-204.5 0,-155.872 29.6096,-144.954 73,-123 158.024,-79.9817 452.974,-73.5493 557.73,-72.6339"/>
<polygon fill="midnightblue" stroke="midnightblue" points="557.86,-76.1331 567.834,-72.5578 557.808,-69.1333 557.86,-76.1331"/>
</g>
<!-- Node3 -->
<g id="node3" class="node"><title>Node3</title>
<g id="a_node3"><a xlink:href="a00073.html" target="_top" xlink:title="dynamic&#45;graph/exception\l&#45;signal.h">
<polygon fill="white" stroke="black" points="1278.5,-190.5 1278.5,-220.5 1403.5,-220.5 1403.5,-190.5 1278.5,-190.5"/>
<text text-anchor="start" x="1286.5" y="-208.5" font-family="Helvetica,sans-Serif" font-size="10.00">dynamic&#45;graph/exception</text>
<text text-anchor="middle" x="1341" y="-197.5" font-family="Helvetica,sans-Serif" font-size="10.00">&#45;signal.h</text>
</a>
</g>
</g>
<!-- Node1&#45;&gt;Node3 -->
<g id="edge2" class="edge"><title>Node1&#45;&gt;Node3</title>
<path fill="none" stroke="midnightblue" d="M1564.89,-447.088C1557.17,-416.354 1527.66,-313.586 1466,-257 1450,-242.313 1429.17,-231.638 1409.12,-223.996"/>
<polygon fill="midnightblue" stroke="midnightblue" points="1410.27,-220.69 1399.67,-220.59 1407.89,-227.275 1410.27,-220.69"/>
</g>
<!-- Node9 -->
<g id="node9" class="node"><title>Node9</title>
<g id="a_node9"><a xlink:href="a00090.html" target="_top" xlink:title="dynamic&#45;graph/signal.h">
<polygon fill="white" stroke="black" points="1221.5,-386 1221.5,-405 1338.5,-405 1338.5,-386 1221.5,-386"/>
<text text-anchor="middle" x="1280" y="-393" font-family="Helvetica,sans-Serif" font-size="10.00">dynamic&#45;graph/signal.h</text>
</a>
</g>
</g>
<!-- Node1&#45;&gt;Node9 -->
<g id="edge11" class="edge"><title>Node1&#45;&gt;Node9</title>
<path fill="none" stroke="midnightblue" d="M1534.36,-449.233C1484.78,-438.953 1390.05,-419.315 1331.23,-407.121"/>
<polygon fill="midnightblue" stroke="midnightblue" points="1331.9,-403.686 1321.4,-405.083 1330.48,-410.54 1331.9,-403.686"/>
</g>
<!-- Node30 -->
<g id="node30" class="node"><title>Node30</title>
<g id="a_node30"><a xlink:href="a00088.html" target="_top" xlink:title="dynamic&#45;graph/signal\l&#45;ptr.t.cpp">
<polygon fill="white" stroke="black" points="1595.5,-380.5 1595.5,-410.5 1704.5,-410.5 1704.5,-380.5 1595.5,-380.5"/>
<text text-anchor="start" x="1603.5" y="-398.5" font-family="Helvetica,sans-Serif" font-size="10.00">dynamic&#45;graph/signal</text>
<text text-anchor="middle" x="1650" y="-387.5" font-family="Helvetica,sans-Serif" font-size="10.00">&#45;ptr.t.cpp</text>
</a>
</g>
</g>
<!-- Node1&#45;&gt;Node30 -->
<g id="edge48" class="edge"><title>Node1&#45;&gt;Node30</title>
<path fill="none" stroke="midnightblue" d="M1573.99,-447.475C1583.56,-439.341 1600.57,-426.791 1616.16,-416.179"/>
<polygon fill="midnightblue" stroke="midnightblue" points="1618.24,-418.993 1624.61,-410.523 1614.35,-413.175 1618.24,-418.993"/>
</g>
<!-- Node4 -->
<g id="node4" class="node"><title>Node4</title>
<g id="a_node4"><a xlink:href="a00076.html" target="_top" xlink:title="dynamic&#45;graph/fwd.hh">
<polygon fill="white" stroke="black" points="1373.5,-62 1373.5,-81 1486.5,-81 1486.5,-62 1373.5,-62"/>
<text text-anchor="middle" x="1430" y="-69" font-family="Helvetica,sans-Serif" font-size="10.00">dynamic&#45;graph/fwd.hh</text>
</a>
</g>
</g>
<!-- Node3&#45;&gt;Node4 -->
<g id="edge3" class="edge"><title>Node3&#45;&gt;Node4</title>
<path fill="none" stroke="midnightblue" d="M1357.76,-190.235C1368.23,-180.721 1381.48,-167.519 1391,-154 1405.21,-133.818 1416.68,-107.657 1423.42,-90.4908"/>
<polygon fill="midnightblue" stroke="midnightblue" points="1426.71,-91.6899 1426.98,-81.0986 1420.16,-89.207 1426.71,-91.6899"/>
</g>
<!-- Node5 -->
<g id="node5" class="node"><title>Node5</title>
<g id="a_node5"><a xlink:href="a00067.html" target="_top" xlink:title="dynamic&#45;graph/dynamic\l&#45;graph&#45;api.h">
<polygon fill="white" stroke="black" points="1202,-56.5 1202,-86.5 1322,-86.5 1322,-56.5 1202,-56.5"/>
<text text-anchor="start" x="1210" y="-74.5" font-family="Helvetica,sans-Serif" font-size="10.00">dynamic&#45;graph/dynamic</text>
<text text-anchor="middle" x="1262" y="-63.5" font-family="Helvetica,sans-Serif" font-size="10.00">&#45;graph&#45;api.h</text>
</a>
</g>
</g>
<!-- Node3&#45;&gt;Node5 -->
<g id="edge4" class="edge"><title>Node3&#45;&gt;Node5</title>
<path fill="none" stroke="midnightblue" d="M1293.86,-190.479C1276.28,-182.705 1258.14,-171.053 1248,-154 1237.51,-136.363 1243.1,-113.012 1250.08,-95.8263"/>
<polygon fill="midnightblue" stroke="midnightblue" points="1253.36,-97.0683 1254.24,-86.5103 1246.97,-94.213 1253.36,-97.0683"/>
</g>
<!-- Node7 -->
<g id="node7" class="node"><title>Node7</title>
<g id="a_node7"><a xlink:href="a00071.html" target="_top" xlink:title="dynamic&#45;graph/exception\l&#45;abstract.h">
<polygon fill="white" stroke="black" points="1257.5,-123.5 1257.5,-153.5 1382.5,-153.5 1382.5,-123.5 1257.5,-123.5"/>
<text text-anchor="start" x="1265.5" y="-141.5" font-family="Helvetica,sans-Serif" font-size="10.00">dynamic&#45;graph/exception</text>
<text text-anchor="middle" x="1320" y="-130.5" font-family="Helvetica,sans-Serif" font-size="10.00">&#45;abstract.h</text>
</a>
</g>
</g>
<!-- Node3&#45;&gt;Node7 -->
<g id="edge6" class="edge"><title>Node3&#45;&gt;Node7</title>
<path fill="none" stroke="midnightblue" d="M1336.44,-190.396C1333.88,-182.474 1330.62,-172.379 1327.68,-163.271"/>
<polygon fill="midnightblue" stroke="midnightblue" points="1330.95,-162.016 1324.55,-153.577 1324.29,-164.168 1330.95,-162.016"/>
</g>
<!-- Node6 -->
<g id="node6" class="node"><title>Node6</title>
<polygon fill="white" stroke="#bfbfbf" points="1200.5,-0.5 1200.5,-19.5 1323.5,-19.5 1323.5,-0.5 1200.5,-0.5"/>
<text text-anchor="middle" x="1262" y="-7.5" font-family="Helvetica,sans-Serif" font-size="10.00">dynamic&#45;graph/config.hh</text>
</g>
<!-- Node5&#45;&gt;Node6 -->
<g id="edge5" class="edge"><title>Node5&#45;&gt;Node6</title>
<path fill="none" stroke="midnightblue" d="M1262,-56.3993C1262,-48.4664 1262,-38.458 1262,-29.8583"/>
<polygon fill="midnightblue" stroke="midnightblue" points="1265.5,-29.6577 1262,-19.6578 1258.5,-29.6578 1265.5,-29.6577"/>
</g>
<!-- Node7&#45;&gt;Node2 -->
<g id="edge7" class="edge"><title>Node7&#45;&gt;Node2</title>
<path fill="none" stroke="midnightblue" d="M1257.48,-131.483C1229.76,-128.84 1196.76,-125.724 1167,-123 965.265,-104.536 723.393,-83.5657 632.21,-75.7017"/>
<polygon fill="midnightblue" stroke="midnightblue" points="632.363,-72.202 622.099,-74.8302 631.762,-79.1762 632.363,-72.202"/>
</g>
<!-- Node7&#45;&gt;Node4 -->
<g id="edge9" class="edge"><title>Node7&#45;&gt;Node4</title>
<path fill="none" stroke="midnightblue" d="M1343.87,-123.396C1362.57,-112.344 1388.44,-97.0607 1406.93,-86.1319"/>
<polygon fill="midnightblue" stroke="midnightblue" points="1408.77,-89.1076 1415.6,-81.007 1405.21,-83.0811 1408.77,-89.1076"/>
</g>
<!-- Node7&#45;&gt;Node5 -->
<g id="edge10" class="edge"><title>Node7&#45;&gt;Node5</title>
<path fill="none" stroke="midnightblue" d="M1307.41,-123.396C1299.81,-114.878 1289.97,-103.847 1281.39,-94.2328"/>
<polygon fill="midnightblue" stroke="midnightblue" points="1283.83,-91.7077 1274.56,-86.5765 1278.61,-96.3682 1283.83,-91.7077"/>
</g>
<!-- Node8 -->
<g id="node8" class="node"><title>Node8</title>
<polygon fill="white" stroke="#bfbfbf" points="1557.5,-62 1557.5,-81 1598.5,-81 1598.5,-62 1557.5,-62"/>
<text text-anchor="middle" x="1578" y="-69" font-family="Helvetica,sans-Serif" font-size="10.00">string</text>
</g>
<!-- Node7&#45;&gt;Node8 -->
<g id="edge8" class="edge"><title>Node7&#45;&gt;Node8</title>
<path fill="none" stroke="midnightblue" d="M1375.66,-123.476C1428.24,-110.23 1505.15,-90.8527 1547.4,-80.2097"/>
<polygon fill="midnightblue" stroke="midnightblue" points="1548.51,-83.5382 1557.36,-77.7011 1546.8,-76.7503 1548.51,-83.5382"/>
</g>
<!-- Node9&#45;&gt;Node2 -->
<g id="edge15" class="edge"><title>Node9&#45;&gt;Node2</title>
<path fill="none" stroke="midnightblue" d="M1221.35,-395.019C975.16,-396.441 38,-393.942 38,-273.5 38,-273.5 38,-273.5 38,-204.5 38,-97.4333 432.592,-77.0863 557.537,-73.3272"/>
<polygon fill="midnightblue" stroke="midnightblue" points="557.86,-76.8196 567.758,-73.0391 557.663,-69.8224 557.86,-76.8196"/>
</g>
<!-- Node9&#45;&gt;Node3 -->
<g id="edge16" class="edge"><title>Node9&#45;&gt;Node3</title>
<path fill="none" stroke="midnightblue" d="M1338.64,-386.88C1388.61,-379.041 1454.84,-364.994 1471,-344 1506.19,-298.299 1431.96,-250.609 1381.85,-225.155"/>
<polygon fill="midnightblue" stroke="midnightblue" points="1383.32,-221.977 1372.81,-220.666 1380.21,-228.247 1383.32,-221.977"/>
</g>
<!-- Node9&#45;&gt;Node8 -->
<g id="edge14" class="edge"><title>Node9&#45;&gt;Node8</title>
<path fill="none" stroke="midnightblue" d="M1338.6,-386.873C1475.93,-367.599 1811.37,-311.901 1870,-221 1934.88,-120.407 1695.7,-84.8431 1608.58,-75.3751"/>
<polygon fill="midnightblue" stroke="midnightblue" points="1608.81,-71.8806 1598.5,-74.3238 1608.09,-78.8428 1608.81,-71.8806"/>
</g>
<!-- Node10 -->
<g id="node10" class="node"><title>Node10</title>
<polygon fill="white" stroke="#bfbfbf" points="1115,-324.5 1115,-343.5 1195,-343.5 1195,-324.5 1115,-324.5"/>
<text text-anchor="middle" x="1155" y="-331.5" font-family="Helvetica,sans-Serif" font-size="10.00">boost/bind.hpp</text>
</g>
<!-- Node9&#45;&gt;Node10 -->
<g id="edge12" class="edge"><title>Node9&#45;&gt;Node10</title>
<path fill="none" stroke="midnightblue" d="M1262.09,-385.975C1241.11,-375.99 1206.15,-359.348 1181.91,-347.807"/>
<polygon fill="midnightblue" stroke="midnightblue" points="1183.41,-344.647 1172.88,-343.509 1180.4,-350.967 1183.41,-344.647"/>
</g>
<!-- Node11 -->
<g id="node11" class="node"><title>Node11</title>
<polygon fill="white" stroke="#bfbfbf" points="1365.5,-324.5 1365.5,-343.5 1462.5,-343.5 1462.5,-324.5 1365.5,-324.5"/>
<text text-anchor="middle" x="1414" y="-331.5" font-family="Helvetica,sans-Serif" font-size="10.00">boost/function.hpp</text>
</g>
<!-- Node9&#45;&gt;Node11 -->
<g id="edge13" class="edge"><title>Node9&#45;&gt;Node11</title>
<path fill="none" stroke="midnightblue" d="M1299.2,-385.975C1321.79,-375.945 1359.5,-359.2 1385.5,-347.655"/>
<polygon fill="midnightblue" stroke="midnightblue" points="1387.12,-350.766 1394.84,-343.509 1384.28,-344.369 1387.12,-350.766"/>
</g>
<!-- Node12 -->
<g id="node12" class="node"><title>Node12</title>
<g id="a_node12"><a xlink:href="a00083.html" target="_top" xlink:title="dynamic&#45;graph/signal\l&#45;base.h">
<polygon fill="white" stroke="black" points="1216.5,-257.5 1216.5,-287.5 1325.5,-287.5 1325.5,-257.5 1216.5,-257.5"/>
<text text-anchor="start" x="1224.5" y="-275.5" font-family="Helvetica,sans-Serif" font-size="10.00">dynamic&#45;graph/signal</text>
<text text-anchor="middle" x="1271" y="-264.5" font-family="Helvetica,sans-Serif" font-size="10.00">&#45;base.h</text>
</a>
</g>
</g>
<!-- Node9&#45;&gt;Node12 -->
<g id="edge17" class="edge"><title>Node9&#45;&gt;Node12</title>
<path fill="none" stroke="midnightblue" d="M1225.63,-385.979C1180.17,-377.614 1120.5,-363.304 1106,-344 1076.03,-304.089 1148.21,-286.52 1206.42,-278.961"/>
<polygon fill="midnightblue" stroke="midnightblue" points="1206.85,-282.433 1216.36,-277.747 1206.01,-275.485 1206.85,-282.433"/>
</g>
<!-- Node16 -->
<g id="node16" class="node"><title>Node16</title>
<g id="a_node16"><a xlink:href="a00091.html" target="_top" xlink:title="dynamic&#45;graph/signal.t.cpp">
<polygon fill="white" stroke="black" points="1213,-324.5 1213,-343.5 1347,-343.5 1347,-324.5 1213,-324.5"/>
<text text-anchor="middle" x="1280" y="-331.5" font-family="Helvetica,sans-Serif" font-size="10.00">dynamic&#45;graph/signal.t.cpp</text>
</a>
</g>
</g>
<!-- Node9&#45;&gt;Node16 -->
<g id="edge25" class="edge"><title>Node9&#45;&gt;Node16</title>
<path fill="none" stroke="midnightblue" d="M1275.1,-385.975C1273.27,-377.58 1272.8,-364.481 1273.69,-353.663"/>
<polygon fill="midnightblue" stroke="midnightblue" points="1277.19,-353.897 1275.1,-343.509 1270.25,-352.929 1277.19,-353.897"/>
</g>
<!-- Node12&#45;&gt;Node2 -->
<g id="edge20" class="edge"><title>Node12&#45;&gt;Node2</title>
<path fill="none" stroke="midnightblue" d="M1221.46,-257.462C1194.66,-248.839 1161.51,-236.472 1134,-221 1114.7,-210.145 1114.93,-199.655 1095,-190 933.808,-111.895 717.734,-84.0181 632.149,-75.6338"/>
<polygon fill="midnightblue" stroke="midnightblue" points="632.42,-72.1439 622.134,-74.6843 631.759,-79.1127 632.42,-72.1439"/>
</g>
<!-- Node12&#45;&gt;Node3 -->
<g id="edge24" class="edge"><title>Node12&#45;&gt;Node3</title>
<path fill="none" stroke="midnightblue" d="M1286.19,-257.396C1295.55,-248.708 1307.72,-237.405 1318.21,-227.658"/>
<polygon fill="midnightblue" stroke="midnightblue" points="1320.89,-229.946 1325.84,-220.577 1316.13,-224.816 1320.89,-229.946"/>
</g>
<!-- Node12&#45;&gt;Node4 -->
<g id="edge23" class="edge"><title>Node12&#45;&gt;Node4</title>
<path fill="none" stroke="midnightblue" d="M1325.57,-265.829C1355.71,-259.733 1391.15,-247.111 1412,-221 1442.17,-183.208 1437.97,-121.825 1433.44,-91.1656"/>
<polygon fill="midnightblue" stroke="midnightblue" points="1436.85,-90.3246 1431.76,-81.0327 1429.95,-91.4709 1436.85,-90.3246"/>
</g>
<!-- Node12&#45;&gt;Node8 -->
<g id="edge18" class="edge"><title>Node12&#45;&gt;Node8</title>
<path fill="none" stroke="midnightblue" d="M1325.54,-266.609C1389.96,-259.805 1492.05,-245.477 1521,-221 1560.63,-187.497 1572.79,-123.16 1576.46,-91.3118"/>
<polygon fill="midnightblue" stroke="midnightblue" points="1579.96,-91.4607 1577.46,-81.1653 1573,-90.7732 1579.96,-91.4607"/>
</g>
<!-- Node13 -->
<g id="node13" class="node"><title>Node13</title>
<polygon fill="white" stroke="#bfbfbf" points="1460,-196 1460,-215 1512,-215 1512,-196 1460,-196"/>
<text text-anchor="middle" x="1486" y="-203" font-family="Helvetica,sans-Serif" font-size="10.00">sstream</text>
</g>
<!-- Node12&#45;&gt;Node13 -->
<g id="edge19" class="edge"><title>Node12&#45;&gt;Node13</title>
<path fill="none" stroke="midnightblue" d="M1322.96,-257.486C1357.92,-247.817 1404.95,-234.346 1446,-221 1448.55,-220.172 1451.17,-219.288 1453.81,-218.38"/>
<polygon fill="midnightblue" stroke="midnightblue" points="1454.98,-221.677 1463.25,-215.046 1452.65,-215.077 1454.98,-221.677"/>
</g>
<!-- Node14 -->
<g id="node14" class="node"><title>Node14</title>
<polygon fill="white" stroke="#bfbfbf" points="1035.5,-196 1035.5,-215 1086.5,-215 1086.5,-196 1035.5,-196"/>
<text text-anchor="middle" x="1061" y="-203" font-family="Helvetica,sans-Serif" font-size="10.00">typeinfo</text>
</g>
<!-- Node12&#45;&gt;Node14 -->
<g id="edge21" class="edge"><title>Node12&#45;&gt;Node14</title>
<path fill="none" stroke="midnightblue" d="M1220.92,-257.465C1186.93,-247.734 1141.06,-234.199 1101,-221 1098.46,-220.162 1095.83,-219.271 1093.2,-218.358"/>
<polygon fill="midnightblue" stroke="midnightblue" points="1094.36,-215.056 1083.76,-215.015 1092.02,-221.654 1094.36,-215.056"/>
</g>
<!-- Node15 -->
<g id="node15" class="node"><title>Node15</title>
<polygon fill="white" stroke="#bfbfbf" points="1143.5,-196 1143.5,-215 1260.5,-215 1260.5,-196 1143.5,-196"/>
<text text-anchor="middle" x="1202" y="-203" font-family="Helvetica,sans-Serif" font-size="10.00">boost/noncopyable.hpp</text>
</g>
<!-- Node12&#45;&gt;Node15 -->
<g id="edge22" class="edge"><title>Node12&#45;&gt;Node15</title>
<path fill="none" stroke="midnightblue" d="M1256.03,-257.396C1245.06,-247.06 1230.16,-233.024 1218.78,-222.309"/>
<polygon fill="midnightblue" stroke="midnightblue" points="1220.91,-219.504 1211.23,-215.195 1216.11,-224.599 1220.91,-219.504"/>
</g>
<!-- Node16&#45;&gt;Node9 -->
<g id="edge26" class="edge"><title>Node16&#45;&gt;Node9</title>
<path fill="none" stroke="midnightblue" d="M1284.9,-343.509C1286.73,-351.898 1287.2,-364.996 1286.32,-375.817"/>
<polygon fill="midnightblue" stroke="midnightblue" points="1282.81,-375.588 1284.9,-385.975 1289.75,-376.554 1282.81,-375.588"/>
</g>
<!-- Node17 -->
<g id="node17" class="node"><title>Node17</title>
<g id="a_node17"><a xlink:href="a00085.html" target="_top" xlink:title="dynamic&#45;graph/signal\l&#45;caster.h">
<polygon fill="white" stroke="black" points="563.5,-257.5 563.5,-287.5 672.5,-287.5 672.5,-257.5 563.5,-257.5"/>
<text text-anchor="start" x="571.5" y="-275.5" font-family="Helvetica,sans-Serif" font-size="10.00">dynamic&#45;graph/signal</text>
<text text-anchor="middle" x="618" y="-264.5" font-family="Helvetica,sans-Serif" font-size="10.00">&#45;caster.h</text>
</a>
</g>
</g>
<!-- Node16&#45;&gt;Node17 -->
<g id="edge27" class="edge"><title>Node16&#45;&gt;Node17</title>
<path fill="none" stroke="midnightblue" d="M1212.88,-324.933C1209.88,-324.61 1206.91,-324.297 1204,-324 1014.81,-304.651 790.743,-286.727 682.678,-278.395"/>
<polygon fill="midnightblue" stroke="midnightblue" points="682.826,-274.897 672.587,-277.619 682.29,-281.876 682.826,-274.897"/>
</g>
<!-- Node26 -->
<g id="node26" class="node"><title>Node26</title>
<g id="a_node26"><a xlink:href="a00065.html" target="_top" xlink:title="dynamic&#45;graph/debug.h">
<polygon fill="white" stroke="black" points="1595,-263 1595,-282 1713,-282 1713,-263 1595,-263"/>
<text text-anchor="middle" x="1654" y="-270" font-family="Helvetica,sans-Serif" font-size="10.00">dynamic&#45;graph/debug.h</text>
</a>
</g>
</g>
<!-- Node16&#45;&gt;Node26 -->
<g id="edge40" class="edge"><title>Node16&#45;&gt;Node26</title>
<path fill="none" stroke="midnightblue" d="M1333.59,-324.475C1401.49,-313.672 1518.36,-295.078 1590.62,-283.583"/>
<polygon fill="midnightblue" stroke="midnightblue" points="1591.19,-287.037 1600.51,-282.009 1590.09,-280.124 1591.19,-287.037"/>
</g>
<!-- Node17&#45;&gt;Node2 -->
<g id="edge30" class="edge"><title>Node17&#45;&gt;Node2</title>
<path fill="none" stroke="midnightblue" d="M563.09,-270.285C435.22,-266.888 126.046,-255.188 95,-221 29.2013,-148.542 431.054,-92.5662 557.683,-76.9031"/>
<polygon fill="midnightblue" stroke="midnightblue" points="558.192,-80.3669 567.693,-75.6782 557.342,-73.4188 558.192,-80.3669"/>
</g>
<!-- Node17&#45;&gt;Node3 -->
<g id="edge39" class="edge"><title>Node17&#45;&gt;Node3</title>
<path fill="none" stroke="midnightblue" d="M672.681,-269.5C783.268,-264.97 1041.5,-251.931 1268.16,-220.995"/>
<polygon fill="midnightblue" stroke="midnightblue" points="1268.82,-224.438 1278.25,-219.604 1267.86,-217.503 1268.82,-224.438"/>
</g>
<!-- Node17&#45;&gt;Node5 -->
<g id="edge38" class="edge"><title>Node17&#45;&gt;Node5</title>
<path fill="none" stroke="midnightblue" d="M672.745,-267.683C761.523,-260.886 932.554,-245.097 988,-221 1007.99,-212.313 1007.69,-201.819 1026,-190 1089.81,-148.816 1170.06,-111.654 1218.62,-90.604"/>
<polygon fill="midnightblue" stroke="midnightblue" points="1220.09,-93.7802 1227.89,-86.6123 1217.33,-87.3503 1220.09,-93.7802"/>
</g>
<!-- Node17&#45;&gt;Node14 -->
<g id="edge29" class="edge"><title>Node17&#45;&gt;Node14</title>
<path fill="none" stroke="midnightblue" d="M672.795,-268.516C750.979,-263.386 898.63,-250.455 1021,-221 1024.06,-220.263 1027.21,-219.37 1030.34,-218.392"/>
<polygon fill="midnightblue" stroke="midnightblue" points="1031.76,-221.607 1040.1,-215.072 1029.5,-214.98 1031.76,-221.607"/>
</g>
<!-- Node18 -->
<g id="node18" class="node"><title>Node18</title>
<polygon fill="white" stroke="#bfbfbf" points="361.5,-196 361.5,-215 396.5,-215 396.5,-196 361.5,-196"/>
<text text-anchor="middle" x="379" y="-203" font-family="Helvetica,sans-Serif" font-size="10.00">map</text>
</g>
<!-- Node17&#45;&gt;Node18 -->
<g id="edge28" class="edge"><title>Node17&#45;&gt;Node18</title>
<path fill="none" stroke="midnightblue" d="M563.257,-262.498C519.749,-254.39 457.81,-240.699 406,-221 404.797,-220.543 403.58,-220.042 402.363,-219.511"/>
<polygon fill="midnightblue" stroke="midnightblue" points="403.767,-216.301 393.248,-215.039 400.684,-222.586 403.767,-216.301"/>
</g>
<!-- Node19 -->
<g id="node19" class="node"><title>Node19</title>
<polygon fill="white" stroke="#bfbfbf" points="415,-196 415,-215 459,-215 459,-196 415,-196"/>
<text text-anchor="middle" x="437" y="-203" font-family="Helvetica,sans-Serif" font-size="10.00">vector</text>
</g>
<!-- Node17&#45;&gt;Node19 -->
<g id="edge31" class="edge"><title>Node17&#45;&gt;Node19</title>
<path fill="none" stroke="midnightblue" d="M571.891,-257.461C541.969,-247.989 502.306,-234.747 468,-221 466.621,-220.447 465.216,-219.865 463.803,-219.263"/>
<polygon fill="midnightblue" stroke="midnightblue" points="465.112,-216.014 454.554,-215.13 462.256,-222.405 465.112,-216.014"/>
</g>
<!-- Node20 -->
<g id="node20" class="node"><title>Node20</title>
<polygon fill="white" stroke="#bfbfbf" points="477,-196 477,-215 555,-215 555,-196 477,-196"/>
<text text-anchor="middle" x="516" y="-203" font-family="Helvetica,sans-Serif" font-size="10.00">boost/any.hpp</text>
</g>
<!-- Node17&#45;&gt;Node20 -->
<g id="edge32" class="edge"><title>Node17&#45;&gt;Node20</title>
<path fill="none" stroke="midnightblue" d="M595.868,-257.396C578.762,-246.496 555.197,-231.479 538.1,-220.584"/>
<polygon fill="midnightblue" stroke="midnightblue" points="539.664,-217.43 529.349,-215.007 535.902,-223.333 539.664,-217.43"/>
</g>
<!-- Node21 -->
<g id="node21" class="node"><title>Node21</title>
<polygon fill="white" stroke="#bfbfbf" points="573,-196 573,-215 663,-215 663,-196 573,-196"/>
<text text-anchor="middle" x="618" y="-203" font-family="Helvetica,sans-Serif" font-size="10.00">boost/format.hpp</text>
</g>
<!-- Node17&#45;&gt;Node21 -->
<g id="edge33" class="edge"><title>Node17&#45;&gt;Node21</title>
<path fill="none" stroke="midnightblue" d="M618,-257.396C618,-248.064 618,-235.714 618,-225.517"/>
<polygon fill="midnightblue" stroke="midnightblue" points="621.5,-225.195 618,-215.195 614.5,-225.195 621.5,-225.195"/>
</g>
<!-- Node22 -->
<g id="node22" class="node"><title>Node22</title>
<polygon fill="white" stroke="#bfbfbf" points="681,-196 681,-215 821,-215 821,-196 681,-196"/>
<text text-anchor="middle" x="751" y="-203" font-family="Helvetica,sans-Serif" font-size="10.00">boost/function/function1.hpp</text>
</g>
<!-- Node17&#45;&gt;Node22 -->
<g id="edge34" class="edge"><title>Node17&#45;&gt;Node22</title>
<path fill="none" stroke="midnightblue" d="M646.859,-257.396C669.886,-246.142 701.89,-230.501 724.323,-219.538"/>
<polygon fill="midnightblue" stroke="midnightblue" points="726.146,-222.543 733.593,-215.007 723.072,-216.253 726.146,-222.543"/>
</g>
<!-- Node23 -->
<g id="node23" class="node"><title>Node23</title>
<polygon fill="white" stroke="#bfbfbf" points="839,-196 839,-215 979,-215 979,-196 839,-196"/>
<text text-anchor="middle" x="909" y="-203" font-family="Helvetica,sans-Serif" font-size="10.00">boost/function/function2.hpp</text>
</g>
<!-- Node17&#45;&gt;Node23 -->
<g id="edge35" class="edge"><title>Node17&#45;&gt;Node23</title>
<path fill="none" stroke="midnightblue" d="M672.735,-259.274C726.912,-247.173 809.042,-228.827 860.816,-217.263"/>
<polygon fill="midnightblue" stroke="midnightblue" points="861.752,-220.64 870.749,-215.044 860.226,-213.808 861.752,-220.64"/>
</g>
<!-- Node24 -->
<g id="node24" class="node"><title>Node24</title>
<polygon fill="white" stroke="#bfbfbf" points="104,-196 104,-215 218,-215 218,-196 104,-196"/>
<text text-anchor="middle" x="161" y="-203" font-family="Helvetica,sans-Serif" font-size="10.00">boost/lexical_cast.hpp</text>
</g>
<!-- Node17&#45;&gt;Node24 -->
<g id="edge36" class="edge"><title>Node17&#45;&gt;Node24</title>
<path fill="none" stroke="midnightblue" d="M563.374,-265.977C487.579,-257.965 346.354,-241.777 227,-221 220.629,-219.891 213.941,-218.587 207.369,-217.224"/>
<polygon fill="midnightblue" stroke="midnightblue" points="207.708,-213.718 197.198,-215.052 206.246,-220.563 207.708,-213.718"/>
</g>
<!-- Node25 -->
<g id="node25" class="node"><title>Node25</title>
<polygon fill="white" stroke="#bfbfbf" points="236.5,-196 236.5,-215 343.5,-215 343.5,-196 236.5,-196"/>
<text text-anchor="middle" x="290" y="-203" font-family="Helvetica,sans-Serif" font-size="10.00">boost/tuple/tuple.hpp</text>
</g>
<!-- Node17&#45;&gt;Node25 -->
<g id="edge37" class="edge"><title>Node17&#45;&gt;Node25</title>
<path fill="none" stroke="midnightblue" d="M563.355,-261.821C509.487,-252.115 424.887,-236.435 352,-221 346.593,-219.855 340.933,-218.604 335.325,-217.332"/>
<polygon fill="midnightblue" stroke="midnightblue" points="335.882,-213.869 325.352,-215.039 334.314,-220.691 335.882,-213.869"/>
</g>
<!-- Node26&#45;&gt;Node2 -->
<g id="edge43" class="edge"><title>Node26&#45;&gt;Node2</title>
<path fill="none" stroke="midnightblue" d="M1632.72,-262.884C1611.77,-253.923 1579.33,-238.738 1554,-221 1537.52,-209.457 1539.2,-198.575 1521,-190 1515.85,-187.572 804.196,-98.6158 632.132,-77.1339"/>
<polygon fill="midnightblue" stroke="midnightblue" points="632.402,-73.6405 622.046,-75.8747 631.535,-80.5866 632.402,-73.6405"/>
</g>
<!-- Node26&#45;&gt;Node4 -->
<g id="edge46" class="edge"><title>Node26&#45;&gt;Node4</title>
<path fill="none" stroke="midnightblue" d="M1655.54,-262.755C1659.47,-237.458 1667.05,-163.432 1630,-123 1612.02,-103.385 1547.53,-89.5263 1496.58,-81.3504"/>
<polygon fill="midnightblue" stroke="midnightblue" points="1497.01,-77.875 1486.59,-79.791 1495.93,-84.7912 1497.01,-77.875"/>
</g>
<!-- Node26&#45;&gt;Node5 -->
<g id="edge47" class="edge"><title>Node26&#45;&gt;Node5</title>
<path fill="none" stroke="midnightblue" d="M1645.3,-262.89C1628.73,-246.841 1590.95,-211.994 1554,-190 1477.38,-144.395 1379.81,-109.192 1319.12,-89.6567"/>
<polygon fill="midnightblue" stroke="midnightblue" points="1319.93,-86.2407 1309.34,-86.5408 1317.8,-92.9106 1319.93,-86.2407"/>
</g>
<!-- Node26&#45;&gt;Node13 -->
<g id="edge45" class="edge"><title>Node26&#45;&gt;Node13</title>
<path fill="none" stroke="midnightblue" d="M1631.69,-262.869C1602.49,-251.571 1551.12,-231.696 1517.84,-218.818"/>
<polygon fill="midnightblue" stroke="midnightblue" points="1518.72,-215.408 1508.13,-215.064 1516.2,-221.936 1518.72,-215.408"/>
</g>
<!-- Node27 -->
<g id="node27" class="node"><title>Node27</title>
<polygon fill="white" stroke="#bfbfbf" points="1682.5,-196 1682.5,-215 1725.5,-215 1725.5,-196 1682.5,-196"/>
<text text-anchor="middle" x="1704" y="-203" font-family="Helvetica,sans-Serif" font-size="10.00">cstdio</text>
</g>
<!-- Node26&#45;&gt;Node27 -->
<g id="edge41" class="edge"><title>Node26&#45;&gt;Node27</title>
<path fill="none" stroke="midnightblue" d="M1660.74,-262.734C1668.54,-252.598 1681.55,-235.69 1691.26,-223.056"/>
<polygon fill="midnightblue" stroke="midnightblue" points="1694.04,-225.188 1697.36,-215.127 1688.49,-220.92 1694.04,-225.188"/>
</g>
<!-- Node28 -->
<g id="node28" class="node"><title>Node28</title>
<polygon fill="white" stroke="#bfbfbf" points="1743.5,-196 1743.5,-215 1792.5,-215 1792.5,-196 1743.5,-196"/>
<text text-anchor="middle" x="1768" y="-203" font-family="Helvetica,sans-Serif" font-size="10.00">cstdarg</text>
</g>
<!-- Node26&#45;&gt;Node28 -->
<g id="edge42" class="edge"><title>Node26&#45;&gt;Node28</title>
<path fill="none" stroke="midnightblue" d="M1669.37,-262.734C1688.52,-251.818 1721.44,-233.049 1743.94,-220.221"/>
<polygon fill="midnightblue" stroke="midnightblue" points="1745.92,-223.121 1752.87,-215.127 1742.45,-217.04 1745.92,-223.121"/>
</g>
<!-- Node29 -->
<g id="node29" class="node"><title>Node29</title>
<polygon fill="white" stroke="#bfbfbf" points="1811,-196 1811,-215 1861,-215 1861,-196 1811,-196"/>
<text text-anchor="middle" x="1836" y="-203" font-family="Helvetica,sans-Serif" font-size="10.00">fstream</text>
</g>
<!-- Node26&#45;&gt;Node29 -->
<g id="edge44" class="edge"><title>Node26&#45;&gt;Node29</title>
<path fill="none" stroke="midnightblue" d="M1680.46,-262.956C1710.03,-253.284 1759.23,-236.809 1801,-221 1802.65,-220.376 1804.34,-219.723 1806.04,-219.055"/>
<polygon fill="midnightblue" stroke="midnightblue" points="1807.76,-222.134 1815.73,-215.148 1805.14,-215.642 1807.76,-222.134"/>
</g>
<!-- Node30&#45;&gt;Node1 -->
<g id="edge49" class="edge"><title>Node30&#45;&gt;Node1</title>
<path fill="none" stroke="midnightblue" d="M1636.27,-410.523C1624.25,-420.02 1606.81,-432.518 1592.34,-442.008"/>
<polygon fill="midnightblue" stroke="midnightblue" points="1590.33,-439.14 1583.79,-447.475 1594.1,-445.038 1590.33,-439.14"/>
</g>
<!-- Node30&#45;&gt;Node26 -->
<g id="edge50" class="edge"><title>Node30&#45;&gt;Node26</title>
<path fill="none" stroke="midnightblue" d="M1650.47,-380.145C1651.2,-358.203 1652.58,-316.327 1653.39,-292.091"/>
<polygon fill="midnightblue" stroke="midnightblue" points="1656.88,-292.162 1653.72,-282.052 1649.89,-291.931 1656.88,-292.162"/>
</g>
</g>
</svg>
