<?xml version="1.0" encoding="UTF-8" standalone="no"?>
<!DOCTYPE svg PUBLIC "-//W3C//DTD SVG 1.1//EN"
 "http://www.w3.org/Graphics/SVG/1.1/DTD/svg11.dtd">
<!-- Generated by graphviz version 2.38.0 (20140413.2041)
 -->
<!-- Title: signal&#45;helper.h Pages: 1 -->
<svg width="2337pt" height="553pt"
 viewBox="0.00 0.00 2337.20 553.00" xmlns="http://www.w3.org/2000/svg" xmlns:xlink="http://www.w3.org/1999/xlink">
<g id="graph0" class="graph" transform="scale(1 1) rotate(0) translate(4 549)">
<title>signal&#45;helper.h</title>
<polygon fill="white" stroke="none" points="-4,4 -4,-549 2333.2,-549 2333.2,4 -4,4"/>
<!-- Node1 -->
<g id="node1" class="node"><title>Node1</title>
<polygon fill="#bfbfbf" stroke="black" points="936.2,-525.5 936.2,-544.5 1016.2,-544.5 1016.2,-525.5 936.2,-525.5"/>
<text text-anchor="middle" x="976.2" y="-532.5" font-family="Helvetica,sans-Serif" font-size="10.00">signal&#45;helper.h</text>
</g>
<!-- Node2 -->
<g id="node2" class="node"><title>Node2</title>
<g id="a_node2"><a xlink:href="a00071.html" target="_top" xlink:title="dynamic&#45;graph/entity.h">
<polygon fill="white" stroke="black" points="414.2,-397 414.2,-416 530.2,-416 530.2,-397 414.2,-397"/>
<text text-anchor="middle" x="472.2" y="-404" font-family="Helvetica,sans-Serif" font-size="10.00">dynamic&#45;graph/entity.h</text>
</a>
</g>
</g>
<!-- Node1&#45;&gt;Node2 -->
<g id="edge1" class="edge"><title>Node1&#45;&gt;Node2</title>
<path fill="none" stroke="midnightblue" d="M941.954,-525.405C853.044,-503.089 614.927,-443.323 516.115,-418.522"/>
<polygon fill="midnightblue" stroke="midnightblue" points="516.712,-415.064 506.161,-416.024 515.008,-421.853 516.712,-415.064"/>
</g>
<!-- Node20 -->
<g id="node20" class="node"><title>Node20</title>
<g id="a_node20"><a xlink:href="a00088.html" target="_top" xlink:title="dynamic&#45;graph/signal\l&#45;ptr.h">
<polygon fill="white" stroke="black" points="1149.7,-458.5 1149.7,-488.5 1258.7,-488.5 1258.7,-458.5 1149.7,-458.5"/>
<text text-anchor="start" x="1157.7" y="-476.5" font-family="Helvetica,sans-Serif" font-size="10.00">dynamic&#45;graph/signal</text>
<text text-anchor="middle" x="1204.2" y="-465.5" font-family="Helvetica,sans-Serif" font-size="10.00">&#45;ptr.h</text>
</a>
</g>
</g>
<!-- Node1&#45;&gt;Node20 -->
<g id="edge35" class="edge"><title>Node1&#45;&gt;Node20</title>
<path fill="none" stroke="midnightblue" d="M1008.87,-525.475C1043.14,-516.532 1097.87,-502.249 1140.69,-491.074"/>
<polygon fill="midnightblue" stroke="midnightblue" points="1141.67,-494.435 1150.46,-488.523 1139.9,-487.662 1141.67,-494.435"/>
</g>
<!-- Node37 -->
<g id="node37" class="node"><title>Node37</title>
<g id="a_node37"><a xlink:href="a00090.html" target="_top" xlink:title="dynamic&#45;graph/signal\l&#45;time&#45;dependent.h">
<polygon fill="white" stroke="black" points="921.7,-458.5 921.7,-488.5 1030.7,-488.5 1030.7,-458.5 921.7,-458.5"/>
<text text-anchor="start" x="929.7" y="-476.5" font-family="Helvetica,sans-Serif" font-size="10.00">dynamic&#45;graph/signal</text>
<text text-anchor="middle" x="976.2" y="-465.5" font-family="Helvetica,sans-Serif" font-size="10.00">&#45;time&#45;dependent.h</text>
</a>
</g>
</g>
<!-- Node1&#45;&gt;Node37 -->
<g id="edge71" class="edge"><title>Node1&#45;&gt;Node37</title>
<path fill="none" stroke="midnightblue" d="M976.2,-525.475C976.2,-518.471 976.2,-508.192 976.2,-498.696"/>
<polygon fill="midnightblue" stroke="midnightblue" points="979.7,-498.523 976.2,-488.523 972.7,-498.523 979.7,-498.523"/>
</g>
<!-- Node3 -->
<g id="node3" class="node"><title>Node3</title>
<polygon fill="white" stroke="#bfbfbf" points="30.6997,-330 30.6997,-349 75.6997,-349 75.6997,-330 30.6997,-330"/>
<text text-anchor="middle" x="53.1997" y="-337" font-family="Helvetica,sans-Serif" font-size="10.00">iosfwd</text>
</g>
<!-- Node2&#45;&gt;Node3 -->
<g id="edge2" class="edge"><title>Node2&#45;&gt;Node3</title>
<path fill="none" stroke="midnightblue" d="M414.094,-402.202C338.488,-396.919 202.748,-384.034 90.1997,-355 87.5359,-354.313 84.8042,-353.488 82.0904,-352.585"/>
<polygon fill="midnightblue" stroke="midnightblue" points="83.0877,-349.223 72.4939,-349.078 80.6853,-355.798 83.0877,-349.223"/>
</g>
<!-- Node4 -->
<g id="node4" class="node"><title>Node4</title>
<polygon fill="white" stroke="#bfbfbf" points="1373.7,-196 1373.7,-215 1408.7,-215 1408.7,-196 1373.7,-196"/>
<text text-anchor="middle" x="1391.2" y="-203" font-family="Helvetica,sans-Serif" font-size="10.00">map</text>
</g>
<!-- Node2&#45;&gt;Node4 -->
<g id="edge3" class="edge"><title>Node2&#45;&gt;Node4</title>
<path fill="none" stroke="midnightblue" d="M530.4,-404.164C592.332,-400.832 691.972,-389.91 770.2,-355 790.42,-345.977 788.647,-332.236 809.2,-324 973.244,-258.263 1033.74,-330.82 1205.2,-288 1266.48,-272.696 1333.08,-238.897 1367.55,-219.985"/>
<polygon fill="midnightblue" stroke="midnightblue" points="1369.35,-222.99 1376.39,-215.073 1365.94,-216.872 1369.35,-222.99"/>
</g>
<!-- Node5 -->
<g id="node5" class="node"><title>Node5</title>
<polygon fill="white" stroke="#bfbfbf" points="640.2,-196 640.2,-215 692.2,-215 692.2,-196 640.2,-196"/>
<text text-anchor="middle" x="666.2" y="-203" font-family="Helvetica,sans-Serif" font-size="10.00">sstream</text>
</g>
<!-- Node2&#45;&gt;Node5 -->
<g id="edge4" class="edge"><title>Node2&#45;&gt;Node5</title>
<path fill="none" stroke="midnightblue" d="M474.492,-396.897C482.227,-368.421 508.069,-277.851 529.2,-257 556.477,-230.084 599.314,-217.347 629.821,-211.428"/>
<polygon fill="midnightblue" stroke="midnightblue" points="630.82,-214.806 640.052,-209.608 629.593,-207.914 630.82,-214.806"/>
</g>
<!-- Node6 -->
<g id="node6" class="node"><title>Node6</title>
<polygon fill="white" stroke="#bfbfbf" points="235.7,-62 235.7,-81 276.7,-81 276.7,-62 235.7,-62"/>
<text text-anchor="middle" x="256.2" y="-69" font-family="Helvetica,sans-Serif" font-size="10.00">string</text>
</g>
<!-- Node2&#45;&gt;Node6 -->
<g id="edge5" class="edge"><title>Node2&#45;&gt;Node6</title>
<path fill="none" stroke="midnightblue" d="M413.804,-402.682C298.458,-396.584 50.0177,-380.616 21.1997,-355 -6.59925,-330.29 2.19975,-310.694 2.19975,-273.5 2.19975,-273.5 2.19975,-273.5 2.19975,-204.5 2.19975,-104.965 157.671,-80.379 225.344,-74.3918"/>
<polygon fill="midnightblue" stroke="midnightblue" points="225.727,-77.8724 235.414,-73.5819 225.165,-70.8949 225.727,-77.8724"/>
</g>
<!-- Node7 -->
<g id="node7" class="node"><title>Node7</title>
<polygon fill="white" stroke="#bfbfbf" points="208.7,-196 208.7,-215 325.7,-215 325.7,-196 208.7,-196"/>
<text text-anchor="middle" x="267.2" y="-203" font-family="Helvetica,sans-Serif" font-size="10.00">boost/noncopyable.hpp</text>
</g>
<!-- Node2&#45;&gt;Node7 -->
<g id="edge6" class="edge"><title>Node2&#45;&gt;Node7</title>
<path fill="none" stroke="midnightblue" d="M463.391,-396.949C431.922,-366.401 324.738,-262.354 283.527,-222.349"/>
<polygon fill="midnightblue" stroke="midnightblue" points="285.82,-219.697 276.206,-215.243 280.944,-224.72 285.82,-219.697"/>
</g>
<!-- Node8 -->
<g id="node8" class="node"><title>Node8</title>
<g id="a_node8"><a xlink:href="a00077.html" target="_top" xlink:title="dynamic&#45;graph/fwd.hh">
<polygon fill="white" stroke="black" points="351.7,-62 351.7,-81 464.7,-81 464.7,-62 351.7,-62"/>
<text text-anchor="middle" x="408.2" y="-69" font-family="Helvetica,sans-Serif" font-size="10.00">dynamic&#45;graph/fwd.hh</text>
</a>
</g>
</g>
<!-- Node2&#45;&gt;Node8 -->
<g id="edge7" class="edge"><title>Node2&#45;&gt;Node8</title>
<path fill="none" stroke="midnightblue" d="M414.054,-404.345C327.336,-401.431 169.845,-391.165 128.2,-355 99.6895,-330.241 104.2,-311.26 104.2,-273.5 104.2,-273.5 104.2,-273.5 104.2,-204.5 104.2,-149.776 272.041,-103.498 358.298,-83.3279"/>
<polygon fill="midnightblue" stroke="midnightblue" points="359.187,-86.7147 368.144,-81.056 357.614,-79.8939 359.187,-86.7147"/>
</g>
<!-- Node9 -->
<g id="node9" class="node"><title>Node9</title>
<g id="a_node9"><a xlink:href="a00068.html" target="_top" xlink:title="dynamic&#45;graph/dynamic\l&#45;graph&#45;api.h">
<polygon fill="white" stroke="black" points="682.2,-56.5 682.2,-86.5 802.2,-86.5 802.2,-56.5 682.2,-56.5"/>
<text text-anchor="start" x="690.2" y="-74.5" font-family="Helvetica,sans-Serif" font-size="10.00">dynamic&#45;graph/dynamic</text>
<text text-anchor="middle" x="742.2" y="-63.5" font-family="Helvetica,sans-Serif" font-size="10.00">&#45;graph&#45;api.h</text>
</a>
</g>
</g>
<!-- Node2&#45;&gt;Node9 -->
<g id="edge8" class="edge"><title>Node2&#45;&gt;Node9</title>
<path fill="none" stroke="midnightblue" d="M472.098,-396.856C472.235,-372.445 475.599,-301.846 508.2,-257 513.904,-249.153 641.628,-160.064 649.2,-154 673.833,-134.273 700.841,-110.329 719.374,-93.5146"/>
<polygon fill="midnightblue" stroke="midnightblue" points="721.733,-96.1007 726.767,-86.7782 717.018,-90.9267 721.733,-96.1007"/>
</g>
<!-- Node11 -->
<g id="node11" class="node"><title>Node11</title>
<g id="a_node11"><a xlink:href="a00073.html" target="_top" xlink:title="dynamic&#45;graph/exception\l&#45;factory.h">
<polygon fill="white" stroke="black" points="420.7,-190.5 420.7,-220.5 545.7,-220.5 545.7,-190.5 420.7,-190.5"/>
<text text-anchor="start" x="428.7" y="-208.5" font-family="Helvetica,sans-Serif" font-size="10.00">dynamic&#45;graph/exception</text>
<text text-anchor="middle" x="483.2" y="-197.5" font-family="Helvetica,sans-Serif" font-size="10.00">&#45;factory.h</text>
</a>
</g>
</g>
<!-- Node2&#45;&gt;Node11 -->
<g id="edge10" class="edge"><title>Node2&#45;&gt;Node11</title>
<path fill="none" stroke="midnightblue" d="M468.98,-396.713C465.518,-386.756 460.236,-369.965 458.2,-355 452.328,-311.842 448.277,-299.41 458.2,-257 460.402,-247.588 464.629,-237.917 468.989,-229.591"/>
<polygon fill="midnightblue" stroke="midnightblue" points="472.052,-231.284 473.868,-220.846 465.939,-227.874 472.052,-231.284"/>
</g>
<!-- Node14 -->
<g id="node14" class="node"><title>Node14</title>
<g id="a_node14"><a xlink:href="a00083.html" target="_top" xlink:title="dynamic&#45;graph/signal\l&#45;array.h">
<polygon fill="white" stroke="black" points="652.7,-324.5 652.7,-354.5 761.7,-354.5 761.7,-324.5 652.7,-324.5"/>
<text text-anchor="start" x="660.7" y="-342.5" font-family="Helvetica,sans-Serif" font-size="10.00">dynamic&#45;graph/signal</text>
<text text-anchor="middle" x="707.2" y="-331.5" font-family="Helvetica,sans-Serif" font-size="10.00">&#45;array.h</text>
</a>
</g>
</g>
<!-- Node2&#45;&gt;Node14 -->
<g id="edge19" class="edge"><title>Node2&#45;&gt;Node14</title>
<path fill="none" stroke="midnightblue" d="M503.406,-396.869C539.813,-386.798 600.855,-369.914 646.662,-357.245"/>
<polygon fill="midnightblue" stroke="midnightblue" points="647.778,-360.567 656.483,-354.528 645.912,-353.821 647.778,-360.567"/>
</g>
<!-- Node15 -->
<g id="node15" class="node"><title>Node15</title>
<g id="a_node15"><a xlink:href="a00084.html" target="_top" xlink:title="dynamic&#45;graph/signal\l&#45;base.h">
<polygon fill="white" stroke="black" points="538.7,-257.5 538.7,-287.5 647.7,-287.5 647.7,-257.5 538.7,-257.5"/>
<text text-anchor="start" x="546.7" y="-275.5" font-family="Helvetica,sans-Serif" font-size="10.00">dynamic&#45;graph/signal</text>
<text text-anchor="middle" x="593.2" y="-264.5" font-family="Helvetica,sans-Serif" font-size="10.00">&#45;base.h</text>
</a>
</g>
</g>
<!-- Node2&#45;&gt;Node15 -->
<g id="edge34" class="edge"><title>Node2&#45;&gt;Node15</title>
<path fill="none" stroke="midnightblue" d="M481.675,-396.825C492.309,-386.968 509.941,-370.267 524.2,-355 542.304,-335.617 561.722,-312.445 575.332,-295.773"/>
<polygon fill="midnightblue" stroke="midnightblue" points="578.298,-297.672 581.882,-287.701 572.863,-293.261 578.298,-297.672"/>
</g>
<!-- Node10 -->
<g id="node10" class="node"><title>Node10</title>
<polygon fill="white" stroke="#bfbfbf" points="680.7,-0.5 680.7,-19.5 803.7,-19.5 803.7,-0.5 680.7,-0.5"/>
<text text-anchor="middle" x="742.2" y="-7.5" font-family="Helvetica,sans-Serif" font-size="10.00">dynamic&#45;graph/config.hh</text>
</g>
<!-- Node9&#45;&gt;Node10 -->
<g id="edge9" class="edge"><title>Node9&#45;&gt;Node10</title>
<path fill="none" stroke="midnightblue" d="M742.2,-56.3993C742.2,-48.4664 742.2,-38.458 742.2,-29.8583"/>
<polygon fill="midnightblue" stroke="midnightblue" points="745.7,-29.6577 742.2,-19.6578 738.7,-29.6578 745.7,-29.6577"/>
</g>
<!-- Node11&#45;&gt;Node6 -->
<g id="edge11" class="edge"><title>Node11&#45;&gt;Node6</title>
<path fill="none" stroke="midnightblue" d="M458.907,-190.374C415.006,-164.845 323.003,-111.346 279.693,-86.1614"/>
<polygon fill="midnightblue" stroke="midnightblue" points="281.389,-83.0985 270.984,-81.0973 277.87,-89.1498 281.389,-83.0985"/>
</g>
<!-- Node11&#45;&gt;Node8 -->
<g id="edge12" class="edge"><title>Node11&#45;&gt;Node8</title>
<path fill="none" stroke="midnightblue" d="M464.83,-190.373C453.929,-181.106 440.633,-168.121 432.2,-154 420.413,-134.262 414.082,-108.349 410.933,-91.0956"/>
<polygon fill="midnightblue" stroke="midnightblue" points="414.375,-90.459 409.298,-81.1602 407.468,-91.596 414.375,-90.459"/>
</g>
<!-- Node11&#45;&gt;Node9 -->
<g id="edge13" class="edge"><title>Node11&#45;&gt;Node9</title>
<path fill="none" stroke="midnightblue" d="M522.772,-190.4C547.726,-181.05 580.378,-167.964 608.2,-154 645.587,-135.234 686.361,-109.64 712.991,-92.1711"/>
<polygon fill="midnightblue" stroke="midnightblue" points="715.04,-95.0124 721.454,-86.5802 711.181,-89.1717 715.04,-95.0124"/>
</g>
<!-- Node12 -->
<g id="node12" class="node"><title>Node12</title>
<g id="a_node12"><a xlink:href="a00072.html" target="_top" xlink:title="dynamic&#45;graph/exception\l&#45;abstract.h">
<polygon fill="white" stroke="black" points="474.7,-123.5 474.7,-153.5 599.7,-153.5 599.7,-123.5 474.7,-123.5"/>
<text text-anchor="start" x="482.7" y="-141.5" font-family="Helvetica,sans-Serif" font-size="10.00">dynamic&#45;graph/exception</text>
<text text-anchor="middle" x="537.2" y="-130.5" font-family="Helvetica,sans-Serif" font-size="10.00">&#45;abstract.h</text>
</a>
</g>
</g>
<!-- Node11&#45;&gt;Node12 -->
<g id="edge14" class="edge"><title>Node11&#45;&gt;Node12</title>
<path fill="none" stroke="midnightblue" d="M494.917,-190.396C501.922,-181.963 510.975,-171.067 518.905,-161.522"/>
<polygon fill="midnightblue" stroke="midnightblue" points="521.807,-163.505 525.505,-153.577 516.423,-159.032 521.807,-163.505"/>
</g>
<!-- Node12&#45;&gt;Node6 -->
<g id="edge16" class="edge"><title>Node12&#45;&gt;Node6</title>
<path fill="none" stroke="midnightblue" d="M476.573,-123.476C418.048,-109.938 331.834,-89.9956 286.543,-79.5189"/>
<polygon fill="midnightblue" stroke="midnightblue" points="287.268,-76.0943 276.737,-77.2505 285.69,-82.9142 287.268,-76.0943"/>
</g>
<!-- Node12&#45;&gt;Node8 -->
<g id="edge17" class="edge"><title>Node12&#45;&gt;Node8</title>
<path fill="none" stroke="midnightblue" d="M509.209,-123.396C486.875,-112.142 455.833,-96.501 434.074,-85.5375"/>
<polygon fill="midnightblue" stroke="midnightblue" points="435.588,-82.3812 425.083,-81.007 432.438,-88.6325 435.588,-82.3812"/>
</g>
<!-- Node12&#45;&gt;Node9 -->
<g id="edge18" class="edge"><title>Node12&#45;&gt;Node9</title>
<path fill="none" stroke="midnightblue" d="M581.429,-123.476C612.711,-113.557 654.835,-100.201 688.117,-89.6481"/>
<polygon fill="midnightblue" stroke="midnightblue" points="689.222,-92.9697 697.696,-86.6109 687.106,-86.2971 689.222,-92.9697"/>
</g>
<!-- Node13 -->
<g id="node13" class="node"><title>Node13</title>
<polygon fill="white" stroke="#bfbfbf" points="1186.2,-62 1186.2,-81 1240.2,-81 1240.2,-62 1186.2,-62"/>
<text text-anchor="middle" x="1213.2" y="-69" font-family="Helvetica,sans-Serif" font-size="10.00">iostream</text>
</g>
<!-- Node12&#45;&gt;Node13 -->
<g id="edge15" class="edge"><title>Node12&#45;&gt;Node13</title>
<path fill="none" stroke="midnightblue" d="M599.887,-131.472C738.135,-118.179 1065.67,-86.6852 1176.11,-76.0665"/>
<polygon fill="midnightblue" stroke="midnightblue" points="1176.49,-79.5465 1186.1,-75.1054 1175.81,-72.5786 1176.49,-79.5465"/>
</g>
<!-- Node14&#45;&gt;Node9 -->
<g id="edge31" class="edge"><title>Node14&#45;&gt;Node9</title>
<path fill="none" stroke="midnightblue" d="M711.919,-324.071C715.016,-314.054 718.905,-300.344 721.2,-288 733.947,-219.424 739.248,-137.042 741.2,-96.8955"/>
<polygon fill="midnightblue" stroke="midnightblue" points="744.704,-96.8884 741.665,-86.7387 737.711,-96.5681 744.704,-96.8884"/>
</g>
<!-- Node14&#45;&gt;Node15 -->
<g id="edge20" class="edge"><title>Node14&#45;&gt;Node15</title>
<path fill="none" stroke="midnightblue" d="M682.463,-324.396C666.18,-315.112 644.659,-302.841 626.828,-292.674"/>
<polygon fill="midnightblue" stroke="midnightblue" points="628.309,-289.489 617.888,-287.577 624.841,-295.57 628.309,-289.489"/>
</g>
<!-- Node18 -->
<g id="node18" class="node"><title>Node18</title>
<polygon fill="white" stroke="#bfbfbf" points="1311.2,-196 1311.2,-215 1355.2,-215 1355.2,-196 1311.2,-196"/>
<text text-anchor="middle" x="1333.2" y="-203" font-family="Helvetica,sans-Serif" font-size="10.00">vector</text>
</g>
<!-- Node14&#45;&gt;Node18 -->
<g id="edge32" class="edge"><title>Node14&#45;&gt;Node18</title>
<path fill="none" stroke="midnightblue" d="M761.71,-326.453C766.597,-325.552 771.48,-324.717 776.2,-324 943.92,-298.516 992.359,-331.997 1156.2,-288 1186.52,-279.857 1265.93,-240.675 1307.3,-219.747"/>
<polygon fill="midnightblue" stroke="midnightblue" points="1309.14,-222.738 1316.47,-215.091 1305.97,-216.497 1309.14,-222.738"/>
</g>
<!-- Node19 -->
<g id="node19" class="node"><title>Node19</title>
<polygon fill="white" stroke="#bfbfbf" points="666.2,-263 666.2,-282 712.2,-282 712.2,-263 666.2,-263"/>
<text text-anchor="middle" x="689.2" y="-270" font-family="Helvetica,sans-Serif" font-size="10.00">stdio.h</text>
</g>
<!-- Node14&#45;&gt;Node19 -->
<g id="edge33" class="edge"><title>Node14&#45;&gt;Node19</title>
<path fill="none" stroke="midnightblue" d="M703.294,-324.396C700.654,-314.863 697.142,-302.182 694.285,-291.862"/>
<polygon fill="midnightblue" stroke="midnightblue" points="697.649,-290.898 691.607,-282.195 690.903,-292.766 697.649,-290.898"/>
</g>
<!-- Node15&#45;&gt;Node5 -->
<g id="edge22" class="edge"><title>Node15&#45;&gt;Node5</title>
<path fill="none" stroke="midnightblue" d="M609.04,-257.396C620.76,-246.96 636.718,-232.751 648.795,-221.998"/>
<polygon fill="midnightblue" stroke="midnightblue" points="651.294,-224.459 656.435,-215.195 646.639,-219.231 651.294,-224.459"/>
</g>
<!-- Node15&#45;&gt;Node6 -->
<g id="edge21" class="edge"><title>Node15&#45;&gt;Node6</title>
<path fill="none" stroke="midnightblue" d="M538.612,-266.282C496.469,-260.305 437.986,-247.633 393.2,-221 335.55,-186.717 287.586,-120.796 267.003,-89.6291"/>
<polygon fill="midnightblue" stroke="midnightblue" points="269.885,-87.6401 261.514,-81.1457 264.008,-91.4428 269.885,-87.6401"/>
</g>
<!-- Node15&#45;&gt;Node7 -->
<g id="edge25" class="edge"><title>Node15&#45;&gt;Node7</title>
<path fill="none" stroke="midnightblue" d="M538.635,-260.62C477.807,-248.492 380.108,-229.012 320.003,-217.028"/>
<polygon fill="midnightblue" stroke="midnightblue" points="320.455,-213.55 309.964,-215.027 319.086,-220.414 320.455,-213.55"/>
</g>
<!-- Node15&#45;&gt;Node8 -->
<g id="edge26" class="edge"><title>Node15&#45;&gt;Node8</title>
<path fill="none" stroke="midnightblue" d="M538.303,-263.573C490.626,-255.444 426.835,-241.138 411.2,-221 381.624,-182.905 393.662,-121.21 402.296,-90.7324"/>
<polygon fill="midnightblue" stroke="midnightblue" points="405.689,-91.6031 405.239,-81.0178 398.99,-89.5733 405.689,-91.6031"/>
</g>
<!-- Node15&#45;&gt;Node13 -->
<g id="edge23" class="edge"><title>Node15&#45;&gt;Node13</title>
<path fill="none" stroke="midnightblue" d="M595.758,-257.261C599.857,-238.778 609.732,-206.898 631.2,-190 674.683,-155.772 1054.73,-96.2893 1176.11,-78.0051"/>
<polygon fill="midnightblue" stroke="midnightblue" points="1176.68,-81.459 1186.05,-76.5131 1175.64,-74.5366 1176.68,-81.459"/>
</g>
<!-- Node16 -->
<g id="node16" class="node"><title>Node16</title>
<polygon fill="white" stroke="#bfbfbf" points="1241.7,-196 1241.7,-215 1292.7,-215 1292.7,-196 1241.7,-196"/>
<text text-anchor="middle" x="1267.2" y="-203" font-family="Helvetica,sans-Serif" font-size="10.00">typeinfo</text>
</g>
<!-- Node15&#45;&gt;Node16 -->
<g id="edge24" class="edge"><title>Node15&#45;&gt;Node16</title>
<path fill="none" stroke="midnightblue" d="M647.91,-258.534C651.044,-257.97 654.157,-257.452 657.2,-257 877.142,-224.341 934.978,-243.41 1156.2,-221 1181.46,-218.441 1209.84,-214.719 1231.58,-211.686"/>
<polygon fill="midnightblue" stroke="midnightblue" points="1232.27,-215.124 1241.68,-210.261 1231.29,-208.193 1232.27,-215.124"/>
</g>
<!-- Node17 -->
<g id="node17" class="node"><title>Node17</title>
<g id="a_node17"><a xlink:href="a00074.html" target="_top" xlink:title="dynamic&#45;graph/exception\l&#45;signal.h">
<polygon fill="white" stroke="black" points="786.7,-190.5 786.7,-220.5 911.7,-220.5 911.7,-190.5 786.7,-190.5"/>
<text text-anchor="start" x="794.7" y="-208.5" font-family="Helvetica,sans-Serif" font-size="10.00">dynamic&#45;graph/exception</text>
<text text-anchor="middle" x="849.2" y="-197.5" font-family="Helvetica,sans-Serif" font-size="10.00">&#45;signal.h</text>
</a>
</g>
</g>
<!-- Node15&#45;&gt;Node17 -->
<g id="edge27" class="edge"><title>Node15&#45;&gt;Node17</title>
<path fill="none" stroke="midnightblue" d="M647.804,-257.636C687.636,-247.522 741.791,-233.772 783.912,-223.077"/>
<polygon fill="midnightblue" stroke="midnightblue" points="784.965,-226.421 793.796,-220.567 783.242,-219.636 784.965,-226.421"/>
</g>
<!-- Node17&#45;&gt;Node8 -->
<g id="edge28" class="edge"><title>Node17&#45;&gt;Node8</title>
<path fill="none" stroke="midnightblue" d="M810.681,-190.426C763.351,-173.377 680.432,-144.297 608.2,-123 556.425,-107.735 496.286,-92.939 455.581,-83.3516"/>
<polygon fill="midnightblue" stroke="midnightblue" points="456.202,-79.9025 445.667,-81.0293 454.606,-86.718 456.202,-79.9025"/>
</g>
<!-- Node17&#45;&gt;Node9 -->
<g id="edge29" class="edge"><title>Node17&#45;&gt;Node9</title>
<path fill="none" stroke="midnightblue" d="M837.749,-190.374C819.085,-167.349 781.978,-121.572 759.9,-94.3361"/>
<polygon fill="midnightblue" stroke="midnightblue" points="762.584,-92.0891 753.568,-86.5247 757.146,-96.4971 762.584,-92.0891"/>
</g>
<!-- Node17&#45;&gt;Node12 -->
<g id="edge30" class="edge"><title>Node17&#45;&gt;Node12</title>
<path fill="none" stroke="midnightblue" d="M786.437,-191.424C735.449,-180.802 663.472,-165.807 609.966,-154.66"/>
<polygon fill="midnightblue" stroke="midnightblue" points="610.366,-151.168 599.862,-152.555 608.938,-158.021 610.366,-151.168"/>
</g>
<!-- Node20&#45;&gt;Node13 -->
<g id="edge36" class="edge"><title>Node20&#45;&gt;Node13</title>
<path fill="none" stroke="midnightblue" d="M1258.84,-471.904C1484.14,-468.735 2329.2,-449.581 2329.2,-340.5 2329.2,-340.5 2329.2,-340.5 2329.2,-204.5 2329.2,-131.347 2256.4,-143.563 2186.2,-123 2005.89,-70.1876 1405.84,-71.0052 1250.29,-72.1451"/>
<polygon fill="midnightblue" stroke="midnightblue" points="1250.25,-68.6452 1240.28,-72.2235 1250.31,-75.645 1250.25,-68.6452"/>
</g>
<!-- Node20&#45;&gt;Node17 -->
<g id="edge37" class="edge"><title>Node20&#45;&gt;Node17</title>
<path fill="none" stroke="midnightblue" d="M1151.79,-458.471C1126.22,-450.202 1095.75,-438.154 1071.2,-422 1020.52,-388.659 1019.59,-366.392 976.2,-324 940.914,-289.527 898.636,-250.928 872.858,-227.684"/>
<polygon fill="midnightblue" stroke="midnightblue" points="874.872,-224.788 865.098,-220.701 870.19,-229.992 874.872,-224.788"/>
</g>
<!-- Node21 -->
<g id="node21" class="node"><title>Node21</title>
<g id="a_node21"><a xlink:href="a00091.html" target="_top" xlink:title="dynamic&#45;graph/signal.h">
<polygon fill="white" stroke="black" points="1080.7,-397 1080.7,-416 1197.7,-416 1197.7,-397 1080.7,-397"/>
<text text-anchor="middle" x="1139.2" y="-404" font-family="Helvetica,sans-Serif" font-size="10.00">dynamic&#45;graph/signal.h</text>
</a>
</g>
</g>
<!-- Node20&#45;&gt;Node21 -->
<g id="edge38" class="edge"><title>Node20&#45;&gt;Node21</title>
<path fill="none" stroke="midnightblue" d="M1190.1,-458.396C1179.76,-448.06 1165.72,-434.024 1155.01,-423.309"/>
<polygon fill="midnightblue" stroke="midnightblue" points="1157.44,-420.791 1147.89,-416.195 1152.49,-425.741 1157.44,-420.791"/>
</g>
<!-- Node36 -->
<g id="node36" class="node"><title>Node36</title>
<g id="a_node36"><a xlink:href="a00089.html" target="_top" xlink:title="dynamic&#45;graph/signal\l&#45;ptr.t.cpp">
<polygon fill="white" stroke="black" points="1215.7,-391.5 1215.7,-421.5 1324.7,-421.5 1324.7,-391.5 1215.7,-391.5"/>
<text text-anchor="start" x="1223.7" y="-409.5" font-family="Helvetica,sans-Serif" font-size="10.00">dynamic&#45;graph/signal</text>
<text text-anchor="middle" x="1270.2" y="-398.5" font-family="Helvetica,sans-Serif" font-size="10.00">&#45;ptr.t.cpp</text>
</a>
</g>
</g>
<!-- Node20&#45;&gt;Node36 -->
<g id="edge68" class="edge"><title>Node20&#45;&gt;Node36</title>
<path fill="none" stroke="midnightblue" d="M1212.84,-458.396C1220.6,-449.623 1231.99,-438.183 1242.66,-428.371"/>
<polygon fill="midnightblue" stroke="midnightblue" points="1245.13,-430.859 1250.23,-421.577 1240.45,-425.649 1245.13,-430.859"/>
</g>
<!-- Node21&#45;&gt;Node6 -->
<g id="edge41" class="edge"><title>Node21&#45;&gt;Node6</title>
<path fill="none" stroke="midnightblue" d="M1080.34,-401.504C962.12,-393.209 699.555,-373.362 611.2,-355 422.675,-315.821 312.357,-376.795 199.2,-221 168.477,-178.701 214.365,-117.753 240.357,-88.87"/>
<polygon fill="midnightblue" stroke="midnightblue" points="243.142,-91.0135 247.379,-81.3027 238.011,-86.2517 243.142,-91.0135"/>
</g>
<!-- Node21&#45;&gt;Node13 -->
<g id="edge42" class="edge"><title>Node21&#45;&gt;Node13</title>
<path fill="none" stroke="midnightblue" d="M1176.88,-396.999C1186.72,-394.906 1197.34,-392.762 1207.2,-391 1317.27,-371.33 1345.73,-372.294 1456.2,-355 1810.21,-299.583 2019.84,-494.616 2251.2,-221 2340.1,-115.855 2371.58,-185.839 2064.2,-123 1905.05,-90.4649 1393.16,-76.5956 1250.45,-73.3026"/>
<polygon fill="midnightblue" stroke="midnightblue" points="1250.51,-69.8034 1240.44,-73.0751 1250.36,-76.8015 1250.51,-69.8034"/>
</g>
<!-- Node21&#45;&gt;Node15 -->
<g id="edge44" class="edge"><title>Node21&#45;&gt;Node15</title>
<path fill="none" stroke="midnightblue" d="M1080.53,-400.922C953.22,-390.799 661.499,-366.498 643.2,-355 622.111,-341.75 608.568,-316.037 600.968,-297.021"/>
<polygon fill="midnightblue" stroke="midnightblue" points="604.204,-295.681 597.438,-287.528 597.643,-298.121 604.204,-295.681"/>
</g>
<!-- Node21&#45;&gt;Node17 -->
<g id="edge43" class="edge"><title>Node21&#45;&gt;Node17</title>
<path fill="none" stroke="midnightblue" d="M1130.74,-396.966C1102.6,-368.709 1011.97,-278.747 977.2,-257 955.312,-243.312 929.095,-232.182 906.104,-223.889"/>
<polygon fill="midnightblue" stroke="midnightblue" points="907.065,-220.517 896.47,-220.509 904.748,-227.122 907.065,-220.517"/>
</g>
<!-- Node22 -->
<g id="node22" class="node"><title>Node22</title>
<polygon fill="white" stroke="#bfbfbf" points="1099.2,-330 1099.2,-349 1179.2,-349 1179.2,-330 1099.2,-330"/>
<text text-anchor="middle" x="1139.2" y="-337" font-family="Helvetica,sans-Serif" font-size="10.00">boost/bind.hpp</text>
</g>
<!-- Node21&#45;&gt;Node22 -->
<g id="edge39" class="edge"><title>Node21&#45;&gt;Node22</title>
<path fill="none" stroke="midnightblue" d="M1139.2,-396.734C1139.2,-387.183 1139.2,-371.618 1139.2,-359.283"/>
<polygon fill="midnightblue" stroke="midnightblue" points="1142.7,-359.127 1139.2,-349.127 1135.7,-359.127 1142.7,-359.127"/>
</g>
<!-- Node23 -->
<g id="node23" class="node"><title>Node23</title>
<polygon fill="white" stroke="#bfbfbf" points="1197.7,-330 1197.7,-349 1294.7,-349 1294.7,-330 1197.7,-330"/>
<text text-anchor="middle" x="1246.2" y="-337" font-family="Helvetica,sans-Serif" font-size="10.00">boost/function.hpp</text>
</g>
<!-- Node21&#45;&gt;Node23 -->
<g id="edge40" class="edge"><title>Node21&#45;&gt;Node23</title>
<path fill="none" stroke="midnightblue" d="M1153.63,-396.734C1171.52,-385.867 1202.22,-367.216 1223.33,-354.393"/>
<polygon fill="midnightblue" stroke="midnightblue" points="1225.27,-357.311 1232,-349.127 1221.63,-351.328 1225.27,-357.311"/>
</g>
<!-- Node24 -->
<g id="node24" class="node"><title>Node24</title>
<g id="a_node24"><a xlink:href="a00092.html" target="_top" xlink:title="dynamic&#45;graph/signal.t.cpp">
<polygon fill="white" stroke="black" points="1313.2,-330 1313.2,-349 1447.2,-349 1447.2,-330 1313.2,-330"/>
<text text-anchor="middle" x="1380.2" y="-337" font-family="Helvetica,sans-Serif" font-size="10.00">dynamic&#45;graph/signal.t.cpp</text>
</a>
</g>
</g>
<!-- Node21&#45;&gt;Node24 -->
<g id="edge45" class="edge"><title>Node21&#45;&gt;Node24</title>
<path fill="none" stroke="midnightblue" d="M1166.44,-396.869C1207.2,-385.205 1284.18,-364.402 1333.85,-351.592"/>
<polygon fill="midnightblue" stroke="midnightblue" points="1334.89,-354.939 1343.7,-349.064 1333.15,-348.158 1334.89,-354.939"/>
</g>
<!-- Node24&#45;&gt;Node21 -->
<g id="edge46" class="edge"><title>Node24&#45;&gt;Node21</title>
<path fill="none" stroke="midnightblue" d="M1353.12,-349.083C1312.42,-360.736 1235.31,-381.576 1185.57,-394.404"/>
<polygon fill="midnightblue" stroke="midnightblue" points="1184.52,-391.061 1175.7,-396.936 1186.26,-397.841 1184.52,-391.061"/>
</g>
<!-- Node25 -->
<g id="node25" class="node"><title>Node25</title>
<g id="a_node25"><a xlink:href="a00086.html" target="_top" xlink:title="dynamic&#45;graph/signal\l&#45;caster.h">
<polygon fill="white" stroke="black" points="1464.7,-257.5 1464.7,-287.5 1573.7,-287.5 1573.7,-257.5 1464.7,-257.5"/>
<text text-anchor="start" x="1472.7" y="-275.5" font-family="Helvetica,sans-Serif" font-size="10.00">dynamic&#45;graph/signal</text>
<text text-anchor="middle" x="1519.2" y="-264.5" font-family="Helvetica,sans-Serif" font-size="10.00">&#45;caster.h</text>
</a>
</g>
</g>
<!-- Node24&#45;&gt;Node25 -->
<g id="edge47" class="edge"><title>Node24&#45;&gt;Node25</title>
<path fill="none" stroke="midnightblue" d="M1398.66,-329.869C1419.33,-320.199 1453.44,-304.249 1480.11,-291.778"/>
<polygon fill="midnightblue" stroke="midnightblue" points="1481.63,-294.935 1489.2,-287.528 1478.66,-288.594 1481.63,-294.935"/>
</g>
<!-- Node32 -->
<g id="node32" class="node"><title>Node32</title>
<g id="a_node32"><a xlink:href="a00066.html" target="_top" xlink:title="dynamic&#45;graph/debug.h">
<polygon fill="white" stroke="black" points="1029.2,-263 1029.2,-282 1147.2,-282 1147.2,-263 1029.2,-263"/>
<text text-anchor="middle" x="1088.2" y="-270" font-family="Helvetica,sans-Serif" font-size="10.00">dynamic&#45;graph/debug.h</text>
</a>
</g>
</g>
<!-- Node24&#45;&gt;Node32 -->
<g id="edge60" class="edge"><title>Node24&#45;&gt;Node32</title>
<path fill="none" stroke="midnightblue" d="M1341.73,-329.936C1288.99,-318.196 1194.24,-297.105 1136.7,-284.297"/>
<polygon fill="midnightblue" stroke="midnightblue" points="1137.28,-280.84 1126.76,-282.083 1135.76,-287.673 1137.28,-280.84"/>
</g>
<!-- Node25&#45;&gt;Node4 -->
<g id="edge48" class="edge"><title>Node25&#45;&gt;Node4</title>
<path fill="none" stroke="midnightblue" d="M1491.43,-257.396C1469.26,-246.142 1438.46,-230.501 1416.87,-219.538"/>
<polygon fill="midnightblue" stroke="midnightblue" points="1418.45,-216.414 1407.95,-215.007 1415.28,-222.656 1418.45,-216.414"/>
</g>
<!-- Node25&#45;&gt;Node9 -->
<g id="edge58" class="edge"><title>Node25&#45;&gt;Node9</title>
<path fill="none" stroke="midnightblue" d="M1501.67,-257.166C1473.38,-234.073 1420.6,-191.087 1418.2,-190 1212.15,-96.6151 939.791,-77.1201 812.9,-73.2783"/>
<polygon fill="midnightblue" stroke="midnightblue" points="812.641,-69.7698 802.547,-72.9901 812.446,-76.7671 812.641,-69.7698"/>
</g>
<!-- Node25&#45;&gt;Node13 -->
<g id="edge50" class="edge"><title>Node25&#45;&gt;Node13</title>
<path fill="none" stroke="midnightblue" d="M1573.85,-271.82C1733.28,-272.186 2189.47,-268.995 2234.2,-221 2243.59,-210.92 2243.37,-200.284 2234.2,-190 2167.26,-114.912 1425.92,-80.934 1250.33,-73.9072"/>
<polygon fill="midnightblue" stroke="midnightblue" points="1250.42,-70.408 1240.29,-73.5102 1250.14,-77.4026 1250.42,-70.408"/>
</g>
<!-- Node25&#45;&gt;Node16 -->
<g id="edge49" class="edge"><title>Node25&#45;&gt;Node16</title>
<path fill="none" stroke="midnightblue" d="M1464.58,-261.375C1420.28,-252.55 1356.52,-238.443 1302.2,-221 1300.06,-220.314 1297.87,-219.553 1295.68,-218.749"/>
<polygon fill="midnightblue" stroke="midnightblue" points="1296.83,-215.44 1286.24,-215.054 1294.28,-221.958 1296.83,-215.44"/>
</g>
<!-- Node25&#45;&gt;Node17 -->
<g id="edge59" class="edge"><title>Node25&#45;&gt;Node17</title>
<path fill="none" stroke="midnightblue" d="M1464.67,-267.332C1364.45,-259.505 1144.27,-241.533 959.2,-221 947.234,-219.672 934.555,-218.129 922.223,-216.554"/>
<polygon fill="midnightblue" stroke="midnightblue" points="922.336,-213.039 911.97,-215.227 921.438,-219.981 922.336,-213.039"/>
</g>
<!-- Node25&#45;&gt;Node18 -->
<g id="edge51" class="edge"><title>Node25&#45;&gt;Node18</title>
<path fill="none" stroke="midnightblue" d="M1471.89,-257.447C1441.19,-247.969 1400.47,-234.726 1365.2,-221 1363.78,-220.447 1362.33,-219.864 1360.87,-219.261"/>
<polygon fill="midnightblue" stroke="midnightblue" points="1361.9,-215.891 1351.33,-215.128 1359.11,-222.314 1361.9,-215.891"/>
</g>
<!-- Node26 -->
<g id="node26" class="node"><title>Node26</title>
<polygon fill="white" stroke="#bfbfbf" points="1591.2,-196 1591.2,-215 1669.2,-215 1669.2,-196 1591.2,-196"/>
<text text-anchor="middle" x="1630.2" y="-203" font-family="Helvetica,sans-Serif" font-size="10.00">boost/any.hpp</text>
</g>
<!-- Node25&#45;&gt;Node26 -->
<g id="edge52" class="edge"><title>Node25&#45;&gt;Node26</title>
<path fill="none" stroke="midnightblue" d="M1543.29,-257.396C1562.16,-246.344 1588.26,-231.061 1606.92,-220.132"/>
<polygon fill="midnightblue" stroke="midnightblue" points="1608.81,-223.081 1615.67,-215.007 1605.27,-217.04 1608.81,-223.081"/>
</g>
<!-- Node27 -->
<g id="node27" class="node"><title>Node27</title>
<polygon fill="white" stroke="#bfbfbf" points="1687.2,-196 1687.2,-215 1777.2,-215 1777.2,-196 1687.2,-196"/>
<text text-anchor="middle" x="1732.2" y="-203" font-family="Helvetica,sans-Serif" font-size="10.00">boost/format.hpp</text>
</g>
<!-- Node25&#45;&gt;Node27 -->
<g id="edge53" class="edge"><title>Node25&#45;&gt;Node27</title>
<path fill="none" stroke="midnightblue" d="M1565.16,-257.476C1603.83,-245.673 1658.47,-229.001 1694.58,-217.979"/>
<polygon fill="midnightblue" stroke="midnightblue" points="1695.71,-221.295 1704.25,-215.029 1693.67,-214.6 1695.71,-221.295"/>
</g>
<!-- Node28 -->
<g id="node28" class="node"><title>Node28</title>
<polygon fill="white" stroke="#bfbfbf" points="1795.2,-196 1795.2,-215 1935.2,-215 1935.2,-196 1795.2,-196"/>
<text text-anchor="middle" x="1865.2" y="-203" font-family="Helvetica,sans-Serif" font-size="10.00">boost/function/function1.hpp</text>
</g>
<!-- Node25&#45;&gt;Node28 -->
<g id="edge54" class="edge"><title>Node25&#45;&gt;Node28</title>
<path fill="none" stroke="midnightblue" d="M1574.02,-261.201C1638.51,-249.087 1744.95,-229.091 1809.71,-216.924"/>
<polygon fill="midnightblue" stroke="midnightblue" points="1810.56,-220.327 1819.74,-215.041 1809.26,-213.447 1810.56,-220.327"/>
</g>
<!-- Node29 -->
<g id="node29" class="node"><title>Node29</title>
<polygon fill="white" stroke="#bfbfbf" points="1953.2,-196 1953.2,-215 2093.2,-215 2093.2,-196 1953.2,-196"/>
<text text-anchor="middle" x="2023.2" y="-203" font-family="Helvetica,sans-Serif" font-size="10.00">boost/function/function2.hpp</text>
</g>
<!-- Node25&#45;&gt;Node29 -->
<g id="edge55" class="edge"><title>Node25&#45;&gt;Node29</title>
<path fill="none" stroke="midnightblue" d="M1574.03,-266.106C1655.13,-257.872 1811.77,-241.001 1944.2,-221 1952.34,-219.771 1960.92,-218.339 1969.31,-216.861"/>
<polygon fill="midnightblue" stroke="midnightblue" points="1970.18,-220.26 1979.41,-215.048 1968.95,-213.371 1970.18,-220.26"/>
</g>
<!-- Node30 -->
<g id="node30" class="node"><title>Node30</title>
<polygon fill="white" stroke="#bfbfbf" points="2111.2,-196 2111.2,-215 2225.2,-215 2225.2,-196 2111.2,-196"/>
<text text-anchor="middle" x="2168.2" y="-203" font-family="Helvetica,sans-Serif" font-size="10.00">boost/lexical_cast.hpp</text>
</g>
<!-- Node25&#45;&gt;Node30 -->
<g id="edge56" class="edge"><title>Node25&#45;&gt;Node30</title>
<path fill="none" stroke="midnightblue" d="M1573.73,-269.143C1677.24,-264.145 1909.12,-250.445 2102.2,-221 2109.06,-219.954 2116.27,-218.618 2123.3,-217.182"/>
<polygon fill="midnightblue" stroke="midnightblue" points="2124.37,-220.533 2133.42,-215.027 2122.91,-213.686 2124.37,-220.533"/>
</g>
<!-- Node31 -->
<g id="node31" class="node"><title>Node31</title>
<polygon fill="white" stroke="#bfbfbf" points="1465.7,-196 1465.7,-215 1572.7,-215 1572.7,-196 1465.7,-196"/>
<text text-anchor="middle" x="1519.2" y="-203" font-family="Helvetica,sans-Serif" font-size="10.00">boost/tuple/tuple.hpp</text>
</g>
<!-- Node25&#45;&gt;Node31 -->
<g id="edge57" class="edge"><title>Node25&#45;&gt;Node31</title>
<path fill="none" stroke="midnightblue" d="M1519.2,-257.396C1519.2,-248.064 1519.2,-235.714 1519.2,-225.517"/>
<polygon fill="midnightblue" stroke="midnightblue" points="1522.7,-225.195 1519.2,-215.195 1515.7,-225.195 1522.7,-225.195"/>
</g>
<!-- Node32&#45;&gt;Node5 -->
<g id="edge65" class="edge"><title>Node32&#45;&gt;Node5</title>
<path fill="none" stroke="midnightblue" d="M1029.05,-263.513C960.427,-254.086 843.937,-237.585 744.2,-221 730.584,-218.736 715.676,-216.022 702.574,-213.558"/>
<polygon fill="midnightblue" stroke="midnightblue" points="702.989,-210.075 692.512,-211.649 701.684,-216.952 702.989,-210.075"/>
</g>
<!-- Node32&#45;&gt;Node8 -->
<g id="edge66" class="edge"><title>Node32&#45;&gt;Node8</title>
<path fill="none" stroke="midnightblue" d="M1029.16,-265.936C965.96,-259.053 863.164,-245.174 777.2,-221 742.082,-211.124 736.364,-199.707 701.2,-190 598.923,-161.767 555.324,-209.994 465.2,-154 441.069,-139.008 424.411,-109.622 415.588,-90.5367"/>
<polygon fill="midnightblue" stroke="midnightblue" points="418.701,-88.9176 411.495,-81.1504 412.284,-91.7158 418.701,-88.9176"/>
</g>
<!-- Node32&#45;&gt;Node9 -->
<g id="edge67" class="edge"><title>Node32&#45;&gt;Node9</title>
<path fill="none" stroke="midnightblue" d="M1059.41,-262.972C1032.51,-254.377 991.715,-239.72 959.2,-221 940.011,-209.953 938.123,-203.001 920.2,-190 870.047,-153.623 809.414,-114.603 773.426,-91.9349"/>
<polygon fill="midnightblue" stroke="midnightblue" points="775.158,-88.8901 764.828,-86.5357 771.435,-94.8181 775.158,-88.8901"/>
</g>
<!-- Node32&#45;&gt;Node13 -->
<g id="edge63" class="edge"><title>Node32&#45;&gt;Node13</title>
<path fill="none" stroke="midnightblue" d="M1104.58,-262.935C1119.83,-254.217 1142.24,-239.389 1156.2,-221 1172.32,-199.762 1196.55,-126.071 1207.49,-91.1422"/>
<polygon fill="midnightblue" stroke="midnightblue" points="1210.93,-91.8671 1210.54,-81.2792 1204.24,-89.7954 1210.93,-91.8671"/>
</g>
<!-- Node33 -->
<g id="node33" class="node"><title>Node33</title>
<polygon fill="white" stroke="#bfbfbf" points="968.7,-196 968.7,-215 1011.7,-215 1011.7,-196 968.7,-196"/>
<text text-anchor="middle" x="990.2" y="-203" font-family="Helvetica,sans-Serif" font-size="10.00">cstdio</text>
</g>
<!-- Node32&#45;&gt;Node33 -->
<g id="edge61" class="edge"><title>Node32&#45;&gt;Node33</title>
<path fill="none" stroke="midnightblue" d="M1074.98,-262.734C1058.75,-251.964 1030.98,-233.55 1011.67,-220.739"/>
<polygon fill="midnightblue" stroke="midnightblue" points="1013.48,-217.738 1003.21,-215.127 1009.61,-223.571 1013.48,-217.738"/>
</g>
<!-- Node34 -->
<g id="node34" class="node"><title>Node34</title>
<polygon fill="white" stroke="#bfbfbf" points="1029.7,-196 1029.7,-215 1078.7,-215 1078.7,-196 1029.7,-196"/>
<text text-anchor="middle" x="1054.2" y="-203" font-family="Helvetica,sans-Serif" font-size="10.00">cstdarg</text>
</g>
<!-- Node32&#45;&gt;Node34 -->
<g id="edge62" class="edge"><title>Node32&#45;&gt;Node34</title>
<path fill="none" stroke="midnightblue" d="M1083.61,-262.734C1078.47,-252.89 1069.98,-236.66 1063.44,-224.159"/>
<polygon fill="midnightblue" stroke="midnightblue" points="1066.45,-222.366 1058.71,-215.127 1060.25,-225.611 1066.45,-222.366"/>
</g>
<!-- Node35 -->
<g id="node35" class="node"><title>Node35</title>
<polygon fill="white" stroke="#bfbfbf" points="1097.2,-196 1097.2,-215 1147.2,-215 1147.2,-196 1097.2,-196"/>
<text text-anchor="middle" x="1122.2" y="-203" font-family="Helvetica,sans-Serif" font-size="10.00">fstream</text>
</g>
<!-- Node32&#45;&gt;Node35 -->
<g id="edge64" class="edge"><title>Node32&#45;&gt;Node35</title>
<path fill="none" stroke="midnightblue" d="M1092.79,-262.734C1097.93,-252.89 1106.42,-236.66 1112.96,-224.159"/>
<polygon fill="midnightblue" stroke="midnightblue" points="1116.15,-225.611 1117.69,-215.127 1109.95,-222.366 1116.15,-225.611"/>
</g>
<!-- Node36&#45;&gt;Node20 -->
<g id="edge69" class="edge"><title>Node36&#45;&gt;Node20</title>
<path fill="none" stroke="midnightblue" d="M1261.58,-421.577C1253.83,-430.344 1242.44,-441.783 1231.78,-451.598"/>
<polygon fill="midnightblue" stroke="midnightblue" points="1229.31,-449.113 1224.2,-458.396 1233.98,-454.323 1229.31,-449.113"/>
</g>
<!-- Node36&#45;&gt;Node32 -->
<g id="edge70" class="edge"><title>Node36&#45;&gt;Node32</title>
<path fill="none" stroke="midnightblue" d="M1324.71,-400.37C1393.19,-391.868 1497.1,-370.896 1456.2,-324 1418.22,-280.449 1253.06,-273.126 1157.4,-272.65"/>
<polygon fill="midnightblue" stroke="midnightblue" points="1157.24,-269.15 1147.23,-272.624 1157.22,-276.15 1157.24,-269.15"/>
</g>
<!-- Node37&#45;&gt;Node21 -->
<g id="edge72" class="edge"><title>Node37&#45;&gt;Node21</title>
<path fill="none" stroke="midnightblue" d="M1011.57,-458.396C1040.42,-446.89 1080.78,-430.797 1108.34,-419.807"/>
<polygon fill="midnightblue" stroke="midnightblue" points="1109.87,-422.962 1117.87,-416.007 1107.28,-416.46 1109.87,-422.962"/>
</g>
<!-- Node38 -->
<g id="node38" class="node"><title>Node38</title>
<g id="a_node38"><a xlink:href="a00093.html" target="_top" xlink:title="dynamic&#45;graph/time\l&#45;dependency.h">
<polygon fill="white" stroke="black" points="824.2,-391.5 824.2,-421.5 926.2,-421.5 926.2,-391.5 824.2,-391.5"/>
<text text-anchor="start" x="832.2" y="-409.5" font-family="Helvetica,sans-Serif" font-size="10.00">dynamic&#45;graph/time</text>
<text text-anchor="middle" x="875.2" y="-398.5" font-family="Helvetica,sans-Serif" font-size="10.00">&#45;dependency.h</text>
</a>
</g>
</g>
<!-- Node37&#45;&gt;Node38 -->
<g id="edge73" class="edge"><title>Node37&#45;&gt;Node38</title>
<path fill="none" stroke="midnightblue" d="M954.284,-458.396C940.123,-449.282 921.489,-437.29 905.866,-427.236"/>
<polygon fill="midnightblue" stroke="midnightblue" points="907.376,-424.045 897.072,-421.577 903.587,-429.932 907.376,-424.045"/>
</g>
<!-- Node38&#45;&gt;Node8 -->
<g id="edge76" class="edge"><title>Node38&#45;&gt;Node8</title>
<path fill="none" stroke="midnightblue" d="M824.064,-402.794C696.857,-395.775 373.207,-376.062 329.2,-355 244.988,-314.696 152.058,-270.584 199.2,-190 233.979,-130.548 311.115,-98.8614 361.322,-83.8853"/>
<polygon fill="midnightblue" stroke="midnightblue" points="362.339,-87.2348 370.984,-81.1096 360.406,-80.5069 362.339,-87.2348"/>
</g>
<!-- Node38&#45;&gt;Node13 -->
<g id="edge75" class="edge"><title>Node38&#45;&gt;Node13</title>
<path fill="none" stroke="midnightblue" d="M913.611,-391.487C986.427,-364.629 1138.86,-306.893 1156.2,-288 1208.24,-231.311 1213.82,-132.676 1213.73,-91.4547"/>
<polygon fill="midnightblue" stroke="midnightblue" points="1217.22,-91.1743 1213.58,-81.2269 1210.22,-91.2773 1217.22,-91.1743"/>
</g>
<!-- Node38&#45;&gt;Node14 -->
<g id="edge78" class="edge"><title>Node38&#45;&gt;Node14</title>
<path fill="none" stroke="midnightblue" d="M838.746,-391.396C813.649,-381.686 780.109,-368.709 753.177,-358.289"/>
<polygon fill="midnightblue" stroke="midnightblue" points="754.171,-354.921 743.582,-354.577 751.645,-361.449 754.171,-354.921"/>
</g>
<!-- Node38&#45;&gt;Node15 -->
<g id="edge77" class="edge"><title>Node38&#45;&gt;Node15</title>
<path fill="none" stroke="midnightblue" d="M824.091,-402.386C755.779,-397.146 639.845,-384.136 610.2,-355 595.276,-340.332 591.794,-316.19 591.587,-297.979"/>
<polygon fill="midnightblue" stroke="midnightblue" points="595.09,-297.872 591.794,-287.803 588.091,-297.729 595.09,-297.872"/>
</g>
<!-- Node39 -->
<g id="node39" class="node"><title>Node39</title>
<polygon fill="white" stroke="#bfbfbf" points="818.7,-330 818.7,-349 847.7,-349 847.7,-330 818.7,-330"/>
<text text-anchor="middle" x="833.2" y="-337" font-family="Helvetica,sans-Serif" font-size="10.00">list</text>
</g>
<!-- Node38&#45;&gt;Node39 -->
<g id="edge74" class="edge"><title>Node38&#45;&gt;Node39</title>
<path fill="none" stroke="midnightblue" d="M866.086,-391.396C859.732,-381.562 851.213,-368.378 844.438,-357.892"/>
<polygon fill="midnightblue" stroke="midnightblue" points="847.185,-355.694 838.818,-349.195 841.305,-359.493 847.185,-355.694"/>
</g>
<!-- Node40 -->
<g id="node40" class="node"><title>Node40</title>
<g id="a_node40"><a xlink:href="a00094.html" target="_top" xlink:title="dynamic&#45;graph/time\l&#45;dependency.t.cpp">
<polygon fill="white" stroke="black" points="865.2,-324.5 865.2,-354.5 967.2,-354.5 967.2,-324.5 865.2,-324.5"/>
<text text-anchor="start" x="873.2" y="-342.5" font-family="Helvetica,sans-Serif" font-size="10.00">dynamic&#45;graph/time</text>
<text text-anchor="middle" x="916.2" y="-331.5" font-family="Helvetica,sans-Serif" font-size="10.00">&#45;dependency.t.cpp</text>
</a>
</g>
</g>
<!-- Node38&#45;&gt;Node40 -->
<g id="edge79" class="edge"><title>Node38&#45;&gt;Node40</title>
<path fill="none" stroke="midnightblue" d="M878.418,-391.396C882.588,-383.049 889.12,-372.287 895.68,-362.811"/>
<polygon fill="midnightblue" stroke="midnightblue" points="898.614,-364.728 901.646,-354.577 892.945,-360.621 898.614,-364.728"/>
</g>
<!-- Node40&#45;&gt;Node32 -->
<g id="edge81" class="edge"><title>Node40&#45;&gt;Node32</title>
<path fill="none" stroke="midnightblue" d="M953.521,-324.396C984.101,-312.84 1026.92,-296.656 1056.01,-285.663"/>
<polygon fill="midnightblue" stroke="midnightblue" points="1057.57,-288.816 1065.69,-282.007 1055.1,-282.268 1057.57,-288.816"/>
</g>
<!-- Node40&#45;&gt;Node38 -->
<g id="edge80" class="edge"><title>Node40&#45;&gt;Node38</title>
<path fill="none" stroke="midnightblue" d="M912.996,-354.577C908.83,-362.919 902.301,-373.679 895.741,-383.157"/>
<polygon fill="midnightblue" stroke="midnightblue" points="892.805,-381.244 889.775,-391.396 898.475,-385.35 892.805,-381.244"/>
</g>
</g>
</svg>
