<?xml version="1.0" encoding="UTF-8" standalone="no"?>
<!DOCTYPE svg PUBLIC "-//W3C//DTD SVG 1.1//EN"
 "http://www.w3.org/Graphics/SVG/1.1/DTD/svg11.dtd">
<!-- Generated by graphviz version 2.38.0 (20140413.2041)
 -->
<!-- Title: eigen&#45;io.h Pages: 1 -->
<svg width="697pt" height="285pt"
 viewBox="0.00 0.00 696.50 285.00" xmlns="http://www.w3.org/2000/svg" xmlns:xlink="http://www.w3.org/1999/xlink">
<g id="graph0" class="graph" transform="scale(1 1) rotate(0) translate(4 281)">
<title>eigen&#45;io.h</title>
<polygon fill="white" stroke="none" points="-4,4 -4,-281 692.5,-281 692.5,4 -4,4"/>
<!-- Node1 -->
<g id="node1" class="node"><title>Node1</title>
<polygon fill="#bfbfbf" stroke="black" points="333.5,-257.5 333.5,-276.5 392.5,-276.5 392.5,-257.5 333.5,-257.5"/>
<text text-anchor="middle" x="363" y="-264.5" font-family="Helvetica,sans-Serif" font-size="10.00">eigen&#45;io.h</text>
</g>
<!-- Node2 -->
<g id="node2" class="node"><title>Node2</title>
<polygon fill="white" stroke="#bfbfbf" points="0,-62 0,-81 54,-81 54,-62 0,-62"/>
<text text-anchor="middle" x="27" y="-69" font-family="Helvetica,sans-Serif" font-size="10.00">iostream</text>
</g>
<!-- Node1&#45;&gt;Node2 -->
<g id="edge1" class="edge"><title>Node1&#45;&gt;Node2</title>
<path fill="none" stroke="midnightblue" d="M333.142,-264.191C272.657,-260.002 138.319,-247.868 102,-221 58.1738,-188.578 38.2031,-123.241 30.7348,-91.1491"/>
<polygon fill="midnightblue" stroke="midnightblue" points="34.1371,-90.323 28.596,-81.2926 27.2963,-91.8075 34.1371,-90.323"/>
</g>
<!-- Node3 -->
<g id="node3" class="node"><title>Node3</title>
<polygon fill="white" stroke="#bfbfbf" points="255,-196 255,-215 345,-215 345,-196 255,-196"/>
<text text-anchor="middle" x="300" y="-203" font-family="Helvetica,sans-Serif" font-size="10.00">boost/format.hpp</text>
</g>
<!-- Node1&#45;&gt;Node3 -->
<g id="edge2" class="edge"><title>Node1&#45;&gt;Node3</title>
<path fill="none" stroke="midnightblue" d="M353.974,-257.475C344.243,-248.285 328.542,-233.456 316.577,-222.156"/>
<polygon fill="midnightblue" stroke="midnightblue" points="318.683,-219.331 309.01,-215.009 313.877,-224.42 318.683,-219.331"/>
</g>
<!-- Node4 -->
<g id="node4" class="node"><title>Node4</title>
<polygon fill="white" stroke="#bfbfbf" points="363,-190.5 363,-220.5 491,-220.5 491,-190.5 363,-190.5"/>
<text text-anchor="start" x="371" y="-208.5" font-family="Helvetica,sans-Serif" font-size="10.00">boost/numeric/conversion</text>
<text text-anchor="middle" x="427" y="-197.5" font-family="Helvetica,sans-Serif" font-size="10.00">/cast.hpp</text>
</g>
<!-- Node1&#45;&gt;Node4 -->
<g id="edge3" class="edge"><title>Node1&#45;&gt;Node4</title>
<path fill="none" stroke="midnightblue" d="M372.17,-257.475C380.595,-249.643 393.425,-237.714 404.556,-227.366"/>
<polygon fill="midnightblue" stroke="midnightblue" points="406.976,-229.895 411.916,-220.523 402.209,-224.769 406.976,-229.895"/>
</g>
<!-- Node5 -->
<g id="node5" class="node"><title>Node5</title>
<g id="a_node5"><a xlink:href="a00074.html" target="_top" xlink:title="dynamic&#45;graph/exception\l&#45;signal.h">
<polygon fill="white" stroke="black" points="111.5,-190.5 111.5,-220.5 236.5,-220.5 236.5,-190.5 111.5,-190.5"/>
<text text-anchor="start" x="119.5" y="-208.5" font-family="Helvetica,sans-Serif" font-size="10.00">dynamic&#45;graph/exception</text>
<text text-anchor="middle" x="174" y="-197.5" font-family="Helvetica,sans-Serif" font-size="10.00">&#45;signal.h</text>
</a>
</g>
</g>
<!-- Node1&#45;&gt;Node5 -->
<g id="edge4" class="edge"><title>Node1&#45;&gt;Node5</title>
<path fill="none" stroke="midnightblue" d="M335.921,-257.475C307.931,-248.664 263.476,-234.668 228.222,-223.57"/>
<polygon fill="midnightblue" stroke="midnightblue" points="229.133,-220.187 218.544,-220.523 227.031,-226.864 229.133,-220.187"/>
</g>
<!-- Node11 -->
<g id="node11" class="node"><title>Node11</title>
<g id="a_node11"><a xlink:href="a00078.html" target="_top" xlink:title="dynamic&#45;graph/linear\l&#45;algebra.h">
<polygon fill="white" stroke="black" points="509.5,-190.5 509.5,-220.5 616.5,-220.5 616.5,-190.5 509.5,-190.5"/>
<text text-anchor="start" x="517.5" y="-208.5" font-family="Helvetica,sans-Serif" font-size="10.00">dynamic&#45;graph/linear</text>
<text text-anchor="middle" x="563" y="-197.5" font-family="Helvetica,sans-Serif" font-size="10.00">&#45;algebra.h</text>
</a>
</g>
</g>
<!-- Node1&#45;&gt;Node11 -->
<g id="edge13" class="edge"><title>Node1&#45;&gt;Node11</title>
<path fill="none" stroke="midnightblue" d="M391.655,-257.475C421.4,-248.626 468.719,-234.549 506.1,-223.428"/>
<polygon fill="midnightblue" stroke="midnightblue" points="507.277,-226.729 515.864,-220.523 505.281,-220.02 507.277,-226.729"/>
</g>
<!-- Node13 -->
<g id="node13" class="node"><title>Node13</title>
<polygon fill="white" stroke="#bfbfbf" points="601.5,-129 601.5,-148 688.5,-148 688.5,-129 601.5,-129"/>
<text text-anchor="middle" x="645" y="-136" font-family="Helvetica,sans-Serif" font-size="10.00">Eigen/Geometry</text>
</g>
<!-- Node1&#45;&gt;Node13 -->
<g id="edge16" class="edge"><title>Node1&#45;&gt;Node13</title>
<path fill="none" stroke="midnightblue" d="M392.568,-264.892C453.822,-261.983 591.657,-252.07 625,-221 642.124,-205.043 645.632,-177.017 645.87,-158.354"/>
<polygon fill="midnightblue" stroke="midnightblue" points="649.365,-158.071 645.688,-148.135 642.366,-158.196 649.365,-158.071"/>
</g>
<!-- Node6 -->
<g id="node6" class="node"><title>Node6</title>
<g id="a_node6"><a xlink:href="a00077.html" target="_top" xlink:title="dynamic&#45;graph/fwd.hh">
<polygon fill="white" stroke="black" points="72.5,-62 72.5,-81 185.5,-81 185.5,-62 72.5,-62"/>
<text text-anchor="middle" x="129" y="-69" font-family="Helvetica,sans-Serif" font-size="10.00">dynamic&#45;graph/fwd.hh</text>
</a>
</g>
</g>
<!-- Node5&#45;&gt;Node6 -->
<g id="edge5" class="edge"><title>Node5&#45;&gt;Node6</title>
<path fill="none" stroke="midnightblue" d="M165.513,-190.344C159.884,-180.45 152.695,-166.773 148,-154 140.343,-133.17 135.059,-108.182 132.043,-91.4131"/>
<polygon fill="midnightblue" stroke="midnightblue" points="135.444,-90.54 130.315,-81.2697 128.544,-91.7154 135.444,-90.54"/>
</g>
<!-- Node7 -->
<g id="node7" class="node"><title>Node7</title>
<g id="a_node7"><a xlink:href="a00068.html" target="_top" xlink:title="dynamic&#45;graph/dynamic\l&#45;graph&#45;api.h">
<polygon fill="white" stroke="black" points="263,-56.5 263,-86.5 383,-86.5 383,-56.5 263,-56.5"/>
<text text-anchor="start" x="271" y="-74.5" font-family="Helvetica,sans-Serif" font-size="10.00">dynamic&#45;graph/dynamic</text>
<text text-anchor="middle" x="323" y="-63.5" font-family="Helvetica,sans-Serif" font-size="10.00">&#45;graph&#45;api.h</text>
</a>
</g>
</g>
<!-- Node5&#45;&gt;Node7 -->
<g id="edge6" class="edge"><title>Node5&#45;&gt;Node7</title>
<path fill="none" stroke="midnightblue" d="M229.742,-190.493C251.186,-182.738 274.465,-171.095 291,-154 306.212,-138.273 314.434,-114.465 318.718,-96.6363"/>
<polygon fill="midnightblue" stroke="midnightblue" points="322.177,-97.1972 320.855,-86.6851 315.333,-95.7269 322.177,-97.1972"/>
</g>
<!-- Node9 -->
<g id="node9" class="node"><title>Node9</title>
<g id="a_node9"><a xlink:href="a00072.html" target="_top" xlink:title="dynamic&#45;graph/exception\l&#45;abstract.h">
<polygon fill="white" stroke="black" points="157.5,-123.5 157.5,-153.5 282.5,-153.5 282.5,-123.5 157.5,-123.5"/>
<text text-anchor="start" x="165.5" y="-141.5" font-family="Helvetica,sans-Serif" font-size="10.00">dynamic&#45;graph/exception</text>
<text text-anchor="middle" x="220" y="-130.5" font-family="Helvetica,sans-Serif" font-size="10.00">&#45;abstract.h</text>
</a>
</g>
</g>
<!-- Node5&#45;&gt;Node9 -->
<g id="edge8" class="edge"><title>Node5&#45;&gt;Node9</title>
<path fill="none" stroke="midnightblue" d="M183.981,-190.396C189.889,-182.049 197.504,-171.287 204.21,-161.811"/>
<polygon fill="midnightblue" stroke="midnightblue" points="207.118,-163.761 210.038,-153.577 201.404,-159.717 207.118,-163.761"/>
</g>
<!-- Node8 -->
<g id="node8" class="node"><title>Node8</title>
<polygon fill="white" stroke="#bfbfbf" points="261.5,-0.5 261.5,-19.5 384.5,-19.5 384.5,-0.5 261.5,-0.5"/>
<text text-anchor="middle" x="323" y="-7.5" font-family="Helvetica,sans-Serif" font-size="10.00">dynamic&#45;graph/config.hh</text>
</g>
<!-- Node7&#45;&gt;Node8 -->
<g id="edge7" class="edge"><title>Node7&#45;&gt;Node8</title>
<path fill="none" stroke="midnightblue" d="M323,-56.3993C323,-48.4664 323,-38.458 323,-29.8583"/>
<polygon fill="midnightblue" stroke="midnightblue" points="326.5,-29.6577 323,-19.6578 319.5,-29.6578 326.5,-29.6577"/>
</g>
<!-- Node9&#45;&gt;Node2 -->
<g id="edge9" class="edge"><title>Node9&#45;&gt;Node2</title>
<path fill="none" stroke="midnightblue" d="M173.333,-123.451C141.948,-113.768 99.7529,-100.293 63,-87 61.0991,-86.3125 59.1494,-85.587 57.1884,-84.8418"/>
<polygon fill="midnightblue" stroke="midnightblue" points="58.0506,-81.4209 47.4628,-81.0373 55.5005,-87.9399 58.0506,-81.4209"/>
</g>
<!-- Node9&#45;&gt;Node6 -->
<g id="edge11" class="edge"><title>Node9&#45;&gt;Node6</title>
<path fill="none" stroke="midnightblue" d="M200.254,-123.396C185.135,-112.597 164.359,-97.7564 149.142,-86.8872"/>
<polygon fill="midnightblue" stroke="midnightblue" points="151.082,-83.9714 140.91,-81.007 147.013,-89.6675 151.082,-83.9714"/>
</g>
<!-- Node9&#45;&gt;Node7 -->
<g id="edge12" class="edge"><title>Node9&#45;&gt;Node7</title>
<path fill="none" stroke="midnightblue" d="M242.349,-123.396C256.927,-114.197 276.15,-102.066 292.172,-91.9546"/>
<polygon fill="midnightblue" stroke="midnightblue" points="294.105,-94.8733 300.694,-86.5765 290.369,-88.9535 294.105,-94.8733"/>
</g>
<!-- Node10 -->
<g id="node10" class="node"><title>Node10</title>
<polygon fill="white" stroke="#bfbfbf" points="203.5,-62 203.5,-81 244.5,-81 244.5,-62 203.5,-62"/>
<text text-anchor="middle" x="224" y="-69" font-family="Helvetica,sans-Serif" font-size="10.00">string</text>
</g>
<!-- Node9&#45;&gt;Node10 -->
<g id="edge10" class="edge"><title>Node9&#45;&gt;Node10</title>
<path fill="none" stroke="midnightblue" d="M220.868,-123.396C221.448,-113.963 222.219,-101.448 222.85,-91.1891"/>
<polygon fill="midnightblue" stroke="midnightblue" points="226.344,-91.3907 223.465,-81.1945 219.357,-90.9606 226.344,-91.3907"/>
</g>
<!-- Node12 -->
<g id="node12" class="node"><title>Node12</title>
<polygon fill="white" stroke="#bfbfbf" points="518.5,-129 518.5,-148 583.5,-148 583.5,-129 518.5,-129"/>
<text text-anchor="middle" x="551" y="-136" font-family="Helvetica,sans-Serif" font-size="10.00">Eigen/Core</text>
</g>
<!-- Node11&#45;&gt;Node12 -->
<g id="edge14" class="edge"><title>Node11&#45;&gt;Node12</title>
<path fill="none" stroke="midnightblue" d="M560.396,-190.396C558.655,-180.963 556.344,-168.448 554.45,-158.189"/>
<polygon fill="midnightblue" stroke="midnightblue" points="557.863,-157.393 552.605,-148.195 550.979,-158.664 557.863,-157.393"/>
</g>
<!-- Node11&#45;&gt;Node13 -->
<g id="edge15" class="edge"><title>Node11&#45;&gt;Node13</title>
<path fill="none" stroke="midnightblue" d="M580.793,-190.396C594.085,-179.86 612.229,-165.477 625.839,-154.689"/>
<polygon fill="midnightblue" stroke="midnightblue" points="628.369,-157.149 634.032,-148.195 624.021,-151.664 628.369,-157.149"/>
</g>
</g>
</svg>
