<?xml version="1.0" encoding="UTF-8" standalone="no"?>
<!DOCTYPE svg PUBLIC "-//W3C//DTD SVG 1.1//EN"
 "http://www.w3.org/Graphics/SVG/1.1/DTD/svg11.dtd">
<!-- Generated by graphviz version 2.38.0 (20140413.2041)
 -->
<!-- Title: dynamicgraph::DebugTrace Pages: 1 -->
<svg width="342pt" height="442pt"
 viewBox="0.00 0.00 341.50 442.00" xmlns="http://www.w3.org/2000/svg" xmlns:xlink="http://www.w3.org/1999/xlink">
<g id="graph0" class="graph" transform="scale(1 1) rotate(0) translate(4 438)">
<title>dynamicgraph::DebugTrace</title>
<polygon fill="white" stroke="none" points="-4,4 -4,-438 337.5,-438 337.5,4 -4,4"/>
<!-- Node1 -->
<g id="node1" class="node"><title>Node1</title>
<polygon fill="#bfbfbf" stroke="black" points="169,-0.5 169,-19.5 306,-19.5 306,-0.5 169,-0.5"/>
<text text-anchor="middle" x="237.5" y="-7.5" font-family="Helvetica,sans-Serif" font-size="10.00">dynamicgraph::DebugTrace</text>
</g>
<!-- Node2 -->
<g id="node2" class="node"><title>Node2</title>
<g id="a_node2"><a xlink:title="STL class. ">
<polygon fill="white" stroke="#bfbfbf" points="149.5,-67.5 149.5,-86.5 239.5,-86.5 239.5,-67.5 149.5,-67.5"/>
<text text-anchor="middle" x="194.5" y="-74.5" font-family="Helvetica,sans-Serif" font-size="10.00">std::stringstream</text>
</a>
</g>
</g>
<!-- Node2&#45;&gt;Node1 -->
<g id="edge1" class="edge"><title>Node2&#45;&gt;Node1</title>
<path fill="none" stroke="#9a32cd" stroke-dasharray="5,2" d="M201.643,-58.0585C204.596,-51.5067 208.313,-44.1904 212.5,-38 216.938,-31.4383 222.942,-24.8985 227.954,-19.899"/>
<polygon fill="#9a32cd" stroke="#9a32cd" points="198.342,-56.8793 197.674,-67.453 204.79,-59.604 198.342,-56.8793"/>
<text text-anchor="middle" x="235" y="-41" font-family="Helvetica,sans-Serif" font-size="10.00"> tmpbuffer</text>
</g>
<!-- Node3 -->
<g id="node3" class="node"><title>Node3</title>
<g id="a_node3"><a xlink:title="STL class. ">
<polygon fill="white" stroke="#bfbfbf" points="123,-134.5 123,-164.5 242,-164.5 242,-134.5 123,-134.5"/>
<text text-anchor="start" x="131" y="-152.5" font-family="Helvetica,sans-Serif" font-size="10.00">std::basic_stringstream</text>
<text text-anchor="middle" x="182.5" y="-141.5" font-family="Helvetica,sans-Serif" font-size="10.00">&lt; char &gt;</text>
</a>
</g>
</g>
<!-- Node3&#45;&gt;Node2 -->
<g id="edge2" class="edge"><title>Node3&#45;&gt;Node2</title>
<path fill="none" stroke="midnightblue" d="M186.655,-124.091C188.847,-111.214 191.403,-96.1974 192.986,-86.8932"/>
<polygon fill="midnightblue" stroke="midnightblue" points="183.156,-123.788 184.928,-134.233 190.057,-124.962 183.156,-123.788"/>
</g>
<!-- Node4 -->
<g id="node4" class="node"><title>Node4</title>
<g id="a_node4"><a xlink:title="STL class. ">
<polygon fill="white" stroke="#bfbfbf" points="114.5,-221.5 114.5,-251.5 216.5,-251.5 216.5,-221.5 114.5,-221.5"/>
<text text-anchor="start" x="122.5" y="-239.5" font-family="Helvetica,sans-Serif" font-size="10.00">std::basic_iostream</text>
<text text-anchor="middle" x="165.5" y="-228.5" font-family="Helvetica,sans-Serif" font-size="10.00">&lt; Char &gt;</text>
</a>
</g>
</g>
<!-- Node4&#45;&gt;Node3 -->
<g id="edge3" class="edge"><title>Node4&#45;&gt;Node3</title>
<path fill="none" stroke="midnightblue" d="M170.345,-211.275C173.368,-196.161 177.153,-177.237 179.689,-164.557"/>
<polygon fill="midnightblue" stroke="midnightblue" points="166.836,-210.972 168.307,-221.464 173.7,-212.345 166.836,-210.972"/>
</g>
<!-- Node5 -->
<g id="node5" class="node"><title>Node5</title>
<g id="a_node5"><a xlink:title="STL class. ">
<polygon fill="white" stroke="#bfbfbf" points="0,-289.5 0,-319.5 97,-319.5 97,-289.5 0,-289.5"/>
<text text-anchor="start" x="8" y="-307.5" font-family="Helvetica,sans-Serif" font-size="10.00">std::basic_istream</text>
<text text-anchor="middle" x="48.5" y="-296.5" font-family="Helvetica,sans-Serif" font-size="10.00">&lt; Char &gt;</text>
</a>
</g>
</g>
<!-- Node5&#45;&gt;Node4 -->
<g id="edge4" class="edge"><title>Node5&#45;&gt;Node4</title>
<path fill="none" stroke="midnightblue" d="M82.3378,-284.412C100.887,-273.948 123.487,-261.2 140.442,-251.635"/>
<polygon fill="midnightblue" stroke="midnightblue" points="80.5896,-281.38 73.5994,-289.341 84.0289,-287.477 80.5896,-281.38"/>
</g>
<!-- Node6 -->
<g id="node6" class="node"><title>Node6</title>
<g id="a_node6"><a xlink:title="STL class. ">
<polygon fill="white" stroke="#bfbfbf" points="107.5,-357.5 107.5,-376.5 223.5,-376.5 223.5,-357.5 107.5,-357.5"/>
<text text-anchor="middle" x="165.5" y="-364.5" font-family="Helvetica,sans-Serif" font-size="10.00">std::basic_ios&lt; Char &gt;</text>
</a>
</g>
</g>
<!-- Node6&#45;&gt;Node5 -->
<g id="edge5" class="edge"><title>Node6&#45;&gt;Node5</title>
<path fill="none" stroke="midnightblue" d="M140.017,-352.823C121.029,-343.005 95.1426,-329.619 75.7456,-319.589"/>
<polygon fill="midnightblue" stroke="midnightblue" points="138.495,-355.976 148.985,-357.46 141.71,-349.758 138.495,-355.976"/>
</g>
<!-- Node8 -->
<g id="node8" class="node"><title>Node8</title>
<g id="a_node8"><a xlink:title="STL class. ">
<polygon fill="white" stroke="#bfbfbf" points="115.5,-289.5 115.5,-319.5 215.5,-319.5 215.5,-289.5 115.5,-289.5"/>
<text text-anchor="start" x="123.5" y="-307.5" font-family="Helvetica,sans-Serif" font-size="10.00">std::basic_ostream</text>
<text text-anchor="middle" x="165.5" y="-296.5" font-family="Helvetica,sans-Serif" font-size="10.00">&lt; Char &gt;</text>
</a>
</g>
</g>
<!-- Node6&#45;&gt;Node8 -->
<g id="edge8" class="edge"><title>Node6&#45;&gt;Node8</title>
<path fill="none" stroke="midnightblue" d="M165.5,-347.215C165.5,-338.356 165.5,-327.958 165.5,-319.759"/>
<polygon fill="midnightblue" stroke="midnightblue" points="162,-347.332 165.5,-357.332 169,-347.332 162,-347.332"/>
</g>
<!-- Node10 -->
<g id="node10" class="node"><title>Node10</title>
<g id="a_node10"><a xlink:title="STL class. ">
<polygon fill="white" stroke="#bfbfbf" points="233.5,-289.5 233.5,-319.5 333.5,-319.5 333.5,-289.5 233.5,-289.5"/>
<text text-anchor="start" x="241.5" y="-307.5" font-family="Helvetica,sans-Serif" font-size="10.00">std::basic_ostream</text>
<text text-anchor="middle" x="283.5" y="-296.5" font-family="Helvetica,sans-Serif" font-size="10.00">&lt; char &gt;</text>
</a>
</g>
</g>
<!-- Node6&#45;&gt;Node10 -->
<g id="edge11" class="edge"><title>Node6&#45;&gt;Node10</title>
<path fill="none" stroke="midnightblue" d="M191.201,-352.823C210.351,-343.005 236.459,-329.619 256.022,-319.589"/>
<polygon fill="midnightblue" stroke="midnightblue" points="189.458,-349.783 182.156,-357.46 192.652,-356.012 189.458,-349.783"/>
</g>
<!-- Node7 -->
<g id="node7" class="node"><title>Node7</title>
<g id="a_node7"><a xlink:title="STL class. ">
<polygon fill="white" stroke="#bfbfbf" points="128,-414.5 128,-433.5 203,-433.5 203,-414.5 128,-414.5"/>
<text text-anchor="middle" x="165.5" y="-421.5" font-family="Helvetica,sans-Serif" font-size="10.00">std::ios_base</text>
</a>
</g>
</g>
<!-- Node7&#45;&gt;Node6 -->
<g id="edge6" class="edge"><title>Node7&#45;&gt;Node6</title>
<path fill="none" stroke="midnightblue" d="M165.5,-404.117C165.5,-394.817 165.5,-384.056 165.5,-376.715"/>
<polygon fill="midnightblue" stroke="midnightblue" points="162,-404.406 165.5,-414.406 169,-404.406 162,-404.406"/>
</g>
<!-- Node8&#45;&gt;Node4 -->
<g id="edge7" class="edge"><title>Node8&#45;&gt;Node4</title>
<path fill="none" stroke="midnightblue" d="M165.5,-279.032C165.5,-269.861 165.5,-259.745 165.5,-251.793"/>
<polygon fill="midnightblue" stroke="midnightblue" points="162,-279.179 165.5,-289.179 169,-279.179 162,-279.179"/>
</g>
<!-- Node9 -->
<g id="node9" class="node"><title>Node9</title>
<g id="a_node9"><a xlink:title="STL class. ">
<polygon fill="white" stroke="#bfbfbf" points="240,-183.5 240,-202.5 311,-202.5 311,-183.5 240,-183.5"/>
<text text-anchor="middle" x="275.5" y="-190.5" font-family="Helvetica,sans-Serif" font-size="10.00">std::ostream</text>
</a>
</g>
</g>
<!-- Node9&#45;&gt;Node1 -->
<g id="edge9" class="edge"><title>Node9&#45;&gt;Node1</title>
<path fill="none" stroke="#9a32cd" stroke-dasharray="5,2" d="M276.36,-173.053C277.048,-143.219 275.694,-83.9581 257.5,-38 254.837,-31.2744 250.062,-24.7295 245.845,-19.7682"/>
<polygon fill="#9a32cd" stroke="#9a32cd" points="272.854,-173.166 276.012,-183.279 279.85,-173.403 272.854,-173.166"/>
<text text-anchor="middle" x="301" y="-108" font-family="Helvetica,sans-Serif" font-size="10.00"> outputbuffer</text>
</g>
<!-- Node10&#45;&gt;Node9 -->
<g id="edge10" class="edge"><title>Node10&#45;&gt;Node9</title>
<path fill="none" stroke="midnightblue" d="M281.707,-278.958C279.934,-254.692 277.319,-218.901 276.13,-202.624"/>
<polygon fill="midnightblue" stroke="midnightblue" points="278.235,-279.466 282.454,-289.185 285.216,-278.956 278.235,-279.466"/>
</g>
</g>
</svg>
