<?xml version="1.0" encoding="UTF-8" standalone="no"?>
<!DOCTYPE svg PUBLIC "-//W3C//DTD SVG 1.1//EN"
 "http://www.w3.org/Graphics/SVG/1.1/DTD/svg11.dtd">
<!-- Generated by graphviz version 2.38.0 (20140413.2041)
 -->
<!-- Title: time&#45;dependency.h Pages: 1 -->
<svg width="364pt" height="196pt"
 viewBox="0.00 0.00 364.00 196.00" xmlns="http://www.w3.org/2000/svg" xmlns:xlink="http://www.w3.org/1999/xlink">
<g id="graph0" class="graph" transform="scale(1 1) rotate(0) translate(4 192)">
<title>time&#45;dependency.h</title>
<polygon fill="white" stroke="none" points="-4,4 -4,-192 360,-192 360,4 -4,4"/>
<!-- Node1 -->
<g id="node1" class="node"><title>Node1</title>
<polygon fill="#bfbfbf" stroke="black" points="205.5,-168.5 205.5,-187.5 304.5,-187.5 304.5,-168.5 205.5,-168.5"/>
<text text-anchor="middle" x="255" y="-175.5" font-family="Helvetica,sans-Serif" font-size="10.00">time&#45;dependency.h</text>
</g>
<!-- Node2 -->
<g id="node2" class="node"><title>Node2</title>
<g id="a_node2"><a xlink:href="a00089.html" target="_top" xlink:title="signal&#45;time&#45;dependent.h">
<polygon fill="white" stroke="black" points="64,-112.5 64,-131.5 184,-131.5 184,-112.5 64,-112.5"/>
<text text-anchor="middle" x="124" y="-119.5" font-family="Helvetica,sans-Serif" font-size="10.00">signal&#45;time&#45;dependent.h</text>
</a>
</g>
</g>
<!-- Node1&#45;&gt;Node2 -->
<g id="edge1" class="edge"><title>Node1&#45;&gt;Node2</title>
<path fill="none" stroke="midnightblue" d="M224.683,-164.503C200.124,-154.38 166.182,-140.388 144.66,-131.516"/>
<polygon fill="midnightblue" stroke="midnightblue" points="223.663,-167.868 234.243,-168.444 226.331,-161.397 223.663,-167.868"/>
</g>
<!-- Node5 -->
<g id="node5" class="node"><title>Node5</title>
<g id="a_node5"><a xlink:href="a00096.html" target="_top" xlink:title="tracer.h">
<polygon fill="white" stroke="black" points="185,-56.5 185,-75.5 235,-75.5 235,-56.5 185,-56.5"/>
<text text-anchor="middle" x="210" y="-63.5" font-family="Helvetica,sans-Serif" font-size="10.00">tracer.h</text>
</a>
</g>
</g>
<!-- Node1&#45;&gt;Node5 -->
<g id="edge8" class="edge"><title>Node1&#45;&gt;Node5</title>
<path fill="none" stroke="midnightblue" d="M244.648,-159.347C240.11,-151.189 234.933,-141.272 231,-132 222.663,-112.349 215.668,-88.1972 212.249,-75.589"/>
<polygon fill="midnightblue" stroke="midnightblue" points="241.742,-161.316 249.74,-168.264 247.82,-157.844 241.742,-161.316"/>
</g>
<!-- Node7 -->
<g id="node7" class="node"><title>Node7</title>
<g id="a_node7"><a xlink:href="a00093.html" target="_top" xlink:title="time&#45;dependency.t.cpp">
<polygon fill="white" stroke="black" points="240,-112.5 240,-131.5 356,-131.5 356,-112.5 240,-112.5"/>
<text text-anchor="middle" x="298" y="-119.5" font-family="Helvetica,sans-Serif" font-size="10.00">time&#45;dependency.t.cpp</text>
</a>
</g>
</g>
<!-- Node1&#45;&gt;Node7 -->
<g id="edge6" class="edge"><title>Node1&#45;&gt;Node7</title>
<path fill="none" stroke="midnightblue" d="M262.524,-159.566C269.131,-150.275 278.32,-139.248 285.901,-131.751"/>
<polygon fill="midnightblue" stroke="midnightblue" points="259.495,-157.802 256.934,-168.083 265.347,-161.643 259.495,-157.802"/>
</g>
<!-- Node3 -->
<g id="node3" class="node"><title>Node3</title>
<g id="a_node3"><a xlink:href="a00055.html" target="_top" xlink:title="all&#45;signals.h">
<polygon fill="white" stroke="black" points="0,-56.5 0,-75.5 68,-75.5 68,-56.5 0,-56.5"/>
<text text-anchor="middle" x="34" y="-63.5" font-family="Helvetica,sans-Serif" font-size="10.00">all&#45;signals.h</text>
</a>
</g>
</g>
<!-- Node2&#45;&gt;Node3 -->
<g id="edge2" class="edge"><title>Node2&#45;&gt;Node3</title>
<path fill="none" stroke="midnightblue" d="M100.962,-107.177C84.4011,-97.2407 62.582,-84.1492 48.4242,-75.6545"/>
<polygon fill="midnightblue" stroke="midnightblue" points="99.1642,-110.18 109.54,-112.324 102.766,-104.178 99.1642,-110.18"/>
</g>
<!-- Node4 -->
<g id="node4" class="node"><title>Node4</title>
<g id="a_node4"><a xlink:href="a00086.html" target="_top" xlink:title="signal&#45;helper.h">
<polygon fill="white" stroke="black" points="86,-56.5 86,-75.5 166,-75.5 166,-56.5 86,-56.5"/>
<text text-anchor="middle" x="126" y="-63.5" font-family="Helvetica,sans-Serif" font-size="10.00">signal&#45;helper.h</text>
</a>
</g>
</g>
<!-- Node2&#45;&gt;Node4 -->
<g id="edge3" class="edge"><title>Node2&#45;&gt;Node4</title>
<path fill="none" stroke="midnightblue" d="M124.711,-101.805C125.04,-92.9102 125.416,-82.7798 125.676,-75.7511"/>
<polygon fill="midnightblue" stroke="midnightblue" points="121.203,-101.96 124.33,-112.083 128.198,-102.219 121.203,-101.96"/>
</g>
<!-- Node2&#45;&gt;Node5 -->
<g id="edge4" class="edge"><title>Node2&#45;&gt;Node5</title>
<path fill="none" stroke="midnightblue" d="M146.455,-106.901C162.224,-96.9986 182.814,-84.0705 196.217,-75.6545"/>
<polygon fill="midnightblue" stroke="midnightblue" points="144.425,-104.042 137.817,-112.324 148.148,-109.97 144.425,-104.042"/>
</g>
<!-- Node6 -->
<g id="node6" class="node"><title>Node6</title>
<g id="a_node6"><a xlink:href="a00094.html" target="_top" xlink:title="tracer&#45;real&#45;time.h">
<polygon fill="white" stroke="black" points="165,-0.5 165,-19.5 255,-19.5 255,-0.5 165,-0.5"/>
<text text-anchor="middle" x="210" y="-7.5" font-family="Helvetica,sans-Serif" font-size="10.00">tracer&#45;real&#45;time.h</text>
</a>
</g>
</g>
<!-- Node5&#45;&gt;Node6 -->
<g id="edge5" class="edge"><title>Node5&#45;&gt;Node6</title>
<path fill="none" stroke="midnightblue" d="M210,-45.8045C210,-36.9102 210,-26.7798 210,-19.7511"/>
<polygon fill="midnightblue" stroke="midnightblue" points="206.5,-46.083 210,-56.083 213.5,-46.083 206.5,-46.083"/>
</g>
<!-- Node7&#45;&gt;Node1 -->
<g id="edge7" class="edge"><title>Node7&#45;&gt;Node1</title>
<path fill="none" stroke="midnightblue" d="M290.621,-140.23C284.053,-149.495 274.871,-160.534 267.267,-168.083"/>
<polygon fill="midnightblue" stroke="midnightblue" points="293.621,-142.037 296.163,-131.751 287.762,-138.207 293.621,-142.037"/>
</g>
</g>
</svg>
