<?xml version="1.0" encoding="UTF-8" standalone="no"?>
<!DOCTYPE svg PUBLIC "-//W3C//DTD SVG 1.1//EN"
 "http://www.w3.org/Graphics/SVG/1.1/DTD/svg11.dtd">
<!-- Generated by graphviz version 2.38.0 (20140413.2041)
 -->
<!-- Title: entity.h Pages: 1 -->
<svg width="176pt" height="140pt"
 viewBox="0.00 0.00 176.00 140.00" xmlns="http://www.w3.org/2000/svg" xmlns:xlink="http://www.w3.org/1999/xlink">
<g id="graph0" class="graph" transform="scale(1 1) rotate(0) translate(4 136)">
<title>entity.h</title>
<polygon fill="white" stroke="none" points="-4,4 -4,-136 172,-136 172,4 -4,4"/>
<!-- Node1 -->
<g id="node1" class="node"><title>Node1</title>
<polygon fill="#bfbfbf" stroke="black" points="56.5,-112.5 56.5,-131.5 105.5,-131.5 105.5,-112.5 56.5,-112.5"/>
<text text-anchor="middle" x="81" y="-119.5" font-family="Helvetica,sans-Serif" font-size="10.00">entity.h</text>
</g>
<!-- Node2 -->
<g id="node2" class="node"><title>Node2</title>
<g id="a_node2"><a xlink:href="a00087.html" target="_top" xlink:title="signal&#45;helper.h">
<polygon fill="white" stroke="black" points="0,-56.5 0,-75.5 80,-75.5 80,-56.5 0,-56.5"/>
<text text-anchor="middle" x="40" y="-63.5" font-family="Helvetica,sans-Serif" font-size="10.00">signal&#45;helper.h</text>
</a>
</g>
</g>
<!-- Node1&#45;&gt;Node2 -->
<g id="edge1" class="edge"><title>Node1&#45;&gt;Node2</title>
<path fill="none" stroke="midnightblue" d="M67.9828,-103.855C60.8833,-94.5048 52.396,-83.3265 46.6443,-75.7511"/>
<polygon fill="midnightblue" stroke="midnightblue" points="65.395,-106.235 74.2297,-112.083 70.9701,-102.002 65.395,-106.235"/>
</g>
<!-- Node3 -->
<g id="node3" class="node"><title>Node3</title>
<g id="a_node3"><a xlink:href="a00097.html" target="_top" xlink:title="tracer.h">
<polygon fill="white" stroke="black" points="98,-56.5 98,-75.5 148,-75.5 148,-56.5 98,-56.5"/>
<text text-anchor="middle" x="123" y="-63.5" font-family="Helvetica,sans-Serif" font-size="10.00">tracer.h</text>
</a>
</g>
</g>
<!-- Node1&#45;&gt;Node3 -->
<g id="edge2" class="edge"><title>Node1&#45;&gt;Node3</title>
<path fill="none" stroke="midnightblue" d="M94.1102,-104.144C101.428,-94.7357 110.241,-83.4046 116.194,-75.7511"/>
<polygon fill="midnightblue" stroke="midnightblue" points="91.3122,-102.041 87.9354,-112.083 96.8376,-106.338 91.3122,-102.041"/>
</g>
<!-- Node4 -->
<g id="node4" class="node"><title>Node4</title>
<g id="a_node4"><a xlink:href="a00095.html" target="_top" xlink:title="tracer&#45;real&#45;time.h">
<polygon fill="white" stroke="black" points="78,-0.5 78,-19.5 168,-19.5 168,-0.5 78,-0.5"/>
<text text-anchor="middle" x="123" y="-7.5" font-family="Helvetica,sans-Serif" font-size="10.00">tracer&#45;real&#45;time.h</text>
</a>
</g>
</g>
<!-- Node3&#45;&gt;Node4 -->
<g id="edge3" class="edge"><title>Node3&#45;&gt;Node4</title>
<path fill="none" stroke="midnightblue" d="M123,-45.8045C123,-36.9102 123,-26.7798 123,-19.7511"/>
<polygon fill="midnightblue" stroke="midnightblue" points="119.5,-46.083 123,-56.083 126.5,-46.083 119.5,-46.083"/>
</g>
</g>
</svg>
