<?xml version="1.0" encoding="UTF-8" standalone="no"?>
<!DOCTYPE svg PUBLIC "-//W3C//DTD SVG 1.1//EN"
 "http://www.w3.org/Graphics/SVG/1.1/DTD/svg11.dtd">
<!-- Generated by graphviz version 2.38.0 (20140413.2041)
 -->
<!-- Title: signal&#45;caster.h Pages: 1 -->
<svg width="1238pt" height="285pt"
 viewBox="0.00 0.00 1238.00 285.00" xmlns="http://www.w3.org/2000/svg" xmlns:xlink="http://www.w3.org/1999/xlink">
<g id="graph0" class="graph" transform="scale(1 1) rotate(0) translate(4 281)">
<title>signal&#45;caster.h</title>
<polygon fill="white" stroke="none" points="-4,4 -4,-281 1234,-281 1234,4 -4,4"/>
<!-- Node1 -->
<g id="node1" class="node"><title>Node1</title>
<polygon fill="#bfbfbf" stroke="black" points="429.5,-257.5 429.5,-276.5 509.5,-276.5 509.5,-257.5 429.5,-257.5"/>
<text text-anchor="middle" x="469.5" y="-264.5" font-family="Helvetica,sans-Serif" font-size="10.00">signal&#45;caster.h</text>
</g>
<!-- Node2 -->
<g id="node2" class="node"><title>Node2</title>
<polygon fill="white" stroke="#bfbfbf" points="0,-196 0,-215 35,-215 35,-196 0,-196"/>
<text text-anchor="middle" x="17.5" y="-203" font-family="Helvetica,sans-Serif" font-size="10.00">map</text>
</g>
<!-- Node1&#45;&gt;Node2 -->
<g id="edge1" class="edge"><title>Node1&#45;&gt;Node2</title>
<path fill="none" stroke="midnightblue" d="M429.168,-263.809C337.283,-258.483 114.836,-243.614 43.5,-221 42.2529,-220.605 40.9982,-220.146 39.7497,-219.64"/>
<polygon fill="midnightblue" stroke="midnightblue" points="41.0447,-216.376 30.5258,-215.111 37.9594,-222.66 41.0447,-216.376"/>
</g>
<!-- Node3 -->
<g id="node3" class="node"><title>Node3</title>
<polygon fill="white" stroke="#bfbfbf" points="53,-196 53,-215 104,-215 104,-196 53,-196"/>
<text text-anchor="middle" x="78.5" y="-203" font-family="Helvetica,sans-Serif" font-size="10.00">typeinfo</text>
</g>
<!-- Node1&#45;&gt;Node3 -->
<g id="edge2" class="edge"><title>Node1&#45;&gt;Node3</title>
<path fill="none" stroke="midnightblue" d="M429.237,-263.728C363.438,-259.373 229.112,-247.792 118.5,-221 115.44,-220.259 112.29,-219.362 109.165,-218.383"/>
<polygon fill="midnightblue" stroke="midnightblue" points="110.002,-214.971 99.4076,-215.061 107.746,-221.597 110.002,-214.971"/>
</g>
<!-- Node4 -->
<g id="node4" class="node"><title>Node4</title>
<polygon fill="white" stroke="#bfbfbf" points="54.5,-62 54.5,-81 108.5,-81 108.5,-62 54.5,-62"/>
<text text-anchor="middle" x="81.5" y="-69" font-family="Helvetica,sans-Serif" font-size="10.00">iostream</text>
</g>
<!-- Node1&#45;&gt;Node4 -->
<g id="edge3" class="edge"><title>Node1&#45;&gt;Node4</title>
<path fill="none" stroke="midnightblue" d="M429.361,-262.381C366.054,-256.124 246.42,-241.913 209.5,-221 152.847,-188.908 109.389,-121.857 91.0398,-90.0135"/>
<polygon fill="midnightblue" stroke="midnightblue" points="93.9272,-88.007 85.9798,-81.0007 87.8234,-91.4339 93.9272,-88.007"/>
</g>
<!-- Node5 -->
<g id="node5" class="node"><title>Node5</title>
<polygon fill="white" stroke="#bfbfbf" points="408.5,-196 408.5,-215 452.5,-215 452.5,-196 408.5,-196"/>
<text text-anchor="middle" x="430.5" y="-203" font-family="Helvetica,sans-Serif" font-size="10.00">vector</text>
</g>
<!-- Node1&#45;&gt;Node5 -->
<g id="edge4" class="edge"><title>Node1&#45;&gt;Node5</title>
<path fill="none" stroke="midnightblue" d="M463.912,-257.475C458.12,-248.638 448.911,-234.589 441.626,-223.475"/>
<polygon fill="midnightblue" stroke="midnightblue" points="444.487,-221.454 436.077,-215.009 438.632,-225.291 444.487,-221.454"/>
</g>
<!-- Node6 -->
<g id="node6" class="node"><title>Node6</title>
<polygon fill="white" stroke="#bfbfbf" points="470.5,-196 470.5,-215 548.5,-215 548.5,-196 470.5,-196"/>
<text text-anchor="middle" x="509.5" y="-203" font-family="Helvetica,sans-Serif" font-size="10.00">boost/any.hpp</text>
</g>
<!-- Node1&#45;&gt;Node6 -->
<g id="edge5" class="edge"><title>Node1&#45;&gt;Node6</title>
<path fill="none" stroke="midnightblue" d="M475.231,-257.475C481.172,-248.638 490.617,-234.589 498.088,-223.475"/>
<polygon fill="midnightblue" stroke="midnightblue" points="501.105,-225.261 503.78,-215.009 495.296,-221.355 501.105,-225.261"/>
</g>
<!-- Node7 -->
<g id="node7" class="node"><title>Node7</title>
<polygon fill="white" stroke="#bfbfbf" points="566.5,-196 566.5,-215 656.5,-215 656.5,-196 566.5,-196"/>
<text text-anchor="middle" x="611.5" y="-203" font-family="Helvetica,sans-Serif" font-size="10.00">boost/format.hpp</text>
</g>
<!-- Node1&#45;&gt;Node7 -->
<g id="edge6" class="edge"><title>Node1&#45;&gt;Node7</title>
<path fill="none" stroke="midnightblue" d="M489.845,-257.475C513.887,-247.401 554.097,-230.553 581.663,-219.002"/>
<polygon fill="midnightblue" stroke="midnightblue" points="583.322,-222.102 591.193,-215.009 580.617,-215.646 583.322,-222.102"/>
</g>
<!-- Node8 -->
<g id="node8" class="node"><title>Node8</title>
<polygon fill="white" stroke="#bfbfbf" points="674.5,-196 674.5,-215 814.5,-215 814.5,-196 674.5,-196"/>
<text text-anchor="middle" x="744.5" y="-203" font-family="Helvetica,sans-Serif" font-size="10.00">boost/function/function1.hpp</text>
</g>
<!-- Node1&#45;&gt;Node8 -->
<g id="edge7" class="edge"><title>Node1&#45;&gt;Node8</title>
<path fill="none" stroke="midnightblue" d="M508.901,-257.475C558.013,-246.849 641.966,-228.685 695.266,-217.152"/>
<polygon fill="midnightblue" stroke="midnightblue" points="696.139,-220.545 705.172,-215.009 694.658,-213.703 696.139,-220.545"/>
</g>
<!-- Node9 -->
<g id="node9" class="node"><title>Node9</title>
<polygon fill="white" stroke="#bfbfbf" points="832.5,-196 832.5,-215 972.5,-215 972.5,-196 832.5,-196"/>
<text text-anchor="middle" x="902.5" y="-203" font-family="Helvetica,sans-Serif" font-size="10.00">boost/function/function2.hpp</text>
</g>
<!-- Node1&#45;&gt;Node9 -->
<g id="edge8" class="edge"><title>Node1&#45;&gt;Node9</title>
<path fill="none" stroke="midnightblue" d="M509.683,-261.622C575.444,-254.293 710.09,-238.602 823.5,-221 831.533,-219.753 840.004,-218.322 848.297,-216.856"/>
<polygon fill="midnightblue" stroke="midnightblue" points="849.061,-220.275 858.283,-215.059 847.822,-213.385 849.061,-220.275"/>
</g>
<!-- Node10 -->
<g id="node10" class="node"><title>Node10</title>
<polygon fill="white" stroke="#bfbfbf" points="990.5,-196 990.5,-215 1104.5,-215 1104.5,-196 990.5,-196"/>
<text text-anchor="middle" x="1047.5" y="-203" font-family="Helvetica,sans-Serif" font-size="10.00">boost/lexical_cast.hpp</text>
</g>
<!-- Node1&#45;&gt;Node10 -->
<g id="edge9" class="edge"><title>Node1&#45;&gt;Node10</title>
<path fill="none" stroke="midnightblue" d="M509.542,-264.236C596.084,-260.038 806.858,-247.745 981.5,-221 988.356,-219.95 995.566,-218.612 1002.6,-217.174"/>
<polygon fill="midnightblue" stroke="midnightblue" points="1003.67,-220.525 1012.72,-215.019 1002.21,-213.679 1003.67,-220.525"/>
</g>
<!-- Node11 -->
<g id="node11" class="node"><title>Node11</title>
<polygon fill="white" stroke="#bfbfbf" points="1123,-196 1123,-215 1230,-215 1230,-196 1123,-196"/>
<text text-anchor="middle" x="1176.5" y="-203" font-family="Helvetica,sans-Serif" font-size="10.00">boost/tuple/tuple.hpp</text>
</g>
<!-- Node1&#45;&gt;Node11 -->
<g id="edge10" class="edge"><title>Node1&#45;&gt;Node11</title>
<path fill="none" stroke="midnightblue" d="M509.679,-265.372C611.337,-263.313 886.805,-254.796 1113.5,-221 1120.21,-219.999 1127.27,-218.662 1134.13,-217.204"/>
<polygon fill="midnightblue" stroke="midnightblue" points="1134.99,-220.599 1143.99,-215.005 1133.46,-213.767 1134.99,-220.599"/>
</g>
<!-- Node12 -->
<g id="node12" class="node"><title>Node12</title>
<g id="a_node12"><a xlink:href="a00068.html" target="_top" xlink:title="dynamic&#45;graph/dynamic\l&#45;graph&#45;api.h">
<polygon fill="white" stroke="black" points="317.5,-56.5 317.5,-86.5 437.5,-86.5 437.5,-56.5 317.5,-56.5"/>
<text text-anchor="start" x="325.5" y="-74.5" font-family="Helvetica,sans-Serif" font-size="10.00">dynamic&#45;graph/dynamic</text>
<text text-anchor="middle" x="377.5" y="-63.5" font-family="Helvetica,sans-Serif" font-size="10.00">&#45;graph&#45;api.h</text>
</a>
</g>
</g>
<!-- Node1&#45;&gt;Node12 -->
<g id="edge11" class="edge"><title>Node1&#45;&gt;Node12</title>
<path fill="none" stroke="midnightblue" d="M446.839,-257.43C430.948,-250.196 410.627,-238.235 399.5,-221 374.842,-182.806 373.573,-127.716 375.267,-96.4875"/>
<polygon fill="midnightblue" stroke="midnightblue" points="378.759,-96.721 375.957,-86.5036 371.776,-96.2387 378.759,-96.721"/>
</g>
<!-- Node14 -->
<g id="node14" class="node"><title>Node14</title>
<g id="a_node14"><a xlink:href="a00074.html" target="_top" xlink:title="dynamic&#45;graph/exception\l&#45;signal.h">
<polygon fill="white" stroke="black" points="218,-190.5 218,-220.5 343,-220.5 343,-190.5 218,-190.5"/>
<text text-anchor="start" x="226" y="-208.5" font-family="Helvetica,sans-Serif" font-size="10.00">dynamic&#45;graph/exception</text>
<text text-anchor="middle" x="280.5" y="-197.5" font-family="Helvetica,sans-Serif" font-size="10.00">&#45;signal.h</text>
</a>
</g>
</g>
<!-- Node1&#45;&gt;Node14 -->
<g id="edge13" class="edge"><title>Node1&#45;&gt;Node14</title>
<path fill="none" stroke="midnightblue" d="M442.421,-257.475C414.431,-248.664 369.976,-234.668 334.722,-223.57"/>
<polygon fill="midnightblue" stroke="midnightblue" points="335.633,-220.187 325.044,-220.523 333.531,-226.864 335.633,-220.187"/>
</g>
<!-- Node13 -->
<g id="node13" class="node"><title>Node13</title>
<polygon fill="white" stroke="#bfbfbf" points="316,-0.5 316,-19.5 439,-19.5 439,-0.5 316,-0.5"/>
<text text-anchor="middle" x="377.5" y="-7.5" font-family="Helvetica,sans-Serif" font-size="10.00">dynamic&#45;graph/config.hh</text>
</g>
<!-- Node12&#45;&gt;Node13 -->
<g id="edge12" class="edge"><title>Node12&#45;&gt;Node13</title>
<path fill="none" stroke="midnightblue" d="M377.5,-56.3993C377.5,-48.4664 377.5,-38.458 377.5,-29.8583"/>
<polygon fill="midnightblue" stroke="midnightblue" points="381,-29.6577 377.5,-19.6578 374,-29.6578 381,-29.6577"/>
</g>
<!-- Node14&#45;&gt;Node12 -->
<g id="edge15" class="edge"><title>Node14&#45;&gt;Node12</title>
<path fill="none" stroke="midnightblue" d="M298.095,-190.245C309.125,-180.736 323.162,-167.534 333.5,-154 347.371,-135.841 359.4,-112.728 367.359,-95.7571"/>
<polygon fill="midnightblue" stroke="midnightblue" points="370.589,-97.109 371.557,-86.5585 364.221,-94.2024 370.589,-97.109"/>
</g>
<!-- Node15 -->
<g id="node15" class="node"><title>Node15</title>
<g id="a_node15"><a xlink:href="a00077.html" target="_top" xlink:title="dynamic&#45;graph/fwd.hh">
<polygon fill="white" stroke="black" points="127,-62 127,-81 240,-81 240,-62 127,-62"/>
<text text-anchor="middle" x="183.5" y="-69" font-family="Helvetica,sans-Serif" font-size="10.00">dynamic&#45;graph/fwd.hh</text>
</a>
</g>
</g>
<!-- Node14&#45;&gt;Node15 -->
<g id="edge14" class="edge"><title>Node14&#45;&gt;Node15</title>
<path fill="none" stroke="midnightblue" d="M236.958,-190.337C219.626,-182.43 201.275,-170.716 190.5,-154 178.445,-135.298 178.524,-108.96 180.4,-91.3384"/>
<polygon fill="midnightblue" stroke="midnightblue" points="183.901,-91.5659 181.782,-81.185 176.965,-90.6212 183.901,-91.5659"/>
</g>
<!-- Node16 -->
<g id="node16" class="node"><title>Node16</title>
<g id="a_node16"><a xlink:href="a00072.html" target="_top" xlink:title="dynamic&#45;graph/exception\l&#45;abstract.h">
<polygon fill="white" stroke="black" points="199,-123.5 199,-153.5 324,-153.5 324,-123.5 199,-123.5"/>
<text text-anchor="start" x="207" y="-141.5" font-family="Helvetica,sans-Serif" font-size="10.00">dynamic&#45;graph/exception</text>
<text text-anchor="middle" x="261.5" y="-130.5" font-family="Helvetica,sans-Serif" font-size="10.00">&#45;abstract.h</text>
</a>
</g>
</g>
<!-- Node14&#45;&gt;Node16 -->
<g id="edge16" class="edge"><title>Node14&#45;&gt;Node16</title>
<path fill="none" stroke="midnightblue" d="M276.377,-190.396C274.062,-182.474 271.111,-172.379 268.449,-163.271"/>
<polygon fill="midnightblue" stroke="midnightblue" points="271.78,-162.193 265.615,-153.577 265.061,-164.157 271.78,-162.193"/>
</g>
<!-- Node16&#45;&gt;Node4 -->
<g id="edge17" class="edge"><title>Node16&#45;&gt;Node4</title>
<path fill="none" stroke="midnightblue" d="M219.729,-123.414C190.887,-113.551 151.715,-99.8824 117.5,-87 115.656,-86.3055 113.763,-85.5805 111.856,-84.8409"/>
<polygon fill="midnightblue" stroke="midnightblue" points="112.963,-81.515 102.377,-81.0961 110.391,-88.0254 112.963,-81.515"/>
</g>
<!-- Node16&#45;&gt;Node12 -->
<g id="edge20" class="edge"><title>Node16&#45;&gt;Node12</title>
<path fill="none" stroke="midnightblue" d="M286.67,-123.396C303.239,-114.112 325.138,-101.841 343.281,-91.6742"/>
<polygon fill="midnightblue" stroke="midnightblue" points="345.366,-94.5182 352.379,-86.5765 341.944,-88.4116 345.366,-94.5182"/>
</g>
<!-- Node16&#45;&gt;Node15 -->
<g id="edge19" class="edge"><title>Node16&#45;&gt;Node15</title>
<path fill="none" stroke="midnightblue" d="M244.575,-123.396C231.932,-112.86 214.673,-98.4771 201.726,-87.6886"/>
<polygon fill="midnightblue" stroke="midnightblue" points="203.856,-84.9076 193.933,-81.1945 199.375,-90.2852 203.856,-84.9076"/>
</g>
<!-- Node17 -->
<g id="node17" class="node"><title>Node17</title>
<polygon fill="white" stroke="#bfbfbf" points="258,-62 258,-81 299,-81 299,-62 258,-62"/>
<text text-anchor="middle" x="278.5" y="-69" font-family="Helvetica,sans-Serif" font-size="10.00">string</text>
</g>
<!-- Node16&#45;&gt;Node17 -->
<g id="edge18" class="edge"><title>Node16&#45;&gt;Node17</title>
<path fill="none" stroke="midnightblue" d="M265.189,-123.396C267.656,-113.963 270.929,-101.448 273.612,-91.1891"/>
<polygon fill="midnightblue" stroke="midnightblue" points="277.082,-91.7548 276.226,-81.1945 270.31,-89.9835 277.082,-91.7548"/>
</g>
</g>
</svg>
