<?xml version="1.0" encoding="UTF-8" standalone="no"?>
<!DOCTYPE svg PUBLIC "-//W3C//DTD SVG 1.1//EN"
 "http://www.w3.org/Graphics/SVG/1.1/DTD/svg11.dtd">
<!-- Generated by graphviz version 2.38.0 (20140413.2041)
 -->
<!-- Title: signal&#45;base.h Pages: 1 -->
<svg width="534pt" height="285pt"
 viewBox="0.00 0.00 534.00 285.00" xmlns="http://www.w3.org/2000/svg" xmlns:xlink="http://www.w3.org/1999/xlink">
<g id="graph0" class="graph" transform="scale(1 1) rotate(0) translate(4 281)">
<title>signal&#45;base.h</title>
<polygon fill="white" stroke="none" points="-4,4 -4,-281 530,-281 530,4 -4,4"/>
<!-- Node1 -->
<g id="node1" class="node"><title>Node1</title>
<polygon fill="#bfbfbf" stroke="black" points="151.5,-257.5 151.5,-276.5 225.5,-276.5 225.5,-257.5 151.5,-257.5"/>
<text text-anchor="middle" x="188.5" y="-264.5" font-family="Helvetica,sans-Serif" font-size="10.00">signal&#45;base.h</text>
</g>
<!-- Node2 -->
<g id="node2" class="node"><title>Node2</title>
<polygon fill="white" stroke="#bfbfbf" points="0,-62 0,-81 41,-81 41,-62 0,-62"/>
<text text-anchor="middle" x="20.5" y="-69" font-family="Helvetica,sans-Serif" font-size="10.00">string</text>
</g>
<!-- Node1&#45;&gt;Node2 -->
<g id="edge1" class="edge"><title>Node1&#45;&gt;Node2</title>
<path fill="none" stroke="midnightblue" d="M151.459,-258.072C128.728,-251.52 100.444,-240.103 81.5,-221 44.9546,-184.148 29.2999,-122.337 23.4805,-91.3752"/>
<polygon fill="midnightblue" stroke="midnightblue" points="26.8625,-90.3923 21.7087,-81.1355 19.965,-91.5858 26.8625,-90.3923"/>
</g>
<!-- Node3 -->
<g id="node3" class="node"><title>Node3</title>
<polygon fill="white" stroke="#bfbfbf" points="269.5,-196 269.5,-215 321.5,-215 321.5,-196 269.5,-196"/>
<text text-anchor="middle" x="295.5" y="-203" font-family="Helvetica,sans-Serif" font-size="10.00">sstream</text>
</g>
<!-- Node1&#45;&gt;Node3 -->
<g id="edge2" class="edge"><title>Node1&#45;&gt;Node3</title>
<path fill="none" stroke="midnightblue" d="M203.83,-257.475C221.47,-247.666 250.66,-231.435 271.358,-219.925"/>
<polygon fill="midnightblue" stroke="midnightblue" points="273.159,-222.928 280.198,-215.009 269.757,-216.81 273.159,-222.928"/>
</g>
<!-- Node4 -->
<g id="node4" class="node"><title>Node4</title>
<polygon fill="white" stroke="#bfbfbf" points="59.5,-62 59.5,-81 113.5,-81 113.5,-62 59.5,-62"/>
<text text-anchor="middle" x="86.5" y="-69" font-family="Helvetica,sans-Serif" font-size="10.00">iostream</text>
</g>
<!-- Node1&#45;&gt;Node4 -->
<g id="edge3" class="edge"><title>Node1&#45;&gt;Node4</title>
<path fill="none" stroke="midnightblue" d="M153.765,-257.421C134.52,-250.779 112.019,-239.497 99.5,-221 72.6174,-181.28 77.8438,-121.245 82.7786,-91.1238"/>
<polygon fill="midnightblue" stroke="midnightblue" points="86.2469,-91.613 84.588,-81.1488 79.3593,-90.3635 86.2469,-91.613"/>
</g>
<!-- Node5 -->
<g id="node5" class="node"><title>Node5</title>
<polygon fill="white" stroke="#bfbfbf" points="340,-196 340,-215 391,-215 391,-196 340,-196"/>
<text text-anchor="middle" x="365.5" y="-203" font-family="Helvetica,sans-Serif" font-size="10.00">typeinfo</text>
</g>
<!-- Node1&#45;&gt;Node5 -->
<g id="edge4" class="edge"><title>Node1&#45;&gt;Node5</title>
<path fill="none" stroke="midnightblue" d="M218.12,-257.422C247.02,-248.863 292.114,-235.004 330.5,-221 332.354,-220.324 334.254,-219.607 336.163,-218.868"/>
<polygon fill="midnightblue" stroke="midnightblue" points="337.644,-222.046 345.627,-215.08 335.042,-215.547 337.644,-222.046"/>
</g>
<!-- Node6 -->
<g id="node6" class="node"><title>Node6</title>
<polygon fill="white" stroke="#bfbfbf" points="409,-196 409,-215 526,-215 526,-196 409,-196"/>
<text text-anchor="middle" x="467.5" y="-203" font-family="Helvetica,sans-Serif" font-size="10.00">boost/noncopyable.hpp</text>
</g>
<!-- Node1&#45;&gt;Node6 -->
<g id="edge5" class="edge"><title>Node1&#45;&gt;Node6</title>
<path fill="none" stroke="midnightblue" d="M225.657,-258.16C267.991,-249.216 339.245,-234.129 400.5,-221 406.24,-219.77 412.256,-218.475 418.228,-217.187"/>
<polygon fill="midnightblue" stroke="midnightblue" points="419.145,-220.569 428.18,-215.037 417.667,-213.727 419.145,-220.569"/>
</g>
<!-- Node7 -->
<g id="node7" class="node"><title>Node7</title>
<g id="a_node7"><a xlink:href="a00077.html" target="_top" xlink:title="dynamic&#45;graph/fwd.hh">
<polygon fill="white" stroke="black" points="132,-62 132,-81 245,-81 245,-62 132,-62"/>
<text text-anchor="middle" x="188.5" y="-69" font-family="Helvetica,sans-Serif" font-size="10.00">dynamic&#45;graph/fwd.hh</text>
</a>
</g>
</g>
<!-- Node1&#45;&gt;Node7 -->
<g id="edge6" class="edge"><title>Node1&#45;&gt;Node7</title>
<path fill="none" stroke="midnightblue" d="M162.996,-257.472C146.513,-250.478 126.361,-238.792 116.5,-221 95.3856,-182.904 96.4036,-161.642 116.5,-123 125.192,-106.286 142.232,-93.9517 157.554,-85.6585"/>
<polygon fill="midnightblue" stroke="midnightblue" points="159.422,-88.6363 166.781,-81.014 156.275,-82.3837 159.422,-88.6363"/>
</g>
<!-- Node8 -->
<g id="node8" class="node"><title>Node8</title>
<g id="a_node8"><a xlink:href="a00074.html" target="_top" xlink:title="dynamic&#45;graph/exception\l&#45;signal.h">
<polygon fill="white" stroke="black" points="126,-190.5 126,-220.5 251,-220.5 251,-190.5 126,-190.5"/>
<text text-anchor="start" x="134" y="-208.5" font-family="Helvetica,sans-Serif" font-size="10.00">dynamic&#45;graph/exception</text>
<text text-anchor="middle" x="188.5" y="-197.5" font-family="Helvetica,sans-Serif" font-size="10.00">&#45;signal.h</text>
</a>
</g>
</g>
<!-- Node1&#45;&gt;Node8 -->
<g id="edge7" class="edge"><title>Node1&#45;&gt;Node8</title>
<path fill="none" stroke="midnightblue" d="M188.5,-257.475C188.5,-250.471 188.5,-240.192 188.5,-230.696"/>
<polygon fill="midnightblue" stroke="midnightblue" points="192,-230.523 188.5,-220.523 185,-230.523 192,-230.523"/>
</g>
<!-- Node8&#45;&gt;Node7 -->
<g id="edge8" class="edge"><title>Node8&#45;&gt;Node7</title>
<path fill="none" stroke="midnightblue" d="M220.647,-190.336C235.325,-182.034 251.247,-169.997 259.5,-154 265.817,-141.756 265.817,-135.244 259.5,-123 250.943,-106.413 234.14,-94.0833 219.028,-85.7607"/>
<polygon fill="midnightblue" stroke="midnightblue" points="220.422,-82.5421 209.927,-81.0943 217.228,-88.7711 220.422,-82.5421"/>
</g>
<!-- Node9 -->
<g id="node9" class="node"><title>Node9</title>
<g id="a_node9"><a xlink:href="a00068.html" target="_top" xlink:title="dynamic&#45;graph/dynamic\l&#45;graph&#45;api.h">
<polygon fill="white" stroke="black" points="263.5,-56.5 263.5,-86.5 383.5,-86.5 383.5,-56.5 263.5,-56.5"/>
<text text-anchor="start" x="271.5" y="-74.5" font-family="Helvetica,sans-Serif" font-size="10.00">dynamic&#45;graph/dynamic</text>
<text text-anchor="middle" x="323.5" y="-63.5" font-family="Helvetica,sans-Serif" font-size="10.00">&#45;graph&#45;api.h</text>
</a>
</g>
</g>
<!-- Node8&#45;&gt;Node9 -->
<g id="edge9" class="edge"><title>Node8&#45;&gt;Node9</title>
<path fill="none" stroke="midnightblue" d="M222.23,-190.373C239.909,-181.759 261.039,-169.428 276.5,-154 293.124,-137.412 305.9,-113.748 313.907,-96.1894"/>
<polygon fill="midnightblue" stroke="midnightblue" points="317.275,-97.2218 318.063,-86.6563 310.858,-94.4242 317.275,-97.2218"/>
</g>
<!-- Node11 -->
<g id="node11" class="node"><title>Node11</title>
<g id="a_node11"><a xlink:href="a00072.html" target="_top" xlink:title="dynamic&#45;graph/exception\l&#45;abstract.h">
<polygon fill="white" stroke="black" points="126,-123.5 126,-153.5 251,-153.5 251,-123.5 126,-123.5"/>
<text text-anchor="start" x="134" y="-141.5" font-family="Helvetica,sans-Serif" font-size="10.00">dynamic&#45;graph/exception</text>
<text text-anchor="middle" x="188.5" y="-130.5" font-family="Helvetica,sans-Serif" font-size="10.00">&#45;abstract.h</text>
</a>
</g>
</g>
<!-- Node8&#45;&gt;Node11 -->
<g id="edge11" class="edge"><title>Node8&#45;&gt;Node11</title>
<path fill="none" stroke="midnightblue" d="M188.5,-190.396C188.5,-182.645 188.5,-172.812 188.5,-163.86"/>
<polygon fill="midnightblue" stroke="midnightblue" points="192,-163.576 188.5,-153.577 185,-163.577 192,-163.576"/>
</g>
<!-- Node10 -->
<g id="node10" class="node"><title>Node10</title>
<polygon fill="white" stroke="#bfbfbf" points="262,-0.5 262,-19.5 385,-19.5 385,-0.5 262,-0.5"/>
<text text-anchor="middle" x="323.5" y="-7.5" font-family="Helvetica,sans-Serif" font-size="10.00">dynamic&#45;graph/config.hh</text>
</g>
<!-- Node9&#45;&gt;Node10 -->
<g id="edge10" class="edge"><title>Node9&#45;&gt;Node10</title>
<path fill="none" stroke="midnightblue" d="M323.5,-56.3993C323.5,-48.4664 323.5,-38.458 323.5,-29.8583"/>
<polygon fill="midnightblue" stroke="midnightblue" points="327,-29.6577 323.5,-19.6578 320,-29.6578 327,-29.6577"/>
</g>
<!-- Node11&#45;&gt;Node2 -->
<g id="edge13" class="edge"><title>Node11&#45;&gt;Node2</title>
<path fill="none" stroke="midnightblue" d="M146.717,-123.425C119.129,-113.836 82.3331,-100.478 50.5,-87 49.3014,-86.4925 48.0818,-85.9622 46.8541,-85.4171"/>
<polygon fill="midnightblue" stroke="midnightblue" points="48.0436,-82.1107 37.4992,-81.0784 45.0984,-88.461 48.0436,-82.1107"/>
</g>
<!-- Node11&#45;&gt;Node4 -->
<g id="edge12" class="edge"><title>Node11&#45;&gt;Node4</title>
<path fill="none" stroke="midnightblue" d="M166.368,-123.396C149.262,-112.496 125.697,-97.4787 108.6,-86.5835"/>
<polygon fill="midnightblue" stroke="midnightblue" points="110.164,-83.4295 99.8494,-81.007 106.402,-89.3328 110.164,-83.4295"/>
</g>
<!-- Node11&#45;&gt;Node7 -->
<g id="edge14" class="edge"><title>Node11&#45;&gt;Node7</title>
<path fill="none" stroke="midnightblue" d="M188.5,-123.396C188.5,-114.064 188.5,-101.714 188.5,-91.5173"/>
<polygon fill="midnightblue" stroke="midnightblue" points="192,-91.1945 188.5,-81.1945 185,-91.1946 192,-91.1945"/>
</g>
<!-- Node11&#45;&gt;Node9 -->
<g id="edge15" class="edge"><title>Node11&#45;&gt;Node9</title>
<path fill="none" stroke="midnightblue" d="M217.793,-123.396C237.518,-113.899 263.734,-101.276 285.122,-90.9781"/>
<polygon fill="midnightblue" stroke="midnightblue" points="286.773,-94.0682 294.264,-86.5765 283.736,-87.7612 286.773,-94.0682"/>
</g>
</g>
</svg>
