<?xml version="1.0" encoding="UTF-8" standalone="no"?>
<!DOCTYPE svg PUBLIC "-//W3C//DTD SVG 1.1//EN"
 "http://www.w3.org/Graphics/SVG/1.1/DTD/svg11.dtd">
<!-- Generated by graphviz version 2.38.0 (20140413.2041)
 -->
<!-- Title: signal.t.cpp Pages: 1 -->
<svg width="342pt" height="252pt"
 viewBox="0.00 0.00 341.50 252.00" xmlns="http://www.w3.org/2000/svg" xmlns:xlink="http://www.w3.org/1999/xlink">
<g id="graph0" class="graph" transform="scale(1 1) rotate(0) translate(4 248)">
<title>signal.t.cpp</title>
<polygon fill="white" stroke="none" points="-4,4 -4,-248 337.5,-248 337.5,4 -4,4"/>
<!-- Node1 -->
<g id="node1" class="node"><title>Node1</title>
<polygon fill="#bfbfbf" stroke="black" points="183,-224.5 183,-243.5 250,-243.5 250,-224.5 183,-224.5"/>
<text text-anchor="middle" x="216.5" y="-231.5" font-family="Helvetica,sans-Serif" font-size="10.00">signal.t.cpp</text>
</g>
<!-- Node2 -->
<g id="node2" class="node"><title>Node2</title>
<g id="a_node2"><a xlink:href="a00091.html" target="_top" xlink:title="signal.h">
<polygon fill="white" stroke="black" points="191.5,-168.5 191.5,-187.5 241.5,-187.5 241.5,-168.5 191.5,-168.5"/>
<text text-anchor="middle" x="216.5" y="-175.5" font-family="Helvetica,sans-Serif" font-size="10.00">signal.h</text>
</a>
</g>
</g>
<!-- Node1&#45;&gt;Node2 -->
<g id="edge1" class="edge"><title>Node1&#45;&gt;Node2</title>
<path fill="none" stroke="midnightblue" d="M210.028,-214.101C209.396,-205.136 209.843,-194.858 211.369,-187.751"/>
<polygon fill="midnightblue" stroke="midnightblue" points="206.566,-214.622 211.334,-224.083 213.507,-213.713 206.566,-214.622"/>
</g>
<!-- Node2&#45;&gt;Node1 -->
<g id="edge3" class="edge"><title>Node2&#45;&gt;Node1</title>
<path fill="none" stroke="midnightblue" d="M222.958,-197.691C223.606,-206.635 223.176,-216.927 221.666,-224.083"/>
<polygon fill="midnightblue" stroke="midnightblue" points="226.423,-197.2 221.631,-187.751 219.485,-198.126 226.423,-197.2"/>
</g>
<!-- Node3 -->
<g id="node3" class="node"><title>Node3</title>
<g id="a_node3"><a xlink:href="a00056.html" target="_top" xlink:title="all&#45;signals.h">
<polygon fill="white" stroke="black" points="265.5,-56.5 265.5,-75.5 333.5,-75.5 333.5,-56.5 265.5,-56.5"/>
<text text-anchor="middle" x="299.5" y="-63.5" font-family="Helvetica,sans-Serif" font-size="10.00">all&#45;signals.h</text>
</a>
</g>
</g>
<!-- Node2&#45;&gt;Node3 -->
<g id="edge2" class="edge"><title>Node2&#45;&gt;Node3</title>
<path fill="none" stroke="midnightblue" d="M247.049,-163.8C260.79,-156.371 276.017,-145.786 285.5,-132 297.406,-114.69 299.459,-89.1397 299.651,-75.8147"/>
<polygon fill="midnightblue" stroke="midnightblue" points="245.211,-160.807 237.863,-168.44 248.367,-167.056 245.211,-160.807"/>
</g>
<!-- Node4 -->
<g id="node4" class="node"><title>Node4</title>
<g id="a_node4"><a xlink:href="a00088.html" target="_top" xlink:title="signal&#45;ptr.h">
<polygon fill="white" stroke="black" points="73,-112.5 73,-131.5 138,-131.5 138,-112.5 73,-112.5"/>
<text text-anchor="middle" x="105.5" y="-119.5" font-family="Helvetica,sans-Serif" font-size="10.00">signal&#45;ptr.h</text>
</a>
</g>
</g>
<!-- Node2&#45;&gt;Node4 -->
<g id="edge4" class="edge"><title>Node2&#45;&gt;Node4</title>
<path fill="none" stroke="midnightblue" d="M189.495,-163.862C168.912,-153.849 141.155,-140.346 123.29,-131.655"/>
<polygon fill="midnightblue" stroke="midnightblue" points="188.142,-167.097 198.666,-168.324 191.205,-160.802 188.142,-167.097"/>
</g>
<!-- Node7 -->
<g id="node7" class="node"><title>Node7</title>
<g id="a_node7"><a xlink:href="a00090.html" target="_top" xlink:title="signal&#45;time&#45;dependent.h">
<polygon fill="white" stroke="black" points="156.5,-112.5 156.5,-131.5 276.5,-131.5 276.5,-112.5 156.5,-112.5"/>
<text text-anchor="middle" x="216.5" y="-119.5" font-family="Helvetica,sans-Serif" font-size="10.00">signal&#45;time&#45;dependent.h</text>
</a>
</g>
</g>
<!-- Node2&#45;&gt;Node7 -->
<g id="edge9" class="edge"><title>Node2&#45;&gt;Node7</title>
<path fill="none" stroke="midnightblue" d="M216.5,-157.805C216.5,-148.91 216.5,-138.78 216.5,-131.751"/>
<polygon fill="midnightblue" stroke="midnightblue" points="213,-158.083 216.5,-168.083 220,-158.083 213,-158.083"/>
</g>
<!-- Node4&#45;&gt;Node3 -->
<g id="edge5" class="edge"><title>Node4&#45;&gt;Node3</title>
<path fill="none" stroke="midnightblue" d="M146.101,-109.699C182.715,-99.507 235.757,-84.7429 268.904,-75.5164"/>
<polygon fill="midnightblue" stroke="midnightblue" points="144.935,-106.39 136.24,-112.444 146.812,-113.134 144.935,-106.39"/>
</g>
<!-- Node5 -->
<g id="node5" class="node"><title>Node5</title>
<g id="a_node5"><a xlink:href="a00089.html" target="_top" xlink:title="signal&#45;ptr.t.cpp">
<polygon fill="white" stroke="black" points="0,-56.5 0,-75.5 81,-75.5 81,-56.5 0,-56.5"/>
<text text-anchor="middle" x="40.5" y="-63.5" font-family="Helvetica,sans-Serif" font-size="10.00">signal&#45;ptr.t.cpp</text>
</a>
</g>
</g>
<!-- Node4&#45;&gt;Node5 -->
<g id="edge6" class="edge"><title>Node4&#45;&gt;Node5</title>
<path fill="none" stroke="midnightblue" d="M81.8273,-106.38C68.9361,-96.6204 54.1809,-84.1057 45.9847,-75.8339"/>
<polygon fill="midnightblue" stroke="midnightblue" points="79.8062,-109.238 89.9418,-112.324 83.9426,-103.591 79.8062,-109.238"/>
</g>
<!-- Node6 -->
<g id="node6" class="node"><title>Node6</title>
<g id="a_node6"><a xlink:href="a00087.html" target="_top" xlink:title="signal&#45;helper.h">
<polygon fill="white" stroke="black" points="99.5,-56.5 99.5,-75.5 179.5,-75.5 179.5,-56.5 99.5,-56.5"/>
<text text-anchor="middle" x="139.5" y="-63.5" font-family="Helvetica,sans-Serif" font-size="10.00">signal&#45;helper.h</text>
</a>
</g>
</g>
<!-- Node4&#45;&gt;Node6 -->
<g id="edge8" class="edge"><title>Node4&#45;&gt;Node6</title>
<path fill="none" stroke="midnightblue" d="M116.477,-103.566C122.327,-94.2747 129.27,-83.2484 133.99,-75.7511"/>
<polygon fill="midnightblue" stroke="midnightblue" points="113.481,-101.756 111.114,-112.083 119.404,-105.486 113.481,-101.756"/>
</g>
<!-- Node5&#45;&gt;Node4 -->
<g id="edge7" class="edge"><title>Node5&#45;&gt;Node4</title>
<path fill="none" stroke="midnightblue" d="M64.2459,-81.6751C77.0766,-91.3943 91.7361,-103.826 99.9329,-112.083"/>
<polygon fill="midnightblue" stroke="midnightblue" points="66.2991,-78.8405 56.1647,-75.7511 62.1605,-84.4861 66.2991,-78.8405"/>
</g>
<!-- Node7&#45;&gt;Node3 -->
<g id="edge10" class="edge"><title>Node7&#45;&gt;Node3</title>
<path fill="none" stroke="midnightblue" d="M238.599,-106.622C253.762,-96.7574 273.383,-83.9919 286.198,-75.6545"/>
<polygon fill="midnightblue" stroke="midnightblue" points="236.309,-103.937 229.835,-112.324 240.126,-109.804 236.309,-103.937"/>
</g>
<!-- Node7&#45;&gt;Node6 -->
<g id="edge11" class="edge"><title>Node7&#45;&gt;Node6</title>
<path fill="none" stroke="midnightblue" d="M195.599,-106.342C181.589,-96.5169 163.617,-83.9132 151.841,-75.6545"/>
<polygon fill="midnightblue" stroke="midnightblue" points="193.932,-109.448 204.129,-112.324 197.951,-103.717 193.932,-109.448"/>
</g>
<!-- Node8 -->
<g id="node8" class="node"><title>Node8</title>
<g id="a_node8"><a xlink:href="a00097.html" target="_top" xlink:title="tracer.h">
<polygon fill="white" stroke="black" points="197.5,-56.5 197.5,-75.5 247.5,-75.5 247.5,-56.5 197.5,-56.5"/>
<text text-anchor="middle" x="222.5" y="-63.5" font-family="Helvetica,sans-Serif" font-size="10.00">tracer.h</text>
</a>
</g>
</g>
<!-- Node7&#45;&gt;Node8 -->
<g id="edge12" class="edge"><title>Node7&#45;&gt;Node8</title>
<path fill="none" stroke="midnightblue" d="M218.6,-102.101C219.596,-93.1357 220.738,-82.8579 221.528,-75.7511"/>
<polygon fill="midnightblue" stroke="midnightblue" points="215.117,-101.758 217.491,-112.083 222.074,-102.531 215.117,-101.758"/>
</g>
<!-- Node9 -->
<g id="node9" class="node"><title>Node9</title>
<g id="a_node9"><a xlink:href="a00095.html" target="_top" xlink:title="tracer&#45;real&#45;time.h">
<polygon fill="white" stroke="black" points="177.5,-0.5 177.5,-19.5 267.5,-19.5 267.5,-0.5 177.5,-0.5"/>
<text text-anchor="middle" x="222.5" y="-7.5" font-family="Helvetica,sans-Serif" font-size="10.00">tracer&#45;real&#45;time.h</text>
</a>
</g>
</g>
<!-- Node8&#45;&gt;Node9 -->
<g id="edge13" class="edge"><title>Node8&#45;&gt;Node9</title>
<path fill="none" stroke="midnightblue" d="M222.5,-45.8045C222.5,-36.9102 222.5,-26.7798 222.5,-19.7511"/>
<polygon fill="midnightblue" stroke="midnightblue" points="219,-46.083 222.5,-56.083 226,-46.083 219,-46.083"/>
</g>
</g>
</svg>
