<?xml version="1.0" encoding="UTF-8" standalone="no"?>
<!DOCTYPE svg PUBLIC "-//W3C//DTD SVG 1.1//EN"
 "http://www.w3.org/Graphics/SVG/1.1/DTD/svg11.dtd">
<!-- Generated by graphviz version 2.38.0 (20140413.2041)
 -->
<!-- Title: time&#45;dependency.t.cpp Pages: 1 -->
<svg width="793pt" height="486pt"
 viewBox="0.00 0.00 793.00 486.00" xmlns="http://www.w3.org/2000/svg" xmlns:xlink="http://www.w3.org/1999/xlink">
<g id="graph0" class="graph" transform="scale(1 1) rotate(0) translate(4 482)">
<title>time&#45;dependency.t.cpp</title>
<polygon fill="white" stroke="none" points="-4,4 -4,-482 789,-482 789,4 -4,4"/>
<!-- Node1 -->
<g id="node1" class="node"><title>Node1</title>
<polygon fill="#bfbfbf" stroke="black" points="421,-458.5 421,-477.5 537,-477.5 537,-458.5 421,-458.5"/>
<text text-anchor="middle" x="479" y="-465.5" font-family="Helvetica,sans-Serif" font-size="10.00">time&#45;dependency.t.cpp</text>
</g>
<!-- Node2 -->
<g id="node2" class="node"><title>Node2</title>
<g id="a_node2"><a xlink:href="a00093.html" target="_top" xlink:title="dynamic&#45;graph/time\l&#45;dependency.h">
<polygon fill="white" stroke="black" points="428,-391.5 428,-421.5 530,-421.5 530,-391.5 428,-391.5"/>
<text text-anchor="start" x="436" y="-409.5" font-family="Helvetica,sans-Serif" font-size="10.00">dynamic&#45;graph/time</text>
<text text-anchor="middle" x="479" y="-398.5" font-family="Helvetica,sans-Serif" font-size="10.00">&#45;dependency.h</text>
</a>
</g>
</g>
<!-- Node1&#45;&gt;Node2 -->
<g id="edge1" class="edge"><title>Node1&#45;&gt;Node2</title>
<path fill="none" stroke="midnightblue" d="M474.099,-458.475C472.572,-451.471 471.991,-441.192 472.356,-431.696"/>
<polygon fill="midnightblue" stroke="midnightblue" points="475.861,-431.77 473.17,-421.523 468.883,-431.212 475.861,-431.77"/>
</g>
<!-- Node18 -->
<g id="node18" class="node"><title>Node18</title>
<g id="a_node18"><a xlink:href="a00066.html" target="_top" xlink:title="dynamic&#45;graph/debug.h">
<polygon fill="white" stroke="black" points="567,-129 567,-148 685,-148 685,-129 567,-129"/>
<text text-anchor="middle" x="626" y="-136" font-family="Helvetica,sans-Serif" font-size="10.00">dynamic&#45;graph/debug.h</text>
</a>
</g>
</g>
<!-- Node1&#45;&gt;Node18 -->
<g id="edge27" class="edge"><title>Node1&#45;&gt;Node18</title>
<path fill="none" stroke="midnightblue" d="M537.269,-459.576C603.639,-447.477 703,-416.648 703,-340.5 703,-340.5 703,-340.5 703,-271.5 703,-224.035 665.394,-178.444 642.743,-155.289"/>
<polygon fill="midnightblue" stroke="midnightblue" points="645.013,-152.611 635.442,-148.069 640.091,-157.589 645.013,-152.611"/>
</g>
<!-- Node2&#45;&gt;Node1 -->
<g id="edge26" class="edge"><title>Node2&#45;&gt;Node1</title>
<path fill="none" stroke="midnightblue" d="M484.83,-421.523C485.873,-429.586 486.029,-439.813 485.299,-448.526"/>
<polygon fill="midnightblue" stroke="midnightblue" points="481.827,-448.085 483.901,-458.475 488.759,-449.06 481.827,-448.085"/>
</g>
<!-- Node3 -->
<g id="node3" class="node"><title>Node3</title>
<polygon fill="white" stroke="#bfbfbf" points="443.5,-330 443.5,-349 472.5,-349 472.5,-330 443.5,-330"/>
<text text-anchor="middle" x="458" y="-337" font-family="Helvetica,sans-Serif" font-size="10.00">list</text>
</g>
<!-- Node2&#45;&gt;Node3 -->
<g id="edge2" class="edge"><title>Node2&#45;&gt;Node3</title>
<path fill="none" stroke="midnightblue" d="M474.443,-391.396C471.363,-381.863 467.266,-369.182 463.932,-358.862"/>
<polygon fill="midnightblue" stroke="midnightblue" points="467.214,-357.634 460.809,-349.195 460.553,-359.786 467.214,-357.634"/>
</g>
<!-- Node4 -->
<g id="node4" class="node"><title>Node4</title>
<polygon fill="white" stroke="#bfbfbf" points="27,-62 27,-81 81,-81 81,-62 27,-62"/>
<text text-anchor="middle" x="54" y="-69" font-family="Helvetica,sans-Serif" font-size="10.00">iostream</text>
</g>
<!-- Node2&#45;&gt;Node4 -->
<g id="edge3" class="edge"><title>Node2&#45;&gt;Node4</title>
<path fill="none" stroke="midnightblue" d="M427.739,-402.264C304.17,-393.065 0,-361.485 0,-273.5 0,-273.5 0,-273.5 0,-204.5 0,-160.564 25.9444,-114.117 41.8666,-89.7485"/>
<polygon fill="midnightblue" stroke="midnightblue" points="44.897,-91.5149 47.5934,-81.269 39.0961,-87.5971 44.897,-91.5149"/>
</g>
<!-- Node5 -->
<g id="node5" class="node"><title>Node5</title>
<g id="a_node5"><a xlink:href="a00077.html" target="_top" xlink:title="dynamic&#45;graph/fwd.hh">
<polygon fill="white" stroke="black" points="239.5,-62 239.5,-81 352.5,-81 352.5,-62 239.5,-62"/>
<text text-anchor="middle" x="296" y="-69" font-family="Helvetica,sans-Serif" font-size="10.00">dynamic&#45;graph/fwd.hh</text>
</a>
</g>
</g>
<!-- Node2&#45;&gt;Node5 -->
<g id="edge4" class="edge"><title>Node2&#45;&gt;Node5</title>
<path fill="none" stroke="midnightblue" d="M483.605,-391.253C494.435,-354.972 517.938,-257.22 481,-190 449.995,-133.578 379.158,-100.41 334.687,-84.4045"/>
<polygon fill="midnightblue" stroke="midnightblue" points="335.673,-81.0418 325.078,-81.0649 333.374,-87.6538 335.673,-81.0418"/>
</g>
<!-- Node6 -->
<g id="node6" class="node"><title>Node6</title>
<g id="a_node6"><a xlink:href="a00084.html" target="_top" xlink:title="dynamic&#45;graph/signal\l&#45;base.h">
<polygon fill="white" stroke="black" points="257.5,-257.5 257.5,-287.5 366.5,-287.5 366.5,-257.5 257.5,-257.5"/>
<text text-anchor="start" x="265.5" y="-275.5" font-family="Helvetica,sans-Serif" font-size="10.00">dynamic&#45;graph/signal</text>
<text text-anchor="middle" x="312" y="-264.5" font-family="Helvetica,sans-Serif" font-size="10.00">&#45;base.h</text>
</a>
</g>
</g>
<!-- Node2&#45;&gt;Node6 -->
<g id="edge5" class="edge"><title>Node2&#45;&gt;Node6</title>
<path fill="none" stroke="midnightblue" d="M461.128,-391.374C431.496,-367.952 372.077,-320.986 337.865,-293.944"/>
<polygon fill="midnightblue" stroke="midnightblue" points="339.759,-290.98 329.743,-287.525 335.418,-296.472 339.759,-290.98"/>
</g>
<!-- Node15 -->
<g id="node15" class="node"><title>Node15</title>
<g id="a_node15"><a xlink:href="a00083.html" target="_top" xlink:title="dynamic&#45;graph/signal\l&#45;array.h">
<polygon fill="white" stroke="black" points="529.5,-324.5 529.5,-354.5 638.5,-354.5 638.5,-324.5 529.5,-324.5"/>
<text text-anchor="start" x="537.5" y="-342.5" font-family="Helvetica,sans-Serif" font-size="10.00">dynamic&#45;graph/signal</text>
<text text-anchor="middle" x="584" y="-331.5" font-family="Helvetica,sans-Serif" font-size="10.00">&#45;array.h</text>
</a>
</g>
</g>
<!-- Node2&#45;&gt;Node15 -->
<g id="edge21" class="edge"><title>Node2&#45;&gt;Node15</title>
<path fill="none" stroke="midnightblue" d="M501.783,-391.396C516.644,-382.197 536.24,-370.066 552.573,-359.955"/>
<polygon fill="midnightblue" stroke="midnightblue" points="554.601,-362.816 561.261,-354.577 550.916,-356.864 554.601,-362.816"/>
</g>
<!-- Node6&#45;&gt;Node4 -->
<g id="edge8" class="edge"><title>Node6&#45;&gt;Node4</title>
<path fill="none" stroke="midnightblue" d="M257.409,-266.853C195.863,-260.44 101.2,-246.647 77,-221 43.5127,-185.511 46.6799,-122.614 50.817,-91.3"/>
<polygon fill="midnightblue" stroke="midnightblue" points="54.2945,-91.7104 52.3189,-81.3013 47.3722,-90.6704 54.2945,-91.7104"/>
</g>
<!-- Node6&#45;&gt;Node5 -->
<g id="edge11" class="edge"><title>Node6&#45;&gt;Node5</title>
<path fill="none" stroke="midnightblue" d="M298.636,-257.319C290.655,-247.84 281.266,-234.643 277,-221 262.763,-175.466 278.71,-118.886 288.875,-90.5083"/>
<polygon fill="midnightblue" stroke="midnightblue" points="292.171,-91.687 292.414,-81.0949 285.619,-89.2241 292.171,-91.687"/>
</g>
<!-- Node7 -->
<g id="node7" class="node"><title>Node7</title>
<polygon fill="white" stroke="#bfbfbf" points="115.5,-62 115.5,-81 156.5,-81 156.5,-62 115.5,-62"/>
<text text-anchor="middle" x="136" y="-69" font-family="Helvetica,sans-Serif" font-size="10.00">string</text>
</g>
<!-- Node6&#45;&gt;Node7 -->
<g id="edge6" class="edge"><title>Node6&#45;&gt;Node7</title>
<path fill="none" stroke="midnightblue" d="M257.279,-266.427C199.766,-259.829 114.903,-246.067 95,-221 67.916,-186.889 80.4349,-164.048 95,-123 99.6733,-109.829 109.409,-97.5915 118.221,-88.4623"/>
<polygon fill="midnightblue" stroke="midnightblue" points="120.857,-90.7803 125.576,-81.2945 115.972,-85.767 120.857,-90.7803"/>
</g>
<!-- Node8 -->
<g id="node8" class="node"><title>Node8</title>
<polygon fill="white" stroke="#bfbfbf" points="733,-62 733,-81 785,-81 785,-62 733,-62"/>
<text text-anchor="middle" x="759" y="-69" font-family="Helvetica,sans-Serif" font-size="10.00">sstream</text>
</g>
<!-- Node6&#45;&gt;Node8 -->
<g id="edge7" class="edge"><title>Node6&#45;&gt;Node8</title>
<path fill="none" stroke="midnightblue" d="M366.76,-265.117C445.214,-253.787 591.431,-224.345 694,-154 718.544,-137.167 738.377,-108.33 749.423,-89.8572"/>
<polygon fill="midnightblue" stroke="midnightblue" points="752.548,-91.444 754.504,-81.0312 746.482,-87.9516 752.548,-91.444"/>
</g>
<!-- Node9 -->
<g id="node9" class="node"><title>Node9</title>
<polygon fill="white" stroke="#bfbfbf" points="286.5,-196 286.5,-215 337.5,-215 337.5,-196 286.5,-196"/>
<text text-anchor="middle" x="312" y="-203" font-family="Helvetica,sans-Serif" font-size="10.00">typeinfo</text>
</g>
<!-- Node6&#45;&gt;Node9 -->
<g id="edge9" class="edge"><title>Node6&#45;&gt;Node9</title>
<path fill="none" stroke="midnightblue" d="M312,-257.396C312,-248.064 312,-235.714 312,-225.517"/>
<polygon fill="midnightblue" stroke="midnightblue" points="315.5,-225.195 312,-215.195 308.5,-225.195 315.5,-225.195"/>
</g>
<!-- Node10 -->
<g id="node10" class="node"><title>Node10</title>
<polygon fill="white" stroke="#bfbfbf" points="355.5,-196 355.5,-215 472.5,-215 472.5,-196 355.5,-196"/>
<text text-anchor="middle" x="414" y="-203" font-family="Helvetica,sans-Serif" font-size="10.00">boost/noncopyable.hpp</text>
</g>
<!-- Node6&#45;&gt;Node10 -->
<g id="edge10" class="edge"><title>Node6&#45;&gt;Node10</title>
<path fill="none" stroke="midnightblue" d="M334.132,-257.396C351.238,-246.496 374.803,-231.479 391.9,-220.584"/>
<polygon fill="midnightblue" stroke="midnightblue" points="394.098,-223.333 400.651,-215.007 390.336,-217.43 394.098,-223.333"/>
</g>
<!-- Node11 -->
<g id="node11" class="node"><title>Node11</title>
<g id="a_node11"><a xlink:href="a00074.html" target="_top" xlink:title="dynamic&#45;graph/exception\l&#45;signal.h">
<polygon fill="white" stroke="black" points="104.5,-190.5 104.5,-220.5 229.5,-220.5 229.5,-190.5 104.5,-190.5"/>
<text text-anchor="start" x="112.5" y="-208.5" font-family="Helvetica,sans-Serif" font-size="10.00">dynamic&#45;graph/exception</text>
<text text-anchor="middle" x="167" y="-197.5" font-family="Helvetica,sans-Serif" font-size="10.00">&#45;signal.h</text>
</a>
</g>
</g>
<!-- Node6&#45;&gt;Node11 -->
<g id="edge12" class="edge"><title>Node6&#45;&gt;Node11</title>
<path fill="none" stroke="midnightblue" d="M280.537,-257.396C259.161,-247.814 230.688,-235.05 207.603,-224.702"/>
<polygon fill="midnightblue" stroke="midnightblue" points="208.958,-221.473 198.401,-220.577 206.095,-227.861 208.958,-221.473"/>
</g>
<!-- Node11&#45;&gt;Node5 -->
<g id="edge13" class="edge"><title>Node11&#45;&gt;Node5</title>
<path fill="none" stroke="midnightblue" d="M190.898,-190.369C205.444,-181.102 223.88,-168.117 238,-154 257.609,-134.396 275.32,-107.543 285.872,-90.1091"/>
<polygon fill="midnightblue" stroke="midnightblue" points="289.146,-91.4488 291.218,-81.0587 283.119,-87.8886 289.146,-91.4488"/>
</g>
<!-- Node12 -->
<g id="node12" class="node"><title>Node12</title>
<g id="a_node12"><a xlink:href="a00068.html" target="_top" xlink:title="dynamic&#45;graph/dynamic\l&#45;graph&#45;api.h">
<polygon fill="white" stroke="black" points="398,-56.5 398,-86.5 518,-86.5 518,-56.5 398,-56.5"/>
<text text-anchor="start" x="406" y="-74.5" font-family="Helvetica,sans-Serif" font-size="10.00">dynamic&#45;graph/dynamic</text>
<text text-anchor="middle" x="458" y="-63.5" font-family="Helvetica,sans-Serif" font-size="10.00">&#45;graph&#45;api.h</text>
</a>
</g>
</g>
<!-- Node11&#45;&gt;Node12 -->
<g id="edge14" class="edge"><title>Node11&#45;&gt;Node12</title>
<path fill="none" stroke="midnightblue" d="M197.867,-190.499C250.797,-166.489 358.845,-117.477 417.664,-90.7966"/>
<polygon fill="midnightblue" stroke="midnightblue" points="419.351,-93.8749 427.012,-86.5565 416.459,-87.5001 419.351,-93.8749"/>
</g>
<!-- Node14 -->
<g id="node14" class="node"><title>Node14</title>
<g id="a_node14"><a xlink:href="a00072.html" target="_top" xlink:title="dynamic&#45;graph/exception\l&#45;abstract.h">
<polygon fill="white" stroke="black" points="104.5,-123.5 104.5,-153.5 229.5,-153.5 229.5,-123.5 104.5,-123.5"/>
<text text-anchor="start" x="112.5" y="-141.5" font-family="Helvetica,sans-Serif" font-size="10.00">dynamic&#45;graph/exception</text>
<text text-anchor="middle" x="167" y="-130.5" font-family="Helvetica,sans-Serif" font-size="10.00">&#45;abstract.h</text>
</a>
</g>
</g>
<!-- Node11&#45;&gt;Node14 -->
<g id="edge16" class="edge"><title>Node11&#45;&gt;Node14</title>
<path fill="none" stroke="midnightblue" d="M167,-190.396C167,-182.645 167,-172.812 167,-163.86"/>
<polygon fill="midnightblue" stroke="midnightblue" points="170.5,-163.576 167,-153.577 163.5,-163.577 170.5,-163.576"/>
</g>
<!-- Node13 -->
<g id="node13" class="node"><title>Node13</title>
<polygon fill="white" stroke="#bfbfbf" points="396.5,-0.5 396.5,-19.5 519.5,-19.5 519.5,-0.5 396.5,-0.5"/>
<text text-anchor="middle" x="458" y="-7.5" font-family="Helvetica,sans-Serif" font-size="10.00">dynamic&#45;graph/config.hh</text>
</g>
<!-- Node12&#45;&gt;Node13 -->
<g id="edge15" class="edge"><title>Node12&#45;&gt;Node13</title>
<path fill="none" stroke="midnightblue" d="M458,-56.3993C458,-48.4664 458,-38.458 458,-29.8583"/>
<polygon fill="midnightblue" stroke="midnightblue" points="461.5,-29.6577 458,-19.6578 454.5,-29.6578 461.5,-29.6577"/>
</g>
<!-- Node14&#45;&gt;Node4 -->
<g id="edge17" class="edge"><title>Node14&#45;&gt;Node4</title>
<path fill="none" stroke="midnightblue" d="M142.481,-123.396C123.268,-112.344 96.6979,-97.0607 77.6986,-86.1319"/>
<polygon fill="midnightblue" stroke="midnightblue" points="79.2025,-82.9593 68.7891,-81.007 75.7122,-89.0271 79.2025,-82.9593"/>
</g>
<!-- Node14&#45;&gt;Node5 -->
<g id="edge19" class="edge"><title>Node14&#45;&gt;Node5</title>
<path fill="none" stroke="midnightblue" d="M194.991,-123.396C217.325,-112.142 248.367,-96.501 270.126,-85.5375"/>
<polygon fill="midnightblue" stroke="midnightblue" points="271.761,-88.6325 279.117,-81.007 268.612,-82.3812 271.761,-88.6325"/>
</g>
<!-- Node14&#45;&gt;Node7 -->
<g id="edge18" class="edge"><title>Node14&#45;&gt;Node7</title>
<path fill="none" stroke="midnightblue" d="M160.273,-123.396C155.679,-113.763 149.552,-100.914 144.602,-90.5373"/>
<polygon fill="midnightblue" stroke="midnightblue" points="147.611,-88.7139 140.147,-81.1945 141.292,-91.7273 147.611,-88.7139"/>
</g>
<!-- Node14&#45;&gt;Node12 -->
<g id="edge20" class="edge"><title>Node14&#45;&gt;Node12</title>
<path fill="none" stroke="midnightblue" d="M229.784,-123.476C276.268,-113.093 339.619,-98.9425 387.781,-88.1846"/>
<polygon fill="midnightblue" stroke="midnightblue" points="388.82,-91.5389 397.816,-85.9431 387.294,-84.7073 388.82,-91.5389"/>
</g>
<!-- Node15&#45;&gt;Node6 -->
<g id="edge22" class="edge"><title>Node15&#45;&gt;Node6</title>
<path fill="none" stroke="midnightblue" d="M529.284,-325.424C485.203,-314.89 423.126,-300.056 376.605,-288.939"/>
<polygon fill="midnightblue" stroke="midnightblue" points="377.168,-285.475 366.629,-286.555 375.541,-292.283 377.168,-285.475"/>
</g>
<!-- Node15&#45;&gt;Node12 -->
<g id="edge23" class="edge"><title>Node15&#45;&gt;Node12</title>
<path fill="none" stroke="midnightblue" d="M576.479,-324.468C571.155,-314.399 563.936,-300.464 558,-288 537.549,-245.057 534.939,-233.183 515,-190 499.781,-157.039 481.3,-119.341 469.592,-95.7279"/>
<polygon fill="midnightblue" stroke="midnightblue" points="472.603,-93.9223 465.018,-86.525 466.335,-97.0378 472.603,-93.9223"/>
</g>
<!-- Node16 -->
<g id="node16" class="node"><title>Node16</title>
<polygon fill="white" stroke="#bfbfbf" points="567,-263 567,-282 611,-282 611,-263 567,-263"/>
<text text-anchor="middle" x="589" y="-270" font-family="Helvetica,sans-Serif" font-size="10.00">vector</text>
</g>
<!-- Node15&#45;&gt;Node16 -->
<g id="edge24" class="edge"><title>Node15&#45;&gt;Node16</title>
<path fill="none" stroke="midnightblue" d="M585.085,-324.396C585.811,-314.963 586.773,-302.448 587.562,-292.189"/>
<polygon fill="midnightblue" stroke="midnightblue" points="591.054,-292.434 588.331,-282.195 584.074,-291.897 591.054,-292.434"/>
</g>
<!-- Node17 -->
<g id="node17" class="node"><title>Node17</title>
<polygon fill="white" stroke="#bfbfbf" points="629,-263 629,-282 675,-282 675,-263 629,-263"/>
<text text-anchor="middle" x="652" y="-270" font-family="Helvetica,sans-Serif" font-size="10.00">stdio.h</text>
</g>
<!-- Node15&#45;&gt;Node17 -->
<g id="edge25" class="edge"><title>Node15&#45;&gt;Node17</title>
<path fill="none" stroke="midnightblue" d="M598.755,-324.396C609.568,-314.06 624.252,-300.024 635.461,-289.309"/>
<polygon fill="midnightblue" stroke="midnightblue" points="638.094,-291.634 642.904,-282.195 633.257,-286.574 638.094,-291.634"/>
</g>
<!-- Node18&#45;&gt;Node4 -->
<g id="edge30" class="edge"><title>Node18&#45;&gt;Node4</title>
<path fill="none" stroke="midnightblue" d="M566.65,-135.119C469.595,-130.471 271.179,-117.805 106,-87 101.131,-86.092 96.0569,-84.9411 91.0692,-83.6861"/>
<polygon fill="midnightblue" stroke="midnightblue" points="91.6112,-80.2082 81.0467,-81.0087 89.8045,-86.9711 91.6112,-80.2082"/>
</g>
<!-- Node18&#45;&gt;Node5 -->
<g id="edge33" class="edge"><title>Node18&#45;&gt;Node5</title>
<path fill="none" stroke="midnightblue" d="M582.519,-128.936C522.463,-117.106 414.211,-95.7839 349.34,-83.0063"/>
<polygon fill="midnightblue" stroke="midnightblue" points="349.803,-79.5304 339.315,-81.0317 348.45,-86.3984 349.803,-79.5304"/>
</g>
<!-- Node18&#45;&gt;Node8 -->
<g id="edge32" class="edge"><title>Node18&#45;&gt;Node8</title>
<path fill="none" stroke="midnightblue" d="M643.661,-128.869C666.317,-117.796 705.828,-98.4862 732.2,-85.5978"/>
<polygon fill="midnightblue" stroke="midnightblue" points="733.818,-88.7027 741.266,-81.1672 730.744,-82.4136 733.818,-88.7027"/>
</g>
<!-- Node18&#45;&gt;Node12 -->
<g id="edge34" class="edge"><title>Node18&#45;&gt;Node12</title>
<path fill="none" stroke="midnightblue" d="M603.691,-128.869C578.373,-119.073 536.39,-102.83 503.979,-90.2897"/>
<polygon fill="midnightblue" stroke="midnightblue" points="504.846,-86.8723 494.257,-86.5281 502.32,-93.4007 504.846,-86.8723"/>
</g>
<!-- Node19 -->
<g id="node19" class="node"><title>Node19</title>
<polygon fill="white" stroke="#bfbfbf" points="604.5,-62 604.5,-81 647.5,-81 647.5,-62 604.5,-62"/>
<text text-anchor="middle" x="626" y="-69" font-family="Helvetica,sans-Serif" font-size="10.00">cstdio</text>
</g>
<!-- Node18&#45;&gt;Node19 -->
<g id="edge28" class="edge"><title>Node18&#45;&gt;Node19</title>
<path fill="none" stroke="midnightblue" d="M626,-128.734C626,-119.183 626,-103.618 626,-91.2829"/>
<polygon fill="midnightblue" stroke="midnightblue" points="629.5,-91.1273 626,-81.1273 622.5,-91.1273 629.5,-91.1273"/>
</g>
<!-- Node20 -->
<g id="node20" class="node"><title>Node20</title>
<polygon fill="white" stroke="#bfbfbf" points="665.5,-62 665.5,-81 714.5,-81 714.5,-62 665.5,-62"/>
<text text-anchor="middle" x="690" y="-69" font-family="Helvetica,sans-Serif" font-size="10.00">cstdarg</text>
</g>
<!-- Node18&#45;&gt;Node20 -->
<g id="edge29" class="edge"><title>Node18&#45;&gt;Node20</title>
<path fill="none" stroke="midnightblue" d="M634.631,-128.734C644.803,-118.403 661.902,-101.037 674.412,-88.3315"/>
<polygon fill="midnightblue" stroke="midnightblue" points="676.983,-90.7086 681.505,-81.1273 671.995,-85.7974 676.983,-90.7086"/>
</g>
<!-- Node21 -->
<g id="node21" class="node"><title>Node21</title>
<polygon fill="white" stroke="#bfbfbf" points="536,-62 536,-81 586,-81 586,-62 536,-62"/>
<text text-anchor="middle" x="561" y="-69" font-family="Helvetica,sans-Serif" font-size="10.00">fstream</text>
</g>
<!-- Node18&#45;&gt;Node21 -->
<g id="edge31" class="edge"><title>Node18&#45;&gt;Node21</title>
<path fill="none" stroke="midnightblue" d="M617.234,-128.734C606.903,-118.403 589.537,-101.037 576.832,-88.3315"/>
<polygon fill="midnightblue" stroke="midnightblue" points="579.173,-85.7235 569.627,-81.1273 574.224,-90.6733 579.173,-85.7235"/>
</g>
</g>
</svg>
