<?xml version="1.0" encoding="UTF-8" standalone="no"?>
<!DOCTYPE svg PUBLIC "-//W3C//DTD SVG 1.1//EN"
 "http://www.w3.org/Graphics/SVG/1.1/DTD/svg11.dtd">
<!-- Generated by graphviz version 2.38.0 (20140413.2041)
 -->
<!-- Title: exception&#45;abstract.h Pages: 1 -->
<svg width="865pt" height="420pt"
 viewBox="0.00 0.00 865.00 420.00" xmlns="http://www.w3.org/2000/svg" xmlns:xlink="http://www.w3.org/1999/xlink">
<g id="graph0" class="graph" transform="scale(1 1) rotate(0) translate(4 416)">
<title>exception&#45;abstract.h</title>
<polygon fill="white" stroke="none" points="-4,4 -4,-416 861,-416 861,4 -4,4"/>
<!-- Node1 -->
<g id="node1" class="node"><title>Node1</title>
<polygon fill="#bfbfbf" stroke="black" points="81,-392.5 81,-411.5 186,-411.5 186,-392.5 81,-392.5"/>
<text text-anchor="middle" x="133.5" y="-399.5" font-family="Helvetica,sans-Serif" font-size="10.00">exception&#45;abstract.h</text>
</g>
<!-- Node2 -->
<g id="node2" class="node"><title>Node2</title>
<g id="a_node2"><a xlink:href="a00073.html" target="_top" xlink:title="exception&#45;signal.h">
<polygon fill="white" stroke="black" points="569,-336.5 569,-355.5 664,-355.5 664,-336.5 569,-336.5"/>
<text text-anchor="middle" x="616.5" y="-343.5" font-family="Helvetica,sans-Serif" font-size="10.00">exception&#45;signal.h</text>
</a>
</g>
</g>
<!-- Node1&#45;&gt;Node2 -->
<g id="edge1" class="edge"><title>Node1&#45;&gt;Node2</title>
<path fill="none" stroke="midnightblue" d="M196.163,-393.994C294.104,-383.044 481.306,-362.115 568.986,-352.312"/>
<polygon fill="midnightblue" stroke="midnightblue" points="195.658,-390.529 186.109,-395.118 196.436,-397.485 195.658,-390.529"/>
</g>
<!-- Node21 -->
<g id="node21" class="node"><title>Node21</title>
<g id="a_node21"><a xlink:href="a00072.html" target="_top" xlink:title="exception&#45;factory.h">
<polygon fill="white" stroke="black" points="83.5,-280.5 83.5,-299.5 183.5,-299.5 183.5,-280.5 83.5,-280.5"/>
<text text-anchor="middle" x="133.5" y="-287.5" font-family="Helvetica,sans-Serif" font-size="10.00">exception&#45;factory.h</text>
</a>
</g>
</g>
<!-- Node1&#45;&gt;Node21 -->
<g id="edge38" class="edge"><title>Node1&#45;&gt;Node21</title>
<path fill="none" stroke="midnightblue" d="M133.5,-382.348C133.5,-358.254 133.5,-317.308 133.5,-299.591"/>
<polygon fill="midnightblue" stroke="midnightblue" points="130,-382.368 133.5,-392.368 137,-382.369 130,-382.368"/>
</g>
<!-- Node23 -->
<g id="node23" class="node"><title>Node23</title>
<g id="a_node23"><a xlink:href="a00074.html" target="_top" xlink:title="exception&#45;traces.h">
<polygon fill="white" stroke="black" points="0,-336.5 0,-355.5 97,-355.5 97,-336.5 0,-336.5"/>
<text text-anchor="middle" x="48.5" y="-343.5" font-family="Helvetica,sans-Serif" font-size="10.00">exception&#45;traces.h</text>
</a>
</g>
</g>
<!-- Node1&#45;&gt;Node23 -->
<g id="edge42" class="edge"><title>Node1&#45;&gt;Node23</title>
<path fill="none" stroke="midnightblue" d="M111.306,-386.901C95.72,-376.999 75.3703,-364.071 62.1228,-355.655"/>
<polygon fill="midnightblue" stroke="midnightblue" points="109.526,-389.916 119.843,-392.324 113.279,-384.007 109.526,-389.916"/>
</g>
<!-- Node3 -->
<g id="node3" class="node"><title>Node3</title>
<g id="a_node3"><a xlink:href="a00090.html" target="_top" xlink:title="signal.h">
<polygon fill="white" stroke="black" points="604.5,-224.5 604.5,-243.5 654.5,-243.5 654.5,-224.5 604.5,-224.5"/>
<text text-anchor="middle" x="629.5" y="-231.5" font-family="Helvetica,sans-Serif" font-size="10.00">signal.h</text>
</a>
</g>
</g>
<!-- Node2&#45;&gt;Node3 -->
<g id="edge2" class="edge"><title>Node2&#45;&gt;Node3</title>
<path fill="none" stroke="midnightblue" d="M618.704,-326.348C621.552,-302.254 626.391,-261.308 628.485,-243.591"/>
<polygon fill="midnightblue" stroke="midnightblue" points="615.218,-326.027 617.52,-336.368 622.17,-326.848 615.218,-326.027"/>
</g>
<!-- Node6 -->
<g id="node6" class="node"><title>Node6</title>
<g id="a_node6"><a xlink:href="a00087.html" target="_top" xlink:title="signal&#45;ptr.h">
<polygon fill="white" stroke="black" points="589,-168.5 589,-187.5 654,-187.5 654,-168.5 589,-168.5"/>
<text text-anchor="middle" x="621.5" y="-175.5" font-family="Helvetica,sans-Serif" font-size="10.00">signal&#45;ptr.h</text>
</a>
</g>
</g>
<!-- Node2&#45;&gt;Node6 -->
<g id="edge34" class="edge"><title>Node2&#45;&gt;Node6</title>
<path fill="none" stroke="midnightblue" d="M608.509,-326.864C599.093,-303.005 585.876,-259.896 595.5,-224 599.192,-210.23 608.231,-196.316 614.61,-187.681"/>
<polygon fill="midnightblue" stroke="midnightblue" points="605.395,-328.491 612.472,-336.376 611.857,-325.799 605.395,-328.491"/>
</g>
<!-- Node12 -->
<g id="node12" class="node"><title>Node12</title>
<g id="a_node12"><a xlink:href="a00083.html" target="_top" xlink:title="signal&#45;base.h">
<polygon fill="white" stroke="black" points="345.5,-280.5 345.5,-299.5 419.5,-299.5 419.5,-280.5 345.5,-280.5"/>
<text text-anchor="middle" x="382.5" y="-287.5" font-family="Helvetica,sans-Serif" font-size="10.00">signal&#45;base.h</text>
</a>
</g>
</g>
<!-- Node2&#45;&gt;Node12 -->
<g id="edge16" class="edge"><title>Node2&#45;&gt;Node12</title>
<path fill="none" stroke="midnightblue" d="M569.496,-334.153C525.283,-323.95 459.984,-308.881 419.405,-299.516"/>
<polygon fill="midnightblue" stroke="midnightblue" points="568.891,-337.605 579.422,-336.444 570.465,-330.784 568.891,-337.605"/>
</g>
<!-- Node18 -->
<g id="node18" class="node"><title>Node18</title>
<g id="a_node18"><a xlink:href="a00085.html" target="_top" xlink:title="signal&#45;caster.h">
<polygon fill="white" stroke="black" points="760.5,-280.5 760.5,-299.5 840.5,-299.5 840.5,-280.5 760.5,-280.5"/>
<text text-anchor="middle" x="800.5" y="-287.5" font-family="Helvetica,sans-Serif" font-size="10.00">signal&#45;caster.h</text>
</a>
</g>
</g>
<!-- Node2&#45;&gt;Node18 -->
<g id="edge31" class="edge"><title>Node2&#45;&gt;Node18</title>
<path fill="none" stroke="midnightblue" d="M655.454,-333.568C690.165,-323.381 740.177,-308.703 771.481,-299.516"/>
<polygon fill="midnightblue" stroke="midnightblue" points="654.265,-330.269 645.655,-336.444 656.236,-336.986 654.265,-330.269"/>
</g>
<!-- Node19 -->
<g id="node19" class="node"><title>Node19</title>
<g id="a_node19"><a xlink:href="a00084.html" target="_top" xlink:title="signal&#45;cast&#45;helper.h">
<polygon fill="white" stroke="black" points="673,-224.5 673,-243.5 774,-243.5 774,-224.5 673,-224.5"/>
<text text-anchor="middle" x="723.5" y="-231.5" font-family="Helvetica,sans-Serif" font-size="10.00">signal&#45;cast&#45;helper.h</text>
</a>
</g>
</g>
<!-- Node2&#45;&gt;Node19 -->
<g id="edge37" class="edge"><title>Node2&#45;&gt;Node19</title>
<path fill="none" stroke="midnightblue" d="M630.121,-328.402C641.359,-314.974 657.931,-295.772 673.5,-280 686.627,-266.702 702.877,-252.449 713.218,-243.628"/>
<polygon fill="midnightblue" stroke="midnightblue" points="627.261,-326.368 623.57,-336.299 632.648,-330.837 627.261,-326.368"/>
</g>
<!-- Node20 -->
<g id="node20" class="node"><title>Node20</title>
<g id="a_node20"><a xlink:href="a00068.html" target="_top" xlink:title="eigen&#45;io.h">
<polygon fill="white" stroke="black" points="683,-280.5 683,-299.5 742,-299.5 742,-280.5 683,-280.5"/>
<text text-anchor="middle" x="712.5" y="-287.5" font-family="Helvetica,sans-Serif" font-size="10.00">eigen&#45;io.h</text>
</a>
</g>
</g>
<!-- Node2&#45;&gt;Node20 -->
<g id="edge35" class="edge"><title>Node2&#45;&gt;Node20</title>
<path fill="none" stroke="midnightblue" d="M641.074,-331.177C658.739,-321.241 682.013,-308.149 697.114,-299.655"/>
<polygon fill="midnightblue" stroke="midnightblue" points="638.924,-328.371 631.924,-336.324 642.356,-334.472 638.924,-328.371"/>
</g>
<!-- Node4 -->
<g id="node4" class="node"><title>Node4</title>
<g id="a_node4"><a xlink:href="a00055.html" target="_top" xlink:title="all&#45;signals.h">
<polygon fill="white" stroke="black" points="692.5,-56.5 692.5,-75.5 760.5,-75.5 760.5,-56.5 692.5,-56.5"/>
<text text-anchor="middle" x="726.5" y="-63.5" font-family="Helvetica,sans-Serif" font-size="10.00">all&#45;signals.h</text>
</a>
</g>
</g>
<!-- Node3&#45;&gt;Node4 -->
<g id="edge3" class="edge"><title>Node3&#45;&gt;Node4</title>
<path fill="none" stroke="midnightblue" d="M649.807,-218.097C672.135,-200.387 706.909,-168.587 722.5,-132 730.478,-113.278 729.214,-88.7488 727.761,-75.8347"/>
<polygon fill="midnightblue" stroke="midnightblue" points="647.433,-215.508 641.647,-224.383 651.705,-221.053 647.433,-215.508"/>
</g>
<!-- Node5 -->
<g id="node5" class="node"><title>Node5</title>
<g id="a_node5"><a xlink:href="a00091.html" target="_top" xlink:title="signal.t.cpp">
<polygon fill="white" stroke="black" points="790,-168.5 790,-187.5 857,-187.5 857,-168.5 790,-168.5"/>
<text text-anchor="middle" x="823.5" y="-175.5" font-family="Helvetica,sans-Serif" font-size="10.00">signal.t.cpp</text>
</a>
</g>
</g>
<!-- Node3&#45;&gt;Node5 -->
<g id="edge4" class="edge"><title>Node3&#45;&gt;Node5</title>
<path fill="none" stroke="midnightblue" d="M664.696,-221.638C700.262,-211.266 754.625,-196.195 789.697,-187.026"/>
<polygon fill="midnightblue" stroke="midnightblue" points="663.357,-218.384 654.75,-224.562 665.331,-225.1 663.357,-218.384"/>
</g>
<!-- Node3&#45;&gt;Node6 -->
<g id="edge6" class="edge"><title>Node3&#45;&gt;Node6</title>
<path fill="none" stroke="midnightblue" d="M626.7,-214.101C625.372,-205.136 623.849,-194.858 622.796,-187.751"/>
<polygon fill="midnightblue" stroke="midnightblue" points="623.251,-214.704 628.179,-224.083 630.176,-213.678 623.251,-214.704"/>
</g>
<!-- Node9 -->
<g id="node9" class="node"><title>Node9</title>
<g id="a_node9"><a xlink:href="a00089.html" target="_top" xlink:title="signal&#45;time&#45;dependent.h">
<polygon fill="white" stroke="black" points="440.5,-112.5 440.5,-131.5 560.5,-131.5 560.5,-112.5 440.5,-112.5"/>
<text text-anchor="middle" x="500.5" y="-119.5" font-family="Helvetica,sans-Serif" font-size="10.00">signal&#45;time&#45;dependent.h</text>
</a>
</g>
</g>
<!-- Node3&#45;&gt;Node9 -->
<g id="edge11" class="edge"><title>Node3&#45;&gt;Node9</title>
<path fill="none" stroke="midnightblue" d="M611.693,-217.816C584.218,-194.387 532.386,-150.19 510.575,-131.591"/>
<polygon fill="midnightblue" stroke="midnightblue" points="609.497,-220.543 619.378,-224.368 614.039,-215.217 609.497,-220.543"/>
</g>
<!-- Node5&#45;&gt;Node3 -->
<g id="edge5" class="edge"><title>Node5&#45;&gt;Node3</title>
<path fill="none" stroke="midnightblue" d="M788.006,-190.448C749.339,-201.72 688.709,-218.479 654.632,-227.221"/>
<polygon fill="midnightblue" stroke="midnightblue" points="789.203,-193.745 797.811,-187.568 787.23,-187.028 789.203,-193.745"/>
</g>
<!-- Node6&#45;&gt;Node4 -->
<g id="edge7" class="edge"><title>Node6&#45;&gt;Node4</title>
<path fill="none" stroke="midnightblue" d="M656.131,-164.356C672.096,-157.025 690.188,-146.362 702.5,-132 716.906,-115.196 723.002,-88.9684 725.291,-75.5449"/>
<polygon fill="midnightblue" stroke="midnightblue" points="654.333,-161.32 646.537,-168.494 657.106,-167.748 654.333,-161.32"/>
</g>
<!-- Node7 -->
<g id="node7" class="node"><title>Node7</title>
<g id="a_node7"><a xlink:href="a00088.html" target="_top" xlink:title="signal&#45;ptr.t.cpp">
<polygon fill="white" stroke="black" points="579,-112.5 579,-131.5 660,-131.5 660,-112.5 579,-112.5"/>
<text text-anchor="middle" x="619.5" y="-119.5" font-family="Helvetica,sans-Serif" font-size="10.00">signal&#45;ptr.t.cpp</text>
</a>
</g>
</g>
<!-- Node6&#45;&gt;Node7 -->
<g id="edge8" class="edge"><title>Node6&#45;&gt;Node7</title>
<path fill="none" stroke="midnightblue" d="M614.328,-158.101C613.364,-149.136 613.43,-138.858 614.693,-131.751"/>
<polygon fill="midnightblue" stroke="midnightblue" points="610.896,-158.8 616.003,-168.083 617.799,-157.642 610.896,-158.8"/>
</g>
<!-- Node8 -->
<g id="node8" class="node"><title>Node8</title>
<g id="a_node8"><a xlink:href="a00086.html" target="_top" xlink:title="signal&#45;helper.h">
<polygon fill="white" stroke="black" points="460.5,-56.5 460.5,-75.5 540.5,-75.5 540.5,-56.5 460.5,-56.5"/>
<text text-anchor="middle" x="500.5" y="-63.5" font-family="Helvetica,sans-Serif" font-size="10.00">signal&#45;helper.h</text>
</a>
</g>
</g>
<!-- Node6&#45;&gt;Node8 -->
<g id="edge10" class="edge"><title>Node6&#45;&gt;Node8</title>
<path fill="none" stroke="midnightblue" d="M643.919,-162.546C661.72,-149.259 681.614,-129.089 668.5,-112 653.013,-91.8184 585.13,-78.7086 540.535,-72.1045"/>
<polygon fill="midnightblue" stroke="midnightblue" points="641.664,-159.854 635.502,-168.473 645.694,-165.577 641.664,-159.854"/>
</g>
<!-- Node7&#45;&gt;Node6 -->
<g id="edge9" class="edge"><title>Node7&#45;&gt;Node6</title>
<path fill="none" stroke="midnightblue" d="M626.65,-141.691C627.63,-150.635 627.581,-160.927 626.336,-168.083"/>
<polygon fill="midnightblue" stroke="midnightblue" points="630.086,-141.021 624.955,-131.751 623.186,-142.197 630.086,-141.021"/>
</g>
<!-- Node9&#45;&gt;Node4 -->
<g id="edge12" class="edge"><title>Node9&#45;&gt;Node4</title>
<path fill="none" stroke="midnightblue" d="M546.288,-110.059C589.525,-99.7284 653.386,-84.4698 692.337,-75.1629"/>
<polygon fill="midnightblue" stroke="midnightblue" points="545.223,-106.715 536.31,-112.444 546.85,-113.524 545.223,-106.715"/>
</g>
<!-- Node9&#45;&gt;Node8 -->
<g id="edge13" class="edge"><title>Node9&#45;&gt;Node8</title>
<path fill="none" stroke="midnightblue" d="M500.5,-101.805C500.5,-92.9102 500.5,-82.7798 500.5,-75.7511"/>
<polygon fill="midnightblue" stroke="midnightblue" points="497,-102.083 500.5,-112.083 504,-102.083 497,-102.083"/>
</g>
<!-- Node10 -->
<g id="node10" class="node"><title>Node10</title>
<g id="a_node10"><a xlink:href="a00096.html" target="_top" xlink:title="tracer.h">
<polygon fill="white" stroke="black" points="311.5,-56.5 311.5,-75.5 361.5,-75.5 361.5,-56.5 311.5,-56.5"/>
<text text-anchor="middle" x="336.5" y="-63.5" font-family="Helvetica,sans-Serif" font-size="10.00">tracer.h</text>
</a>
</g>
</g>
<!-- Node9&#45;&gt;Node10 -->
<g id="edge14" class="edge"><title>Node9&#45;&gt;Node10</title>
<path fill="none" stroke="midnightblue" d="M464.892,-109.275C433.692,-99.0021 389.138,-84.3319 361.558,-75.2508"/>
<polygon fill="midnightblue" stroke="midnightblue" points="463.921,-112.64 474.514,-112.444 466.11,-105.992 463.921,-112.64"/>
</g>
<!-- Node11 -->
<g id="node11" class="node"><title>Node11</title>
<g id="a_node11"><a xlink:href="a00094.html" target="_top" xlink:title="tracer&#45;real&#45;time.h">
<polygon fill="white" stroke="black" points="291.5,-0.5 291.5,-19.5 381.5,-19.5 381.5,-0.5 291.5,-0.5"/>
<text text-anchor="middle" x="336.5" y="-7.5" font-family="Helvetica,sans-Serif" font-size="10.00">tracer&#45;real&#45;time.h</text>
</a>
</g>
</g>
<!-- Node10&#45;&gt;Node11 -->
<g id="edge15" class="edge"><title>Node10&#45;&gt;Node11</title>
<path fill="none" stroke="midnightblue" d="M336.5,-45.8045C336.5,-36.9102 336.5,-26.7798 336.5,-19.7511"/>
<polygon fill="midnightblue" stroke="midnightblue" points="333,-46.083 336.5,-56.083 340,-46.083 333,-46.083"/>
</g>
<!-- Node12&#45;&gt;Node3 -->
<g id="edge17" class="edge"><title>Node12&#45;&gt;Node3</title>
<path fill="none" stroke="midnightblue" d="M429.735,-278.673C481.764,-267.299 563.467,-249.436 604.386,-240.49"/>
<polygon fill="midnightblue" stroke="midnightblue" points="428.768,-275.302 419.746,-280.857 430.263,-282.141 428.768,-275.302"/>
</g>
<!-- Node12&#45;&gt;Node10 -->
<g id="edge30" class="edge"><title>Node12&#45;&gt;Node10</title>
<path fill="none" stroke="midnightblue" d="M382.21,-270.121C381.939,-257.142 381.431,-239.515 380.5,-224 379.004,-199.057 381.167,-192.337 375.5,-168 367.23,-132.485 349.097,-92.7951 340.799,-75.6535"/>
<polygon fill="midnightblue" stroke="midnightblue" points="378.711,-270.226 382.391,-280.161 385.71,-270.1 378.711,-270.226"/>
</g>
<!-- Node13 -->
<g id="node13" class="node"><title>Node13</title>
<g id="a_node13"><a xlink:href="a00092.html" target="_top" xlink:title="time&#45;dependency.h">
<polygon fill="white" stroke="black" points="201,-168.5 201,-187.5 300,-187.5 300,-168.5 201,-168.5"/>
<text text-anchor="middle" x="250.5" y="-175.5" font-family="Helvetica,sans-Serif" font-size="10.00">time&#45;dependency.h</text>
</a>
</g>
</g>
<!-- Node12&#45;&gt;Node13 -->
<g id="edge18" class="edge"><title>Node12&#45;&gt;Node13</title>
<path fill="none" stroke="midnightblue" d="M335.513,-280.368C312.725,-273.923 286.643,-262.846 269.5,-244 254.944,-227.997 251.497,-201.419 250.709,-187.735"/>
<polygon fill="midnightblue" stroke="midnightblue" points="334.815,-283.803 345.374,-282.936 336.578,-277.029 334.815,-283.803"/>
</g>
<!-- Node15 -->
<g id="node15" class="node"><title>Node15</title>
<g id="a_node15"><a xlink:href="a00082.html" target="_top" xlink:title="signal&#45;array.h">
<polygon fill="white" stroke="black" points="279,-224.5 279,-243.5 354,-243.5 354,-224.5 279,-224.5"/>
<text text-anchor="middle" x="316.5" y="-231.5" font-family="Helvetica,sans-Serif" font-size="10.00">signal&#45;array.h</text>
</a>
</g>
</g>
<!-- Node12&#45;&gt;Node15 -->
<g id="edge23" class="edge"><title>Node12&#45;&gt;Node15</title>
<path fill="none" stroke="midnightblue" d="M363.946,-273.82C352.122,-264.145 337.214,-251.948 327.297,-243.834"/>
<polygon fill="midnightblue" stroke="midnightblue" points="361.94,-276.7 371.896,-280.324 366.373,-271.283 361.94,-276.7"/>
</g>
<!-- Node16 -->
<g id="node16" class="node"><title>Node16</title>
<g id="a_node16"><a xlink:href="a00070.html" target="_top" xlink:title="entity.h">
<polygon fill="white" stroke="black" points="318,-168.5 318,-187.5 367,-187.5 367,-168.5 318,-168.5"/>
<text text-anchor="middle" x="342.5" y="-175.5" font-family="Helvetica,sans-Serif" font-size="10.00">entity.h</text>
</a>
</g>
</g>
<!-- Node12&#45;&gt;Node16 -->
<g id="edge28" class="edge"><title>Node12&#45;&gt;Node16</title>
<path fill="none" stroke="midnightblue" d="M377.523,-270.767C373.784,-257.629 368.323,-239.549 362.5,-224 357.702,-211.19 351.089,-196.814 346.804,-187.834"/>
<polygon fill="midnightblue" stroke="midnightblue" points="374.173,-271.784 380.229,-280.477 380.916,-269.905 374.173,-271.784"/>
</g>
<!-- Node17 -->
<g id="node17" class="node"><title>Node17</title>
<g id="a_node17"><a xlink:href="a00080.html" target="_top" xlink:title="pool.h">
<polygon fill="white" stroke="black" points="179,-224.5 179,-243.5 222,-243.5 222,-224.5 179,-224.5"/>
<text text-anchor="middle" x="200.5" y="-231.5" font-family="Helvetica,sans-Serif" font-size="10.00">pool.h</text>
</a>
</g>
</g>
<!-- Node12&#45;&gt;Node17 -->
<g id="edge29" class="edge"><title>Node12&#45;&gt;Node17</title>
<path fill="none" stroke="midnightblue" d="M343.696,-277.487C306.594,-266.478 252.002,-250.281 222.079,-241.403"/>
<polygon fill="midnightblue" stroke="midnightblue" points="343.079,-280.954 353.662,-280.444 345.07,-274.244 343.079,-280.954"/>
</g>
<!-- Node13&#45;&gt;Node9 -->
<g id="edge19" class="edge"><title>Node13&#45;&gt;Node9</title>
<path fill="none" stroke="midnightblue" d="M300.123,-166.281C347.366,-156.077 417.536,-140.92 461.072,-131.516"/>
<polygon fill="midnightblue" stroke="midnightblue" points="299.149,-162.911 290.113,-168.444 300.627,-169.753 299.149,-162.911"/>
</g>
<!-- Node13&#45;&gt;Node10 -->
<g id="edge22" class="edge"><title>Node13&#45;&gt;Node10</title>
<path fill="none" stroke="midnightblue" d="M220.497,-164.065C196.25,-151.743 168.434,-132.136 183.5,-112 198.843,-91.4939 271.912,-77.1251 311.263,-70.7322"/>
<polygon fill="midnightblue" stroke="midnightblue" points="218.991,-167.224 229.519,-168.416 222.032,-160.919 218.991,-167.224"/>
</g>
<!-- Node14 -->
<g id="node14" class="node"><title>Node14</title>
<g id="a_node14"><a xlink:href="a00093.html" target="_top" xlink:title="time&#45;dependency.t.cpp">
<polygon fill="white" stroke="black" points="192.5,-112.5 192.5,-131.5 308.5,-131.5 308.5,-112.5 192.5,-112.5"/>
<text text-anchor="middle" x="250.5" y="-119.5" font-family="Helvetica,sans-Serif" font-size="10.00">time&#45;dependency.t.cpp</text>
</a>
</g>
</g>
<!-- Node13&#45;&gt;Node14 -->
<g id="edge20" class="edge"><title>Node13&#45;&gt;Node14</title>
<path fill="none" stroke="midnightblue" d="M244.028,-158.101C243.396,-149.136 243.843,-138.858 245.369,-131.751"/>
<polygon fill="midnightblue" stroke="midnightblue" points="240.566,-158.622 245.334,-168.083 247.507,-157.713 240.566,-158.622"/>
</g>
<!-- Node14&#45;&gt;Node13 -->
<g id="edge21" class="edge"><title>Node14&#45;&gt;Node13</title>
<path fill="none" stroke="midnightblue" d="M256.958,-141.691C257.606,-150.635 257.176,-160.927 255.666,-168.083"/>
<polygon fill="midnightblue" stroke="midnightblue" points="260.423,-141.2 255.631,-131.751 253.485,-142.126 260.423,-141.2"/>
</g>
<!-- Node15&#45;&gt;Node13 -->
<g id="edge24" class="edge"><title>Node15&#45;&gt;Node13</title>
<path fill="none" stroke="midnightblue" d="M297.946,-217.82C286.122,-208.145 271.214,-195.948 261.297,-187.834"/>
<polygon fill="midnightblue" stroke="midnightblue" points="295.94,-220.7 305.896,-224.324 300.373,-215.283 295.94,-220.7"/>
</g>
<!-- Node15&#45;&gt;Node16 -->
<g id="edge25" class="edge"><title>Node15&#45;&gt;Node16</title>
<path fill="none" stroke="midnightblue" d="M325.175,-214.983C329.588,-205.817 334.752,-195.092 338.287,-187.751"/>
<polygon fill="midnightblue" stroke="midnightblue" points="321.978,-213.555 320.793,-224.083 328.285,-216.591 321.978,-213.555"/>
</g>
<!-- Node16&#45;&gt;Node8 -->
<g id="edge26" class="edge"><title>Node16&#45;&gt;Node8</title>
<path fill="none" stroke="midnightblue" d="M362.331,-162.052C380.226,-148.676 407.367,-128.665 431.5,-112 450.447,-98.9162 472.853,-84.4909 486.874,-75.5863"/>
<polygon fill="midnightblue" stroke="midnightblue" points="359.782,-159.59 353.881,-168.39 363.982,-165.19 359.782,-159.59"/>
</g>
<!-- Node16&#45;&gt;Node10 -->
<g id="edge27" class="edge"><title>Node16&#45;&gt;Node10</title>
<path fill="none" stroke="midnightblue" d="M341.483,-158.348C340.168,-134.254 337.935,-93.3079 336.969,-75.5914"/>
<polygon fill="midnightblue" stroke="midnightblue" points="337.99,-158.574 342.029,-168.368 344.979,-158.193 337.99,-158.574"/>
</g>
<!-- Node18&#45;&gt;Node5 -->
<g id="edge32" class="edge"><title>Node18&#45;&gt;Node5</title>
<path fill="none" stroke="midnightblue" d="M804.4,-270.348C809.438,-246.254 817.999,-205.308 821.704,-187.591"/>
<polygon fill="midnightblue" stroke="midnightblue" points="800.926,-269.864 802.305,-280.368 807.777,-271.297 800.926,-269.864"/>
</g>
<!-- Node18&#45;&gt;Node19 -->
<g id="edge33" class="edge"><title>Node18&#45;&gt;Node19</title>
<path fill="none" stroke="midnightblue" d="M779.599,-274.342C765.589,-264.517 747.617,-251.913 735.841,-243.655"/>
<polygon fill="midnightblue" stroke="midnightblue" points="777.932,-277.448 788.129,-280.324 781.951,-271.717 777.932,-277.448"/>
</g>
<!-- Node20&#45;&gt;Node19 -->
<g id="edge36" class="edge"><title>Node20&#45;&gt;Node19</title>
<path fill="none" stroke="midnightblue" d="M716.35,-270.101C718.176,-261.136 720.27,-250.858 721.717,-243.751"/>
<polygon fill="midnightblue" stroke="midnightblue" points="712.883,-269.586 714.316,-280.083 719.742,-270.983 712.883,-269.586"/>
</g>
<!-- Node21&#45;&gt;Node16 -->
<g id="edge39" class="edge"><title>Node21&#45;&gt;Node16</title>
<path fill="none" stroke="midnightblue" d="M114.288,-273.424C99.5174,-259.58 83.6346,-239.234 96.5,-224 127.332,-187.492 261.799,-198.124 308.5,-188 311.484,-187.353 314.599,-186.616 317.68,-185.848"/>
<polygon fill="midnightblue" stroke="midnightblue" points="112.369,-276.397 122.19,-280.372 116.992,-271.141 112.369,-276.397"/>
</g>
<!-- Node21&#45;&gt;Node17 -->
<g id="edge41" class="edge"><title>Node21&#45;&gt;Node17</title>
<path fill="none" stroke="midnightblue" d="M152.335,-273.82C164.338,-264.145 179.472,-251.948 189.539,-243.834"/>
<polygon fill="midnightblue" stroke="midnightblue" points="149.854,-271.324 144.265,-280.324 154.247,-276.774 149.854,-271.324"/>
</g>
<!-- Node22 -->
<g id="node22" class="node"><title>Node22</title>
<g id="a_node22"><a xlink:href="a00075.html" target="_top" xlink:title="factory.h">
<polygon fill="white" stroke="black" points="106,-224.5 106,-243.5 161,-243.5 161,-224.5 106,-224.5"/>
<text text-anchor="middle" x="133.5" y="-231.5" font-family="Helvetica,sans-Serif" font-size="10.00">factory.h</text>
</a>
</g>
</g>
<!-- Node21&#45;&gt;Node22 -->
<g id="edge40" class="edge"><title>Node21&#45;&gt;Node22</title>
<path fill="none" stroke="midnightblue" d="M133.5,-269.805C133.5,-260.91 133.5,-250.78 133.5,-243.751"/>
<polygon fill="midnightblue" stroke="midnightblue" points="130,-270.083 133.5,-280.083 137,-270.083 130,-270.083"/>
</g>
<!-- Node23&#45;&gt;Node10 -->
<g id="edge43" class="edge"><title>Node23&#45;&gt;Node10</title>
<path fill="none" stroke="midnightblue" d="M46.0329,-326.289C43.3684,-304.431 39.5,-267.159 39.5,-235 39.5,-235 39.5,-235 39.5,-177 39.5,-119.197 239.831,-82.1431 311.434,-70.7454"/>
<polygon fill="midnightblue" stroke="midnightblue" points="42.5926,-326.982 47.3234,-336.462 49.5369,-326.101 42.5926,-326.982"/>
</g>
</g>
</svg>
