<?xml version="1.0" encoding="UTF-8" standalone="no"?>
<!DOCTYPE svg PUBLIC "-//W3C//DTD SVG 1.1//EN"
 "http://www.w3.org/Graphics/SVG/1.1/DTD/svg11.dtd">
<!-- Generated by graphviz version 2.38.0 (20140413.2041)
 -->
<!-- Title: exception&#45;abstract.h Pages: 1 -->
<svg width="393pt" height="151pt"
 viewBox="0.00 0.00 392.50 151.00" xmlns="http://www.w3.org/2000/svg" xmlns:xlink="http://www.w3.org/1999/xlink">
<g id="graph0" class="graph" transform="scale(1 1) rotate(0) translate(4 147)">
<title>exception&#45;abstract.h</title>
<polygon fill="white" stroke="none" points="-4,4 -4,-147 388.5,-147 388.5,4 -4,4"/>
<!-- Node1 -->
<g id="node1" class="node"><title>Node1</title>
<polygon fill="#bfbfbf" stroke="black" points="87.5,-123.5 87.5,-142.5 192.5,-142.5 192.5,-123.5 87.5,-123.5"/>
<text text-anchor="middle" x="140" y="-130.5" font-family="Helvetica,sans-Serif" font-size="10.00">exception&#45;abstract.h</text>
</g>
<!-- Node2 -->
<g id="node2" class="node"><title>Node2</title>
<polygon fill="white" stroke="#bfbfbf" points="0,-62 0,-81 54,-81 54,-62 0,-62"/>
<text text-anchor="middle" x="27" y="-69" font-family="Helvetica,sans-Serif" font-size="10.00">iostream</text>
</g>
<!-- Node1&#45;&gt;Node2 -->
<g id="edge1" class="edge"><title>Node1&#45;&gt;Node2</title>
<path fill="none" stroke="midnightblue" d="M123.81,-123.475C105.098,-113.622 74.0769,-97.2883 52.2013,-85.7697"/>
<polygon fill="midnightblue" stroke="midnightblue" points="53.6392,-82.5713 43.1601,-81.0091 50.3778,-88.7651 53.6392,-82.5713"/>
</g>
<!-- Node3 -->
<g id="node3" class="node"><title>Node3</title>
<polygon fill="white" stroke="#bfbfbf" points="72.5,-62 72.5,-81 113.5,-81 113.5,-62 72.5,-62"/>
<text text-anchor="middle" x="93" y="-69" font-family="Helvetica,sans-Serif" font-size="10.00">string</text>
</g>
<!-- Node1&#45;&gt;Node3 -->
<g id="edge2" class="edge"><title>Node1&#45;&gt;Node3</title>
<path fill="none" stroke="midnightblue" d="M133.266,-123.475C126.216,-114.55 114.965,-100.307 106.146,-89.1425"/>
<polygon fill="midnightblue" stroke="midnightblue" points="108.667,-86.6867 99.7215,-81.0091 103.174,-91.0258 108.667,-86.6867"/>
</g>
<!-- Node4 -->
<g id="node4" class="node"><title>Node4</title>
<g id="a_node4"><a xlink:href="a00076.html" target="_top" xlink:title="dynamic&#45;graph/fwd.hh">
<polygon fill="white" stroke="black" points="131.5,-62 131.5,-81 244.5,-81 244.5,-62 131.5,-62"/>
<text text-anchor="middle" x="188" y="-69" font-family="Helvetica,sans-Serif" font-size="10.00">dynamic&#45;graph/fwd.hh</text>
</a>
</g>
</g>
<!-- Node1&#45;&gt;Node4 -->
<g id="edge3" class="edge"><title>Node1&#45;&gt;Node4</title>
<path fill="none" stroke="midnightblue" d="M146.877,-123.475C154.149,-114.462 165.795,-100.025 174.841,-88.8118"/>
<polygon fill="midnightblue" stroke="midnightblue" points="177.581,-90.9898 181.136,-81.0091 172.133,-86.5946 177.581,-90.9898"/>
</g>
<!-- Node5 -->
<g id="node5" class="node"><title>Node5</title>
<g id="a_node5"><a xlink:href="a00067.html" target="_top" xlink:title="dynamic&#45;graph/dynamic\l&#45;graph&#45;api.h">
<polygon fill="white" stroke="black" points="263,-56.5 263,-86.5 383,-86.5 383,-56.5 263,-56.5"/>
<text text-anchor="start" x="271" y="-74.5" font-family="Helvetica,sans-Serif" font-size="10.00">dynamic&#45;graph/dynamic</text>
<text text-anchor="middle" x="323" y="-63.5" font-family="Helvetica,sans-Serif" font-size="10.00">&#45;graph&#45;api.h</text>
</a>
</g>
</g>
<!-- Node1&#45;&gt;Node5 -->
<g id="edge4" class="edge"><title>Node1&#45;&gt;Node5</title>
<path fill="none" stroke="midnightblue" d="M166.219,-123.475C193.205,-114.701 235.997,-100.788 270.061,-89.7123"/>
<polygon fill="midnightblue" stroke="midnightblue" points="271.443,-92.9436 279.871,-86.523 269.278,-86.2866 271.443,-92.9436"/>
</g>
<!-- Node6 -->
<g id="node6" class="node"><title>Node6</title>
<polygon fill="white" stroke="#bfbfbf" points="261.5,-0.5 261.5,-19.5 384.5,-19.5 384.5,-0.5 261.5,-0.5"/>
<text text-anchor="middle" x="323" y="-7.5" font-family="Helvetica,sans-Serif" font-size="10.00">dynamic&#45;graph/config.hh</text>
</g>
<!-- Node5&#45;&gt;Node6 -->
<g id="edge5" class="edge"><title>Node5&#45;&gt;Node6</title>
<path fill="none" stroke="midnightblue" d="M323,-56.3993C323,-48.4664 323,-38.458 323,-29.8583"/>
<polygon fill="midnightblue" stroke="midnightblue" points="326.5,-29.6577 323,-19.6578 319.5,-29.6578 326.5,-29.6577"/>
</g>
</g>
</svg>
