<?xml version="1.0" encoding="UTF-8" standalone="no"?>
<!DOCTYPE svg PUBLIC "-//W3C//DTD SVG 1.1//EN"
 "http://www.w3.org/Graphics/SVG/1.1/DTD/svg11.dtd">
<!-- Generated by graphviz version 2.38.0 (20140413.2041)
 -->
<!-- Title: signal.h Pages: 1 -->
<svg width="1768pt" height="408pt"
 viewBox="0.00 0.00 1767.98 408.00" xmlns="http://www.w3.org/2000/svg" xmlns:xlink="http://www.w3.org/1999/xlink">
<g id="graph0" class="graph" transform="scale(1 1) rotate(0) translate(4 404)">
<title>signal.h</title>
<polygon fill="white" stroke="none" points="-4,4 -4,-404 1763.98,-404 1763.98,4 -4,4"/>
<!-- Node1 -->
<g id="node1" class="node"><title>Node1</title>
<polygon fill="#bfbfbf" stroke="black" points="299,-380.5 299,-399.5 349,-399.5 349,-380.5 299,-380.5"/>
<text text-anchor="middle" x="324" y="-387.5" font-family="Helvetica,sans-Serif" font-size="10.00">signal.h</text>
</g>
<!-- Node2 -->
<g id="node2" class="node"><title>Node2</title>
<polygon fill="white" stroke="#bfbfbf" points="0,-324.5 0,-343.5 80,-343.5 80,-324.5 0,-324.5"/>
<text text-anchor="middle" x="40" y="-331.5" font-family="Helvetica,sans-Serif" font-size="10.00">boost/bind.hpp</text>
</g>
<!-- Node1&#45;&gt;Node2 -->
<g id="edge1" class="edge"><title>Node1&#45;&gt;Node2</title>
<path fill="none" stroke="midnightblue" d="M298.797,-384.208C252.214,-375.35 151.824,-356.262 90.6762,-344.636"/>
<polygon fill="midnightblue" stroke="midnightblue" points="90.9536,-341.126 80.4758,-342.696 89.6459,-348.003 90.9536,-341.126"/>
</g>
<!-- Node3 -->
<g id="node3" class="node"><title>Node3</title>
<polygon fill="white" stroke="#bfbfbf" points="98.5,-324.5 98.5,-343.5 195.5,-343.5 195.5,-324.5 98.5,-324.5"/>
<text text-anchor="middle" x="147" y="-331.5" font-family="Helvetica,sans-Serif" font-size="10.00">boost/function.hpp</text>
</g>
<!-- Node1&#45;&gt;Node3 -->
<g id="edge2" class="edge"><title>Node1&#45;&gt;Node3</title>
<path fill="none" stroke="midnightblue" d="M298.64,-381.263C268.799,-372.159 218.972,-356.957 184.625,-346.479"/>
<polygon fill="midnightblue" stroke="midnightblue" points="185.527,-343.095 174.941,-343.524 183.484,-349.79 185.527,-343.095"/>
</g>
<!-- Node4 -->
<g id="node4" class="node"><title>Node4</title>
<polygon fill="white" stroke="#bfbfbf" points="279.5,-62 279.5,-81 320.5,-81 320.5,-62 279.5,-62"/>
<text text-anchor="middle" x="300" y="-69" font-family="Helvetica,sans-Serif" font-size="10.00">string</text>
</g>
<!-- Node1&#45;&gt;Node4 -->
<g id="edge3" class="edge"><title>Node1&#45;&gt;Node4</title>
<path fill="none" stroke="midnightblue" d="M300.73,-380.386C283.919,-373.067 261.825,-361.02 248,-344 227.132,-318.308 224,-306.599 224,-273.5 224,-273.5 224,-273.5 224,-204.5 224,-166.74 228.482,-155.325 248,-123 256.293,-109.264 269.225,-96.6843 280.116,-87.5157"/>
<polygon fill="midnightblue" stroke="midnightblue" points="282.352,-90.2095 287.938,-81.2068 277.957,-84.7611 282.352,-90.2095"/>
</g>
<!-- Node5 -->
<g id="node5" class="node"><title>Node5</title>
<polygon fill="white" stroke="#bfbfbf" points="479,-62 479,-81 533,-81 533,-62 479,-62"/>
<text text-anchor="middle" x="506" y="-69" font-family="Helvetica,sans-Serif" font-size="10.00">iostream</text>
</g>
<!-- Node1&#45;&gt;Node5 -->
<g id="edge4" class="edge"><title>Node1&#45;&gt;Node5</title>
<path fill="none" stroke="midnightblue" d="M315.379,-380.291C298.343,-362.113 262,-318.107 262,-273.5 262,-273.5 262,-273.5 262,-204.5 262,-111.695 400.24,-83.813 468.614,-75.6983"/>
<polygon fill="midnightblue" stroke="midnightblue" points="469.399,-79.1331 478.955,-74.5588 468.632,-72.1752 469.399,-79.1331"/>
</g>
<!-- Node6 -->
<g id="node6" class="node"><title>Node6</title>
<g id="a_node6"><a xlink:href="a00073.html" target="_top" xlink:title="dynamic&#45;graph/exception\l&#45;signal.h">
<polygon fill="white" stroke="black" points="648.5,-190.5 648.5,-220.5 773.5,-220.5 773.5,-190.5 648.5,-190.5"/>
<text text-anchor="start" x="656.5" y="-208.5" font-family="Helvetica,sans-Serif" font-size="10.00">dynamic&#45;graph/exception</text>
<text text-anchor="middle" x="711" y="-197.5" font-family="Helvetica,sans-Serif" font-size="10.00">&#45;signal.h</text>
</a>
</g>
</g>
<!-- Node1&#45;&gt;Node6 -->
<g id="edge5" class="edge"><title>Node1&#45;&gt;Node6</title>
<path fill="none" stroke="midnightblue" d="M345.132,-380.486C386.335,-363.743 480.104,-324.945 557,-288 598.883,-267.877 645.95,-242.56 676.9,-225.527"/>
<polygon fill="midnightblue" stroke="midnightblue" points="678.902,-228.419 685.964,-220.521 675.518,-222.291 678.902,-228.419"/>
</g>
<!-- Node11 -->
<g id="node11" class="node"><title>Node11</title>
<g id="a_node11"><a xlink:href="a00083.html" target="_top" xlink:title="dynamic&#45;graph/signal\l&#45;base.h">
<polygon fill="white" stroke="black" points="438.5,-257.5 438.5,-287.5 547.5,-287.5 547.5,-257.5 438.5,-257.5"/>
<text text-anchor="start" x="446.5" y="-275.5" font-family="Helvetica,sans-Serif" font-size="10.00">dynamic&#45;graph/signal</text>
<text text-anchor="middle" x="493" y="-264.5" font-family="Helvetica,sans-Serif" font-size="10.00">&#45;base.h</text>
</a>
</g>
</g>
<!-- Node1&#45;&gt;Node11 -->
<g id="edge14" class="edge"><title>Node1&#45;&gt;Node11</title>
<path fill="none" stroke="midnightblue" d="M336.702,-380.319C363.565,-361.96 426.723,-318.796 464.011,-293.312"/>
<polygon fill="midnightblue" stroke="midnightblue" points="466.168,-296.077 472.449,-287.545 462.218,-290.298 466.168,-296.077"/>
</g>
<!-- Node15 -->
<g id="node15" class="node"><title>Node15</title>
<g id="a_node15"><a xlink:href="a00091.html" target="_top" xlink:title="dynamic&#45;graph/signal.t.cpp">
<polygon fill="white" stroke="black" points="770,-324.5 770,-343.5 904,-343.5 904,-324.5 770,-324.5"/>
<text text-anchor="middle" x="837" y="-331.5" font-family="Helvetica,sans-Serif" font-size="10.00">dynamic&#45;graph/signal.t.cpp</text>
</a>
</g>
</g>
<!-- Node1&#45;&gt;Node15 -->
<g id="edge22" class="edge"><title>Node1&#45;&gt;Node15</title>
<path fill="none" stroke="midnightblue" d="M349.011,-386.02C422.881,-377.824 641.543,-354.751 759.54,-342.64"/>
<polygon fill="midnightblue" stroke="midnightblue" points="760.003,-346.111 769.594,-341.61 759.29,-339.148 760.003,-346.111"/>
</g>
<!-- Node7 -->
<g id="node7" class="node"><title>Node7</title>
<g id="a_node7"><a xlink:href="a00076.html" target="_top" xlink:title="dynamic&#45;graph/fwd.hh">
<polygon fill="white" stroke="black" points="572.5,-62 572.5,-81 685.5,-81 685.5,-62 572.5,-62"/>
<text text-anchor="middle" x="629" y="-69" font-family="Helvetica,sans-Serif" font-size="10.00">dynamic&#45;graph/fwd.hh</text>
</a>
</g>
</g>
<!-- Node6&#45;&gt;Node7 -->
<g id="edge6" class="edge"><title>Node6&#45;&gt;Node7</title>
<path fill="none" stroke="midnightblue" d="M713.969,-190.454C716.815,-173.303 719.092,-143.991 707,-123 697.172,-105.94 678.987,-93.6682 662.646,-85.4971"/>
<polygon fill="midnightblue" stroke="midnightblue" points="663.859,-82.2009 653.316,-81.1547 660.905,-88.5473 663.859,-82.2009"/>
</g>
<!-- Node8 -->
<g id="node8" class="node"><title>Node8</title>
<g id="a_node8"><a xlink:href="a00067.html" target="_top" xlink:title="dynamic&#45;graph/dynamic\l&#45;graph&#45;api.h">
<polygon fill="white" stroke="black" points="704,-56.5 704,-86.5 824,-86.5 824,-56.5 704,-56.5"/>
<text text-anchor="start" x="712" y="-74.5" font-family="Helvetica,sans-Serif" font-size="10.00">dynamic&#45;graph/dynamic</text>
<text text-anchor="middle" x="764" y="-63.5" font-family="Helvetica,sans-Serif" font-size="10.00">&#45;graph&#45;api.h</text>
</a>
</g>
</g>
<!-- Node6&#45;&gt;Node8 -->
<g id="edge7" class="edge"><title>Node6&#45;&gt;Node8</title>
<path fill="none" stroke="midnightblue" d="M720.31,-190.381C726.519,-180.502 734.518,-166.83 740,-154 747.988,-135.308 754.33,-113.122 758.485,-96.6211"/>
<polygon fill="midnightblue" stroke="midnightblue" points="761.937,-97.2358 760.894,-86.6925 755.134,-95.5852 761.937,-97.2358"/>
</g>
<!-- Node10 -->
<g id="node10" class="node"><title>Node10</title>
<g id="a_node10"><a xlink:href="a00071.html" target="_top" xlink:title="dynamic&#45;graph/exception\l&#45;abstract.h">
<polygon fill="white" stroke="black" points="572.5,-123.5 572.5,-153.5 697.5,-153.5 697.5,-123.5 572.5,-123.5"/>
<text text-anchor="start" x="580.5" y="-141.5" font-family="Helvetica,sans-Serif" font-size="10.00">dynamic&#45;graph/exception</text>
<text text-anchor="middle" x="635" y="-130.5" font-family="Helvetica,sans-Serif" font-size="10.00">&#45;abstract.h</text>
</a>
</g>
</g>
<!-- Node6&#45;&gt;Node10 -->
<g id="edge9" class="edge"><title>Node6&#45;&gt;Node10</title>
<path fill="none" stroke="midnightblue" d="M694.509,-190.396C684.152,-181.538 670.615,-169.96 659.07,-160.086"/>
<polygon fill="midnightblue" stroke="midnightblue" points="661.333,-157.416 651.459,-153.577 656.783,-162.736 661.333,-157.416"/>
</g>
<!-- Node9 -->
<g id="node9" class="node"><title>Node9</title>
<polygon fill="white" stroke="#bfbfbf" points="702.5,-0.5 702.5,-19.5 825.5,-19.5 825.5,-0.5 702.5,-0.5"/>
<text text-anchor="middle" x="764" y="-7.5" font-family="Helvetica,sans-Serif" font-size="10.00">dynamic&#45;graph/config.hh</text>
</g>
<!-- Node8&#45;&gt;Node9 -->
<g id="edge8" class="edge"><title>Node8&#45;&gt;Node9</title>
<path fill="none" stroke="midnightblue" d="M764,-56.3993C764,-48.4664 764,-38.458 764,-29.8583"/>
<polygon fill="midnightblue" stroke="midnightblue" points="767.5,-29.6577 764,-19.6578 760.5,-29.6578 767.5,-29.6577"/>
</g>
<!-- Node10&#45;&gt;Node4 -->
<g id="edge11" class="edge"><title>Node10&#45;&gt;Node4</title>
<path fill="none" stroke="midnightblue" d="M572.382,-125.35C500.478,-111.399 385.426,-89.0752 330.764,-78.4691"/>
<polygon fill="midnightblue" stroke="midnightblue" points="331.151,-74.9789 320.667,-76.51 329.817,-81.8508 331.151,-74.9789"/>
</g>
<!-- Node10&#45;&gt;Node5 -->
<g id="edge10" class="edge"><title>Node10&#45;&gt;Node5</title>
<path fill="none" stroke="midnightblue" d="M607.009,-123.396C584.675,-112.142 553.633,-96.501 531.874,-85.5375"/>
<polygon fill="midnightblue" stroke="midnightblue" points="533.388,-82.3812 522.883,-81.007 530.239,-88.6325 533.388,-82.3812"/>
</g>
<!-- Node10&#45;&gt;Node7 -->
<g id="edge12" class="edge"><title>Node10&#45;&gt;Node7</title>
<path fill="none" stroke="midnightblue" d="M633.698,-123.396C632.827,-113.963 631.672,-101.448 630.725,-91.1891"/>
<polygon fill="midnightblue" stroke="midnightblue" points="634.207,-90.8305 629.803,-81.1945 627.237,-91.4739 634.207,-90.8305"/>
</g>
<!-- Node10&#45;&gt;Node8 -->
<g id="edge13" class="edge"><title>Node10&#45;&gt;Node8</title>
<path fill="none" stroke="midnightblue" d="M662.991,-123.396C681.755,-113.941 706.665,-101.39 727.053,-91.1168"/>
<polygon fill="midnightblue" stroke="midnightblue" points="728.708,-94.202 736.064,-86.5765 725.558,-87.9507 728.708,-94.202"/>
</g>
<!-- Node11&#45;&gt;Node4 -->
<g id="edge15" class="edge"><title>Node11&#45;&gt;Node4</title>
<path fill="none" stroke="midnightblue" d="M438.28,-270.456C399.384,-266.621 349.074,-254.803 320,-221 288.413,-184.275 292.196,-122.406 296.606,-91.4034"/>
<polygon fill="midnightblue" stroke="midnightblue" points="300.123,-91.578 298.255,-81.1492 293.212,-90.4669 300.123,-91.578"/>
</g>
<!-- Node11&#45;&gt;Node5 -->
<g id="edge17" class="edge"><title>Node11&#45;&gt;Node5</title>
<path fill="none" stroke="midnightblue" d="M491.593,-257.494C489.226,-231.056 485.327,-172.049 492,-123 493.479,-112.127 496.672,-100.29 499.636,-90.8109"/>
<polygon fill="midnightblue" stroke="midnightblue" points="502.968,-91.8806 502.781,-81.2874 496.321,-89.6855 502.968,-91.8806"/>
</g>
<!-- Node11&#45;&gt;Node6 -->
<g id="edge21" class="edge"><title>Node11&#45;&gt;Node6</title>
<path fill="none" stroke="midnightblue" d="M540.034,-257.476C573.442,-247.515 618.48,-234.086 653.943,-223.512"/>
<polygon fill="midnightblue" stroke="midnightblue" points="655.091,-226.822 663.674,-220.611 653.091,-220.114 655.091,-226.822"/>
</g>
<!-- Node11&#45;&gt;Node7 -->
<g id="edge20" class="edge"><title>Node11&#45;&gt;Node7</title>
<path fill="none" stroke="midnightblue" d="M497.356,-257.185C506.38,-229.192 529.221,-166.172 564,-123 575.582,-108.623 592.027,-95.8965 605.478,-86.8153"/>
<polygon fill="midnightblue" stroke="midnightblue" points="607.739,-89.5203 614.215,-81.1354 603.923,-83.6514 607.739,-89.5203"/>
</g>
<!-- Node12 -->
<g id="node12" class="node"><title>Node12</title>
<polygon fill="white" stroke="#bfbfbf" points="842,-62 842,-81 894,-81 894,-62 842,-62"/>
<text text-anchor="middle" x="868" y="-69" font-family="Helvetica,sans-Serif" font-size="10.00">sstream</text>
</g>
<!-- Node11&#45;&gt;Node12 -->
<g id="edge16" class="edge"><title>Node11&#45;&gt;Node12</title>
<path fill="none" stroke="midnightblue" d="M547.607,-267.514C620.811,-261.25 745.868,-247.045 783,-221 828.903,-188.803 853.324,-123.359 862.987,-91.1957"/>
<polygon fill="midnightblue" stroke="midnightblue" points="866.428,-91.8922 865.801,-81.316 859.696,-89.9749 866.428,-91.8922"/>
</g>
<!-- Node13 -->
<g id="node13" class="node"><title>Node13</title>
<polygon fill="white" stroke="#bfbfbf" points="540.5,-196 540.5,-215 591.5,-215 591.5,-196 540.5,-196"/>
<text text-anchor="middle" x="566" y="-203" font-family="Helvetica,sans-Serif" font-size="10.00">typeinfo</text>
</g>
<!-- Node11&#45;&gt;Node13 -->
<g id="edge18" class="edge"><title>Node11&#45;&gt;Node13</title>
<path fill="none" stroke="midnightblue" d="M508.84,-257.396C520.56,-246.96 536.518,-232.751 548.595,-221.998"/>
<polygon fill="midnightblue" stroke="midnightblue" points="551.094,-224.459 556.235,-215.195 546.439,-219.231 551.094,-224.459"/>
</g>
<!-- Node14 -->
<g id="node14" class="node"><title>Node14</title>
<polygon fill="white" stroke="#bfbfbf" points="328.5,-196 328.5,-215 445.5,-215 445.5,-196 328.5,-196"/>
<text text-anchor="middle" x="387" y="-203" font-family="Helvetica,sans-Serif" font-size="10.00">boost/noncopyable.hpp</text>
</g>
<!-- Node11&#45;&gt;Node14 -->
<g id="edge19" class="edge"><title>Node11&#45;&gt;Node14</title>
<path fill="none" stroke="midnightblue" d="M470,-257.396C452.059,-246.395 427.28,-231.2 409.475,-220.282"/>
<polygon fill="midnightblue" stroke="midnightblue" points="411.227,-217.251 400.873,-215.007 407.568,-223.218 411.227,-217.251"/>
</g>
<!-- Node15&#45;&gt;Node1 -->
<g id="edge23" class="edge"><title>Node15&#45;&gt;Node1</title>
<path fill="none" stroke="midnightblue" d="M769.867,-342.578C659.658,-354.486 444.376,-377.099 359.502,-385.63"/>
<polygon fill="midnightblue" stroke="midnightblue" points="358.948,-382.167 349.346,-386.645 359.644,-389.133 358.948,-382.167"/>
</g>
<!-- Node16 -->
<g id="node16" class="node"><title>Node16</title>
<g id="a_node16"><a xlink:href="a00085.html" target="_top" xlink:title="dynamic&#45;graph/signal\l&#45;caster.h">
<polygon fill="white" stroke="black" points="889.5,-257.5 889.5,-287.5 998.5,-287.5 998.5,-257.5 889.5,-257.5"/>
<text text-anchor="start" x="897.5" y="-275.5" font-family="Helvetica,sans-Serif" font-size="10.00">dynamic&#45;graph/signal</text>
<text text-anchor="middle" x="944" y="-264.5" font-family="Helvetica,sans-Serif" font-size="10.00">&#45;caster.h</text>
</a>
</g>
</g>
<!-- Node15&#45;&gt;Node16 -->
<g id="edge24" class="edge"><title>Node15&#45;&gt;Node16</title>
<path fill="none" stroke="midnightblue" d="M852.33,-324.475C867.296,-316.153 890.577,-303.207 909.931,-292.445"/>
<polygon fill="midnightblue" stroke="midnightblue" points="911.744,-295.442 918.782,-287.523 908.342,-289.324 911.744,-295.442"/>
</g>
<!-- Node25 -->
<g id="node25" class="node"><title>Node25</title>
<g id="a_node25"><a xlink:href="a00065.html" target="_top" xlink:title="dynamic&#45;graph/debug.h">
<polygon fill="white" stroke="black" points="872,-129 872,-148 990,-148 990,-129 872,-129"/>
<text text-anchor="middle" x="931" y="-136" font-family="Helvetica,sans-Serif" font-size="10.00">dynamic&#45;graph/debug.h</text>
</a>
</g>
</g>
<!-- Node15&#45;&gt;Node25 -->
<g id="edge37" class="edge"><title>Node15&#45;&gt;Node25</title>
<path fill="none" stroke="midnightblue" d="M904.246,-329.828C1106.17,-319.623 1696.75,-284.544 1753,-221 1762.13,-210.683 1762.44,-200.037 1753,-190 1727.36,-162.74 1193.8,-146.29 1000.31,-141.202"/>
<polygon fill="midnightblue" stroke="midnightblue" points="1000.34,-137.702 990.252,-140.94 1000.16,-144.7 1000.34,-137.702"/>
</g>
<!-- Node16&#45;&gt;Node5 -->
<g id="edge27" class="edge"><title>Node16&#45;&gt;Node5</title>
<path fill="none" stroke="midnightblue" d="M889.428,-271.366C826.421,-269.24 721.062,-259.518 640,-221 629.832,-216.169 571.536,-162.363 564,-154 545.536,-133.508 527.658,-107.072 516.745,-89.9557"/>
<polygon fill="midnightblue" stroke="midnightblue" points="519.451,-87.6827 511.173,-81.07 513.521,-91.4016 519.451,-87.6827"/>
</g>
<!-- Node16&#45;&gt;Node6 -->
<g id="edge36" class="edge"><title>Node16&#45;&gt;Node6</title>
<path fill="none" stroke="midnightblue" d="M893.729,-257.476C857.87,-247.472 809.474,-233.971 771.497,-223.377"/>
<polygon fill="midnightblue" stroke="midnightblue" points="772.155,-219.927 761.582,-220.611 770.274,-226.669 772.155,-219.927"/>
</g>
<!-- Node16&#45;&gt;Node8 -->
<g id="edge35" class="edge"><title>Node16&#45;&gt;Node8</title>
<path fill="none" stroke="midnightblue" d="M913.336,-257.403C896.322,-248.576 875.528,-236.03 860,-221 821.186,-183.431 790.376,-127.352 774.903,-95.956"/>
<polygon fill="midnightblue" stroke="midnightblue" points="777.927,-94.1688 770.428,-86.6846 771.623,-97.2119 777.927,-94.1688"/>
</g>
<!-- Node16&#45;&gt;Node13 -->
<g id="edge26" class="edge"><title>Node16&#45;&gt;Node13</title>
<path fill="none" stroke="midnightblue" d="M889.485,-266.733C822.122,-260.073 704.353,-245.908 606,-221 603.017,-220.245 599.946,-219.351 596.894,-218.384"/>
<polygon fill="midnightblue" stroke="midnightblue" points="597.938,-215.043 587.344,-215.127 595.678,-221.668 597.938,-215.043"/>
</g>
<!-- Node17 -->
<g id="node17" class="node"><title>Node17</title>
<polygon fill="white" stroke="#bfbfbf" points="868.5,-196 868.5,-215 903.5,-215 903.5,-196 868.5,-196"/>
<text text-anchor="middle" x="886" y="-203" font-family="Helvetica,sans-Serif" font-size="10.00">map</text>
</g>
<!-- Node16&#45;&gt;Node17 -->
<g id="edge25" class="edge"><title>Node16&#45;&gt;Node17</title>
<path fill="none" stroke="midnightblue" d="M931.415,-257.396C922.371,-247.261 910.152,-233.567 900.667,-222.937"/>
<polygon fill="midnightblue" stroke="midnightblue" points="903.028,-220.326 893.758,-215.195 897.805,-224.986 903.028,-220.326"/>
</g>
<!-- Node18 -->
<g id="node18" class="node"><title>Node18</title>
<polygon fill="white" stroke="#bfbfbf" points="922,-196 922,-215 966,-215 966,-196 922,-196"/>
<text text-anchor="middle" x="944" y="-203" font-family="Helvetica,sans-Serif" font-size="10.00">vector</text>
</g>
<!-- Node16&#45;&gt;Node18 -->
<g id="edge28" class="edge"><title>Node16&#45;&gt;Node18</title>
<path fill="none" stroke="midnightblue" d="M944,-257.396C944,-248.064 944,-235.714 944,-225.517"/>
<polygon fill="midnightblue" stroke="midnightblue" points="947.5,-225.195 944,-215.195 940.5,-225.195 947.5,-225.195"/>
</g>
<!-- Node19 -->
<g id="node19" class="node"><title>Node19</title>
<polygon fill="white" stroke="#bfbfbf" points="984,-196 984,-215 1062,-215 1062,-196 984,-196"/>
<text text-anchor="middle" x="1023" y="-203" font-family="Helvetica,sans-Serif" font-size="10.00">boost/any.hpp</text>
</g>
<!-- Node16&#45;&gt;Node19 -->
<g id="edge29" class="edge"><title>Node16&#45;&gt;Node19</title>
<path fill="none" stroke="midnightblue" d="M961.142,-257.396C973.947,-246.86 991.428,-232.477 1004.54,-221.689"/>
<polygon fill="midnightblue" stroke="midnightblue" points="1006.93,-224.251 1012.43,-215.195 1002.49,-218.845 1006.93,-224.251"/>
</g>
<!-- Node20 -->
<g id="node20" class="node"><title>Node20</title>
<polygon fill="white" stroke="#bfbfbf" points="1080,-196 1080,-215 1170,-215 1170,-196 1080,-196"/>
<text text-anchor="middle" x="1125" y="-203" font-family="Helvetica,sans-Serif" font-size="10.00">boost/format.hpp</text>
</g>
<!-- Node16&#45;&gt;Node20 -->
<g id="edge30" class="edge"><title>Node16&#45;&gt;Node20</title>
<path fill="none" stroke="midnightblue" d="M983.274,-257.396C1015.59,-245.789 1060.91,-229.515 1091.53,-218.519"/>
<polygon fill="midnightblue" stroke="midnightblue" points="1093.08,-221.681 1101.31,-215.007 1090.72,-215.093 1093.08,-221.681"/>
</g>
<!-- Node21 -->
<g id="node21" class="node"><title>Node21</title>
<polygon fill="white" stroke="#bfbfbf" points="1188,-196 1188,-215 1328,-215 1328,-196 1188,-196"/>
<text text-anchor="middle" x="1258" y="-203" font-family="Helvetica,sans-Serif" font-size="10.00">boost/function/function1.hpp</text>
</g>
<!-- Node16&#45;&gt;Node21 -->
<g id="edge31" class="edge"><title>Node16&#45;&gt;Node21</title>
<path fill="none" stroke="midnightblue" d="M998.695,-260.178C1057.37,-248.031 1149.82,-228.894 1207.02,-217.053"/>
<polygon fill="midnightblue" stroke="midnightblue" points="1207.85,-220.456 1216.93,-215.002 1206.43,-213.602 1207.85,-220.456"/>
</g>
<!-- Node22 -->
<g id="node22" class="node"><title>Node22</title>
<polygon fill="white" stroke="#bfbfbf" points="1346,-196 1346,-215 1486,-215 1486,-196 1346,-196"/>
<text text-anchor="middle" x="1416" y="-203" font-family="Helvetica,sans-Serif" font-size="10.00">boost/function/function2.hpp</text>
</g>
<!-- Node16&#45;&gt;Node22 -->
<g id="edge32" class="edge"><title>Node16&#45;&gt;Node22</title>
<path fill="none" stroke="midnightblue" d="M998.808,-265.399C1074.88,-256.717 1216.69,-239.756 1337,-221 1345.03,-219.748 1353.5,-218.314 1361.8,-216.846"/>
<polygon fill="midnightblue" stroke="midnightblue" points="1362.56,-220.265 1371.78,-215.049 1361.32,-213.376 1362.56,-220.265"/>
</g>
<!-- Node23 -->
<g id="node23" class="node"><title>Node23</title>
<polygon fill="white" stroke="#bfbfbf" points="1504,-196 1504,-215 1618,-215 1618,-196 1504,-196"/>
<text text-anchor="middle" x="1561" y="-203" font-family="Helvetica,sans-Serif" font-size="10.00">boost/lexical_cast.hpp</text>
</g>
<!-- Node16&#45;&gt;Node23 -->
<g id="edge33" class="edge"><title>Node16&#45;&gt;Node23</title>
<path fill="none" stroke="midnightblue" d="M998.63,-268.759C1097.92,-263.275 1314.4,-249.002 1495,-221 1501.78,-219.949 1508.9,-218.622 1515.86,-217.2"/>
<polygon fill="midnightblue" stroke="midnightblue" points="1516.82,-220.574 1525.87,-215.07 1515.36,-213.727 1516.82,-220.574"/>
</g>
<!-- Node24 -->
<g id="node24" class="node"><title>Node24</title>
<polygon fill="white" stroke="#bfbfbf" points="1636.5,-196 1636.5,-215 1743.5,-215 1743.5,-196 1636.5,-196"/>
<text text-anchor="middle" x="1690" y="-203" font-family="Helvetica,sans-Serif" font-size="10.00">boost/tuple/tuple.hpp</text>
</g>
<!-- Node16&#45;&gt;Node24 -->
<g id="edge34" class="edge"><title>Node16&#45;&gt;Node24</title>
<path fill="none" stroke="midnightblue" d="M998.764,-270.28C1115.08,-267.069 1395.1,-256.05 1627,-221 1633.48,-220.02 1640.28,-218.733 1646.93,-217.329"/>
<polygon fill="midnightblue" stroke="midnightblue" points="1648.16,-220.641 1657.16,-215.055 1646.64,-213.808 1648.16,-220.641"/>
</g>
<!-- Node25&#45;&gt;Node5 -->
<g id="edge40" class="edge"><title>Node25&#45;&gt;Node5</title>
<path fill="none" stroke="midnightblue" d="M871.883,-131.36C799.083,-123.342 671.825,-107.833 564,-87 557.153,-85.6771 549.905,-84.0498 542.938,-82.369"/>
<polygon fill="midnightblue" stroke="midnightblue" points="543.56,-78.9172 533.011,-79.8975 541.869,-85.7099 543.56,-78.9172"/>
</g>
<!-- Node25&#45;&gt;Node7 -->
<g id="edge43" class="edge"><title>Node25&#45;&gt;Node7</title>
<path fill="none" stroke="midnightblue" d="M890.899,-128.989C843.932,-119.004 763.793,-101.917 695,-87 689.344,-85.7737 683.418,-84.4816 677.535,-83.1946"/>
<polygon fill="midnightblue" stroke="midnightblue" points="678.248,-79.7679 667.731,-81.046 676.749,-86.6056 678.248,-79.7679"/>
</g>
<!-- Node25&#45;&gt;Node8 -->
<g id="edge44" class="edge"><title>Node25&#45;&gt;Node8</title>
<path fill="none" stroke="midnightblue" d="M908.824,-128.869C883.656,-119.073 841.924,-102.83 809.706,-90.2897"/>
<polygon fill="midnightblue" stroke="midnightblue" points="810.63,-86.8936 800.041,-86.5281 808.091,-93.4169 810.63,-86.8936"/>
</g>
<!-- Node25&#45;&gt;Node12 -->
<g id="edge42" class="edge"><title>Node25&#45;&gt;Node12</title>
<path fill="none" stroke="midnightblue" d="M922.504,-128.734C912.491,-118.403 895.659,-101.037 883.344,-88.3315"/>
<polygon fill="midnightblue" stroke="midnightblue" points="885.835,-85.8721 876.362,-81.1273 880.808,-90.7439 885.835,-85.8721"/>
</g>
<!-- Node26 -->
<g id="node26" class="node"><title>Node26</title>
<polygon fill="white" stroke="#bfbfbf" points="912.5,-62 912.5,-81 955.5,-81 955.5,-62 912.5,-62"/>
<text text-anchor="middle" x="934" y="-69" font-family="Helvetica,sans-Serif" font-size="10.00">cstdio</text>
</g>
<!-- Node25&#45;&gt;Node26 -->
<g id="edge38" class="edge"><title>Node25&#45;&gt;Node26</title>
<path fill="none" stroke="midnightblue" d="M931.405,-128.734C931.845,-119.183 932.564,-103.618 933.133,-91.2829"/>
<polygon fill="midnightblue" stroke="midnightblue" points="936.637,-91.2781 933.602,-81.1273 929.644,-90.9553 936.637,-91.2781"/>
</g>
<!-- Node27 -->
<g id="node27" class="node"><title>Node27</title>
<polygon fill="white" stroke="#bfbfbf" points="973.5,-62 973.5,-81 1022.5,-81 1022.5,-62 973.5,-62"/>
<text text-anchor="middle" x="998" y="-69" font-family="Helvetica,sans-Serif" font-size="10.00">cstdarg</text>
</g>
<!-- Node25&#45;&gt;Node27 -->
<g id="edge39" class="edge"><title>Node25&#45;&gt;Node27</title>
<path fill="none" stroke="midnightblue" d="M940.036,-128.734C950.685,-118.403 968.585,-101.037 981.681,-88.3315"/>
<polygon fill="midnightblue" stroke="midnightblue" points="984.367,-90.6026 989.107,-81.1273 979.493,-85.5784 984.367,-90.6026"/>
</g>
<!-- Node28 -->
<g id="node28" class="node"><title>Node28</title>
<polygon fill="white" stroke="#bfbfbf" points="1041,-62 1041,-81 1091,-81 1091,-62 1041,-62"/>
<text text-anchor="middle" x="1066" y="-69" font-family="Helvetica,sans-Serif" font-size="10.00">fstream</text>
</g>
<!-- Node25&#45;&gt;Node28 -->
<g id="edge41" class="edge"><title>Node25&#45;&gt;Node28</title>
<path fill="none" stroke="midnightblue" d="M948.927,-128.869C971.923,-117.796 1012.03,-98.4862 1038.8,-85.5978"/>
<polygon fill="midnightblue" stroke="midnightblue" points="1040.51,-88.6589 1048,-81.1672 1037.47,-82.3519 1040.51,-88.6589"/>
</g>
</g>
</svg>
