<?xml version="1.0" encoding="UTF-8" standalone="no"?>
<!DOCTYPE svg PUBLIC "-//W3C//DTD SVG 1.1//EN"
 "http://www.w3.org/Graphics/SVG/1.1/DTD/svg11.dtd">
<!-- Generated by graphviz version 2.38.0 (20140413.2041)
 -->
<!-- Title: signal&#45;array.h Pages: 1 -->
<svg width="704pt" height="352pt"
 viewBox="0.00 0.00 704.00 352.00" xmlns="http://www.w3.org/2000/svg" xmlns:xlink="http://www.w3.org/1999/xlink">
<g id="graph0" class="graph" transform="scale(1 1) rotate(0) translate(4 348)">
<title>signal&#45;array.h</title>
<polygon fill="white" stroke="none" points="-4,4 -4,-348 700,-348 700,4 -4,4"/>
<!-- Node1 -->
<g id="node1" class="node"><title>Node1</title>
<polygon fill="#bfbfbf" stroke="black" points="547.5,-324.5 547.5,-343.5 622.5,-343.5 622.5,-324.5 547.5,-324.5"/>
<text text-anchor="middle" x="585" y="-331.5" font-family="Helvetica,sans-Serif" font-size="10.00">signal&#45;array.h</text>
</g>
<!-- Node2 -->
<g id="node2" class="node"><title>Node2</title>
<g id="a_node2"><a xlink:href="a00083.html" target="_top" xlink:title="dynamic&#45;graph/signal\l&#45;base.h">
<polygon fill="white" stroke="black" points="243.5,-257.5 243.5,-287.5 352.5,-287.5 352.5,-257.5 243.5,-257.5"/>
<text text-anchor="start" x="251.5" y="-275.5" font-family="Helvetica,sans-Serif" font-size="10.00">dynamic&#45;graph/signal</text>
<text text-anchor="middle" x="298" y="-264.5" font-family="Helvetica,sans-Serif" font-size="10.00">&#45;base.h</text>
</a>
</g>
</g>
<!-- Node1&#45;&gt;Node2 -->
<g id="edge1" class="edge"><title>Node1&#45;&gt;Node2</title>
<path fill="none" stroke="midnightblue" d="M547.48,-325.221C500.609,-315.504 419.655,-298.721 362.703,-286.914"/>
<polygon fill="midnightblue" stroke="midnightblue" points="363.219,-283.447 352.716,-284.844 361.797,-290.301 363.219,-283.447"/>
</g>
<!-- Node10 -->
<g id="node10" class="node"><title>Node10</title>
<g id="a_node10"><a xlink:href="a00067.html" target="_top" xlink:title="dynamic&#45;graph/dynamic\l&#45;graph&#45;api.h">
<polygon fill="white" stroke="black" points="263,-56.5 263,-86.5 383,-86.5 383,-56.5 263,-56.5"/>
<text text-anchor="start" x="271" y="-74.5" font-family="Helvetica,sans-Serif" font-size="10.00">dynamic&#45;graph/dynamic</text>
<text text-anchor="middle" x="323" y="-63.5" font-family="Helvetica,sans-Serif" font-size="10.00">&#45;graph&#45;api.h</text>
</a>
</g>
</g>
<!-- Node1&#45;&gt;Node10 -->
<g id="edge17" class="edge"><title>Node1&#45;&gt;Node10</title>
<path fill="none" stroke="midnightblue" d="M582.551,-324.347C572.798,-291.627 533.394,-174.695 455,-123 433.671,-108.935 407.855,-97.9574 384.731,-89.882"/>
<polygon fill="midnightblue" stroke="midnightblue" points="385.601,-86.4815 375.006,-86.5983 383.361,-93.1136 385.601,-86.4815"/>
</g>
<!-- Node13 -->
<g id="node13" class="node"><title>Node13</title>
<polygon fill="white" stroke="#bfbfbf" points="588,-263 588,-282 632,-282 632,-263 588,-263"/>
<text text-anchor="middle" x="610" y="-270" font-family="Helvetica,sans-Serif" font-size="10.00">vector</text>
</g>
<!-- Node1&#45;&gt;Node13 -->
<g id="edge18" class="edge"><title>Node1&#45;&gt;Node13</title>
<path fill="none" stroke="midnightblue" d="M588.582,-324.475C592.183,-315.904 597.846,-302.427 602.444,-291.483"/>
<polygon fill="midnightblue" stroke="midnightblue" points="605.778,-292.584 606.425,-282.009 599.324,-289.873 605.778,-292.584"/>
</g>
<!-- Node14 -->
<g id="node14" class="node"><title>Node14</title>
<polygon fill="white" stroke="#bfbfbf" points="650,-263 650,-282 696,-282 696,-263 650,-263"/>
<text text-anchor="middle" x="673" y="-270" font-family="Helvetica,sans-Serif" font-size="10.00">stdio.h</text>
</g>
<!-- Node1&#45;&gt;Node14 -->
<g id="edge19" class="edge"><title>Node1&#45;&gt;Node14</title>
<path fill="none" stroke="midnightblue" d="M597.608,-324.475C611.723,-314.931 634.831,-299.307 651.749,-287.868"/>
<polygon fill="midnightblue" stroke="midnightblue" points="654.091,-290.51 660.415,-282.009 650.171,-284.711 654.091,-290.51"/>
</g>
<!-- Node3 -->
<g id="node3" class="node"><title>Node3</title>
<polygon fill="white" stroke="#bfbfbf" points="203.5,-62 203.5,-81 244.5,-81 244.5,-62 203.5,-62"/>
<text text-anchor="middle" x="224" y="-69" font-family="Helvetica,sans-Serif" font-size="10.00">string</text>
</g>
<!-- Node2&#45;&gt;Node3 -->
<g id="edge2" class="edge"><title>Node2&#45;&gt;Node3</title>
<path fill="none" stroke="midnightblue" d="M352.552,-269.226C425.063,-264.003 539.901,-246.781 502,-190 435.739,-90.7323 362.883,-135.877 254,-87 252.842,-86.4803 251.663,-85.9432 250.473,-85.3955"/>
<polygon fill="midnightblue" stroke="midnightblue" points="251.909,-82.2029 241.372,-81.1019 248.923,-88.5339 251.909,-82.2029"/>
</g>
<!-- Node4 -->
<g id="node4" class="node"><title>Node4</title>
<polygon fill="white" stroke="#bfbfbf" points="237,-196 237,-215 289,-215 289,-196 237,-196"/>
<text text-anchor="middle" x="263" y="-203" font-family="Helvetica,sans-Serif" font-size="10.00">sstream</text>
</g>
<!-- Node2&#45;&gt;Node4 -->
<g id="edge3" class="edge"><title>Node2&#45;&gt;Node4</title>
<path fill="none" stroke="midnightblue" d="M290.406,-257.396C285.164,-247.662 278.156,-234.646 272.538,-224.214"/>
<polygon fill="midnightblue" stroke="midnightblue" points="275.504,-222.34 267.682,-215.195 269.341,-225.659 275.504,-222.34"/>
</g>
<!-- Node5 -->
<g id="node5" class="node"><title>Node5</title>
<polygon fill="white" stroke="#bfbfbf" points="0,-62 0,-81 54,-81 54,-62 0,-62"/>
<text text-anchor="middle" x="27" y="-69" font-family="Helvetica,sans-Serif" font-size="10.00">iostream</text>
</g>
<!-- Node2&#45;&gt;Node5 -->
<g id="edge4" class="edge"><title>Node2&#45;&gt;Node5</title>
<path fill="none" stroke="midnightblue" d="M243.445,-265.922C183.917,-258.751 93.7685,-244.359 69,-221 32.3705,-186.456 26.8861,-122.607 26.5597,-91.091"/>
<polygon fill="midnightblue" stroke="midnightblue" points="30.0597,-91.0795 26.6246,-81.057 23.0598,-91.0341 30.0597,-91.0795"/>
</g>
<!-- Node6 -->
<g id="node6" class="node"><title>Node6</title>
<polygon fill="white" stroke="#bfbfbf" points="307.5,-196 307.5,-215 358.5,-215 358.5,-196 307.5,-196"/>
<text text-anchor="middle" x="333" y="-203" font-family="Helvetica,sans-Serif" font-size="10.00">typeinfo</text>
</g>
<!-- Node2&#45;&gt;Node6 -->
<g id="edge5" class="edge"><title>Node2&#45;&gt;Node6</title>
<path fill="none" stroke="midnightblue" d="M305.594,-257.396C310.836,-247.662 317.844,-234.646 323.462,-224.214"/>
<polygon fill="midnightblue" stroke="midnightblue" points="326.659,-225.659 328.318,-215.195 320.496,-222.34 326.659,-225.659"/>
</g>
<!-- Node7 -->
<g id="node7" class="node"><title>Node7</title>
<polygon fill="white" stroke="#bfbfbf" points="376.5,-196 376.5,-215 493.5,-215 493.5,-196 376.5,-196"/>
<text text-anchor="middle" x="435" y="-203" font-family="Helvetica,sans-Serif" font-size="10.00">boost/noncopyable.hpp</text>
</g>
<!-- Node2&#45;&gt;Node7 -->
<g id="edge6" class="edge"><title>Node2&#45;&gt;Node7</title>
<path fill="none" stroke="midnightblue" d="M327.727,-257.396C351.552,-246.092 384.709,-230.361 407.831,-219.39"/>
<polygon fill="midnightblue" stroke="midnightblue" points="409.535,-222.456 417.07,-215.007 406.535,-216.131 409.535,-222.456"/>
</g>
<!-- Node8 -->
<g id="node8" class="node"><title>Node8</title>
<g id="a_node8"><a xlink:href="a00076.html" target="_top" xlink:title="dynamic&#45;graph/fwd.hh">
<polygon fill="white" stroke="black" points="72.5,-62 72.5,-81 185.5,-81 185.5,-62 72.5,-62"/>
<text text-anchor="middle" x="129" y="-69" font-family="Helvetica,sans-Serif" font-size="10.00">dynamic&#45;graph/fwd.hh</text>
</a>
</g>
</g>
<!-- Node2&#45;&gt;Node8 -->
<g id="edge7" class="edge"><title>Node2&#45;&gt;Node8</title>
<path fill="none" stroke="midnightblue" d="M243.253,-266.224C186.543,-259.493 103.515,-245.657 84,-221 52.3337,-180.991 92.1584,-118.895 115.021,-89.2963"/>
<polygon fill="midnightblue" stroke="midnightblue" points="117.969,-91.2128 121.473,-81.2142 112.499,-86.8453 117.969,-91.2128"/>
</g>
<!-- Node9 -->
<g id="node9" class="node"><title>Node9</title>
<g id="a_node9"><a xlink:href="a00073.html" target="_top" xlink:title="dynamic&#45;graph/exception\l&#45;signal.h">
<polygon fill="white" stroke="black" points="93.5,-190.5 93.5,-220.5 218.5,-220.5 218.5,-190.5 93.5,-190.5"/>
<text text-anchor="start" x="101.5" y="-208.5" font-family="Helvetica,sans-Serif" font-size="10.00">dynamic&#45;graph/exception</text>
<text text-anchor="middle" x="156" y="-197.5" font-family="Helvetica,sans-Serif" font-size="10.00">&#45;signal.h</text>
</a>
</g>
</g>
<!-- Node2&#45;&gt;Node9 -->
<g id="edge8" class="edge"><title>Node2&#45;&gt;Node9</title>
<path fill="none" stroke="midnightblue" d="M267.188,-257.396C246.347,-247.856 218.618,-235.163 196.065,-224.84"/>
<polygon fill="midnightblue" stroke="midnightblue" points="197.301,-221.556 186.752,-220.577 194.388,-227.921 197.301,-221.556"/>
</g>
<!-- Node9&#45;&gt;Node8 -->
<g id="edge9" class="edge"><title>Node9&#45;&gt;Node8</title>
<path fill="none" stroke="midnightblue" d="M153.111,-190.374C148.206,-166.397 138.255,-117.748 132.796,-91.0561"/>
<polygon fill="midnightblue" stroke="midnightblue" points="136.192,-90.193 130.759,-81.0973 129.334,-91.5958 136.192,-90.193"/>
</g>
<!-- Node9&#45;&gt;Node10 -->
<g id="edge10" class="edge"><title>Node9&#45;&gt;Node10</title>
<path fill="none" stroke="midnightblue" d="M218.843,-192.695C243.946,-185.235 271.468,-173.218 291,-154 306.687,-138.565 314.865,-114.523 319.011,-96.5449"/>
<polygon fill="midnightblue" stroke="midnightblue" points="322.486,-97.0169 321.057,-86.519 315.628,-95.6171 322.486,-97.0169"/>
</g>
<!-- Node12 -->
<g id="node12" class="node"><title>Node12</title>
<g id="a_node12"><a xlink:href="a00071.html" target="_top" xlink:title="dynamic&#45;graph/exception\l&#45;abstract.h">
<polygon fill="white" stroke="black" points="157.5,-123.5 157.5,-153.5 282.5,-153.5 282.5,-123.5 157.5,-123.5"/>
<text text-anchor="start" x="165.5" y="-141.5" font-family="Helvetica,sans-Serif" font-size="10.00">dynamic&#45;graph/exception</text>
<text text-anchor="middle" x="220" y="-130.5" font-family="Helvetica,sans-Serif" font-size="10.00">&#45;abstract.h</text>
</a>
</g>
</g>
<!-- Node9&#45;&gt;Node12 -->
<g id="edge12" class="edge"><title>Node9&#45;&gt;Node12</title>
<path fill="none" stroke="midnightblue" d="M169.887,-190.396C178.358,-181.793 189.353,-170.626 198.885,-160.945"/>
<polygon fill="midnightblue" stroke="midnightblue" points="201.618,-163.158 206.14,-153.577 196.63,-158.247 201.618,-163.158"/>
</g>
<!-- Node11 -->
<g id="node11" class="node"><title>Node11</title>
<polygon fill="white" stroke="#bfbfbf" points="261.5,-0.5 261.5,-19.5 384.5,-19.5 384.5,-0.5 261.5,-0.5"/>
<text text-anchor="middle" x="323" y="-7.5" font-family="Helvetica,sans-Serif" font-size="10.00">dynamic&#45;graph/config.hh</text>
</g>
<!-- Node10&#45;&gt;Node11 -->
<g id="edge11" class="edge"><title>Node10&#45;&gt;Node11</title>
<path fill="none" stroke="midnightblue" d="M323,-56.3993C323,-48.4664 323,-38.458 323,-29.8583"/>
<polygon fill="midnightblue" stroke="midnightblue" points="326.5,-29.6577 323,-19.6578 319.5,-29.6578 326.5,-29.6577"/>
</g>
<!-- Node12&#45;&gt;Node3 -->
<g id="edge14" class="edge"><title>Node12&#45;&gt;Node3</title>
<path fill="none" stroke="midnightblue" d="M220.868,-123.396C221.448,-113.963 222.219,-101.448 222.85,-91.1891"/>
<polygon fill="midnightblue" stroke="midnightblue" points="226.344,-91.3907 223.465,-81.1945 219.357,-90.9606 226.344,-91.3907"/>
</g>
<!-- Node12&#45;&gt;Node5 -->
<g id="edge13" class="edge"><title>Node12&#45;&gt;Node5</title>
<path fill="none" stroke="midnightblue" d="M173.333,-123.451C141.948,-113.768 99.7529,-100.293 63,-87 61.0991,-86.3125 59.1494,-85.587 57.1884,-84.8418"/>
<polygon fill="midnightblue" stroke="midnightblue" points="58.0506,-81.4209 47.4628,-81.0373 55.5005,-87.9399 58.0506,-81.4209"/>
</g>
<!-- Node12&#45;&gt;Node8 -->
<g id="edge15" class="edge"><title>Node12&#45;&gt;Node8</title>
<path fill="none" stroke="midnightblue" d="M200.254,-123.396C185.135,-112.597 164.359,-97.7564 149.142,-86.8872"/>
<polygon fill="midnightblue" stroke="midnightblue" points="151.082,-83.9714 140.91,-81.007 147.013,-89.6675 151.082,-83.9714"/>
</g>
<!-- Node12&#45;&gt;Node10 -->
<g id="edge16" class="edge"><title>Node12&#45;&gt;Node10</title>
<path fill="none" stroke="midnightblue" d="M242.349,-123.396C256.927,-114.197 276.15,-102.066 292.172,-91.9546"/>
<polygon fill="midnightblue" stroke="midnightblue" points="294.105,-94.8733 300.694,-86.5765 290.369,-88.9535 294.105,-94.8733"/>
</g>
</g>
</svg>
