<?xml version="1.0" encoding="UTF-8" standalone="no"?>
<!DOCTYPE svg PUBLIC "-//W3C//DTD SVG 1.1//EN"
 "http://www.w3.org/Graphics/SVG/1.1/DTD/svg11.dtd">
<!-- Generated by graphviz version 2.38.0 (20140413.2041)
 -->
<!-- Title: command&#45;setter.t.cpp Pages: 1 -->
<svg width="361pt" height="151pt"
 viewBox="0.00 0.00 360.50 151.00" xmlns="http://www.w3.org/2000/svg" xmlns:xlink="http://www.w3.org/1999/xlink">
<g id="graph0" class="graph" transform="scale(1 1) rotate(0) translate(4 147)">
<title>command&#45;setter.t.cpp</title>
<polygon fill="white" stroke="none" points="-4,4 -4,-147 356.5,-147 356.5,4 -4,4"/>
<!-- Node1 -->
<g id="node1" class="node"><title>Node1</title>
<polygon fill="#bfbfbf" stroke="black" points="74,-123.5 74,-142.5 186,-142.5 186,-123.5 74,-123.5"/>
<text text-anchor="middle" x="130" y="-130.5" font-family="Helvetica,sans-Serif" font-size="10.00">command&#45;setter.t.cpp</text>
</g>
<!-- Node2 -->
<g id="node2" class="node"><title>Node2</title>
<polygon fill="white" stroke="#bfbfbf" points="0,-62 0,-81 52,-81 52,-62 0,-62"/>
<text text-anchor="middle" x="26" y="-69" font-family="Helvetica,sans-Serif" font-size="10.00">sstream</text>
</g>
<!-- Node1&#45;&gt;Node2 -->
<g id="edge1" class="edge"><title>Node1&#45;&gt;Node2</title>
<path fill="none" stroke="midnightblue" d="M115.099,-123.475C98.0319,-113.711 69.8386,-97.5807 49.7379,-86.0808"/>
<polygon fill="midnightblue" stroke="midnightblue" points="51.291,-82.9371 40.873,-81.0091 47.8148,-89.013 51.291,-82.9371"/>
</g>
<!-- Node3 -->
<g id="node3" class="node"><title>Node3</title>
<polygon fill="white" stroke="#bfbfbf" points="70,-62 70,-81 190,-81 190,-62 70,-62"/>
<text text-anchor="middle" x="130" y="-69" font-family="Helvetica,sans-Serif" font-size="10.00">boost/assign/list_of.hpp</text>
</g>
<!-- Node1&#45;&gt;Node3 -->
<g id="edge2" class="edge"><title>Node1&#45;&gt;Node3</title>
<path fill="none" stroke="midnightblue" d="M130,-123.475C130,-115.08 130,-101.981 130,-91.1631"/>
<polygon fill="midnightblue" stroke="midnightblue" points="133.5,-91.0091 130,-81.0091 126.5,-91.0091 133.5,-91.0091"/>
</g>
<!-- Node4 -->
<g id="node4" class="node"><title>Node4</title>
<g id="a_node4"><a xlink:href="a00077.html" target="_top" xlink:title="dynamic&#45;graph/linear\l&#45;algebra.h">
<polygon fill="white" stroke="black" points="208.5,-56.5 208.5,-86.5 315.5,-86.5 315.5,-56.5 208.5,-56.5"/>
<text text-anchor="start" x="216.5" y="-74.5" font-family="Helvetica,sans-Serif" font-size="10.00">dynamic&#45;graph/linear</text>
<text text-anchor="middle" x="262" y="-63.5" font-family="Helvetica,sans-Serif" font-size="10.00">&#45;algebra.h</text>
</a>
</g>
</g>
<!-- Node1&#45;&gt;Node4 -->
<g id="edge3" class="edge"><title>Node1&#45;&gt;Node4</title>
<path fill="none" stroke="midnightblue" d="M148.912,-123.475C167.792,-114.965 197.399,-101.619 221.584,-90.718"/>
<polygon fill="midnightblue" stroke="midnightblue" points="223.212,-93.8232 230.89,-86.523 220.335,-87.4416 223.212,-93.8232"/>
</g>
<!-- Node5 -->
<g id="node5" class="node"><title>Node5</title>
<polygon fill="white" stroke="#bfbfbf" points="182.5,-0.5 182.5,-19.5 247.5,-19.5 247.5,-0.5 182.5,-0.5"/>
<text text-anchor="middle" x="215" y="-7.5" font-family="Helvetica,sans-Serif" font-size="10.00">Eigen/Core</text>
</g>
<!-- Node4&#45;&gt;Node5 -->
<g id="edge4" class="edge"><title>Node4&#45;&gt;Node5</title>
<path fill="none" stroke="midnightblue" d="M250.862,-56.3993C244.032,-47.7533 235.255,-36.642 228.094,-27.576"/>
<polygon fill="midnightblue" stroke="midnightblue" points="230.784,-25.3354 221.839,-19.6578 225.291,-29.6745 230.784,-25.3354"/>
</g>
<!-- Node6 -->
<g id="node6" class="node"><title>Node6</title>
<polygon fill="white" stroke="#bfbfbf" points="265.5,-0.5 265.5,-19.5 352.5,-19.5 352.5,-0.5 265.5,-0.5"/>
<text text-anchor="middle" x="309" y="-7.5" font-family="Helvetica,sans-Serif" font-size="10.00">Eigen/Geometry</text>
</g>
<!-- Node4&#45;&gt;Node6 -->
<g id="edge5" class="edge"><title>Node4&#45;&gt;Node6</title>
<path fill="none" stroke="midnightblue" d="M273.138,-56.3993C279.968,-47.7533 288.745,-36.642 295.906,-27.576"/>
<polygon fill="midnightblue" stroke="midnightblue" points="298.709,-29.6745 302.161,-19.6578 293.216,-25.3354 298.709,-29.6745"/>
</g>
</g>
</svg>
