<?xml version="1.0" encoding="UTF-8" standalone="no"?>
<!DOCTYPE svg PUBLIC "-//W3C//DTD SVG 1.1//EN"
 "http://www.w3.org/Graphics/SVG/1.1/DTD/svg11.dtd">
<!-- Generated by graphviz version 2.38.0 (20140413.2041)
 -->
<!-- Title: command&#45;setter.h Pages: 1 -->
<svg width="640pt" height="274pt"
 viewBox="0.00 0.00 639.50 274.00" xmlns="http://www.w3.org/2000/svg" xmlns:xlink="http://www.w3.org/1999/xlink">
<g id="graph0" class="graph" transform="scale(1 1) rotate(0) translate(4 270)">
<title>command&#45;setter.h</title>
<polygon fill="white" stroke="none" points="-4,4 -4,-270 635.5,-270 635.5,4 -4,4"/>
<!-- Node1 -->
<g id="node1" class="node"><title>Node1</title>
<polygon fill="#bfbfbf" stroke="black" points="298,-246.5 298,-265.5 393,-265.5 393,-246.5 298,-246.5"/>
<text text-anchor="middle" x="345.5" y="-253.5" font-family="Helvetica,sans-Serif" font-size="10.00">command&#45;setter.h</text>
</g>
<!-- Node2 -->
<g id="node2" class="node"><title>Node2</title>
<g id="a_node2"><a xlink:href="a00064.html" target="_top" xlink:title="dynamic&#45;graph/command.h">
<polygon fill="white" stroke="black" points="184.5,-185 184.5,-204 318.5,-204 318.5,-185 184.5,-185"/>
<text text-anchor="middle" x="251.5" y="-192" font-family="Helvetica,sans-Serif" font-size="10.00">dynamic&#45;graph/command.h</text>
</a>
</g>
</g>
<!-- Node1&#45;&gt;Node2 -->
<g id="edge1" class="edge"><title>Node1&#45;&gt;Node2</title>
<path fill="none" stroke="midnightblue" d="M332.032,-246.475C316.815,-236.843 291.813,-221.017 273.699,-209.552"/>
<polygon fill="midnightblue" stroke="midnightblue" points="275.264,-206.4 264.943,-204.009 271.521,-212.315 275.264,-206.4"/>
</g>
<!-- Node14 -->
<g id="node14" class="node"><title>Node14</title>
<g id="a_node14"><a xlink:href="a00063.html" target="_top" xlink:title="dynamic&#45;graph/command\l&#45;setter.t.cpp">
<polygon fill="white" stroke="black" points="377.5,-179.5 377.5,-209.5 503.5,-209.5 503.5,-179.5 377.5,-179.5"/>
<text text-anchor="start" x="385.5" y="-197.5" font-family="Helvetica,sans-Serif" font-size="10.00">dynamic&#45;graph/command</text>
<text text-anchor="middle" x="440.5" y="-186.5" font-family="Helvetica,sans-Serif" font-size="10.00">&#45;setter.t.cpp</text>
</a>
</g>
</g>
<!-- Node1&#45;&gt;Node14 -->
<g id="edge14" class="edge"><title>Node1&#45;&gt;Node14</title>
<path fill="none" stroke="midnightblue" d="M359.111,-246.475C372.218,-238.266 392.508,-225.558 409.55,-214.885"/>
<polygon fill="midnightblue" stroke="midnightblue" points="411.493,-217.797 418.11,-209.523 407.778,-211.865 411.493,-217.797"/>
</g>
<!-- Node3 -->
<g id="node3" class="node"><title>Node3</title>
<polygon fill="white" stroke="#bfbfbf" points="113.5,-123.5 113.5,-142.5 157.5,-142.5 157.5,-123.5 113.5,-123.5"/>
<text text-anchor="middle" x="135.5" y="-130.5" font-family="Helvetica,sans-Serif" font-size="10.00">vector</text>
</g>
<!-- Node2&#45;&gt;Node3 -->
<g id="edge2" class="edge"><title>Node2&#45;&gt;Node3</title>
<path fill="none" stroke="midnightblue" d="M234.88,-184.975C215.585,-175.078 183.541,-158.642 161.069,-147.115"/>
<polygon fill="midnightblue" stroke="midnightblue" points="162.584,-143.959 152.089,-142.509 159.39,-150.187 162.584,-143.959"/>
</g>
<!-- Node4 -->
<g id="node4" class="node"><title>Node4</title>
<g id="a_node4"><a xlink:href="a00099.html" target="_top" xlink:title="dynamic&#45;graph/value.h">
<polygon fill="white" stroke="black" points="175,-123.5 175,-142.5 290,-142.5 290,-123.5 175,-123.5"/>
<text text-anchor="middle" x="232.5" y="-130.5" font-family="Helvetica,sans-Serif" font-size="10.00">dynamic&#45;graph/value.h</text>
</a>
</g>
</g>
<!-- Node2&#45;&gt;Node4 -->
<g id="edge3" class="edge"><title>Node2&#45;&gt;Node4</title>
<path fill="none" stroke="midnightblue" d="M248.778,-184.975C246.069,-176.492 241.826,-163.204 238.351,-152.322"/>
<polygon fill="midnightblue" stroke="midnightblue" points="241.593,-150.97 235.217,-142.509 234.925,-153.1 241.593,-150.97"/>
</g>
<!-- Node9 -->
<g id="node9" class="node"><title>Node9</title>
<g id="a_node9"><a xlink:href="a00068.html" target="_top" xlink:title="dynamic&#45;graph/dynamic\l&#45;graph&#45;api.h">
<polygon fill="white" stroke="black" points="268.5,-56.5 268.5,-86.5 388.5,-86.5 388.5,-56.5 268.5,-56.5"/>
<text text-anchor="start" x="276.5" y="-74.5" font-family="Helvetica,sans-Serif" font-size="10.00">dynamic&#45;graph/dynamic</text>
<text text-anchor="middle" x="328.5" y="-63.5" font-family="Helvetica,sans-Serif" font-size="10.00">&#45;graph&#45;api.h</text>
</a>
</g>
</g>
<!-- Node2&#45;&gt;Node9 -->
<g id="edge13" class="edge"><title>Node2&#45;&gt;Node9</title>
<path fill="none" stroke="midnightblue" d="M261.583,-184.656C271.919,-175.173 287.933,-159.273 298.5,-143 307.943,-128.457 315.548,-110.444 320.739,-96.2667"/>
<polygon fill="midnightblue" stroke="midnightblue" points="324.078,-97.3202 324.083,-86.7253 317.472,-95.0048 324.078,-97.3202"/>
</g>
<!-- Node5 -->
<g id="node5" class="node"><title>Node5</title>
<polygon fill="white" stroke="#bfbfbf" points="136.5,-62 136.5,-81 190.5,-81 190.5,-62 136.5,-62"/>
<text text-anchor="middle" x="163.5" y="-69" font-family="Helvetica,sans-Serif" font-size="10.00">iostream</text>
</g>
<!-- Node4&#45;&gt;Node5 -->
<g id="edge4" class="edge"><title>Node4&#45;&gt;Node5</title>
<path fill="none" stroke="midnightblue" d="M222.614,-123.475C211.854,-114.197 194.429,-99.1706 181.279,-87.831"/>
<polygon fill="midnightblue" stroke="midnightblue" points="183.227,-84.889 173.368,-81.0091 178.655,-90.1902 183.227,-84.889"/>
</g>
<!-- Node6 -->
<g id="node6" class="node"><title>Node6</title>
<polygon fill="white" stroke="#bfbfbf" points="209,-62 209,-81 250,-81 250,-62 209,-62"/>
<text text-anchor="middle" x="229.5" y="-69" font-family="Helvetica,sans-Serif" font-size="10.00">string</text>
</g>
<!-- Node4&#45;&gt;Node6 -->
<g id="edge5" class="edge"><title>Node4&#45;&gt;Node6</title>
<path fill="none" stroke="midnightblue" d="M232.07,-123.475C231.647,-115.08 230.986,-101.981 230.441,-91.1631"/>
<polygon fill="midnightblue" stroke="midnightblue" points="233.928,-90.8201 229.929,-81.0091 226.937,-91.1727 233.928,-90.8201"/>
</g>
<!-- Node7 -->
<g id="node7" class="node"><title>Node7</title>
<polygon fill="white" stroke="#bfbfbf" points="0,-62 0,-81 49,-81 49,-62 0,-62"/>
<text text-anchor="middle" x="24.5" y="-69" font-family="Helvetica,sans-Serif" font-size="10.00">cassert</text>
</g>
<!-- Node4&#45;&gt;Node7 -->
<g id="edge6" class="edge"><title>Node4&#45;&gt;Node7</title>
<path fill="none" stroke="midnightblue" d="M191.634,-123.468C155.81,-115.523 102.566,-102.58 57.5,-87 55.637,-86.3559 53.7328,-85.6508 51.8258,-84.9095"/>
<polygon fill="midnightblue" stroke="midnightblue" points="53.0224,-81.6167 42.4447,-81.0151 50.3386,-88.0818 53.0224,-81.6167"/>
</g>
<!-- Node8 -->
<g id="node8" class="node"><title>Node8</title>
<polygon fill="white" stroke="#bfbfbf" points="67,-62 67,-81 118,-81 118,-62 67,-62"/>
<text text-anchor="middle" x="92.5" y="-69" font-family="Helvetica,sans-Serif" font-size="10.00">typeinfo</text>
</g>
<!-- Node4&#45;&gt;Node8 -->
<g id="edge7" class="edge"><title>Node4&#45;&gt;Node8</title>
<path fill="none" stroke="midnightblue" d="M212.441,-123.475C188.738,-113.401 149.094,-96.5525 121.917,-85.0023"/>
<polygon fill="midnightblue" stroke="midnightblue" points="123.094,-81.6994 112.521,-81.0091 120.356,-88.1417 123.094,-81.6994"/>
</g>
<!-- Node4&#45;&gt;Node9 -->
<g id="edge8" class="edge"><title>Node4&#45;&gt;Node9</title>
<path fill="none" stroke="midnightblue" d="M246.254,-123.475C259.499,-115.266 280.003,-102.558 297.224,-91.8845"/>
<polygon fill="midnightblue" stroke="midnightblue" points="299.219,-94.7661 305.875,-86.523 295.531,-88.8162 299.219,-94.7661"/>
</g>
<!-- Node11 -->
<g id="node11" class="node"><title>Node11</title>
<g id="a_node11"><a xlink:href="a00078.html" target="_top" xlink:title="dynamic&#45;graph/linear\l&#45;algebra.h">
<polygon fill="white" stroke="black" points="407,-56.5 407,-86.5 514,-86.5 514,-56.5 407,-56.5"/>
<text text-anchor="start" x="415" y="-74.5" font-family="Helvetica,sans-Serif" font-size="10.00">dynamic&#45;graph/linear</text>
<text text-anchor="middle" x="460.5" y="-63.5" font-family="Helvetica,sans-Serif" font-size="10.00">&#45;algebra.h</text>
</a>
</g>
</g>
<!-- Node4&#45;&gt;Node11 -->
<g id="edge10" class="edge"><title>Node4&#45;&gt;Node11</title>
<path fill="none" stroke="midnightblue" d="M265.167,-123.475C299.437,-114.532 354.169,-100.249 396.99,-89.0738"/>
<polygon fill="midnightblue" stroke="midnightblue" points="397.973,-92.4347 406.765,-86.523 396.205,-85.6615 397.973,-92.4347"/>
</g>
<!-- Node10 -->
<g id="node10" class="node"><title>Node10</title>
<polygon fill="white" stroke="#bfbfbf" points="267,-0.5 267,-19.5 390,-19.5 390,-0.5 267,-0.5"/>
<text text-anchor="middle" x="328.5" y="-7.5" font-family="Helvetica,sans-Serif" font-size="10.00">dynamic&#45;graph/config.hh</text>
</g>
<!-- Node9&#45;&gt;Node10 -->
<g id="edge9" class="edge"><title>Node9&#45;&gt;Node10</title>
<path fill="none" stroke="midnightblue" d="M328.5,-56.3993C328.5,-48.4664 328.5,-38.458 328.5,-29.8583"/>
<polygon fill="midnightblue" stroke="midnightblue" points="332,-29.6577 328.5,-19.6578 325,-29.6578 332,-29.6577"/>
</g>
<!-- Node12 -->
<g id="node12" class="node"><title>Node12</title>
<polygon fill="white" stroke="#bfbfbf" points="517,-0.5 517,-19.5 582,-19.5 582,-0.5 517,-0.5"/>
<text text-anchor="middle" x="549.5" y="-7.5" font-family="Helvetica,sans-Serif" font-size="10.00">Eigen/Core</text>
</g>
<!-- Node11&#45;&gt;Node12 -->
<g id="edge11" class="edge"><title>Node11&#45;&gt;Node12</title>
<path fill="none" stroke="midnightblue" d="M481.592,-56.3993C495.591,-47.0402 513.911,-34.7924 527.995,-25.3771"/>
<polygon fill="midnightblue" stroke="midnightblue" points="530.182,-28.1253 536.55,-19.6578 526.291,-22.3059 530.182,-28.1253"/>
</g>
<!-- Node13 -->
<g id="node13" class="node"><title>Node13</title>
<polygon fill="white" stroke="#bfbfbf" points="412,-0.5 412,-19.5 499,-19.5 499,-0.5 412,-0.5"/>
<text text-anchor="middle" x="455.5" y="-7.5" font-family="Helvetica,sans-Serif" font-size="10.00">Eigen/Geometry</text>
</g>
<!-- Node11&#45;&gt;Node13 -->
<g id="edge12" class="edge"><title>Node11&#45;&gt;Node13</title>
<path fill="none" stroke="midnightblue" d="M459.315,-56.3993C458.648,-48.4664 457.807,-38.458 457.085,-29.8583"/>
<polygon fill="midnightblue" stroke="midnightblue" points="460.553,-29.3295 456.228,-19.6578 453.577,-29.9158 460.553,-29.3295"/>
</g>
<!-- Node14&#45;&gt;Node11 -->
<g id="edge17" class="edge"><title>Node14&#45;&gt;Node11</title>
<path fill="none" stroke="midnightblue" d="M435.886,-179.243C431.923,-164.85 427.564,-142.081 432.5,-123 434.981,-113.41 439.718,-103.699 444.6,-95.3901"/>
<polygon fill="midnightblue" stroke="midnightblue" points="447.712,-97.0162 450.061,-86.6852 441.782,-93.2961 447.712,-97.0162"/>
</g>
<!-- Node15 -->
<g id="node15" class="node"><title>Node15</title>
<polygon fill="white" stroke="#bfbfbf" points="441.5,-123.5 441.5,-142.5 493.5,-142.5 493.5,-123.5 441.5,-123.5"/>
<text text-anchor="middle" x="467.5" y="-130.5" font-family="Helvetica,sans-Serif" font-size="10.00">sstream</text>
</g>
<!-- Node14&#45;&gt;Node15 -->
<g id="edge15" class="edge"><title>Node14&#45;&gt;Node15</title>
<path fill="none" stroke="midnightblue" d="M446.899,-179.399C450.62,-171.199 455.347,-160.781 459.335,-151.994"/>
<polygon fill="midnightblue" stroke="midnightblue" points="462.626,-153.21 463.571,-142.658 456.252,-150.318 462.626,-153.21"/>
</g>
<!-- Node16 -->
<g id="node16" class="node"><title>Node16</title>
<polygon fill="white" stroke="#bfbfbf" points="511.5,-123.5 511.5,-142.5 631.5,-142.5 631.5,-123.5 511.5,-123.5"/>
<text text-anchor="middle" x="571.5" y="-130.5" font-family="Helvetica,sans-Serif" font-size="10.00">boost/assign/list_of.hpp</text>
</g>
<!-- Node14&#45;&gt;Node16 -->
<g id="edge16" class="edge"><title>Node14&#45;&gt;Node16</title>
<path fill="none" stroke="midnightblue" d="M471.545,-179.399C493.23,-169.55 521.959,-156.501 543.051,-146.922"/>
<polygon fill="midnightblue" stroke="midnightblue" points="544.781,-149.98 552.438,-142.658 541.886,-143.607 544.781,-149.98"/>
</g>
</g>
</svg>
