<?xml version="1.0" encoding="UTF-8" standalone="no"?>
<!DOCTYPE svg PUBLIC "-//W3C//DTD SVG 1.1//EN"
 "http://www.w3.org/Graphics/SVG/1.1/DTD/svg11.dtd">
<!-- Generated by graphviz version 2.38.0 (20140413.2041)
 -->
<!-- Title: exception&#45;signal.h Pages: 1 -->
<svg width="391pt" height="218pt"
 viewBox="0.00 0.00 391.00 218.00" xmlns="http://www.w3.org/2000/svg" xmlns:xlink="http://www.w3.org/1999/xlink">
<g id="graph0" class="graph" transform="scale(1 1) rotate(0) translate(4 214)">
<title>exception&#45;signal.h</title>
<polygon fill="white" stroke="none" points="-4,4 -4,-214 387,-214 387,4 -4,4"/>
<!-- Node1 -->
<g id="node1" class="node"><title>Node1</title>
<polygon fill="#bfbfbf" stroke="black" points="98,-190.5 98,-209.5 193,-209.5 193,-190.5 98,-190.5"/>
<text text-anchor="middle" x="145.5" y="-197.5" font-family="Helvetica,sans-Serif" font-size="10.00">exception&#45;signal.h</text>
</g>
<!-- Node2 -->
<g id="node2" class="node"><title>Node2</title>
<g id="a_node2"><a xlink:href="a00076.html" target="_top" xlink:title="dynamic&#45;graph/fwd.hh">
<polygon fill="white" stroke="black" points="0,-62 0,-81 113,-81 113,-62 0,-62"/>
<text text-anchor="middle" x="56.5" y="-69" font-family="Helvetica,sans-Serif" font-size="10.00">dynamic&#45;graph/fwd.hh</text>
</a>
</g>
</g>
<!-- Node1&#45;&gt;Node2 -->
<g id="edge1" class="edge"><title>Node1&#45;&gt;Node2</title>
<path fill="none" stroke="midnightblue" d="M139.383,-190.305C124.775,-169.543 87.6493,-116.774 68.4323,-89.4599"/>
<polygon fill="midnightblue" stroke="midnightblue" points="71.2768,-87.4204 62.6601,-81.2557 65.5518,-91.4483 71.2768,-87.4204"/>
</g>
<!-- Node3 -->
<g id="node3" class="node"><title>Node3</title>
<g id="a_node3"><a xlink:href="a00067.html" target="_top" xlink:title="dynamic&#45;graph/dynamic\l&#45;graph&#45;api.h">
<polygon fill="white" stroke="black" points="131.5,-56.5 131.5,-86.5 251.5,-86.5 251.5,-56.5 131.5,-56.5"/>
<text text-anchor="start" x="139.5" y="-74.5" font-family="Helvetica,sans-Serif" font-size="10.00">dynamic&#45;graph/dynamic</text>
<text text-anchor="middle" x="191.5" y="-63.5" font-family="Helvetica,sans-Serif" font-size="10.00">&#45;graph&#45;api.h</text>
</a>
</g>
</g>
<!-- Node1&#45;&gt;Node3 -->
<g id="edge2" class="edge"><title>Node1&#45;&gt;Node3</title>
<path fill="none" stroke="midnightblue" d="M146.944,-190.355C149.493,-176.028 155.4,-146.603 164.5,-123 168.086,-113.699 173.005,-103.937 177.662,-95.5021"/>
<polygon fill="midnightblue" stroke="midnightblue" points="180.805,-97.0571 182.725,-86.6377 174.726,-93.5856 180.805,-97.0571"/>
</g>
<!-- Node5 -->
<g id="node5" class="node"><title>Node5</title>
<g id="a_node5"><a xlink:href="a00071.html" target="_top" xlink:title="dynamic&#45;graph/exception\l&#45;abstract.h">
<polygon fill="white" stroke="black" points="174,-123.5 174,-153.5 299,-153.5 299,-123.5 174,-123.5"/>
<text text-anchor="start" x="182" y="-141.5" font-family="Helvetica,sans-Serif" font-size="10.00">dynamic&#45;graph/exception</text>
<text text-anchor="middle" x="236.5" y="-130.5" font-family="Helvetica,sans-Serif" font-size="10.00">&#45;abstract.h</text>
</a>
</g>
</g>
<!-- Node1&#45;&gt;Node5 -->
<g id="edge4" class="edge"><title>Node1&#45;&gt;Node5</title>
<path fill="none" stroke="midnightblue" d="M158.538,-190.475C170.978,-182.341 190.173,-169.791 206.403,-159.179"/>
<polygon fill="midnightblue" stroke="midnightblue" points="208.599,-161.925 215.053,-153.523 204.768,-156.066 208.599,-161.925"/>
</g>
<!-- Node4 -->
<g id="node4" class="node"><title>Node4</title>
<polygon fill="white" stroke="#bfbfbf" points="130,-0.5 130,-19.5 253,-19.5 253,-0.5 130,-0.5"/>
<text text-anchor="middle" x="191.5" y="-7.5" font-family="Helvetica,sans-Serif" font-size="10.00">dynamic&#45;graph/config.hh</text>
</g>
<!-- Node3&#45;&gt;Node4 -->
<g id="edge3" class="edge"><title>Node3&#45;&gt;Node4</title>
<path fill="none" stroke="midnightblue" d="M191.5,-56.3993C191.5,-48.4664 191.5,-38.458 191.5,-29.8583"/>
<polygon fill="midnightblue" stroke="midnightblue" points="195,-29.6577 191.5,-19.6578 188,-29.6578 195,-29.6577"/>
</g>
<!-- Node5&#45;&gt;Node2 -->
<g id="edge7" class="edge"><title>Node5&#45;&gt;Node2</title>
<path fill="none" stroke="midnightblue" d="M197.443,-123.396C165.301,-111.789 120.233,-95.5147 89.7839,-84.5192"/>
<polygon fill="midnightblue" stroke="midnightblue" points="90.6522,-81.1116 80.0579,-81.007 88.2746,-87.6955 90.6522,-81.1116"/>
</g>
<!-- Node5&#45;&gt;Node3 -->
<g id="edge8" class="edge"><title>Node5&#45;&gt;Node3</title>
<path fill="none" stroke="midnightblue" d="M226.736,-123.396C220.957,-115.049 213.506,-104.287 206.946,-94.8113"/>
<polygon fill="midnightblue" stroke="midnightblue" points="209.815,-92.8062 201.245,-86.5765 204.06,-96.7907 209.815,-92.8062"/>
</g>
<!-- Node6 -->
<g id="node6" class="node"><title>Node6</title>
<polygon fill="white" stroke="#bfbfbf" points="269.5,-62 269.5,-81 323.5,-81 323.5,-62 269.5,-62"/>
<text text-anchor="middle" x="296.5" y="-69" font-family="Helvetica,sans-Serif" font-size="10.00">iostream</text>
</g>
<!-- Node5&#45;&gt;Node6 -->
<g id="edge5" class="edge"><title>Node5&#45;&gt;Node6</title>
<path fill="none" stroke="midnightblue" d="M249.519,-123.396C258.967,-113.161 271.765,-99.2959 281.618,-88.622"/>
<polygon fill="midnightblue" stroke="midnightblue" points="284.263,-90.9166 288.474,-81.1945 279.12,-86.1686 284.263,-90.9166"/>
</g>
<!-- Node7 -->
<g id="node7" class="node"><title>Node7</title>
<polygon fill="white" stroke="#bfbfbf" points="342,-62 342,-81 383,-81 383,-62 342,-62"/>
<text text-anchor="middle" x="362.5" y="-69" font-family="Helvetica,sans-Serif" font-size="10.00">string</text>
</g>
<!-- Node5&#45;&gt;Node7 -->
<g id="edge6" class="edge"><title>Node5&#45;&gt;Node7</title>
<path fill="none" stroke="midnightblue" d="M263.84,-123.396C285.557,-112.193 315.703,-96.6412 336.941,-85.6853"/>
<polygon fill="midnightblue" stroke="midnightblue" points="338.727,-88.7022 346.01,-81.007 335.518,-82.4812 338.727,-88.7022"/>
</g>
</g>
</svg>
