<?xml version="1.0" encoding="UTF-8" standalone="no"?>
<!DOCTYPE svg PUBLIC "-//W3C//DTD SVG 1.1//EN"
 "http://www.w3.org/Graphics/SVG/1.1/DTD/svg11.dtd">
<!-- Generated by graphviz version 2.38.0 (20140413.2041)
 -->
<!-- Title: contiifstream.h Pages: 1 -->
<svg width="805pt" height="95pt"
 viewBox="0.00 0.00 805.00 95.00" xmlns="http://www.w3.org/2000/svg" xmlns:xlink="http://www.w3.org/1999/xlink">
<g id="graph0" class="graph" transform="scale(1 1) rotate(0) translate(4 91)">
<title>contiifstream.h</title>
<polygon fill="white" stroke="none" points="-4,4 -4,-91 801,-91 801,4 -4,4"/>
<!-- Node1 -->
<g id="node1" class="node"><title>Node1</title>
<polygon fill="#bfbfbf" stroke="black" points="243.5,-67.5 243.5,-86.5 324.5,-86.5 324.5,-67.5 243.5,-67.5"/>
<text text-anchor="middle" x="284" y="-74.5" font-family="Helvetica,sans-Serif" font-size="10.00">contiifstream.h</text>
</g>
<!-- Node2 -->
<g id="node2" class="node"><title>Node2</title>
<polygon fill="white" stroke="#bfbfbf" points="0,-6 0,-25 50,-25 50,-6 0,-6"/>
<text text-anchor="middle" x="25" y="-13" font-family="Helvetica,sans-Serif" font-size="10.00">fstream</text>
</g>
<!-- Node1&#45;&gt;Node2 -->
<g id="edge1" class="edge"><title>Node1&#45;&gt;Node2</title>
<path fill="none" stroke="midnightblue" d="M243.136,-70.4155C197.565,-63.5941 121.979,-50.4994 59,-31 56.8583,-30.3369 54.6679,-29.5847 52.482,-28.7801"/>
<polygon fill="midnightblue" stroke="midnightblue" points="53.6775,-25.4888 43.0926,-25.0309 51.0817,-31.9897 53.6775,-25.4888"/>
</g>
<!-- Node3 -->
<g id="node3" class="node"><title>Node3</title>
<polygon fill="white" stroke="#bfbfbf" points="68,-6 68,-25 122,-25 122,-6 68,-6"/>
<text text-anchor="middle" x="95" y="-13" font-family="Helvetica,sans-Serif" font-size="10.00">iostream</text>
</g>
<!-- Node1&#45;&gt;Node3 -->
<g id="edge2" class="edge"><title>Node1&#45;&gt;Node3</title>
<path fill="none" stroke="midnightblue" d="M251.772,-67.4985C220.611,-59.0492 172.191,-45.3153 131,-31 129.091,-30.3364 127.134,-29.6293 125.168,-28.8978"/>
<polygon fill="midnightblue" stroke="midnightblue" points="126.02,-25.4743 115.431,-25.1279 123.493,-32.0022 126.02,-25.4743"/>
</g>
<!-- Node4 -->
<g id="node4" class="node"><title>Node4</title>
<polygon fill="white" stroke="#bfbfbf" points="140.5,-6 140.5,-25 169.5,-25 169.5,-6 140.5,-6"/>
<text text-anchor="middle" x="155" y="-13" font-family="Helvetica,sans-Serif" font-size="10.00">list</text>
</g>
<!-- Node1&#45;&gt;Node4 -->
<g id="edge3" class="edge"><title>Node1&#45;&gt;Node4</title>
<path fill="none" stroke="midnightblue" d="M261.465,-67.3945C239.918,-58.9217 206.702,-45.2178 179,-31 178.459,-30.7221 177.913,-30.4369 177.365,-30.1455"/>
<polygon fill="midnightblue" stroke="midnightblue" points="178.943,-27.0171 168.521,-25.1154 175.483,-33.1017 178.943,-27.0171"/>
</g>
<!-- Node5 -->
<g id="node5" class="node"><title>Node5</title>
<polygon fill="white" stroke="#bfbfbf" points="188,-6 188,-25 240,-25 240,-6 188,-6"/>
<text text-anchor="middle" x="214" y="-13" font-family="Helvetica,sans-Serif" font-size="10.00">sstream</text>
</g>
<!-- Node1&#45;&gt;Node5 -->
<g id="edge4" class="edge"><title>Node1&#45;&gt;Node5</title>
<path fill="none" stroke="midnightblue" d="M273.971,-67.4751C262.951,-58.1082 245.04,-42.8839 231.657,-31.5081"/>
<polygon fill="midnightblue" stroke="midnightblue" points="233.897,-28.8188 224.011,-25.0091 229.363,-34.1524 233.897,-28.8188"/>
</g>
<!-- Node6 -->
<g id="node6" class="node"><title>Node6</title>
<polygon fill="white" stroke="#bfbfbf" points="258.5,-6 258.5,-25 309.5,-25 309.5,-6 258.5,-6"/>
<text text-anchor="middle" x="284" y="-13" font-family="Helvetica,sans-Serif" font-size="10.00">unistd.h</text>
</g>
<!-- Node1&#45;&gt;Node6 -->
<g id="edge5" class="edge"><title>Node1&#45;&gt;Node6</title>
<path fill="none" stroke="midnightblue" d="M284,-67.4751C284,-59.0803 284,-45.9806 284,-35.1631"/>
<polygon fill="midnightblue" stroke="midnightblue" points="287.5,-35.0091 284,-25.0091 280.5,-35.0091 287.5,-35.0091"/>
</g>
<!-- Node7 -->
<g id="node7" class="node"><title>Node7</title>
<polygon fill="white" stroke="#bfbfbf" points="327.5,-6 327.5,-25 384.5,-25 384.5,-6 327.5,-6"/>
<text text-anchor="middle" x="356" y="-13" font-family="Helvetica,sans-Serif" font-size="10.00">pthread.h</text>
</g>
<!-- Node1&#45;&gt;Node7 -->
<g id="edge6" class="edge"><title>Node1&#45;&gt;Node7</title>
<path fill="none" stroke="midnightblue" d="M294.316,-67.4751C305.651,-58.1082 324.073,-42.8839 337.839,-31.5081"/>
<polygon fill="midnightblue" stroke="midnightblue" points="340.224,-34.0773 345.703,-25.0091 335.765,-28.6813 340.224,-34.0773"/>
</g>
<!-- Node8 -->
<g id="node8" class="node"><title>Node8</title>
<g id="a_node8"><a xlink:href="a00077.html" target="_top" xlink:title="dynamic&#45;graph/fwd.hh">
<polygon fill="white" stroke="black" points="402.5,-6 402.5,-25 515.5,-25 515.5,-6 402.5,-6"/>
<text text-anchor="middle" x="459" y="-13" font-family="Helvetica,sans-Serif" font-size="10.00">dynamic&#45;graph/fwd.hh</text>
</a>
</g>
</g>
<!-- Node1&#45;&gt;Node8 -->
<g id="edge7" class="edge"><title>Node1&#45;&gt;Node8</title>
<path fill="none" stroke="midnightblue" d="M309.073,-67.4751C339.352,-57.1804 390.44,-39.8103 424.441,-28.2502"/>
<polygon fill="midnightblue" stroke="midnightblue" points="425.632,-31.5419 433.973,-25.0091 423.379,-24.9145 425.632,-31.5419"/>
</g>
<!-- Node9 -->
<g id="node9" class="node"><title>Node9</title>
<polygon fill="white" stroke="#bfbfbf" points="533.5,-6 533.5,-25 668.5,-25 668.5,-6 533.5,-6"/>
<text text-anchor="middle" x="601" y="-13" font-family="Helvetica,sans-Serif" font-size="10.00">dynamic&#45;graph/interpreter.h</text>
</g>
<!-- Node1&#45;&gt;Node9 -->
<g id="edge8" class="edge"><title>Node1&#45;&gt;Node9</title>
<path fill="none" stroke="midnightblue" d="M324.518,-68.4845C372.415,-59.5889 454.525,-44.3025 525,-31 531.829,-29.7111 539.001,-28.3509 546.099,-27.001"/>
<polygon fill="midnightblue" stroke="midnightblue" points="547.229,-30.3488 556.398,-25.0399 545.92,-23.4724 547.229,-30.3488"/>
</g>
<!-- Node10 -->
<g id="node10" class="node"><title>Node10</title>
<polygon fill="white" stroke="#bfbfbf" points="687,-0.5 687,-30.5 797,-30.5 797,-0.5 687,-0.5"/>
<text text-anchor="start" x="695" y="-18.5" font-family="Helvetica,sans-Serif" font-size="10.00">dynamic&#45;graph/config</text>
<text text-anchor="middle" x="742" y="-7.5" font-family="Helvetica,sans-Serif" font-size="10.00">&#45;contiifstream.hh</text>
</g>
<!-- Node1&#45;&gt;Node10 -->
<g id="edge9" class="edge"><title>Node1&#45;&gt;Node10</title>
<path fill="none" stroke="midnightblue" d="M324.76,-72.8207C394.753,-67.0412 542.445,-53.4476 676.854,-31.0765"/>
<polygon fill="midnightblue" stroke="midnightblue" points="677.639,-34.4936 686.918,-29.3804 676.475,-27.5909 677.639,-34.4936"/>
</g>
</g>
</svg>
