<?xml version="1.0" encoding="UTF-8" standalone="no"?>
<!DOCTYPE svg PUBLIC "-//W3C//DTD SVG 1.1//EN"
 "http://www.w3.org/Graphics/SVG/1.1/DTD/svg11.dtd">
<!-- Generated by graphviz version 2.38.0 (20140413.2041)
 -->
<!-- Title: value.h Pages: 1 -->
<svg width="642pt" height="196pt"
 viewBox="0.00 0.00 642.00 196.00" xmlns="http://www.w3.org/2000/svg" xmlns:xlink="http://www.w3.org/1999/xlink">
<g id="graph0" class="graph" transform="scale(1 1) rotate(0) translate(4 192)">
<title>value.h</title>
<polygon fill="white" stroke="none" points="-4,4 -4,-192 638,-192 638,4 -4,4"/>
<!-- Node1 -->
<g id="node1" class="node"><title>Node1</title>
<polygon fill="#bfbfbf" stroke="black" points="252.5,-168.5 252.5,-187.5 300.5,-187.5 300.5,-168.5 252.5,-168.5"/>
<text text-anchor="middle" x="276.5" y="-175.5" font-family="Helvetica,sans-Serif" font-size="10.00">value.h</text>
</g>
<!-- Node2 -->
<g id="node2" class="node"><title>Node2</title>
<g id="a_node2"><a xlink:href="a00063.html" target="_top" xlink:title="command.h">
<polygon fill="white" stroke="black" points="242.5,-112.5 242.5,-131.5 310.5,-131.5 310.5,-112.5 242.5,-112.5"/>
<text text-anchor="middle" x="276.5" y="-119.5" font-family="Helvetica,sans-Serif" font-size="10.00">command.h</text>
</a>
</g>
</g>
<!-- Node1&#45;&gt;Node2 -->
<g id="edge1" class="edge"><title>Node1&#45;&gt;Node2</title>
<path fill="none" stroke="midnightblue" d="M276.5,-157.805C276.5,-148.91 276.5,-138.78 276.5,-131.751"/>
<polygon fill="midnightblue" stroke="midnightblue" points="273,-158.083 276.5,-168.083 280,-158.083 273,-158.083"/>
</g>
<!-- Node3 -->
<g id="node3" class="node"><title>Node3</title>
<g id="a_node3"><a xlink:href="a00056.html" target="_top" xlink:title="command&#45;bind.h">
<polygon fill="white" stroke="black" points="0,-56.5 0,-75.5 89,-75.5 89,-56.5 0,-56.5"/>
<text text-anchor="middle" x="44.5" y="-63.5" font-family="Helvetica,sans-Serif" font-size="10.00">command&#45;bind.h</text>
</a>
</g>
</g>
<!-- Node2&#45;&gt;Node3 -->
<g id="edge2" class="edge"><title>Node2&#45;&gt;Node3</title>
<path fill="none" stroke="midnightblue" d="M232.465,-110.75C188.654,-100.553 122.205,-85.0865 81.1731,-75.536"/>
<polygon fill="midnightblue" stroke="midnightblue" points="231.734,-114.174 242.268,-113.032 233.321,-107.356 231.734,-114.174"/>
</g>
<!-- Node4 -->
<g id="node4" class="node"><title>Node4</title>
<g id="a_node4"><a xlink:href="a00054.html" target="_top" xlink:title="all&#45;commands.h">
<polygon fill="white" stroke="black" points="233.5,-0.5 233.5,-19.5 319.5,-19.5 319.5,-0.5 233.5,-0.5"/>
<text text-anchor="middle" x="276.5" y="-7.5" font-family="Helvetica,sans-Serif" font-size="10.00">all&#45;commands.h</text>
</a>
</g>
</g>
<!-- Node2&#45;&gt;Node4 -->
<g id="edge10" class="edge"><title>Node2&#45;&gt;Node4</title>
<path fill="none" stroke="midnightblue" d="M232.244,-119.783C199.963,-116.288 158.212,-105.786 136.5,-76 109.191,-38.5374 182.727,-22.0236 233.281,-15.2535"/>
<polygon fill="midnightblue" stroke="midnightblue" points="232.082,-123.283 242.354,-120.687 232.706,-116.31 232.082,-123.283"/>
</g>
<!-- Node5 -->
<g id="node5" class="node"><title>Node5</title>
<g id="a_node5"><a xlink:href="a00057.html" target="_top" xlink:title="command&#45;direct&#45;getter.h">
<polygon fill="white" stroke="black" points="145.5,-56.5 145.5,-75.5 267.5,-75.5 267.5,-56.5 145.5,-56.5"/>
<text text-anchor="middle" x="206.5" y="-63.5" font-family="Helvetica,sans-Serif" font-size="10.00">command&#45;direct&#45;getter.h</text>
</a>
</g>
</g>
<!-- Node2&#45;&gt;Node5 -->
<g id="edge4" class="edge"><title>Node2&#45;&gt;Node5</title>
<path fill="none" stroke="midnightblue" d="M257.186,-106.101C244.588,-96.3824 228.572,-84.0269 217.951,-75.8339"/>
<polygon fill="midnightblue" stroke="midnightblue" points="255.198,-108.987 265.253,-112.324 259.473,-103.445 255.198,-108.987"/>
</g>
<!-- Node6 -->
<g id="node6" class="node"><title>Node6</title>
<g id="a_node6"><a xlink:href="a00058.html" target="_top" xlink:title="command&#45;direct&#45;setter.h">
<polygon fill="white" stroke="black" points="285.5,-56.5 285.5,-75.5 407.5,-75.5 407.5,-56.5 285.5,-56.5"/>
<text text-anchor="middle" x="346.5" y="-63.5" font-family="Helvetica,sans-Serif" font-size="10.00">command&#45;direct&#45;setter.h</text>
</a>
</g>
</g>
<!-- Node2&#45;&gt;Node6 -->
<g id="edge6" class="edge"><title>Node2&#45;&gt;Node6</title>
<path fill="none" stroke="midnightblue" d="M295.814,-106.101C308.412,-96.3824 324.428,-84.0269 335.049,-75.8339"/>
<polygon fill="midnightblue" stroke="midnightblue" points="293.527,-103.445 287.747,-112.324 297.802,-108.987 293.527,-103.445"/>
</g>
<!-- Node7 -->
<g id="node7" class="node"><title>Node7</title>
<g id="a_node7"><a xlink:href="a00059.html" target="_top" xlink:title="command&#45;getter.h">
<polygon fill="white" stroke="black" points="426,-56.5 426,-75.5 521,-75.5 521,-56.5 426,-56.5"/>
<text text-anchor="middle" x="473.5" y="-63.5" font-family="Helvetica,sans-Serif" font-size="10.00">command&#45;getter.h</text>
</a>
</g>
</g>
<!-- Node2&#45;&gt;Node7 -->
<g id="edge8" class="edge"><title>Node2&#45;&gt;Node7</title>
<path fill="none" stroke="midnightblue" d="M317.729,-109.699C354.909,-99.507 408.771,-84.7429 442.431,-75.5164"/>
<polygon fill="midnightblue" stroke="midnightblue" points="316.434,-106.424 307.715,-112.444 318.285,-113.175 316.434,-106.424"/>
</g>
<!-- Node8 -->
<g id="node8" class="node"><title>Node8</title>
<g id="a_node8"><a xlink:href="a00061.html" target="_top" xlink:title="command&#45;setter.h">
<polygon fill="white" stroke="black" points="539,-56.5 539,-75.5 634,-75.5 634,-56.5 539,-56.5"/>
<text text-anchor="middle" x="586.5" y="-63.5" font-family="Helvetica,sans-Serif" font-size="10.00">command&#45;setter.h</text>
</a>
</g>
</g>
<!-- Node2&#45;&gt;Node8 -->
<g id="edge11" class="edge"><title>Node2&#45;&gt;Node8</title>
<path fill="none" stroke="midnightblue" d="M320.489,-113.337C378.304,-103.266 479.474,-85.6433 538.989,-75.276"/>
<polygon fill="midnightblue" stroke="midnightblue" points="319.813,-109.902 310.562,-115.067 321.015,-116.798 319.813,-109.902"/>
</g>
<!-- Node3&#45;&gt;Node4 -->
<g id="edge3" class="edge"><title>Node3&#45;&gt;Node4</title>
<path fill="none" stroke="midnightblue" d="M91.1025,-54.1529C134.937,-43.95 199.678,-28.8809 239.911,-19.5164"/>
<polygon fill="midnightblue" stroke="midnightblue" points="90.2073,-50.7676 81.2611,-56.4435 91.7942,-57.5854 90.2073,-50.7676"/>
</g>
<!-- Node5&#45;&gt;Node4 -->
<g id="edge5" class="edge"><title>Node5&#45;&gt;Node4</title>
<path fill="none" stroke="midnightblue" d="M225.814,-50.1008C238.412,-40.3824 254.428,-28.0269 265.049,-19.8339"/>
<polygon fill="midnightblue" stroke="midnightblue" points="223.527,-47.4446 217.747,-56.324 227.802,-52.9871 223.527,-47.4446"/>
</g>
<!-- Node6&#45;&gt;Node4 -->
<g id="edge7" class="edge"><title>Node6&#45;&gt;Node4</title>
<path fill="none" stroke="midnightblue" d="M327.186,-50.1008C314.588,-40.3824 298.572,-28.0269 287.951,-19.8339"/>
<polygon fill="midnightblue" stroke="midnightblue" points="325.198,-52.9871 335.253,-56.324 329.473,-47.4446 325.198,-52.9871"/>
</g>
<!-- Node7&#45;&gt;Node4 -->
<g id="edge9" class="edge"><title>Node7&#45;&gt;Node4</title>
<path fill="none" stroke="midnightblue" d="M432.271,-53.6986C395.091,-43.507 341.229,-28.7429 307.569,-19.5164"/>
<polygon fill="midnightblue" stroke="midnightblue" points="431.715,-57.1754 442.285,-56.4435 433.566,-50.4244 431.715,-57.1754"/>
</g>
<!-- Node8&#45;&gt;Node4 -->
<g id="edge12" class="edge"><title>Node8&#45;&gt;Node4</title>
<path fill="none" stroke="midnightblue" d="M528.573,-54.9095C467.985,-44.3554 374.276,-28.032 319.808,-18.544"/>
<polygon fill="midnightblue" stroke="midnightblue" points="528.29,-58.4127 538.742,-56.6808 529.491,-51.5166 528.29,-58.4127"/>
</g>
</g>
</svg>
