<?xml version="1.0" encoding="UTF-8" standalone="no"?>
<!DOCTYPE svg PUBLIC "-//W3C//DTD SVG 1.1//EN"
 "http://www.w3.org/Graphics/SVG/1.1/DTD/svg11.dtd">
<!-- Generated by graphviz version 2.38.0 (20140413.2041)
 -->
<!-- Title: signal&#45;array.h Pages: 1 -->
<svg width="373pt" height="252pt"
 viewBox="0.00 0.00 373.00 252.00" xmlns="http://www.w3.org/2000/svg" xmlns:xlink="http://www.w3.org/1999/xlink">
<g id="graph0" class="graph" transform="scale(1 1) rotate(0) translate(4 248)">
<title>signal&#45;array.h</title>
<polygon fill="white" stroke="none" points="-4,4 -4,-248 369,-248 369,4 -4,4"/>
<!-- Node1 -->
<g id="node1" class="node"><title>Node1</title>
<polygon fill="#bfbfbf" stroke="black" points="116.5,-224.5 116.5,-243.5 191.5,-243.5 191.5,-224.5 116.5,-224.5"/>
<text text-anchor="middle" x="154" y="-231.5" font-family="Helvetica,sans-Serif" font-size="10.00">signal&#45;array.h</text>
</g>
<!-- Node2 -->
<g id="node2" class="node"><title>Node2</title>
<g id="a_node2"><a xlink:href="a00092.html" target="_top" xlink:title="time&#45;dependency.h">
<polygon fill="white" stroke="black" points="171.5,-168.5 171.5,-187.5 270.5,-187.5 270.5,-168.5 171.5,-168.5"/>
<text text-anchor="middle" x="221" y="-175.5" font-family="Helvetica,sans-Serif" font-size="10.00">time&#45;dependency.h</text>
</a>
</g>
</g>
<!-- Node1&#45;&gt;Node2 -->
<g id="edge1" class="edge"><title>Node1&#45;&gt;Node2</title>
<path fill="none" stroke="midnightblue" d="M172.835,-217.82C184.838,-208.145 199.972,-195.948 210.039,-187.834"/>
<polygon fill="midnightblue" stroke="midnightblue" points="170.354,-215.324 164.765,-224.324 174.747,-220.774 170.354,-215.324"/>
</g>
<!-- Node9 -->
<g id="node9" class="node"><title>Node9</title>
<g id="a_node9"><a xlink:href="a00070.html" target="_top" xlink:title="entity.h">
<polygon fill="white" stroke="black" points="6.5,-112.5 6.5,-131.5 55.5,-131.5 55.5,-112.5 6.5,-112.5"/>
<text text-anchor="middle" x="31" y="-119.5" font-family="Helvetica,sans-Serif" font-size="10.00">entity.h</text>
</a>
</g>
</g>
<!-- Node1&#45;&gt;Node9 -->
<g id="edge10" class="edge"><title>Node1&#45;&gt;Node9</title>
<path fill="none" stroke="midnightblue" d="M136.681,-217.512C110.399,-194.007 61.3135,-150.11 40.6068,-131.591"/>
<polygon fill="midnightblue" stroke="midnightblue" points="134.561,-220.311 144.348,-224.368 139.228,-215.093 134.561,-220.311"/>
</g>
<!-- Node3 -->
<g id="node3" class="node"><title>Node3</title>
<g id="a_node3"><a xlink:href="a00089.html" target="_top" xlink:title="signal&#45;time&#45;dependent.h">
<polygon fill="white" stroke="black" points="73,-112.5 73,-131.5 193,-131.5 193,-112.5 73,-112.5"/>
<text text-anchor="middle" x="133" y="-119.5" font-family="Helvetica,sans-Serif" font-size="10.00">signal&#45;time&#45;dependent.h</text>
</a>
</g>
</g>
<!-- Node2&#45;&gt;Node3 -->
<g id="edge2" class="edge"><title>Node2&#45;&gt;Node3</title>
<path fill="none" stroke="midnightblue" d="M198.023,-162.901C181.887,-152.999 160.819,-140.071 147.104,-131.655"/>
<polygon fill="midnightblue" stroke="midnightblue" points="196.507,-166.077 206.861,-168.324 200.169,-160.111 196.507,-166.077"/>
</g>
<!-- Node6 -->
<g id="node6" class="node"><title>Node6</title>
<g id="a_node6"><a xlink:href="a00096.html" target="_top" xlink:title="tracer.h">
<polygon fill="white" stroke="black" points="103,-56.5 103,-75.5 153,-75.5 153,-56.5 103,-56.5"/>
<text text-anchor="middle" x="128" y="-63.5" font-family="Helvetica,sans-Serif" font-size="10.00">tracer.h</text>
</a>
</g>
</g>
<!-- Node2&#45;&gt;Node6 -->
<g id="edge9" class="edge"><title>Node2&#45;&gt;Node6</title>
<path fill="none" stroke="midnightblue" d="M219.172,-158.161C217.003,-144.217 212.277,-125.396 202,-112 188.912,-94.9404 167.356,-82.8983 150.876,-75.5914"/>
<polygon fill="midnightblue" stroke="midnightblue" points="215.701,-158.616 220.42,-168.102 222.647,-157.744 215.701,-158.616"/>
</g>
<!-- Node8 -->
<g id="node8" class="node"><title>Node8</title>
<g id="a_node8"><a xlink:href="a00093.html" target="_top" xlink:title="time&#45;dependency.t.cpp">
<polygon fill="white" stroke="black" points="249,-112.5 249,-131.5 365,-131.5 365,-112.5 249,-112.5"/>
<text text-anchor="middle" x="307" y="-119.5" font-family="Helvetica,sans-Serif" font-size="10.00">time&#45;dependency.t.cpp</text>
</a>
</g>
</g>
<!-- Node2&#45;&gt;Node8 -->
<g id="edge7" class="edge"><title>Node2&#45;&gt;Node8</title>
<path fill="none" stroke="midnightblue" d="M238.264,-162.342C252.766,-152.517 273.162,-139.913 288.107,-131.655"/>
<polygon fill="midnightblue" stroke="midnightblue" points="235.896,-159.728 229.703,-168.324 239.905,-165.466 235.896,-159.728"/>
</g>
<!-- Node4 -->
<g id="node4" class="node"><title>Node4</title>
<g id="a_node4"><a xlink:href="a00055.html" target="_top" xlink:title="all&#45;signals.h">
<polygon fill="white" stroke="black" points="171,-56.5 171,-75.5 239,-75.5 239,-56.5 171,-56.5"/>
<text text-anchor="middle" x="205" y="-63.5" font-family="Helvetica,sans-Serif" font-size="10.00">all&#45;signals.h</text>
</a>
</g>
</g>
<!-- Node3&#45;&gt;Node4 -->
<g id="edge3" class="edge"><title>Node3&#45;&gt;Node4</title>
<path fill="none" stroke="midnightblue" d="M152.866,-106.101C165.823,-96.3824 182.297,-84.0269 193.221,-75.8339"/>
<polygon fill="midnightblue" stroke="midnightblue" points="150.468,-103.524 144.568,-112.324 154.668,-109.124 150.468,-103.524"/>
</g>
<!-- Node5 -->
<g id="node5" class="node"><title>Node5</title>
<g id="a_node5"><a xlink:href="a00086.html" target="_top" xlink:title="signal&#45;helper.h">
<polygon fill="white" stroke="black" points="0,-56.5 0,-75.5 80,-75.5 80,-56.5 0,-56.5"/>
<text text-anchor="middle" x="40" y="-63.5" font-family="Helvetica,sans-Serif" font-size="10.00">signal&#45;helper.h</text>
</a>
</g>
</g>
<!-- Node3&#45;&gt;Node5 -->
<g id="edge4" class="edge"><title>Node3&#45;&gt;Node5</title>
<path fill="none" stroke="midnightblue" d="M109.194,-107.177C92.0811,-97.2407 69.5347,-84.1492 54.905,-75.6545"/>
<polygon fill="midnightblue" stroke="midnightblue" points="107.653,-110.329 118.058,-112.324 111.168,-104.276 107.653,-110.329"/>
</g>
<!-- Node3&#45;&gt;Node6 -->
<g id="edge5" class="edge"><title>Node3&#45;&gt;Node6</title>
<path fill="none" stroke="midnightblue" d="M131.25,-102.101C130.42,-93.1357 129.468,-82.8579 128.81,-75.7511"/>
<polygon fill="midnightblue" stroke="midnightblue" points="127.767,-102.448 132.174,-112.083 134.737,-101.803 127.767,-102.448"/>
</g>
<!-- Node7 -->
<g id="node7" class="node"><title>Node7</title>
<g id="a_node7"><a xlink:href="a00094.html" target="_top" xlink:title="tracer&#45;real&#45;time.h">
<polygon fill="white" stroke="black" points="83,-0.5 83,-19.5 173,-19.5 173,-0.5 83,-0.5"/>
<text text-anchor="middle" x="128" y="-7.5" font-family="Helvetica,sans-Serif" font-size="10.00">tracer&#45;real&#45;time.h</text>
</a>
</g>
</g>
<!-- Node6&#45;&gt;Node7 -->
<g id="edge6" class="edge"><title>Node6&#45;&gt;Node7</title>
<path fill="none" stroke="midnightblue" d="M128,-45.8045C128,-36.9102 128,-26.7798 128,-19.7511"/>
<polygon fill="midnightblue" stroke="midnightblue" points="124.5,-46.083 128,-56.083 131.5,-46.083 124.5,-46.083"/>
</g>
<!-- Node8&#45;&gt;Node2 -->
<g id="edge8" class="edge"><title>Node8&#45;&gt;Node2</title>
<path fill="none" stroke="midnightblue" d="M289.515,-137.807C275.041,-147.602 254.798,-160.107 239.932,-168.324"/>
<polygon fill="midnightblue" stroke="midnightblue" points="291.88,-140.425 298.08,-131.834 287.875,-134.683 291.88,-140.425"/>
</g>
<!-- Node9&#45;&gt;Node5 -->
<g id="edge11" class="edge"><title>Node9&#45;&gt;Node5</title>
<path fill="none" stroke="midnightblue" d="M34.1499,-102.101C35.644,-93.1357 37.357,-82.8579 38.5415,-75.7511"/>
<polygon fill="midnightblue" stroke="midnightblue" points="30.6779,-101.644 32.4862,-112.083 37.5826,-102.794 30.6779,-101.644"/>
</g>
<!-- Node9&#45;&gt;Node6 -->
<g id="edge12" class="edge"><title>Node9&#45;&gt;Node6</title>
<path fill="none" stroke="midnightblue" d="M55.3352,-107.453C73.2426,-97.4835 97.0537,-84.2279 112.454,-75.6545"/>
<polygon fill="midnightblue" stroke="midnightblue" points="53.6196,-104.402 46.5847,-112.324 57.0245,-110.518 53.6196,-104.402"/>
</g>
</g>
</svg>
