<?xml version="1.0" encoding="UTF-8" standalone="no"?>
<!DOCTYPE svg PUBLIC "-//W3C//DTD SVG 1.1//EN"
 "http://www.w3.org/Graphics/SVG/1.1/DTD/svg11.dtd">
<!-- Generated by graphviz version 2.38.0 (20140413.2041)
 -->
<!-- Title: debug.h Pages: 1 -->
<svg width="371pt" height="308pt"
 viewBox="0.00 0.00 371.00 308.00" xmlns="http://www.w3.org/2000/svg" xmlns:xlink="http://www.w3.org/1999/xlink">
<g id="graph0" class="graph" transform="scale(1 1) rotate(0) translate(4 304)">
<title>debug.h</title>
<polygon fill="white" stroke="none" points="-4,4 -4,-304 367,-304 367,4 -4,4"/>
<!-- Node1 -->
<g id="node1" class="node"><title>Node1</title>
<polygon fill="#bfbfbf" stroke="black" points="121.5,-280.5 121.5,-299.5 172.5,-299.5 172.5,-280.5 121.5,-280.5"/>
<text text-anchor="middle" x="147" y="-287.5" font-family="Helvetica,sans-Serif" font-size="10.00">debug.h</text>
</g>
<!-- Node2 -->
<g id="node2" class="node"><title>Node2</title>
<g id="a_node2"><a xlink:href="a00092.html" target="_top" xlink:title="signal.t.cpp">
<polygon fill="white" stroke="black" points="51.5,-224.5 51.5,-243.5 118.5,-243.5 118.5,-224.5 51.5,-224.5"/>
<text text-anchor="middle" x="85" y="-231.5" font-family="Helvetica,sans-Serif" font-size="10.00">signal.t.cpp</text>
</a>
</g>
</g>
<!-- Node1&#45;&gt;Node2 -->
<g id="edge1" class="edge"><title>Node1&#45;&gt;Node2</title>
<path fill="none" stroke="midnightblue" d="M129.246,-273.537C118.192,-263.909 104.369,-251.869 95.1426,-243.834"/>
<polygon fill="midnightblue" stroke="midnightblue" points="127.199,-276.395 137.039,-280.324 131.797,-271.117 127.199,-276.395"/>
</g>
<!-- Node6 -->
<g id="node6" class="node"><title>Node6</title>
<g id="a_node6"><a xlink:href="a00089.html" target="_top" xlink:title="signal&#45;ptr.t.cpp">
<polygon fill="white" stroke="black" points="86.5,-56.5 86.5,-75.5 167.5,-75.5 167.5,-56.5 86.5,-56.5"/>
<text text-anchor="middle" x="127" y="-63.5" font-family="Helvetica,sans-Serif" font-size="10.00">signal&#45;ptr.t.cpp</text>
</a>
</g>
</g>
<!-- Node1&#45;&gt;Node6 -->
<g id="edge15" class="edge"><title>Node1&#45;&gt;Node6</title>
<path fill="none" stroke="midnightblue" d="M145.315,-270.295C141.202,-224.644 130.771,-108.854 127.8,-75.8837"/>
<polygon fill="midnightblue" stroke="midnightblue" points="141.833,-270.652 146.216,-280.297 148.805,-270.024 141.833,-270.652"/>
</g>
<!-- Node11 -->
<g id="node11" class="node"><title>Node11</title>
<g id="a_node11"><a xlink:href="a00094.html" target="_top" xlink:title="time&#45;dependency.t.cpp">
<polygon fill="white" stroke="black" points="177,-224.5 177,-243.5 293,-243.5 293,-224.5 177,-224.5"/>
<text text-anchor="middle" x="235" y="-231.5" font-family="Helvetica,sans-Serif" font-size="10.00">time&#45;dependency.t.cpp</text>
</a>
</g>
</g>
<!-- Node1&#45;&gt;Node11 -->
<g id="edge16" class="edge"><title>Node1&#45;&gt;Node11</title>
<path fill="none" stroke="midnightblue" d="M169.977,-274.901C186.113,-264.999 207.181,-252.071 220.896,-243.655"/>
<polygon fill="midnightblue" stroke="midnightblue" points="167.831,-272.111 161.139,-280.324 171.493,-278.077 167.831,-272.111"/>
</g>
<!-- Node3 -->
<g id="node3" class="node"><title>Node3</title>
<g id="a_node3"><a xlink:href="a00091.html" target="_top" xlink:title="signal.h">
<polygon fill="white" stroke="black" points="60,-168.5 60,-187.5 110,-187.5 110,-168.5 60,-168.5"/>
<text text-anchor="middle" x="85" y="-175.5" font-family="Helvetica,sans-Serif" font-size="10.00">signal.h</text>
</a>
</g>
</g>
<!-- Node2&#45;&gt;Node3 -->
<g id="edge2" class="edge"><title>Node2&#45;&gt;Node3</title>
<path fill="none" stroke="midnightblue" d="M78.5276,-214.101C77.8956,-205.136 78.3427,-194.858 79.869,-187.751"/>
<polygon fill="midnightblue" stroke="midnightblue" points="75.0658,-214.622 79.8337,-224.083 82.0067,-213.713 75.0658,-214.622"/>
</g>
<!-- Node3&#45;&gt;Node2 -->
<g id="edge4" class="edge"><title>Node3&#45;&gt;Node2</title>
<path fill="none" stroke="midnightblue" d="M91.4575,-197.691C92.1062,-206.635 91.6758,-216.927 90.1663,-224.083"/>
<polygon fill="midnightblue" stroke="midnightblue" points="94.9231,-197.2 90.131,-187.751 87.9846,-198.126 94.9231,-197.2"/>
</g>
<!-- Node4 -->
<g id="node4" class="node"><title>Node4</title>
<g id="a_node4"><a xlink:href="a00056.html" target="_top" xlink:title="all&#45;signals.h">
<polygon fill="white" stroke="black" points="0,-56.5 0,-75.5 68,-75.5 68,-56.5 0,-56.5"/>
<text text-anchor="middle" x="34" y="-63.5" font-family="Helvetica,sans-Serif" font-size="10.00">all&#45;signals.h</text>
</a>
</g>
</g>
<!-- Node3&#45;&gt;Node4 -->
<g id="edge3" class="edge"><title>Node3&#45;&gt;Node4</title>
<path fill="none" stroke="midnightblue" d="M66.5168,-161.414C58.308,-153.463 49.3181,-143.129 44,-132 35.1389,-113.457 33.7949,-88.8551 33.7778,-75.882"/>
<polygon fill="midnightblue" stroke="midnightblue" points="64.2596,-164.093 74.0024,-168.255 68.982,-158.925 64.2596,-164.093"/>
</g>
<!-- Node5 -->
<g id="node5" class="node"><title>Node5</title>
<g id="a_node5"><a xlink:href="a00088.html" target="_top" xlink:title="signal&#45;ptr.h">
<polygon fill="white" stroke="black" points="53.5,-112.5 53.5,-131.5 118.5,-131.5 118.5,-112.5 53.5,-112.5"/>
<text text-anchor="middle" x="86" y="-119.5" font-family="Helvetica,sans-Serif" font-size="10.00">signal&#45;ptr.h</text>
</a>
</g>
</g>
<!-- Node3&#45;&gt;Node5 -->
<g id="edge5" class="edge"><title>Node3&#45;&gt;Node5</title>
<path fill="none" stroke="midnightblue" d="M85.3555,-157.805C85.5202,-148.91 85.7078,-138.78 85.8379,-131.751"/>
<polygon fill="midnightblue" stroke="midnightblue" points="81.851,-158.02 85.1651,-168.083 88.8498,-158.15 81.851,-158.02"/>
</g>
<!-- Node8 -->
<g id="node8" class="node"><title>Node8</title>
<g id="a_node8"><a xlink:href="a00090.html" target="_top" xlink:title="signal&#45;time&#45;dependent.h">
<polygon fill="white" stroke="black" points="175,-112.5 175,-131.5 295,-131.5 295,-112.5 175,-112.5"/>
<text text-anchor="middle" x="235" y="-119.5" font-family="Helvetica,sans-Serif" font-size="10.00">signal&#45;time&#45;dependent.h</text>
</a>
</g>
</g>
<!-- Node3&#45;&gt;Node8 -->
<g id="edge10" class="edge"><title>Node3&#45;&gt;Node8</title>
<path fill="none" stroke="midnightblue" d="M118.225,-165.039C146.448,-154.879 186.262,-140.546 211.343,-131.516"/>
<polygon fill="midnightblue" stroke="midnightblue" points="116.991,-161.763 108.768,-168.444 119.362,-168.349 116.991,-161.763"/>
</g>
<!-- Node5&#45;&gt;Node4 -->
<g id="edge6" class="edge"><title>Node5&#45;&gt;Node4</title>
<path fill="none" stroke="midnightblue" d="M70.3206,-104.718C61.1553,-95.1997 49.9474,-83.5608 42.427,-75.7511"/>
<polygon fill="midnightblue" stroke="midnightblue" points="67.9557,-107.308 77.4133,-112.083 72.9979,-102.452 67.9557,-107.308"/>
</g>
<!-- Node5&#45;&gt;Node6 -->
<g id="edge7" class="edge"><title>Node5&#45;&gt;Node6</title>
<path fill="none" stroke="midnightblue" d="M92.8788,-103.566C99.1411,-94.2747 107.922,-83.2484 115.225,-75.7511"/>
<polygon fill="midnightblue" stroke="midnightblue" points="89.8935,-101.738 87.604,-112.083 95.8447,-105.424 89.8935,-101.738"/>
</g>
<!-- Node7 -->
<g id="node7" class="node"><title>Node7</title>
<g id="a_node7"><a xlink:href="a00087.html" target="_top" xlink:title="signal&#45;helper.h">
<polygon fill="white" stroke="black" points="190,-56.5 190,-75.5 270,-75.5 270,-56.5 190,-56.5"/>
<text text-anchor="middle" x="230" y="-63.5" font-family="Helvetica,sans-Serif" font-size="10.00">signal&#45;helper.h</text>
</a>
</g>
</g>
<!-- Node5&#45;&gt;Node7 -->
<g id="edge9" class="edge"><title>Node5&#45;&gt;Node7</title>
<path fill="none" stroke="midnightblue" d="M118.251,-108.906C145.324,-98.7536 183.317,-84.5063 207.29,-75.5164"/>
<polygon fill="midnightblue" stroke="midnightblue" points="116.952,-105.655 108.817,-112.444 119.409,-112.209 116.952,-105.655"/>
</g>
<!-- Node6&#45;&gt;Node5 -->
<g id="edge8" class="edge"><title>Node6&#45;&gt;Node5</title>
<path fill="none" stroke="midnightblue" d="M120.064,-84.5199C113.851,-93.7244 105.184,-104.613 97.9366,-112.083"/>
<polygon fill="midnightblue" stroke="midnightblue" points="123.203,-86.097 125.487,-75.7511 117.25,-82.415 123.203,-86.097"/>
</g>
<!-- Node8&#45;&gt;Node4 -->
<g id="edge11" class="edge"><title>Node8&#45;&gt;Node4</title>
<path fill="none" stroke="midnightblue" d="M193.419,-109.829C155.469,-99.6333 100.19,-84.7823 65.7,-75.5164"/>
<polygon fill="midnightblue" stroke="midnightblue" points="192.585,-113.229 203.151,-112.444 194.402,-106.469 192.585,-113.229"/>
</g>
<!-- Node8&#45;&gt;Node7 -->
<g id="edge12" class="edge"><title>Node8&#45;&gt;Node7</title>
<path fill="none" stroke="midnightblue" d="M233.25,-102.101C232.42,-93.1357 231.468,-82.8579 230.81,-75.7511"/>
<polygon fill="midnightblue" stroke="midnightblue" points="229.767,-102.448 234.174,-112.083 236.737,-101.803 229.767,-102.448"/>
</g>
<!-- Node9 -->
<g id="node9" class="node"><title>Node9</title>
<g id="a_node9"><a xlink:href="a00097.html" target="_top" xlink:title="tracer.h">
<polygon fill="white" stroke="black" points="293,-56.5 293,-75.5 343,-75.5 343,-56.5 293,-56.5"/>
<text text-anchor="middle" x="318" y="-63.5" font-family="Helvetica,sans-Serif" font-size="10.00">tracer.h</text>
</a>
</g>
</g>
<!-- Node8&#45;&gt;Node9 -->
<g id="edge13" class="edge"><title>Node8&#45;&gt;Node9</title>
<path fill="none" stroke="midnightblue" d="M257.099,-106.622C272.262,-96.7574 291.883,-83.9919 304.698,-75.6545"/>
<polygon fill="midnightblue" stroke="midnightblue" points="254.809,-103.937 248.335,-112.324 258.626,-109.804 254.809,-103.937"/>
</g>
<!-- Node10 -->
<g id="node10" class="node"><title>Node10</title>
<g id="a_node10"><a xlink:href="a00095.html" target="_top" xlink:title="tracer&#45;real&#45;time.h">
<polygon fill="white" stroke="black" points="273,-0.5 273,-19.5 363,-19.5 363,-0.5 273,-0.5"/>
<text text-anchor="middle" x="318" y="-7.5" font-family="Helvetica,sans-Serif" font-size="10.00">tracer&#45;real&#45;time.h</text>
</a>
</g>
</g>
<!-- Node9&#45;&gt;Node10 -->
<g id="edge14" class="edge"><title>Node9&#45;&gt;Node10</title>
<path fill="none" stroke="midnightblue" d="M318,-45.8045C318,-36.9102 318,-26.7798 318,-19.7511"/>
<polygon fill="midnightblue" stroke="midnightblue" points="314.5,-46.083 318,-56.083 321.5,-46.083 314.5,-46.083"/>
</g>
<!-- Node12 -->
<g id="node12" class="node"><title>Node12</title>
<g id="a_node12"><a xlink:href="a00093.html" target="_top" xlink:title="time&#45;dependency.h">
<polygon fill="white" stroke="black" points="185.5,-168.5 185.5,-187.5 284.5,-187.5 284.5,-168.5 185.5,-168.5"/>
<text text-anchor="middle" x="235" y="-175.5" font-family="Helvetica,sans-Serif" font-size="10.00">time&#45;dependency.h</text>
</a>
</g>
</g>
<!-- Node11&#45;&gt;Node12 -->
<g id="edge17" class="edge"><title>Node11&#45;&gt;Node12</title>
<path fill="none" stroke="midnightblue" d="M228.528,-214.101C227.896,-205.136 228.343,-194.858 229.869,-187.751"/>
<polygon fill="midnightblue" stroke="midnightblue" points="225.066,-214.622 229.834,-224.083 232.007,-213.713 225.066,-214.622"/>
</g>
<!-- Node12&#45;&gt;Node8 -->
<g id="edge18" class="edge"><title>Node12&#45;&gt;Node8</title>
<path fill="none" stroke="midnightblue" d="M235,-157.805C235,-148.91 235,-138.78 235,-131.751"/>
<polygon fill="midnightblue" stroke="midnightblue" points="231.5,-158.083 235,-168.083 238.5,-158.083 231.5,-158.083"/>
</g>
<!-- Node12&#45;&gt;Node9 -->
<g id="edge20" class="edge"><title>Node12&#45;&gt;Node9</title>
<path fill="none" stroke="midnightblue" d="M265.549,-163.8C279.29,-156.371 294.517,-145.786 304,-132 315.906,-114.69 317.959,-89.1397 318.151,-75.8147"/>
<polygon fill="midnightblue" stroke="midnightblue" points="263.711,-160.807 256.363,-168.44 266.867,-167.056 263.711,-160.807"/>
</g>
<!-- Node12&#45;&gt;Node11 -->
<g id="edge19" class="edge"><title>Node12&#45;&gt;Node11</title>
<path fill="none" stroke="midnightblue" d="M241.458,-197.691C242.106,-206.635 241.676,-216.927 240.166,-224.083"/>
<polygon fill="midnightblue" stroke="midnightblue" points="244.923,-197.2 240.131,-187.751 237.985,-198.126 244.923,-197.2"/>
</g>
</g>
</svg>
