<?xml version="1.0" encoding="UTF-8" standalone="no"?>
<!DOCTYPE svg PUBLIC "-//W3C//DTD SVG 1.1//EN"
 "http://www.w3.org/Graphics/SVG/1.1/DTD/svg11.dtd">
<!-- Generated by graphviz version 2.38.0 (20140413.2041)
 -->
<!-- Title: exception&#45;factory.h Pages: 1 -->
<svg width="392pt" height="218pt"
 viewBox="0.00 0.00 392.00 218.00" xmlns="http://www.w3.org/2000/svg" xmlns:xlink="http://www.w3.org/1999/xlink">
<g id="graph0" class="graph" transform="scale(1 1) rotate(0) translate(4 214)">
<title>exception&#45;factory.h</title>
<polygon fill="white" stroke="none" points="-4,4 -4,-214 388,-214 388,4 -4,4"/>
<!-- Node1 -->
<g id="node1" class="node"><title>Node1</title>
<polygon fill="#bfbfbf" stroke="black" points="110.5,-190.5 110.5,-209.5 210.5,-209.5 210.5,-190.5 110.5,-190.5"/>
<text text-anchor="middle" x="160.5" y="-197.5" font-family="Helvetica,sans-Serif" font-size="10.00">exception&#45;factory.h</text>
</g>
<!-- Node2 -->
<g id="node2" class="node"><title>Node2</title>
<polygon fill="white" stroke="#bfbfbf" points="0,-62 0,-81 41,-81 41,-62 0,-62"/>
<text text-anchor="middle" x="20.5" y="-69" font-family="Helvetica,sans-Serif" font-size="10.00">string</text>
</g>
<!-- Node1&#45;&gt;Node2 -->
<g id="edge1" class="edge"><title>Node1&#45;&gt;Node2</title>
<path fill="none" stroke="midnightblue" d="M150.877,-190.305C127.499,-169.182 67.4569,-114.929 37.7186,-88.0582"/>
<polygon fill="midnightblue" stroke="midnightblue" points="39.9564,-85.3631 30.1901,-81.2557 35.2634,-90.5569 39.9564,-85.3631"/>
</g>
<!-- Node3 -->
<g id="node3" class="node"><title>Node3</title>
<g id="a_node3"><a xlink:href="a00076.html" target="_top" xlink:title="dynamic&#45;graph/fwd.hh">
<polygon fill="white" stroke="black" points="59,-62 59,-81 172,-81 172,-62 59,-62"/>
<text text-anchor="middle" x="115.5" y="-69" font-family="Helvetica,sans-Serif" font-size="10.00">dynamic&#45;graph/fwd.hh</text>
</a>
</g>
</g>
<!-- Node1&#45;&gt;Node3 -->
<g id="edge2" class="edge"><title>Node1&#45;&gt;Node3</title>
<path fill="none" stroke="midnightblue" d="M154.513,-190.426C148.637,-181.647 139.808,-167.425 134.5,-154 126.341,-133.362 121.154,-108.336 118.297,-91.5066"/>
<polygon fill="midnightblue" stroke="midnightblue" points="121.705,-90.649 116.684,-81.3196 114.791,-91.744 121.705,-90.649"/>
</g>
<!-- Node4 -->
<g id="node4" class="node"><title>Node4</title>
<g id="a_node4"><a xlink:href="a00067.html" target="_top" xlink:title="dynamic&#45;graph/dynamic\l&#45;graph&#45;api.h">
<polygon fill="white" stroke="black" points="262.5,-56.5 262.5,-86.5 382.5,-86.5 382.5,-56.5 262.5,-56.5"/>
<text text-anchor="start" x="270.5" y="-74.5" font-family="Helvetica,sans-Serif" font-size="10.00">dynamic&#45;graph/dynamic</text>
<text text-anchor="middle" x="322.5" y="-63.5" font-family="Helvetica,sans-Serif" font-size="10.00">&#45;graph&#45;api.h</text>
</a>
</g>
</g>
<!-- Node1&#45;&gt;Node4 -->
<g id="edge3" class="edge"><title>Node1&#45;&gt;Node4</title>
<path fill="none" stroke="midnightblue" d="M202.406,-190.458C226.561,-183.813 256.251,-172.514 277.5,-154 295.308,-138.484 307.448,-114.125 314.589,-96.0752"/>
<polygon fill="midnightblue" stroke="midnightblue" points="317.929,-97.1351 318.133,-86.5422 311.368,-94.6956 317.929,-97.1351"/>
</g>
<!-- Node6 -->
<g id="node6" class="node"><title>Node6</title>
<g id="a_node6"><a xlink:href="a00071.html" target="_top" xlink:title="dynamic&#45;graph/exception\l&#45;abstract.h">
<polygon fill="white" stroke="black" points="144,-123.5 144,-153.5 269,-153.5 269,-123.5 144,-123.5"/>
<text text-anchor="start" x="152" y="-141.5" font-family="Helvetica,sans-Serif" font-size="10.00">dynamic&#45;graph/exception</text>
<text text-anchor="middle" x="206.5" y="-130.5" font-family="Helvetica,sans-Serif" font-size="10.00">&#45;abstract.h</text>
</a>
</g>
</g>
<!-- Node1&#45;&gt;Node6 -->
<g id="edge5" class="edge"><title>Node1&#45;&gt;Node6</title>
<path fill="none" stroke="midnightblue" d="M167.091,-190.475C172.913,-182.944 181.663,-171.626 189.44,-161.566"/>
<polygon fill="midnightblue" stroke="midnightblue" points="192.311,-163.575 195.659,-153.523 186.773,-159.294 192.311,-163.575"/>
</g>
<!-- Node5 -->
<g id="node5" class="node"><title>Node5</title>
<polygon fill="white" stroke="#bfbfbf" points="261,-0.5 261,-19.5 384,-19.5 384,-0.5 261,-0.5"/>
<text text-anchor="middle" x="322.5" y="-7.5" font-family="Helvetica,sans-Serif" font-size="10.00">dynamic&#45;graph/config.hh</text>
</g>
<!-- Node4&#45;&gt;Node5 -->
<g id="edge4" class="edge"><title>Node4&#45;&gt;Node5</title>
<path fill="none" stroke="midnightblue" d="M322.5,-56.3993C322.5,-48.4664 322.5,-38.458 322.5,-29.8583"/>
<polygon fill="midnightblue" stroke="midnightblue" points="326,-29.6577 322.5,-19.6578 319,-29.6578 326,-29.6577"/>
</g>
<!-- Node6&#45;&gt;Node2 -->
<g id="edge7" class="edge"><title>Node6&#45;&gt;Node2</title>
<path fill="none" stroke="midnightblue" d="M156.309,-123.484C125.141,-114.259 84.4935,-101.279 49.5,-87 48.298,-86.5095 47.0773,-85.9898 45.8509,-85.4499"/>
<polygon fill="midnightblue" stroke="midnightblue" points="47.0951,-82.1673 36.5569,-81.0731 44.1127,-88.5001 47.0951,-82.1673"/>
</g>
<!-- Node6&#45;&gt;Node3 -->
<g id="edge8" class="edge"><title>Node6&#45;&gt;Node3</title>
<path fill="none" stroke="midnightblue" d="M186.754,-123.396C171.635,-112.597 150.859,-97.7564 135.642,-86.8872"/>
<polygon fill="midnightblue" stroke="midnightblue" points="137.582,-83.9714 127.41,-81.007 133.513,-89.6675 137.582,-83.9714"/>
</g>
<!-- Node6&#45;&gt;Node4 -->
<g id="edge9" class="edge"><title>Node6&#45;&gt;Node4</title>
<path fill="none" stroke="midnightblue" d="M231.67,-123.396C248.239,-114.112 270.138,-101.841 288.281,-91.6742"/>
<polygon fill="midnightblue" stroke="midnightblue" points="290.366,-94.5182 297.379,-86.5765 286.944,-88.4116 290.366,-94.5182"/>
</g>
<!-- Node7 -->
<g id="node7" class="node"><title>Node7</title>
<polygon fill="white" stroke="#bfbfbf" points="190.5,-62 190.5,-81 244.5,-81 244.5,-62 190.5,-62"/>
<text text-anchor="middle" x="217.5" y="-69" font-family="Helvetica,sans-Serif" font-size="10.00">iostream</text>
</g>
<!-- Node6&#45;&gt;Node7 -->
<g id="edge6" class="edge"><title>Node6&#45;&gt;Node7</title>
<path fill="none" stroke="midnightblue" d="M208.887,-123.396C210.483,-113.963 212.601,-101.448 214.337,-91.1891"/>
<polygon fill="midnightblue" stroke="midnightblue" points="217.811,-91.6384 216.029,-81.1945 210.909,-90.4703 217.811,-91.6384"/>
</g>
</g>
</svg>
