<?xml version="1.0" encoding="UTF-8" standalone="no"?>
<!DOCTYPE svg PUBLIC "-//W3C//DTD SVG 1.1//EN"
 "http://www.w3.org/Graphics/SVG/1.1/DTD/svg11.dtd">
<!-- Generated by graphviz version 2.38.0 (20140413.2041)
 -->
<!-- Title: signal&#45;time&#45;dependent.h Pages: 1 -->
<svg width="1961pt" height="486pt"
 viewBox="0.00 0.00 1961.14 486.00" xmlns="http://www.w3.org/2000/svg" xmlns:xlink="http://www.w3.org/1999/xlink">
<g id="graph0" class="graph" transform="scale(1 1) rotate(0) translate(4 482)">
<title>signal&#45;time&#45;dependent.h</title>
<polygon fill="white" stroke="none" points="-4,4 -4,-482 1957.14,-482 1957.14,4 -4,4"/>
<!-- Node1 -->
<g id="node1" class="node"><title>Node1</title>
<polygon fill="#bfbfbf" stroke="black" points="1363.95,-458.5 1363.95,-477.5 1483.95,-477.5 1483.95,-458.5 1363.95,-458.5"/>
<text text-anchor="middle" x="1423.95" y="-465.5" font-family="Helvetica,sans-Serif" font-size="10.00">signal&#45;time&#45;dependent.h</text>
</g>
<!-- Node2 -->
<g id="node2" class="node"><title>Node2</title>
<g id="a_node2"><a xlink:href="a00091.html" target="_top" xlink:title="dynamic&#45;graph/signal.h">
<polygon fill="white" stroke="black" points="1050.45,-397 1050.45,-416 1167.45,-416 1167.45,-397 1050.45,-397"/>
<text text-anchor="middle" x="1108.95" y="-404" font-family="Helvetica,sans-Serif" font-size="10.00">dynamic&#45;graph/signal.h</text>
</a>
</g>
</g>
<!-- Node1&#45;&gt;Node2 -->
<g id="edge1" class="edge"><title>Node1&#45;&gt;Node2</title>
<path fill="none" stroke="midnightblue" d="M1378.82,-458.475C1322.1,-447.761 1224.8,-429.382 1163.83,-417.866"/>
<polygon fill="midnightblue" stroke="midnightblue" points="1164.48,-414.426 1154,-416.009 1163.18,-421.304 1164.48,-414.426"/>
</g>
<!-- Node30 -->
<g id="node30" class="node"><title>Node30</title>
<g id="a_node30"><a xlink:href="a00093.html" target="_top" xlink:title="dynamic&#45;graph/time\l&#45;dependency.h">
<polygon fill="white" stroke="black" points="1687.95,-391.5 1687.95,-421.5 1789.95,-421.5 1789.95,-391.5 1687.95,-391.5"/>
<text text-anchor="start" x="1695.95" y="-409.5" font-family="Helvetica,sans-Serif" font-size="10.00">dynamic&#45;graph/time</text>
<text text-anchor="middle" x="1738.95" y="-398.5" font-family="Helvetica,sans-Serif" font-size="10.00">&#45;dependency.h</text>
</a>
</g>
</g>
<!-- Node1&#45;&gt;Node30 -->
<g id="edge46" class="edge"><title>Node1&#45;&gt;Node30</title>
<path fill="none" stroke="midnightblue" d="M1469.08,-458.475C1523.95,-448.111 1616.79,-430.575 1677.98,-419.016"/>
<polygon fill="midnightblue" stroke="midnightblue" points="1678.72,-422.439 1687.9,-417.144 1677.42,-415.561 1678.72,-422.439"/>
</g>
<!-- Node3 -->
<g id="node3" class="node"><title>Node3</title>
<polygon fill="white" stroke="#bfbfbf" points="810.952,-330 810.952,-349 890.952,-349 890.952,-330 810.952,-330"/>
<text text-anchor="middle" x="850.952" y="-337" font-family="Helvetica,sans-Serif" font-size="10.00">boost/bind.hpp</text>
</g>
<!-- Node2&#45;&gt;Node3 -->
<g id="edge2" class="edge"><title>Node2&#45;&gt;Node3</title>
<path fill="none" stroke="midnightblue" d="M1073.52,-396.952C1032.79,-387.075 963.951,-370.222 904.952,-355 900.828,-353.936 896.531,-352.811 892.242,-351.677"/>
<polygon fill="midnightblue" stroke="midnightblue" points="892.898,-348.229 882.334,-349.038 891.097,-354.994 892.898,-348.229"/>
</g>
<!-- Node4 -->
<g id="node4" class="node"><title>Node4</title>
<polygon fill="white" stroke="#bfbfbf" points="1137.45,-330 1137.45,-349 1234.45,-349 1234.45,-330 1137.45,-330"/>
<text text-anchor="middle" x="1185.95" y="-337" font-family="Helvetica,sans-Serif" font-size="10.00">boost/function.hpp</text>
</g>
<!-- Node2&#45;&gt;Node4 -->
<g id="edge3" class="edge"><title>Node2&#45;&gt;Node4</title>
<path fill="none" stroke="midnightblue" d="M1119.34,-396.734C1131.81,-386.208 1152.93,-368.379 1168.04,-355.617"/>
<polygon fill="midnightblue" stroke="midnightblue" points="1170.35,-358.252 1175.73,-349.127 1165.83,-352.903 1170.35,-358.252"/>
</g>
<!-- Node5 -->
<g id="node5" class="node"><title>Node5</title>
<polygon fill="white" stroke="#bfbfbf" points="1258.45,-62 1258.45,-81 1299.45,-81 1299.45,-62 1258.45,-62"/>
<text text-anchor="middle" x="1278.95" y="-69" font-family="Helvetica,sans-Serif" font-size="10.00">string</text>
</g>
<!-- Node2&#45;&gt;Node5 -->
<g id="edge4" class="edge"><title>Node2&#45;&gt;Node5</title>
<path fill="none" stroke="midnightblue" d="M1055.94,-396.93C1011.2,-388.489 952.221,-374.092 937.952,-355 929.704,-343.964 933.195,-336.931 937.952,-324 989.733,-183.223 1175.37,-107.147 1248.77,-82.0154"/>
<polygon fill="midnightblue" stroke="midnightblue" points="1249.99,-85.2995 1258.36,-78.8059 1247.77,-78.6616 1249.99,-85.2995"/>
</g>
<!-- Node6 -->
<g id="node6" class="node"><title>Node6</title>
<polygon fill="white" stroke="#bfbfbf" points="1497.95,-62 1497.95,-81 1551.95,-81 1551.95,-62 1497.95,-62"/>
<text text-anchor="middle" x="1524.95" y="-69" font-family="Helvetica,sans-Serif" font-size="10.00">iostream</text>
</g>
<!-- Node2&#45;&gt;Node6 -->
<g id="edge5" class="edge"><title>Node2&#45;&gt;Node6</title>
<path fill="none" stroke="midnightblue" d="M1133.36,-396.892C1186.72,-377.973 1317.68,-331.028 1425.95,-288 1458.71,-274.982 1465.97,-269.427 1498.95,-257 1546.69,-239.014 1578.06,-262.347 1607.95,-221 1640.97,-175.323 1578.64,-115.229 1544.77,-87.5916"/>
<polygon fill="midnightblue" stroke="midnightblue" points="1546.85,-84.7759 1536.85,-81.293 1542.5,-90.2556 1546.85,-84.7759"/>
</g>
<!-- Node7 -->
<g id="node7" class="node"><title>Node7</title>
<g id="a_node7"><a xlink:href="a00074.html" target="_top" xlink:title="dynamic&#45;graph/exception\l&#45;signal.h">
<polygon fill="white" stroke="black" points="1061.45,-190.5 1061.45,-220.5 1186.45,-220.5 1186.45,-190.5 1061.45,-190.5"/>
<text text-anchor="start" x="1069.45" y="-208.5" font-family="Helvetica,sans-Serif" font-size="10.00">dynamic&#45;graph/exception</text>
<text text-anchor="middle" x="1123.95" y="-197.5" font-family="Helvetica,sans-Serif" font-size="10.00">&#45;signal.h</text>
</a>
</g>
</g>
<!-- Node2&#45;&gt;Node7 -->
<g id="edge6" class="edge"><title>Node2&#45;&gt;Node7</title>
<path fill="none" stroke="midnightblue" d="M1109.6,-396.949C1111.75,-368.35 1118.76,-275.334 1122.12,-230.754"/>
<polygon fill="midnightblue" stroke="midnightblue" points="1125.63,-230.768 1122.89,-220.533 1118.65,-230.242 1125.63,-230.768"/>
</g>
<!-- Node12 -->
<g id="node12" class="node"><title>Node12</title>
<g id="a_node12"><a xlink:href="a00084.html" target="_top" xlink:title="dynamic&#45;graph/signal\l&#45;base.h">
<polygon fill="white" stroke="black" points="1572.45,-257.5 1572.45,-287.5 1681.45,-287.5 1681.45,-257.5 1572.45,-257.5"/>
<text text-anchor="start" x="1580.45" y="-275.5" font-family="Helvetica,sans-Serif" font-size="10.00">dynamic&#45;graph/signal</text>
<text text-anchor="middle" x="1626.95" y="-264.5" font-family="Helvetica,sans-Serif" font-size="10.00">&#45;base.h</text>
</a>
</g>
</g>
<!-- Node2&#45;&gt;Node12 -->
<g id="edge15" class="edge"><title>Node2&#45;&gt;Node12</title>
<path fill="none" stroke="midnightblue" d="M1167.87,-403.082C1291.42,-397.497 1569,-382.065 1601.95,-355 1618.78,-341.18 1624.52,-316.326 1626.36,-297.686"/>
<polygon fill="midnightblue" stroke="midnightblue" points="1629.86,-297.773 1627.05,-287.559 1622.88,-297.299 1629.86,-297.773"/>
</g>
<!-- Node16 -->
<g id="node16" class="node"><title>Node16</title>
<g id="a_node16"><a xlink:href="a00092.html" target="_top" xlink:title="dynamic&#45;graph/signal.t.cpp">
<polygon fill="white" stroke="black" points="946.952,-330 946.952,-349 1080.95,-349 1080.95,-330 946.952,-330"/>
<text text-anchor="middle" x="1013.95" y="-337" font-family="Helvetica,sans-Serif" font-size="10.00">dynamic&#45;graph/signal.t.cpp</text>
</a>
</g>
</g>
<!-- Node2&#45;&gt;Node16 -->
<g id="edge23" class="edge"><title>Node2&#45;&gt;Node16</title>
<path fill="none" stroke="midnightblue" d="M1091.35,-396.734C1073.59,-386.111 1046.87,-368.049 1029.77,-355.264"/>
<polygon fill="midnightblue" stroke="midnightblue" points="1031.86,-352.458 1021.8,-349.127 1027.59,-358.003 1031.86,-352.458"/>
</g>
<!-- Node8 -->
<g id="node8" class="node"><title>Node8</title>
<g id="a_node8"><a xlink:href="a00077.html" target="_top" xlink:title="dynamic&#45;graph/fwd.hh">
<polygon fill="white" stroke="black" points="1684.45,-62 1684.45,-81 1797.45,-81 1797.45,-62 1684.45,-62"/>
<text text-anchor="middle" x="1740.95" y="-69" font-family="Helvetica,sans-Serif" font-size="10.00">dynamic&#45;graph/fwd.hh</text>
</a>
</g>
</g>
<!-- Node7&#45;&gt;Node8 -->
<g id="edge7" class="edge"><title>Node7&#45;&gt;Node8</title>
<path fill="none" stroke="midnightblue" d="M1186.51,-191.117C1309.21,-164.867 1579.2,-107.105 1690.98,-83.1919"/>
<polygon fill="midnightblue" stroke="midnightblue" points="1691.93,-86.5679 1700.97,-81.0532 1690.46,-79.7228 1691.93,-86.5679"/>
</g>
<!-- Node9 -->
<g id="node9" class="node"><title>Node9</title>
<g id="a_node9"><a xlink:href="a00068.html" target="_top" xlink:title="dynamic&#45;graph/dynamic\l&#45;graph&#45;api.h">
<polygon fill="white" stroke="black" points="972.952,-56.5 972.952,-86.5 1092.95,-86.5 1092.95,-56.5 972.952,-56.5"/>
<text text-anchor="start" x="980.952" y="-74.5" font-family="Helvetica,sans-Serif" font-size="10.00">dynamic&#45;graph/dynamic</text>
<text text-anchor="middle" x="1032.95" y="-63.5" font-family="Helvetica,sans-Serif" font-size="10.00">&#45;graph&#45;api.h</text>
</a>
</g>
</g>
<!-- Node7&#45;&gt;Node9 -->
<g id="edge8" class="edge"><title>Node7&#45;&gt;Node9</title>
<path fill="none" stroke="midnightblue" d="M1114.21,-190.374C1098.48,-167.548 1067.32,-122.359 1048.49,-95.0446"/>
<polygon fill="midnightblue" stroke="midnightblue" points="1051.18,-92.7713 1042.62,-86.5247 1045.41,-96.7445 1051.18,-92.7713"/>
</g>
<!-- Node11 -->
<g id="node11" class="node"><title>Node11</title>
<g id="a_node11"><a xlink:href="a00072.html" target="_top" xlink:title="dynamic&#45;graph/exception\l&#45;abstract.h">
<polygon fill="white" stroke="black" points="1216.45,-123.5 1216.45,-153.5 1341.45,-153.5 1341.45,-123.5 1216.45,-123.5"/>
<text text-anchor="start" x="1224.45" y="-141.5" font-family="Helvetica,sans-Serif" font-size="10.00">dynamic&#45;graph/exception</text>
<text text-anchor="middle" x="1278.95" y="-130.5" font-family="Helvetica,sans-Serif" font-size="10.00">&#45;abstract.h</text>
</a>
</g>
</g>
<!-- Node7&#45;&gt;Node11 -->
<g id="edge10" class="edge"><title>Node7&#45;&gt;Node11</title>
<path fill="none" stroke="midnightblue" d="M1157.58,-190.396C1180.54,-180.771 1211.14,-167.936 1235.88,-157.564"/>
<polygon fill="midnightblue" stroke="midnightblue" points="1237.52,-160.672 1245.38,-153.577 1234.81,-154.216 1237.52,-160.672"/>
</g>
<!-- Node10 -->
<g id="node10" class="node"><title>Node10</title>
<polygon fill="white" stroke="#bfbfbf" points="971.452,-0.5 971.452,-19.5 1094.45,-19.5 1094.45,-0.5 971.452,-0.5"/>
<text text-anchor="middle" x="1032.95" y="-7.5" font-family="Helvetica,sans-Serif" font-size="10.00">dynamic&#45;graph/config.hh</text>
</g>
<!-- Node9&#45;&gt;Node10 -->
<g id="edge9" class="edge"><title>Node9&#45;&gt;Node10</title>
<path fill="none" stroke="midnightblue" d="M1032.95,-56.3993C1032.95,-48.4664 1032.95,-38.458 1032.95,-29.8583"/>
<polygon fill="midnightblue" stroke="midnightblue" points="1036.45,-29.6577 1032.95,-19.6578 1029.45,-29.6578 1036.45,-29.6577"/>
</g>
<!-- Node11&#45;&gt;Node5 -->
<g id="edge12" class="edge"><title>Node11&#45;&gt;Node5</title>
<path fill="none" stroke="midnightblue" d="M1278.95,-123.396C1278.95,-114.064 1278.95,-101.714 1278.95,-91.5173"/>
<polygon fill="midnightblue" stroke="midnightblue" points="1282.45,-91.1945 1278.95,-81.1945 1275.45,-91.1946 1282.45,-91.1945"/>
</g>
<!-- Node11&#45;&gt;Node6 -->
<g id="edge11" class="edge"><title>Node11&#45;&gt;Node6</title>
<path fill="none" stroke="midnightblue" d="M1332.03,-123.476C1379.13,-111.029 1446.73,-93.1692 1488.13,-82.2288"/>
<polygon fill="midnightblue" stroke="midnightblue" points="1489.04,-85.6092 1497.81,-79.6707 1487.25,-78.8415 1489.04,-85.6092"/>
</g>
<!-- Node11&#45;&gt;Node8 -->
<g id="edge13" class="edge"><title>Node11&#45;&gt;Node8</title>
<path fill="none" stroke="midnightblue" d="M1341.74,-128.666C1428.69,-116.433 1585.08,-94.4302 1674.12,-81.9026"/>
<polygon fill="midnightblue" stroke="midnightblue" points="1674.69,-85.3567 1684.11,-80.4975 1673.72,-78.4249 1674.69,-85.3567"/>
</g>
<!-- Node11&#45;&gt;Node9 -->
<g id="edge14" class="edge"><title>Node11&#45;&gt;Node9</title>
<path fill="none" stroke="midnightblue" d="M1225.88,-123.476C1187.77,-113.408 1136.27,-99.7989 1096.06,-89.1744"/>
<polygon fill="midnightblue" stroke="midnightblue" points="1096.92,-85.7817 1086.36,-86.6109 1095.13,-92.5495 1096.92,-85.7817"/>
</g>
<!-- Node12&#45;&gt;Node5 -->
<g id="edge16" class="edge"><title>Node12&#45;&gt;Node5</title>
<path fill="none" stroke="midnightblue" d="M1627.53,-257.269C1627.48,-239.382 1624.68,-208.756 1607.95,-190 1528.02,-100.394 1374.95,-79.1084 1309.67,-74.0627"/>
<polygon fill="midnightblue" stroke="midnightblue" points="1309.83,-70.5655 1299.62,-73.362 1309.35,-77.5486 1309.83,-70.5655"/>
</g>
<!-- Node12&#45;&gt;Node6 -->
<g id="edge18" class="edge"><title>Node12&#45;&gt;Node6</title>
<path fill="none" stroke="midnightblue" d="M1648.25,-257.377C1659.68,-248.461 1672.68,-235.836 1678.95,-221 1695.91,-180.883 1704.51,-158.272 1678.95,-123 1652.51,-86.5002 1598.86,-75.9058 1562.41,-73.0883"/>
<polygon fill="midnightblue" stroke="midnightblue" points="1562.35,-69.5785 1552.16,-72.4638 1561.93,-76.5655 1562.35,-69.5785"/>
</g>
<!-- Node12&#45;&gt;Node7 -->
<g id="edge22" class="edge"><title>Node12&#45;&gt;Node7</title>
<path fill="none" stroke="midnightblue" d="M1572.23,-258.627C1569.1,-258.039 1565.99,-257.491 1562.95,-257 1404.05,-231.33 1359.28,-244.89 1196.96,-221.202"/>
<polygon fill="midnightblue" stroke="midnightblue" points="1197.01,-217.671 1186.61,-219.664 1195.99,-224.595 1197.01,-217.671"/>
</g>
<!-- Node12&#45;&gt;Node8 -->
<g id="edge21" class="edge"><title>Node12&#45;&gt;Node8</title>
<path fill="none" stroke="midnightblue" d="M1681.59,-267.303C1742.77,-261.335 1836.23,-247.981 1857.95,-221 1897.63,-171.71 1811.19,-112.441 1766.09,-86.1757"/>
<polygon fill="midnightblue" stroke="midnightblue" points="1767.57,-82.9933 1757.15,-81.0874 1764.11,-89.0766 1767.57,-82.9933"/>
</g>
<!-- Node13 -->
<g id="node13" class="node"><title>Node13</title>
<polygon fill="white" stroke="#bfbfbf" points="1546.95,-196 1546.95,-215 1598.95,-215 1598.95,-196 1546.95,-196"/>
<text text-anchor="middle" x="1572.95" y="-203" font-family="Helvetica,sans-Serif" font-size="10.00">sstream</text>
</g>
<!-- Node12&#45;&gt;Node13 -->
<g id="edge17" class="edge"><title>Node12&#45;&gt;Node13</title>
<path fill="none" stroke="midnightblue" d="M1615.23,-257.396C1606.81,-247.261 1595.44,-233.567 1586.61,-222.937"/>
<polygon fill="midnightblue" stroke="midnightblue" points="1589.26,-220.65 1580.17,-215.195 1583.87,-225.123 1589.26,-220.65"/>
</g>
<!-- Node14 -->
<g id="node14" class="node"><title>Node14</title>
<polygon fill="white" stroke="#bfbfbf" points="1477.45,-196 1477.45,-215 1528.45,-215 1528.45,-196 1477.45,-196"/>
<text text-anchor="middle" x="1502.95" y="-203" font-family="Helvetica,sans-Serif" font-size="10.00">typeinfo</text>
</g>
<!-- Node12&#45;&gt;Node14 -->
<g id="edge19" class="edge"><title>Node12&#45;&gt;Node14</title>
<path fill="none" stroke="midnightblue" d="M1600.05,-257.396C1578.67,-246.193 1549.01,-230.641 1528.11,-219.685"/>
<polygon fill="midnightblue" stroke="midnightblue" points="1529.66,-216.55 1519.18,-215.007 1526.41,-222.75 1529.66,-216.55"/>
</g>
<!-- Node15 -->
<g id="node15" class="node"><title>Node15</title>
<polygon fill="white" stroke="#bfbfbf" points="1731.45,-196 1731.45,-215 1848.45,-215 1848.45,-196 1731.45,-196"/>
<text text-anchor="middle" x="1789.95" y="-203" font-family="Helvetica,sans-Serif" font-size="10.00">boost/noncopyable.hpp</text>
</g>
<!-- Node12&#45;&gt;Node15 -->
<g id="edge20" class="edge"><title>Node12&#45;&gt;Node15</title>
<path fill="none" stroke="midnightblue" d="M1662.32,-257.396C1691.17,-245.89 1731.53,-229.797 1759.09,-218.807"/>
<polygon fill="midnightblue" stroke="midnightblue" points="1760.63,-221.962 1768.62,-215.007 1758.03,-215.46 1760.63,-221.962"/>
</g>
<!-- Node16&#45;&gt;Node2 -->
<g id="edge24" class="edge"><title>Node16&#45;&gt;Node2</title>
<path fill="none" stroke="midnightblue" d="M1031.32,-349.127C1049,-359.685 1075.73,-377.738 1092.91,-390.568"/>
<polygon fill="midnightblue" stroke="midnightblue" points="1090.87,-393.412 1100.93,-396.734 1095.14,-387.863 1090.87,-393.412"/>
</g>
<!-- Node17 -->
<g id="node17" class="node"><title>Node17</title>
<g id="a_node17"><a xlink:href="a00086.html" target="_top" xlink:title="dynamic&#45;graph/signal\l&#45;caster.h">
<polygon fill="white" stroke="black" points="572.452,-257.5 572.452,-287.5 681.452,-287.5 681.452,-257.5 572.452,-257.5"/>
<text text-anchor="start" x="580.452" y="-275.5" font-family="Helvetica,sans-Serif" font-size="10.00">dynamic&#45;graph/signal</text>
<text text-anchor="middle" x="626.952" y="-264.5" font-family="Helvetica,sans-Serif" font-size="10.00">&#45;caster.h</text>
</a>
</g>
</g>
<!-- Node16&#45;&gt;Node17 -->
<g id="edge25" class="edge"><title>Node16&#45;&gt;Node17</title>
<path fill="none" stroke="midnightblue" d="M962.96,-329.936C893.13,-318.207 767.736,-297.146 691.456,-284.334"/>
<polygon fill="midnightblue" stroke="midnightblue" points="691.93,-280.865 681.489,-282.66 690.771,-287.768 691.93,-280.865"/>
</g>
<!-- Node26 -->
<g id="node26" class="node"><title>Node26</title>
<g id="a_node26"><a xlink:href="a00066.html" target="_top" xlink:title="dynamic&#45;graph/debug.h">
<polygon fill="white" stroke="black" points="1298.95,-263 1298.95,-282 1416.95,-282 1416.95,-263 1298.95,-263"/>
<text text-anchor="middle" x="1357.95" y="-270" font-family="Helvetica,sans-Serif" font-size="10.00">dynamic&#45;graph/debug.h</text>
</a>
</g>
</g>
<!-- Node16&#45;&gt;Node26 -->
<g id="edge38" class="edge"><title>Node16&#45;&gt;Node26</title>
<path fill="none" stroke="midnightblue" d="M1059.28,-329.936C1122.01,-318.082 1235.19,-296.696 1302.77,-283.928"/>
<polygon fill="midnightblue" stroke="midnightblue" points="1303.62,-287.328 1312.8,-282.032 1302.32,-280.449 1303.62,-287.328"/>
</g>
<!-- Node17&#45;&gt;Node6 -->
<g id="edge28" class="edge"><title>Node17&#45;&gt;Node6</title>
<path fill="none" stroke="midnightblue" d="M681.515,-263.484C736.937,-254.856 825.036,-239.807 899.952,-221 1038.87,-186.127 1067.6,-156.105 1206.95,-123 1307.25,-99.1714 1428.08,-83.4663 1487.8,-76.5472"/>
<polygon fill="midnightblue" stroke="midnightblue" points="1488.34,-80.0083 1497.88,-75.396 1487.55,-73.0535 1488.34,-80.0083"/>
</g>
<!-- Node17&#45;&gt;Node7 -->
<g id="edge37" class="edge"><title>Node17&#45;&gt;Node7</title>
<path fill="none" stroke="midnightblue" d="M681.561,-264.358C771.398,-252.609 950.408,-229.197 1051,-216.041"/>
<polygon fill="midnightblue" stroke="midnightblue" points="1051.61,-219.491 1061.08,-214.723 1050.71,-212.55 1051.61,-219.491"/>
</g>
<!-- Node17&#45;&gt;Node9 -->
<g id="edge36" class="edge"><title>Node17&#45;&gt;Node9</title>
<path fill="none" stroke="midnightblue" d="M572.191,-271.179C427.747,-269.767 44.8779,-262.141 6.95167,-221 -2.38687,-210.87 -2.21972,-200.282 6.95167,-190 70.6489,-118.592 741.63,-84.5683 962.732,-75.2372"/>
<polygon fill="midnightblue" stroke="midnightblue" points="963.071,-78.7261 972.916,-74.8114 962.779,-71.7323 963.071,-78.7261"/>
</g>
<!-- Node17&#45;&gt;Node14 -->
<g id="edge27" class="edge"><title>Node17&#45;&gt;Node14</title>
<path fill="none" stroke="midnightblue" d="M681.78,-269.087C807.537,-263.288 1126.36,-247.086 1391.95,-221 1417.22,-218.518 1445.6,-214.794 1467.34,-211.741"/>
<polygon fill="midnightblue" stroke="midnightblue" points="1468.03,-215.179 1477.43,-210.305 1467.04,-208.249 1468.03,-215.179"/>
</g>
<!-- Node18 -->
<g id="node18" class="node"><title>Node18</title>
<polygon fill="white" stroke="#bfbfbf" points="141.452,-196 141.452,-215 176.452,-215 176.452,-196 141.452,-196"/>
<text text-anchor="middle" x="158.952" y="-203" font-family="Helvetica,sans-Serif" font-size="10.00">map</text>
</g>
<!-- Node17&#45;&gt;Node18 -->
<g id="edge26" class="edge"><title>Node17&#45;&gt;Node18</title>
<path fill="none" stroke="midnightblue" d="M572.308,-271.798C487.6,-270.816 320.351,-263.08 185.952,-221 184.524,-220.553 183.083,-220.029 181.651,-219.451"/>
<polygon fill="midnightblue" stroke="midnightblue" points="183.053,-216.241 172.522,-215.079 180.03,-222.555 183.053,-216.241"/>
</g>
<!-- Node19 -->
<g id="node19" class="node"><title>Node19</title>
<polygon fill="white" stroke="#bfbfbf" points="846.952,-196 846.952,-215 890.952,-215 890.952,-196 846.952,-196"/>
<text text-anchor="middle" x="868.952" y="-203" font-family="Helvetica,sans-Serif" font-size="10.00">vector</text>
</g>
<!-- Node17&#45;&gt;Node19 -->
<g id="edge29" class="edge"><title>Node17&#45;&gt;Node19</title>
<path fill="none" stroke="midnightblue" d="M681.59,-261.59C724.709,-253.017 786.038,-239.143 837.952,-221 839.571,-220.434 841.22,-219.811 842.87,-219.152"/>
<polygon fill="midnightblue" stroke="midnightblue" points="844.382,-222.311 852.155,-215.111 841.589,-215.892 844.382,-222.311"/>
</g>
<!-- Node20 -->
<g id="node20" class="node"><title>Node20</title>
<polygon fill="white" stroke="#bfbfbf" points="194.952,-196 194.952,-215 272.952,-215 272.952,-196 194.952,-196"/>
<text text-anchor="middle" x="233.952" y="-203" font-family="Helvetica,sans-Serif" font-size="10.00">boost/any.hpp</text>
</g>
<!-- Node17&#45;&gt;Node20 -->
<g id="edge30" class="edge"><title>Node17&#45;&gt;Node20</title>
<path fill="none" stroke="midnightblue" d="M572.42,-266.042C504.03,-258.621 383.428,-243.623 281.952,-221 277.841,-220.084 273.571,-218.996 269.347,-217.834"/>
<polygon fill="midnightblue" stroke="midnightblue" points="270.252,-214.453 259.673,-215.035 268.306,-221.177 270.252,-214.453"/>
</g>
<!-- Node21 -->
<g id="node21" class="node"><title>Node21</title>
<polygon fill="white" stroke="#bfbfbf" points="290.952,-196 290.952,-215 380.952,-215 380.952,-196 290.952,-196"/>
<text text-anchor="middle" x="335.952" y="-203" font-family="Helvetica,sans-Serif" font-size="10.00">boost/format.hpp</text>
</g>
<!-- Node17&#45;&gt;Node21 -->
<g id="edge31" class="edge"><title>Node17&#45;&gt;Node21</title>
<path fill="none" stroke="midnightblue" d="M572.171,-260.675C524.017,-250.958 452.123,-235.96 389.952,-221 385.587,-219.95 381.036,-218.806 376.51,-217.636"/>
<polygon fill="midnightblue" stroke="midnightblue" points="377.283,-214.22 366.721,-215.061 375.502,-220.99 377.283,-214.22"/>
</g>
<!-- Node22 -->
<g id="node22" class="node"><title>Node22</title>
<polygon fill="white" stroke="#bfbfbf" points="398.952,-196 398.952,-215 538.952,-215 538.952,-196 398.952,-196"/>
<text text-anchor="middle" x="468.952" y="-203" font-family="Helvetica,sans-Serif" font-size="10.00">boost/function/function1.hpp</text>
</g>
<!-- Node17&#45;&gt;Node22 -->
<g id="edge32" class="edge"><title>Node17&#45;&gt;Node22</title>
<path fill="none" stroke="midnightblue" d="M592.668,-257.396C564.822,-245.941 525.925,-229.938 499.22,-218.952"/>
<polygon fill="midnightblue" stroke="midnightblue" points="500.21,-215.575 489.63,-215.007 497.547,-222.048 500.21,-215.575"/>
</g>
<!-- Node23 -->
<g id="node23" class="node"><title>Node23</title>
<polygon fill="white" stroke="#bfbfbf" points="556.952,-196 556.952,-215 696.952,-215 696.952,-196 556.952,-196"/>
<text text-anchor="middle" x="626.952" y="-203" font-family="Helvetica,sans-Serif" font-size="10.00">boost/function/function2.hpp</text>
</g>
<!-- Node17&#45;&gt;Node23 -->
<g id="edge33" class="edge"><title>Node17&#45;&gt;Node23</title>
<path fill="none" stroke="midnightblue" d="M626.952,-257.396C626.952,-248.064 626.952,-235.714 626.952,-225.517"/>
<polygon fill="midnightblue" stroke="midnightblue" points="630.452,-225.195 626.952,-215.195 623.452,-225.195 630.452,-225.195"/>
</g>
<!-- Node24 -->
<g id="node24" class="node"><title>Node24</title>
<polygon fill="white" stroke="#bfbfbf" points="714.952,-196 714.952,-215 828.952,-215 828.952,-196 714.952,-196"/>
<text text-anchor="middle" x="771.952" y="-203" font-family="Helvetica,sans-Serif" font-size="10.00">boost/lexical_cast.hpp</text>
</g>
<!-- Node17&#45;&gt;Node24 -->
<g id="edge34" class="edge"><title>Node17&#45;&gt;Node24</title>
<path fill="none" stroke="midnightblue" d="M658.415,-257.396C683.856,-245.991 719.351,-230.079 743.849,-219.098"/>
<polygon fill="midnightblue" stroke="midnightblue" points="745.281,-222.291 752.975,-215.007 742.418,-215.904 745.281,-222.291"/>
</g>
<!-- Node25 -->
<g id="node25" class="node"><title>Node25</title>
<polygon fill="white" stroke="#bfbfbf" points="16.4517,-196 16.4517,-215 123.452,-215 123.452,-196 16.4517,-196"/>
<text text-anchor="middle" x="69.9517" y="-203" font-family="Helvetica,sans-Serif" font-size="10.00">boost/tuple/tuple.hpp</text>
</g>
<!-- Node17&#45;&gt;Node25 -->
<g id="edge35" class="edge"><title>Node17&#45;&gt;Node25</title>
<path fill="none" stroke="midnightblue" d="M572.445,-268.231C480.942,-262.231 290.85,-247.574 131.952,-221 125.727,-219.959 119.195,-218.661 112.802,-217.273"/>
<polygon fill="midnightblue" stroke="midnightblue" points="113.461,-213.833 102.935,-215.04 111.916,-220.661 113.461,-213.833"/>
</g>
<!-- Node26&#45;&gt;Node6 -->
<g id="edge41" class="edge"><title>Node26&#45;&gt;Node6</title>
<path fill="none" stroke="midnightblue" d="M1365.13,-262.949C1390.6,-232.592 1476.99,-129.652 1511.02,-89.1069"/>
<polygon fill="midnightblue" stroke="midnightblue" points="1513.87,-91.1531 1517.61,-81.243 1508.51,-86.6532 1513.87,-91.1531"/>
</g>
<!-- Node26&#45;&gt;Node8 -->
<g id="edge44" class="edge"><title>Node26&#45;&gt;Node8</title>
<path fill="none" stroke="midnightblue" d="M1369.68,-262.936C1383.42,-252.903 1406.86,-235.77 1426.95,-221 1445.65,-207.26 1448.84,-201.564 1468.95,-190 1550.23,-143.27 1653.64,-103.523 1706.47,-84.5007"/>
<polygon fill="midnightblue" stroke="midnightblue" points="1707.8,-87.7439 1716.04,-81.0848 1705.45,-81.1517 1707.8,-87.7439"/>
</g>
<!-- Node26&#45;&gt;Node9 -->
<g id="edge45" class="edge"><title>Node26&#45;&gt;Node9</title>
<path fill="none" stroke="midnightblue" d="M1298.9,-265.552C1214.83,-256.521 1068.86,-238.538 1051.95,-221 1020.02,-187.886 1023.16,-129.577 1028.14,-96.7405"/>
<polygon fill="midnightblue" stroke="midnightblue" points="1031.63,-97.0989 1029.85,-86.6543 1024.73,-95.9278 1031.63,-97.0989"/>
</g>
<!-- Node26&#45;&gt;Node13 -->
<g id="edge43" class="edge"><title>Node26&#45;&gt;Node13</title>
<path fill="none" stroke="midnightblue" d="M1393.18,-262.944C1429.74,-253.753 1488.42,-238.141 1537.95,-221 1539.86,-220.339 1541.82,-219.627 1543.78,-218.887"/>
<polygon fill="midnightblue" stroke="midnightblue" points="1545.48,-221.98 1553.49,-215.046 1542.9,-215.472 1545.48,-221.98"/>
</g>
<!-- Node27 -->
<g id="node27" class="node"><title>Node27</title>
<polygon fill="white" stroke="#bfbfbf" points="1204.45,-196 1204.45,-215 1247.45,-215 1247.45,-196 1204.45,-196"/>
<text text-anchor="middle" x="1225.95" y="-203" font-family="Helvetica,sans-Serif" font-size="10.00">cstdio</text>
</g>
<!-- Node26&#45;&gt;Node27 -->
<g id="edge39" class="edge"><title>Node26&#45;&gt;Node27</title>
<path fill="none" stroke="midnightblue" d="M1340.42,-262.869C1317.94,-251.796 1278.72,-232.486 1252.55,-219.598"/>
<polygon fill="midnightblue" stroke="midnightblue" points="1254.07,-216.445 1243.55,-215.167 1250.98,-222.725 1254.07,-216.445"/>
</g>
<!-- Node28 -->
<g id="node28" class="node"><title>Node28</title>
<polygon fill="white" stroke="#bfbfbf" points="1265.45,-196 1265.45,-215 1314.45,-215 1314.45,-196 1265.45,-196"/>
<text text-anchor="middle" x="1289.95" y="-203" font-family="Helvetica,sans-Serif" font-size="10.00">cstdarg</text>
</g>
<!-- Node26&#45;&gt;Node28 -->
<g id="edge40" class="edge"><title>Node26&#45;&gt;Node28</title>
<path fill="none" stroke="midnightblue" d="M1348.78,-262.734C1337.97,-252.403 1319.81,-235.037 1306.51,-222.332"/>
<polygon fill="midnightblue" stroke="midnightblue" points="1308.62,-219.507 1298.98,-215.127 1303.79,-224.567 1308.62,-219.507"/>
</g>
<!-- Node29 -->
<g id="node29" class="node"><title>Node29</title>
<polygon fill="white" stroke="#bfbfbf" points="1332.95,-196 1332.95,-215 1382.95,-215 1382.95,-196 1332.95,-196"/>
<text text-anchor="middle" x="1357.95" y="-203" font-family="Helvetica,sans-Serif" font-size="10.00">fstream</text>
</g>
<!-- Node26&#45;&gt;Node29 -->
<g id="edge42" class="edge"><title>Node26&#45;&gt;Node29</title>
<path fill="none" stroke="midnightblue" d="M1357.95,-262.734C1357.95,-253.183 1357.95,-237.618 1357.95,-225.283"/>
<polygon fill="midnightblue" stroke="midnightblue" points="1361.45,-225.127 1357.95,-215.127 1354.45,-225.127 1361.45,-225.127"/>
</g>
<!-- Node30&#45;&gt;Node6 -->
<g id="edge48" class="edge"><title>Node30&#45;&gt;Node6</title>
<path fill="none" stroke="midnightblue" d="M1790.21,-393.344C1810.85,-385.779 1832.84,-373.779 1845.95,-355 1888.05,-294.716 1898.54,-251.306 1857.95,-190 1824.26,-139.124 1641.62,-96.3234 1562.04,-79.8015"/>
<polygon fill="midnightblue" stroke="midnightblue" points="1562.47,-76.3163 1551.97,-77.7367 1561.06,-83.1737 1562.47,-76.3163"/>
</g>
<!-- Node30&#45;&gt;Node8 -->
<g id="edge49" class="edge"><title>Node30&#45;&gt;Node8</title>
<path fill="none" stroke="midnightblue" d="M1789.99,-405.128C1832.56,-402.064 1892.03,-390.955 1928.95,-355 1956,-328.657 1952.95,-311.26 1952.95,-273.5 1952.95,-273.5 1952.95,-273.5 1952.95,-204.5 1952.95,-132.581 1863.94,-98.4432 1801.28,-83.3201"/>
<polygon fill="midnightblue" stroke="midnightblue" points="1801.99,-79.8937 1791.46,-81.0534 1800.42,-86.7141 1801.99,-79.8937"/>
</g>
<!-- Node30&#45;&gt;Node12 -->
<g id="edge50" class="edge"><title>Node30&#45;&gt;Node12</title>
<path fill="none" stroke="midnightblue" d="M1749.05,-391.313C1760,-374.021 1774.14,-344.566 1759.95,-324 1744.34,-301.377 1717.17,-288.879 1691.44,-281.98"/>
<polygon fill="midnightblue" stroke="midnightblue" points="1692.22,-278.567 1681.68,-279.6 1690.56,-285.368 1692.22,-278.567"/>
</g>
<!-- Node31 -->
<g id="node31" class="node"><title>Node31</title>
<polygon fill="white" stroke="#bfbfbf" points="1807.45,-330 1807.45,-349 1836.45,-349 1836.45,-330 1807.45,-330"/>
<text text-anchor="middle" x="1821.95" y="-337" font-family="Helvetica,sans-Serif" font-size="10.00">list</text>
</g>
<!-- Node30&#45;&gt;Node31 -->
<g id="edge47" class="edge"><title>Node30&#45;&gt;Node31</title>
<path fill="none" stroke="midnightblue" d="M1756.96,-391.396C1770.54,-380.759 1789.13,-366.203 1802.95,-355.381"/>
<polygon fill="midnightblue" stroke="midnightblue" points="1805.13,-358.116 1810.85,-349.195 1800.82,-352.605 1805.13,-358.116"/>
</g>
<!-- Node32 -->
<g id="node32" class="node"><title>Node32</title>
<g id="a_node32"><a xlink:href="a00083.html" target="_top" xlink:title="dynamic&#45;graph/signal\l&#45;array.h">
<polygon fill="white" stroke="black" points="1483.45,-324.5 1483.45,-354.5 1592.45,-354.5 1592.45,-324.5 1483.45,-324.5"/>
<text text-anchor="start" x="1491.45" y="-342.5" font-family="Helvetica,sans-Serif" font-size="10.00">dynamic&#45;graph/signal</text>
<text text-anchor="middle" x="1537.95" y="-331.5" font-family="Helvetica,sans-Serif" font-size="10.00">&#45;array.h</text>
</a>
</g>
</g>
<!-- Node30&#45;&gt;Node32 -->
<g id="edge51" class="edge"><title>Node30&#45;&gt;Node32</title>
<path fill="none" stroke="midnightblue" d="M1695.34,-391.396C1664.78,-381.515 1623.77,-368.252 1591.27,-357.743"/>
<polygon fill="midnightblue" stroke="midnightblue" points="1592.07,-354.323 1581.48,-354.577 1589.92,-360.984 1592.07,-354.323"/>
</g>
<!-- Node34 -->
<g id="node34" class="node"><title>Node34</title>
<g id="a_node34"><a xlink:href="a00094.html" target="_top" xlink:title="dynamic&#45;graph/time\l&#45;dependency.t.cpp">
<polygon fill="white" stroke="black" points="1648.95,-324.5 1648.95,-354.5 1750.95,-354.5 1750.95,-324.5 1648.95,-324.5"/>
<text text-anchor="start" x="1656.95" y="-342.5" font-family="Helvetica,sans-Serif" font-size="10.00">dynamic&#45;graph/time</text>
<text text-anchor="middle" x="1699.95" y="-331.5" font-family="Helvetica,sans-Serif" font-size="10.00">&#45;dependency.t.cpp</text>
</a>
</g>
</g>
<!-- Node30&#45;&gt;Node34 -->
<g id="edge56" class="edge"><title>Node30&#45;&gt;Node34</title>
<path fill="none" stroke="midnightblue" d="M1724.81,-391.396C1718.89,-383.304 1712.41,-372.944 1707.37,-363.685"/>
<polygon fill="midnightblue" stroke="midnightblue" points="1710.38,-361.897 1702.72,-354.577 1704.15,-365.075 1710.38,-361.897"/>
</g>
<!-- Node32&#45;&gt;Node9 -->
<g id="edge53" class="edge"><title>Node32&#45;&gt;Node9</title>
<path fill="none" stroke="midnightblue" d="M1483.37,-329.5C1358.66,-308.426 1061.19,-255.093 1030.95,-221 1000.69,-186.886 1013.2,-129.031 1023.82,-96.5206"/>
<polygon fill="midnightblue" stroke="midnightblue" points="1027.18,-97.5128 1027.15,-86.918 1020.57,-95.2214 1027.18,-97.5128"/>
</g>
<!-- Node32&#45;&gt;Node12 -->
<g id="edge52" class="edge"><title>Node32&#45;&gt;Node12</title>
<path fill="none" stroke="midnightblue" d="M1557.26,-324.396C1569.63,-315.367 1585.86,-303.514 1599.54,-293.518"/>
<polygon fill="midnightblue" stroke="midnightblue" points="1601.67,-296.301 1607.68,-287.577 1597.54,-290.648 1601.67,-296.301"/>
</g>
<!-- Node32&#45;&gt;Node19 -->
<g id="edge54" class="edge"><title>Node32&#45;&gt;Node19</title>
<path fill="none" stroke="midnightblue" d="M1483.4,-334.751C1405.14,-328.686 1256.78,-314.618 1132.95,-288 1047.4,-269.609 949.712,-236.041 900.632,-218.267"/>
<polygon fill="midnightblue" stroke="midnightblue" points="901.794,-214.966 891.2,-214.829 899.396,-221.542 901.794,-214.966"/>
</g>
<!-- Node33 -->
<g id="node33" class="node"><title>Node33</title>
<polygon fill="white" stroke="#bfbfbf" points="1507.95,-263 1507.95,-282 1553.95,-282 1553.95,-263 1507.95,-263"/>
<text text-anchor="middle" x="1530.95" y="-270" font-family="Helvetica,sans-Serif" font-size="10.00">stdio.h</text>
</g>
<!-- Node32&#45;&gt;Node33 -->
<g id="edge55" class="edge"><title>Node32&#45;&gt;Node33</title>
<path fill="none" stroke="midnightblue" d="M1536.43,-324.396C1535.42,-314.963 1534.07,-302.448 1532.96,-292.189"/>
<polygon fill="midnightblue" stroke="midnightblue" points="1536.44,-291.762 1531.89,-282.195 1529.48,-292.512 1536.44,-291.762"/>
</g>
<!-- Node34&#45;&gt;Node26 -->
<g id="edge58" class="edge"><title>Node34&#45;&gt;Node26</title>
<path fill="none" stroke="midnightblue" d="M1648.75,-328.769C1585.34,-316.717 1477.76,-296.271 1412.74,-283.912"/>
<polygon fill="midnightblue" stroke="midnightblue" points="1413.16,-280.43 1402.68,-282.001 1411.85,-287.307 1413.16,-280.43"/>
</g>
<!-- Node34&#45;&gt;Node30 -->
<g id="edge57" class="edge"><title>Node34&#45;&gt;Node30</title>
<path fill="none" stroke="midnightblue" d="M1714.07,-354.577C1719.99,-362.663 1726.48,-373.022 1731.52,-382.283"/>
<polygon fill="midnightblue" stroke="midnightblue" points="1728.51,-384.077 1736.17,-391.396 1734.74,-380.897 1728.51,-384.077"/>
</g>
</g>
</svg>
