<?xml version="1.0" encoding="UTF-8" standalone="no"?>
<!DOCTYPE svg PUBLIC "-//W3C//DTD SVG 1.1//EN"
 "http://www.w3.org/Graphics/SVG/1.1/DTD/svg11.dtd">
<!-- Generated by graphviz version 2.38.0 (20140413.2041)
 -->
<!-- Title: dynamicgraph::Tracer Pages: 1 -->
<svg width="161pt" height="196pt"
 viewBox="0.00 0.00 161.00 196.00" xmlns="http://www.w3.org/2000/svg" xmlns:xlink="http://www.w3.org/1999/xlink">
<g id="graph0" class="graph" transform="scale(1 1) rotate(0) translate(4 192)">
<title>dynamicgraph::Tracer</title>
<polygon fill="white" stroke="none" points="-4,4 -4,-192 157,-192 157,4 -4,4"/>
<!-- Node1 -->
<g id="node1" class="node"><title>Node1</title>
<polygon fill="#bfbfbf" stroke="black" points="21,-56.5 21,-75.5 132,-75.5 132,-56.5 21,-56.5"/>
<text text-anchor="middle" x="76.5" y="-63.5" font-family="Helvetica,sans-Serif" font-size="10.00">dynamicgraph::Tracer</text>
</g>
<!-- Node4 -->
<g id="node4" class="node"><title>Node4</title>
<g id="a_node4"><a xlink:href="a00051.html" target="_top" xlink:title="Main class of the tracer real&#45;time plug&#45;in. ">
<polygon fill="white" stroke="black" points="0,-0.5 0,-19.5 153,-19.5 153,-0.5 0,-0.5"/>
<text text-anchor="middle" x="76.5" y="-7.5" font-family="Helvetica,sans-Serif" font-size="10.00">dynamicgraph::TracerRealTime</text>
</a>
</g>
</g>
<!-- Node1&#45;&gt;Node4 -->
<g id="edge3" class="edge"><title>Node1&#45;&gt;Node4</title>
<path fill="none" stroke="midnightblue" d="M76.5,-45.8045C76.5,-36.9102 76.5,-26.7798 76.5,-19.7511"/>
<polygon fill="midnightblue" stroke="midnightblue" points="73.0001,-46.083 76.5,-56.083 80.0001,-46.083 73.0001,-46.083"/>
</g>
<!-- Node2 -->
<g id="node2" class="node"><title>Node2</title>
<g id="a_node2"><a xlink:href="a00019.html" target="_top" xlink:title="This class represents an entity, i.e. ">
<polygon fill="white" stroke="black" points="22,-112.5 22,-131.5 131,-131.5 131,-112.5 22,-112.5"/>
<text text-anchor="middle" x="76.5" y="-119.5" font-family="Helvetica,sans-Serif" font-size="10.00">dynamicgraph::Entity</text>
</a>
</g>
</g>
<!-- Node2&#45;&gt;Node1 -->
<g id="edge1" class="edge"><title>Node2&#45;&gt;Node1</title>
<path fill="none" stroke="midnightblue" d="M76.5,-101.805C76.5,-92.9102 76.5,-82.7798 76.5,-75.7511"/>
<polygon fill="midnightblue" stroke="midnightblue" points="73.0001,-102.083 76.5,-112.083 80.0001,-102.083 73.0001,-102.083"/>
</g>
<!-- Node3 -->
<g id="node3" class="node"><title>Node3</title>
<polygon fill="white" stroke="#bfbfbf" points="41,-168.5 41,-187.5 112,-187.5 112,-168.5 41,-168.5"/>
<text text-anchor="middle" x="76.5" y="-175.5" font-family="Helvetica,sans-Serif" font-size="10.00">noncopyable</text>
</g>
<!-- Node3&#45;&gt;Node2 -->
<g id="edge2" class="edge"><title>Node3&#45;&gt;Node2</title>
<path fill="none" stroke="#8b1a1a" d="M76.5,-157.805C76.5,-148.91 76.5,-138.78 76.5,-131.751"/>
<polygon fill="#8b1a1a" stroke="#8b1a1a" points="73.0001,-158.083 76.5,-168.083 80.0001,-158.083 73.0001,-158.083"/>
</g>
</g>
</svg>
