<?xml version="1.0" encoding="UTF-8" standalone="no"?>
<!DOCTYPE svg PUBLIC "-//W3C//DTD SVG 1.1//EN"
 "http://www.w3.org/Graphics/SVG/1.1/DTD/svg11.dtd">
<!-- Generated by graphviz version 2.38.0 (20140413.2041)
 -->
<!-- Title: dynamicgraph::Signal&lt; T, Time &gt; Pages: 1 -->
<svg width="257pt" height="263pt"
 viewBox="0.00 0.00 256.50 263.00" xmlns="http://www.w3.org/2000/svg" xmlns:xlink="http://www.w3.org/1999/xlink">
<g id="graph0" class="graph" transform="scale(1 1) rotate(0) translate(4 259)">
<title>dynamicgraph::Signal&lt; T, Time &gt;</title>
<polygon fill="white" stroke="none" points="-4,4 -4,-259 252.5,-259 252.5,4 -4,4"/>
<!-- Node1 -->
<g id="node1" class="node"><title>Node1</title>
<polygon fill="#bfbfbf" stroke="black" points="138.5,-0.5 138.5,-30.5 248.5,-30.5 248.5,-0.5 138.5,-0.5"/>
<text text-anchor="start" x="146.5" y="-18.5" font-family="Helvetica,sans-Serif" font-size="10.00">dynamicgraph::Signal</text>
<text text-anchor="middle" x="193.5" y="-7.5" font-family="Helvetica,sans-Serif" font-size="10.00">&lt; T, Time &gt;</text>
</g>
<!-- Node2 -->
<g id="node2" class="node"><title>Node2</title>
<g id="a_node2"><a xlink:href="a00043.html" target="_top" xlink:title="The base class for signals: not to be used as such. ">
<polygon fill="white" stroke="black" points="53,-89.5 53,-119.5 186,-119.5 186,-89.5 53,-89.5"/>
<text text-anchor="start" x="61" y="-107.5" font-family="Helvetica,sans-Serif" font-size="10.00">dynamicgraph::SignalBase</text>
<text text-anchor="middle" x="119.5" y="-96.5" font-family="Helvetica,sans-Serif" font-size="10.00">&lt; Time &gt;</text>
</a>
</g>
</g>
<!-- Node2&#45;&gt;Node1 -->
<g id="edge1" class="edge"><title>Node2&#45;&gt;Node1</title>
<path fill="none" stroke="midnightblue" d="M138.368,-81.3174C151.942,-65.3582 169.842,-44.3137 181.508,-30.599"/>
<polygon fill="midnightblue" stroke="midnightblue" points="135.533,-79.2488 131.72,-89.1337 140.865,-83.7841 135.533,-79.2488"/>
</g>
<!-- Node3 -->
<g id="node3" class="node"><title>Node3</title>
<polygon fill="white" stroke="#bfbfbf" points="0,-167.5 0,-186.5 71,-186.5 71,-167.5 0,-167.5"/>
<text text-anchor="middle" x="35.5" y="-174.5" font-family="Helvetica,sans-Serif" font-size="10.00">noncopyable</text>
</g>
<!-- Node3&#45;&gt;Node2 -->
<g id="edge2" class="edge"><title>Node3&#45;&gt;Node2</title>
<path fill="none" stroke="midnightblue" d="M53.6292,-160.784C68.2056,-148.551 88.5248,-131.497 102.728,-119.576"/>
<polygon fill="midnightblue" stroke="midnightblue" points="51.2098,-158.246 45.8,-167.355 55.7099,-163.607 51.2098,-158.246"/>
</g>
<!-- Node4 -->
<g id="node4" class="node"><title>Node4</title>
<g id="a_node4"><a xlink:title="STL class. ">
<polygon fill="white" stroke="#bfbfbf" points="89.5,-167.5 89.5,-186.5 149.5,-186.5 149.5,-167.5 89.5,-167.5"/>
<text text-anchor="middle" x="119.5" y="-174.5" font-family="Helvetica,sans-Serif" font-size="10.00">std::string</text>
</a>
</g>
</g>
<!-- Node4&#45;&gt;Node2 -->
<g id="edge3" class="edge"><title>Node4&#45;&gt;Node2</title>
<path fill="none" stroke="#9a32cd" stroke-dasharray="5,2" d="M119.5,-157.236C119.5,-145.408 119.5,-130.383 119.5,-119.576"/>
<polygon fill="#9a32cd" stroke="#9a32cd" points="116,-157.355 119.5,-167.355 123,-157.355 116,-157.355"/>
<text text-anchor="middle" x="133.5" y="-141" font-family="Helvetica,sans-Serif" font-size="10.00"> name</text>
</g>
<!-- Node5 -->
<g id="node5" class="node"><title>Node5</title>
<g id="a_node5"><a xlink:title="STL class. ">
<polygon fill="white" stroke="#bfbfbf" points="72,-224.5 72,-254.5 167,-254.5 167,-224.5 72,-224.5"/>
<text text-anchor="start" x="80" y="-242.5" font-family="Helvetica,sans-Serif" font-size="10.00">std::basic_string&lt;</text>
<text text-anchor="middle" x="119.5" y="-231.5" font-family="Helvetica,sans-Serif" font-size="10.00"> char &gt;</text>
</a>
</g>
</g>
<!-- Node5&#45;&gt;Node4 -->
<g id="edge4" class="edge"><title>Node5&#45;&gt;Node4</title>
<path fill="none" stroke="midnightblue" d="M119.5,-214.352C119.5,-204.513 119.5,-193.775 119.5,-186.54"/>
<polygon fill="midnightblue" stroke="midnightblue" points="116,-214.468 119.5,-224.468 123,-214.468 116,-214.468"/>
</g>
<!-- Node6 -->
<g id="node6" class="node"><title>Node6</title>
<polygon fill="white" stroke="#bfbfbf" points="167.5,-167.5 167.5,-186.5 205.5,-186.5 205.5,-167.5 167.5,-167.5"/>
<text text-anchor="middle" x="186.5" y="-174.5" font-family="Helvetica,sans-Serif" font-size="10.00">Time</text>
</g>
<!-- Node6&#45;&gt;Node2 -->
<g id="edge5" class="edge"><title>Node6&#45;&gt;Node2</title>
<path fill="none" stroke="#9a32cd" stroke-dasharray="5,2" d="M171.678,-159.669C165.491,-152.915 158.198,-145.033 151.5,-138 145.712,-131.922 139.23,-125.305 133.622,-119.638"/>
<polygon fill="#9a32cd" stroke="#9a32cd" points="169.471,-162.443 178.795,-167.473 174.643,-157.726 169.471,-162.443"/>
<text text-anchor="middle" x="187" y="-141" font-family="Helvetica,sans-Serif" font-size="10.00"> signalTime</text>
</g>
<!-- Node7 -->
<g id="node7" class="node"><title>Node7</title>
<polygon fill="white" stroke="#bfbfbf" points="204,-95 204,-114 233,-114 233,-95 204,-95"/>
<text text-anchor="middle" x="218.5" y="-102" font-family="Helvetica,sans-Serif" font-size="10.00">T</text>
</g>
<!-- Node7&#45;&gt;Node1 -->
<g id="edge6" class="edge"><title>Node7&#45;&gt;Node1</title>
<path fill="none" stroke="#9a32cd" stroke-dasharray="5,2" d="M213.149,-84.8774C208.47,-68.5946 201.778,-45.3065 197.537,-30.5475"/>
<polygon fill="#9a32cd" stroke="#9a32cd" points="209.886,-86.1956 216.012,-94.84 216.614,-84.2623 209.886,-86.1956"/>
<text text-anchor="middle" x="227.5" y="-63" font-family="Helvetica,sans-Serif" font-size="10.00"> Tcopy1</text>
<text text-anchor="middle" x="227.5" y="-52" font-family="Helvetica,sans-Serif" font-size="10.00">Tcopy2</text>
</g>
</g>
</svg>
