<?xml version="1.0" encoding="UTF-8" standalone="no"?>
<!DOCTYPE svg PUBLIC "-//W3C//DTD SVG 1.1//EN"
 "http://www.w3.org/Graphics/SVG/1.1/DTD/svg11.dtd">
<!-- Generated by graphviz version 2.38.0 (20140413.2041)
 -->
<!-- Title: dynamicgraph::command::CommandVoid1&lt; E, T &gt; Pages: 1 -->
<svg width="137pt" height="106pt"
 viewBox="0.00 0.00 137.00 106.00" xmlns="http://www.w3.org/2000/svg" xmlns:xlink="http://www.w3.org/1999/xlink">
<g id="graph0" class="graph" transform="scale(1 1) rotate(0) translate(4 102)">
<title>dynamicgraph::command::CommandVoid1&lt; E, T &gt;</title>
<polygon fill="white" stroke="none" points="-4,4 -4,-102 133,-102 133,4 -4,4"/>
<!-- Node1 -->
<g id="node1" class="node"><title>Node1</title>
<polygon fill="#bfbfbf" stroke="black" points="0,-0.5 0,-30.5 129,-30.5 129,-0.5 0,-0.5"/>
<text text-anchor="start" x="8" y="-18.5" font-family="Helvetica,sans-Serif" font-size="10.00">dynamicgraph::command</text>
<text text-anchor="middle" x="64.5" y="-7.5" font-family="Helvetica,sans-Serif" font-size="10.00">::CommandVoid1&lt; E, T &gt;</text>
</g>
<!-- Node2 -->
<g id="node2" class="node"><title>Node2</title>
<g id="a_node2"><a xlink:href="a00007.html" target="_top" xlink:title="Abstract class for entity commands. ">
<polygon fill="white" stroke="black" points="1.5,-67.5 1.5,-97.5 127.5,-97.5 127.5,-67.5 1.5,-67.5"/>
<text text-anchor="start" x="9.5" y="-85.5" font-family="Helvetica,sans-Serif" font-size="10.00">dynamicgraph::command</text>
<text text-anchor="middle" x="64.5" y="-74.5" font-family="Helvetica,sans-Serif" font-size="10.00">::Command</text>
</a>
</g>
</g>
<!-- Node2&#45;&gt;Node1 -->
<g id="edge1" class="edge"><title>Node2&#45;&gt;Node1</title>
<path fill="none" stroke="midnightblue" d="M64.5,-57.1081C64.5,-48.1539 64.5,-38.3227 64.5,-30.5765"/>
<polygon fill="midnightblue" stroke="midnightblue" points="61.0001,-57.3959 64.5,-67.396 68.0001,-57.396 61.0001,-57.3959"/>
</g>
</g>
</svg>
