<?xml version="1.0" encoding="UTF-8" standalone="no"?>
<!DOCTYPE svg PUBLIC "-//W3C//DTD SVG 1.1//EN"
 "http://www.w3.org/Graphics/SVG/1.1/DTD/svg11.dtd">
<!-- Generated by graphviz version 2.38.0 (20140413.2041)
 -->
<!-- Title: dynamicgraph::SignalPtr&lt; T, Time &gt; Pages: 1 -->
<svg width="263pt" height="331pt"
 viewBox="0.00 0.00 263.00 331.00" xmlns="http://www.w3.org/2000/svg" xmlns:xlink="http://www.w3.org/1999/xlink">
<g id="graph0" class="graph" transform="scale(1 1) rotate(0) translate(4 327)">
<title>dynamicgraph::SignalPtr&lt; T, Time &gt;</title>
<polygon fill="white" stroke="none" points="-4,4 -4,-327 259,-327 259,4 -4,4"/>
<!-- Node1 -->
<g id="node1" class="node"><title>Node1</title>
<polygon fill="#bfbfbf" stroke="black" points="132,-0.5 132,-30.5 255,-30.5 255,-0.5 132,-0.5"/>
<text text-anchor="start" x="140" y="-18.5" font-family="Helvetica,sans-Serif" font-size="10.00">dynamicgraph::SignalPtr</text>
<text text-anchor="middle" x="193.5" y="-7.5" font-family="Helvetica,sans-Serif" font-size="10.00">&lt; T, Time &gt;</text>
</g>
<!-- Node2 -->
<g id="node2" class="node"><title>Node2</title>
<g id="a_node2"><a xlink:href="a00041.html" target="_top" xlink:title="Signals link I/O ports of entities. They can be constant&#45;valued signals, or copy the value of a heap ...">
<polygon fill="white" stroke="black" points="138.5,-68.5 138.5,-98.5 248.5,-98.5 248.5,-68.5 138.5,-68.5"/>
<text text-anchor="start" x="146.5" y="-86.5" font-family="Helvetica,sans-Serif" font-size="10.00">dynamicgraph::Signal</text>
<text text-anchor="middle" x="193.5" y="-75.5" font-family="Helvetica,sans-Serif" font-size="10.00">&lt; T, Time &gt;</text>
</a>
</g>
</g>
<!-- Node2&#45;&gt;Node1 -->
<g id="edge1" class="edge"><title>Node2&#45;&gt;Node1</title>
<path fill="none" stroke="midnightblue" d="M193.5,-58.0322C193.5,-48.8606 193.5,-38.7449 193.5,-30.7931"/>
<polygon fill="midnightblue" stroke="midnightblue" points="190,-58.1789 193.5,-68.179 197,-58.179 190,-58.1789"/>
</g>
<!-- Node3 -->
<g id="node3" class="node"><title>Node3</title>
<g id="a_node3"><a xlink:href="a00044.html" target="_top" xlink:title="The base class for signals: not to be used as such. ">
<polygon fill="white" stroke="black" points="53,-157.5 53,-187.5 186,-187.5 186,-157.5 53,-157.5"/>
<text text-anchor="start" x="61" y="-175.5" font-family="Helvetica,sans-Serif" font-size="10.00">dynamicgraph::SignalBase</text>
<text text-anchor="middle" x="119.5" y="-164.5" font-family="Helvetica,sans-Serif" font-size="10.00">&lt; Time &gt;</text>
</a>
</g>
</g>
<!-- Node3&#45;&gt;Node2 -->
<g id="edge2" class="edge"><title>Node3&#45;&gt;Node2</title>
<path fill="none" stroke="midnightblue" d="M138.368,-149.317C151.942,-133.358 169.842,-112.314 181.508,-98.599"/>
<polygon fill="midnightblue" stroke="midnightblue" points="135.533,-147.249 131.72,-157.134 140.865,-151.784 135.533,-147.249"/>
</g>
<!-- Node4 -->
<g id="node4" class="node"><title>Node4</title>
<polygon fill="white" stroke="#bfbfbf" points="0,-235.5 0,-254.5 71,-254.5 71,-235.5 0,-235.5"/>
<text text-anchor="middle" x="35.5" y="-242.5" font-family="Helvetica,sans-Serif" font-size="10.00">noncopyable</text>
</g>
<!-- Node4&#45;&gt;Node3 -->
<g id="edge3" class="edge"><title>Node4&#45;&gt;Node3</title>
<path fill="none" stroke="midnightblue" d="M53.6292,-228.784C68.2056,-216.551 88.5248,-199.497 102.728,-187.576"/>
<polygon fill="midnightblue" stroke="midnightblue" points="51.2098,-226.246 45.8,-235.355 55.7099,-231.607 51.2098,-226.246"/>
</g>
<!-- Node5 -->
<g id="node5" class="node"><title>Node5</title>
<g id="a_node5"><a xlink:title="STL class. ">
<polygon fill="white" stroke="#bfbfbf" points="89.5,-235.5 89.5,-254.5 149.5,-254.5 149.5,-235.5 89.5,-235.5"/>
<text text-anchor="middle" x="119.5" y="-242.5" font-family="Helvetica,sans-Serif" font-size="10.00">std::string</text>
</a>
</g>
</g>
<!-- Node5&#45;&gt;Node3 -->
<g id="edge4" class="edge"><title>Node5&#45;&gt;Node3</title>
<path fill="none" stroke="#9a32cd" stroke-dasharray="5,2" d="M119.5,-225.236C119.5,-213.408 119.5,-198.383 119.5,-187.576"/>
<polygon fill="#9a32cd" stroke="#9a32cd" points="116,-225.355 119.5,-235.355 123,-225.355 116,-225.355"/>
<text text-anchor="middle" x="133.5" y="-209" font-family="Helvetica,sans-Serif" font-size="10.00"> name</text>
</g>
<!-- Node6 -->
<g id="node6" class="node"><title>Node6</title>
<g id="a_node6"><a xlink:title="STL class. ">
<polygon fill="white" stroke="#bfbfbf" points="72,-292.5 72,-322.5 167,-322.5 167,-292.5 72,-292.5"/>
<text text-anchor="start" x="80" y="-310.5" font-family="Helvetica,sans-Serif" font-size="10.00">std::basic_string&lt;</text>
<text text-anchor="middle" x="119.5" y="-299.5" font-family="Helvetica,sans-Serif" font-size="10.00"> char &gt;</text>
</a>
</g>
</g>
<!-- Node6&#45;&gt;Node5 -->
<g id="edge5" class="edge"><title>Node6&#45;&gt;Node5</title>
<path fill="none" stroke="midnightblue" d="M119.5,-282.352C119.5,-272.513 119.5,-261.775 119.5,-254.54"/>
<polygon fill="midnightblue" stroke="midnightblue" points="116,-282.468 119.5,-292.468 123,-282.468 116,-282.468"/>
</g>
<!-- Node7 -->
<g id="node7" class="node"><title>Node7</title>
<polygon fill="white" stroke="#bfbfbf" points="167.5,-235.5 167.5,-254.5 205.5,-254.5 205.5,-235.5 167.5,-235.5"/>
<text text-anchor="middle" x="186.5" y="-242.5" font-family="Helvetica,sans-Serif" font-size="10.00">Time</text>
</g>
<!-- Node7&#45;&gt;Node3 -->
<g id="edge6" class="edge"><title>Node7&#45;&gt;Node3</title>
<path fill="none" stroke="#9a32cd" stroke-dasharray="5,2" d="M171.678,-227.669C165.491,-220.915 158.198,-213.033 151.5,-206 145.712,-199.922 139.23,-193.305 133.622,-187.638"/>
<polygon fill="#9a32cd" stroke="#9a32cd" points="169.471,-230.443 178.795,-235.473 174.643,-225.726 169.471,-230.443"/>
<text text-anchor="middle" x="187" y="-209" font-family="Helvetica,sans-Serif" font-size="10.00"> signalTime</text>
</g>
<!-- Node8 -->
<g id="node8" class="node"><title>Node8</title>
<polygon fill="white" stroke="#bfbfbf" points="204,-163 204,-182 233,-182 233,-163 204,-163"/>
<text text-anchor="middle" x="218.5" y="-170" font-family="Helvetica,sans-Serif" font-size="10.00">T</text>
</g>
<!-- Node8&#45;&gt;Node2 -->
<g id="edge7" class="edge"><title>Node8&#45;&gt;Node2</title>
<path fill="none" stroke="#9a32cd" stroke-dasharray="5,2" d="M213.149,-152.877C208.47,-136.595 201.778,-113.306 197.537,-98.5475"/>
<polygon fill="#9a32cd" stroke="#9a32cd" points="209.886,-154.196 216.012,-162.84 216.614,-152.262 209.886,-154.196"/>
<text text-anchor="middle" x="227.5" y="-131" font-family="Helvetica,sans-Serif" font-size="10.00"> Tcopy1</text>
<text text-anchor="middle" x="227.5" y="-120" font-family="Helvetica,sans-Serif" font-size="10.00">Tcopy2</text>
</g>
</g>
</svg>
