<?xml version="1.0" encoding="UTF-8" standalone="no"?>
<!DOCTYPE svg PUBLIC "-//W3C//DTD SVG 1.1//EN"
 "http://www.w3.org/Graphics/SVG/1.1/DTD/svg11.dtd">
<!-- Generated by graphviz version 2.38.0 (20140413.2041)
 -->
<!-- Title: dynamicgraph::ExceptionFactory Pages: 1 -->
<svg width="292pt" height="231pt"
 viewBox="0.00 0.00 292.00 231.00" xmlns="http://www.w3.org/2000/svg" xmlns:xlink="http://www.w3.org/1999/xlink">
<g id="graph0" class="graph" transform="scale(1 1) rotate(0) translate(4 227)">
<title>dynamicgraph::ExceptionFactory</title>
<polygon fill="white" stroke="none" points="-4,4 -4,-227 288,-227 288,4 -4,4"/>
<!-- Node1 -->
<g id="node1" class="node"><title>Node1</title>
<polygon fill="#bfbfbf" stroke="black" points="84,-0.5 84,-19.5 244,-19.5 244,-0.5 84,-0.5"/>
<text text-anchor="middle" x="164" y="-7.5" font-family="Helvetica,sans-Serif" font-size="10.00">dynamicgraph::ExceptionFactory</text>
</g>
<!-- Node2 -->
<g id="node2" class="node"><title>Node2</title>
<g id="a_node2"><a xlink:href="a00022.html" target="_top" xlink:title="Abstract root class for all dynamic&#45;graph exceptions. ">
<polygon fill="white" stroke="black" points="0,-57.5 0,-76.5 164,-76.5 164,-57.5 0,-57.5"/>
<text text-anchor="middle" x="82" y="-64.5" font-family="Helvetica,sans-Serif" font-size="10.00">dynamicgraph::ExceptionAbstract</text>
</a>
</g>
</g>
<!-- Node2&#45;&gt;Node1 -->
<g id="edge1" class="edge"><title>Node2&#45;&gt;Node1</title>
<path fill="none" stroke="midnightblue" d="M103.135,-51.8244C118.371,-41.605 138.433,-28.1483 151.277,-19.5334"/>
<polygon fill="midnightblue" stroke="midnightblue" points="101.168,-48.9291 94.8125,-57.4062 105.067,-54.7426 101.168,-48.9291"/>
</g>
<!-- Node3 -->
<g id="node3" class="node"><title>Node3</title>
<g id="a_node3"><a xlink:title="STL class. ">
<polygon fill="white" stroke="#bfbfbf" points="16,-135.5 16,-154.5 94,-154.5 94,-135.5 16,-135.5"/>
<text text-anchor="middle" x="55" y="-142.5" font-family="Helvetica,sans-Serif" font-size="10.00">std::exception</text>
</a>
</g>
</g>
<!-- Node3&#45;&gt;Node2 -->
<g id="edge2" class="edge"><title>Node3&#45;&gt;Node2</title>
<path fill="none" stroke="midnightblue" d="M59.5015,-125.448C61.951,-116.179 65.2467,-104.866 69,-95 71.3678,-88.7759 74.6178,-82.0259 77.2758,-76.8319"/>
<polygon fill="midnightblue" stroke="midnightblue" points="56.0991,-124.626 57.0382,-135.179 62.8851,-126.344 56.0991,-124.626"/>
</g>
<!-- Node4 -->
<g id="node4" class="node"><title>Node4</title>
<g id="a_node4"><a xlink:title="STL class. ">
<polygon fill="white" stroke="#bfbfbf" points="141,-135.5 141,-154.5 201,-154.5 201,-135.5 141,-135.5"/>
<text text-anchor="middle" x="171" y="-142.5" font-family="Helvetica,sans-Serif" font-size="10.00">std::string</text>
</a>
</g>
</g>
<!-- Node4&#45;&gt;Node1 -->
<g id="edge5" class="edge"><title>Node4&#45;&gt;Node1</title>
<path fill="none" stroke="#9a32cd" stroke-dasharray="5,2" d="M182.35,-126.529C183.856,-123.461 185.166,-120.218 186,-117 195.288,-81.1577 177.253,-37.708 168.447,-19.5843"/>
<polygon fill="#9a32cd" stroke="#9a32cd" points="179.153,-125.068 177.209,-135.483 185.223,-128.554 179.153,-125.068"/>
<text text-anchor="middle" x="235.5" y="-64.5" font-family="Helvetica,sans-Serif" font-size="10.00"> EXCEPTION_NAME</text>
</g>
<!-- Node4&#45;&gt;Node2 -->
<g id="edge3" class="edge"><title>Node4&#45;&gt;Node2</title>
<path fill="none" stroke="#9a32cd" stroke-dasharray="5,2" d="M131.011,-139.832C115.697,-136.188 99.4216,-129.441 89,-117 79.5087,-105.67 79.6114,-87.445 80.7007,-76.7051"/>
<polygon fill="#9a32cd" stroke="#9a32cd" points="130.37,-143.273 140.863,-141.807 131.746,-136.41 130.37,-143.273"/>
<text text-anchor="middle" x="137.5" y="-109" font-family="Helvetica,sans-Serif" font-size="10.00"> EXCEPTION_NAME</text>
<text text-anchor="middle" x="137.5" y="-98" font-family="Helvetica,sans-Serif" font-size="10.00">message</text>
</g>
<!-- Node5 -->
<g id="node5" class="node"><title>Node5</title>
<g id="a_node5"><a xlink:title="STL class. ">
<polygon fill="white" stroke="#bfbfbf" points="123.5,-192.5 123.5,-222.5 218.5,-222.5 218.5,-192.5 123.5,-192.5"/>
<text text-anchor="start" x="131.5" y="-210.5" font-family="Helvetica,sans-Serif" font-size="10.00">std::basic_string&lt;</text>
<text text-anchor="middle" x="171" y="-199.5" font-family="Helvetica,sans-Serif" font-size="10.00"> char &gt;</text>
</a>
</g>
</g>
<!-- Node5&#45;&gt;Node4 -->
<g id="edge4" class="edge"><title>Node5&#45;&gt;Node4</title>
<path fill="none" stroke="midnightblue" d="M171,-182.352C171,-172.513 171,-161.775 171,-154.54"/>
<polygon fill="midnightblue" stroke="midnightblue" points="167.5,-182.468 171,-192.468 174.5,-182.468 167.5,-182.468"/>
</g>
</g>
</svg>
