<?xml version="1.0" encoding="UTF-8" standalone="no"?>
<!DOCTYPE svg PUBLIC "-//W3C//DTD SVG 1.1//EN"
 "http://www.w3.org/Graphics/SVG/1.1/DTD/svg11.dtd">
<!-- Generated by graphviz version 2.38.0 (20140413.2041)
 -->
<!-- Title: dynamicgraph::PoolStorage Pages: 1 -->
<svg width="1402pt" height="238pt"
 viewBox="0.00 0.00 1402.00 238.00" xmlns="http://www.w3.org/2000/svg" xmlns:xlink="http://www.w3.org/1999/xlink">
<g id="graph0" class="graph" transform="scale(1 1) rotate(0) translate(4 234)">
<title>dynamicgraph::PoolStorage</title>
<polygon fill="white" stroke="none" points="-4,4 -4,-234 1398,-234 1398,4 -4,4"/>
<!-- Node1 -->
<g id="node1" class="node"><title>Node1</title>
<polygon fill="#bfbfbf" stroke="black" points="1257,-32.5 1257,-51.5 1394,-51.5 1394,-32.5 1257,-32.5"/>
<text text-anchor="middle" x="1325.5" y="-39.5" font-family="Helvetica,sans-Serif" font-size="10.00">dynamicgraph::PoolStorage</text>
</g>
<!-- Node2 -->
<g id="node2" class="node"><title>Node2</title>
<polygon fill="white" stroke="#bfbfbf" points="1065,-27 1065,-57 1175,-57 1175,-27 1065,-27"/>
<text text-anchor="start" x="1073" y="-45" font-family="Helvetica,sans-Serif" font-size="10.00">std::map&lt; std::string,</text>
<text text-anchor="middle" x="1120" y="-34" font-family="Helvetica,sans-Serif" font-size="10.00"> Entity * &gt;</text>
</g>
<!-- Node2&#45;&gt;Node1 -->
<g id="edge1" class="edge"><title>Node2&#45;&gt;Node1</title>
<path fill="none" stroke="#9a32cd" stroke-dasharray="5,2" d="M1185.5,-42C1208.26,-42 1233.91,-42 1256.92,-42"/>
<polygon fill="#9a32cd" stroke="#9a32cd" points="1185.27,-38.5001 1175.27,-42 1185.27,-45.5001 1185.27,-38.5001"/>
<text text-anchor="middle" x="1216" y="-45" font-family="Helvetica,sans-Serif" font-size="10.00"> entityMap</text>
</g>
<!-- Node3 -->
<g id="node3" class="node"><title>Node3</title>
<g id="a_node3"><a xlink:href="a00020.html" target="_top" xlink:title="This class represents an entity, i.e. ">
<polygon fill="white" stroke="black" points="877,-125.5 877,-144.5 986,-144.5 986,-125.5 877,-125.5"/>
<text text-anchor="middle" x="931.5" y="-132.5" font-family="Helvetica,sans-Serif" font-size="10.00">dynamicgraph::Entity</text>
</a>
</g>
</g>
<!-- Node3&#45;&gt;Node2 -->
<g id="edge2" class="edge"><title>Node3&#45;&gt;Node2</title>
<path fill="none" stroke="#9a32cd" stroke-dasharray="5,2" d="M960.832,-120.872C995.364,-103.653 1053.47,-74.6783 1088.82,-57.0511"/>
<polygon fill="#9a32cd" stroke="#9a32cd" points="959.143,-117.803 951.756,-125.398 962.267,-124.067 959.143,-117.803"/>
<text text-anchor="middle" x="1025.5" y="-100" font-family="Helvetica,sans-Serif" font-size="10.00"> elements</text>
</g>
<!-- Node4 -->
<g id="node4" class="node"><title>Node4</title>
<polygon fill="white" stroke="#bfbfbf" points="701,-210.5 701,-229.5 772,-229.5 772,-210.5 701,-210.5"/>
<text text-anchor="middle" x="736.5" y="-217.5" font-family="Helvetica,sans-Serif" font-size="10.00">noncopyable</text>
</g>
<!-- Node4&#45;&gt;Node3 -->
<g id="edge3" class="edge"><title>Node4&#45;&gt;Node3</title>
<path fill="none" stroke="#8b1a1a" d="M782.349,-216.129C806.052,-212.783 835.104,-206.559 859,-195 884.966,-182.439 909.39,-158.338 921.863,-144.818"/>
<polygon fill="#8b1a1a" stroke="#8b1a1a" points="781.683,-212.686 772.212,-217.434 782.577,-219.629 781.683,-212.686"/>
</g>
<!-- Node5 -->
<g id="node5" class="node"><title>Node5</title>
<polygon fill="white" stroke="#bfbfbf" points="439,-166 439,-196 601,-196 601,-166 439,-166"/>
<text text-anchor="start" x="447" y="-184" font-family="Helvetica,sans-Serif" font-size="10.00">std::map&lt; const std</text>
<text text-anchor="middle" x="520" y="-173" font-family="Helvetica,sans-Serif" font-size="10.00">::string, command::Command * &gt;</text>
</g>
<!-- Node5&#45;&gt;Node3 -->
<g id="edge4" class="edge"><title>Node5&#45;&gt;Node3</title>
<path fill="none" stroke="#9a32cd" stroke-dasharray="5,2" d="M611.453,-174.88C679.69,-169.672 775.494,-161.098 859,-149 867.512,-147.767 876.547,-146.201 885.227,-144.566"/>
<polygon fill="#9a32cd" stroke="#9a32cd" points="610.876,-171.414 601.168,-175.656 611.403,-178.394 610.876,-171.414"/>
<text text-anchor="middle" x="736.5" y="-173" font-family="Helvetica,sans-Serif" font-size="10.00"> commandMap</text>
</g>
<!-- Node6 -->
<g id="node6" class="node"><title>Node6</title>
<g id="a_node6"><a xlink:href="a00007.html" target="_top" xlink:title="Abstract class for entity commands. ">
<polygon fill="white" stroke="black" points="234,-187 234,-217 360,-217 360,-187 234,-187"/>
<text text-anchor="start" x="242" y="-205" font-family="Helvetica,sans-Serif" font-size="10.00">dynamicgraph::command</text>
<text text-anchor="middle" x="297" y="-194" font-family="Helvetica,sans-Serif" font-size="10.00">::Command</text>
</a>
</g>
</g>
<!-- Node6&#45;&gt;Node5 -->
<g id="edge5" class="edge"><title>Node6&#45;&gt;Node5</title>
<path fill="none" stroke="#9a32cd" stroke-dasharray="5,2" d="M370.354,-195.125C392.226,-193.046 416.372,-190.752 438.729,-188.628"/>
<polygon fill="#9a32cd" stroke="#9a32cd" points="369.773,-191.664 360.149,-196.094 370.435,-198.633 369.773,-191.664"/>
<text text-anchor="middle" x="399.5" y="-197" font-family="Helvetica,sans-Serif" font-size="10.00"> elements</text>
</g>
<!-- Node7 -->
<g id="node7" class="node"><title>Node7</title>
<polygon fill="white" stroke="#bfbfbf" points="0,-187 0,-217 133,-217 133,-187 0,-187"/>
<text text-anchor="start" x="8" y="-205" font-family="Helvetica,sans-Serif" font-size="10.00">std::vector&lt; dynamicgraph</text>
<text text-anchor="middle" x="66.5" y="-194" font-family="Helvetica,sans-Serif" font-size="10.00">::command::Value::Type &gt;</text>
</g>
<!-- Node7&#45;&gt;Node6 -->
<g id="edge6" class="edge"><title>Node7&#45;&gt;Node6</title>
<path fill="none" stroke="#9a32cd" stroke-dasharray="5,2" d="M143.485,-202C172.813,-202 205.944,-202 233.816,-202"/>
<polygon fill="#9a32cd" stroke="#9a32cd" points="143.285,-198.5 133.285,-202 143.285,-205.5 143.285,-198.5"/>
<text text-anchor="middle" x="183.5" y="-205" font-family="Helvetica,sans-Serif" font-size="10.00"> EMPTY_ARG</text>
</g>
<!-- Node8 -->
<g id="node8" class="node"><title>Node8</title>
<g id="a_node8"><a xlink:title="STL class. ">
<polygon fill="white" stroke="#bfbfbf" points="267,-86.5 267,-105.5 327,-105.5 327,-86.5 267,-86.5"/>
<text text-anchor="middle" x="297" y="-93.5" font-family="Helvetica,sans-Serif" font-size="10.00">std::string</text>
</a>
</g>
</g>
<!-- Node8&#45;&gt;Node2 -->
<g id="edge15" class="edge"><title>Node8&#45;&gt;Node2</title>
<path fill="none" stroke="#9a32cd" stroke-dasharray="5,2" d="M321.018,-80.9144C348.197,-63.7082 395.252,-35.7927 439,-19 473.117,-5.90385 482.455,-0 519,-0 519,-0 519,-0 932.5,-0 983.114,-0 1039.61,-14.9042 1077.02,-26.9557"/>
<polygon fill="#9a32cd" stroke="#9a32cd" points="319.13,-77.9673 312.596,-86.3075 322.905,-83.8622 319.13,-77.9673"/>
<text text-anchor="middle" x="736.5" y="-3" font-family="Helvetica,sans-Serif" font-size="10.00"> keys</text>
</g>
<!-- Node8&#45;&gt;Node3 -->
<g id="edge9" class="edge"><title>Node8&#45;&gt;Node3</title>
<path fill="none" stroke="#9a32cd" stroke-dasharray="5,2" d="M337.156,-103.278C350.115,-105.442 364.638,-107.605 378,-109 560.179,-128.026 777.617,-133.134 876.623,-134.502"/>
<polygon fill="#9a32cd" stroke="#9a32cd" points="337.599,-99.8029 327.15,-101.557 336.413,-106.702 337.599,-99.8029"/>
<text text-anchor="middle" x="640.5" y="-132" font-family="Helvetica,sans-Serif" font-size="10.00"> name</text>
</g>
<!-- Node8&#45;&gt;Node5 -->
<g id="edge7" class="edge"><title>Node8&#45;&gt;Node5</title>
<path fill="none" stroke="#9a32cd" stroke-dasharray="5,2" d="M318.965,-111.684C334.543,-122.679 356.697,-136.969 378,-146 397.39,-154.22 419.132,-160.801 439.628,-165.938"/>
<polygon fill="#9a32cd" stroke="#9a32cd" points="320.766,-108.668 310.609,-105.656 316.671,-114.345 320.766,-108.668"/>
<text text-anchor="middle" x="399.5" y="-164" font-family="Helvetica,sans-Serif" font-size="10.00"> keys</text>
</g>
<!-- Node10 -->
<g id="node10" class="node"><title>Node10</title>
<polygon fill="white" stroke="#bfbfbf" points="680,-76 680,-106 793,-106 793,-76 680,-76"/>
<text text-anchor="start" x="688" y="-94" font-family="Helvetica,sans-Serif" font-size="10.00">std::map&lt; std::string,</text>
<text text-anchor="middle" x="736.5" y="-83" font-family="Helvetica,sans-Serif" font-size="10.00"> SignalBase&lt; int &gt; * &gt;</text>
</g>
<!-- Node8&#45;&gt;Node10 -->
<g id="edge11" class="edge"><title>Node8&#45;&gt;Node10</title>
<path fill="none" stroke="#9a32cd" stroke-dasharray="5,2" d="M337.406,-95.5496C415.516,-94.657 590.167,-92.6609 679.916,-91.6352"/>
<polygon fill="#9a32cd" stroke="#9a32cd" points="337.004,-92.0539 327.044,-95.6681 337.084,-99.0535 337.004,-92.0539"/>
<text text-anchor="middle" x="520" y="-98" font-family="Helvetica,sans-Serif" font-size="10.00"> keys</text>
</g>
<!-- Node11 -->
<g id="node11" class="node"><title>Node11</title>
<g id="a_node11"><a xlink:href="a00044.html" target="_top" xlink:title="dynamicgraph::SignalBase\l\&lt; int \&gt;">
<polygon fill="white" stroke="black" points="453.5,-29 453.5,-59 586.5,-59 586.5,-29 453.5,-29"/>
<text text-anchor="start" x="461.5" y="-47" font-family="Helvetica,sans-Serif" font-size="10.00">dynamicgraph::SignalBase</text>
<text text-anchor="middle" x="520" y="-36" font-family="Helvetica,sans-Serif" font-size="10.00">&lt; int &gt;</text>
</a>
</g>
</g>
<!-- Node8&#45;&gt;Node11 -->
<g id="edge14" class="edge"><title>Node8&#45;&gt;Node11</title>
<path fill="none" stroke="#9a32cd" stroke-dasharray="5,2" d="M335.672,-83.2596C348.956,-79.0253 364.055,-74.5021 378,-71 402.415,-64.8686 429.512,-59.3726 453.375,-54.965"/>
<polygon fill="#9a32cd" stroke="#9a32cd" points="334.351,-80.0083 325.916,-86.4196 336.508,-86.6677 334.351,-80.0083"/>
<text text-anchor="middle" x="399.5" y="-74" font-family="Helvetica,sans-Serif" font-size="10.00"> name</text>
</g>
<!-- Node9 -->
<g id="node9" class="node"><title>Node9</title>
<g id="a_node9"><a xlink:title="STL class. ">
<polygon fill="white" stroke="#bfbfbf" points="19,-81 19,-111 114,-111 114,-81 19,-81"/>
<text text-anchor="start" x="27" y="-99" font-family="Helvetica,sans-Serif" font-size="10.00">std::basic_string&lt;</text>
<text text-anchor="middle" x="66.5" y="-88" font-family="Helvetica,sans-Serif" font-size="10.00"> char &gt;</text>
</a>
</g>
</g>
<!-- Node9&#45;&gt;Node8 -->
<g id="edge8" class="edge"><title>Node9&#45;&gt;Node8</title>
<path fill="none" stroke="midnightblue" d="M124.282,-96C169.566,-96 231.136,-96 266.919,-96"/>
<polygon fill="midnightblue" stroke="midnightblue" points="124.016,-92.5001 114.016,-96 124.016,-99.5001 124.016,-92.5001"/>
</g>
<!-- Node10&#45;&gt;Node3 -->
<g id="edge10" class="edge"><title>Node10&#45;&gt;Node3</title>
<path fill="none" stroke="#9a32cd" stroke-dasharray="5,2" d="M803.21,-99.051C821.415,-101.883 841.09,-105.508 859,-110 875.199,-114.063 892.922,-120.247 906.671,-125.448"/>
<polygon fill="#9a32cd" stroke="#9a32cd" points="803.678,-95.582 793.269,-97.5591 802.639,-102.504 803.678,-95.582"/>
<text text-anchor="middle" x="835" y="-113" font-family="Helvetica,sans-Serif" font-size="10.00"> signalMap</text>
</g>
<!-- Node11&#45;&gt;Node10 -->
<g id="edge12" class="edge"><title>Node11&#45;&gt;Node10</title>
<path fill="none" stroke="#9a32cd" stroke-dasharray="5,2" d="M596.455,-57.3454C617.722,-61.4056 640.828,-66.0999 662,-71 668.571,-72.5207 675.441,-74.2293 682.229,-75.9906"/>
<polygon fill="#9a32cd" stroke="#9a32cd" points="596.98,-53.8827 586.504,-55.4657 595.68,-60.7611 596.98,-53.8827"/>
<text text-anchor="middle" x="640.5" y="-74" font-family="Helvetica,sans-Serif" font-size="10.00"> elements</text>
</g>
<!-- Node12 -->
<g id="node12" class="node"><title>Node12</title>
<polygon fill="white" stroke="#bfbfbf" points="246.5,-27.5 246.5,-46.5 347.5,-46.5 347.5,-27.5 246.5,-27.5"/>
<text text-anchor="middle" x="297" y="-34.5" font-family="Helvetica,sans-Serif" font-size="10.00">boost::noncopyable</text>
</g>
<!-- Node12&#45;&gt;Node11 -->
<g id="edge13" class="edge"><title>Node12&#45;&gt;Node11</title>
<path fill="none" stroke="midnightblue" d="M357.757,-38.8928C387.262,-39.8273 422.933,-40.9572 453.215,-41.9163"/>
<polygon fill="midnightblue" stroke="midnightblue" points="357.703,-35.3894 347.597,-38.5709 357.481,-42.3859 357.703,-35.3894"/>
</g>
</g>
</svg>
