<?xml version="1.0" encoding="UTF-8" standalone="no"?>
<!DOCTYPE svg PUBLIC "-//W3C//DTD SVG 1.1//EN"
 "http://www.w3.org/Graphics/SVG/1.1/DTD/svg11.dtd">
<!-- Generated by graphviz version 2.38.0 (20140413.2041)
 -->
<!-- Title: dynamicgraph::ExceptionAbstract Pages: 1 -->
<svg width="222pt" height="174pt"
 viewBox="0.00 0.00 222.00 174.00" xmlns="http://www.w3.org/2000/svg" xmlns:xlink="http://www.w3.org/1999/xlink">
<g id="graph0" class="graph" transform="scale(1 1) rotate(0) translate(4 170)">
<title>dynamicgraph::ExceptionAbstract</title>
<polygon fill="white" stroke="none" points="-4,4 -4,-170 218,-170 218,4 -4,4"/>
<!-- Node1 -->
<g id="node1" class="node"><title>Node1</title>
<polygon fill="#bfbfbf" stroke="black" points="0,-0.5 0,-19.5 164,-19.5 164,-0.5 0,-0.5"/>
<text text-anchor="middle" x="82" y="-7.5" font-family="Helvetica,sans-Serif" font-size="10.00">dynamicgraph::ExceptionAbstract</text>
</g>
<!-- Node2 -->
<g id="node2" class="node"><title>Node2</title>
<g id="a_node2"><a xlink:title="STL class. ">
<polygon fill="white" stroke="#bfbfbf" points="13,-78.5 13,-97.5 91,-97.5 91,-78.5 13,-78.5"/>
<text text-anchor="middle" x="52" y="-85.5" font-family="Helvetica,sans-Serif" font-size="10.00">std::exception</text>
</a>
</g>
</g>
<!-- Node2&#45;&gt;Node1 -->
<g id="edge1" class="edge"><title>Node2&#45;&gt;Node1</title>
<path fill="none" stroke="midnightblue" d="M59.2338,-68.6744C65.3766,-53.1127 73.9189,-31.4722 78.5988,-19.6165"/>
<polygon fill="midnightblue" stroke="midnightblue" points="55.8576,-67.6952 55.4414,-78.2818 62.3687,-70.2654 55.8576,-67.6952"/>
</g>
<!-- Node3 -->
<g id="node3" class="node"><title>Node3</title>
<g id="a_node3"><a xlink:title="STL class. ">
<polygon fill="white" stroke="#bfbfbf" points="109,-78.5 109,-97.5 169,-97.5 169,-78.5 109,-78.5"/>
<text text-anchor="middle" x="139" y="-85.5" font-family="Helvetica,sans-Serif" font-size="10.00">std::string</text>
</a>
</g>
</g>
<!-- Node3&#45;&gt;Node1 -->
<g id="edge2" class="edge"><title>Node3&#45;&gt;Node1</title>
<path fill="none" stroke="#9a32cd" stroke-dasharray="5,2" d="M126.254,-70.0056C114.527,-54.3693 97.6106,-31.8142 88.4624,-19.6165"/>
<polygon fill="#9a32cd" stroke="#9a32cd" points="123.661,-72.3818 132.461,-78.2818 129.261,-68.1818 123.661,-72.3818"/>
<text text-anchor="middle" x="165.5" y="-52" font-family="Helvetica,sans-Serif" font-size="10.00"> EXCEPTION_NAME</text>
<text text-anchor="middle" x="165.5" y="-41" font-family="Helvetica,sans-Serif" font-size="10.00">message</text>
</g>
<!-- Node4 -->
<g id="node4" class="node"><title>Node4</title>
<g id="a_node4"><a xlink:title="STL class. ">
<polygon fill="white" stroke="#bfbfbf" points="91.5,-135.5 91.5,-165.5 186.5,-165.5 186.5,-135.5 91.5,-135.5"/>
<text text-anchor="start" x="99.5" y="-153.5" font-family="Helvetica,sans-Serif" font-size="10.00">std::basic_string&lt;</text>
<text text-anchor="middle" x="139" y="-142.5" font-family="Helvetica,sans-Serif" font-size="10.00"> char &gt;</text>
</a>
</g>
</g>
<!-- Node4&#45;&gt;Node3 -->
<g id="edge3" class="edge"><title>Node4&#45;&gt;Node3</title>
<path fill="none" stroke="midnightblue" d="M139,-125.352C139,-115.513 139,-104.775 139,-97.5399"/>
<polygon fill="midnightblue" stroke="midnightblue" points="135.5,-125.468 139,-135.468 142.5,-125.468 135.5,-125.468"/>
</g>
</g>
</svg>
