<?xml version="1.0" encoding="UTF-8" standalone="no"?>
<!DOCTYPE svg PUBLIC "-//W3C//DTD SVG 1.1//EN"
 "http://www.w3.org/Graphics/SVG/1.1/DTD/svg11.dtd">
<!-- Generated by graphviz version 2.38.0 (20140413.2041)
 -->
<!-- Title: dynamicgraph::SignalArray&lt; Time &gt; Pages: 1 -->
<svg width="564pt" height="94pt"
 viewBox="0.00 0.00 564.00 93.50" xmlns="http://www.w3.org/2000/svg" xmlns:xlink="http://www.w3.org/1999/xlink">
<g id="graph0" class="graph" transform="scale(1 1) rotate(0) translate(4 89.5)">
<title>dynamicgraph::SignalArray&lt; Time &gt;</title>
<polygon fill="white" stroke="none" points="-4,4 -4,-89.5 560,-89.5 560,4 -4,4"/>
<!-- Node1 -->
<g id="node1" class="node"><title>Node1</title>
<polygon fill="#bfbfbf" stroke="black" points="422,-18.5 422,-48.5 556,-48.5 556,-18.5 422,-18.5"/>
<text text-anchor="start" x="430" y="-36.5" font-family="Helvetica,sans-Serif" font-size="10.00">dynamicgraph::SignalArray</text>
<text text-anchor="middle" x="489" y="-25.5" font-family="Helvetica,sans-Serif" font-size="10.00">&lt; Time &gt;</text>
</g>
<!-- Node2 -->
<g id="node2" class="node"><title>Node2</title>
<g id="a_node2"><a xlink:href="a00043.html" target="_top" xlink:title="TODO. ">
<polygon fill="white" stroke="black" points="227,-49.5 227,-79.5 361,-79.5 361,-49.5 227,-49.5"/>
<text text-anchor="start" x="235" y="-67.5" font-family="Helvetica,sans-Serif" font-size="10.00">dynamicgraph::SignalArray</text>
<text text-anchor="middle" x="294" y="-56.5" font-family="Helvetica,sans-Serif" font-size="10.00">_const&lt; Time &gt;</text>
</a>
</g>
</g>
<!-- Node2&#45;&gt;Node1 -->
<g id="edge1" class="edge"><title>Node2&#45;&gt;Node1</title>
<path fill="none" stroke="midnightblue" d="M371.424,-52.2247C388.13,-49.5413 405.676,-46.7231 421.937,-44.1112"/>
<polygon fill="midnightblue" stroke="midnightblue" points="370.468,-48.8333 361.15,-53.8749 371.578,-55.7447 370.468,-48.8333"/>
</g>
<!-- Node3 -->
<g id="node3" class="node"><title>Node3</title>
<polygon fill="white" stroke="#bfbfbf" points="0,-44 0,-85 136,-85 136,-44 0,-44"/>
<text text-anchor="start" x="8" y="-73" font-family="Helvetica,sans-Serif" font-size="10.00">std::vector&lt; const</text>
<text text-anchor="start" x="8" y="-62" font-family="Helvetica,sans-Serif" font-size="10.00"> dynamicgraph::SignalBase</text>
<text text-anchor="middle" x="68" y="-51" font-family="Helvetica,sans-Serif" font-size="10.00">&lt; Time &gt; * &gt;</text>
</g>
<!-- Node3&#45;&gt;Node2 -->
<g id="edge2" class="edge"><title>Node3&#45;&gt;Node2</title>
<path fill="none" stroke="#9a32cd" stroke-dasharray="5,2" d="M146.489,-64.5C172.718,-64.5 201.745,-64.5 226.997,-64.5"/>
<polygon fill="#9a32cd" stroke="#9a32cd" points="146.207,-61.0001 136.207,-64.5 146.207,-68.0001 146.207,-61.0001"/>
<text text-anchor="middle" x="181.5" y="-67.5" font-family="Helvetica,sans-Serif" font-size="10.00"> const_array</text>
</g>
<!-- Node4 -->
<g id="node4" class="node"><title>Node4</title>
<polygon fill="white" stroke="#bfbfbf" points="227.5,-0.5 227.5,-30.5 360.5,-30.5 360.5,-0.5 227.5,-0.5"/>
<text text-anchor="start" x="235.5" y="-18.5" font-family="Helvetica,sans-Serif" font-size="10.00">std::vector&lt; dynamicgraph</text>
<text text-anchor="middle" x="294" y="-7.5" font-family="Helvetica,sans-Serif" font-size="10.00">::SignalBase&lt; Time &gt; * &gt;</text>
</g>
<!-- Node4&#45;&gt;Node1 -->
<g id="edge3" class="edge"><title>Node4&#45;&gt;Node1</title>
<path fill="none" stroke="#9a32cd" stroke-dasharray="5,2" d="M370.961,-22.5845C387.798,-24.1547 405.51,-25.8066 421.915,-27.3367"/>
<polygon fill="#9a32cd" stroke="#9a32cd" points="370.892,-19.0629 360.61,-21.6191 370.242,-26.0327 370.892,-19.0629"/>
<text text-anchor="middle" x="391.5" y="-29.5" font-family="Helvetica,sans-Serif" font-size="10.00"> array</text>
</g>
</g>
</svg>
