<?xml version="1.0" encoding="UTF-8" standalone="no"?>
<!DOCTYPE svg PUBLIC "-//W3C//DTD SVG 1.1//EN"
 "http://www.w3.org/Graphics/SVG/1.1/DTD/svg11.dtd">
<!-- Generated by graphviz version 2.38.0 (20140413.2041)
 -->
<!-- Title: dynamicgraph::command::Command Pages: 1 -->
<svg width="322pt" height="893pt"
 viewBox="0.00 0.00 322.00 893.00" xmlns="http://www.w3.org/2000/svg" xmlns:xlink="http://www.w3.org/1999/xlink">
<g id="graph0" class="graph" transform="scale(1 1) rotate(0) translate(4 889)">
<title>dynamicgraph::command::Command</title>
<polygon fill="white" stroke="none" points="-4,4 -4,-889 318,-889 318,4 -4,4"/>
<!-- Node1 -->
<g id="node1" class="node"><title>Node1</title>
<polygon fill="#bfbfbf" stroke="black" points="0,-416.5 0,-446.5 126,-446.5 126,-416.5 0,-416.5"/>
<text text-anchor="start" x="8" y="-434.5" font-family="Helvetica,sans-Serif" font-size="10.00">dynamicgraph::command</text>
<text text-anchor="middle" x="63" y="-423.5" font-family="Helvetica,sans-Serif" font-size="10.00">::Command</text>
</g>
<!-- Node2 -->
<g id="node2" class="node"><title>Node2</title>
<g id="a_node2"><a xlink:href="a00008.html" target="_top" xlink:title="dynamicgraph::command\l::CommandVerbose\&lt; E \&gt;">
<polygon fill="white" stroke="black" points="174,-854.5 174,-884.5 302,-884.5 302,-854.5 174,-854.5"/>
<text text-anchor="start" x="182" y="-872.5" font-family="Helvetica,sans-Serif" font-size="10.00">dynamicgraph::command</text>
<text text-anchor="middle" x="238" y="-861.5" font-family="Helvetica,sans-Serif" font-size="10.00">::CommandVerbose&lt; E &gt;</text>
</a>
</g>
</g>
<!-- Node1&#45;&gt;Node2 -->
<g id="edge1" class="edge"><title>Node1&#45;&gt;Node2</title>
<path fill="none" stroke="midnightblue" d="M66.783,-457.204C76.0672,-538.431 108.452,-787.646 162,-845.5 165.436,-849.212 169.445,-852.353 173.791,-855.009"/>
<polygon fill="midnightblue" stroke="midnightblue" points="70.2196,-456.442 65.6265,-446.894 63.2632,-457.222 70.2196,-456.442"/>
</g>
<!-- Node3 -->
<g id="node3" class="node"><title>Node3</title>
<g id="a_node3"><a xlink:href="a00009.html" target="_top" xlink:title="dynamicgraph::command\l::CommandVoid0\&lt; E \&gt;">
<polygon fill="white" stroke="black" points="175,-805.5 175,-835.5 301,-835.5 301,-805.5 175,-805.5"/>
<text text-anchor="start" x="183" y="-823.5" font-family="Helvetica,sans-Serif" font-size="10.00">dynamicgraph::command</text>
<text text-anchor="middle" x="238" y="-812.5" font-family="Helvetica,sans-Serif" font-size="10.00">::CommandVoid0&lt; E &gt;</text>
</a>
</g>
</g>
<!-- Node1&#45;&gt;Node3 -->
<g id="edge2" class="edge"><title>Node1&#45;&gt;Node3</title>
<path fill="none" stroke="midnightblue" d="M63.0741,-457.015C62.1302,-522.624 68.8966,-698.876 162,-796.5 165.774,-800.457 170.2,-803.764 174.981,-806.527"/>
<polygon fill="midnightblue" stroke="midnightblue" points="66.5785,-456.851 63.3001,-446.776 59.5802,-456.696 66.5785,-456.851"/>
</g>
<!-- Node4 -->
<g id="node4" class="node"><title>Node4</title>
<g id="a_node4"><a xlink:href="a00010.html" target="_top" xlink:title="dynamicgraph::command\l::CommandVoid1\&lt; E, T \&gt;">
<polygon fill="white" stroke="black" points="173.5,-756.5 173.5,-786.5 302.5,-786.5 302.5,-756.5 173.5,-756.5"/>
<text text-anchor="start" x="181.5" y="-774.5" font-family="Helvetica,sans-Serif" font-size="10.00">dynamicgraph::command</text>
<text text-anchor="middle" x="238" y="-763.5" font-family="Helvetica,sans-Serif" font-size="10.00">::CommandVoid1&lt; E, T &gt;</text>
</a>
</g>
</g>
<!-- Node1&#45;&gt;Node4 -->
<g id="edge3" class="edge"><title>Node1&#45;&gt;Node4</title>
<path fill="none" stroke="midnightblue" d="M64.3558,-457.179C66.5941,-516.704 80.5233,-665.288 162,-747.5 165.368,-750.899 169.217,-753.817 173.353,-756.322"/>
<polygon fill="midnightblue" stroke="midnightblue" points="67.8438,-456.715 64.0537,-446.821 60.8468,-456.919 67.8438,-456.715"/>
</g>
<!-- Node5 -->
<g id="node5" class="node"><title>Node5</title>
<g id="a_node5"><a xlink:href="a00011.html" target="_top" xlink:title="dynamicgraph::command\l::CommandVoid2\&lt; E, T1, T2 \&gt;">
<polygon fill="white" stroke="black" points="162,-707.5 162,-737.5 314,-737.5 314,-707.5 162,-707.5"/>
<text text-anchor="start" x="170" y="-725.5" font-family="Helvetica,sans-Serif" font-size="10.00">dynamicgraph::command</text>
<text text-anchor="middle" x="238" y="-714.5" font-family="Helvetica,sans-Serif" font-size="10.00">::CommandVoid2&lt; E, T1, T2 &gt;</text>
</a>
</g>
</g>
<!-- Node1&#45;&gt;Node5 -->
<g id="edge4" class="edge"><title>Node1&#45;&gt;Node5</title>
<path fill="none" stroke="midnightblue" d="M66.0291,-456.791C71.6042,-509.372 91.7891,-631.183 162,-698.5 165.553,-701.906 169.589,-704.829 173.903,-707.337"/>
<polygon fill="midnightblue" stroke="midnightblue" points="69.4963,-456.282 65.0485,-446.666 62.5289,-456.957 69.4963,-456.282"/>
</g>
<!-- Node6 -->
<g id="node6" class="node"><title>Node6</title>
<g id="a_node6"><a xlink:href="a00012.html" target="_top" xlink:title="dynamicgraph::command\l::CommandVoid3\&lt; E, T1,\l T2, T3 \&gt;">
<polygon fill="white" stroke="black" points="174,-648 174,-689 302,-689 302,-648 174,-648"/>
<text text-anchor="start" x="182" y="-677" font-family="Helvetica,sans-Serif" font-size="10.00">dynamicgraph::command</text>
<text text-anchor="start" x="182" y="-666" font-family="Helvetica,sans-Serif" font-size="10.00">::CommandVoid3&lt; E, T1,</text>
<text text-anchor="middle" x="238" y="-655" font-family="Helvetica,sans-Serif" font-size="10.00"> T2, T3 &gt;</text>
</a>
</g>
</g>
<!-- Node1&#45;&gt;Node6 -->
<g id="edge5" class="edge"><title>Node1&#45;&gt;Node6</title>
<path fill="none" stroke="midnightblue" d="M69.5318,-456.676C80.1971,-499.604 107.52,-587.28 162,-638.5 165.678,-641.958 169.805,-645.037 174.182,-647.775"/>
<polygon fill="midnightblue" stroke="midnightblue" points="72.8954,-455.692 67.1728,-446.775 66.086,-457.314 72.8954,-455.692"/>
</g>
<!-- Node7 -->
<g id="node7" class="node"><title>Node7</title>
<g id="a_node7"><a xlink:href="a00013.html" target="_top" xlink:title="dynamicgraph::command\l::CommandVoid4\&lt; E, T1,\l T2, T3, T4 \&gt;">
<polygon fill="white" stroke="black" points="174,-588 174,-629 302,-629 302,-588 174,-588"/>
<text text-anchor="start" x="182" y="-617" font-family="Helvetica,sans-Serif" font-size="10.00">dynamicgraph::command</text>
<text text-anchor="start" x="182" y="-606" font-family="Helvetica,sans-Serif" font-size="10.00">::CommandVoid4&lt; E, T1,</text>
<text text-anchor="middle" x="238" y="-595" font-family="Helvetica,sans-Serif" font-size="10.00"> T2, T3, T4 &gt;</text>
</a>
</g>
</g>
<!-- Node1&#45;&gt;Node7 -->
<g id="edge6" class="edge"><title>Node1&#45;&gt;Node7</title>
<path fill="none" stroke="midnightblue" d="M74.3961,-455.97C89.3316,-488.421 119.784,-545.54 162,-579.5 165.807,-582.563 169.975,-585.33 174.334,-587.825"/>
<polygon fill="midnightblue" stroke="midnightblue" points="77.5456,-454.439 70.2633,-446.744 71.1572,-457.301 77.5456,-454.439"/>
</g>
<!-- Node8 -->
<g id="node8" class="node"><title>Node8</title>
<g id="a_node8"><a xlink:href="a00017.html" target="_top" xlink:title="dynamicgraph::command\l::DirectGetter\&lt; E, T \&gt;">
<polygon fill="white" stroke="black" points="175,-539.5 175,-569.5 301,-569.5 301,-539.5 175,-539.5"/>
<text text-anchor="start" x="183" y="-557.5" font-family="Helvetica,sans-Serif" font-size="10.00">dynamicgraph::command</text>
<text text-anchor="middle" x="238" y="-546.5" font-family="Helvetica,sans-Serif" font-size="10.00">::DirectGetter&lt; E, T &gt;</text>
</a>
</g>
</g>
<!-- Node1&#45;&gt;Node8 -->
<g id="edge7" class="edge"><title>Node1&#45;&gt;Node8</title>
<path fill="none" stroke="midnightblue" d="M81.5223,-454.828C99.4585,-477.193 129.277,-510.433 162,-530.5 167.478,-533.859 173.472,-536.794 179.609,-539.346"/>
<polygon fill="midnightblue" stroke="midnightblue" points="84.1775,-452.542 75.2486,-446.839 78.6722,-456.866 84.1775,-452.542"/>
</g>
<!-- Node9 -->
<g id="node9" class="node"><title>Node9</title>
<g id="a_node9"><a xlink:href="a00018.html" target="_top" xlink:title="dynamicgraph::command\l::DirectSetter\&lt; E, T \&gt;">
<polygon fill="white" stroke="black" points="175,-490.5 175,-520.5 301,-520.5 301,-490.5 175,-490.5"/>
<text text-anchor="start" x="183" y="-508.5" font-family="Helvetica,sans-Serif" font-size="10.00">dynamicgraph::command</text>
<text text-anchor="middle" x="238" y="-497.5" font-family="Helvetica,sans-Serif" font-size="10.00">::DirectSetter&lt; E, T &gt;</text>
</a>
</g>
</g>
<!-- Node1&#45;&gt;Node9 -->
<g id="edge8" class="edge"><title>Node1&#45;&gt;Node9</title>
<path fill="none" stroke="midnightblue" d="M99.7515,-451.507C118.039,-461.283 140.849,-472.787 162,-481.5 169.711,-484.676 178.005,-487.702 186.168,-490.467"/>
<polygon fill="midnightblue" stroke="midnightblue" points="101.361,-448.398 90.8998,-446.721 98.032,-454.556 101.361,-448.398"/>
</g>
<!-- Node10 -->
<g id="node10" class="node"><title>Node10</title>
<g id="a_node10"><a xlink:href="a00028.html" target="_top" xlink:title="Command that calls a parameter getter function. ">
<polygon fill="white" stroke="black" points="175,-441.5 175,-471.5 301,-471.5 301,-441.5 175,-441.5"/>
<text text-anchor="start" x="183" y="-459.5" font-family="Helvetica,sans-Serif" font-size="10.00">dynamicgraph::command</text>
<text text-anchor="middle" x="238" y="-448.5" font-family="Helvetica,sans-Serif" font-size="10.00">::Getter&lt; E, T &gt;</text>
</a>
</g>
</g>
<!-- Node1&#45;&gt;Node10 -->
<g id="edge9" class="edge"><title>Node1&#45;&gt;Node10</title>
<path fill="none" stroke="midnightblue" d="M136.573,-441.987C149.325,-443.83 162.492,-445.733 174.925,-447.53"/>
<polygon fill="midnightblue" stroke="midnightblue" points="136.855,-438.492 126.457,-440.526 135.854,-445.42 136.855,-438.492"/>
</g>
<!-- Node11 -->
<g id="node11" class="node"><title>Node11</title>
<g id="a_node11"><a xlink:href="a00032.html" target="_top" xlink:title="Command that calls a parameter setter function. ">
<polygon fill="white" stroke="black" points="175,-392.5 175,-422.5 301,-422.5 301,-392.5 175,-392.5"/>
<text text-anchor="start" x="183" y="-410.5" font-family="Helvetica,sans-Serif" font-size="10.00">dynamicgraph::command</text>
<text text-anchor="middle" x="238" y="-399.5" font-family="Helvetica,sans-Serif" font-size="10.00">::Setter&lt; E, T &gt;</text>
</a>
</g>
</g>
<!-- Node1&#45;&gt;Node11 -->
<g id="edge10" class="edge"><title>Node1&#45;&gt;Node11</title>
<path fill="none" stroke="midnightblue" d="M136.573,-421.432C149.325,-419.663 162.492,-417.836 174.925,-416.112"/>
<polygon fill="midnightblue" stroke="midnightblue" points="135.881,-417.994 126.457,-422.835 136.843,-424.928 135.881,-417.994"/>
</g>
<!-- Node12 -->
<g id="node12" class="node"><title>Node12</title>
<g id="a_node12"><a xlink:href="a00033.html" target="_top" xlink:title="dynamicgraph::command\l::Setter\&lt; E, bool \&gt;">
<polygon fill="white" stroke="black" points="175,-343.5 175,-373.5 301,-373.5 301,-343.5 175,-343.5"/>
<text text-anchor="start" x="183" y="-361.5" font-family="Helvetica,sans-Serif" font-size="10.00">dynamicgraph::command</text>
<text text-anchor="middle" x="238" y="-350.5" font-family="Helvetica,sans-Serif" font-size="10.00">::Setter&lt; E, bool &gt;</text>
</a>
</g>
</g>
<!-- Node1&#45;&gt;Node12 -->
<g id="edge11" class="edge"><title>Node1&#45;&gt;Node12</title>
<path fill="none" stroke="midnightblue" d="M101.314,-411.763C119.382,-402.585 141.546,-391.874 162,-383.5 170.51,-380.016 179.703,-376.643 188.638,-373.562"/>
<polygon fill="midnightblue" stroke="midnightblue" points="99.5702,-408.723 92.2701,-416.402 102.765,-414.952 99.5702,-408.723"/>
</g>
<!-- Node13 -->
<g id="node13" class="node"><title>Node13</title>
<g id="a_node13"><a xlink:href="a00034.html" target="_top" xlink:title="dynamicgraph::command\l::Setter\&lt; E, double \&gt;">
<polygon fill="white" stroke="black" points="175,-294.5 175,-324.5 301,-324.5 301,-294.5 175,-294.5"/>
<text text-anchor="start" x="183" y="-312.5" font-family="Helvetica,sans-Serif" font-size="10.00">dynamicgraph::command</text>
<text text-anchor="middle" x="238" y="-301.5" font-family="Helvetica,sans-Serif" font-size="10.00">::Setter&lt; E, double &gt;</text>
</a>
</g>
</g>
<!-- Node1&#45;&gt;Node13 -->
<g id="edge12" class="edge"><title>Node1&#45;&gt;Node13</title>
<path fill="none" stroke="midnightblue" d="M81.9778,-408.376C100.059,-386.543 129.808,-354.282 162,-334.5 168.198,-330.692 175.044,-327.388 182.004,-324.545"/>
<polygon fill="midnightblue" stroke="midnightblue" points="79.2236,-406.216 75.6385,-416.186 84.6584,-410.628 79.2236,-406.216"/>
</g>
<!-- Node14 -->
<g id="node14" class="node"><title>Node14</title>
<g id="a_node14"><a xlink:href="a00035.html" target="_top" xlink:title="dynamicgraph::command\l::Setter\&lt; E, float \&gt;">
<polygon fill="white" stroke="black" points="175,-245.5 175,-275.5 301,-275.5 301,-245.5 175,-245.5"/>
<text text-anchor="start" x="183" y="-263.5" font-family="Helvetica,sans-Serif" font-size="10.00">dynamicgraph::command</text>
<text text-anchor="middle" x="238" y="-252.5" font-family="Helvetica,sans-Serif" font-size="10.00">::Setter&lt; E, float &gt;</text>
</a>
</g>
</g>
<!-- Node1&#45;&gt;Node14 -->
<g id="edge13" class="edge"><title>Node1&#45;&gt;Node14</title>
<path fill="none" stroke="midnightblue" d="M74.2522,-407.069C89.0253,-374.728 119.295,-318.011 162,-285.5 167.023,-281.676 172.663,-278.418 178.536,-275.648"/>
<polygon fill="midnightblue" stroke="midnightblue" points="71.0264,-405.71 70.1684,-416.27 77.4244,-408.55 71.0264,-405.71"/>
</g>
<!-- Node15 -->
<g id="node15" class="node"><title>Node15</title>
<g id="a_node15"><a xlink:href="a00036.html" target="_top" xlink:title="dynamicgraph::command\l::Setter\&lt; E, int \&gt;">
<polygon fill="white" stroke="black" points="175,-196.5 175,-226.5 301,-226.5 301,-196.5 175,-196.5"/>
<text text-anchor="start" x="183" y="-214.5" font-family="Helvetica,sans-Serif" font-size="10.00">dynamicgraph::command</text>
<text text-anchor="middle" x="238" y="-203.5" font-family="Helvetica,sans-Serif" font-size="10.00">::Setter&lt; E, int &gt;</text>
</a>
</g>
</g>
<!-- Node1&#45;&gt;Node15 -->
<g id="edge14" class="edge"><title>Node1&#45;&gt;Node15</title>
<path fill="none" stroke="midnightblue" d="M69.8898,-406.574C80.9049,-365.318 108.5,-282.804 162,-236.5 166.463,-232.638 171.542,-229.368 176.905,-226.6"/>
<polygon fill="midnightblue" stroke="midnightblue" points="66.4743,-405.803 67.384,-416.359 73.2555,-407.54 66.4743,-405.803"/>
</g>
<!-- Node16 -->
<g id="node16" class="node"><title>Node16</title>
<g id="a_node16"><a xlink:href="a00037.html" target="_top" xlink:title="dynamicgraph::command\l::Setter\&lt; E, Matrix \&gt;">
<polygon fill="white" stroke="black" points="175,-147.5 175,-177.5 301,-177.5 301,-147.5 175,-147.5"/>
<text text-anchor="start" x="183" y="-165.5" font-family="Helvetica,sans-Serif" font-size="10.00">dynamicgraph::command</text>
<text text-anchor="middle" x="238" y="-154.5" font-family="Helvetica,sans-Serif" font-size="10.00">::Setter&lt; E, Matrix &gt;</text>
</a>
</g>
</g>
<!-- Node1&#45;&gt;Node16 -->
<g id="edge15" class="edge"><title>Node1&#45;&gt;Node16</title>
<path fill="none" stroke="midnightblue" d="M67.0798,-406.411C74.417,-357.373 97.4211,-248.306 162,-187.5 166.097,-183.642 170.805,-180.379 175.824,-177.619"/>
<polygon fill="midnightblue" stroke="midnightblue" points="63.5933,-406.072 65.6727,-416.46 70.5257,-407.042 63.5933,-406.072"/>
</g>
<!-- Node17 -->
<g id="node17" class="node"><title>Node17</title>
<g id="a_node17"><a xlink:href="a00038.html" target="_top" xlink:title="dynamicgraph::command\l::Setter\&lt; E, std::string \&gt;">
<polygon fill="white" stroke="black" points="175,-98.5 175,-128.5 301,-128.5 301,-98.5 175,-98.5"/>
<text text-anchor="start" x="183" y="-116.5" font-family="Helvetica,sans-Serif" font-size="10.00">dynamicgraph::command</text>
<text text-anchor="middle" x="238" y="-105.5" font-family="Helvetica,sans-Serif" font-size="10.00">::Setter&lt; E, std::string &gt;</text>
</a>
</g>
</g>
<!-- Node1&#45;&gt;Node17 -->
<g id="edge16" class="edge"><title>Node1&#45;&gt;Node17</title>
<path fill="none" stroke="midnightblue" d="M65.1399,-406.193C69.0354,-350.077 86.2242,-214.198 162,-138.5 165.884,-134.62 170.385,-131.342 175.216,-128.573"/>
<polygon fill="midnightblue" stroke="midnightblue" points="61.6382,-406.118 64.5246,-416.312 68.6253,-406.543 61.6382,-406.118"/>
</g>
<!-- Node18 -->
<g id="node18" class="node"><title>Node18</title>
<g id="a_node18"><a xlink:href="a00039.html" target="_top" xlink:title="dynamicgraph::command\l::Setter\&lt; E, unsigned \&gt;">
<polygon fill="white" stroke="black" points="175,-49.5 175,-79.5 301,-79.5 301,-49.5 175,-49.5"/>
<text text-anchor="start" x="183" y="-67.5" font-family="Helvetica,sans-Serif" font-size="10.00">dynamicgraph::command</text>
<text text-anchor="middle" x="238" y="-56.5" font-family="Helvetica,sans-Serif" font-size="10.00">::Setter&lt; E, unsigned &gt;</text>
</a>
</g>
</g>
<!-- Node1&#45;&gt;Node18 -->
<g id="edge17" class="edge"><title>Node1&#45;&gt;Node18</title>
<path fill="none" stroke="midnightblue" d="M63.6951,-406.379C64.3304,-344.012 74.7247,-180.582 162,-89.5 165.703,-85.6351 170.019,-82.3675 174.674,-79.6051"/>
<polygon fill="midnightblue" stroke="midnightblue" points="60.195,-406.474 63.6717,-416.482 67.195,-406.49 60.195,-406.474"/>
</g>
<!-- Node19 -->
<g id="node19" class="node"><title>Node19</title>
<g id="a_node19"><a xlink:href="a00040.html" target="_top" xlink:title="dynamicgraph::command\l::Setter\&lt; E, Vector \&gt;">
<polygon fill="white" stroke="black" points="175,-0.5 175,-30.5 301,-30.5 301,-0.5 175,-0.5"/>
<text text-anchor="start" x="183" y="-18.5" font-family="Helvetica,sans-Serif" font-size="10.00">dynamicgraph::command</text>
<text text-anchor="middle" x="238" y="-7.5" font-family="Helvetica,sans-Serif" font-size="10.00">::Setter&lt; E, Vector &gt;</text>
</a>
</g>
</g>
<!-- Node1&#45;&gt;Node19 -->
<g id="edge18" class="edge"><title>Node1&#45;&gt;Node19</title>
<path fill="none" stroke="midnightblue" d="M67.2115,-405.719C77.4386,-327.503 111.565,-94.9308 162,-40.5 165.731,-36.4729 170.128,-33.094 174.89,-30.2589"/>
<polygon fill="midnightblue" stroke="midnightblue" points="63.6807,-405.735 65.8769,-416.099 70.6236,-406.627 63.6807,-405.735"/>
</g>
</g>
</svg>
