<?xml version="1.0" encoding="UTF-8" standalone="no"?>
<!DOCTYPE svg PUBLIC "-//W3C//DTD SVG 1.1//EN"
 "http://www.w3.org/Graphics/SVG/1.1/DTD/svg11.dtd">
<!-- Generated by graphviz version 2.38.0 (20140413.2041)
 -->
<!-- Title: dynamicgraph::OutStringStream Pages: 1 -->
<svg width="246pt" height="345pt"
 viewBox="0.00 0.00 245.50 345.00" xmlns="http://www.w3.org/2000/svg" xmlns:xlink="http://www.w3.org/1999/xlink">
<g id="graph0" class="graph" transform="scale(1 1) rotate(0) translate(4 341)">
<title>dynamicgraph::OutStringStream</title>
<polygon fill="white" stroke="none" points="-4,4 -4,-341 241.5,-341 241.5,4 -4,4"/>
<!-- Node1 -->
<g id="node1" class="node"><title>Node1</title>
<polygon fill="#bfbfbf" stroke="black" points="61,-0.5 61,-19.5 217,-19.5 217,-0.5 61,-0.5"/>
<text text-anchor="middle" x="139" y="-7.5" font-family="Helvetica,sans-Serif" font-size="10.00">dynamicgraph::OutStringStream</text>
</g>
<!-- Node2 -->
<g id="node2" class="node"><title>Node2</title>
<g id="a_node2"><a xlink:title="STL class. ">
<polygon fill="white" stroke="#bfbfbf" points="26.5,-67.5 26.5,-86.5 121.5,-86.5 121.5,-67.5 26.5,-67.5"/>
<text text-anchor="middle" x="74" y="-74.5" font-family="Helvetica,sans-Serif" font-size="10.00">std::ostringstream</text>
</a>
</g>
</g>
<!-- Node2&#45;&gt;Node1 -->
<g id="edge1" class="edge"><title>Node2&#45;&gt;Node1</title>
<path fill="none" stroke="midnightblue" d="M90.0032,-59.9968C102.75,-47.2496 120.105,-29.8947 130.373,-19.6273"/>
<polygon fill="midnightblue" stroke="midnightblue" points="87.3624,-57.6878 82.7662,-67.2338 92.3122,-62.6376 87.3624,-57.6878"/>
</g>
<!-- Node3 -->
<g id="node3" class="node"><title>Node3</title>
<g id="a_node3"><a xlink:title="STL class. ">
<polygon fill="white" stroke="#bfbfbf" points="0,-124.5 0,-154.5 124,-154.5 124,-124.5 0,-124.5"/>
<text text-anchor="start" x="8" y="-142.5" font-family="Helvetica,sans-Serif" font-size="10.00">std::basic_ostringstream</text>
<text text-anchor="middle" x="62" y="-131.5" font-family="Helvetica,sans-Serif" font-size="10.00">&lt; char &gt;</text>
</a>
</g>
</g>
<!-- Node3&#45;&gt;Node2 -->
<g id="edge2" class="edge"><title>Node3&#45;&gt;Node2</title>
<path fill="none" stroke="midnightblue" d="M66.7896,-114.352C68.7412,-104.513 70.871,-93.7753 72.3061,-86.5399"/>
<polygon fill="midnightblue" stroke="midnightblue" points="63.2957,-113.978 64.7832,-124.468 70.162,-115.34 63.2957,-113.978"/>
</g>
<!-- Node4 -->
<g id="node4" class="node"><title>Node4</title>
<g id="a_node4"><a xlink:title="STL class. ">
<polygon fill="white" stroke="#bfbfbf" points="12,-192.5 12,-222.5 112,-222.5 112,-192.5 12,-192.5"/>
<text text-anchor="start" x="20" y="-210.5" font-family="Helvetica,sans-Serif" font-size="10.00">std::basic_ostream</text>
<text text-anchor="middle" x="62" y="-199.5" font-family="Helvetica,sans-Serif" font-size="10.00">&lt; Char &gt;</text>
</a>
</g>
</g>
<!-- Node4&#45;&gt;Node3 -->
<g id="edge3" class="edge"><title>Node4&#45;&gt;Node3</title>
<path fill="none" stroke="midnightblue" d="M62,-182.032C62,-172.861 62,-162.745 62,-154.793"/>
<polygon fill="midnightblue" stroke="midnightblue" points="58.5001,-182.179 62,-192.179 65.5001,-182.179 58.5001,-182.179"/>
</g>
<!-- Node5 -->
<g id="node5" class="node"><title>Node5</title>
<g id="a_node5"><a xlink:title="STL class. ">
<polygon fill="white" stroke="#bfbfbf" points="4,-260.5 4,-279.5 120,-279.5 120,-260.5 4,-260.5"/>
<text text-anchor="middle" x="62" y="-267.5" font-family="Helvetica,sans-Serif" font-size="10.00">std::basic_ios&lt; Char &gt;</text>
</a>
</g>
</g>
<!-- Node5&#45;&gt;Node4 -->
<g id="edge4" class="edge"><title>Node5&#45;&gt;Node4</title>
<path fill="none" stroke="midnightblue" d="M62,-250.215C62,-241.356 62,-230.958 62,-222.759"/>
<polygon fill="midnightblue" stroke="midnightblue" points="58.5001,-250.332 62,-260.332 65.5001,-250.332 58.5001,-250.332"/>
</g>
<!-- Node6 -->
<g id="node6" class="node"><title>Node6</title>
<g id="a_node6"><a xlink:title="STL class. ">
<polygon fill="white" stroke="#bfbfbf" points="24.5,-317.5 24.5,-336.5 99.5,-336.5 99.5,-317.5 24.5,-317.5"/>
<text text-anchor="middle" x="62" y="-324.5" font-family="Helvetica,sans-Serif" font-size="10.00">std::ios_base</text>
</a>
</g>
</g>
<!-- Node6&#45;&gt;Node5 -->
<g id="edge5" class="edge"><title>Node6&#45;&gt;Node5</title>
<path fill="none" stroke="midnightblue" d="M62,-307.117C62,-297.817 62,-287.056 62,-279.715"/>
<polygon fill="midnightblue" stroke="midnightblue" points="58.5001,-307.406 62,-317.406 65.5001,-307.406 58.5001,-307.406"/>
</g>
<!-- Node7 -->
<g id="node7" class="node"><title>Node7</title>
<g id="a_node7"><a xlink:title="STL class. ">
<polygon fill="white" stroke="#bfbfbf" points="156,-67.5 156,-86.5 216,-86.5 216,-67.5 156,-67.5"/>
<text text-anchor="middle" x="186" y="-74.5" font-family="Helvetica,sans-Serif" font-size="10.00">std::string</text>
</a>
</g>
</g>
<!-- Node7&#45;&gt;Node1 -->
<g id="edge6" class="edge"><title>Node7&#45;&gt;Node1</title>
<path fill="none" stroke="#9a32cd" stroke-dasharray="5,2" d="M173.638,-58.9037C164.505,-46.2729 152.452,-29.6041 145.238,-19.6273"/>
<polygon fill="#9a32cd" stroke="#9a32cd" points="170.966,-61.1811 179.661,-67.2338 176.638,-57.0795 170.966,-61.1811"/>
<text text-anchor="middle" x="191.5" y="-41" font-family="Helvetica,sans-Serif" font-size="10.00"> givenname</text>
</g>
<!-- Node8 -->
<g id="node8" class="node"><title>Node8</title>
<g id="a_node8"><a xlink:title="STL class. ">
<polygon fill="white" stroke="#bfbfbf" points="142.5,-124.5 142.5,-154.5 237.5,-154.5 237.5,-124.5 142.5,-124.5"/>
<text text-anchor="start" x="150.5" y="-142.5" font-family="Helvetica,sans-Serif" font-size="10.00">std::basic_string&lt;</text>
<text text-anchor="middle" x="190" y="-131.5" font-family="Helvetica,sans-Serif" font-size="10.00"> char &gt;</text>
</a>
</g>
</g>
<!-- Node8&#45;&gt;Node7 -->
<g id="edge7" class="edge"><title>Node8&#45;&gt;Node7</title>
<path fill="none" stroke="midnightblue" d="M188.403,-114.352C187.753,-104.513 187.043,-93.7753 186.565,-86.5399"/>
<polygon fill="midnightblue" stroke="midnightblue" points="184.92,-114.721 189.072,-124.468 191.905,-114.259 184.92,-114.721"/>
</g>
</g>
</svg>
