<?xml version="1.0" encoding="UTF-8" standalone="no"?>
<!DOCTYPE svg PUBLIC "-//W3C//DTD SVG 1.1//EN"
 "http://www.w3.org/Graphics/SVG/1.1/DTD/svg11.dtd">
<!-- Generated by graphviz version 2.38.0 (20140413.2041)
 -->
<!-- Title: dynamicgraph::TracerRealTime Pages: 1 -->
<svg width="1874pt" height="483pt"
 viewBox="0.00 0.00 1874.00 482.50" xmlns="http://www.w3.org/2000/svg" xmlns:xlink="http://www.w3.org/1999/xlink">
<g id="graph0" class="graph" transform="scale(1 1) rotate(0) translate(4 478.5)">
<title>dynamicgraph::TracerRealTime</title>
<polygon fill="white" stroke="none" points="-4,4 -4,-478.5 1870,-478.5 1870,4 -4,4"/>
<!-- Node1 -->
<g id="node1" class="node"><title>Node1</title>
<polygon fill="#bfbfbf" stroke="black" points="1713,-142 1713,-161 1866,-161 1866,-142 1713,-142"/>
<text text-anchor="middle" x="1789.5" y="-149" font-family="Helvetica,sans-Serif" font-size="10.00">dynamicgraph::TracerRealTime</text>
</g>
<!-- Node2 -->
<g id="node2" class="node"><title>Node2</title>
<g id="a_node2"><a xlink:href="a00051.html" target="_top" xlink:title="Tracer plug&#45;in main class. ">
<polygon fill="white" stroke="black" points="1513,-182 1513,-201 1624,-201 1624,-182 1513,-182"/>
<text text-anchor="middle" x="1568.5" y="-189" font-family="Helvetica,sans-Serif" font-size="10.00">dynamicgraph::Tracer</text>
</a>
</g>
</g>
<!-- Node2&#45;&gt;Node1 -->
<g id="edge1" class="edge"><title>Node2&#45;&gt;Node1</title>
<path fill="none" stroke="midnightblue" d="M1631.69,-180.141C1664.75,-174.103 1704.93,-166.764 1736.34,-161.026"/>
<polygon fill="midnightblue" stroke="midnightblue" points="1630.89,-176.73 1621.68,-181.97 1632.14,-183.616 1630.89,-176.73"/>
</g>
<!-- Node3 -->
<g id="node3" class="node"><title>Node3</title>
<g id="a_node3"><a xlink:href="a00020.html" target="_top" xlink:title="This class represents an entity, i.e. ">
<polygon fill="white" stroke="black" points="1052.5,-286 1052.5,-305 1161.5,-305 1161.5,-286 1052.5,-286"/>
<text text-anchor="middle" x="1107" y="-293" font-family="Helvetica,sans-Serif" font-size="10.00">dynamicgraph::Entity</text>
</a>
</g>
</g>
<!-- Node3&#45;&gt;Node2 -->
<g id="edge2" class="edge"><title>Node3&#45;&gt;Node2</title>
<path fill="none" stroke="midnightblue" d="M1159.9,-283.753C1251.74,-262.966 1441.14,-220.1 1525.44,-201.02"/>
<polygon fill="midnightblue" stroke="midnightblue" points="1158.98,-280.374 1150,-285.995 1160.52,-287.201 1158.98,-280.374"/>
</g>
<!-- Node4 -->
<g id="node4" class="node"><title>Node4</title>
<polygon fill="white" stroke="#bfbfbf" points="778.5,-330 778.5,-349 849.5,-349 849.5,-330 778.5,-330"/>
<text text-anchor="middle" x="814" y="-337" font-family="Helvetica,sans-Serif" font-size="10.00">noncopyable</text>
</g>
<!-- Node4&#45;&gt;Node3 -->
<g id="edge3" class="edge"><title>Node4&#45;&gt;Node3</title>
<path fill="none" stroke="#8b1a1a" d="M859.76,-332.874C899.087,-327.037 957.851,-318.278 1009,-310.5 1023.07,-308.361 1038.28,-306.021 1052.39,-303.84"/>
<polygon fill="#8b1a1a" stroke="#8b1a1a" points="859.08,-329.437 849.702,-334.366 860.107,-336.361 859.08,-329.437"/>
</g>
<!-- Node5 -->
<g id="node5" class="node"><title>Node5</title>
<polygon fill="white" stroke="#bfbfbf" points="439,-239.5 439,-269.5 601,-269.5 601,-239.5 439,-239.5"/>
<text text-anchor="start" x="447" y="-257.5" font-family="Helvetica,sans-Serif" font-size="10.00">std::map&lt; const std</text>
<text text-anchor="middle" x="520" y="-246.5" font-family="Helvetica,sans-Serif" font-size="10.00">::string, command::Command * &gt;</text>
</g>
<!-- Node5&#45;&gt;Node3 -->
<g id="edge4" class="edge"><title>Node5&#45;&gt;Node3</title>
<path fill="none" stroke="#9a32cd" stroke-dasharray="5,2" d="M611.307,-252.143C684.227,-251.109 789.407,-251.578 881,-259.5 943.074,-264.869 1013.93,-277.258 1059.27,-285.997"/>
<polygon fill="#9a32cd" stroke="#9a32cd" points="611.182,-248.645 601.237,-252.299 611.29,-255.644 611.182,-248.645"/>
<text text-anchor="middle" x="814" y="-262.5" font-family="Helvetica,sans-Serif" font-size="10.00"> commandMap</text>
</g>
<!-- Node6 -->
<g id="node6" class="node"><title>Node6</title>
<g id="a_node6"><a xlink:href="a00007.html" target="_top" xlink:title="Abstract class for entity commands. ">
<polygon fill="white" stroke="black" points="234,-229.5 234,-259.5 360,-259.5 360,-229.5 234,-229.5"/>
<text text-anchor="start" x="242" y="-247.5" font-family="Helvetica,sans-Serif" font-size="10.00">dynamicgraph::command</text>
<text text-anchor="middle" x="297" y="-236.5" font-family="Helvetica,sans-Serif" font-size="10.00">::Command</text>
</a>
</g>
</g>
<!-- Node6&#45;&gt;Node5 -->
<g id="edge5" class="edge"><title>Node6&#45;&gt;Node5</title>
<path fill="none" stroke="#9a32cd" stroke-dasharray="5,2" d="M370.482,-244.084C387.089,-244.268 404.662,-244.685 421,-245.5 426.802,-245.789 432.791,-246.161 438.816,-246.587"/>
<polygon fill="#9a32cd" stroke="#9a32cd" points="370.316,-240.583 360.287,-243.998 370.257,-247.582 370.316,-240.583"/>
<text text-anchor="middle" x="399.5" y="-248.5" font-family="Helvetica,sans-Serif" font-size="10.00"> elements</text>
</g>
<!-- Node7 -->
<g id="node7" class="node"><title>Node7</title>
<polygon fill="white" stroke="#bfbfbf" points="0,-229.5 0,-259.5 133,-259.5 133,-229.5 0,-229.5"/>
<text text-anchor="start" x="8" y="-247.5" font-family="Helvetica,sans-Serif" font-size="10.00">std::vector&lt; dynamicgraph</text>
<text text-anchor="middle" x="66.5" y="-236.5" font-family="Helvetica,sans-Serif" font-size="10.00">::command::Value::Type &gt;</text>
</g>
<!-- Node7&#45;&gt;Node6 -->
<g id="edge6" class="edge"><title>Node7&#45;&gt;Node6</title>
<path fill="none" stroke="#9a32cd" stroke-dasharray="5,2" d="M143.485,-244.5C172.813,-244.5 205.944,-244.5 233.816,-244.5"/>
<polygon fill="#9a32cd" stroke="#9a32cd" points="143.285,-241 133.285,-244.5 143.285,-248 143.285,-241"/>
<text text-anchor="middle" x="183.5" y="-247.5" font-family="Helvetica,sans-Serif" font-size="10.00"> EMPTY_ARG</text>
</g>
<!-- Node8 -->
<g id="node8" class="node"><title>Node8</title>
<g id="a_node8"><a xlink:title="STL class. ">
<polygon fill="white" stroke="#bfbfbf" points="267,-348 267,-367 327,-367 327,-348 267,-348"/>
<text text-anchor="middle" x="297" y="-355" font-family="Helvetica,sans-Serif" font-size="10.00">std::string</text>
</a>
</g>
</g>
<!-- Node8&#45;&gt;Node2 -->
<g id="edge22" class="edge"><title>Node8&#45;&gt;Node2</title>
<path fill="none" stroke="#9a32cd" stroke-dasharray="5,2" d="M328.877,-370.982C370.999,-388.118 449.226,-415.5 519,-415.5 519,-415.5 519,-415.5 1359,-415.5 1478.01,-415.5 1548.38,-244 1564.12,-201.125"/>
<polygon fill="#9a32cd" stroke="#9a32cd" points="330.043,-367.676 319.465,-367.078 327.361,-374.142 330.043,-367.676"/>
<text text-anchor="middle" x="954" y="-440.5" font-family="Helvetica,sans-Serif" font-size="10.00"> suffix</text>
<text text-anchor="middle" x="954" y="-429.5" font-family="Helvetica,sans-Serif" font-size="10.00">basename</text>
<text text-anchor="middle" x="954" y="-418.5" font-family="Helvetica,sans-Serif" font-size="10.00">rootdir</text>
</g>
<!-- Node8&#45;&gt;Node3 -->
<g id="edge9" class="edge"><title>Node8&#45;&gt;Node3</title>
<path fill="none" stroke="#9a32cd" stroke-dasharray="5,2" d="M337.436,-360.355C431.697,-366.573 677.384,-379.194 881,-358.5 938.753,-352.63 953.249,-348.677 1009,-332.5 1035.31,-324.866 1064.57,-313.253 1084.01,-305.078"/>
<polygon fill="#9a32cd" stroke="#9a32cd" points="337.436,-356.847 327.223,-359.667 336.965,-363.831 337.436,-356.847"/>
<text text-anchor="middle" x="674" y="-373.5" font-family="Helvetica,sans-Serif" font-size="10.00"> name</text>
</g>
<!-- Node8&#45;&gt;Node5 -->
<g id="edge7" class="edge"><title>Node8&#45;&gt;Node5</title>
<path fill="none" stroke="#9a32cd" stroke-dasharray="5,2" d="M323.273,-342.696C338.837,-333.807 359.321,-322.513 378,-313.5 411.817,-297.182 451.328,-280.878 479.907,-269.557"/>
<polygon fill="#9a32cd" stroke="#9a32cd" points="321.196,-339.853 314.279,-347.878 324.691,-345.919 321.196,-339.853"/>
<text text-anchor="middle" x="399.5" y="-316.5" font-family="Helvetica,sans-Serif" font-size="10.00"> keys</text>
</g>
<!-- Node10 -->
<g id="node10" class="node"><title>Node10</title>
<polygon fill="white" stroke="#bfbfbf" points="757.5,-280.5 757.5,-310.5 870.5,-310.5 870.5,-280.5 757.5,-280.5"/>
<text text-anchor="start" x="765.5" y="-298.5" font-family="Helvetica,sans-Serif" font-size="10.00">std::map&lt; std::string,</text>
<text text-anchor="middle" x="814" y="-287.5" font-family="Helvetica,sans-Serif" font-size="10.00"> SignalBase&lt; int &gt; * &gt;</text>
</g>
<!-- Node8&#45;&gt;Node10 -->
<g id="edge11" class="edge"><title>Node8&#45;&gt;Node10</title>
<path fill="none" stroke="#9a32cd" stroke-dasharray="5,2" d="M337.293,-352.77C427.981,-341.852 652.146,-314.865 757.107,-302.229"/>
<polygon fill="#9a32cd" stroke="#9a32cd" points="336.674,-349.319 327.164,-353.989 337.511,-356.269 336.674,-349.319"/>
<text text-anchor="middle" x="520" y="-343.5" font-family="Helvetica,sans-Serif" font-size="10.00"> keys</text>
</g>
<!-- Node11 -->
<g id="node11" class="node"><title>Node11</title>
<g id="a_node11"><a xlink:href="a00044.html" target="_top" xlink:title="dynamicgraph::SignalBase\l\&lt; int \&gt;">
<polygon fill="white" stroke="black" points="453.5,-180.5 453.5,-210.5 586.5,-210.5 586.5,-180.5 453.5,-180.5"/>
<text text-anchor="start" x="461.5" y="-198.5" font-family="Helvetica,sans-Serif" font-size="10.00">dynamicgraph::SignalBase</text>
<text text-anchor="middle" x="520" y="-187.5" font-family="Helvetica,sans-Serif" font-size="10.00">&lt; int &gt;</text>
</a>
</g>
</g>
<!-- Node8&#45;&gt;Node11 -->
<g id="edge14" class="edge"><title>Node8&#45;&gt;Node11</title>
<path fill="none" stroke="#9a32cd" stroke-dasharray="5,2" d="M313.21,-340.044C328.471,-323.199 353.209,-297.65 378,-279.5 395.488,-266.697 404.951,-271.066 421,-256.5 431.68,-246.808 427.898,-238.706 439,-229.5 448.409,-221.697 459.873,-215.428 471.15,-210.504"/>
<polygon fill="#9a32cd" stroke="#9a32cd" points="310.183,-338.18 306.143,-347.974 315.409,-342.837 310.183,-338.18"/>
<text text-anchor="middle" x="399.5" y="-282.5" font-family="Helvetica,sans-Serif" font-size="10.00"> name</text>
</g>
<!-- Node22 -->
<g id="node22" class="node"><title>Node22</title>
<polygon fill="white" stroke="#bfbfbf" points="619,-451 619,-470 729,-470 729,-451 619,-451"/>
<text text-anchor="middle" x="674" y="-458" font-family="Helvetica,sans-Serif" font-size="10.00">std::list&lt; std::string &gt;</text>
</g>
<!-- Node8&#45;&gt;Node22 -->
<g id="edge30" class="edge"><title>Node8&#45;&gt;Node22</title>
<path fill="none" stroke="#9a32cd" stroke-dasharray="5,2" d="M311.764,-375.123C326.236,-392.228 350.67,-417.336 378,-429.5 456.334,-464.365 557.56,-466.992 618.765,-464.567"/>
<polygon fill="#9a32cd" stroke="#9a32cd" points="314.179,-372.547 305.142,-367.018 308.759,-376.976 314.179,-372.547"/>
<text text-anchor="middle" x="399.5" y="-445.5" font-family="Helvetica,sans-Serif" font-size="10.00"> elements</text>
</g>
<!-- Node9 -->
<g id="node9" class="node"><title>Node9</title>
<g id="a_node9"><a xlink:title="STL class. ">
<polygon fill="white" stroke="#bfbfbf" points="19,-342.5 19,-372.5 114,-372.5 114,-342.5 19,-342.5"/>
<text text-anchor="start" x="27" y="-360.5" font-family="Helvetica,sans-Serif" font-size="10.00">std::basic_string&lt;</text>
<text text-anchor="middle" x="66.5" y="-349.5" font-family="Helvetica,sans-Serif" font-size="10.00"> char &gt;</text>
</a>
</g>
</g>
<!-- Node9&#45;&gt;Node8 -->
<g id="edge8" class="edge"><title>Node9&#45;&gt;Node8</title>
<path fill="none" stroke="midnightblue" d="M124.282,-357.5C169.566,-357.5 231.136,-357.5 266.919,-357.5"/>
<polygon fill="midnightblue" stroke="midnightblue" points="124.016,-354 114.016,-357.5 124.016,-361 124.016,-354"/>
</g>
<!-- Node10&#45;&gt;Node3 -->
<g id="edge10" class="edge"><title>Node10&#45;&gt;Node3</title>
<path fill="none" stroke="#9a32cd" stroke-dasharray="5,2" d="M880.858,-295.5C932.69,-295.5 1004.01,-295.5 1052.39,-295.5"/>
<polygon fill="#9a32cd" stroke="#9a32cd" points="880.763,-292 870.763,-295.5 880.763,-299 880.763,-292"/>
<text text-anchor="middle" x="954" y="-298.5" font-family="Helvetica,sans-Serif" font-size="10.00"> signalMap</text>
</g>
<!-- Node11&#45;&gt;Node10 -->
<g id="edge12" class="edge"><title>Node11&#45;&gt;Node10</title>
<path fill="none" stroke="#9a32cd" stroke-dasharray="5,2" d="M574.757,-213.91C630.665,-233.057 717.138,-262.671 769.088,-280.462"/>
<polygon fill="#9a32cd" stroke="#9a32cd" points="575.626,-210.508 565.032,-210.579 573.358,-217.13 575.626,-210.508"/>
<text text-anchor="middle" x="674" y="-269.5" font-family="Helvetica,sans-Serif" font-size="10.00"> elements</text>
</g>
<!-- Node18 -->
<g id="node18" class="node"><title>Node18</title>
<polygon fill="white" stroke="#bfbfbf" points="747,-98.5 747,-128.5 881,-128.5 881,-98.5 747,-98.5"/>
<text text-anchor="start" x="755" y="-116.5" font-family="Helvetica,sans-Serif" font-size="10.00">std::list&lt; const SignalBase</text>
<text text-anchor="middle" x="814" y="-105.5" font-family="Helvetica,sans-Serif" font-size="10.00">&lt; int &gt; * &gt;</text>
</g>
<!-- Node11&#45;&gt;Node18 -->
<g id="edge21" class="edge"><title>Node11&#45;&gt;Node18</title>
<path fill="none" stroke="#9a32cd" stroke-dasharray="5,2" d="M550.859,-174.861C569.6,-162.916 594.738,-148.671 619,-140.5 660.25,-126.608 708.75,-119.858 746.938,-116.581"/>
<polygon fill="#9a32cd" stroke="#9a32cd" points="548.933,-171.939 542.465,-180.33 552.754,-177.804 548.933,-171.939"/>
<text text-anchor="middle" x="674" y="-143.5" font-family="Helvetica,sans-Serif" font-size="10.00"> elements</text>
</g>
<!-- Node20 -->
<g id="node20" class="node"><title>Node20</title>
<g id="a_node20"><a xlink:href="a00041.html" target="_top" xlink:title="dynamicgraph::Signal\l\&lt; int, int \&gt;">
<polygon fill="white" stroke="black" points="899,-189.5 899,-219.5 1009,-219.5 1009,-189.5 899,-189.5"/>
<text text-anchor="start" x="907" y="-207.5" font-family="Helvetica,sans-Serif" font-size="10.00">dynamicgraph::Signal</text>
<text text-anchor="middle" x="954" y="-196.5" font-family="Helvetica,sans-Serif" font-size="10.00">&lt; int, int &gt;</text>
</a>
</g>
</g>
<!-- Node11&#45;&gt;Node20 -->
<g id="edge25" class="edge"><title>Node11&#45;&gt;Node20</title>
<path fill="none" stroke="midnightblue" d="M596.624,-197.076C683.074,-198.877 822.446,-201.78 898.757,-203.37"/>
<polygon fill="midnightblue" stroke="midnightblue" points="596.682,-193.576 586.612,-196.867 596.536,-200.575 596.682,-193.576"/>
</g>
<!-- Node21 -->
<g id="node21" class="node"><title>Node21</title>
<g id="a_node21"><a xlink:href="a00050.html" target="_top" xlink:title="dynamicgraph::TimeDependency\l\&lt; int \&gt;">
<polygon fill="white" stroke="black" points="1027,-145.5 1027,-175.5 1187,-175.5 1187,-145.5 1027,-145.5"/>
<text text-anchor="start" x="1035" y="-163.5" font-family="Helvetica,sans-Serif" font-size="10.00">dynamicgraph::TimeDependency</text>
<text text-anchor="middle" x="1107" y="-152.5" font-family="Helvetica,sans-Serif" font-size="10.00">&lt; int &gt;</text>
</a>
</g>
</g>
<!-- Node11&#45;&gt;Node21 -->
<g id="edge28" class="edge"><title>Node11&#45;&gt;Node21</title>
<path fill="none" stroke="#9a32cd" stroke-dasharray="5,2" d="M596.802,-190.965C707.832,-184.322 913.72,-172.004 1026.7,-165.244"/>
<polygon fill="#9a32cd" stroke="#9a32cd" points="596.46,-187.479 586.687,-191.57 596.878,-194.466 596.46,-187.479"/>
<text text-anchor="middle" x="814" y="-184.5" font-family="Helvetica,sans-Serif" font-size="10.00"> leader</text>
</g>
<!-- Node12 -->
<g id="node12" class="node"><title>Node12</title>
<polygon fill="white" stroke="#bfbfbf" points="246.5,-186 246.5,-205 347.5,-205 347.5,-186 246.5,-186"/>
<text text-anchor="middle" x="297" y="-193" font-family="Helvetica,sans-Serif" font-size="10.00">boost::noncopyable</text>
</g>
<!-- Node12&#45;&gt;Node11 -->
<g id="edge13" class="edge"><title>Node12&#45;&gt;Node11</title>
<path fill="none" stroke="midnightblue" d="M357.757,-195.5C387.262,-195.5 422.933,-195.5 453.215,-195.5"/>
<polygon fill="midnightblue" stroke="midnightblue" points="357.597,-192 347.597,-195.5 357.597,-199 357.597,-192"/>
</g>
<!-- Node13 -->
<g id="node13" class="node"><title>Node13</title>
<polygon fill="white" stroke="#bfbfbf" points="1294,-59 1294,-78 1422,-78 1422,-59 1294,-59"/>
<text text-anchor="middle" x="1358" y="-66" font-family="Helvetica,sans-Serif" font-size="10.00">std::list&lt; std::ostream * &gt;</text>
</g>
<!-- Node13&#45;&gt;Node2 -->
<g id="edge15" class="edge"><title>Node13&#45;&gt;Node2</title>
<path fill="none" stroke="#9a32cd" stroke-dasharray="5,2" d="M1432.23,-64.6439C1450.61,-66.632 1469.49,-71.4787 1485,-81.5 1498.38,-90.1479 1493.93,-99.3994 1503,-112.5 1521.14,-138.707 1545.66,-167.117 1558.62,-181.675"/>
<polygon fill="#9a32cd" stroke="#9a32cd" points="1432.34,-61.1418 1422.09,-63.8188 1431.77,-68.1187 1432.34,-61.1418"/>
<text text-anchor="middle" x="1463.5" y="-84.5" font-family="Helvetica,sans-Serif" font-size="10.00"> files</text>
</g>
<!-- Node14 -->
<g id="node14" class="node"><title>Node14</title>
<g id="a_node14"><a xlink:title="STL class. ">
<polygon fill="white" stroke="#bfbfbf" points="1071.5,-58 1071.5,-77 1142.5,-77 1142.5,-58 1071.5,-58"/>
<text text-anchor="middle" x="1107" y="-65" font-family="Helvetica,sans-Serif" font-size="10.00">std::ostream</text>
</a>
</g>
</g>
<!-- Node14&#45;&gt;Node13 -->
<g id="edge16" class="edge"><title>Node14&#45;&gt;Node13</title>
<path fill="none" stroke="#9a32cd" stroke-dasharray="5,2" d="M1152.71,-67.6796C1192.07,-67.8376 1249.82,-68.0696 1293.89,-68.2465"/>
<polygon fill="#9a32cd" stroke="#9a32cd" points="1152.64,-64.1793 1142.62,-67.639 1152.61,-71.1793 1152.64,-64.1793"/>
<text text-anchor="middle" x="1239.5" y="-71.5" font-family="Helvetica,sans-Serif" font-size="10.00"> elements</text>
</g>
<!-- Node15 -->
<g id="node15" class="node"><title>Node15</title>
<g id="a_node15"><a xlink:title="STL class. ">
<polygon fill="white" stroke="#bfbfbf" points="764,-49.5 764,-79.5 864,-79.5 864,-49.5 764,-49.5"/>
<text text-anchor="start" x="772" y="-67.5" font-family="Helvetica,sans-Serif" font-size="10.00">std::basic_ostream</text>
<text text-anchor="middle" x="814" y="-56.5" font-family="Helvetica,sans-Serif" font-size="10.00">&lt; char &gt;</text>
</a>
</g>
</g>
<!-- Node15&#45;&gt;Node14 -->
<g id="edge17" class="edge"><title>Node15&#45;&gt;Node14</title>
<path fill="none" stroke="midnightblue" d="M874.379,-65.1122C933.681,-65.7235 1022.8,-66.6423 1071.39,-67.1432"/>
<polygon fill="midnightblue" stroke="midnightblue" points="874.071,-61.6089 864.035,-65.0055 873.998,-68.6085 874.071,-61.6089"/>
</g>
<!-- Node16 -->
<g id="node16" class="node"><title>Node16</title>
<g id="a_node16"><a xlink:title="STL class. ">
<polygon fill="white" stroke="#bfbfbf" points="462,-31 462,-50 578,-50 578,-31 462,-31"/>
<text text-anchor="middle" x="520" y="-38" font-family="Helvetica,sans-Serif" font-size="10.00">std::basic_ios&lt; Char &gt;</text>
</a>
</g>
</g>
<!-- Node16&#45;&gt;Node15 -->
<g id="edge18" class="edge"><title>Node16&#45;&gt;Node15</title>
<path fill="none" stroke="midnightblue" d="M588.42,-46.0414C641.903,-50.4372 715.424,-56.4801 763.56,-60.4364"/>
<polygon fill="midnightblue" stroke="midnightblue" points="588.595,-42.544 578.341,-45.213 588.021,-49.5205 588.595,-42.544"/>
</g>
<!-- Node26 -->
<g id="node26" class="node"><title>Node26</title>
<g id="a_node26"><a xlink:title="STL class. ">
<polygon fill="white" stroke="#bfbfbf" points="764,-0.5 764,-30.5 864,-30.5 864,-0.5 764,-0.5"/>
<text text-anchor="start" x="772" y="-18.5" font-family="Helvetica,sans-Serif" font-size="10.00">std::basic_ostream</text>
<text text-anchor="middle" x="814" y="-7.5" font-family="Helvetica,sans-Serif" font-size="10.00">&lt; Char &gt;</text>
</a>
</g>
</g>
<!-- Node16&#45;&gt;Node26 -->
<g id="edge35" class="edge"><title>Node16&#45;&gt;Node26</title>
<path fill="none" stroke="midnightblue" d="M588.42,-34.7277C641.903,-30.1487 715.424,-23.8541 763.56,-19.7329"/>
<polygon fill="midnightblue" stroke="midnightblue" points="588.006,-31.2503 578.341,-35.5906 588.604,-38.2247 588.006,-31.2503"/>
</g>
<!-- Node17 -->
<g id="node17" class="node"><title>Node17</title>
<g id="a_node17"><a xlink:title="STL class. ">
<polygon fill="white" stroke="#bfbfbf" points="259.5,-31 259.5,-50 334.5,-50 334.5,-31 259.5,-31"/>
<text text-anchor="middle" x="297" y="-38" font-family="Helvetica,sans-Serif" font-size="10.00">std::ios_base</text>
</a>
</g>
</g>
<!-- Node17&#45;&gt;Node16 -->
<g id="edge19" class="edge"><title>Node17&#45;&gt;Node16</title>
<path fill="none" stroke="midnightblue" d="M345.177,-40.5C379.34,-40.5 425.693,-40.5 461.941,-40.5"/>
<polygon fill="midnightblue" stroke="midnightblue" points="344.99,-37.0001 334.99,-40.5 344.99,-44.0001 344.99,-37.0001"/>
</g>
<!-- Node18&#45;&gt;Node2 -->
<g id="edge20" class="edge"><title>Node18&#45;&gt;Node2</title>
<path fill="none" stroke="#9a32cd" stroke-dasharray="5,2" d="M891.384,-115.992C927.124,-117.327 970.259,-119.178 1009,-121.5 1194.19,-132.597 1240.59,-138.542 1424,-166.5 1454.5,-171.149 1488.52,-177.045 1515.78,-181.943"/>
<polygon fill="#9a32cd" stroke="#9a32cd" points="891.15,-112.481 881.028,-115.612 890.893,-119.477 891.15,-112.481"/>
<text text-anchor="middle" x="1239.5" y="-147.5" font-family="Helvetica,sans-Serif" font-size="10.00"> toTraceSignals</text>
</g>
<!-- Node18&#45;&gt;Node21 -->
<g id="edge27" class="edge"><title>Node18&#45;&gt;Node21</title>
<path fill="none" stroke="#9a32cd" stroke-dasharray="5,2" d="M891.529,-122.983C927.3,-127.715 970.418,-133.845 1009,-140.5 1017.73,-142.005 1026.87,-143.714 1035.9,-145.484"/>
<polygon fill="#9a32cd" stroke="#9a32cd" points="891.533,-119.454 881.163,-121.624 890.623,-126.395 891.533,-119.454"/>
<text text-anchor="middle" x="954" y="-143.5" font-family="Helvetica,sans-Serif" font-size="10.00"> dependencies</text>
</g>
<!-- Node19 -->
<g id="node19" class="node"><title>Node19</title>
<g id="a_node19"><a xlink:href="a00049.html" target="_top" xlink:title="dynamicgraph::SignalTime\lDependent\&lt; int, int \&gt;">
<polygon fill="white" stroke="black" points="1292,-176.5 1292,-206.5 1424,-206.5 1424,-176.5 1292,-176.5"/>
<text text-anchor="start" x="1300" y="-194.5" font-family="Helvetica,sans-Serif" font-size="10.00">dynamicgraph::SignalTime</text>
<text text-anchor="middle" x="1358" y="-183.5" font-family="Helvetica,sans-Serif" font-size="10.00">Dependent&lt; int, int &gt;</text>
</a>
</g>
</g>
<!-- Node19&#45;&gt;Node2 -->
<g id="edge23" class="edge"><title>Node19&#45;&gt;Node2</title>
<path fill="none" stroke="#9a32cd" stroke-dasharray="5,2" d="M1434.28,-191.5C1460.2,-191.5 1488.72,-191.5 1512.69,-191.5"/>
<polygon fill="#9a32cd" stroke="#9a32cd" points="1434.11,-188 1424.11,-191.5 1434.11,-195 1434.11,-188"/>
<text text-anchor="middle" x="1463.5" y="-194.5" font-family="Helvetica,sans-Serif" font-size="10.00"> triger</text>
</g>
<!-- Node20&#45;&gt;Node19 -->
<g id="edge24" class="edge"><title>Node20&#45;&gt;Node19</title>
<path fill="none" stroke="midnightblue" d="M1019.43,-202.416C1094.14,-200.001 1216.6,-196.04 1291.68,-193.612"/>
<polygon fill="midnightblue" stroke="midnightblue" points="1019.1,-198.925 1009.22,-202.747 1019.32,-205.922 1019.1,-198.925"/>
</g>
<!-- Node21&#45;&gt;Node19 -->
<g id="edge26" class="edge"><title>Node21&#45;&gt;Node19</title>
<path fill="none" stroke="midnightblue" d="M1197.15,-171.599C1228.41,-175.491 1262.91,-179.786 1291.83,-183.387"/>
<polygon fill="midnightblue" stroke="midnightblue" points="1197.48,-168.114 1187.13,-170.351 1196.62,-175.06 1197.48,-168.114"/>
</g>
<!-- Node22&#45;&gt;Node2 -->
<g id="edge29" class="edge"><title>Node22&#45;&gt;Node2</title>
<path fill="none" stroke="#9a32cd" stroke-dasharray="5,2" d="M739.261,-461.586C795.605,-462.445 879.73,-463.5 953,-463.5 953,-463.5 953,-463.5 1359,-463.5 1417,-463.5 1442.57,-469.052 1485,-429.5 1554.73,-364.492 1565.53,-237.613 1567.2,-201.378"/>
<polygon fill="#9a32cd" stroke="#9a32cd" points="739.125,-458.084 729.072,-461.429 739.017,-465.083 739.125,-458.084"/>
<text text-anchor="middle" x="1107" y="-466.5" font-family="Helvetica,sans-Serif" font-size="10.00"> names</text>
</g>
<!-- Node23 -->
<g id="node23" class="node"><title>Node23</title>
<polygon fill="white" stroke="#bfbfbf" points="1503,-84 1503,-103 1634,-103 1634,-84 1503,-84"/>
<text text-anchor="middle" x="1568.5" y="-91" font-family="Helvetica,sans-Serif" font-size="10.00">std::list&lt; std::ofstream * &gt;</text>
</g>
<!-- Node23&#45;&gt;Node1 -->
<g id="edge31" class="edge"><title>Node23&#45;&gt;Node1</title>
<path fill="none" stroke="#9a32cd" stroke-dasharray="5,2" d="M1615.35,-105.642C1656.07,-116.426 1714.78,-131.975 1752.28,-141.908"/>
<polygon fill="#9a32cd" stroke="#9a32cd" points="1616.23,-102.254 1605.66,-103.078 1614.43,-109.021 1616.23,-102.254"/>
<text text-anchor="middle" x="1673.5" y="-129.5" font-family="Helvetica,sans-Serif" font-size="10.00"> hardFiles</text>
</g>
<!-- Node24 -->
<g id="node24" class="node"><title>Node24</title>
<g id="a_node24"><a xlink:title="STL class. ">
<polygon fill="white" stroke="#bfbfbf" points="1321,-19 1321,-38 1395,-38 1395,-19 1321,-19"/>
<text text-anchor="middle" x="1358" y="-26" font-family="Helvetica,sans-Serif" font-size="10.00">std::ofstream</text>
</a>
</g>
</g>
<!-- Node24&#45;&gt;Node23 -->
<g id="edge32" class="edge"><title>Node24&#45;&gt;Node23</title>
<path fill="none" stroke="#9a32cd" stroke-dasharray="5,2" d="M1405.24,-29.314C1429.54,-30.9003 1459.48,-34.7125 1485,-43.5 1512.24,-52.8803 1540.12,-72.2266 1555.48,-83.9127"/>
<polygon fill="#9a32cd" stroke="#9a32cd" points="1405.38,-25.8165 1395.2,-28.7624 1405,-32.8059 1405.38,-25.8165"/>
<text text-anchor="middle" x="1463.5" y="-46.5" font-family="Helvetica,sans-Serif" font-size="10.00"> elements</text>
</g>
<!-- Node25 -->
<g id="node25" class="node"><title>Node25</title>
<g id="a_node25"><a xlink:title="STL class. ">
<polygon fill="white" stroke="#bfbfbf" points="1055.5,-6.5 1055.5,-36.5 1158.5,-36.5 1158.5,-6.5 1055.5,-6.5"/>
<text text-anchor="start" x="1063.5" y="-24.5" font-family="Helvetica,sans-Serif" font-size="10.00">std::basic_ofstream</text>
<text text-anchor="middle" x="1107" y="-13.5" font-family="Helvetica,sans-Serif" font-size="10.00">&lt; char &gt;</text>
</a>
</g>
</g>
<!-- Node25&#45;&gt;Node24 -->
<g id="edge33" class="edge"><title>Node25&#45;&gt;Node24</title>
<path fill="none" stroke="midnightblue" d="M1168.88,-23.2115C1216.51,-24.5504 1281.12,-26.3668 1320.89,-27.4848"/>
<polygon fill="midnightblue" stroke="midnightblue" points="1168.78,-19.7075 1158.69,-22.925 1168.59,-26.7047 1168.78,-19.7075"/>
</g>
<!-- Node26&#45;&gt;Node25 -->
<g id="edge34" class="edge"><title>Node26&#45;&gt;Node25</title>
<path fill="none" stroke="midnightblue" d="M874.348,-16.7237C927.589,-17.8214 1004.88,-19.4151 1055.3,-20.4546"/>
<polygon fill="midnightblue" stroke="midnightblue" points="874.105,-13.218 864.035,-16.511 873.961,-20.2165 874.105,-13.218"/>
</g>
</g>
</svg>
