<?xml version="1.0" encoding="UTF-8" standalone="no"?>
<!DOCTYPE svg PUBLIC "-//W3C//DTD SVG 1.1//EN"
 "http://www.w3.org/Graphics/SVG/1.1/DTD/svg11.dtd">
<!-- Generated by graphviz version 2.38.0 (20140413.2041)
 -->
<!-- Title: dynamicgraph::Tracer Pages: 1 -->
<svg width="1604pt" height="466pt"
 viewBox="0.00 0.00 1604.00 466.00" xmlns="http://www.w3.org/2000/svg" xmlns:xlink="http://www.w3.org/1999/xlink">
<g id="graph0" class="graph" transform="scale(1 1) rotate(0) translate(4 462)">
<title>dynamicgraph::Tracer</title>
<polygon fill="white" stroke="none" points="-4,4 -4,-462 1600,-462 1600,4 -4,4"/>
<!-- Node1 -->
<g id="node1" class="node"><title>Node1</title>
<polygon fill="#bfbfbf" stroke="black" points="1485,-170 1485,-189 1596,-189 1596,-170 1485,-170"/>
<text text-anchor="middle" x="1540.5" y="-177" font-family="Helvetica,sans-Serif" font-size="10.00">dynamicgraph::Tracer</text>
</g>
<!-- Node2 -->
<g id="node2" class="node"><title>Node2</title>
<g id="a_node2"><a xlink:href="a00020.html" target="_top" xlink:title="This class represents an entity, i.e. ">
<polygon fill="white" stroke="black" points="1052.5,-229 1052.5,-248 1161.5,-248 1161.5,-229 1052.5,-229"/>
<text text-anchor="middle" x="1107" y="-236" font-family="Helvetica,sans-Serif" font-size="10.00">dynamicgraph::Entity</text>
</a>
</g>
</g>
<!-- Node2&#45;&gt;Node1 -->
<g id="edge1" class="edge"><title>Node2&#45;&gt;Node1</title>
<path fill="none" stroke="midnightblue" d="M1171.79,-229.778C1256.52,-218.193 1404.77,-197.922 1484.7,-186.992"/>
<polygon fill="midnightblue" stroke="midnightblue" points="1171.21,-226.324 1161.78,-231.147 1172.16,-233.26 1171.21,-226.324"/>
</g>
<!-- Node3 -->
<g id="node3" class="node"><title>Node3</title>
<polygon fill="white" stroke="#bfbfbf" points="778.5,-185 778.5,-204 849.5,-204 849.5,-185 778.5,-185"/>
<text text-anchor="middle" x="814" y="-192" font-family="Helvetica,sans-Serif" font-size="10.00">noncopyable</text>
</g>
<!-- Node3&#45;&gt;Node2 -->
<g id="edge2" class="edge"><title>Node3&#45;&gt;Node2</title>
<path fill="none" stroke="#8b1a1a" d="M859.413,-201.215C911.201,-209.046 996.769,-221.984 1052.26,-230.374"/>
<polygon fill="#8b1a1a" stroke="#8b1a1a" points="859.935,-197.755 849.524,-199.72 858.889,-204.676 859.935,-197.755"/>
</g>
<!-- Node4 -->
<g id="node4" class="node"><title>Node4</title>
<polygon fill="white" stroke="#bfbfbf" points="439,-311.5 439,-341.5 601,-341.5 601,-311.5 439,-311.5"/>
<text text-anchor="start" x="447" y="-329.5" font-family="Helvetica,sans-Serif" font-size="10.00">std::map&lt; const std</text>
<text text-anchor="middle" x="520" y="-318.5" font-family="Helvetica,sans-Serif" font-size="10.00">::string, command::Command * &gt;</text>
</g>
<!-- Node4&#45;&gt;Node2 -->
<g id="edge3" class="edge"><title>Node4&#45;&gt;Node2</title>
<path fill="none" stroke="#9a32cd" stroke-dasharray="5,2" d="M611.286,-333.513C710.995,-338.403 875.141,-337.93 1009,-296.5 1042.74,-286.058 1076.99,-261.626 1094.35,-248.039"/>
<polygon fill="#9a32cd" stroke="#9a32cd" points="611.413,-330.015 601.245,-332.991 611.05,-337.005 611.413,-330.015"/>
<text text-anchor="middle" x="814" y="-337.5" font-family="Helvetica,sans-Serif" font-size="10.00"> commandMap</text>
</g>
<!-- Node5 -->
<g id="node5" class="node"><title>Node5</title>
<g id="a_node5"><a xlink:href="a00007.html" target="_top" xlink:title="Abstract class for entity commands. ">
<polygon fill="white" stroke="black" points="234,-427.5 234,-457.5 360,-457.5 360,-427.5 234,-427.5"/>
<text text-anchor="start" x="242" y="-445.5" font-family="Helvetica,sans-Serif" font-size="10.00">dynamicgraph::command</text>
<text text-anchor="middle" x="297" y="-434.5" font-family="Helvetica,sans-Serif" font-size="10.00">::Command</text>
</a>
</g>
</g>
<!-- Node5&#45;&gt;Node4 -->
<g id="edge4" class="edge"><title>Node5&#45;&gt;Node4</title>
<path fill="none" stroke="#9a32cd" stroke-dasharray="5,2" d="M370.111,-436.846C387.424,-433.557 405.404,-428.437 421,-420.5 458.609,-401.359 491.537,-363.028 507.943,-341.702"/>
<polygon fill="#9a32cd" stroke="#9a32cd" points="369.281,-433.438 360.017,-438.579 370.465,-440.337 369.281,-433.438"/>
<text text-anchor="middle" x="399.5" y="-437.5" font-family="Helvetica,sans-Serif" font-size="10.00"> elements</text>
</g>
<!-- Node6 -->
<g id="node6" class="node"><title>Node6</title>
<polygon fill="white" stroke="#bfbfbf" points="0,-427.5 0,-457.5 133,-457.5 133,-427.5 0,-427.5"/>
<text text-anchor="start" x="8" y="-445.5" font-family="Helvetica,sans-Serif" font-size="10.00">std::vector&lt; dynamicgraph</text>
<text text-anchor="middle" x="66.5" y="-434.5" font-family="Helvetica,sans-Serif" font-size="10.00">::command::Value::Type &gt;</text>
</g>
<!-- Node6&#45;&gt;Node5 -->
<g id="edge5" class="edge"><title>Node6&#45;&gt;Node5</title>
<path fill="none" stroke="#9a32cd" stroke-dasharray="5,2" d="M143.485,-442.5C172.813,-442.5 205.944,-442.5 233.816,-442.5"/>
<polygon fill="#9a32cd" stroke="#9a32cd" points="143.285,-439 133.285,-442.5 143.285,-446 143.285,-439"/>
<text text-anchor="middle" x="183.5" y="-445.5" font-family="Helvetica,sans-Serif" font-size="10.00"> EMPTY_ARG</text>
</g>
<!-- Node7 -->
<g id="node7" class="node"><title>Node7</title>
<g id="a_node7"><a xlink:title="STL class. ">
<polygon fill="white" stroke="#bfbfbf" points="267,-290 267,-309 327,-309 327,-290 267,-290"/>
<text text-anchor="middle" x="297" y="-297" font-family="Helvetica,sans-Serif" font-size="10.00">std::string</text>
</a>
</g>
</g>
<!-- Node7&#45;&gt;Node1 -->
<g id="edge21" class="edge"><title>Node7&#45;&gt;Node1</title>
<path fill="none" stroke="#9a32cd" stroke-dasharray="5,2" d="M324.084,-313.739C364.561,-334.465 445.502,-370.5 519,-370.5 519,-370.5 519,-370.5 1359,-370.5 1459.83,-370.5 1521.09,-228.156 1535.95,-189.234"/>
<polygon fill="#9a32cd" stroke="#9a32cd" points="325.639,-310.602 315.154,-309.075 322.399,-316.807 325.639,-310.602"/>
<text text-anchor="middle" x="954" y="-395.5" font-family="Helvetica,sans-Serif" font-size="10.00"> suffix</text>
<text text-anchor="middle" x="954" y="-384.5" font-family="Helvetica,sans-Serif" font-size="10.00">basename</text>
<text text-anchor="middle" x="954" y="-373.5" font-family="Helvetica,sans-Serif" font-size="10.00">rootdir</text>
</g>
<!-- Node7&#45;&gt;Node2 -->
<g id="edge8" class="edge"><title>Node7&#45;&gt;Node2</title>
<path fill="none" stroke="#9a32cd" stroke-dasharray="5,2" d="M337.303,-297.098C431.276,-291.336 676.381,-276.187 881,-262.5 937.902,-258.694 952.327,-259.863 1009,-253.5 1023.14,-251.912 1038.38,-249.765 1052.49,-247.591"/>
<polygon fill="#9a32cd" stroke="#9a32cd" points="336.89,-293.617 327.122,-297.722 337.318,-300.604 336.89,-293.617"/>
<text text-anchor="middle" x="674" y="-282.5" font-family="Helvetica,sans-Serif" font-size="10.00"> name</text>
</g>
<!-- Node7&#45;&gt;Node4 -->
<g id="edge6" class="edge"><title>Node7&#45;&gt;Node4</title>
<path fill="none" stroke="#9a32cd" stroke-dasharray="5,2" d="M337.542,-304.331C365.572,-307.755 404.158,-312.47 438.544,-316.67"/>
<polygon fill="#9a32cd" stroke="#9a32cd" points="337.698,-300.824 327.347,-303.085 336.849,-307.772 337.698,-300.824"/>
<text text-anchor="middle" x="399.5" y="-317.5" font-family="Helvetica,sans-Serif" font-size="10.00"> keys</text>
</g>
<!-- Node9 -->
<g id="node9" class="node"><title>Node9</title>
<polygon fill="white" stroke="#bfbfbf" points="757.5,-223.5 757.5,-253.5 870.5,-253.5 870.5,-223.5 757.5,-223.5"/>
<text text-anchor="start" x="765.5" y="-241.5" font-family="Helvetica,sans-Serif" font-size="10.00">std::map&lt; std::string,</text>
<text text-anchor="middle" x="814" y="-230.5" font-family="Helvetica,sans-Serif" font-size="10.00"> SignalBase&lt; int &gt; * &gt;</text>
</g>
<!-- Node7&#45;&gt;Node9 -->
<g id="edge10" class="edge"><title>Node7&#45;&gt;Node9</title>
<path fill="none" stroke="#9a32cd" stroke-dasharray="5,2" d="M328.922,-285.924C343.575,-279.906 361.456,-273.151 378,-268.5 404.52,-261.045 411.632,-260.65 439,-257.5 551.545,-244.547 684.155,-240.425 757.372,-239.113"/>
<polygon fill="#9a32cd" stroke="#9a32cd" points="327.219,-282.843 319.35,-289.938 329.926,-289.299 327.219,-282.843"/>
<text text-anchor="middle" x="520" y="-260.5" font-family="Helvetica,sans-Serif" font-size="10.00"> keys</text>
</g>
<!-- Node10 -->
<g id="node10" class="node"><title>Node10</title>
<g id="a_node10"><a xlink:href="a00044.html" target="_top" xlink:title="dynamicgraph::SignalBase\l\&lt; int \&gt;">
<polygon fill="white" stroke="black" points="453.5,-140.5 453.5,-170.5 586.5,-170.5 586.5,-140.5 453.5,-140.5"/>
<text text-anchor="start" x="461.5" y="-158.5" font-family="Helvetica,sans-Serif" font-size="10.00">dynamicgraph::SignalBase</text>
<text text-anchor="middle" x="520" y="-147.5" font-family="Helvetica,sans-Serif" font-size="10.00">&lt; int &gt;</text>
</a>
</g>
</g>
<!-- Node7&#45;&gt;Node10 -->
<g id="edge13" class="edge"><title>Node7&#45;&gt;Node10</title>
<path fill="none" stroke="#9a32cd" stroke-dasharray="5,2" d="M311.544,-281.759C326.265,-263.448 351.283,-235.017 378,-216.5 406.827,-196.521 443.243,-180.972 471.845,-170.573"/>
<polygon fill="#9a32cd" stroke="#9a32cd" points="308.613,-279.824 305.182,-289.848 314.116,-284.151 308.613,-279.824"/>
<text text-anchor="middle" x="399.5" y="-219.5" font-family="Helvetica,sans-Serif" font-size="10.00"> name</text>
</g>
<!-- Node21 -->
<g id="node21" class="node"><title>Node21</title>
<polygon fill="white" stroke="#bfbfbf" points="619,-404 619,-423 729,-423 729,-404 619,-404"/>
<text text-anchor="middle" x="674" y="-411" font-family="Helvetica,sans-Serif" font-size="10.00">std::list&lt; std::string &gt;</text>
</g>
<!-- Node7&#45;&gt;Node21 -->
<g id="edge29" class="edge"><title>Node7&#45;&gt;Node21</title>
<path fill="none" stroke="#9a32cd" stroke-dasharray="5,2" d="M309.366,-317.905C322.953,-338.094 347.698,-369.606 378,-384.5 455.128,-422.41 557.166,-423.2 618.792,-419.168"/>
<polygon fill="#9a32cd" stroke="#9a32cd" points="312.149,-315.763 303.773,-309.275 306.275,-319.57 312.149,-315.763"/>
<text text-anchor="middle" x="399.5" y="-403.5" font-family="Helvetica,sans-Serif" font-size="10.00"> elements</text>
</g>
<!-- Node8 -->
<g id="node8" class="node"><title>Node8</title>
<g id="a_node8"><a xlink:title="STL class. ">
<polygon fill="white" stroke="#bfbfbf" points="19,-284.5 19,-314.5 114,-314.5 114,-284.5 19,-284.5"/>
<text text-anchor="start" x="27" y="-302.5" font-family="Helvetica,sans-Serif" font-size="10.00">std::basic_string&lt;</text>
<text text-anchor="middle" x="66.5" y="-291.5" font-family="Helvetica,sans-Serif" font-size="10.00"> char &gt;</text>
</a>
</g>
</g>
<!-- Node8&#45;&gt;Node7 -->
<g id="edge7" class="edge"><title>Node8&#45;&gt;Node7</title>
<path fill="none" stroke="midnightblue" d="M124.282,-299.5C169.566,-299.5 231.136,-299.5 266.919,-299.5"/>
<polygon fill="midnightblue" stroke="midnightblue" points="124.016,-296 114.016,-299.5 124.016,-303 124.016,-296"/>
</g>
<!-- Node9&#45;&gt;Node2 -->
<g id="edge9" class="edge"><title>Node9&#45;&gt;Node2</title>
<path fill="none" stroke="#9a32cd" stroke-dasharray="5,2" d="M880.858,-238.5C932.69,-238.5 1004.01,-238.5 1052.39,-238.5"/>
<polygon fill="#9a32cd" stroke="#9a32cd" points="880.763,-235 870.763,-238.5 880.763,-242 880.763,-235"/>
<text text-anchor="middle" x="954" y="-241.5" font-family="Helvetica,sans-Serif" font-size="10.00"> signalMap</text>
</g>
<!-- Node10&#45;&gt;Node9 -->
<g id="edge11" class="edge"><title>Node10&#45;&gt;Node9</title>
<path fill="none" stroke="#9a32cd" stroke-dasharray="5,2" d="M583.755,-173.338C636.293,-188.272 710.427,-209.344 760.022,-223.441"/>
<polygon fill="#9a32cd" stroke="#9a32cd" points="584.455,-169.898 573.879,-170.531 582.541,-176.632 584.455,-169.898"/>
<text text-anchor="middle" x="674" y="-217.5" font-family="Helvetica,sans-Serif" font-size="10.00"> elements</text>
</g>
<!-- Node17 -->
<g id="node17" class="node"><title>Node17</title>
<polygon fill="white" stroke="#bfbfbf" points="747,-88.5 747,-118.5 881,-118.5 881,-88.5 747,-88.5"/>
<text text-anchor="start" x="755" y="-106.5" font-family="Helvetica,sans-Serif" font-size="10.00">std::list&lt; const SignalBase</text>
<text text-anchor="middle" x="814" y="-95.5" font-family="Helvetica,sans-Serif" font-size="10.00">&lt; int &gt; * &gt;</text>
</g>
<!-- Node10&#45;&gt;Node17 -->
<g id="edge20" class="edge"><title>Node10&#45;&gt;Node17</title>
<path fill="none" stroke="#9a32cd" stroke-dasharray="5,2" d="M585.181,-138.038C596.404,-135.297 608.006,-132.66 619,-130.5 661.209,-122.206 709.074,-115.516 746.698,-110.87"/>
<polygon fill="#9a32cd" stroke="#9a32cd" points="584.297,-134.651 575.44,-140.465 585.989,-141.444 584.297,-134.651"/>
<text text-anchor="middle" x="674" y="-133.5" font-family="Helvetica,sans-Serif" font-size="10.00"> elements</text>
</g>
<!-- Node19 -->
<g id="node19" class="node"><title>Node19</title>
<g id="a_node19"><a xlink:href="a00041.html" target="_top" xlink:title="dynamicgraph::Signal\l\&lt; int, int \&gt;">
<polygon fill="white" stroke="black" points="899,-44.5 899,-74.5 1009,-74.5 1009,-44.5 899,-44.5"/>
<text text-anchor="start" x="907" y="-62.5" font-family="Helvetica,sans-Serif" font-size="10.00">dynamicgraph::Signal</text>
<text text-anchor="middle" x="954" y="-51.5" font-family="Helvetica,sans-Serif" font-size="10.00">&lt; int, int &gt;</text>
</a>
</g>
</g>
<!-- Node10&#45;&gt;Node19 -->
<g id="edge24" class="edge"><title>Node10&#45;&gt;Node19</title>
<path fill="none" stroke="midnightblue" d="M559.464,-135.83C577.262,-127.253 598.879,-117.566 619,-110.5 674.327,-91.0704 689.191,-88.3327 747,-78.5 798.163,-69.7977 857.201,-64.866 898.923,-62.2208"/>
<polygon fill="midnightblue" stroke="midnightblue" points="557.448,-132.919 550.002,-140.456 560.523,-139.208 557.448,-132.919"/>
</g>
<!-- Node20 -->
<g id="node20" class="node"><title>Node20</title>
<g id="a_node20"><a xlink:href="a00050.html" target="_top" xlink:title="dynamicgraph::TimeDependency\l\&lt; int \&gt;">
<polygon fill="white" stroke="black" points="1027,-88.5 1027,-118.5 1187,-118.5 1187,-88.5 1027,-88.5"/>
<text text-anchor="start" x="1035" y="-106.5" font-family="Helvetica,sans-Serif" font-size="10.00">dynamicgraph::TimeDependency</text>
<text text-anchor="middle" x="1107" y="-95.5" font-family="Helvetica,sans-Serif" font-size="10.00">&lt; int &gt;</text>
</a>
</g>
</g>
<!-- Node10&#45;&gt;Node20 -->
<g id="edge27" class="edge"><title>Node10&#45;&gt;Node20</title>
<path fill="none" stroke="#9a32cd" stroke-dasharray="5,2" d="M596.89,-151.726C693.023,-146.492 863.681,-135.682 1009,-118.5 1014.84,-117.81 1020.86,-117.033 1026.92,-116.206"/>
<polygon fill="#9a32cd" stroke="#9a32cd" points="596.48,-148.243 586.683,-152.276 596.857,-155.233 596.48,-148.243"/>
<text text-anchor="middle" x="814" y="-145.5" font-family="Helvetica,sans-Serif" font-size="10.00"> leader</text>
</g>
<!-- Node11 -->
<g id="node11" class="node"><title>Node11</title>
<polygon fill="white" stroke="#bfbfbf" points="246.5,-146 246.5,-165 347.5,-165 347.5,-146 246.5,-146"/>
<text text-anchor="middle" x="297" y="-153" font-family="Helvetica,sans-Serif" font-size="10.00">boost::noncopyable</text>
</g>
<!-- Node11&#45;&gt;Node10 -->
<g id="edge12" class="edge"><title>Node11&#45;&gt;Node10</title>
<path fill="none" stroke="midnightblue" d="M357.757,-155.5C387.262,-155.5 422.933,-155.5 453.215,-155.5"/>
<polygon fill="midnightblue" stroke="midnightblue" points="357.597,-152 347.597,-155.5 357.597,-159 357.597,-152"/>
</g>
<!-- Node12 -->
<g id="node12" class="node"><title>Node12</title>
<polygon fill="white" stroke="#bfbfbf" points="1294,-34 1294,-53 1422,-53 1422,-34 1294,-34"/>
<text text-anchor="middle" x="1358" y="-41" font-family="Helvetica,sans-Serif" font-size="10.00">std::list&lt; std::ostream * &gt;</text>
</g>
<!-- Node12&#45;&gt;Node1 -->
<g id="edge14" class="edge"><title>Node12&#45;&gt;Node1</title>
<path fill="none" stroke="#9a32cd" stroke-dasharray="5,2" d="M1392.57,-57.1561C1414.86,-67.0958 1444.12,-81.8713 1467,-99.5 1494.77,-120.892 1520.65,-153.718 1532.59,-169.86"/>
<polygon fill="#9a32cd" stroke="#9a32cd" points="1393.74,-53.8489 1383.18,-53.0676 1390.95,-60.2674 1393.74,-53.8489"/>
<text text-anchor="middle" x="1454.5" y="-102.5" font-family="Helvetica,sans-Serif" font-size="10.00"> files</text>
</g>
<!-- Node13 -->
<g id="node13" class="node"><title>Node13</title>
<g id="a_node13"><a xlink:title="STL class. ">
<polygon fill="white" stroke="#bfbfbf" points="1071.5,-11 1071.5,-30 1142.5,-30 1142.5,-11 1071.5,-11"/>
<text text-anchor="middle" x="1107" y="-18" font-family="Helvetica,sans-Serif" font-size="10.00">std::ostream</text>
</a>
</g>
</g>
<!-- Node13&#45;&gt;Node12 -->
<g id="edge15" class="edge"><title>Node13&#45;&gt;Node12</title>
<path fill="none" stroke="#9a32cd" stroke-dasharray="5,2" d="M1153.03,-24.0057C1186.44,-26.6773 1233.09,-30.5571 1274,-34.5 1280.35,-35.1118 1286.97,-35.7791 1293.57,-36.4649"/>
<polygon fill="#9a32cd" stroke="#9a32cd" points="1152.92,-20.4859 1142.68,-23.1822 1152.37,-27.4639 1152.92,-20.4859"/>
<text text-anchor="middle" x="1239.5" y="-37.5" font-family="Helvetica,sans-Serif" font-size="10.00"> elements</text>
</g>
<!-- Node14 -->
<g id="node14" class="node"><title>Node14</title>
<g id="a_node14"><a xlink:title="STL class. ">
<polygon fill="white" stroke="#bfbfbf" points="764,-0.5 764,-30.5 864,-30.5 864,-0.5 764,-0.5"/>
<text text-anchor="start" x="772" y="-18.5" font-family="Helvetica,sans-Serif" font-size="10.00">std::basic_ostream</text>
<text text-anchor="middle" x="814" y="-7.5" font-family="Helvetica,sans-Serif" font-size="10.00">&lt; char &gt;</text>
</a>
</g>
</g>
<!-- Node14&#45;&gt;Node13 -->
<g id="edge16" class="edge"><title>Node14&#45;&gt;Node13</title>
<path fill="none" stroke="midnightblue" d="M874.379,-16.5203C933.681,-17.5392 1022.8,-19.0705 1071.39,-19.9053"/>
<polygon fill="midnightblue" stroke="midnightblue" points="874.094,-13.0149 864.035,-16.3425 873.973,-20.0139 874.094,-13.0149"/>
</g>
<!-- Node15 -->
<g id="node15" class="node"><title>Node15</title>
<g id="a_node15"><a xlink:title="STL class. ">
<polygon fill="white" stroke="#bfbfbf" points="462,-6 462,-25 578,-25 578,-6 462,-6"/>
<text text-anchor="middle" x="520" y="-13" font-family="Helvetica,sans-Serif" font-size="10.00">std::basic_ios&lt; Char &gt;</text>
</a>
</g>
</g>
<!-- Node15&#45;&gt;Node14 -->
<g id="edge17" class="edge"><title>Node15&#45;&gt;Node14</title>
<path fill="none" stroke="midnightblue" d="M588.42,-15.5C641.903,-15.5 715.424,-15.5 763.56,-15.5"/>
<polygon fill="midnightblue" stroke="midnightblue" points="588.341,-12.0001 578.341,-15.5 588.341,-19.0001 588.341,-12.0001"/>
</g>
<!-- Node16 -->
<g id="node16" class="node"><title>Node16</title>
<g id="a_node16"><a xlink:title="STL class. ">
<polygon fill="white" stroke="#bfbfbf" points="259.5,-6 259.5,-25 334.5,-25 334.5,-6 259.5,-6"/>
<text text-anchor="middle" x="297" y="-13" font-family="Helvetica,sans-Serif" font-size="10.00">std::ios_base</text>
</a>
</g>
</g>
<!-- Node16&#45;&gt;Node15 -->
<g id="edge18" class="edge"><title>Node16&#45;&gt;Node15</title>
<path fill="none" stroke="midnightblue" d="M345.177,-15.5C379.34,-15.5 425.693,-15.5 461.941,-15.5"/>
<polygon fill="midnightblue" stroke="midnightblue" points="344.99,-12.0001 334.99,-15.5 344.99,-19.0001 344.99,-12.0001"/>
</g>
<!-- Node17&#45;&gt;Node1 -->
<g id="edge19" class="edge"><title>Node17&#45;&gt;Node1</title>
<path fill="none" stroke="#9a32cd" stroke-dasharray="5,2" d="M891.402,-115.509C893.964,-115.853 896.502,-116.184 899,-116.5 1115.44,-143.871 1374.3,-166.138 1484.98,-175.165"/>
<polygon fill="#9a32cd" stroke="#9a32cd" points="891.823,-112.034 881.438,-114.13 890.864,-118.968 891.823,-112.034"/>
<text text-anchor="middle" x="1239.5" y="-160.5" font-family="Helvetica,sans-Serif" font-size="10.00"> toTraceSignals</text>
</g>
<!-- Node17&#45;&gt;Node20 -->
<g id="edge26" class="edge"><title>Node17&#45;&gt;Node20</title>
<path fill="none" stroke="#9a32cd" stroke-dasharray="5,2" d="M891.143,-103.5C932.883,-103.5 984.563,-103.5 1026.78,-103.5"/>
<polygon fill="#9a32cd" stroke="#9a32cd" points="891.032,-100 881.032,-103.5 891.032,-107 891.032,-100"/>
<text text-anchor="middle" x="954" y="-106.5" font-family="Helvetica,sans-Serif" font-size="10.00"> dependencies</text>
</g>
<!-- Node18 -->
<g id="node18" class="node"><title>Node18</title>
<g id="a_node18"><a xlink:href="a00049.html" target="_top" xlink:title="dynamicgraph::SignalTime\lDependent\&lt; int, int \&gt;">
<polygon fill="white" stroke="black" points="1292,-88.5 1292,-118.5 1424,-118.5 1424,-88.5 1292,-88.5"/>
<text text-anchor="start" x="1300" y="-106.5" font-family="Helvetica,sans-Serif" font-size="10.00">dynamicgraph::SignalTime</text>
<text text-anchor="middle" x="1358" y="-95.5" font-family="Helvetica,sans-Serif" font-size="10.00">Dependent&lt; int, int &gt;</text>
</a>
</g>
</g>
<!-- Node18&#45;&gt;Node1 -->
<g id="edge22" class="edge"><title>Node18&#45;&gt;Node1</title>
<path fill="none" stroke="#9a32cd" stroke-dasharray="5,2" d="M1434.12,-111.774C1445.42,-114.419 1456.72,-117.905 1467,-122.5 1492.73,-133.996 1517.35,-156.626 1530.22,-169.648"/>
<polygon fill="#9a32cd" stroke="#9a32cd" points="1434.73,-108.326 1424.22,-109.661 1433.27,-115.172 1434.73,-108.326"/>
<text text-anchor="middle" x="1454.5" y="-125.5" font-family="Helvetica,sans-Serif" font-size="10.00"> triger</text>
</g>
<!-- Node19&#45;&gt;Node18 -->
<g id="edge23" class="edge"><title>Node19&#45;&gt;Node18</title>
<path fill="none" stroke="midnightblue" d="M1019.27,-63.649C1065.9,-66.9306 1130.45,-72.0329 1187,-78.5 1221.68,-82.4655 1260.17,-88.0283 1291.74,-92.8999"/>
<polygon fill="midnightblue" stroke="midnightblue" points="1019.22,-60.1377 1009.01,-62.9358 1018.74,-67.1208 1019.22,-60.1377"/>
</g>
<!-- Node20&#45;&gt;Node18 -->
<g id="edge25" class="edge"><title>Node20&#45;&gt;Node18</title>
<path fill="none" stroke="midnightblue" d="M1197.15,-103.5C1228.41,-103.5 1262.91,-103.5 1291.83,-103.5"/>
<polygon fill="midnightblue" stroke="midnightblue" points="1197.13,-100 1187.13,-103.5 1197.13,-107 1197.13,-100"/>
</g>
<!-- Node21&#45;&gt;Node1 -->
<g id="edge28" class="edge"><title>Node21&#45;&gt;Node1</title>
<path fill="none" stroke="#9a32cd" stroke-dasharray="5,2" d="M739.257,-415.311C795.598,-416.742 879.723,-418.5 953,-418.5 953,-418.5 953,-418.5 1359,-418.5 1409.32,-418.5 1430.8,-419.456 1467,-384.5 1525.38,-328.12 1536.84,-221.847 1539.01,-189.252"/>
<polygon fill="#9a32cd" stroke="#9a32cd" points="739.156,-411.807 729.069,-415.048 738.975,-418.805 739.156,-411.807"/>
<text text-anchor="middle" x="1107" y="-421.5" font-family="Helvetica,sans-Serif" font-size="10.00"> names</text>
</g>
</g>
</svg>
