<?xml version="1.0" encoding="UTF-8" standalone="no"?>
<!DOCTYPE svg PUBLIC "-//W3C//DTD SVG 1.1//EN"
 "http://www.w3.org/Graphics/SVG/1.1/DTD/svg11.dtd">
<!-- Generated by graphviz version 2.38.0 (20140413.2041)
 -->
<!-- Title: dynamicgraph::SignalPtr&lt; T, Time &gt; Pages: 1 -->
<svg width="141pt" height="229pt"
 viewBox="0.00 0.00 141.00 229.00" xmlns="http://www.w3.org/2000/svg" xmlns:xlink="http://www.w3.org/1999/xlink">
<g id="graph0" class="graph" transform="scale(1 1) rotate(0) translate(4 225)">
<title>dynamicgraph::SignalPtr&lt; T, Time &gt;</title>
<polygon fill="white" stroke="none" points="-4,4 -4,-225 137,-225 137,4 -4,4"/>
<!-- Node1 -->
<g id="node1" class="node"><title>Node1</title>
<polygon fill="#bfbfbf" stroke="black" points="5,-0.5 5,-30.5 128,-30.5 128,-0.5 5,-0.5"/>
<text text-anchor="start" x="13" y="-18.5" font-family="Helvetica,sans-Serif" font-size="10.00">dynamicgraph::SignalPtr</text>
<text text-anchor="middle" x="66.5" y="-7.5" font-family="Helvetica,sans-Serif" font-size="10.00">&lt; T, Time &gt;</text>
</g>
<!-- Node2 -->
<g id="node2" class="node"><title>Node2</title>
<g id="a_node2"><a xlink:href="a00041.html" target="_top" xlink:title="Signals link I/O ports of entities. They can be constant&#45;valued signals, or copy the value of a heap ...">
<polygon fill="white" stroke="black" points="11.5,-67.5 11.5,-97.5 121.5,-97.5 121.5,-67.5 11.5,-67.5"/>
<text text-anchor="start" x="19.5" y="-85.5" font-family="Helvetica,sans-Serif" font-size="10.00">dynamicgraph::Signal</text>
<text text-anchor="middle" x="66.5" y="-74.5" font-family="Helvetica,sans-Serif" font-size="10.00">&lt; T, Time &gt;</text>
</a>
</g>
</g>
<!-- Node2&#45;&gt;Node1 -->
<g id="edge1" class="edge"><title>Node2&#45;&gt;Node1</title>
<path fill="none" stroke="midnightblue" d="M66.5,-57.1081C66.5,-48.1539 66.5,-38.3227 66.5,-30.5765"/>
<polygon fill="midnightblue" stroke="midnightblue" points="63.0001,-57.3959 66.5,-67.396 70.0001,-57.396 63.0001,-57.3959"/>
</g>
<!-- Node3 -->
<g id="node3" class="node"><title>Node3</title>
<g id="a_node3"><a xlink:href="a00044.html" target="_top" xlink:title="The base class for signals: not to be used as such. ">
<polygon fill="white" stroke="black" points="0,-134.5 0,-164.5 133,-164.5 133,-134.5 0,-134.5"/>
<text text-anchor="start" x="8" y="-152.5" font-family="Helvetica,sans-Serif" font-size="10.00">dynamicgraph::SignalBase</text>
<text text-anchor="middle" x="66.5" y="-141.5" font-family="Helvetica,sans-Serif" font-size="10.00">&lt; Time &gt;</text>
</a>
</g>
</g>
<!-- Node3&#45;&gt;Node2 -->
<g id="edge2" class="edge"><title>Node3&#45;&gt;Node2</title>
<path fill="none" stroke="midnightblue" d="M66.5,-124.108C66.5,-115.154 66.5,-105.323 66.5,-97.5765"/>
<polygon fill="midnightblue" stroke="midnightblue" points="63.0001,-124.396 66.5,-134.396 70.0001,-124.396 63.0001,-124.396"/>
</g>
<!-- Node4 -->
<g id="node4" class="node"><title>Node4</title>
<polygon fill="white" stroke="#bfbfbf" points="31,-201.5 31,-220.5 102,-220.5 102,-201.5 31,-201.5"/>
<text text-anchor="middle" x="66.5" y="-208.5" font-family="Helvetica,sans-Serif" font-size="10.00">noncopyable</text>
</g>
<!-- Node4&#45;&gt;Node3 -->
<g id="edge3" class="edge"><title>Node4&#45;&gt;Node3</title>
<path fill="none" stroke="midnightblue" d="M66.5,-191.235C66.5,-182.586 66.5,-172.497 66.5,-164.523"/>
<polygon fill="midnightblue" stroke="midnightblue" points="63.0001,-191.475 66.5,-201.475 70.0001,-191.475 63.0001,-191.475"/>
</g>
</g>
</svg>
