<?xml version="1.0" encoding="UTF-8" standalone="no"?>
<!DOCTYPE svg PUBLIC "-//W3C//DTD SVG 1.1//EN"
 "http://www.w3.org/Graphics/SVG/1.1/DTD/svg11.dtd">
<!-- Generated by graphviz version 2.38.0 (20140413.2041)
 -->
<!-- Title: dynamicgraph::Signal&lt; T, Time &gt; Pages: 1 -->
<svg width="282pt" height="229pt"
 viewBox="0.00 0.00 281.50 229.00" xmlns="http://www.w3.org/2000/svg" xmlns:xlink="http://www.w3.org/1999/xlink">
<g id="graph0" class="graph" transform="scale(1 1) rotate(0) translate(4 225)">
<title>dynamicgraph::Signal&lt; T, Time &gt;</title>
<polygon fill="white" stroke="none" points="-4,4 -4,-225 277.5,-225 277.5,4 -4,4"/>
<!-- Node1 -->
<g id="node1" class="node"><title>Node1</title>
<polygon fill="#bfbfbf" stroke="black" points="79.5,-67.5 79.5,-97.5 189.5,-97.5 189.5,-67.5 79.5,-67.5"/>
<text text-anchor="start" x="87.5" y="-85.5" font-family="Helvetica,sans-Serif" font-size="10.00">dynamicgraph::Signal</text>
<text text-anchor="middle" x="134.5" y="-74.5" font-family="Helvetica,sans-Serif" font-size="10.00">&lt; T, Time &gt;</text>
</g>
<!-- Node4 -->
<g id="node4" class="node"><title>Node4</title>
<g id="a_node4"><a xlink:href="a00048.html" target="_top" xlink:title="This is the only type of signal that can be plugged to, using the plug () command. ">
<polygon fill="white" stroke="black" points="0,-0.5 0,-30.5 123,-30.5 123,-0.5 0,-0.5"/>
<text text-anchor="start" x="8" y="-18.5" font-family="Helvetica,sans-Serif" font-size="10.00">dynamicgraph::SignalPtr</text>
<text text-anchor="middle" x="61.5" y="-7.5" font-family="Helvetica,sans-Serif" font-size="10.00">&lt; T, Time &gt;</text>
</a>
</g>
</g>
<!-- Node1&#45;&gt;Node4 -->
<g id="edge3" class="edge"><title>Node1&#45;&gt;Node4</title>
<path fill="none" stroke="midnightblue" d="M111.025,-60.5978C100.003,-50.7831 87.1558,-39.3442 77.309,-30.5765"/>
<polygon fill="midnightblue" stroke="midnightblue" points="108.864,-63.3599 118.66,-67.396 113.519,-58.132 108.864,-63.3599"/>
</g>
<!-- Node5 -->
<g id="node5" class="node"><title>Node5</title>
<g id="a_node5"><a xlink:href="a00049.html" target="_top" xlink:title="A type of signal that enforces a time dependency between other signals, making sure its inputs are up...">
<polygon fill="white" stroke="black" points="141.5,-0.5 141.5,-30.5 273.5,-30.5 273.5,-0.5 141.5,-0.5"/>
<text text-anchor="start" x="149.5" y="-18.5" font-family="Helvetica,sans-Serif" font-size="10.00">dynamicgraph::SignalTime</text>
<text text-anchor="middle" x="207.5" y="-7.5" font-family="Helvetica,sans-Serif" font-size="10.00">Dependent&lt; T, Time &gt;</text>
</a>
</g>
</g>
<!-- Node1&#45;&gt;Node5 -->
<g id="edge4" class="edge"><title>Node1&#45;&gt;Node5</title>
<path fill="none" stroke="midnightblue" d="M157.975,-60.5978C168.997,-50.7831 181.844,-39.3442 191.691,-30.5765"/>
<polygon fill="midnightblue" stroke="midnightblue" points="155.481,-58.132 150.34,-67.396 160.136,-63.3599 155.481,-58.132"/>
</g>
<!-- Node2 -->
<g id="node2" class="node"><title>Node2</title>
<g id="a_node2"><a xlink:href="a00044.html" target="_top" xlink:title="The base class for signals: not to be used as such. ">
<polygon fill="white" stroke="black" points="68,-134.5 68,-164.5 201,-164.5 201,-134.5 68,-134.5"/>
<text text-anchor="start" x="76" y="-152.5" font-family="Helvetica,sans-Serif" font-size="10.00">dynamicgraph::SignalBase</text>
<text text-anchor="middle" x="134.5" y="-141.5" font-family="Helvetica,sans-Serif" font-size="10.00">&lt; Time &gt;</text>
</a>
</g>
</g>
<!-- Node2&#45;&gt;Node1 -->
<g id="edge1" class="edge"><title>Node2&#45;&gt;Node1</title>
<path fill="none" stroke="midnightblue" d="M134.5,-124.108C134.5,-115.154 134.5,-105.323 134.5,-97.5765"/>
<polygon fill="midnightblue" stroke="midnightblue" points="131,-124.396 134.5,-134.396 138,-124.396 131,-124.396"/>
</g>
<!-- Node3 -->
<g id="node3" class="node"><title>Node3</title>
<polygon fill="white" stroke="#bfbfbf" points="99,-201.5 99,-220.5 170,-220.5 170,-201.5 99,-201.5"/>
<text text-anchor="middle" x="134.5" y="-208.5" font-family="Helvetica,sans-Serif" font-size="10.00">noncopyable</text>
</g>
<!-- Node3&#45;&gt;Node2 -->
<g id="edge2" class="edge"><title>Node3&#45;&gt;Node2</title>
<path fill="none" stroke="midnightblue" d="M134.5,-191.235C134.5,-182.586 134.5,-172.497 134.5,-164.523"/>
<polygon fill="midnightblue" stroke="midnightblue" points="131,-191.475 134.5,-201.475 138,-191.475 131,-191.475"/>
</g>
</g>
</svg>
