<?xml version="1.0" encoding="UTF-8" standalone="no"?>
<!DOCTYPE svg PUBLIC "-//W3C//DTD SVG 1.1//EN"
 "http://www.w3.org/Graphics/SVG/1.1/DTD/svg11.dtd">
<!-- Generated by graphviz version 2.38.0 (20140413.2041)
 -->
<!-- Title: dynamicgraph::SignalBase&lt; Time &gt; Pages: 1 -->
<svg width="221pt" height="174pt"
 viewBox="0.00 0.00 220.50 174.00" xmlns="http://www.w3.org/2000/svg" xmlns:xlink="http://www.w3.org/1999/xlink">
<g id="graph0" class="graph" transform="scale(1 1) rotate(0) translate(4 170)">
<title>dynamicgraph::SignalBase&lt; Time &gt;</title>
<polygon fill="white" stroke="none" points="-4,4 -4,-170 216.5,-170 216.5,4 -4,4"/>
<!-- Node1 -->
<g id="node1" class="node"><title>Node1</title>
<polygon fill="#bfbfbf" stroke="black" points="53,-0.5 53,-30.5 186,-30.5 186,-0.5 53,-0.5"/>
<text text-anchor="start" x="61" y="-18.5" font-family="Helvetica,sans-Serif" font-size="10.00">dynamicgraph::SignalBase</text>
<text text-anchor="middle" x="119.5" y="-7.5" font-family="Helvetica,sans-Serif" font-size="10.00">&lt; Time &gt;</text>
</g>
<!-- Node2 -->
<g id="node2" class="node"><title>Node2</title>
<polygon fill="white" stroke="#bfbfbf" points="0,-78.5 0,-97.5 71,-97.5 71,-78.5 0,-78.5"/>
<text text-anchor="middle" x="35.5" y="-85.5" font-family="Helvetica,sans-Serif" font-size="10.00">noncopyable</text>
</g>
<!-- Node2&#45;&gt;Node1 -->
<g id="edge1" class="edge"><title>Node2&#45;&gt;Node1</title>
<path fill="none" stroke="midnightblue" d="M53.6292,-71.7844C68.2056,-59.5506 88.5248,-42.497 102.728,-30.5762"/>
<polygon fill="midnightblue" stroke="midnightblue" points="51.2098,-69.2457 45.8,-78.3553 55.7099,-74.6075 51.2098,-69.2457"/>
</g>
<!-- Node3 -->
<g id="node3" class="node"><title>Node3</title>
<g id="a_node3"><a xlink:title="STL class. ">
<polygon fill="white" stroke="#bfbfbf" points="89.5,-78.5 89.5,-97.5 149.5,-97.5 149.5,-78.5 89.5,-78.5"/>
<text text-anchor="middle" x="119.5" y="-85.5" font-family="Helvetica,sans-Serif" font-size="10.00">std::string</text>
</a>
</g>
</g>
<!-- Node3&#45;&gt;Node1 -->
<g id="edge2" class="edge"><title>Node3&#45;&gt;Node1</title>
<path fill="none" stroke="#9a32cd" stroke-dasharray="5,2" d="M119.5,-68.2362C119.5,-56.4079 119.5,-41.3829 119.5,-30.5762"/>
<polygon fill="#9a32cd" stroke="#9a32cd" points="116,-68.3553 119.5,-78.3553 123,-68.3554 116,-68.3553"/>
<text text-anchor="middle" x="133.5" y="-52" font-family="Helvetica,sans-Serif" font-size="10.00"> name</text>
</g>
<!-- Node4 -->
<g id="node4" class="node"><title>Node4</title>
<g id="a_node4"><a xlink:title="STL class. ">
<polygon fill="white" stroke="#bfbfbf" points="72,-135.5 72,-165.5 167,-165.5 167,-135.5 72,-135.5"/>
<text text-anchor="start" x="80" y="-153.5" font-family="Helvetica,sans-Serif" font-size="10.00">std::basic_string&lt;</text>
<text text-anchor="middle" x="119.5" y="-142.5" font-family="Helvetica,sans-Serif" font-size="10.00"> char &gt;</text>
</a>
</g>
</g>
<!-- Node4&#45;&gt;Node3 -->
<g id="edge3" class="edge"><title>Node4&#45;&gt;Node3</title>
<path fill="none" stroke="midnightblue" d="M119.5,-125.352C119.5,-115.513 119.5,-104.775 119.5,-97.5399"/>
<polygon fill="midnightblue" stroke="midnightblue" points="116,-125.468 119.5,-135.468 123,-125.468 116,-125.468"/>
</g>
<!-- Node5 -->
<g id="node5" class="node"><title>Node5</title>
<polygon fill="white" stroke="#bfbfbf" points="167.5,-78.5 167.5,-97.5 205.5,-97.5 205.5,-78.5 167.5,-78.5"/>
<text text-anchor="middle" x="186.5" y="-85.5" font-family="Helvetica,sans-Serif" font-size="10.00">Time</text>
</g>
<!-- Node5&#45;&gt;Node1 -->
<g id="edge4" class="edge"><title>Node5&#45;&gt;Node1</title>
<path fill="none" stroke="#9a32cd" stroke-dasharray="5,2" d="M171.678,-70.6693C165.491,-63.9148 158.198,-56.0329 151.5,-49 145.712,-42.9218 139.23,-36.3051 133.622,-30.6379"/>
<polygon fill="#9a32cd" stroke="#9a32cd" points="169.471,-73.4429 178.795,-78.4732 174.643,-68.7259 169.471,-73.4429"/>
<text text-anchor="middle" x="187" y="-52" font-family="Helvetica,sans-Serif" font-size="10.00"> signalTime</text>
</g>
</g>
</svg>
