<?xml version="1.0" encoding="UTF-8" standalone="no"?>
<!DOCTYPE svg PUBLIC "-//W3C//DTD SVG 1.1//EN"
 "http://www.w3.org/Graphics/SVG/1.1/DTD/svg11.dtd">
<!-- Generated by graphviz version 2.38.0 (20140413.2041)
 -->
<!-- Title: dynamicgraph::TimeDependency&lt; Time &gt; Pages: 1 -->
<svg width="168pt" height="117pt"
 viewBox="0.00 0.00 168.00 117.00" xmlns="http://www.w3.org/2000/svg" xmlns:xlink="http://www.w3.org/1999/xlink">
<g id="graph0" class="graph" transform="scale(1 1) rotate(0) translate(4 113)">
<title>dynamicgraph::TimeDependency&lt; Time &gt;</title>
<polygon fill="white" stroke="none" points="-4,4 -4,-113 164,-113 164,4 -4,4"/>
<!-- Node1 -->
<g id="node1" class="node"><title>Node1</title>
<polygon fill="#bfbfbf" stroke="black" points="0,-0.5 0,-30.5 160,-30.5 160,-0.5 0,-0.5"/>
<text text-anchor="start" x="8" y="-18.5" font-family="Helvetica,sans-Serif" font-size="10.00">dynamicgraph::TimeDependency</text>
<text text-anchor="middle" x="80" y="-7.5" font-family="Helvetica,sans-Serif" font-size="10.00">&lt; Time &gt;</text>
</g>
<!-- Node2 -->
<g id="node2" class="node"><title>Node2</title>
<polygon fill="white" stroke="#bfbfbf" points="13,-78.5 13,-108.5 147,-108.5 147,-78.5 13,-78.5"/>
<text text-anchor="start" x="21" y="-96.5" font-family="Helvetica,sans-Serif" font-size="10.00">std::list&lt; const SignalBase</text>
<text text-anchor="middle" x="80" y="-85.5" font-family="Helvetica,sans-Serif" font-size="10.00">&lt; Time &gt; * &gt;</text>
</g>
<!-- Node2&#45;&gt;Node1 -->
<g id="edge1" class="edge"><title>Node2&#45;&gt;Node1</title>
<path fill="none" stroke="#9a32cd" stroke-dasharray="5,2" d="M80,-68.0898C80,-55.7565 80,-41.2237 80,-30.7309"/>
<polygon fill="#9a32cd" stroke="#9a32cd" points="76.5001,-68.2049 80,-78.205 83.5001,-68.205 76.5001,-68.2049"/>
<text text-anchor="middle" x="112" y="-52" font-family="Helvetica,sans-Serif" font-size="10.00"> dependencies</text>
</g>
</g>
</svg>
