<?xml version="1.0" encoding="UTF-8" standalone="no"?>
<!DOCTYPE svg PUBLIC "-//W3C//DTD SVG 1.1//EN"
 "http://www.w3.org/Graphics/SVG/1.1/DTD/svg11.dtd">
<!-- Generated by graphviz version 2.38.0 (20140413.2041)
 -->
<!-- Title: dynamicgraph::command::CommandVoid2&lt; E, T1, T2 &gt; Pages: 1 -->
<svg width="160pt" height="185pt"
 viewBox="0.00 0.00 160.00 185.00" xmlns="http://www.w3.org/2000/svg" xmlns:xlink="http://www.w3.org/1999/xlink">
<g id="graph0" class="graph" transform="scale(1 1) rotate(0) translate(4 181)">
<title>dynamicgraph::command::CommandVoid2&lt; E, T1, T2 &gt;</title>
<polygon fill="white" stroke="none" points="-4,4 -4,-181 156,-181 156,4 -4,4"/>
<!-- Node1 -->
<g id="node1" class="node"><title>Node1</title>
<polygon fill="#bfbfbf" stroke="black" points="0,-0.5 0,-30.5 152,-30.5 152,-0.5 0,-0.5"/>
<text text-anchor="start" x="8" y="-18.5" font-family="Helvetica,sans-Serif" font-size="10.00">dynamicgraph::command</text>
<text text-anchor="middle" x="76" y="-7.5" font-family="Helvetica,sans-Serif" font-size="10.00">::CommandVoid2&lt; E, T1, T2 &gt;</text>
</g>
<!-- Node2 -->
<g id="node2" class="node"><title>Node2</title>
<g id="a_node2"><a xlink:href="a00006.html" target="_top" xlink:title="Abstract class for entity commands. ">
<polygon fill="white" stroke="black" points="13,-68.5 13,-98.5 139,-98.5 139,-68.5 13,-68.5"/>
<text text-anchor="start" x="21" y="-86.5" font-family="Helvetica,sans-Serif" font-size="10.00">dynamicgraph::command</text>
<text text-anchor="middle" x="76" y="-75.5" font-family="Helvetica,sans-Serif" font-size="10.00">::Command</text>
</a>
</g>
</g>
<!-- Node2&#45;&gt;Node1 -->
<g id="edge1" class="edge"><title>Node2&#45;&gt;Node1</title>
<path fill="none" stroke="midnightblue" d="M76,-58.0322C76,-48.8606 76,-38.7449 76,-30.7931"/>
<polygon fill="midnightblue" stroke="midnightblue" points="72.5001,-58.1789 76,-68.179 79.5001,-58.179 72.5001,-58.1789"/>
</g>
<!-- Node3 -->
<g id="node3" class="node"><title>Node3</title>
<polygon fill="white" stroke="#bfbfbf" points="9.5,-146.5 9.5,-176.5 142.5,-176.5 142.5,-146.5 9.5,-146.5"/>
<text text-anchor="start" x="17.5" y="-164.5" font-family="Helvetica,sans-Serif" font-size="10.00">std::vector&lt; dynamicgraph</text>
<text text-anchor="middle" x="76" y="-153.5" font-family="Helvetica,sans-Serif" font-size="10.00">::command::Value::Type &gt;</text>
</g>
<!-- Node3&#45;&gt;Node2 -->
<g id="edge2" class="edge"><title>Node3&#45;&gt;Node2</title>
<path fill="none" stroke="#9a32cd" stroke-dasharray="5,2" d="M76,-136.09C76,-123.757 76,-109.224 76,-98.7309"/>
<polygon fill="#9a32cd" stroke="#9a32cd" points="72.5001,-136.205 76,-146.205 79.5001,-136.205 72.5001,-136.205"/>
<text text-anchor="middle" x="108.5" y="-120" font-family="Helvetica,sans-Serif" font-size="10.00"> EMPTY_ARG</text>
</g>
</g>
</svg>
