<?xml version="1.0" encoding="UTF-8" standalone="no"?>
<!DOCTYPE svg PUBLIC "-//W3C//DTD SVG 1.1//EN"
 "http://www.w3.org/Graphics/SVG/1.1/DTD/svg11.dtd">
<!-- Generated by graphviz version 2.38.0 (20140413.2041)
 -->
<!-- Title: Graphical Class Hierarchy Pages: 1 -->
<svg width="482pt" height="104pt"
 viewBox="0.00 0.00 482.00 104.00" xmlns="http://www.w3.org/2000/svg" xmlns:xlink="http://www.w3.org/1999/xlink">
<g id="graph0" class="graph" transform="scale(1 1) rotate(0) translate(4 100)">
<title>Graphical Class Hierarchy</title>
<polygon fill="white" stroke="none" points="-4,4 -4,-100 478,-100 478,4 -4,4"/>
<!-- Node1 -->
<g id="node1" class="node"><title>Node1</title>
<g id="a_node1"><a xlink:title="STL class. ">
<polygon fill="white" stroke="#bfbfbf" points="0,-38.5 0,-57.5 78,-57.5 78,-38.5 0,-38.5"/>
<text text-anchor="middle" x="39" y="-45.5" font-family="Helvetica,sans-Serif" font-size="10.00">std::exception</text>
</a>
</g>
</g>
<!-- Node2 -->
<g id="node2" class="node"><title>Node2</title>
<g id="a_node2"><a xlink:href="a00023.html" target="_top" xlink:title="Abstract root class for all dynamic&#45;graph exceptions. ">
<polygon fill="white" stroke="black" points="114,-38.5 114,-57.5 278,-57.5 278,-38.5 114,-38.5"/>
<text text-anchor="middle" x="196" y="-45.5" font-family="Helvetica,sans-Serif" font-size="10.00">dynamicgraph::ExceptionAbstract</text>
</a>
</g>
</g>
<!-- Node1&#45;&gt;Node2 -->
<g id="edge1" class="edge"><title>Node1&#45;&gt;Node2</title>
<path fill="none" stroke="midnightblue" d="M88.5812,-48C96.631,-48 105.167,-48 113.764,-48"/>
<polygon fill="midnightblue" stroke="midnightblue" points="88.3147,-44.5001 78.3146,-48 88.3146,-51.5001 88.3147,-44.5001"/>
</g>
<!-- Node3 -->
<g id="node3" class="node"><title>Node3</title>
<g id="a_node3"><a xlink:href="a00024.html" target="_top" xlink:title="Generic error class. ">
<polygon fill="white" stroke="black" points="314,-76.5 314,-95.5 474,-95.5 474,-76.5 314,-76.5"/>
<text text-anchor="middle" x="394" y="-83.5" font-family="Helvetica,sans-Serif" font-size="10.00">dynamicgraph::ExceptionFactory</text>
</a>
</g>
</g>
<!-- Node2&#45;&gt;Node3 -->
<g id="edge2" class="edge"><title>Node2&#45;&gt;Node3</title>
<path fill="none" stroke="midnightblue" d="M256.261,-59.4894C284.227,-64.9114 317.209,-71.3058 343.774,-76.4561"/>
<polygon fill="midnightblue" stroke="midnightblue" points="256.689,-56.0073 246.206,-57.54 255.357,-62.8794 256.689,-56.0073"/>
</g>
<!-- Node4 -->
<g id="node4" class="node"><title>Node4</title>
<g id="a_node4"><a xlink:href="a00025.html" target="_top" xlink:title="Exceptions raised when an error related to signals happen. ">
<polygon fill="white" stroke="black" points="317,-38.5 317,-57.5 471,-57.5 471,-38.5 317,-38.5"/>
<text text-anchor="middle" x="394" y="-45.5" font-family="Helvetica,sans-Serif" font-size="10.00">dynamicgraph::ExceptionSignal</text>
</a>
</g>
</g>
<!-- Node2&#45;&gt;Node4 -->
<g id="edge3" class="edge"><title>Node2&#45;&gt;Node4</title>
<path fill="none" stroke="midnightblue" d="M288.137,-48C297.78,-48 307.512,-48 316.957,-48"/>
<polygon fill="midnightblue" stroke="midnightblue" points="288.136,-44.5001 278.136,-48 288.135,-51.5001 288.136,-44.5001"/>
</g>
<!-- Node5 -->
<g id="node5" class="node"><title>Node5</title>
<g id="a_node5"><a xlink:href="a00026.html" target="_top" xlink:title="Exceptions raised when an error related to traces happen. ">
<polygon fill="white" stroke="black" points="315.5,-0.5 315.5,-19.5 472.5,-19.5 472.5,-0.5 315.5,-0.5"/>
<text text-anchor="middle" x="394" y="-7.5" font-family="Helvetica,sans-Serif" font-size="10.00">dynamicgraph::ExceptionTraces</text>
</a>
</g>
</g>
<!-- Node2&#45;&gt;Node5 -->
<g id="edge4" class="edge"><title>Node2&#45;&gt;Node5</title>
<path fill="none" stroke="midnightblue" d="M256.261,-36.5106C284.227,-31.0886 317.209,-24.6942 343.774,-19.5439"/>
<polygon fill="midnightblue" stroke="midnightblue" points="255.357,-33.1206 246.206,-38.46 256.689,-39.9927 255.357,-33.1206"/>
</g>
</g>
</svg>
