<?xml version="1.0" encoding="UTF-8" standalone="no"?>
<!DOCTYPE svg PUBLIC "-//W3C//DTD SVG 1.1//EN"
 "http://www.w3.org/Graphics/SVG/1.1/DTD/svg11.dtd">
<!-- Generated by graphviz version 2.38.0 (20140413.2041)
 -->
<!-- Title: Graphical Class Hierarchy Pages: 1 -->
<svg width="654pt" height="288pt"
 viewBox="0.00 0.00 654.00 287.50" xmlns="http://www.w3.org/2000/svg" xmlns:xlink="http://www.w3.org/1999/xlink">
<g id="graph0" class="graph" transform="scale(1 1) rotate(0) translate(4 283.5)">
<title>Graphical Class Hierarchy</title>
<polygon fill="white" stroke="none" points="-4,4 -4,-283.5 650,-283.5 650,4 -4,4"/>
<!-- Node1 -->
<g id="node1" class="node"><title>Node1</title>
<polygon fill="white" stroke="#bfbfbf" points="0,-184 0,-203 71,-203 71,-184 0,-184"/>
<text text-anchor="middle" x="35.5" y="-191" font-family="Helvetica,sans-Serif" font-size="10.00">noncopyable</text>
</g>
<!-- Node2 -->
<g id="node2" class="node"><title>Node2</title>
<g id="a_node2"><a xlink:href="a00020.html" target="_top" xlink:title="This class represents an entity, i.e. ">
<polygon fill="white" stroke="black" points="129.5,-260 129.5,-279 238.5,-279 238.5,-260 129.5,-260"/>
<text text-anchor="middle" x="184" y="-267" font-family="Helvetica,sans-Serif" font-size="10.00">dynamicgraph::Entity</text>
</a>
</g>
</g>
<!-- Node1&#45;&gt;Node2 -->
<g id="edge1" class="edge"><title>Node1&#45;&gt;Node2</title>
<path fill="none" stroke="#8b1a1a" d="M53.041,-210.415C66.464,-223.208 86.4691,-240.265 107,-250.5 114.668,-254.323 123.165,-257.415 131.618,-259.904"/>
<polygon fill="#8b1a1a" stroke="#8b1a1a" points="55.1763,-207.607 45.588,-203.099 50.2728,-212.602 55.1763,-207.607"/>
</g>
<!-- Node5 -->
<g id="node5" class="node"><title>Node5</title>
<g id="a_node5"><a xlink:href="a00022.html" target="_top" xlink:title="This class automatically register an Entity to the global factory at initialization and unregister it...">
<polygon fill="white" stroke="black" points="107,-222 107,-241 261,-241 261,-222 107,-222"/>
<text text-anchor="middle" x="184" y="-229" font-family="Helvetica,sans-Serif" font-size="10.00">dynamicgraph::EntityRegisterer</text>
</a>
</g>
</g>
<!-- Node1&#45;&gt;Node5 -->
<g id="edge4" class="edge"><title>Node1&#45;&gt;Node5</title>
<path fill="none" stroke="#8b1a1a" d="M81.1154,-205.656C89.6984,-207.957 98.6224,-210.324 107,-212.5 119.111,-215.645 132.332,-218.984 144.302,-221.971"/>
<polygon fill="#8b1a1a" stroke="#8b1a1a" points="81.8155,-202.22 71.2495,-203 79.9959,-208.979 81.8155,-202.22"/>
</g>
<!-- Node6 -->
<g id="node6" class="node"><title>Node6</title>
<g id="a_node6"><a xlink:href="a00027.html" target="_top" xlink:title="Provides a way to create Entity objects from their class name. ">
<polygon fill="white" stroke="black" points="109,-184 109,-203 259,-203 259,-184 109,-184"/>
<text text-anchor="middle" x="184" y="-191" font-family="Helvetica,sans-Serif" font-size="10.00">dynamicgraph::FactoryStorage</text>
</a>
</g>
</g>
<!-- Node1&#45;&gt;Node6 -->
<g id="edge5" class="edge"><title>Node1&#45;&gt;Node6</title>
<path fill="none" stroke="#8b1a1a" d="M81.4419,-193.5C90.1106,-193.5 99.4045,-193.5 108.721,-193.5"/>
<polygon fill="#8b1a1a" stroke="#8b1a1a" points="81.2185,-190 71.2185,-193.5 81.2184,-197 81.2185,-190"/>
</g>
<!-- Node7 -->
<g id="node7" class="node"><title>Node7</title>
<g id="a_node7"><a xlink:href="a00044.html" target="_top" xlink:title="The base class for signals: not to be used as such. ">
<polygon fill="white" stroke="black" points="117.5,-134.5 117.5,-164.5 250.5,-164.5 250.5,-134.5 117.5,-134.5"/>
<text text-anchor="start" x="125.5" y="-152.5" font-family="Helvetica,sans-Serif" font-size="10.00">dynamicgraph::SignalBase</text>
<text text-anchor="middle" x="184" y="-141.5" font-family="Helvetica,sans-Serif" font-size="10.00">&lt; Time &gt;</text>
</a>
</g>
</g>
<!-- Node1&#45;&gt;Node7 -->
<g id="edge6" class="edge"><title>Node1&#45;&gt;Node7</title>
<path fill="none" stroke="midnightblue" d="M77.9703,-181.045C95.0377,-175.919 114.961,-169.935 132.839,-164.565"/>
<polygon fill="midnightblue" stroke="midnightblue" points="76.8589,-177.724 68.2883,-183.953 78.8725,-184.428 76.8589,-177.724"/>
</g>
<!-- Node11 -->
<g id="node11" class="node"><title>Node11</title>
<g id="a_node11"><a xlink:href="a00044.html" target="_top" xlink:title="dynamicgraph::SignalBase\l\&lt; int \&gt;">
<polygon fill="white" stroke="black" points="117.5,-73.5 117.5,-103.5 250.5,-103.5 250.5,-73.5 117.5,-73.5"/>
<text text-anchor="start" x="125.5" y="-91.5" font-family="Helvetica,sans-Serif" font-size="10.00">dynamicgraph::SignalBase</text>
<text text-anchor="middle" x="184" y="-80.5" font-family="Helvetica,sans-Serif" font-size="10.00">&lt; int &gt;</text>
</a>
</g>
</g>
<!-- Node1&#45;&gt;Node11 -->
<g id="edge10" class="edge"><title>Node1&#45;&gt;Node11</title>
<path fill="none" stroke="midnightblue" d="M51.4099,-175.92C64.826,-160.881 85.6584,-139.369 107,-124.5 118.62,-116.404 132.345,-109.275 144.913,-103.542"/>
<polygon fill="midnightblue" stroke="midnightblue" points="48.708,-173.693 44.7635,-183.526 53.9791,-178.299 48.708,-173.693"/>
</g>
<!-- Node3 -->
<g id="node3" class="node"><title>Node3</title>
<g id="a_node3"><a xlink:href="a00051.html" target="_top" xlink:title="Tracer plug&#45;in main class. ">
<polygon fill="white" stroke="black" points="321.5,-260 321.5,-279 432.5,-279 432.5,-260 321.5,-260"/>
<text text-anchor="middle" x="377" y="-267" font-family="Helvetica,sans-Serif" font-size="10.00">dynamicgraph::Tracer</text>
</a>
</g>
</g>
<!-- Node2&#45;&gt;Node3 -->
<g id="edge2" class="edge"><title>Node2&#45;&gt;Node3</title>
<path fill="none" stroke="midnightblue" d="M248.929,-269.5C272.414,-269.5 298.77,-269.5 321.365,-269.5"/>
<polygon fill="midnightblue" stroke="midnightblue" points="248.712,-266 238.712,-269.5 248.712,-273 248.712,-266"/>
</g>
<!-- Node4 -->
<g id="node4" class="node"><title>Node4</title>
<g id="a_node4"><a xlink:href="a00052.html" target="_top" xlink:title="Main class of the tracer real&#45;time plug&#45;in. ">
<polygon fill="white" stroke="black" points="493,-260 493,-279 646,-279 646,-260 493,-260"/>
<text text-anchor="middle" x="569.5" y="-267" font-family="Helvetica,sans-Serif" font-size="10.00">dynamicgraph::TracerRealTime</text>
</a>
</g>
</g>
<!-- Node3&#45;&gt;Node4 -->
<g id="edge3" class="edge"><title>Node3&#45;&gt;Node4</title>
<path fill="none" stroke="midnightblue" d="M442.954,-269.5C459.042,-269.5 476.417,-269.5 492.962,-269.5"/>
<polygon fill="midnightblue" stroke="midnightblue" points="442.59,-266 432.59,-269.5 442.59,-273 442.59,-266"/>
</g>
<!-- Node8 -->
<g id="node8" class="node"><title>Node8</title>
<g id="a_node8"><a xlink:href="a00041.html" target="_top" xlink:title="Signals link I/O ports of entities. They can be constant&#45;valued signals, or copy the value of a heap ...">
<polygon fill="white" stroke="black" points="322,-147.5 322,-177.5 432,-177.5 432,-147.5 322,-147.5"/>
<text text-anchor="start" x="330" y="-165.5" font-family="Helvetica,sans-Serif" font-size="10.00">dynamicgraph::Signal</text>
<text text-anchor="middle" x="377" y="-154.5" font-family="Helvetica,sans-Serif" font-size="10.00">&lt; T, Time &gt;</text>
</a>
</g>
</g>
<!-- Node7&#45;&gt;Node8 -->
<g id="edge7" class="edge"><title>Node7&#45;&gt;Node8</title>
<path fill="none" stroke="midnightblue" d="M260.935,-154.668C281.314,-156.055 302.935,-157.527 321.868,-158.816"/>
<polygon fill="midnightblue" stroke="midnightblue" points="260.946,-151.161 250.731,-153.974 260.471,-158.145 260.946,-151.161"/>
</g>
<!-- Node9 -->
<g id="node9" class="node"><title>Node9</title>
<g id="a_node9"><a xlink:href="a00048.html" target="_top" xlink:title="This is the only type of signal that can be plugged to, using the plug () command. ">
<polygon fill="white" stroke="black" points="508,-147.5 508,-177.5 631,-177.5 631,-147.5 508,-147.5"/>
<text text-anchor="start" x="516" y="-165.5" font-family="Helvetica,sans-Serif" font-size="10.00">dynamicgraph::SignalPtr</text>
<text text-anchor="middle" x="569.5" y="-154.5" font-family="Helvetica,sans-Serif" font-size="10.00">&lt; T, Time &gt;</text>
</a>
</g>
</g>
<!-- Node8&#45;&gt;Node9 -->
<g id="edge8" class="edge"><title>Node8&#45;&gt;Node9</title>
<path fill="none" stroke="midnightblue" d="M442.285,-162.5C463.492,-162.5 486.997,-162.5 507.918,-162.5"/>
<polygon fill="midnightblue" stroke="midnightblue" points="442.08,-159 432.08,-162.5 442.08,-166 442.08,-159"/>
</g>
<!-- Node10 -->
<g id="node10" class="node"><title>Node10</title>
<g id="a_node10"><a xlink:href="a00049.html" target="_top" xlink:title="A type of signal that enforces a time dependency between other signals, making sure its inputs are up...">
<polygon fill="white" stroke="black" points="503.5,-98.5 503.5,-128.5 635.5,-128.5 635.5,-98.5 503.5,-98.5"/>
<text text-anchor="start" x="511.5" y="-116.5" font-family="Helvetica,sans-Serif" font-size="10.00">dynamicgraph::SignalTime</text>
<text text-anchor="middle" x="569.5" y="-105.5" font-family="Helvetica,sans-Serif" font-size="10.00">Dependent&lt; T, Time &gt;</text>
</a>
</g>
</g>
<!-- Node8&#45;&gt;Node10 -->
<g id="edge9" class="edge"><title>Node8&#45;&gt;Node10</title>
<path fill="none" stroke="midnightblue" d="M441.981,-146.043C463.955,-140.391 488.427,-134.096 509.948,-128.561"/>
<polygon fill="midnightblue" stroke="midnightblue" points="440.893,-142.709 432.08,-148.59 442.637,-149.488 440.893,-142.709"/>
</g>
<!-- Node12 -->
<g id="node12" class="node"><title>Node12</title>
<g id="a_node12"><a xlink:href="a00041.html" target="_top" xlink:title="dynamicgraph::Signal\l\&lt; int, int \&gt;">
<polygon fill="white" stroke="black" points="322,-49.5 322,-79.5 432,-79.5 432,-49.5 322,-49.5"/>
<text text-anchor="start" x="330" y="-67.5" font-family="Helvetica,sans-Serif" font-size="10.00">dynamicgraph::Signal</text>
<text text-anchor="middle" x="377" y="-56.5" font-family="Helvetica,sans-Serif" font-size="10.00">&lt; int, int &gt;</text>
</a>
</g>
</g>
<!-- Node11&#45;&gt;Node12 -->
<g id="edge11" class="edge"><title>Node11&#45;&gt;Node12</title>
<path fill="none" stroke="midnightblue" d="M260.656,-78.9935C281.117,-76.4225 302.849,-73.6918 321.868,-71.302"/>
<polygon fill="midnightblue" stroke="midnightblue" points="260.217,-75.521 250.731,-80.2406 261.09,-82.4664 260.217,-75.521"/>
</g>
<!-- Node13 -->
<g id="node13" class="node"><title>Node13</title>
<g id="a_node13"><a xlink:href="a00049.html" target="_top" xlink:title="dynamicgraph::SignalTime\lDependent\&lt; int, int \&gt;">
<polygon fill="white" stroke="black" points="503.5,-25.5 503.5,-55.5 635.5,-55.5 635.5,-25.5 503.5,-25.5"/>
<text text-anchor="start" x="511.5" y="-43.5" font-family="Helvetica,sans-Serif" font-size="10.00">dynamicgraph::SignalTime</text>
<text text-anchor="middle" x="569.5" y="-32.5" font-family="Helvetica,sans-Serif" font-size="10.00">Dependent&lt; int, int &gt;</text>
</a>
</g>
</g>
<!-- Node12&#45;&gt;Node13 -->
<g id="edge12" class="edge"><title>Node12&#45;&gt;Node13</title>
<path fill="none" stroke="midnightblue" d="M442.199,-56.412C461.937,-53.9253 483.672,-51.187 503.465,-48.6934"/>
<polygon fill="midnightblue" stroke="midnightblue" points="441.564,-52.9642 432.08,-57.6868 442.439,-59.9093 441.564,-52.9642"/>
</g>
<!-- Node14 -->
<g id="node14" class="node"><title>Node14</title>
<g id="a_node14"><a xlink:href="a00050.html" target="_top" xlink:title="A helper class for setting and specifying dependencies between signals. ">
<polygon fill="white" stroke="black" points="297,-98.5 297,-128.5 457,-128.5 457,-98.5 297,-98.5"/>
<text text-anchor="start" x="305" y="-116.5" font-family="Helvetica,sans-Serif" font-size="10.00">dynamicgraph::TimeDependency</text>
<text text-anchor="middle" x="377" y="-105.5" font-family="Helvetica,sans-Serif" font-size="10.00">&lt; Time &gt;</text>
</a>
</g>
</g>
<!-- Node14&#45;&gt;Node10 -->
<g id="edge13" class="edge"><title>Node14&#45;&gt;Node10</title>
<path fill="none" stroke="midnightblue" d="M467.262,-113.5C479.376,-113.5 491.62,-113.5 503.205,-113.5"/>
<polygon fill="midnightblue" stroke="midnightblue" points="467.134,-110 457.134,-113.5 467.134,-117 467.134,-110"/>
</g>
<!-- Node15 -->
<g id="node15" class="node"><title>Node15</title>
<g id="a_node15"><a xlink:href="a00050.html" target="_top" xlink:title="dynamicgraph::TimeDependency\l\&lt; int \&gt;">
<polygon fill="white" stroke="black" points="297,-0.5 297,-30.5 457,-30.5 457,-0.5 297,-0.5"/>
<text text-anchor="start" x="305" y="-18.5" font-family="Helvetica,sans-Serif" font-size="10.00">dynamicgraph::TimeDependency</text>
<text text-anchor="middle" x="377" y="-7.5" font-family="Helvetica,sans-Serif" font-size="10.00">&lt; int &gt;</text>
</a>
</g>
</g>
<!-- Node15&#45;&gt;Node13 -->
<g id="edge14" class="edge"><title>Node15&#45;&gt;Node13</title>
<path fill="none" stroke="midnightblue" d="M467.262,-27.2142C479.376,-28.804 491.62,-30.4107 503.205,-31.9311"/>
<polygon fill="midnightblue" stroke="midnightblue" points="467.505,-23.7161 457.134,-25.8851 466.594,-30.6566 467.505,-23.7161"/>
</g>
</g>
</svg>
